<svg xmlns="http://www.w3.org/2000/svg" xmlns:xlink="http://www.w3.org/1999/xlink" width="1920" height="1080" viewBox="0 0 1920 1080"><defs><style>.cls-1{isolation:isolate;}.cls-2{opacity:0.92;fill:url(#linear-gradient);}.cls-3{fill:url(#linear-gradient-2);}.cls-4{fill:none;}.cls-5{fill:#fffffd;}.cls-6{opacity:0.89;mix-blend-mode:screen;}.cls-7{fill:url(#linear-gradient-3);}</style><linearGradient id="linear-gradient" x1="960.21" y1="583.11" x2="960.21" y2="-0.77" gradientUnits="userSpaceOnUse"><stop offset="0" stop-color="#fff"/><stop offset="0" stop-color="#7a76a5"/><stop offset="0" stop-color="#e9e8f0"/><stop offset="0" stop-color="#dfdee9"/><stop offset="0" stop-color="#dcdbe7"/><stop offset="0" stop-color="#b8b6cf"/><stop offset="0.23" stop-color="#8a87b0"/><stop offset="0.87" stop-color="#1b1464"/></linearGradient><linearGradient id="linear-gradient-2" x1="1110.11" y1="188.28" x2="812.85" y2="1297.69" gradientUnits="userSpaceOnUse"><stop offset="0" stop-color="#fff"/><stop offset="0" stop-color="#7a76a5"/><stop offset="0" stop-color="#e9e8f0"/><stop offset="0" stop-color="#e7e7ee"/><stop offset="0" stop-color="#e1e2e7"/><stop offset="0" stop-color="#d6d9dc"/><stop offset="0" stop-color="#c7cccb"/><stop offset="0" stop-color="#b2bcb5"/><stop offset="0" stop-color="#99a799"/><stop offset="0" stop-color="#7b8f79"/><stop offset="0" stop-color="#5a7455"/><stop offset="0" stop-color="#395931"/><stop offset="0" stop-color="#3c5b34"/><stop offset="0" stop-color="#46623f"/><stop offset="0" stop-color="#566f50"/><stop offset="0" stop-color="#6d8069"/><stop offset="0" stop-color="#8b9588"/><stop offset="0" stop-color="#afb0af"/><stop offset="0" stop-color="#b3b3b3"/><stop offset="0.01" stop-color="#a8aba7"/><stop offset="0.05" stop-color="#8a9588"/><stop offset="0.09" stop-color="#71826c"/><stop offset="0.14" stop-color="#5c7356"/><stop offset="0.2" stop-color="#4c6745"/><stop offset="0.27" stop-color="#415f3a"/><stop offset="0.36" stop-color="#3b5a33"/><stop offset="0.64" stop-color="#395931"/><stop offset="0.82" stop-color="#395931"/></linearGradient><linearGradient id="linear-gradient-3" x1="1627.95" y1="183.73" x2="1627.95" y2="53.76" gradientUnits="userSpaceOnUse"><stop offset="0" stop-color="#fff"/><stop offset="0" stop-color="#7a76a5"/><stop offset="0" stop-color="#e9e8f0"/><stop offset="0" stop-color="#edecf3" stop-opacity="0.82"/><stop offset="0" stop-color="#f1f0f5" stop-opacity="0.65"/><stop offset="0" stop-color="#f4f4f8" stop-opacity="0.5"/><stop offset="0" stop-color="#f7f7fa" stop-opacity="0.36"/><stop offset="0" stop-color="#faf9fb" stop-opacity="0.25"/><stop offset="0" stop-color="#fcfbfd" stop-opacity="0.16"/><stop offset="0" stop-color="#fdfdfe" stop-opacity="0.09"/><stop offset="0" stop-color="#fefefe" stop-opacity="0.04"/><stop offset="0" stop-color="#fff" stop-opacity="0.01"/><stop offset="0" stop-color="#fff" stop-opacity="0"/><stop offset="0.15" stop-color="#f7f7fa" stop-opacity="0.24"/><stop offset="0.31" stop-color="#f0f0f5" stop-opacity="0.47"/><stop offset="0.47" stop-color="#eae9f0" stop-opacity="0.66"/><stop offset="0.62" stop-color="#e5e4ed" stop-opacity="0.81"/><stop offset="0.76" stop-color="#e2e1eb" stop-opacity="0.91"/><stop offset="0.89" stop-color="#e0dfe9" stop-opacity="0.98"/><stop offset="1" stop-color="#dfdee9"/></linearGradient></defs><title>Baggrund</title><g class="cls-1"><g id="Layer_2" data-name="Layer 2"><rect class="cls-2" x="0.41" y="-0.77" width="1919.59" height="583.88"/><path class="cls-3" d="M1889.61,433.17l30.39,0c-186.41-81.4-505.42-192.58-914.8-200C549.34,225,195.7,349.3,2.18,433.92l-7.77.22L.41,1080H1921q2.51-321.93,5-643.86Z"/><rect class="cls-4" x="1663.57" y="55.87" width="7" height="7"/><circle class="cls-5" cx="1667.07" cy="59.37" r="3.5"/><rect class="cls-4" x="1582.83" y="6.95" width="7" height="7"/><circle class="cls-5" cx="1586.33" cy="10.45" r="3.5"/><rect class="cls-4" x="1543.97" y="29.4" width="7" height="7"/><circle class="cls-5" cx="1547.47" cy="32.9" r="3.5"/><rect class="cls-4" x="1431.84" y="158.24" width="7" height="7"/><circle class="cls-5" cx="1435.34" cy="161.74" r="3.5"/><rect class="cls-4" x="1393.31" y="94.64" width="7" height="7"/><circle class="cls-5" cx="1396.81" cy="98.14" r="3.5"/><rect class="cls-4" x="1343.41" y="76.17" width="7" height="7"/><circle class="cls-5" cx="1346.91" cy="79.67" r="3.5"/><rect class="cls-4" x="1302.29" y="131.08" width="7" height="7"/><circle class="cls-5" cx="1305.79" cy="134.58" r="3.5"/><rect class="cls-4" x="1189.89" y="103.78" width="7" height="7"/><circle class="cls-5" cx="1193.39" cy="107.28" r="3.5"/><rect class="cls-4" x="1129.74" y="105.57" width="7" height="7"/><circle class="cls-5" cx="1133.24" cy="109.07" r="3.5"/><rect class="cls-4" x="1081.29" y="23.18" width="7" height="7"/><circle class="cls-5" cx="1084.79" cy="26.68" r="3.5"/><rect class="cls-4" x="1053.61" y="37.46" width="7" height="7"/><circle class="cls-5" cx="1057.11" cy="40.96" r="3.5"/><rect class="cls-4" x="1019.83" y="82.99" width="7" height="7"/><circle class="cls-5" cx="1023.33" cy="86.49" r="3.5"/><rect class="cls-4" x="953.38" y="151.51" width="7" height="7"/><circle class="cls-5" cx="956.88" cy="155.01" r="3.5"/><rect class="cls-4" x="898.5" y="2.95" width="7" height="7"/><circle class="cls-5" cx="902" cy="6.45" r="3.5"/><rect class="cls-4" x="852.71" y="94.62" width="7" height="7"/><circle class="cls-5" cx="856.21" cy="98.12" r="3.5"/><rect class="cls-4" x="801.18" y="65.85" width="7" height="7"/><circle class="cls-5" cx="804.68" cy="69.35" r="3.5"/><rect class="cls-4" x="678.74" y="7.29" width="7" height="7"/><circle class="cls-5" cx="682.24" cy="10.79" r="3.5"/><rect class="cls-4" x="615.43" y="70.89" width="7" height="7"/><circle class="cls-5" cx="618.93" cy="74.39" r="3.5"/><rect class="cls-4" x="578.8" y="99.61" width="7" height="7"/><circle class="cls-5" cx="582.3" cy="103.11" r="3.5"/><rect class="cls-4" x="553.69" y="105.66" width="7" height="7"/><circle class="cls-5" cx="557.19" cy="109.16" r="3.5"/><rect class="cls-4" x="430.6" y="28.46" width="7" height="7"/><circle class="cls-5" cx="434.1" cy="31.96" r="3.5"/><rect class="cls-4" x="418.11" y="9.79" width="7" height="7"/><circle class="cls-5" cx="421.61" cy="13.29" r="3.5"/><rect class="cls-4" x="386.43" y="23.61" width="7" height="7"/><circle class="cls-5" cx="389.93" cy="27.11" r="3.5"/><rect class="cls-4" x="357.51" y="4.22" width="7" height="7"/><circle class="cls-5" cx="361.01" cy="7.72" r="3.5"/><rect class="cls-4" x="302.28" y="65.54" width="7" height="7"/><circle class="cls-5" cx="305.78" cy="69.04" r="3.5"/><rect class="cls-4" x="243.59" y="159.69" width="7" height="7"/><circle class="cls-5" cx="247.09" cy="163.19" r="3.5"/><rect class="cls-4" x="189.73" y="101.46" width="7" height="7"/><circle class="cls-5" cx="193.23" cy="104.96" r="3.5"/><rect class="cls-4" x="163.92" y="110.07" width="7" height="7"/><circle class="cls-5" cx="167.42" cy="113.57" r="3.5"/><image class="cls-6" width="431" height="431" transform="translate(1412.29 -97.23)" xlink:href="Baggrund1.png"/><circle class="cls-7" cx="1627.95" cy="118.75" r="64.99"/></g></g></svg>
