<svg xmlns="http://www.w3.org/2000/svg" xmlns:xlink="http://www.w3.org/1999/xlink" width="1920" height="1080" viewBox="0 0 1920 1080"><defs><style>.cls-1{isolation:isolate;}.cls-2{opacity:0.92;fill:url(#linear-gradient);}.cls-3{fill:url(#linear-gradient-2);}.cls-4{fill:none;}.cls-5{fill:#fffffd;}.cls-6{fill:#bf5c81;}.cls-7{opacity:0.89;mix-blend-mode:screen;}.cls-8{fill:url(#linear-gradient-3);}</style><linearGradient id="linear-gradient" x1="960.21" y1="583.11" x2="960.21" y2="-0.77" gradientUnits="userSpaceOnUse"><stop offset="0" stop-color="#fff"/><stop offset="0" stop-color="#7a76a5"/><stop offset="0" stop-color="#e9e8f0"/><stop offset="0" stop-color="#dfdee9"/><stop offset="0" stop-color="#dcdbe7"/><stop offset="0" stop-color="#b8b6cf"/><stop offset="0.23" stop-color="#8a87b0"/><stop offset="0.87" stop-color="#1b1464"/></linearGradient><linearGradient id="linear-gradient-2" x1="1110.11" y1="188.28" x2="812.85" y2="1297.69" gradientUnits="userSpaceOnUse"><stop offset="0" stop-color="#fff"/><stop offset="0" stop-color="#7a76a5"/><stop offset="0" stop-color="#e9e8f0"/><stop offset="0" stop-color="#e7e7ee"/><stop offset="0" stop-color="#e1e2e7"/><stop offset="0" stop-color="#d6d9dc"/><stop offset="0" stop-color="#c7cccb"/><stop offset="0" stop-color="#b2bcb5"/><stop offset="0" stop-color="#99a799"/><stop offset="0" stop-color="#7b8f79"/><stop offset="0" stop-color="#5a7455"/><stop offset="0" stop-color="#395931"/><stop offset="0" stop-color="#3c5b34"/><stop offset="0" stop-color="#46623f"/><stop offset="0" stop-color="#566f50"/><stop offset="0" stop-color="#6d8069"/><stop offset="0" stop-color="#8b9588"/><stop offset="0" stop-color="#afb0af"/><stop offset="0" stop-color="#b3b3b3"/><stop offset="0.01" stop-color="#a8aba7"/><stop offset="0.05" stop-color="#8a9588"/><stop offset="0.09" stop-color="#71826c"/><stop offset="0.14" stop-color="#5c7356"/><stop offset="0.2" stop-color="#4c6745"/><stop offset="0.27" stop-color="#415f3a"/><stop offset="0.36" stop-color="#3b5a33"/><stop offset="0.64" stop-color="#395931"/><stop offset="0.82" stop-color="#395931"/></linearGradient><linearGradient id="linear-gradient-3" x1="1627.95" y1="183.73" x2="1627.95" y2="53.76" gradientUnits="userSpaceOnUse"><stop offset="0" stop-color="#fff"/><stop offset="0" stop-color="#7a76a5"/><stop offset="0" stop-color="#e9e8f0"/><stop offset="0" stop-color="#edecf3" stop-opacity="0.82"/><stop offset="0" stop-color="#f1f0f5" stop-opacity="0.65"/><stop offset="0" stop-color="#f4f4f8" stop-opacity="0.5"/><stop offset="0" stop-color="#f7f7fa" stop-opacity="0.36"/><stop offset="0" stop-color="#faf9fb" stop-opacity="0.25"/><stop offset="0" stop-color="#fcfbfd" stop-opacity="0.16"/><stop offset="0" stop-color="#fdfdfe" stop-opacity="0.09"/><stop offset="0" stop-color="#fefefe" stop-opacity="0.04"/><stop offset="0" stop-color="#fff" stop-opacity="0.01"/><stop offset="0" stop-color="#fff" stop-opacity="0"/><stop offset="0.15" stop-color="#f7f7fa" stop-opacity="0.24"/><stop offset="0.31" stop-color="#f0f0f5" stop-opacity="0.47"/><stop offset="0.47" stop-color="#eae9f0" stop-opacity="0.66"/><stop offset="0.62" stop-color="#e5e4ed" stop-opacity="0.81"/><stop offset="0.76" stop-color="#e2e1eb" stop-opacity="0.91"/><stop offset="0.89" stop-color="#e0dfe9" stop-opacity="0.98"/><stop offset="1" stop-color="#dfdee9"/></linearGradient></defs><title>BAGGRUND STARTSKÆRM</title><g class="cls-1"><g id="Layer_2" data-name="Layer 2"><rect class="cls-2" x="0.41" y="-0.77" width="1919.59" height="583.88"/><path class="cls-3" d="M1889.61,433.17l30.39,0c-186.41-81.4-505.42-192.58-914.8-200C549.34,225,195.7,349.3,2.18,433.92l-7.77.22L.41,1080H1921q2.51-321.93,5-643.86Z"/><rect class="cls-4" x="1663.57" y="55.87" width="7" height="7"/><circle class="cls-5" cx="1667.07" cy="59.37" r="3.5"/><rect class="cls-4" x="1582.83" y="6.95" width="7" height="7"/><circle class="cls-5" cx="1586.33" cy="10.45" r="3.5"/><rect class="cls-4" x="1543.97" y="29.4" width="7" height="7"/><circle class="cls-5" cx="1547.47" cy="32.9" r="3.5"/><rect class="cls-4" x="1431.84" y="158.24" width="7" height="7"/><circle class="cls-5" cx="1435.34" cy="161.74" r="3.5"/><rect class="cls-4" x="1393.31" y="94.64" width="7" height="7"/><circle class="cls-5" cx="1396.81" cy="98.14" r="3.5"/><rect class="cls-4" x="1343.41" y="76.17" width="7" height="7"/><circle class="cls-5" cx="1346.91" cy="79.67" r="3.5"/><rect class="cls-4" x="1302.29" y="131.08" width="7" height="7"/><circle class="cls-5" cx="1305.79" cy="134.58" r="3.5"/><rect class="cls-4" x="1189.89" y="103.78" width="7" height="7"/><circle class="cls-5" cx="1193.39" cy="107.28" r="3.5"/><rect class="cls-4" x="1129.74" y="105.57" width="7" height="7"/><circle class="cls-5" cx="1133.24" cy="109.07" r="3.5"/><rect class="cls-4" x="1081.29" y="23.18" width="7" height="7"/><circle class="cls-5" cx="1084.79" cy="26.68" r="3.5"/><rect class="cls-4" x="1053.61" y="37.46" width="7" height="7"/><circle class="cls-5" cx="1057.11" cy="40.96" r="3.5"/><rect class="cls-4" x="1019.83" y="82.99" width="7" height="7"/><circle class="cls-5" cx="1023.33" cy="86.49" r="3.5"/><rect class="cls-4" x="953.38" y="151.51" width="7" height="7"/><circle class="cls-5" cx="956.88" cy="155.01" r="3.5"/><rect class="cls-4" x="898.5" y="2.95" width="7" height="7"/><circle class="cls-5" cx="902" cy="6.45" r="3.5"/><rect class="cls-4" x="852.71" y="94.62" width="7" height="7"/><circle class="cls-5" cx="856.21" cy="98.12" r="3.5"/><rect class="cls-4" x="801.18" y="65.85" width="7" height="7"/><circle class="cls-5" cx="804.68" cy="69.35" r="3.5"/><rect class="cls-4" x="678.74" y="7.29" width="7" height="7"/><circle class="cls-5" cx="682.24" cy="10.79" r="3.5"/><rect class="cls-4" x="615.43" y="70.89" width="7" height="7"/><circle class="cls-5" cx="618.93" cy="74.39" r="3.5"/><rect class="cls-4" x="578.8" y="99.61" width="7" height="7"/><circle class="cls-5" cx="582.3" cy="103.11" r="3.5"/><rect class="cls-4" x="553.69" y="105.66" width="7" height="7"/><circle class="cls-5" cx="557.19" cy="109.16" r="3.5"/><rect class="cls-4" x="430.6" y="28.46" width="7" height="7"/><circle class="cls-5" cx="434.1" cy="31.96" r="3.5"/><rect class="cls-4" x="418.11" y="9.79" width="7" height="7"/><circle class="cls-5" cx="421.61" cy="13.29" r="3.5"/><rect class="cls-4" x="386.43" y="23.61" width="7" height="7"/><circle class="cls-5" cx="389.93" cy="27.11" r="3.5"/><rect class="cls-4" x="357.51" y="4.22" width="7" height="7"/><circle class="cls-5" cx="361.01" cy="7.72" r="3.5"/><rect class="cls-4" x="302.28" y="65.54" width="7" height="7"/><circle class="cls-5" cx="305.78" cy="69.04" r="3.5"/><rect class="cls-4" x="243.59" y="159.69" width="7" height="7"/><circle class="cls-5" cx="247.09" cy="163.19" r="3.5"/><rect class="cls-4" x="189.73" y="101.46" width="7" height="7"/><circle class="cls-5" cx="193.23" cy="104.96" r="3.5"/><rect class="cls-4" x="163.92" y="110.07" width="7" height="7"/><circle class="cls-5" cx="167.42" cy="113.57" r="3.5"/><path class="cls-6" d="M330.19,335.23l-1.05-6.35-3.07-11.46q-16.72,3.56-25.85,2.1t-14.48-5.94a26.48,26.48,0,0,1-5.53-6.3,11.62,11.62,0,0,0-5.76-4.93l.58-1.53a10.92,10.92,0,0,0,6.47.23c2.14-.57,4.87-1.39,8.17-2.45s7-2.27,11.19-3.63,7.11-2.31,8.89-2.87a10.84,10.84,0,0,0,3.77-1.84,3.86,3.86,0,0,0,1.21-2.85l3,.18a3.8,3.8,0,0,0,.17,1.33q.54,2,4.6,3.7t12.89-.7q5.94-1.6,7.92-4.3a2.88,2.88,0,0,0,.51-2.5q-.81-3-4.38-3.09a60.58,60.58,0,0,0-8.45.46c-3.26.37-6.48.83-9.69,1.38s-6.69,1.05-10.47,1.5-7.37.78-10.77,1a53.79,53.79,0,0,1-10.15-.26,34.22,34.22,0,0,1-9-2.23,19,19,0,0,1-6.95-5,19.85,19.85,0,0,1-4.37-8.32,26.1,26.1,0,0,1-.87-9.49,22.55,22.55,0,0,1,2.37-8.19,29,29,0,0,1,5.13-7,44.12,44.12,0,0,1,7-5.84,64.25,64.25,0,0,1,8.56-4.72,92.87,92.87,0,0,1,15.88-6q7.65-2.06,11.73-2.92t9.65-1.73a55.92,55.92,0,0,1,10.32-.74,65.64,65.64,0,0,1,9.57,1,24.82,24.82,0,0,1,16,9.56,22.82,22.82,0,0,0,5.61,4.74l-.42,1.62a10.62,10.62,0,0,0-6.42-.18L363,241q-4.86,1.5-13.82,4.46t-11.54,3.79A9.74,9.74,0,0,0,334.1,251a3.74,3.74,0,0,0-1,2.76h-2.89a3.87,3.87,0,0,0-.13-1.21q-.69-2.58-5.36-3.33a23.54,23.54,0,0,0-9.94.67q-10.3,2.76-9.21,6.8,1,3.63,16.86,1.13c2.48-.36,5.3-.81,8.44-1.35q16.44-2.62,25.69-2.22,19.41.84,23.67,16.71a25.83,25.83,0,0,1,.43,12.4,25.32,25.32,0,0,1-4.75,10.31,40.49,40.49,0,0,1-8.76,8.13A72.76,72.76,0,0,1,344,312.15c-2.45.66-3.91,1-4.37,1.11q-3.3.89-1.94,6l.39,1.48a22.52,22.52,0,0,0,2.14,4.65,22,22,0,0,1,2.12,4.59c.58,2.16.11,3.45-1.4,3.85a2.1,2.1,0,0,1-2.07-.49,4.48,4.48,0,0,1-1.3-2.28,27.71,27.71,0,0,1-.58-5.2,29.09,29.09,0,0,0-.6-5.33c-.29-1.06-.5-1.8-.63-2.23a15.44,15.44,0,0,0-.62-1.54,2.81,2.81,0,0,0-.89-1.24,3.61,3.61,0,0,0-3.23-.31q-3.81,1-2,7.64l3.07,9.95q1.08,4.05-.08,4.36C331.17,337.34,330.58,336.71,330.19,335.23Z"/><path class="cls-6" d="M487.51,261.43l1.52,8.11q1.49,6.75,4.81,8.89l-1,1.52a8.46,8.46,0,0,0-6.73-1.06l-18,4q.25.86.57,2.28c.5,2.31.18,3.6-1,3.85s-2-.92-2.59-3.52c-.17-.79-.29-1.41-.35-1.88l-55.48,12.17c-1,.22-1.46,2.19-1.39,5.93a46.88,46.88,0,0,0,.79,8.82,82.34,82.34,0,0,0,4,11.24A80.62,80.62,0,0,1,417,334.43c.68,3.12-.19,4.95-2.63,5.48-2.65.58-4.32-.74-5-4a76.46,76.46,0,0,1-1.27-13.78,76.59,76.59,0,0,0-1.16-13.3l-19.7-89.56a8.52,8.52,0,0,0-3.84-5.65l1-1.59a8.77,8.77,0,0,0,6.74,1.12l22.2-4.87a8.45,8.45,0,0,0,5.65-3.84l1.59,1a8.48,8.48,0,0,0-1.12,6.74l11.22,51.15a8.51,8.51,0,0,1-1.08,6.66l1.59,1q2.48-3.85,13.13-6.19l29.71-5q10.61-2.32,13.07-6.18l1.57,1A8.51,8.51,0,0,0,487.51,261.43Zm-13,48.85c.37,1.69-.14,2.69-1.55,3s-2.33-.55-2.77-2.57a26.9,26.9,0,0,1-.41-6.77c.11-2.73.17-4.2.16-4.42.18.39.57,1.2,1.18,2.41s1.08,2.14,1.4,2.81A26,26,0,0,1,474.51,310.28Z"/><path class="cls-6" d="M539.72,258.37l-2.34-7.58-.12-.69a4,4,0,0,1,3.17-2.93l51-8.73a8.4,8.4,0,0,0,5.78-3.51l1.46,1q-2.38,7,.52,23.93a83.78,83.78,0,0,0,2.91,10,87.42,87.42,0,0,1,2.88,9.8,6.64,6.64,0,0,1-.19,3.8A2.34,2.34,0,0,1,603.1,285a2.42,2.42,0,0,1-2.2-1,6.85,6.85,0,0,1-1.47-3.48l-1.38-14q-.94-5.51-3.36-8a6.2,6.2,0,0,0-5.74-1.88q-7.44,1.29-5.51,12.48a89.19,89.19,0,0,0,3.44,12.29,99,99,0,0,1,3,10,4.82,4.82,0,0,1-.4,3.32,2.81,2.81,0,0,1-2,1.47,2.77,2.77,0,0,1-2.3-.67,4.13,4.13,0,0,1-1.39-2.62l-2.31-20.15q-1.89-11-6.57-10.14l-4.74.95-49.15,8.47c-3.72.64-6.32,1.82-7.83,3.53q-2.58,3-.57,14.66a98.17,98.17,0,0,0,3.83,13.6,98.72,98.72,0,0,1,3.81,13.54q1.15,6.7-3.6,7.51-5.13.88-6.31-6a70.45,70.45,0,0,1-.33-14.24,70.29,70.29,0,0,0-.34-14.3l-3.92-20.9-12.56-72.93a8.4,8.4,0,0,0-3.45-5.78l1-1.53a8.84,8.84,0,0,0,6.67,1.37l80.31-13.84a8.62,8.62,0,0,0,5.83-3.51l1.48,1.09q-2.28,3.22-.9,11.23l.48,2.82q1.21,7.07,4.42,9.22l-1,1.4q-3.68-2.64-15.25-.65L542,205.23q-11.52,2-15.19-.67l-1.1,1.48a9.44,9.44,0,0,1,2.17,12.57l1.52,1q2.46-3.65,12.09-5.3L568,211.19q9.69-1.66,12.28-5.34l1.53,1q-2.28,3.23-.77,12l.42,2.44c.77,4.46,2.22,7.45,4.38,9l-1.09,1.54q-3.54-2.61-13.24-.94l-26,5.89q-9.64,1.67-13.3-.93l-1,1.47q3.09,2.23,4.25,8.93l.71,4.89.23,7.69c.26,1.5.94,2.16,2,2S540,259.79,539.72,258.37Z"/><path class="cls-6" d="M605,189.13l-.69-8.1q-.87-6.93-3.92-9.23l1.11-1.42a8.66,8.66,0,0,0,6.54,1.67l82.67-10.4a8.57,8.57,0,0,0,6-3.25l1.42,1.1a8.56,8.56,0,0,0-1.6,6.6l.7,8.1q.85,6.81,3.9,9.17L700,184.85q-3.19-2.53-9.56-1.74l-13.8,2.63q-6.61.84-9.88-1.7l-1.16,1.43a8.46,8.46,0,0,1,3.25,6l6.57,52.26q.83,6.54,3.62,19.37T682.36,280q.9,7.17-1.68,7.5t-3.22-4.77q-.65-5.12-.89-13.93t-.8-13.24c-.58-4.57-1.77-6.75-3.57-6.52a2.32,2.32,0,0,0-1.88,1.83,7.3,7.3,0,0,0-.37,3.18l3.11,13c.38,3-.3,4.64-2,4.86a2.06,2.06,0,0,1-2.11-1.08,7.16,7.16,0,0,1-1-3,24.5,24.5,0,0,1,.41-5.91,25.3,25.3,0,0,0,.31-6.66,4.27,4.27,0,0,0-2.65-3.56,10.55,10.55,0,0,0-5.65-.64,19.92,19.92,0,0,0-6.7,2.19,16.9,16.9,0,0,0-5.74,4.91q-2.35,3.15-2,5.88a32.48,32.48,0,0,0,1.68,6.54,31.6,31.6,0,0,1,1.67,6.41c.22,1.74-.45,2.71-2,2.9-1.76.23-2.76-.6-3-2.46a32.88,32.88,0,0,1,.12-7.21,31.38,31.38,0,0,0,.2-6.55l-2.06-16.37q-4.22-34.53-6.38-51.72a8.44,8.44,0,0,1,1.61-6.6l-1.42-1.09q-2.41,3.18-8.84,4l-13.64.89q-6.48.81-9,4.07l-1.42-1.16A8.46,8.46,0,0,0,605,189.13Zm66.76,92.34a58.66,58.66,0,0,1,3,11.84c.18,1.47-.25,2.27-1.3,2.4s-1.66-.47-1.82-1.82A50.31,50.31,0,0,1,671.74,281.47Z"/><path class="cls-6" d="M712.17,176l-.34-8.12q-.57-7-3.51-9.39l1.17-1.37a8.64,8.64,0,0,0,6.46,2l83-6.75a8.61,8.61,0,0,0,6.13-3l1.36,1.17A8.59,8.59,0,0,0,804.6,157l.35,8.12q.56,6.83,3.49,9.33l-1.15,1.43q-3.09-2.67-9.48-2.16l-13.9,2q-6.64.54-9.79-2.13L772.89,175a8.48,8.48,0,0,1,3,6.13l4.26,52.5q.54,6.58,2.77,19.51t2.56,17q.59,7.22-2,7.42c-1.73.14-2.73-1.49-3-4.91s-.37-8.07-.27-14,0-10.31-.22-13.26c-.37-4.6-1.47-6.82-3.28-6.68a2.34,2.34,0,0,0-2,1.76,7.16,7.16,0,0,0-.51,3.16l2.53,13.1q.38,4.54-2.22,4.76a2.08,2.08,0,0,1-2.07-1.17,7.09,7.09,0,0,1-.88-3,23.92,23.92,0,0,1,.67-5.88,25.18,25.18,0,0,0,.6-6.64,4.29,4.29,0,0,0-2.49-3.69,10.56,10.56,0,0,0-5.62-.88,19.79,19.79,0,0,0-6.78,1.89,16.82,16.82,0,0,0-6,4.66q-2.49,3-2.27,5.79a32.58,32.58,0,0,0,1.4,6.6,32.69,32.69,0,0,1,1.39,6.48c.14,1.75-.57,2.69-2.13,2.81-1.77.15-2.73-.72-2.89-2.6a32.64,32.64,0,0,1,.44-7.19,31.93,31.93,0,0,0,.49-6.54l-1.34-16.44q-2.7-34.68-4.1-52a8.5,8.5,0,0,1,1.89-6.52l-1.37-1.16q-2.55,3.07-9,3.6l-13.67.28q-6.51.53-9.18,3.68l-1.38-1.23A8.5,8.5,0,0,0,712.17,176Zm62.62,95.2a58,58,0,0,1,2.5,12c.12,1.48-.35,2.26-1.4,2.35s-1.64-.55-1.75-1.9A51.33,51.33,0,0,1,774.79,271.15Z"/><path class="cls-6" d="M861.85,223.54l-1.29-7.83,0-.7a4.06,4.06,0,0,1,3.54-2.48l51.75-1.76a8.4,8.4,0,0,0,6.19-2.7l1.32,1.22Q920,216,920.61,233.08a86.47,86.47,0,0,0,1.54,10.26,85.51,85.51,0,0,1,1.53,10.11,6.68,6.68,0,0,1-.69,3.74,2.37,2.37,0,0,1-1.92,1.27A2.41,2.41,0,0,1,919,257.2a6.74,6.74,0,0,1-1-3.65l.51-14.05q-.19-5.58-2.26-8.33a6.17,6.17,0,0,0-5.43-2.64q-7.54.27-7.14,11.62a87.48,87.48,0,0,0,1.75,12.64,93.54,93.54,0,0,1,1.66,10.36,4.82,4.82,0,0,1-.83,3.23,2.85,2.85,0,0,1-2.15,1.19,2.79,2.79,0,0,1-2.2-1,4.17,4.17,0,0,1-1-2.79l.42-20.27q-.39-11.1-5.15-10.93l-4.81.29-49.86,1.77q-5.64.2-8.23,2.45-3,2.64-2.53,14.44a98.71,98.71,0,0,0,2,14,100.7,100.7,0,0,1,2,13.93c.15,4.52-1.37,6.84-4.59,7q-5.19.18-5.44-6.8c-.12-3.17.42-7.88,1.59-14.15a69.75,69.75,0,0,0,1.59-14.22l-1.07-21.23-2.61-74a8.4,8.4,0,0,0-2.63-6.2l1.22-1.37a8.87,8.87,0,0,0,6.43,2.24l81.43-2.88a8.59,8.59,0,0,0,6.26-2.7l1.31,1.29q-2.68,2.9-2.4,11l.1,2.85q.25,7.17,3.14,9.73l-1.23,1.25q-3.28-3.12-15-2.7l-31.47,2.57q-11.67.42-14.95-2.71l-1.29,1.32a9.45,9.45,0,0,1,.45,12.75l1.38,1.15q2.93-3.27,12.7-3.62l26.62.52q9.84-.34,12.89-3.63l1.38,1.22q-2.7,2.88-2.38,11.77l.09,2.47c.16,4.53,1.2,7.68,3.13,9.48L910,203.29q-3.15-3.07-13-2.72l-26.53,2.34q-9.76.34-13-2.72l-1.22,1.32q2.76,2.63,3,9.42l0,4.95-.8,7.65c0,1.52.64,2.26,1.76,2.22S861.9,225,861.85,223.54Z"/><path class="cls-6" d="M974,206l-.66,12.94a47,47,0,0,0,1.56,10.33,46.67,46.67,0,0,1,1.56,10.11,54.67,54.67,0,0,0,1,9.18,55.42,55.42,0,0,1,1,9.5q0,3.58-3.11,3.55t-3-3.56a53.17,53.17,0,0,1,1.22-9.38,52.35,52.35,0,0,0,1.21-8.77,8,8,0,0,0-2-5.33,6.14,6.14,0,0,0-4.79-2.43q-6.35-.07-6.53,15.35a90.71,90.71,0,0,0,.83,10.86,90.87,90.87,0,0,1,.83,9.91c0,3.47-1.09,5.19-3.17,5.17a2.74,2.74,0,0,1-2.42-1.4,7.44,7.44,0,0,1-.82-3.91,70.57,70.57,0,0,1,1.22-9.25,68,68,0,0,0,1.23-9.76,45.86,45.86,0,0,0-.28-5.75,37.74,37.74,0,0,0-1.21-5.79,11,11,0,0,0-2.86-5,7.14,7.14,0,0,0-5.12-2,7.53,7.53,0,0,0-5.67,2.67c-1.7,1.79-2.55,3.51-2.57,5.14a16.19,16.19,0,0,0,.83,5.12,14.25,14.25,0,0,1,.84,4.13c0,1.86-.72,2.79-2.1,2.77s-2-1-2-2.82l1.64-10.13.88-80.79A17.83,17.83,0,0,0,937,144.13l1.28-1.25a18.18,18.18,0,0,0,12.45,4.65l73.23.85a18.13,18.13,0,0,0,12.56-4.36l1.25,1.28a16.79,16.79,0,0,0-4.64,11.37,45.27,45.27,0,0,0,.71,9.85,15.75,15.75,0,0,0,3.61,6.77l-1.29,1.25a10.11,10.11,0,0,0-8.32-4.6l-48.17-.56a8.51,8.51,0,0,1-6.06-2.48l-1.22,1.19a9.07,9.07,0,0,1-.14,12.31l1.19,1.22a9.65,9.65,0,0,1,5.07-2.54,37.33,37.33,0,0,1,7-.49l24.1,1.61a48,48,0,0,0,10.45-.89,16,16,0,0,0,7.82-4l1.26,1.29q-4.83,5.15-4.93,14.35t4.22,13.82L1027.1,206q-5.71-5.21-18.6-5.36l-23.75,1.06q-8.68-.1-11.83-3.31l-1.22,1.25A8.73,8.73,0,0,1,974,206Z"/><path class="cls-6" d="M1086.76,225.11l-.55-7.91,0-.7a4,4,0,0,1,3.75-2.13l51.69,3.1a8.4,8.4,0,0,0,6.42-2.1l1.19,1.34q-3.93,6.31-4.93,23.42a82.94,82.94,0,0,0,.56,10.37,85,85,0,0,1,.58,10.2,6.73,6.73,0,0,1-1,3.66,2.39,2.39,0,0,1-2,1.09,2.44,2.44,0,0,1-1.92-1.45,6.76,6.76,0,0,1-.63-3.72l1.83-13.95q.33-5.57-1.47-8.51a6.18,6.18,0,0,0-5.15-3.13q-7.54-.44-8.21,10.9a89.22,89.22,0,0,0,.55,12.75,97.16,97.16,0,0,1,.69,10.46A4.79,4.79,0,0,1,1127,272a2.84,2.84,0,0,1-2.25,1,2.79,2.79,0,0,1-2.09-1.18,4.12,4.12,0,0,1-.75-2.87l2.33-20.14q.65-11.09-4.1-11.37l-4.83-.15-49.79-2.93q-5.64-.33-8.43,1.66-3.18,2.36-3.88,14.14a97.94,97.94,0,0,0,.63,14.12,99.26,99.26,0,0,1,.64,14.06q-.4,6.78-5.22,6.49-5.19-.3-4.78-7.27.27-4.75,2.92-13.94a71.45,71.45,0,0,0,2.92-14l.93-21.24,4.34-73.87a8.3,8.3,0,0,0-2-6.41l1.35-1.26a8.83,8.83,0,0,0,6.19,2.84l81.34,4.79a8.59,8.59,0,0,0,6.48-2.1l1.19,1.4c-2,1.75-3.11,5.33-3.42,10.74l-.17,2.85q-.42,7.16,2.21,10l-1.34,1.13q-3-3.42-14.7-4.11l-31.57-.39q-11.65-.69-14.63-4.1l-1.41,1.18a9.45,9.45,0,0,1-.75,12.74l1.26,1.28q3.23-3,13-2.41l26.46,3q9.82.58,13.18-2.4l1.25,1.35c-2,1.74-3.12,5.58-3.47,11.49l-.14,2.47q-.4,6.78,2.22,9.73l-1.41,1.25q-2.85-3.34-12.67-3.92l-26.63-.17q-9.75-.57-12.74-3.93l-1.34,1.2q2.51,2.88,2.1,9.65l-.41,4.94-1.53,7.54c-.09,1.52.43,2.31,1.55,2.38S1086.68,226.55,1086.76,225.11Z"/><path class="cls-6" d="M1199.22,263.08l1.32-6.31,1.27-11.8q-16.87-2.7-24.87-7.37t-11.35-10.76a26.07,26.07,0,0,1-2.88-7.88,11.56,11.56,0,0,0-3.59-6.67l1.09-1.22a11,11,0,0,0,6,2.55q3.3.36,8.51.67t11.74.65c4.35.24,7.46.41,9.32.53a10.83,10.83,0,0,0,4.19-.35,3.83,3.83,0,0,0,2.15-2.22l2.74,1.25a4,4,0,0,0-.33,1.3q-.23,2.09,3,5.11t12.27,4q6.12.66,8.93-1.14a2.86,2.86,0,0,0,1.38-2.15q.35-3.09-3-4.47a61.61,61.61,0,0,0-8-2.62c-3.17-.83-6.34-1.57-9.53-2.21s-6.62-1.43-10.3-2.39-7.16-1.92-10.41-2.94a53.84,53.84,0,0,1-9.38-3.91,34,34,0,0,1-7.56-5.32,19,19,0,0,1-4.69-7.14,19.8,19.8,0,0,1-1.07-9.34,26.2,26.2,0,0,1,2.62-9.16,22.44,22.44,0,0,1,5.16-6.79,29.57,29.57,0,0,1,7.3-4.64,43.92,43.92,0,0,1,8.67-2.89,63.69,63.69,0,0,1,9.69-1.32,93.37,93.37,0,0,1,17,.17q7.89.85,12,1.51t9.62,1.87a56,56,0,0,1,9.89,3,64.79,64.79,0,0,1,8.56,4.4,24.88,24.88,0,0,1,11.5,14.7,22.67,22.67,0,0,0,3.52,6.45l-1,1.36a10.56,10.56,0,0,0-5.92-2.49l-.82-.09q-5.07-.34-14.5-.83c-6.28-.31-10.33-.52-12.12-.63a9.53,9.53,0,0,0-3.93.34,3.71,3.71,0,0,0-1.93,2.22l-2.7-1.06a3.56,3.56,0,0,0,.32-1.18q.29-2.64-3.8-5a23.33,23.33,0,0,0-9.51-3q-10.59-1.15-11.05,3-.39,3.72,15.32,7.14,3.68.84,8.36,1.79,16.29,3.48,24.76,7.2,17.79,7.78,16,24.13a25.68,25.68,0,0,1-4.07,11.72,25.26,25.26,0,0,1-8.16,7.9,40.23,40.23,0,0,1-11.1,4.42,72.78,72.78,0,0,1-25.35,1.29c-2.53-.27-4-.45-4.48-.54q-3.4-.37-4,4.87l-.16,1.51a22.36,22.36,0,0,0,.31,5.11,22.06,22.06,0,0,1,.32,5q-.36,3.35-2.7,3.1a2.12,2.12,0,0,1-1.75-1.21,4.53,4.53,0,0,1-.39-2.6,29.17,29.17,0,0,1,1.34-5.06,28.31,28.31,0,0,0,1.36-5.18c.12-1.09.19-1.86.22-2.31a15.89,15.89,0,0,0,0-1.66,2.92,2.92,0,0,0-.38-1.48,3.66,3.66,0,0,0-2.9-1.46q-3.92-.42-4.65,6.4l-.74,10.39c-.3,2.77-.85,4.12-1.65,4S1199.06,264.59,1199.22,263.08Z"/><path class="cls-6" d="M1287.55,186l1.56-8q1.08-6.9-1.21-10l1.45-1.07a8.6,8.6,0,0,0,5.83,3.41l82.34,12.79a8.57,8.57,0,0,0,6.65-1.47l1.06,1.45a8.56,8.56,0,0,0-3.36,5.9l-1.56,8q-1.05,6.76,1.23,9.89l-1.46,1.12q-2.38-3.31-8.71-4.31l-14-1.27q-6.58-1-9-4.36l-1.51,1.05a8.49,8.49,0,0,1,1.47,6.65l-8.08,52.05q-1,6.52-1.86,19.62t-1.48,17.18q-1.11,7.16-3.68,6.75c-1.72-.27-2.31-2.09-1.79-5.48s1.53-7.93,3-13.63,2.42-10,2.88-13q1.07-6.82-1.64-7.25a2.31,2.31,0,0,0-2.31,1.25,7,7,0,0,0-1.23,3l-.59,13.33q-.7,4.51-3.28,4.12a2.1,2.1,0,0,1-1.74-1.62,7.21,7.21,0,0,1-.15-3.17,25.08,25.08,0,0,1,2-5.56,25.17,25.17,0,0,0,2.14-6.32,4.26,4.26,0,0,0-1.57-4.16,10.46,10.46,0,0,0-5.25-2.16,19.63,19.63,0,0,0-7,.25,16.88,16.88,0,0,0-6.88,3.14c-2.08,1.58-3.27,3.28-3.55,5.1A32.64,32.64,0,0,0,1306,276a32,32,0,0,1-.16,6.62c-.27,1.73-1.18,2.48-2.73,2.24-1.75-.27-2.49-1.34-2.2-3.2a32.51,32.51,0,0,1,2.1-6.9,31.29,31.29,0,0,0,2-6.24l2.53-16.3q5.46-34.35,8.12-51.47a8.46,8.46,0,0,1,3.36-5.9l-1.06-1.45q-3.2,2.4-9.59,1.4l-13.36-2.91q-6.46-1-9.79,1.43l-1-1.51A8.49,8.49,0,0,0,1287.55,186Zm38.72,107.17a58.35,58.35,0,0,1-.35,12.21c-.23,1.46-.87,2.12-1.91,2s-1.47-.91-1.26-2.25A51.35,51.35,0,0,1,1326.27,293.13Z"/><path class="cls-6" d="M1422,267.1l.56-7.91.14-.69a4,4,0,0,1,4-1.58l50.75,10.31a8.39,8.39,0,0,0,6.65-1.18l1,1.5q-4.77,5.7-8.17,22.49a84.27,84.27,0,0,0-.89,10.35,84.48,84.48,0,0,1-.86,10.18,6.65,6.65,0,0,1-1.55,3.48,2.35,2.35,0,0,1-2.16.79,2.43,2.43,0,0,1-1.7-1.7,6.82,6.82,0,0,1-.11-3.78l3.77-13.55c.74-3.65.65-6.52-.26-8.63a6.17,6.17,0,0,0-4.67-3.82q-7.39-1.5-9.65,9.64a88.93,88.93,0,0,0-1.24,12.7,94.15,94.15,0,0,1-.78,10.46,4.82,4.82,0,0,1-1.57,2.95,2.8,2.8,0,0,1-2.36.65,2.76,2.76,0,0,1-1.91-1.45,4.12,4.12,0,0,1-.35-2.95l5.13-19.62q2.2-10.89-2.46-11.83l-4.76-.83-48.89-9.87c-3.69-.75-6.55-.59-8.58.46q-3.48,1.89-5.82,13.46a99.44,99.44,0,0,0-1.36,14.07,98.36,98.36,0,0,1-1.34,14q-1.33,6.66-6.07,5.7-5.1-1-3.72-7.87a70.84,70.84,0,0,1,4.85-13.39,70.85,70.85,0,0,0,4.85-13.46l3.9-20.9,14.65-72.54a8.33,8.33,0,0,0-1.12-6.63l1.51-1.06a8.88,8.88,0,0,0,5.73,3.69l79.87,16.13a8.59,8.59,0,0,0,6.71-1.17l1,1.56q-3.3,2.18-4.9,10.15l-.57,2.8q-1.42,7,.79,10.19l-1.48.93q-2.47-3.79-14-6.12l-31.21-4.82q-11.45-2.31-13.91-6.11l-1.56,1a9.47,9.47,0,0,1-2.52,12.5l1.06,1.45q3.62-2.51,13.2-.58l25.77,6.7q9.64,1.95,13.38-.53l1.06,1.5q-3.3,2.19-5.05,10.9l-.49,2.42q-1.35,6.66.84,9.95l-1.57,1q-2.35-3.71-12-5.66l-26.34-3.9q-9.58-1.94-12.06-5.67l-1.5,1q2.07,3.21.73,9.86l-1.11,4.83-2.56,7.25c-.3,1.49.09,2.35,1.19,2.57S1421.75,268.51,1422,267.1Z"/><path class="cls-6" d="M1513.93,318l5.71-16.29a3.85,3.85,0,0,0-1.38-3.82,18.44,18.44,0,0,0-8.34-4.28q-7-1.79-10.36.31a5.17,5.17,0,0,0-2.09,3.3,43.17,43.17,0,0,0-.68,8.64,42.76,42.76,0,0,1-.71,8.69,7.53,7.53,0,0,1-1.87,3.65,3,3,0,0,1-3,.78,3.05,3.05,0,0,1-2.28-2.12,7.4,7.4,0,0,1,.07-4.14,43,43,0,0,1,3.66-8.1,42.45,42.45,0,0,0,3.82-8.72l19.09-75.43a17.85,17.85,0,0,0-1.35-13.24l1.62-1a18.13,18.13,0,0,0,11,7.51l18.39,4.67a21.06,21.06,0,0,0,6.92.74,8.41,8.41,0,0,0,5.36-2.67l1.78,1.5a19.3,19.3,0,0,0-3.43,6.8q-.7,2.76,6.19,16.36,9,17.74,11.35,23.64a37.06,37.06,0,0,1,2.69,9.26l3.69.94q-1.89-5.19.16-13.25a101.88,101.88,0,0,1,3.77-11,102.64,102.64,0,0,0,3.77-11q2.57-10.09-3.07-14.73l1.62-1a18.18,18.18,0,0,0,11,7.5l12.61,3.21a18.19,18.19,0,0,0,13.24-1.36l.9,1.61a18.14,18.14,0,0,0-7.45,11l-19.19,75.07a39.22,39.22,0,0,0-.78,8.22,39.19,39.19,0,0,1-.78,8.21c-.66,2.63-2,3.68-4,3.17s-2.68-2.08-2-4.7a37.9,37.9,0,0,1,3.09-7.3,38,38,0,0,0,2.92-6.59,3,3,0,0,0-.55-3,4.58,4.58,0,0,0-2.19-1.41l-24.3-6.17q-5.18-1.31-7.56,8.1a65.77,65.77,0,0,0-1.4,11.59,64.28,64.28,0,0,1-1.38,11.47c-.9,3.57-2.69,5-5.35,4.34s-3.54-2.82-2.63-6.43a49.31,49.31,0,0,1,4.12-9.63,52.19,52.19,0,0,0,4.14-9.49l2.2-8.15q1.63-5.67.72-7.73l-20-44.83q-.78-1.83-1-7.05l-3.78-.83a10.75,10.75,0,0,1,1.32,8.2l-8.92,35.12-6.73,31.42a2.68,2.68,0,0,1-1,1.54,2,2,0,0,1-1.77.3,2.15,2.15,0,0,1-1.48-1.26,2.89,2.89,0,0,1-.2-2l6.73-23.44a2,2,0,0,0-.21-1.49,1.72,1.72,0,0,0-1.13-.94c-1.07-.28-1.81.41-2.23,2.05a65.37,65.37,0,0,0-1.21,8.27,64.88,64.88,0,0,1-1.13,7.9c-.79,3.11-2,4.48-3.49,4.09S1513.25,320.69,1513.93,318Z"/><image class="cls-7" width="431" height="431" transform="translate(1412.29 -97.23)" xlink:href="BAGGRUND%20STARTSK%C3%86RM1.png"/><circle class="cls-8" cx="1627.95" cy="118.75" r="64.99"/></g></g></svg>
