<svg xmlns="http://www.w3.org/2000/svg" width="130" height="365" viewBox="0 0 130 365"><defs><style>.cls-1{fill:#b3b3b3;opacity:0.33;}.cls-2{fill:#c1272d;opacity:0.77;}</style></defs><title>Barometer</title><g id="Layer_2" data-name="Layer 2"><path class="cls-1" d="M77,73.52V26.85C77,19.78,71.47,14,64.69,14h0c-6.78,0-12.33,5.78-12.33,12.85V74.48a25.18,25.18,0,0,1-10.58,20.9,45.86,45.86,0,0,0-19.87,38V330.72c0,11.15,8.76,20.28,19.46,20.28H89.46c10.71,0,19.46-9.13,19.46-20.28V133.39A45.81,45.81,0,0,0,88.13,94.78C81.11,90.27,77,82.11,77,73.52Z"/><path class="cls-2" d="M57,14H72.65A4.37,4.37,0,0,1,77,18.37V52a2,2,0,0,1-2,2H54.32a2,2,0,0,1-2-2V18.63A4.63,4.63,0,0,1,57,14Z"/></g></svg>
