<svg id="Layer_1" data-name="Layer 1" xmlns="http://www.w3.org/2000/svg" width="500" height="360" viewBox="0 0 500 360"><defs><style>.cls-1{fill:#b3b3b3;opacity:0.33;}.cls-2{fill:#c1272d;}.cls-3{fill:#ed1c24;}.cls-4,.cls-5{fill:blue;}.cls-5{opacity:0.85;}</style></defs><title>Bottle</title><path class="cls-1" d="M62.018,71.107V24.364c0-7.075-5.547-12.864-12.327-12.864h0c-6.78,0-12.327,5.789-12.327,12.864V72.072c0,8.37-3.862,16.355-10.582,20.924A45.973,45.973,0,0,0,6.908,131.063V328.688C6.908,339.86,15.667,349,26.372,349H74.46c10.705,0,19.464-9.14,19.464-20.312V131.063A45.914,45.914,0,0,0,73.129,92.4C66.11,87.881,62.018,79.712,62.018,71.107Z"/><path class="cls-2" d="M41.994,11.5H57.649a4.37,4.37,0,0,1,4.37,4.37V49.6a1.961,1.961,0,0,1-1.961,1.961H39.325A1.961,1.961,0,0,1,37.364,49.6V16.13a4.63,4.63,0,0,1,4.63-4.63Z"/><path class="cls-3" d="M7,322.961H94a0,0,0,0,1,0,0v5.133A20.906,20.906,0,0,1,73.094,349H27.906A20.906,20.906,0,0,1,7,328.094v-5.133A0,0,0,0,1,7,322.961Z"/><path class="cls-1" d="M161.018,71.519V24.845c0-7.065-5.547-12.845-12.327-12.845h0c-6.78,0-12.327,5.78-12.327,12.845V72.482a25.156,25.156,0,0,1-10.582,20.893,45.886,45.886,0,0,0-19.874,38.011V328.718c0,11.155,8.759,20.282,19.464,20.282H173.46c10.7,0,19.464-9.127,19.464-20.282V131.386a45.831,45.831,0,0,0-20.8-38.61C165.11,88.268,161.018,80.111,161.018,71.519Z"/><path class="cls-2" d="M140.994,12h15.654a4.37,4.37,0,0,1,4.37,4.37v33.67A1.961,1.961,0,0,1,159.058,52H138.325a1.961,1.961,0,0,1-1.961-1.961V16.63a4.63,4.63,0,0,1,4.63-4.63Z"/><path class="cls-4" d="M106,271h87a0,0,0,0,1,0,0v57.094A20.906,20.906,0,0,1,172.094,349H126.906A20.906,20.906,0,0,1,106,328.094V271A0,0,0,0,1,106,271Z"/><path class="cls-1" d="M262.018,71.519V24.845c0-7.065-5.547-12.845-12.327-12.845h0c-6.78,0-12.327,5.78-12.327,12.845V72.482a25.156,25.156,0,0,1-10.582,20.893,45.886,45.886,0,0,0-19.874,38.011V328.718c0,11.155,8.759,20.282,19.464,20.282H274.46c10.705,0,19.464-9.127,19.464-20.282V131.386a45.831,45.831,0,0,0-20.795-38.61C266.11,88.268,262.018,80.111,262.018,71.519Z"/><path class="cls-2" d="M241.994,12h15.654a4.37,4.37,0,0,1,4.37,4.37v33.67A1.961,1.961,0,0,1,260.058,52H239.325a1.961,1.961,0,0,1-1.961-1.961V16.63a4.63,4.63,0,0,1,4.63-4.63Z"/><path class="cls-4" d="M207,214h87a0,0,0,0,1,0,0V328.094A20.906,20.906,0,0,1,273.094,349H227.906A20.906,20.906,0,0,1,207,328.094V214A0,0,0,0,1,207,214Z"/><path class="cls-1" d="M362.018,71.519V24.845c0-7.065-5.547-12.845-12.327-12.845h0c-6.78,0-12.327,5.78-12.327,12.845V72.482a25.156,25.156,0,0,1-10.582,20.893,45.886,45.886,0,0,0-19.874,38.011V328.718c0,11.155,8.759,20.282,19.464,20.282H374.46c10.705,0,19.464-9.127,19.464-20.282V131.386a45.831,45.831,0,0,0-20.795-38.61C366.11,88.268,362.018,80.111,362.018,71.519Z"/><path class="cls-2" d="M341.994,12h15.654a4.37,4.37,0,0,1,4.37,4.37v33.67A1.961,1.961,0,0,1,360.058,52H339.325a1.961,1.961,0,0,1-1.961-1.961V16.63a4.63,4.63,0,0,1,4.63-4.63Z"/><path class="cls-4" d="M307,149h87a0,0,0,0,1,0,0V328.094A20.906,20.906,0,0,1,373.094,349H327.906A20.906,20.906,0,0,1,307,328.094V149A0,0,0,0,1,307,149Z"/><path class="cls-5" d="M462.018,71.519V24.845c0-7.065-5.547-12.845-12.327-12.845h0c-6.78,0-12.327,5.78-12.327,12.845V72.482a25.156,25.156,0,0,1-10.582,20.893,45.886,45.886,0,0,0-19.874,38.011V328.718c0,11.155,8.759,20.282,19.464,20.282H474.46c10.705,0,19.464-9.127,19.464-20.282V131.386a45.831,45.831,0,0,0-20.795-38.61C466.11,88.268,462.018,80.111,462.018,71.519Z"/><path class="cls-2" d="M441.994,12h15.654a4.37,4.37,0,0,1,4.37,4.37v33.67A1.961,1.961,0,0,1,460.058,52H439.325a1.961,1.961,0,0,1-1.961-1.961V16.63a4.63,4.63,0,0,1,4.63-4.63Z"/></svg>
