<?xml version="1.0" encoding="utf-8"?>
<!-- Generator: Adobe Illustrator 23.0.0, SVG Export Plug-In . SVG Version: 6.00 Build 0)  -->
<svg version="1.1" id="Layer_1" xmlns="http://www.w3.org/2000/svg" xmlns:xlink="http://www.w3.org/1999/xlink" x="0px" y="0px"
	 viewBox="0 0 2150 720" style="enable-background:new 0 0 2150 720;" xml:space="preserve">
<style type="text/css">
	.st0{fill:#EFCC57;}
	.st1{fill:#C69C6D;}
	.st2{fill:none;stroke:#F7931E;stroke-width:2;stroke-miterlimit:10;}
	.st3{fill:none;}
	.st4{fill:url(#SVGID_1_);}
	.st5{opacity:0.51;fill:url(#SVGID_2_);enable-background:new    ;}
	.st6{opacity:0.7;fill:url(#SVGID_3_);enable-background:new    ;}
	.st7{opacity:0.49;}
	.st8{fill:#FFFFFF;}
	.st9{fill:none;stroke:#717171;stroke-width:0.588;stroke-miterlimit:1;}
	.st10{opacity:0.58;}
	.st11{fill:#C69C6D;stroke:#F7931E;stroke-width:2;stroke-miterlimit:10;}
	.st12{fill:#FF7BAC;}
	.st13{fill:#231F20;}
	.st14{fill:none;stroke:#000000;stroke-width:0.75;stroke-miterlimit:10;}
	.st15{stroke:#000000;stroke-width:0.75;stroke-miterlimit:10;}
	.st16{fill:#C1272D;}
	.st17{fill:none;stroke:#000000;stroke-miterlimit:10;}
	.st18{fill:#FF7BAC;stroke:#1D1D1B;stroke-width:0.5;stroke-miterlimit:10;}
	.st19{fill:#FF7BAC;stroke:#000000;stroke-width:0.5;stroke-miterlimit:10;}
	.st20{fill:#F2F2F2;}
	.st21{fill:#F9A94B;}
	.st22{fill:#F15A24;}
	.st23{fill:#29ABE2;}
	.st24{fill:#001300;}
	.st25{fill:#ED1C24;}
	.st26{fill:none;stroke:#000000;stroke-width:0.5;stroke-miterlimit:10;}
	.st27{fill:url(#SVGID_4_);}
	.st28{opacity:0.51;fill:url(#SVGID_5_);enable-background:new    ;}
	.st29{opacity:0.7;fill:url(#SVGID_6_);enable-background:new    ;}
	.st30{fill:url(#SVGID_7_);}
	.st31{opacity:0.51;fill:url(#SVGID_8_);enable-background:new    ;}
	.st32{opacity:0.7;fill:url(#SVGID_9_);enable-background:new    ;}
	.st33{fill:url(#SVGID_10_);}
	.st34{opacity:0.51;fill:url(#SVGID_11_);enable-background:new    ;}
	.st35{opacity:0.7;fill:url(#SVGID_12_);enable-background:new    ;}
	.st36{fill:url(#SVGID_13_);}
	.st37{opacity:0.51;fill:url(#SVGID_14_);enable-background:new    ;}
	.st38{opacity:0.7;fill:url(#SVGID_15_);enable-background:new    ;}
</style>
<title>Fist</title>
<g>
	<path class="st0" d="M52,582.7c14.4-66.8,13.2,54.9,29.8,0.8s28.7,23.1,36.7,1s46.8-28.9,42.9,1.2s21.6,45.4,31.7,0.9
		s32.1,72.6,32.3,0.9s38.1,41.8,38.1,1.1s16.2-6.7,16.5-15.6l13.1-469.2C294.6,51.8,255.7,7.6,204,2.5c-4.3-0.4-8.7,1-11.9,3.8
		l-10.4,8.9c-4.6,3.9-11,5-16.6,2.7L124,1.1c-2-0.8-4.2-1.2-6.3-1.2C81,0.7,51.4,30.2,50.4,66.8l-14,499.4
		C36.2,575,37.7,649.5,52,582.7z"/>
	<path class="st1" d="M267.5,120.1c2.9,7.2-0.7,16.2-9.2,19.5c-8.5,3.1-13.4-5.9-10.5-18.2c2.8-12.3,5.5-20.4,9.1-18.7
		C260.5,104.5,264.5,112.6,267.5,120.1z"/>
	<ellipse class="st2" cx="257.7" cy="172.2" rx="21.4" ry="40.8"/>
	<path d="M173.4,194.4l-5.8,0.8c-42,6.2-78.3,36.2-84.1,64.3c-9.5,49.8-36.3,95.5-57.5,139.1c-5.9,12.3,4,30.3,23.8,49.3
		c19.9,18.6,49.7,38.3,86.8,44.4c3.4,0.6,6.9,1.1,10.4,1.6c75.2,10.8,135.4-39.4,130.4-71.4c-7.5-58-26.8-111.9-34.1-171.1
		C237.9,216.7,214.7,188.3,173.4,194.4z"/>
	<path class="st1" d="M180.8,676.5c-3.1-2.2-6.7-3.7-10.4-4.5c-19.8-81.7-51.2-152.6-89.1-200.6c10.8-18.1,23.4-31.8,37.6-40.9
		C150.8,501.3,172.8,587.7,180.8,676.5z"/>
	<path class="st1" d="M64.7,642.1c0.7-2.7,0.7-5.4,0.2-8.1c52.7-53.8,94.4-108.4,117.9-154.6c16-3.5,29.4-3.7,39.9-0.6
		C181.3,533.7,125.8,591.2,64.7,642.1z"/>
	<path d="M118.8,593.9c-4.5-0.4-8.1-3.5-12.2-5.3c0.9-1,1.7-2,2.6-3c31.8-37.4,57.2-73.9,73.6-106.2c16-3.5,29.4-3.7,39.9-0.6
		c-27.9,36.9-62.2,75.1-100.2,111.6C121.3,591.6,120.1,592.7,118.8,593.9z"/>
	<line class="st3" x1="146" y1="592.5" x2="167.4" y2="584.8"/>
	<path class="st1" d="M164.6,196.1c32.3,0,89.9,11.6,89.9-61.3c0-78.4-57.6-109.5-89.9-109.5s-58.4,80.1-58.4,112.4
		C106.2,169.9,132.4,196.1,164.6,196.1C164.6,196.1,164.6,196.1,164.6,196.1z"/>
	<path class="st1" d="M173.4,194.4l-5.8,0.8c-42,6.2-78.3,36.2-84.1,64.3c-9.5,49.8-36.3,95.5-57.5,139.1
		c-5.9,12.3,256.4,55.8,251.3,23.9c-7.5-58-26.8-111.9-34.1-171.1C237.9,216.7,214.7,188.3,173.4,194.4z"/>
	<path d="M156.5,279.3l-12.3-6.3c-3.8-2-5.3-6.6-3.3-10.4l16.9-32.7c2-3.8,6.6-5.3,10.4-3.3l12.3,6.3c3.8,2,5.3,6.6,3.3,10.4
		L167,275.9C165,279.7,160.3,281.2,156.5,279.3z"/>
	<path d="M178.9,240l-3-1.5c-0.9-0.5-1.3-1.6-0.8-2.5l6.6-12.8c0.5-0.9,1.6-1.3,2.5-0.8l3,1.5c0.9,0.5,1.3,1.6,0.8,2.5l-6.6,12.8
		C181,240.1,179.9,240.5,178.9,240z"/>

		<linearGradient id="SVGID_1_" gradientUnits="userSpaceOnUse" x1="2471.7585" y1="-437.1307" x2="2471.7585" y2="-418.0468" gradientTransform="matrix(-0.8885 -0.4589 0.4589 -0.8885 2558.3792 1000.1649)">
		<stop  offset="0" style="stop-color:#656565"/>
		<stop  offset="0.618" style="stop-color:#1B1B1B"/>
		<stop  offset="0.629" style="stop-color:#545454"/>
		<stop  offset="0.983" style="stop-color:#3E3E3E"/>
	</linearGradient>
	<path class="st4" d="M154.2,247.1l6-11.6c0.8-1.5,2.6-2,4-1.3l12.3,6.3c1.5,0.8,2,2.6,1.3,4l-6,11.6c-0.8,1.5-2.6,2-4,1.3
		l-12.3-6.3C154,250.3,153.5,248.5,154.2,247.1z"/>

		<linearGradient id="SVGID_2_" gradientUnits="userSpaceOnUse" x1="2471.7585" y1="-437.1307" x2="2471.7585" y2="-418.0468" gradientTransform="matrix(-0.8885 -0.4589 0.4589 -0.8885 2558.3792 1000.1649)">
		<stop  offset="0" style="stop-color:#0E0E0E"/>
		<stop  offset="0.5" style="stop-color:#000000"/>
		<stop  offset="0.521" style="stop-color:#010101"/>
		<stop  offset="0.726" style="stop-color:#0B0B0B"/>
		<stop  offset="1" style="stop-color:#0E0E0E"/>
	</linearGradient>
	<path class="st5" d="M154.2,247.1l6-11.6c0.8-1.5,2.6-2,4-1.3l12.3,6.3c1.5,0.8,2,2.6,1.3,4l-6,11.6c-0.8,1.5-2.6,2-4,1.3
		l-12.3-6.3C154,250.3,153.5,248.5,154.2,247.1z"/>

		<linearGradient id="SVGID_3_" gradientUnits="userSpaceOnUse" x1="2461.8496" y1="-427.5887" x2="2481.6675" y2="-427.5887" gradientTransform="matrix(-0.8885 -0.4589 0.4589 -0.8885 2558.3792 1000.1649)">
		<stop  offset="0" style="stop-color:#FFFFFF;stop-opacity:0.77"/>
		<stop  offset="0.203" style="stop-color:#FFFFFF;stop-opacity:0.65"/>
		<stop  offset="0.345" style="stop-color:#FFFFFF;stop-opacity:0.65"/>
		<stop  offset="0.346" style="stop-color:#FFFFFF;stop-opacity:0.65"/>
		<stop  offset="0.422" style="stop-color:#FFFFFF;stop-opacity:0.619"/>
		<stop  offset="0.54" style="stop-color:#FFFFFF;stop-opacity:0.532"/>
		<stop  offset="0.686" style="stop-color:#FFFFFF;stop-opacity:0.391"/>
		<stop  offset="0.851" style="stop-color:#FFFFFF;stop-opacity:0.198"/>
		<stop  offset="1" style="stop-color:#FFFFFF;stop-opacity:0"/>
		<stop  offset="1" style="stop-color:#7E7E7E;stop-opacity:9.100000e-02"/>
		<stop  offset="1" style="stop-color:#1B1B1B;stop-opacity:0.16"/>
	</linearGradient>
	<path class="st6" d="M154.2,247.1l6-11.6c0.8-1.5,2.6-2,4-1.3l12.3,6.3c1.5,0.8,2,2.6,1.3,4l-6,11.6c-0.8,1.5-2.6,2-4,1.3
		l-12.3-6.3C154,250.3,153.5,248.5,154.2,247.1z"/>
	<g class="st7">
		<path class="st8" d="M169.2,257.1c-2.7-0.7-5.3-2.4-7.8-3.7c-1.6-0.8-6.6-2.4-7-4.5c-0.5-2.2,2.7-6.1,3.6-7.9
			c1-1.9,2.3-6.4,4.9-6.5c2.4,0,5.7,2.6,7.8,3.7c1.6,0.8,6.6,2.4,7,4.5s-2.7,6.2-3.6,7.9C173,252.8,171.9,256.5,169.2,257.1
			c0,0,0,0.7,0,0.7c2.7-0.5,3.6-3.9,4.7-6.1c1.2-2.3,3.1-4.9,3.8-7.5c0.9-3.6-3.2-4.8-5.8-6.1c-2.4-1.2-5.1-3.2-7.7-4
			c-3.3-1-4.2,2.2-5.4,4.6c-1.4,2.7-4.6,6.6-4.5,9.8c0.1,2.8,3.9,3.9,6,5c2.8,1.5,5.8,3.5,8.9,4.3
			C169.1,257.8,169.2,257.1,169.2,257.1z"/>
	</g>
	<path class="st9" d="M154.2,247.1l6-11.6c0.8-1.5,2.6-2,4-1.3l12.3,6.3c1.5,0.8,2,2.6,1.3,4l-6,11.6c-0.8,1.5-2.6,2-4,1.3
		l-12.3-6.3C154,250.3,153.5,248.5,154.2,247.1z"/>
	<g class="st10">
		<path d="M155.5,251.2l10,5.2c1.3,0.7,2.9,1.9,4.5,1.4s2.2-2.4,2.9-3.8c1.5-2.9,3.9-6.1,4.8-9.3c0.5-1.8,0.5-2.8-1.3-4.2
			c-2.8-2.2-6.9-3.6-10-5.2c-3.3-1.7-5.2-1.7-7.1,1.8c-1.7,3-4.2,6.6-5.1,10C153.7,248.8,153.7,249.7,155.5,251.2c0,0,0-0.1,0-0.1
			c-3.2-2.6,0.1-6.6,1.5-9.3c1-2,2.1-5.7,4-7.2c2.3-1.9,6.1,1.1,8.2,2.2c2.3,1.2,5.3,2.2,7.4,3.8c3.1,2.4,0.3,5.9-1.1,8.5
			c-1.1,2.2-2.3,6.4-4.4,8c-2.3,1.8-5.7-0.9-7.8-2l-7.8-4C155.5,251,155.5,251.1,155.5,251.2z"/>
	</g>
	<ellipse cx="188.3" cy="392.5" rx="1.5" ry="2.9"/>
	<ellipse class="st11" cx="187.4" cy="402.3" rx="5.7" ry="6.8"/>
	<path class="st12" d="M54.2,335.9c11-22.4,20.5-45.6,25.4-69.8c4.7-22.9,11-24,14.6-25.8c26.2-13.1,66.2,44.8,105.3,33.5
		c22.7-6.6,36.5-34.1,42.9-30.3c1.4,0.8,2.6,5.4,3.8,14.8c0.5,3.5,1,7,1.5,10.4c6.9,3.1,13.3,7.2,19,12.1c6.7,6.3,11,14.7,12.2,23.8
		c-1.7,2.5-4,4.6-6.7,6c-4.5,2.1-9.8,2.3-15.9,0.8c3,12.5,6.2,24.9,9.3,37.3C272.1,373.6,43.2,358.4,54.2,335.9z"/>
	<path class="st1" d="M1.1,295.5c-0.1-0.1-0.2-0.2-0.3-0.4c0.3-0.2,64.2-58.6,109-74.8c1.8,5.2,3.4,10.2,4.8,15.2
		c-39.8,15.1-70.1,44-90.4,61.7c5.7,3.5,11.7,6.9,17,10.1c12.1,7,21.2,12.6,28,16.8c13.4,8.5,19.2,12.6,45.1,21.8
		c-0.7,0.9-2,1.7-2.1,2.9c-10.6-2.8-26.7-8-39.5-12.4c-10.3-3.5-20.4-7.4-30.3-11.9c-11.1-5.2-16.7-9.6-29.9-17.8
		C12.1,307,0.4,296.6,1.1,295.5z"/>
	<path class="st13" d="M180.4,87.7c0,0-2.7-8.5-21.6-8.5s-21.6,8.5-21.6,8.5c0-5.9,9.7-10.7,21.6-10.7S180.4,81.8,180.4,87.7z"/>
	<path class="st13" d="M239.6,89.6c0,0-2.7-8.5-21.6-8.5s-21.6,8.5-21.6,8.5c0-5.9,9.7-10.7,21.6-10.7S239.6,83.8,239.6,89.6z"/>
	<path class="st14" d="M183.8,138c-0.7-6.5,3.9-10.1,7.5-9.4c3.3,0.6,7.3,5.2,7.2,10.8"/>
	<ellipse class="st15" cx="188.8" cy="138.2" rx="1.5" ry="1.4"/>
	<ellipse class="st15" cx="194.6" cy="138.2" rx="1.5" ry="1.4"/>
	<path class="st16" d="M212,167c-1-1.7-5-8-11.5-11.9c-2.2-1.4-3.8-3.3-5.6-2.4c-2.5,1.2-3.1,5.8-4.8,5.6c-1.7-0.2-1.9-4.7-4.2-5.9
		c-1.6-0.8-3.1,0.8-4.3,1.4c-8.1,3.6-13.1,11.6-14.1,13.3c0.7,1.5,9.1,18.8,23.3,18C203.7,184.2,211.1,169,212,167z"/>
	<path class="st17" d="M167.4,167.2h44.6"/>
	<path class="st12" d="M180.4,665.9c-3.6,0.9-7.3,1.5-11,1.6c-2.2,14.4-3.2,28.9-3.1,43.5c5.7,1.5,11.5,2,17.4,1.7
		C184,697,182.9,681.3,180.4,665.9z"/>
	<path class="st12" d="M172.3,671.2c-3.8,4.4,0.1,13.9,8.6,21.1s32.7,21.7,36.5,17.2s-14.3-26-22.8-33.3S176,666.8,172.3,671.2z"/>
	<path class="st18" d="M223.2,292.1c0.3,0.2,2.9,5.7,3.1,6.1c1.8,3.6,10.8,11.9,27.6,13.2c0.8,0.3,1.6,0.6,2.4,0.8"/>
	<path class="st19" d="M118.4,301.8c0.4,0.3,0.8,0.5,1.2,0.7c13.8,6.3,50.9,25.9,58.8,12.8c3.4-6.4,1.2-16.3-3.5-26.1"/>
	<path class="st1" d="M95.6,119.1c-2.9,7.2,0.7,16.2,9.2,19.5c8.5,3.1,13.4-5.9,10.5-18.2c-2.8-12.3-5.5-20.4-9.1-18.7
		C102.6,103.6,98.6,111.7,95.6,119.1z"/>
	<ellipse class="st2" cx="104.3" cy="170.2" rx="21.4" ry="40.8"/>
	<path class="st12" d="M75,633.9c-2.3-1-4.5-2.4-6.3-4.2c-14.9,7.1-27,15.4-36.2,24.3c3.8,4.7,8.2,9,13,12.8
		C52.1,655.2,62,644.1,75,633.9z"/>
	<path class="st12" d="M64.1,632.7c-5.3,0.4-8.9,8.7-8.1,18.6s7,33.9,12.2,33.5s7.6-25.2,6.9-35S69.3,632.3,64.1,632.7z"/>
	<path class="st0" d="M175.1,22.1c0,0-22.9,2.6-36.6,12.9c-14.7,11-23.7,33.6-23.7,33.6s24.3-4,38.5-15.4
		C165.9,43.1,175.1,22.1,175.1,22.1z"/>
	<path class="st0" d="M251.8,70.3c0,0-15.3-22.2-33.6-32.6C198.6,26.5,170.1,25,170.1,25s17.6,23.2,37.3,33.7
		C224.9,68,251.8,70.3,251.8,70.3z"/>
	<path class="st20" d="M316.8,112.1c25.4,2,49.2,4.4,72.2,11.9c0.4-3.2,0.8-6.5,1.2-9.8c-23.2-5.9-47.3-7.3-73.1-8.6
		C317,107.8,316.9,110,316.8,112.1z"/>
	<path class="st21" d="M317.3,113.3c10.2-0.1,20.1,0.4,30,2.8c0-3.1,0-6.2,0.1-9.5c-9.7-1.1-19.4-0.7-29.5,0.2
		C317.7,109,317.5,111.2,317.3,113.3z"/>
	<ellipse transform="matrix(0.258 -0.9661 0.9661 0.258 173.74 463.7001)" class="st22" cx="388.8" cy="118.7" rx="5.1" ry="1.3"/>
	<path d="M147.7,596.7c-0.6-1.6-1.2-3.2-1.8-4.8c-17.8-47.7-39.9-89-64.7-120.5c10.8-18.1,23.4-31.8,37.6-40.9
		c21.6,47.9,38.7,102.9,49.9,160.9c0.1,0.5,0.2,1.1,0.3,1.6C161.8,593.6,154.8,595.4,147.7,596.7z"/>
	<path class="st1" d="M225.7,232.5c23.1-3.7,67.4-20.1,115.7-17.6c-1.4-11.7-2.6-17.9-2.7-28.2c0.2-10.1,0.8-20.2,2-30.2
		c1.2-11.1,2.9-24.4,4.5-34.3c-2.4,0.3-4.8,0.5-7.2,0.4c-7.6,0.3-12.6-7.9-5.1-18.2c6.9-9.8,12.6-15.8,17.4-13.8
		c4,1.8,9.1,12.1,7.7,21.8c-1.5,5.1-5.1,7.7-9.2,9c-2,22.5-0.9,29.1,0.8,43c0.9,7.4,2,17.3,3.1,30.3c0.6,6.8,1.3,14.4,2.1,21.6
		c0.2,0,1.6,12.6,2.5,16.8c-2.9-0.3-5.8-0.6-8.9-0.9c-11.3-0.9-22.7-1.1-34-0.4c-12.1,1.5-24.9,3.4-38.3,5.9
		c-16.8,3.2-32.5,6.9-46.9,10.9C228.5,242.9,227.2,237.7,225.7,232.5z"/>
	<path class="st8" d="M243,114.5c0,0-12.7-13.2-23.8-13.4c-11.9-0.3-25.3,13.4-25.3,13.4s14,12.9,25.7,12.5
		C230.1,126.7,243,114.5,243,114.5z"/>
	<path class="st23" d="M243,114.5c0,0-12.7-13.2-23.8-13.4c-11.9-0.3-25.3,13.4-25.3,13.4C210.1,111.3,226.8,111.3,243,114.5
		L243,114.5z"/>
	<path class="st15" d="M194,114c5.3-0.9,10.6-1.4,15.9-1.6c2.4-0.1,5-0.1,9.3,0c5.7,0.2,13.9,0.5,24,1.6c0,0-5.8-0.6-14-1.1
		c-3.8-0.2-7.2-0.4-10-0.4"/>
	<path class="st14" d="M236.3,113c3.5-4.9,2.8-11.6-1.6-15.6"/>
	<path class="st14" d="M239.5,113c1.6-2.1,2.3-4.7,2.1-7.3c-0.3-2.8-1.6-5.5-3.8-7.3"/>
	<path class="st14" d="M215.8,112.4c4-5.4,3.2-13-1.9-17.4"/>
	<path class="st14" d="M219.8,112.4c4-5.4,3.2-13-1.9-17.4"/>
	<path class="st14" d="M222.9,112.4c4-5.4,3.2-13-1.9-17.4"/>
	<path class="st14" d="M226.7,112.4c4-5.4,3.2-13-1.9-17.4"/>
	<path class="st14" d="M229.8,112.4c4-5.4,3.2-13-1.9-17.4"/>
	<path class="st14" d="M233.5,113c1.8-2.4,2.7-5.3,2.5-8.3c-0.3-3.2-1.9-6.2-4.4-8.3"/>
	<path class="st14" d="M202.9,112.9c2.5-4.8,0.9-10.7-3.7-13.6"/>
	<path class="st14" d="M206.5,113c1.6-2.3,2.2-5.1,1.7-7.8c-0.8-2.9-2.8-5.4-5.5-6.9"/>
	<path class="st14" d="M210.1,113c1.4-2.7,1.8-5.7,1-8.7c-0.9-3.1-2.9-5.8-5.7-7.5"/>
	<path class="st14" d="M212.3,112.4c4-5.4,3.2-13-1.9-17.4"/>
	<path class="st14" d="M200.6,113.2c0.7-2.1,0.7-4.5-0.2-6.5c-1-2.2-2.8-4-5.1-4.9"/>
	<ellipse class="st15" cx="225.7" cy="119" rx="4.7" ry="5.6"/>
	<path class="st8" d="M183.8,114.5c0,0-12.7-13.2-23.8-13.4c-11.9-0.3-25.3,13.4-25.3,13.4s14,12.9,25.7,12.5
		C170.9,126.7,183.8,114.5,183.8,114.5z"/>
	<path class="st23" d="M183.8,114.5c0,0-12.7-13.2-23.8-13.4c-11.9-0.3-25.3,13.4-25.3,13.4C150.9,111.3,167.6,111.3,183.8,114.5
		L183.8,114.5z"/>
	<path class="st15" d="M134.8,114c5.3-0.9,10.6-1.4,15.9-1.6c2.4-0.1,5-0.1,9.3,0c5.7,0.2,13.9,0.5,24,1.6c0,0-5.8-0.6-14-1.1
		c-3.8-0.2-7.2-0.4-10-0.4"/>
	<path class="st14" d="M143.4,113c-3.5-4.9-2.8-11.6,1.6-15.6"/>
	<path class="st14" d="M140.3,113c-1.6-2.1-2.3-4.7-2.1-7.3c0.3-2.8,1.6-5.5,3.8-7.3"/>
	<path class="st14" d="M164,112.4c-4-5.4-3.2-13,1.9-17.4"/>
	<path class="st14" d="M160,112.4c-4-5.4-3.2-13,1.9-17.4"/>
	<path class="st14" d="M156.8,112.4c-4-5.4-3.2-13,1.9-17.4"/>
	<path class="st14" d="M153.1,112.4c-4-5.4-3.2-13,1.9-17.4"/>
	<path class="st14" d="M150,112.4c-4-5.4-3.2-13,1.9-17.4"/>
	<path class="st14" d="M146.3,113c-1.8-2.4-2.7-5.3-2.5-8.3c0.3-3.2,1.9-6.2,4.4-8.3"/>
	<path class="st14" d="M176.8,112.9c-2.4-4.8-0.9-10.7,3.7-13.6"/>
	<path class="st14" d="M173.3,113c-1.6-2.3-2.2-5.1-1.7-7.8c0.8-2.9,2.8-5.4,5.5-6.9"/>
	<path class="st14" d="M169.7,113c-1.4-2.7-1.8-5.7-1-8.7c0.9-3.1,2.9-5.8,5.7-7.5"/>
	<path class="st14" d="M167.4,112.4c-4-5.4-3.2-13,1.9-17.4"/>
	<path class="st14" d="M179.1,113.2c-0.7-2.1-0.7-4.5,0.2-6.5c1-2.2,2.8-4,5.1-4.9"/>
	<ellipse class="st15" cx="166.5" cy="119" rx="4.7" ry="5.6"/>
	<line class="st17" x1="68.7" y1="365.3" x2="67.9" y2="359"/>
	<polygon class="st24" points="67.4,354.7 65.8,357.7 64.3,360.6 68,360.4 71.7,360.2 69.5,357.5 	"/>
	<ellipse transform="matrix(0.8783 -0.4781 0.4781 0.8783 -175.5305 82.8671)" class="st25" cx="75" cy="386.3" rx="18.9" ry="8"/>

		<ellipse transform="matrix(0.4653 -0.8852 0.8852 0.4653 -300.18 262.5017)" class="st25" cx="67.2" cy="379.7" rx="18.1" ry="8.4"/>
	<line class="st17" x1="71.5" y1="401.2" x2="70.2" y2="391.3"/>
	<line class="st17" x1="67.4" y1="398.5" x2="70.6" y2="395.1"/>
	<line class="st17" x1="68.5" y1="403.5" x2="71.4" y2="400.3"/>
	<line class="st17" x1="75.2" y1="402.7" x2="71.5" y2="400.5"/>
	<line class="st17" x1="74.9" y1="400.2" x2="71.2" y2="397.9"/>
	<line class="st17" x1="74.3" y1="397.3" x2="70.6" y2="395"/>
	<line class="st17" x1="67.8" y1="401.1" x2="71" y2="397.7"/>
	<path class="st1" d="M109.9,348.8c-2,1.5-3.7,3.2-5.2,5.2c-2.7,3.4-3.4,7.9-2.1,11.9c4.2,8.8,14.2,14.5,18.6,13.8
		c5.1-1,6.4-9.2,6.7-21.1c0.4-12.7-8.2-16.7-14.3-12.3"/>
	<path class="st26" d="M104.3,354.6c-2.3,3.3-2.9,7.4-1.7,11.2c4.1,8.9,14.1,14.7,18.4,14c5.1-0.9,6.6-9.1,6.9-21c0-0.4,0-0.8,0-1.2
		"/>
</g>
<path class="st0" d="M1770,582.7c14.4-66.8,13.2,54.9,29.8,0.8s28.7,23.1,36.7,1s46.8-28.9,42.9,1.2s21.6,45.4,31.7,0.9
	s32.1,72.6,32.3,0.9s38.1,41.8,38.1,1.1s16.2-6.7,16.5-15.6l13.1-469.2c1.4-51.9-37.5-96.1-89.2-101.2c-4.3-0.4-8.7,1-11.9,3.8
	l-10.4,8.9c-4.6,3.9-11,5-16.6,2.7L1842,1.1c-2-0.8-4.2-1.2-6.3-1.2c-36.7,0.8-66.3,30.2-67.3,66.9l-13.9,499.4
	C1754.2,575,1755.7,649.5,1770,582.7z"/>
<path class="st1" d="M1985.5,120.1c2.9,7.2-0.7,16.2-9.2,19.5c-8.5,3.1-13.4-5.9-10.5-18.2c2.8-12.3,5.5-20.4,9.1-18.7
	C1978.5,104.5,1982.5,112.6,1985.5,120.1z"/>
<ellipse class="st2" cx="1975.7" cy="172.2" rx="21.4" ry="40.8"/>
<path d="M1891.4,194.4l-5.8,0.8c-42,6.2-78.3,36.2-84.1,64.3c-9.5,49.8-36.3,95.5-57.5,139.1c-5.9,12.3,4,30.3,23.8,49.3
	c19.9,18.6,49.7,38.3,86.8,44.4c3.4,0.6,6.9,1.1,10.4,1.6c75.2,10.8,135.4-39.4,130.4-71.4c-7.5-58-26.8-111.9-34.1-171.1
	C1955.9,216.7,1932.7,188.3,1891.4,194.4z"/>
<path class="st1" d="M1898.8,676.5c-3.1-2.2-6.7-3.7-10.4-4.5c-19.8-81.7-51.2-152.6-89.1-200.6c10.8-18.1,23.4-31.8,37.6-40.9
	C1868.8,501.3,1890.8,587.7,1898.8,676.5z"/>
<path class="st1" d="M1782.7,642.1c0.7-2.7,0.7-5.4,0.2-8.1c52.7-53.8,94.4-108.4,117.9-154.6c16-3.5,29.4-3.7,39.9-0.6
	C1899.3,533.7,1843.8,591.2,1782.7,642.1z"/>
<path d="M1836.8,593.9c-4.5-0.4-8.1-3.5-12.2-5.3c0.9-1,1.7-2,2.6-3c31.8-37.4,57.2-73.9,73.6-106.2c16-3.5,29.4-3.7,39.9-0.6
	c-27.9,36.9-62.2,75.1-100.2,111.6C1839.3,591.6,1838.1,592.7,1836.8,593.9z"/>
<line class="st3" x1="1864" y1="592.5" x2="1885.4" y2="584.8"/>
<path class="st1" d="M1882.6,196.1c32.3,0,89.9,11.6,89.9-61.3c0-78.4-57.6-109.5-89.9-109.5s-58.4,80.1-58.4,112.4
	C1824.2,169.9,1850.4,196.1,1882.6,196.1C1882.6,196.1,1882.6,196.1,1882.6,196.1z"/>
<path class="st1" d="M1891.4,194.4l-5.8,0.8c-42,6.2-78.3,36.2-84.1,64.3c-9.5,49.8-36.3,95.5-57.5,139.1
	c-5.9,12.3,256.4,55.8,251.3,23.9c-7.5-58-26.8-111.9-34.1-171.1C1955.9,216.7,1932.7,188.3,1891.4,194.4z"/>
<path d="M1874.5,279.3l-12.3-6.3c-3.8-2-5.3-6.6-3.3-10.4l16.9-32.7c2-3.8,6.6-5.3,10.4-3.3l12.3,6.3c3.8,2,5.3,6.6,3.3,10.4
	l-16.9,32.7C1883,279.7,1878.3,281.2,1874.5,279.3z"/>
<path d="M1896.9,240l-3-1.5c-0.9-0.5-1.3-1.6-0.8-2.5l6.6-12.8c0.5-0.9,1.6-1.3,2.5-0.8l3,1.5c0.9,0.5,1.3,1.6,0.8,2.5l-6.6,12.8
	C1899,240.1,1897.9,240.5,1896.9,240z"/>
<linearGradient id="SVGID_4_" gradientUnits="userSpaceOnUse" x1="945.2695" y1="351.1558" x2="945.2695" y2="370.2398" gradientTransform="matrix(-0.888 -0.459 0.459 -0.888 2557.9519 1000.9193)">
	<stop  offset="0" style="stop-color:#656565"/>
	<stop  offset="0.618" style="stop-color:#1B1B1B"/>
	<stop  offset="0.629" style="stop-color:#545454"/>
	<stop  offset="0.983" style="stop-color:#3E3E3E"/>
</linearGradient>
<path class="st27" d="M1872.3,248l6-11.6c0.8-1.5,2.6-2,4-1.3l12.3,6.3c1.5,0.8,2,2.6,1.3,4l-6,11.6c-0.8,1.5-2.6,2-4,1.3l-12.3-6.3
	C1872.1,251.3,1871.6,249.5,1872.3,248z"/>
<linearGradient id="SVGID_5_" gradientUnits="userSpaceOnUse" x1="945.2695" y1="351.1558" x2="945.2695" y2="370.2398" gradientTransform="matrix(-0.888 -0.459 0.459 -0.888 2557.9519 1000.9193)">
	<stop  offset="0" style="stop-color:#0E0E0E"/>
	<stop  offset="0.5" style="stop-color:#000000"/>
	<stop  offset="0.521" style="stop-color:#010101"/>
	<stop  offset="0.726" style="stop-color:#0B0B0B"/>
	<stop  offset="1" style="stop-color:#0E0E0E"/>
</linearGradient>
<path class="st28" d="M1872.3,248l6-11.6c0.8-1.5,2.6-2,4-1.3l12.3,6.3c1.5,0.8,2,2.6,1.3,4l-6,11.6c-0.8,1.5-2.6,2-4,1.3l-12.3-6.3
	C1872.1,251.3,1871.6,249.5,1872.3,248z"/>
<linearGradient id="SVGID_6_" gradientUnits="userSpaceOnUse" x1="935.3605" y1="360.6978" x2="955.1785" y2="360.6978" gradientTransform="matrix(-0.888 -0.459 0.459 -0.888 2557.9519 1000.9193)">
	<stop  offset="0" style="stop-color:#FFFFFF;stop-opacity:0.77"/>
	<stop  offset="0.203" style="stop-color:#FFFFFF;stop-opacity:0.65"/>
	<stop  offset="0.345" style="stop-color:#FFFFFF;stop-opacity:0.65"/>
	<stop  offset="0.346" style="stop-color:#FFFFFF;stop-opacity:0.65"/>
	<stop  offset="0.422" style="stop-color:#FFFFFF;stop-opacity:0.619"/>
	<stop  offset="0.54" style="stop-color:#FFFFFF;stop-opacity:0.532"/>
	<stop  offset="0.686" style="stop-color:#FFFFFF;stop-opacity:0.391"/>
	<stop  offset="0.851" style="stop-color:#FFFFFF;stop-opacity:0.198"/>
	<stop  offset="1" style="stop-color:#FFFFFF;stop-opacity:0"/>
	<stop  offset="1" style="stop-color:#7E7E7E;stop-opacity:9.100000e-02"/>
	<stop  offset="1" style="stop-color:#1B1B1B;stop-opacity:0.16"/>
</linearGradient>
<path class="st29" d="M1872.3,248l6-11.6c0.8-1.5,2.6-2,4-1.3l12.3,6.3c1.5,0.8,2,2.6,1.3,4l-6,11.6c-0.8,1.5-2.6,2-4,1.3l-12.3-6.3
	C1872.1,251.3,1871.6,249.5,1872.3,248z"/>
<g class="st7">
	<path class="st8" d="M1887.2,257.1c-2.7-0.7-5.3-2.4-7.8-3.7c-1.6-0.8-6.6-2.4-7-4.5c-0.5-2.2,2.7-6.1,3.6-7.9
		c1-1.9,2.3-6.4,4.9-6.5c2.4,0,5.7,2.6,7.8,3.7c1.6,0.8,6.6,2.4,7,4.5s-2.7,6.2-3.6,7.9C1891,252.8,1889.9,256.5,1887.2,257.1
		c0,0,0,0.7,0,0.7c2.7-0.5,3.6-3.9,4.7-6.1c1.2-2.3,3.1-4.9,3.8-7.5c0.9-3.6-3.2-4.8-5.8-6.1c-2.4-1.2-5.1-3.2-7.7-4
		c-3.3-1-4.2,2.2-5.4,4.6c-1.4,2.7-4.6,6.6-4.5,9.8c0.1,2.8,3.9,3.9,6,5c2.8,1.5,5.8,3.5,8.9,4.3
		C1887.1,257.8,1887.2,257.1,1887.2,257.1z"/>
</g>
<path class="st9" d="M1872.3,248l6-11.6c0.8-1.5,2.6-2,4-1.3l12.3,6.3c1.5,0.8,2,2.6,1.3,4l-6,11.6c-0.8,1.5-2.6,2-4,1.3l-12.3-6.3
	C1872.1,251.3,1871.6,249.5,1872.3,248z"/>
<g class="st10">
	<path d="M1873.5,251.2l10,5.2c1.3,0.7,2.9,1.9,4.5,1.4s2.2-2.4,2.9-3.8c1.5-2.9,3.9-6.1,4.8-9.3c0.5-1.8,0.5-2.8-1.3-4.2
		c-2.8-2.2-6.9-3.6-10-5.2c-3.3-1.7-5.2-1.7-7.1,1.8c-1.7,3-4.2,6.6-5.1,10C1871.7,248.8,1871.7,249.7,1873.5,251.2c0,0,0-0.1,0-0.1
		c-3.2-2.6,0.1-6.6,1.5-9.3c1-2,2.1-5.7,4-7.2c2.3-1.9,6.1,1.1,8.2,2.2c2.3,1.2,5.3,2.2,7.4,3.8c3.1,2.4,0.3,5.9-1.1,8.5
		c-1.1,2.2-2.3,6.4-4.4,8c-2.3,1.8-5.7-0.9-7.8-2l-7.8-4C1873.5,251,1873.5,251.1,1873.5,251.2z"/>
</g>
<ellipse cx="1906.3" cy="392.5" rx="1.5" ry="2.9"/>
<ellipse class="st11" cx="1905.4" cy="402.3" rx="5.7" ry="6.8"/>
<path class="st12" d="M1772.2,335.9c11-22.4,20.4-45.6,25.4-69.8c4.7-22.9,11-24,14.6-25.8c26.2-13.1,66.2,44.8,105.3,33.5
	c22.7-6.6,36.5-34.1,42.9-30.3c1.4,0.8,2.6,5.4,3.8,14.8c0.5,3.5,1,7,1.5,10.4c6.9,3.1,13.3,7.2,19,12.1c6.7,6.3,11,14.7,12.2,23.8
	c-1.7,2.5-4,4.6-6.7,6c-4.5,2.1-9.8,2.3-15.9,0.8c3,12.5,6.2,24.9,9.3,37.3C1990.1,373.6,1761.2,358.4,1772.2,335.9z"/>
<path class="st1" d="M1719.1,295.5c-0.1-0.1-0.2-0.2-0.3-0.4c0.3-0.2,64.2-58.6,109-74.8c1.8,5.2,3.4,10.2,4.8,15.2
	c-39.8,15.1-70.1,44-90.4,61.7c5.7,3.5,11.7,6.9,17,10.1c12.1,7,21.2,12.6,28,16.8c13.4,8.5,19.2,12.6,45.1,21.8
	c-0.7,0.9-2,1.7-2.1,2.9c-10.6-2.8-26.7-8-39.5-12.4c-10.3-3.5-20.4-7.4-30.3-11.9c-11.1-5.2-16.7-9.6-29.9-17.8
	C1730.1,307,1718.4,296.6,1719.1,295.5z"/>
<path class="st13" d="M1898.4,87.7c0,0-2.7-8.5-21.6-8.5s-21.6,8.5-21.6,8.5c0-5.9,9.7-10.7,21.6-10.7S1898.4,81.8,1898.4,87.7z"/>
<path class="st13" d="M1957.6,89.6c0,0-2.7-8.5-21.6-8.5s-21.6,8.5-21.6,8.5c0-5.9,9.7-10.7,21.6-10.7S1957.6,83.8,1957.6,89.6z"/>
<path class="st14" d="M1901.8,138c-0.7-6.5,3.9-10.1,7.5-9.4c3.3,0.6,7.3,5.2,7.2,10.8"/>
<ellipse class="st15" cx="1906.8" cy="138.2" rx="1.5" ry="1.4"/>
<ellipse class="st15" cx="1912.6" cy="138.2" rx="1.5" ry="1.4"/>
<path class="st16" d="M1930,167c-1-1.7-5-8-11.5-11.9c-2.2-1.4-3.8-3.3-5.6-2.4c-2.5,1.2-3.1,5.8-4.8,5.6c-1.7-0.2-1.9-4.7-4.2-5.9
	c-1.6-0.8-3.1,0.8-4.3,1.4c-8.1,3.6-13.1,11.6-14.1,13.3c0.7,1.5,9.1,18.8,23.3,18C1921.7,184.2,1929.1,169,1930,167z"/>
<path class="st17" d="M1885.4,167.2h44.6"/>
<path class="st12" d="M1898.4,665.9c-3.6,0.9-7.3,1.5-11,1.6c-2.2,14.4-3.2,28.9-3.1,43.5c5.7,1.5,11.5,2,17.4,1.7
	C1902,697,1900.9,681.3,1898.4,665.9z"/>
<path class="st12" d="M1890.3,671.2c-3.8,4.4,0.1,13.9,8.6,21.1s32.7,21.7,36.5,17.2s-14.3-26-22.8-33.3S1894,666.8,1890.3,671.2z"
	/>
<path class="st18" d="M1941.2,292.1c0.3,0.2,2.9,5.7,3.1,6.1c1.8,3.6,10.8,11.9,27.6,13.2c0.8,0.3,1.6,0.6,2.4,0.8"/>
<path class="st19" d="M1836.4,301.8c0.4,0.3,0.8,0.5,1.2,0.7c13.8,6.3,50.9,25.9,58.8,12.8c3.4-6.4,1.2-16.3-3.5-26.1"/>
<path class="st1" d="M1813.6,119.1c-2.9,7.2,0.7,16.2,9.2,19.5c8.5,3.1,13.4-5.9,10.5-18.2c-2.8-12.3-5.5-20.4-9.1-18.7
	C1820.6,103.6,1816.6,111.7,1813.6,119.1z"/>
<ellipse class="st2" cx="1822.3" cy="170.2" rx="21.4" ry="40.8"/>
<path class="st12" d="M1793,633.9c-2.3-1-4.5-2.4-6.3-4.2c-14.9,7.1-27,15.4-36.2,24.3c3.8,4.7,8.2,9,13,12.8
	C1770.1,655.2,1780,644.1,1793,633.9z"/>
<path class="st12" d="M1782.1,632.7c-5.3,0.4-8.9,8.7-8.1,18.6s7,33.9,12.2,33.5s7.6-25.2,6.9-35S1787.3,632.3,1782.1,632.7z"/>
<path class="st0" d="M1893.1,22.1c0,0-22.9,2.6-36.6,12.9c-14.7,11-23.7,33.6-23.7,33.6s24.3-4,38.5-15.4
	C1883.9,43.1,1893.1,22.1,1893.1,22.1z"/>
<path class="st0" d="M1969.8,70.3c0,0-15.3-22.2-33.6-32.6c-19.6-11.2-48.1-12.7-48.1-12.7s17.6,23.2,37.3,33.7
	C1942.9,68,1969.8,70.3,1969.8,70.3z"/>
<path d="M1865.7,596.7c-0.6-1.6-1.2-3.2-1.8-4.8c-17.8-47.7-39.9-89-64.7-120.5c10.8-18.1,23.4-31.8,37.6-40.9
	c21.6,47.9,38.7,102.9,49.9,160.9c0.1,0.5,0.2,1.1,0.3,1.6C1879.8,593.6,1872.8,595.4,1865.7,596.7z"/>
<path class="st8" d="M1961,114.5c0,0-12.7-13.2-23.8-13.4c-11.9-0.3-25.3,13.4-25.3,13.4s14,12.9,25.7,12.5
	C1948.1,126.7,1961,114.5,1961,114.5z"/>
<path class="st23" d="M1961,114.5c0,0-12.7-13.2-23.8-13.4c-11.9-0.3-25.3,13.4-25.3,13.4C1928.1,111.3,1944.8,111.3,1961,114.5
	L1961,114.5z"/>
<path class="st15" d="M1912,114c5.3-0.9,10.6-1.4,15.9-1.6c2.4-0.1,5-0.1,9.3,0c5.7,0.2,13.9,0.5,24,1.6c0,0-5.8-0.6-14-1.1
	c-3.8-0.2-7.2-0.4-10-0.4"/>
<path class="st14" d="M1954.3,113c3.5-4.9,2.8-11.6-1.6-15.6"/>
<path class="st14" d="M1957.5,113c1.6-2.1,2.3-4.7,2.1-7.3c-0.3-2.8-1.6-5.5-3.8-7.3"/>
<path class="st14" d="M1933.8,112.4c4-5.4,3.2-13-1.9-17.4"/>
<path class="st14" d="M1937.8,112.4c4-5.4,3.2-13-1.9-17.4"/>
<path class="st14" d="M1940.9,112.4c4-5.4,3.2-13-1.9-17.4"/>
<path class="st14" d="M1944.7,112.4c4-5.4,3.2-13-1.9-17.4"/>
<path class="st14" d="M1947.8,112.4c4-5.4,3.2-13-1.9-17.4"/>
<path class="st14" d="M1951.5,113c1.8-2.4,2.7-5.3,2.5-8.3c-0.3-3.2-1.9-6.2-4.4-8.3"/>
<path class="st14" d="M1920.9,112.9c2.5-4.8,0.9-10.7-3.7-13.6"/>
<path class="st14" d="M1924.5,113c1.6-2.3,2.2-5.1,1.7-7.8c-0.8-2.9-2.8-5.4-5.5-6.9"/>
<path class="st14" d="M1928.1,113c1.4-2.7,1.8-5.7,1-8.7c-0.9-3.1-2.9-5.8-5.7-7.5"/>
<path class="st14" d="M1930.3,112.4c4-5.4,3.2-13-1.9-17.4"/>
<path class="st14" d="M1918.6,113.2c0.7-2.1,0.7-4.5-0.2-6.5c-1-2.2-2.8-4-5.1-4.9"/>
<ellipse class="st15" cx="1943.7" cy="119" rx="4.7" ry="5.6"/>
<path class="st8" d="M1901.8,114.5c0,0-12.7-13.2-23.8-13.4c-11.9-0.3-25.3,13.4-25.3,13.4s14,12.9,25.7,12.5
	C1888.9,126.7,1901.8,114.5,1901.8,114.5z"/>
<path class="st23" d="M1901.8,114.5c0,0-12.7-13.2-23.8-13.4c-11.9-0.3-25.3,13.4-25.3,13.4C1868.9,111.3,1885.6,111.3,1901.8,114.5
	L1901.8,114.5z"/>
<path class="st15" d="M1852.8,114c5.3-0.9,10.6-1.4,15.9-1.6c2.4-0.1,5-0.1,9.3,0c5.7,0.2,13.9,0.5,24,1.6c0,0-5.8-0.6-14-1.1
	c-3.8-0.2-7.2-0.4-10-0.4"/>
<path class="st14" d="M1861.4,113c-3.5-4.9-2.8-11.6,1.6-15.6"/>
<path class="st14" d="M1858.3,113c-1.6-2.1-2.3-4.7-2.1-7.3c0.3-2.8,1.6-5.5,3.8-7.3"/>
<path class="st14" d="M1882,112.4c-4-5.4-3.2-13,1.9-17.4"/>
<path class="st14" d="M1878,112.4c-4-5.4-3.2-13,1.9-17.4"/>
<path class="st14" d="M1874.8,112.4c-4-5.4-3.2-13,1.9-17.4"/>
<path class="st14" d="M1871.1,112.4c-4-5.4-3.2-13,1.9-17.4"/>
<path class="st14" d="M1868,112.4c-4-5.4-3.2-13,1.9-17.4"/>
<path class="st14" d="M1864.3,113c-1.8-2.4-2.7-5.3-2.5-8.3c0.3-3.2,1.9-6.2,4.4-8.3"/>
<path class="st14" d="M1894.8,112.9c-2.4-4.8-0.9-10.7,3.7-13.6"/>
<path class="st14" d="M1891.3,113c-1.6-2.3-2.2-5.1-1.7-7.8c0.8-2.9,2.8-5.4,5.5-6.9"/>
<path class="st14" d="M1887.7,113c-1.4-2.7-1.8-5.7-1-8.7c0.9-3.1,2.9-5.8,5.7-7.5"/>
<path class="st14" d="M1885.4,112.4c-4-5.4-3.2-13,1.9-17.4"/>
<path class="st14" d="M1897.1,113.2c-0.7-2.1-0.7-4.5,0.2-6.5c1-2.2,2.8-4,5.1-4.9"/>
<ellipse class="st15" cx="1884.5" cy="119" rx="4.7" ry="5.6"/>
<line class="st17" x1="1786.7" y1="365.3" x2="1785.9" y2="359"/>
<polygon class="st24" points="1785.4,354.7 1783.8,357.7 1782.3,360.6 1786,360.4 1789.7,360.2 1787.5,357.5 "/>
<ellipse transform="matrix(0.8783 -0.4781 0.4781 0.8783 33.5221 904.2059)" class="st25" cx="1793" cy="386.3" rx="18.9" ry="8"/>
<ellipse transform="matrix(0.4653 -0.8852 0.8852 0.4653 618.425 1783.1957)" class="st25" cx="1785.2" cy="379.7" rx="18.1" ry="8.4"/>
<line class="st17" x1="1789.5" y1="401.2" x2="1788.2" y2="391.3"/>
<line class="st17" x1="1785.4" y1="398.5" x2="1788.6" y2="395.1"/>
<line class="st17" x1="1786.5" y1="403.5" x2="1789.4" y2="400.3"/>
<line class="st17" x1="1793.2" y1="402.7" x2="1789.5" y2="400.5"/>
<line class="st17" x1="1792.9" y1="400.2" x2="1789.2" y2="397.9"/>
<line class="st17" x1="1792.3" y1="397.3" x2="1788.6" y2="395"/>
<line class="st17" x1="1785.8" y1="401.1" x2="1789" y2="397.7"/>
<path class="st1" d="M1827.9,348.8c-2,1.5-3.7,3.2-5.2,5.2c-2.7,3.4-3.4,7.9-2.1,11.9c4.2,8.8,14.2,14.5,18.6,13.8
	c5.1-1,6.4-9.2,6.7-21.1c0.4-12.7-8.2-16.7-14.3-12.3"/>
<path class="st26" d="M1822.3,354.6c-2.3,3.3-2.9,7.4-1.7,11.2c4.1,8.9,14.1,14.7,18.4,14c5.1-0.9,6.6-9.1,6.9-21c0-0.4,0-0.8,0-1.2
	"/>
<g>
	<path class="st20" d="M2034.8,27.1c25.4,2,49.2,4.4,72.2,11.9c0.4-3.2,0.8-6.5,1.2-9.8c-23.2-5.9-47.3-7.3-73.1-8.6
		C2035,22.8,2034.9,25,2034.8,27.1z"/>
	<path class="st21" d="M2035.3,28.3c10.2-0.1,20.1,0.4,30,2.8c0-3.1,0-6.2,0.1-9.5c-9.7-1.1-19.4-0.7-29.5,0.2
		C2035.7,24,2035.5,26.2,2035.3,28.3z"/>

		<ellipse transform="matrix(0.258 -0.9661 0.9661 0.258 1530.0652 2060.105)" class="st22" cx="2106.3" cy="33.9" rx="5.1" ry="1.3"/>
	<path class="st1" d="M2071.3,39.7c1.6-1.9,3-3.9,4-6.2c1.9-3.9,1.7-8.4-0.4-12.1c-6-7.8-16.9-11.3-21-9.6c-4.7,2-4.4,10.3-2.2,22
		c2.2,12.5,11.5,14.7,16.6,9.1"/>
	<path class="st1" d="M1936.5,233.8c52.5-57.7,93.2-125.1,119.8-198.4l7.4,2.6c-23.1,76.3-61,147.3-111.4,209.1L1936.5,233.8z"/>
</g>
<path class="st0" d="M1338,582.7c14.4-66.8,13.2,54.9,29.8,0.8s28.7,23.1,36.7,1s46.8-28.9,42.9,1.2s21.6,45.4,31.7,0.9
	s32.1,72.6,32.3,0.9s38.1,41.8,38.1,1.1s16.2-6.7,16.5-15.6l13.1-469.2c1.4-51.9-37.5-96.1-89.2-101.2c-4.3-0.4-8.7,1-11.9,3.8
	l-10.4,8.9c-4.6,3.9-11,5-16.6,2.7L1410,1.1c-2-0.8-4.2-1.2-6.3-1.2c-36.7,0.8-66.3,30.2-67.3,66.9l-13.9,499.4
	C1322.2,575,1323.7,649.5,1338,582.7z"/>
<path class="st1" d="M1553.5,120.1c2.9,7.2-0.7,16.2-9.2,19.5c-8.5,3.1-13.4-5.9-10.5-18.2c2.8-12.3,5.5-20.4,9.1-18.7
	C1546.5,104.5,1550.5,112.6,1553.5,120.1z"/>
<ellipse class="st2" cx="1543.7" cy="172.2" rx="21.4" ry="40.8"/>
<path d="M1459.4,194.4l-5.8,0.8c-42,6.2-78.3,36.2-84.1,64.3c-9.5,49.8-36.3,95.5-57.5,139.1c-5.9,12.3,4,30.3,23.8,49.3
	c19.9,18.6,49.7,38.3,86.8,44.4c3.4,0.6,6.9,1.1,10.4,1.6c75.2,10.8,135.4-39.4,130.4-71.4c-7.5-58-26.8-111.9-34.1-171.1
	C1523.9,216.7,1500.7,188.3,1459.4,194.4z"/>
<path class="st1" d="M1466.8,676.5c-3.1-2.2-6.7-3.7-10.4-4.5c-19.8-81.7-51.2-152.6-89.1-200.6c10.8-18.1,23.4-31.8,37.6-40.9
	C1436.8,501.3,1458.8,587.7,1466.8,676.5z"/>
<path class="st1" d="M1350.7,642.1c0.7-2.7,0.7-5.4,0.2-8.1c52.7-53.8,94.4-108.4,117.9-154.6c16-3.5,29.4-3.7,39.9-0.6
	C1467.3,533.7,1411.8,591.2,1350.7,642.1z"/>
<path d="M1404.8,593.9c-4.5-0.4-8.1-3.5-12.2-5.3c0.9-1,1.7-2,2.6-3c31.8-37.4,57.2-73.9,73.6-106.2c16-3.5,29.4-3.7,39.9-0.6
	c-27.9,36.9-62.2,75.1-100.2,111.6C1407.3,591.6,1406.1,592.7,1404.8,593.9z"/>
<line class="st3" x1="1432" y1="592.5" x2="1453.4" y2="584.8"/>
<path class="st1" d="M1450.6,196.1c32.3,0,89.9,11.6,89.9-61.3c0-78.4-57.6-109.5-89.9-109.5s-58.4,80.1-58.4,112.4
	C1392.2,169.9,1418.4,196.1,1450.6,196.1C1450.6,196.1,1450.6,196.1,1450.6,196.1z"/>
<path class="st1" d="M1459.4,194.4l-5.8,0.8c-42,6.2-78.3,36.2-84.1,64.3c-9.5,49.8-36.3,95.5-57.5,139.1
	c-5.9,12.3,256.4,55.8,251.3,23.9c-7.5-58-26.8-111.9-34.1-171.1C1523.9,216.7,1500.7,188.3,1459.4,194.4z"/>
<path d="M1442.5,279.3l-12.3-6.3c-3.8-2-5.3-6.6-3.3-10.4l16.9-32.7c2-3.8,6.6-5.3,10.4-3.3l12.3,6.3c3.8,2,5.3,6.6,3.3,10.4
	l-16.9,32.7C1451,279.7,1446.3,281.2,1442.5,279.3z"/>
<path d="M1464.9,240l-3-1.5c-0.9-0.5-1.3-1.6-0.8-2.5l6.6-12.8c0.5-0.9,1.6-1.3,2.5-0.8l3,1.5c0.9,0.5,1.3,1.6,0.8,2.5l-6.6,12.8
	C1467,240.1,1465.9,240.5,1464.9,240z"/>
<linearGradient id="SVGID_7_" gradientUnits="userSpaceOnUse" x1="1329.1576" y1="153.0031" x2="1329.1576" y2="172.0871" gradientTransform="matrix(-0.8885 -0.4589 0.4589 -0.8885 2558.3879 1000.1595)">
	<stop  offset="0" style="stop-color:#656565"/>
	<stop  offset="0.618" style="stop-color:#1B1B1B"/>
	<stop  offset="0.629" style="stop-color:#545454"/>
	<stop  offset="0.983" style="stop-color:#3E3E3E"/>
</linearGradient>
<path class="st30" d="M1440.2,247.1l6-11.6c0.8-1.5,2.6-2,4-1.3l12.3,6.3c1.5,0.8,2,2.6,1.3,4l-6,11.6c-0.8,1.5-2.6,2-4,1.3
	l-12.3-6.3C1440,250.3,1439.5,248.5,1440.2,247.1z"/>
<linearGradient id="SVGID_8_" gradientUnits="userSpaceOnUse" x1="1329.1576" y1="153.0031" x2="1329.1576" y2="172.0871" gradientTransform="matrix(-0.8885 -0.4589 0.4589 -0.8885 2558.3879 1000.1595)">
	<stop  offset="0" style="stop-color:#0E0E0E"/>
	<stop  offset="0.5" style="stop-color:#000000"/>
	<stop  offset="0.521" style="stop-color:#010101"/>
	<stop  offset="0.726" style="stop-color:#0B0B0B"/>
	<stop  offset="1" style="stop-color:#0E0E0E"/>
</linearGradient>
<path class="st31" d="M1440.2,247.1l6-11.6c0.8-1.5,2.6-2,4-1.3l12.3,6.3c1.5,0.8,2,2.6,1.3,4l-6,11.6c-0.8,1.5-2.6,2-4,1.3
	l-12.3-6.3C1440,250.3,1439.5,248.5,1440.2,247.1z"/>
<linearGradient id="SVGID_9_" gradientUnits="userSpaceOnUse" x1="1319.2485" y1="162.5451" x2="1339.0667" y2="162.5451" gradientTransform="matrix(-0.8885 -0.4589 0.4589 -0.8885 2558.3879 1000.1595)">
	<stop  offset="0" style="stop-color:#FFFFFF;stop-opacity:0.77"/>
	<stop  offset="0.203" style="stop-color:#FFFFFF;stop-opacity:0.65"/>
	<stop  offset="0.345" style="stop-color:#FFFFFF;stop-opacity:0.65"/>
	<stop  offset="0.346" style="stop-color:#FFFFFF;stop-opacity:0.65"/>
	<stop  offset="0.422" style="stop-color:#FFFFFF;stop-opacity:0.619"/>
	<stop  offset="0.54" style="stop-color:#FFFFFF;stop-opacity:0.532"/>
	<stop  offset="0.686" style="stop-color:#FFFFFF;stop-opacity:0.391"/>
	<stop  offset="0.851" style="stop-color:#FFFFFF;stop-opacity:0.198"/>
	<stop  offset="1" style="stop-color:#FFFFFF;stop-opacity:0"/>
	<stop  offset="1" style="stop-color:#7E7E7E;stop-opacity:9.100000e-02"/>
	<stop  offset="1" style="stop-color:#1B1B1B;stop-opacity:0.16"/>
</linearGradient>
<path class="st32" d="M1440.2,247.1l6-11.6c0.8-1.5,2.6-2,4-1.3l12.3,6.3c1.5,0.8,2,2.6,1.3,4l-6,11.6c-0.8,1.5-2.6,2-4,1.3
	l-12.3-6.3C1440,250.3,1439.5,248.5,1440.2,247.1z"/>
<g class="st7">
	<path class="st8" d="M1455.2,257.1c-2.7-0.7-5.3-2.4-7.8-3.7c-1.6-0.8-6.6-2.4-7-4.5c-0.5-2.2,2.7-6.1,3.6-7.9
		c1-1.9,2.3-6.4,4.9-6.5c2.4,0,5.7,2.6,7.8,3.7c1.6,0.8,6.6,2.4,7,4.5s-2.7,6.2-3.6,7.9C1459,252.8,1457.9,256.5,1455.2,257.1
		c0,0,0,0.7,0,0.7c2.7-0.5,3.6-3.9,4.7-6.1c1.2-2.3,3.1-4.9,3.8-7.5c0.9-3.6-3.2-4.8-5.8-6.1c-2.4-1.2-5.1-3.2-7.7-4
		c-3.3-1-4.2,2.2-5.4,4.6c-1.4,2.7-4.6,6.6-4.5,9.8c0.1,2.8,3.9,3.9,6,5c2.8,1.5,5.8,3.5,8.9,4.3
		C1455.1,257.8,1455.2,257.1,1455.2,257.1z"/>
</g>
<path class="st9" d="M1440.2,247.1l6-11.6c0.8-1.5,2.6-2,4-1.3l12.3,6.3c1.5,0.8,2,2.6,1.3,4l-6,11.6c-0.8,1.5-2.6,2-4,1.3
	l-12.3-6.3C1440,250.3,1439.5,248.5,1440.2,247.1z"/>
<g class="st10">
	<path d="M1441.5,251.2l10,5.2c1.3,0.7,2.9,1.9,4.5,1.4s2.2-2.4,2.9-3.8c1.5-2.9,3.9-6.1,4.8-9.3c0.5-1.8,0.5-2.8-1.3-4.2
		c-2.8-2.2-6.9-3.6-10-5.2c-3.3-1.7-5.2-1.7-7.1,1.8c-1.7,3-4.2,6.6-5.1,10C1439.7,248.8,1439.7,249.7,1441.5,251.2c0,0,0-0.1,0-0.1
		c-3.2-2.6,0.1-6.6,1.5-9.3c1-2,2.1-5.7,4-7.2c2.3-1.9,6.1,1.1,8.2,2.2c2.3,1.2,5.3,2.2,7.4,3.8c3.1,2.4,0.3,5.9-1.1,8.5
		c-1.1,2.2-2.3,6.4-4.4,8c-2.3,1.8-5.7-0.9-7.8-2l-7.8-4C1441.5,251,1441.5,251.1,1441.5,251.2z"/>
</g>
<ellipse cx="1474.3" cy="392.5" rx="1.5" ry="2.9"/>
<ellipse class="st11" cx="1473.4" cy="402.3" rx="5.7" ry="6.8"/>
<path class="st12" d="M1340.2,335.9c11-22.4,20.4-45.6,25.4-69.8c4.7-22.9,11-24,14.6-25.8c26.2-13.1,66.2,44.8,105.3,33.5
	c22.7-6.6,36.5-34.1,42.9-30.3c1.4,0.8,2.6,5.4,3.8,14.8c0.5,3.5,1,7,1.5,10.4c6.9,3.1,13.3,7.2,19,12.1c6.7,6.3,11,14.7,12.2,23.8
	c-1.7,2.5-4,4.6-6.7,6c-4.5,2.1-9.8,2.3-15.9,0.8c3,12.5,6.2,24.9,9.3,37.3C1558.1,373.6,1329.2,358.4,1340.2,335.9z"/>
<path class="st1" d="M1287.1,295.5c-0.1-0.1-0.2-0.2-0.3-0.4c0.3-0.2,64.2-58.6,109-74.8c1.8,5.2,3.4,10.2,4.8,15.2
	c-39.8,15.1-70.1,44-90.4,61.7c5.7,3.5,11.7,6.9,17,10.1c12.1,7,21.2,12.6,28,16.8c13.4,8.5,19.2,12.6,45.1,21.8
	c-0.7,0.9-2,1.7-2.1,2.9c-10.6-2.8-26.7-8-39.5-12.4c-10.3-3.5-20.4-7.4-30.3-11.9c-11.1-5.2-16.7-9.6-29.9-17.8
	C1298.1,307,1286.4,296.6,1287.1,295.5z"/>
<path class="st13" d="M1466.4,87.7c0,0-2.7-8.5-21.6-8.5s-21.6,8.5-21.6,8.5c0-5.9,9.7-10.7,21.6-10.7S1466.4,81.8,1466.4,87.7z"/>
<path class="st13" d="M1525.6,89.6c0,0-2.7-8.5-21.6-8.5s-21.6,8.5-21.6,8.5c0-5.9,9.7-10.7,21.6-10.7S1525.6,83.8,1525.6,89.6z"/>
<path class="st14" d="M1469.8,138c-0.7-6.5,3.9-10.1,7.5-9.4c3.3,0.6,7.3,5.2,7.2,10.8"/>
<ellipse class="st15" cx="1474.8" cy="138.2" rx="1.5" ry="1.4"/>
<ellipse class="st15" cx="1480.6" cy="138.2" rx="1.5" ry="1.4"/>
<path class="st16" d="M1498,167c-1-1.7-5-8-11.5-11.9c-2.2-1.4-3.8-3.3-5.6-2.4c-2.5,1.2-3.1,5.8-4.8,5.6c-1.7-0.2-1.9-4.7-4.2-5.9
	c-1.6-0.8-3.1,0.8-4.3,1.4c-8.1,3.6-13.1,11.6-14.1,13.3c0.7,1.5,9.1,18.8,23.3,18C1489.7,184.2,1497.1,169,1498,167z"/>
<path class="st17" d="M1453.4,167.2h44.6"/>
<path class="st12" d="M1466.4,665.9c-3.6,0.9-7.3,1.5-11,1.6c-2.2,14.4-3.2,28.9-3.1,43.5c5.7,1.5,11.5,2,17.4,1.7
	C1470,697,1468.9,681.3,1466.4,665.9z"/>
<path class="st12" d="M1458.3,671.2c-3.8,4.4,0.1,13.9,8.6,21.1s32.7,21.7,36.5,17.2s-14.3-26-22.8-33.3S1462,666.8,1458.3,671.2z"
	/>
<path class="st18" d="M1509.2,292.1c0.3,0.2,2.9,5.7,3.1,6.1c1.8,3.6,10.8,11.9,27.6,13.2c0.8,0.3,1.6,0.6,2.4,0.8"/>
<path class="st19" d="M1404.4,301.8c0.4,0.3,0.8,0.5,1.2,0.7c13.8,6.3,50.9,25.9,58.8,12.8c3.4-6.4,1.2-16.3-3.5-26.1"/>
<path class="st1" d="M1381.6,119.1c-2.9,7.2,0.7,16.2,9.2,19.5c8.5,3.1,13.4-5.9,10.5-18.2c-2.8-12.3-5.5-20.4-9.1-18.7
	C1388.6,103.6,1384.6,111.7,1381.6,119.1z"/>
<ellipse class="st2" cx="1390.3" cy="170.2" rx="21.4" ry="40.8"/>
<path class="st12" d="M1361,633.9c-2.3-1-4.5-2.4-6.3-4.2c-14.9,7.1-27,15.4-36.2,24.3c3.8,4.7,8.2,9,13,12.8
	C1338.1,655.2,1348,644.1,1361,633.9z"/>
<path class="st12" d="M1350.1,632.7c-5.3,0.4-8.9,8.7-8.1,18.6s7,33.9,12.2,33.5s7.6-25.2,6.9-35S1355.3,632.3,1350.1,632.7z"/>
<path class="st0" d="M1461.1,22.1c0,0-22.9,2.6-36.6,12.9c-14.7,11-23.7,33.6-23.7,33.6s24.3-4,38.5-15.4
	C1451.9,43.1,1461.1,22.1,1461.1,22.1z"/>
<path class="st0" d="M1537.8,70.3c0,0-15.3-22.2-33.6-32.6c-19.6-11.2-48.1-12.7-48.1-12.7s17.6,23.2,37.3,33.7
	C1510.9,68,1537.8,70.3,1537.8,70.3z"/>
<path d="M1433.7,596.7c-0.6-1.6-1.2-3.2-1.8-4.8c-17.8-47.7-39.9-89-64.7-120.5c10.8-18.1,23.4-31.8,37.6-40.9
	c21.6,47.9,38.7,102.9,49.9,160.9c0.1,0.5,0.2,1.1,0.3,1.6C1447.8,593.6,1440.8,595.4,1433.7,596.7z"/>
<path class="st8" d="M1529,114.5c0,0-12.7-13.2-23.8-13.4c-11.9-0.3-25.3,13.4-25.3,13.4s14,12.9,25.7,12.5
	C1516.1,126.7,1529,114.5,1529,114.5z"/>
<path class="st23" d="M1529,114.5c0,0-12.7-13.2-23.8-13.4c-11.9-0.3-25.3,13.4-25.3,13.4C1496.1,111.3,1512.8,111.3,1529,114.5
	L1529,114.5z"/>
<path class="st15" d="M1480,114c5.3-0.9,10.6-1.4,15.9-1.6c2.4-0.1,5-0.1,9.3,0c5.7,0.2,13.9,0.5,24,1.6c0,0-5.8-0.6-14-1.1
	c-3.8-0.2-7.2-0.4-10-0.4"/>
<path class="st14" d="M1522.3,113c3.5-4.9,2.8-11.6-1.6-15.6"/>
<path class="st14" d="M1525.5,113c1.6-2.1,2.3-4.7,2.1-7.3c-0.3-2.8-1.6-5.5-3.8-7.3"/>
<path class="st14" d="M1501.8,112.4c4-5.4,3.2-13-1.9-17.4"/>
<path class="st14" d="M1505.8,112.4c4-5.4,3.2-13-1.9-17.4"/>
<path class="st14" d="M1508.9,112.4c4-5.4,3.2-13-1.9-17.4"/>
<path class="st14" d="M1512.7,112.4c4-5.4,3.2-13-1.9-17.4"/>
<path class="st14" d="M1515.8,112.4c4-5.4,3.2-13-1.9-17.4"/>
<path class="st14" d="M1519.5,113c1.8-2.4,2.7-5.3,2.5-8.3c-0.3-3.2-1.9-6.2-4.4-8.3"/>
<path class="st14" d="M1488.9,112.9c2.5-4.8,0.9-10.7-3.7-13.6"/>
<path class="st14" d="M1492.5,113c1.6-2.3,2.2-5.1,1.7-7.8c-0.8-2.9-2.8-5.4-5.5-6.9"/>
<path class="st14" d="M1496.1,113c1.4-2.7,1.8-5.7,1-8.7c-0.9-3.1-2.9-5.8-5.7-7.5"/>
<path class="st14" d="M1498.3,112.4c4-5.4,3.2-13-1.9-17.4"/>
<path class="st14" d="M1486.6,113.2c0.7-2.1,0.7-4.5-0.2-6.5c-1-2.2-2.8-4-5.1-4.9"/>
<ellipse class="st15" cx="1511.7" cy="119" rx="4.7" ry="5.6"/>
<path class="st8" d="M1469.8,114.5c0,0-12.7-13.2-23.8-13.4c-11.9-0.3-25.3,13.4-25.3,13.4s14,12.9,25.7,12.5
	C1456.9,126.7,1469.8,114.5,1469.8,114.5z"/>
<path class="st23" d="M1469.8,114.5c0,0-12.7-13.2-23.8-13.4c-11.9-0.3-25.3,13.4-25.3,13.4C1436.9,111.3,1453.6,111.3,1469.8,114.5
	L1469.8,114.5z"/>
<path class="st15" d="M1420.8,114c5.3-0.9,10.6-1.4,15.9-1.6c2.4-0.1,5-0.1,9.3,0c5.7,0.2,13.9,0.5,24,1.6c0,0-5.8-0.6-14-1.1
	c-3.8-0.2-7.2-0.4-10-0.4"/>
<path class="st14" d="M1429.4,113c-3.5-4.9-2.8-11.6,1.6-15.6"/>
<path class="st14" d="M1426.3,113c-1.6-2.1-2.3-4.7-2.1-7.3c0.3-2.8,1.6-5.5,3.8-7.3"/>
<path class="st14" d="M1450,112.4c-4-5.4-3.2-13,1.9-17.4"/>
<path class="st14" d="M1446,112.4c-4-5.4-3.2-13,1.9-17.4"/>
<path class="st14" d="M1442.8,112.4c-4-5.4-3.2-13,1.9-17.4"/>
<path class="st14" d="M1439.1,112.4c-4-5.4-3.2-13,1.9-17.4"/>
<path class="st14" d="M1436,112.4c-4-5.4-3.2-13,1.9-17.4"/>
<path class="st14" d="M1432.3,113c-1.8-2.4-2.7-5.3-2.5-8.3c0.3-3.2,1.9-6.2,4.4-8.3"/>
<path class="st14" d="M1462.8,112.9c-2.4-4.8-0.9-10.7,3.7-13.6"/>
<path class="st14" d="M1459.3,113c-1.6-2.3-2.2-5.1-1.7-7.8c0.8-2.9,2.8-5.4,5.5-6.9"/>
<path class="st14" d="M1455.7,113c-1.4-2.7-1.8-5.7-1-8.7c0.9-3.1,2.9-5.8,5.7-7.5"/>
<path class="st14" d="M1453.4,112.4c-4-5.4-3.2-13,1.9-17.4"/>
<path class="st14" d="M1465.1,113.2c-0.7-2.1-0.7-4.5,0.2-6.5c1-2.2,2.8-4,5.1-4.9"/>
<ellipse class="st15" cx="1452.5" cy="119" rx="4.7" ry="5.6"/>
<line class="st17" x1="1354.7" y1="365.3" x2="1353.9" y2="359"/>
<polygon class="st24" points="1353.4,354.7 1351.8,357.7 1350.3,360.6 1354,360.4 1357.7,360.2 1355.5,357.5 "/>
<ellipse transform="matrix(0.8783 -0.4781 0.4781 0.8783 -19.0455 697.676)" class="st25" cx="1361" cy="386.3" rx="18.9" ry="8"/>
<ellipse transform="matrix(0.4653 -0.8852 0.8852 0.4653 387.4375 1400.8093)" class="st25" cx="1353.2" cy="379.7" rx="18.1" ry="8.4"/>
<line class="st17" x1="1357.5" y1="401.2" x2="1356.2" y2="391.3"/>
<line class="st17" x1="1353.4" y1="398.5" x2="1356.6" y2="395.1"/>
<line class="st17" x1="1354.5" y1="403.5" x2="1357.4" y2="400.3"/>
<line class="st17" x1="1361.2" y1="402.7" x2="1357.5" y2="400.5"/>
<line class="st17" x1="1360.9" y1="400.2" x2="1357.2" y2="397.9"/>
<line class="st17" x1="1360.3" y1="397.3" x2="1356.6" y2="395"/>
<line class="st17" x1="1353.8" y1="401.1" x2="1357" y2="397.7"/>
<path class="st1" d="M1395.9,348.8c-2,1.5-3.7,3.2-5.2,5.2c-2.7,3.4-3.4,7.9-2.1,11.9c4.2,8.8,14.2,14.5,18.6,13.8
	c5.1-1,6.4-9.2,6.7-21.1c0.4-12.7-8.2-16.7-14.3-12.3"/>
<path class="st26" d="M1390.3,354.6c-2.3,3.3-2.9,7.4-1.7,11.2c4.1,8.9,14.1,14.7,18.4,14c5.1-0.9,6.6-9.1,6.9-21c0-0.4,0-0.8,0-1.2
	"/>
<g>
	<path class="st20" d="M1616.7,21.3c23.9,8.8,46.2,17.6,66.3,31c1.3-3,2.6-6,3.9-9.1c-20.7-12-43.5-19.9-68.1-28.1
		C1618,17.2,1617.3,19.3,1616.7,21.3z"/>
	<path class="st21" d="M1616.8,22.6c9.9,2.7,19.3,5.8,28.1,10.8c0.9-2.9,1.7-6,2.7-9.2c-9-3.7-18.5-6-28.4-7.9
		C1618.4,18.6,1617.6,20.7,1616.8,22.6z"/>

		<ellipse transform="matrix(0.5107 -0.8598 0.8598 0.5107 783.5006 1471.2214)" class="st22" cx="1684.3" cy="47.3" rx="5.1" ry="1.3"/>
	<path class="st1" d="M1650.7,42.9c2.1-1.4,3.9-3,5.6-4.9c2.9-3.2,4-7.6,2.9-11.8c-3.6-9.1-13.2-15.4-17.6-15
		c-5.1,0.6-7,8.7-8.1,20.6c-1.3,12.6,7.1,17.2,13.5,13.3"/>
	<path class="st1" d="M1617.5,151.2c-31.4,36.8-73.1,63.5-119.6,76.7l9.2,18c47.1-15.9,88.5-45.5,118.9-84.9
		C1623.2,157.7,1620.4,154.4,1617.5,151.2z"/>
	<path class="st1" d="M1611.8,162.2c4.7,0.3,9.3,0.7,13.8,1.1c11.2-38.7,18.8-78.4,22.8-118.6c-3.1-1.5-6.3-3-9.5-4.3
		C1632.5,92.8,1621.6,132.9,1611.8,162.2z"/>
</g>
<path class="st0" d="M907,582.7c14.4-66.8,13.2,54.9,29.8,0.8s28.7,23.1,36.7,1s46.8-28.9,42.9,1.2s21.6,45.4,31.7,0.9
	s32.1,72.6,32.3,0.9s38.1,41.8,38.1,1.1s16.2-6.7,16.5-15.6l13.1-469.2c1.4-51.9-37.5-96.1-89.2-101.2c-4.3-0.4-8.7,1-11.9,3.8
	l-10.4,8.9c-4.6,3.9-11,5-16.6,2.7L979,1.1c-2-0.8-4.2-1.2-6.3-1.2c-36.7,0.8-66.3,30.2-67.3,66.9l-14,499.4
	C891.2,575,892.7,649.5,907,582.7z"/>
<path class="st1" d="M1122.5,120.1c2.9,7.2-0.7,16.2-9.2,19.5c-8.5,3.1-13.4-5.9-10.5-18.2c2.8-12.3,5.5-20.4,9.1-18.7
	C1115.5,104.5,1119.5,112.6,1122.5,120.1z"/>
<ellipse class="st2" cx="1112.7" cy="172.2" rx="21.4" ry="40.8"/>
<path d="M1028.4,194.4l-5.8,0.8c-42,6.2-78.3,36.2-84.1,64.3c-9.5,49.8-36.3,95.5-57.5,139.1c-5.9,12.3,4,30.3,23.8,49.3
	c19.9,18.6,49.7,38.3,86.8,44.4c3.4,0.6,6.9,1.1,10.4,1.6c75.2,10.8,135.4-39.4,130.4-71.4c-7.5-58-26.8-111.9-34.1-171.1
	C1092.9,216.7,1069.7,188.3,1028.4,194.4z"/>
<path class="st1" d="M1035.8,676.5c-3.1-2.2-6.7-3.7-10.4-4.5c-19.8-81.7-51.2-152.6-89.1-200.6c10.8-18.1,23.4-31.8,37.6-40.9
	C1005.8,501.3,1027.8,587.7,1035.8,676.5z"/>
<path class="st1" d="M919.7,642.1c0.7-2.7,0.7-5.4,0.2-8.1c52.7-53.8,94.4-108.4,117.9-154.6c16-3.5,29.4-3.7,39.9-0.6
	C1036.3,533.7,980.8,591.2,919.7,642.1z"/>
<path d="M973.8,593.9c-4.5-0.4-8.1-3.5-12.2-5.3c0.9-1,1.7-2,2.6-3c31.8-37.4,57.2-73.9,73.6-106.2c16-3.5,29.4-3.7,39.9-0.6
	c-27.9,36.9-62.2,75.1-100.2,111.6C976.3,591.6,975.1,592.7,973.8,593.9z"/>
<line class="st3" x1="1001" y1="592.5" x2="1022.4" y2="584.8"/>
<path class="st1" d="M1019.6,196.1c32.3,0,89.9,11.6,89.9-61.3c0-78.4-57.6-109.5-89.9-109.5s-58.4,80.1-58.4,112.4
	C961.2,169.9,987.4,196.1,1019.6,196.1C1019.6,196.1,1019.6,196.1,1019.6,196.1z"/>
<path class="st1" d="M1028.4,194.4l-5.8,0.8c-42,6.2-78.3,36.2-84.1,64.3c-9.5,49.8-36.3,95.5-57.5,139.1
	c-5.9,12.3,256.4,55.8,251.3,23.9c-7.5-58-26.8-111.9-34.1-171.1C1092.9,216.7,1069.7,188.3,1028.4,194.4z"/>
<path d="M1011.5,279.3l-12.3-6.3c-3.8-2-5.3-6.6-3.3-10.4l16.9-32.7c2-3.8,6.6-5.3,10.4-3.3l12.3,6.3c3.8,2,5.3,6.6,3.3,10.4
	l-16.9,32.7C1020,279.7,1015.3,281.2,1011.5,279.3z"/>
<path d="M1033.9,240l-3-1.5c-0.9-0.5-1.3-1.6-0.8-2.5l6.6-12.8c0.5-0.9,1.6-1.3,2.5-0.8l3,1.5c0.9,0.5,1.3,1.6,0.8,2.5l-6.6,12.8
	C1036,240.1,1034.9,240.5,1033.9,240z"/>
<linearGradient id="SVGID_10_" gradientUnits="userSpaceOnUse" x1="1712.0975" y1="-44.7788" x2="1712.0975" y2="-25.6947" gradientTransform="matrix(-0.8885 -0.4589 0.4589 -0.8885 2558.3848 1000.1614)">
	<stop  offset="0" style="stop-color:#656565"/>
	<stop  offset="0.618" style="stop-color:#1B1B1B"/>
	<stop  offset="0.629" style="stop-color:#545454"/>
	<stop  offset="0.983" style="stop-color:#3E3E3E"/>
</linearGradient>
<path class="st33" d="M1009.2,247.1l6-11.6c0.8-1.5,2.6-2,4-1.3l12.3,6.3c1.5,0.8,2,2.6,1.3,4l-6,11.6c-0.8,1.5-2.6,2-4,1.3
	l-12.3-6.3C1009,250.3,1008.5,248.5,1009.2,247.1z"/>
<linearGradient id="SVGID_11_" gradientUnits="userSpaceOnUse" x1="1712.0975" y1="-44.7788" x2="1712.0975" y2="-25.6947" gradientTransform="matrix(-0.8885 -0.4589 0.4589 -0.8885 2558.3848 1000.1614)">
	<stop  offset="0" style="stop-color:#0E0E0E"/>
	<stop  offset="0.5" style="stop-color:#000000"/>
	<stop  offset="0.521" style="stop-color:#010101"/>
	<stop  offset="0.726" style="stop-color:#0B0B0B"/>
	<stop  offset="1" style="stop-color:#0E0E0E"/>
</linearGradient>
<path class="st34" d="M1009.2,247.1l6-11.6c0.8-1.5,2.6-2,4-1.3l12.3,6.3c1.5,0.8,2,2.6,1.3,4l-6,11.6c-0.8,1.5-2.6,2-4,1.3
	l-12.3-6.3C1009,250.3,1008.5,248.5,1009.2,247.1z"/>
<linearGradient id="SVGID_12_" gradientUnits="userSpaceOnUse" x1="1702.1885" y1="-35.2368" x2="1722.0066" y2="-35.2368" gradientTransform="matrix(-0.8885 -0.4589 0.4589 -0.8885 2558.3848 1000.1614)">
	<stop  offset="0" style="stop-color:#FFFFFF;stop-opacity:0.77"/>
	<stop  offset="0.203" style="stop-color:#FFFFFF;stop-opacity:0.65"/>
	<stop  offset="0.345" style="stop-color:#FFFFFF;stop-opacity:0.65"/>
	<stop  offset="0.346" style="stop-color:#FFFFFF;stop-opacity:0.65"/>
	<stop  offset="0.422" style="stop-color:#FFFFFF;stop-opacity:0.619"/>
	<stop  offset="0.54" style="stop-color:#FFFFFF;stop-opacity:0.532"/>
	<stop  offset="0.686" style="stop-color:#FFFFFF;stop-opacity:0.391"/>
	<stop  offset="0.851" style="stop-color:#FFFFFF;stop-opacity:0.198"/>
	<stop  offset="1" style="stop-color:#FFFFFF;stop-opacity:0"/>
	<stop  offset="1" style="stop-color:#7E7E7E;stop-opacity:9.100000e-02"/>
	<stop  offset="1" style="stop-color:#1B1B1B;stop-opacity:0.16"/>
</linearGradient>
<path class="st35" d="M1009.2,247.1l6-11.6c0.8-1.5,2.6-2,4-1.3l12.3,6.3c1.5,0.8,2,2.6,1.3,4l-6,11.6c-0.8,1.5-2.6,2-4,1.3
	l-12.3-6.3C1009,250.3,1008.5,248.5,1009.2,247.1z"/>
<g class="st7">
	<path class="st8" d="M1024.2,257.1c-2.7-0.7-5.3-2.4-7.8-3.7c-1.6-0.8-6.6-2.4-7-4.5c-0.5-2.2,2.7-6.1,3.6-7.9
		c1-1.9,2.3-6.4,4.9-6.5c2.4,0,5.7,2.6,7.8,3.7c1.6,0.8,6.6,2.4,7,4.5s-2.7,6.2-3.6,7.9C1028,252.8,1026.9,256.5,1024.2,257.1
		c0,0,0,0.7,0,0.7c2.7-0.5,3.6-3.9,4.7-6.1c1.2-2.3,3.1-4.9,3.8-7.5c0.9-3.6-3.2-4.8-5.8-6.1c-2.4-1.2-5.1-3.2-7.7-4
		c-3.3-1-4.2,2.2-5.4,4.6c-1.4,2.7-4.6,6.6-4.5,9.8c0.1,2.8,3.9,3.9,6,5c2.8,1.5,5.8,3.5,8.9,4.3
		C1024.1,257.8,1024.2,257.1,1024.2,257.1z"/>
</g>
<path class="st9" d="M1009.2,247.1l6-11.6c0.8-1.5,2.6-2,4-1.3l12.3,6.3c1.5,0.8,2,2.6,1.3,4l-6,11.6c-0.8,1.5-2.6,2-4,1.3
	l-12.3-6.3C1009,250.3,1008.5,248.5,1009.2,247.1z"/>
<g class="st10">
	<path d="M1010.5,251.2l10,5.2c1.3,0.7,2.9,1.9,4.5,1.4s2.2-2.4,2.9-3.8c1.5-2.9,3.9-6.1,4.8-9.3c0.5-1.8,0.5-2.8-1.3-4.2
		c-2.8-2.2-6.9-3.6-10-5.2c-3.3-1.7-5.2-1.7-7.1,1.8c-1.7,3-4.2,6.6-5.1,10C1008.7,248.8,1008.7,249.7,1010.5,251.2c0,0,0-0.1,0-0.1
		c-3.2-2.6,0.1-6.6,1.5-9.3c1-2,2.1-5.7,4-7.2c2.3-1.9,6.1,1.1,8.2,2.2c2.3,1.2,5.3,2.2,7.4,3.8c3.1,2.4,0.3,5.9-1.1,8.5
		c-1.1,2.2-2.3,6.4-4.4,8c-2.3,1.8-5.7-0.9-7.8-2l-7.8-4C1010.5,251,1010.5,251.1,1010.5,251.2z"/>
</g>
<ellipse cx="1043.3" cy="392.5" rx="1.5" ry="2.9"/>
<ellipse class="st11" cx="1042.4" cy="402.3" rx="5.7" ry="6.8"/>
<path class="st12" d="M909.2,335.9c11-22.4,20.4-45.6,25.4-69.8c4.7-22.9,11-24,14.6-25.8c26.2-13.1,66.2,44.8,105.3,33.5
	c22.7-6.6,36.5-34.1,42.9-30.3c1.4,0.8,2.6,5.4,3.8,14.8c0.5,3.5,1,7,1.5,10.4c6.9,3.1,13.3,7.2,19,12.1c6.7,6.3,11,14.7,12.2,23.8
	c-1.7,2.5-4,4.6-6.7,6c-4.5,2.1-9.8,2.3-15.9,0.8c3,12.5,6.2,24.9,9.3,37.3C1127.1,373.6,898.2,358.4,909.2,335.9z"/>
<path class="st1" d="M856.1,295.5c-0.1-0.1-0.2-0.2-0.3-0.4c0.3-0.2,64.2-58.6,109-74.8c1.8,5.2,3.4,10.2,4.8,15.2
	c-39.8,15.1-70.1,44-90.4,61.7c5.7,3.5,11.7,6.9,17,10.1c12.1,7,21.2,12.6,28,16.8c13.4,8.5,19.2,12.6,45,21.8
	c-0.7,0.9-2,1.7-2.1,2.9c-10.6-2.8-26.7-8-39.5-12.4c-10.3-3.5-20.4-7.4-30.3-11.9c-11.1-5.2-16.7-9.6-29.9-17.8
	C867.1,307,855.4,296.6,856.1,295.5z"/>
<path class="st13" d="M1035.4,87.7c0,0-2.7-8.5-21.6-8.5s-21.6,8.5-21.6,8.5c0-5.9,9.7-10.7,21.6-10.7S1035.4,81.8,1035.4,87.7z"/>
<path class="st13" d="M1094.6,89.6c0,0-2.7-8.5-21.6-8.5s-21.6,8.5-21.6,8.5c0-5.9,9.7-10.7,21.6-10.7S1094.6,83.8,1094.6,89.6z"/>
<path class="st14" d="M1038.8,138c-0.7-6.5,3.9-10.1,7.5-9.4c3.3,0.6,7.3,5.2,7.2,10.8"/>
<ellipse class="st15" cx="1043.8" cy="138.2" rx="1.5" ry="1.4"/>
<ellipse class="st15" cx="1049.6" cy="138.2" rx="1.5" ry="1.4"/>
<path class="st16" d="M1067,167c-1-1.7-5-8-11.5-11.9c-2.2-1.4-3.8-3.3-5.6-2.4c-2.5,1.2-3.1,5.8-4.8,5.6c-1.7-0.2-1.9-4.7-4.2-5.9
	c-1.6-0.8-3.1,0.8-4.3,1.4c-8.1,3.6-13.1,11.6-14.1,13.3c0.7,1.5,9.1,18.8,23.3,18C1058.7,184.2,1066.1,169,1067,167z"/>
<path class="st17" d="M1022.4,167.2h44.6"/>
<path class="st12" d="M1035.4,665.9c-3.6,0.9-7.3,1.5-11,1.6c-2.2,14.4-3.2,28.9-3.1,43.5c5.7,1.5,11.5,2,17.4,1.7
	C1039,697,1037.9,681.3,1035.4,665.9z"/>
<path class="st12" d="M1027.3,671.2c-3.8,4.4,0.1,13.9,8.6,21.1s32.7,21.7,36.5,17.2s-14.3-26-22.8-33.3S1031,666.8,1027.3,671.2z"
	/>
<path class="st18" d="M1078.2,292.1c0.3,0.2,2.9,5.7,3.1,6.1c1.8,3.6,10.8,11.9,27.6,13.2c0.8,0.3,1.6,0.6,2.4,0.8"/>
<path class="st19" d="M973.4,301.8c0.4,0.3,0.8,0.5,1.2,0.7c13.8,6.3,50.9,25.9,58.8,12.8c3.4-6.4,1.2-16.3-3.5-26.1"/>
<path class="st1" d="M950.6,119.1c-2.9,7.2,0.7,16.2,9.2,19.5c8.5,3.1,13.4-5.9,10.5-18.2c-2.8-12.3-5.5-20.4-9.1-18.7
	C957.6,103.6,953.6,111.7,950.6,119.1z"/>
<ellipse class="st2" cx="959.3" cy="170.2" rx="21.4" ry="40.8"/>
<path class="st12" d="M930,633.9c-2.3-1-4.5-2.4-6.3-4.2c-14.9,7.1-27,15.4-36.2,24.3c3.8,4.7,8.2,9,13,12.8
	C907.1,655.2,917,644.1,930,633.9z"/>
<path class="st12" d="M919.1,632.7c-5.3,0.4-8.9,8.7-8.1,18.6s7,33.9,12.2,33.5s7.6-25.2,6.9-35S924.3,632.3,919.1,632.7z"/>
<path class="st0" d="M1030.1,22.1c0,0-22.9,2.6-36.6,12.9c-14.7,11-23.7,33.6-23.7,33.6s24.3-4,38.5-15.4
	C1020.9,43.1,1030.1,22.1,1030.1,22.1z"/>
<path class="st0" d="M1106.8,70.3c0,0-15.3-22.2-33.6-32.6c-19.6-11.2-48.1-12.7-48.1-12.7s17.6,23.2,37.3,33.7
	C1079.9,68,1106.8,70.3,1106.8,70.3z"/>
<path d="M1002.7,596.7c-0.6-1.6-1.2-3.2-1.8-4.8c-17.8-47.7-39.9-89-64.7-120.5c10.8-18.1,23.4-31.8,37.6-40.9
	c21.6,47.9,38.7,102.9,49.9,160.9c0.1,0.5,0.2,1.1,0.3,1.6C1016.8,593.6,1009.8,595.4,1002.7,596.7z"/>
<path class="st8" d="M1098,114.5c0,0-12.7-13.2-23.8-13.4c-11.9-0.3-25.3,13.4-25.3,13.4s14,12.9,25.7,12.5
	C1085.1,126.7,1098,114.5,1098,114.5z"/>
<path class="st23" d="M1098,114.5c0,0-12.7-13.2-23.8-13.4c-11.9-0.3-25.3,13.4-25.3,13.4C1065.1,111.3,1081.8,111.3,1098,114.5
	L1098,114.5z"/>
<path class="st15" d="M1049,114c5.3-0.9,10.6-1.4,15.9-1.6c2.4-0.1,5-0.1,9.3,0c5.7,0.2,13.9,0.5,24,1.6c0,0-5.8-0.6-14-1.1
	c-3.8-0.2-7.2-0.4-10-0.4"/>
<path class="st14" d="M1091.3,113c3.5-4.9,2.8-11.6-1.6-15.6"/>
<path class="st14" d="M1094.5,113c1.6-2.1,2.3-4.7,2.1-7.3c-0.3-2.8-1.6-5.5-3.8-7.3"/>
<path class="st14" d="M1070.8,112.4c4-5.4,3.2-13-1.9-17.4"/>
<path class="st14" d="M1074.8,112.4c4-5.4,3.2-13-1.9-17.4"/>
<path class="st14" d="M1077.9,112.4c4-5.4,3.2-13-1.9-17.4"/>
<path class="st14" d="M1081.7,112.4c4-5.4,3.2-13-1.9-17.4"/>
<path class="st14" d="M1084.8,112.4c4-5.4,3.2-13-1.9-17.4"/>
<path class="st14" d="M1088.5,113c1.8-2.4,2.7-5.3,2.5-8.3c-0.3-3.2-1.9-6.2-4.4-8.3"/>
<path class="st14" d="M1057.9,112.9c2.5-4.8,0.9-10.7-3.7-13.6"/>
<path class="st14" d="M1061.5,113c1.6-2.3,2.2-5.1,1.7-7.8c-0.8-2.9-2.8-5.4-5.5-6.9"/>
<path class="st14" d="M1065.1,113c1.4-2.7,1.8-5.7,1-8.7c-0.9-3.1-2.9-5.8-5.7-7.5"/>
<path class="st14" d="M1067.3,112.4c4-5.4,3.2-13-1.9-17.4"/>
<path class="st14" d="M1055.6,113.2c0.7-2.1,0.7-4.5-0.2-6.5c-1-2.2-2.8-4-5.1-4.9"/>
<ellipse class="st15" cx="1080.7" cy="119" rx="4.7" ry="5.6"/>
<path class="st8" d="M1038.8,114.5c0,0-12.7-13.2-23.8-13.4c-11.9-0.3-25.3,13.4-25.3,13.4s14,12.9,25.7,12.5
	C1025.9,126.7,1038.8,114.5,1038.8,114.5z"/>
<path class="st23" d="M1038.8,114.5c0,0-12.7-13.2-23.8-13.4c-11.9-0.3-25.3,13.4-25.3,13.4C1005.9,111.3,1022.6,111.3,1038.8,114.5
	L1038.8,114.5z"/>
<path class="st15" d="M989.8,114c5.3-0.9,10.6-1.4,15.9-1.6c2.4-0.1,5-0.1,9.3,0c5.7,0.2,13.9,0.5,24,1.6c0,0-5.8-0.6-14-1.1
	c-3.8-0.2-7.2-0.4-10-0.4"/>
<path class="st14" d="M998.4,113c-3.5-4.9-2.8-11.6,1.6-15.6"/>
<path class="st14" d="M995.3,113c-1.6-2.1-2.3-4.7-2.1-7.3c0.3-2.8,1.6-5.5,3.8-7.3"/>
<path class="st14" d="M1019,112.4c-4-5.4-3.2-13,1.9-17.4"/>
<path class="st14" d="M1015,112.4c-4-5.4-3.2-13,1.9-17.4"/>
<path class="st14" d="M1011.8,112.4c-4-5.4-3.2-13,1.9-17.4"/>
<path class="st14" d="M1008.1,112.4c-4-5.4-3.2-13,1.9-17.4"/>
<path class="st14" d="M1005,112.4c-4-5.4-3.2-13,1.9-17.4"/>
<path class="st14" d="M1001.3,113c-1.8-2.4-2.7-5.3-2.5-8.3c0.3-3.2,1.9-6.2,4.4-8.3"/>
<path class="st14" d="M1031.8,112.9c-2.4-4.8-0.9-10.7,3.7-13.6"/>
<path class="st14" d="M1028.3,113c-1.6-2.3-2.2-5.1-1.7-7.8c0.8-2.9,2.8-5.4,5.5-6.9"/>
<path class="st14" d="M1024.7,113c-1.4-2.7-1.8-5.7-1-8.7c0.9-3.1,2.9-5.8,5.7-7.5"/>
<path class="st14" d="M1022.4,112.4c-4-5.4-3.2-13,1.9-17.4"/>
<path class="st14" d="M1034.1,113.2c-0.7-2.1-0.7-4.5,0.2-6.5c1-2.2,2.8-4,5.1-4.9"/>
<ellipse class="st15" cx="1021.5" cy="119" rx="4.7" ry="5.6"/>
<line class="st17" x1="923.7" y1="365.3" x2="922.9" y2="359"/>
<polygon class="st24" points="922.4,354.7 920.8,357.7 919.3,360.6 923,360.4 926.7,360.2 924.5,357.5 "/>
<ellipse transform="matrix(0.8783 -0.4781 0.4781 0.8783 -71.4908 491.6243)" class="st25" cx="930" cy="386.3" rx="18.9" ry="8"/>
<ellipse transform="matrix(0.4653 -0.8852 0.8852 0.4653 156.9835 1019.3079)" class="st25" cx="922.2" cy="379.7" rx="18.1" ry="8.4"/>
<line class="st17" x1="926.5" y1="401.2" x2="925.2" y2="391.3"/>
<line class="st17" x1="922.4" y1="398.5" x2="925.6" y2="395.1"/>
<line class="st17" x1="923.5" y1="403.5" x2="926.4" y2="400.3"/>
<line class="st17" x1="930.2" y1="402.7" x2="926.5" y2="400.5"/>
<line class="st17" x1="929.9" y1="400.2" x2="926.2" y2="397.9"/>
<line class="st17" x1="929.3" y1="397.3" x2="925.6" y2="395"/>
<line class="st17" x1="922.8" y1="401.1" x2="926" y2="397.7"/>
<path class="st1" d="M964.9,348.8c-2,1.5-3.7,3.2-5.2,5.2c-2.7,3.4-3.4,7.9-2.1,11.9c4.2,8.8,14.2,14.5,18.6,13.8
	c5.1-1,6.4-9.2,6.7-21.1c0.4-12.7-8.2-16.7-14.3-12.3"/>
<path class="st26" d="M959.3,354.6c-2.3,3.3-2.9,7.4-1.7,11.2c4.1,8.9,14.1,14.7,18.4,14c5.1-0.9,6.5-9.1,6.9-21c0-0.4,0-0.8,0-1.2"
	/>
<g>
	<path class="st20" d="M1195.5,46.5c23.9,8.8,46.2,17.6,66.3,31c1.3-3,2.6-6,3.9-9.1c-20.7-12-43.5-19.9-68.1-28.1
		C1196.9,42.4,1196.2,44.5,1195.5,46.5z"/>
	<path class="st21" d="M1195.7,47.8c9.9,2.7,19.3,5.8,28.1,10.8c0.9-2.9,1.7-6,2.7-9.2c-9-3.7-18.5-6-28.4-7.9
		C1197.2,43.8,1196.5,45.9,1195.7,47.8z"/>

		<ellipse transform="matrix(0.5105 -0.8599 0.8599 0.5105 555.9841 1121.6086)" class="st22" cx="1263.2" cy="72.5" rx="5.1" ry="1.3"/>
	<path class="st1" d="M1232.4,68.9c2.1-1.4,3.9-3,5.6-4.9c2.9-3.2,4-7.6,2.9-11.8c-3.6-9.1-13.2-15.4-17.6-15
		c-5.1,0.6-7,8.7-8.1,20.6c-1.2,12.6,7.1,17.2,13.5,13.3"/>
	<path class="st1" d="M1199.1,175.5c-39.1,28.5-85.8,44.8-134.2,46.8c1.6,6.6,3.2,13.1,4.8,19.7c49.6-4.5,96.7-23.7,135.4-54.9
		L1199.1,175.5z"/>
	<path class="st1" d="M1190.7,187.4c4.7,0.3,9.3,0.7,13.8,1.1c11.2-38.7,18.8-78.4,22.8-118.6c-3.1-1.5-6.3-3-9.5-4.3
		C1211.4,118,1200.5,158.1,1190.7,187.4z"/>
</g>
<path class="st0" d="M474,582.7c14.4-66.8,13.2,54.9,29.8,0.8c16.6-54.1,28.7,23.1,36.7,1s46.8-28.9,42.9,1.2s21.6,45.4,31.7,0.9
	s32.1,72.6,32.3,0.9s38.1,41.8,38.1,1.1s16.2-6.7,16.5-15.6l13.1-469.2C716.6,51.8,677.7,7.6,626,2.5c-4.3-0.4-8.7,1-11.9,3.8
	l-10.4,8.9c-4.6,3.9-11,5-16.6,2.7L546,1.1c-2-0.8-4.2-1.2-6.3-1.2c-36.7,0.8-66.3,30.2-67.3,66.9l-14,499.4
	C458.2,575,459.7,649.5,474,582.7z"/>
<path class="st1" d="M689.5,120.1c2.9,7.2-0.7,16.2-9.2,19.5c-8.5,3.1-13.4-5.9-10.5-18.2c2.8-12.3,5.5-20.4,9.1-18.7
	C682.5,104.5,686.5,112.6,689.5,120.1z"/>
<ellipse class="st2" cx="679.7" cy="172.2" rx="21.4" ry="40.8"/>
<path d="M595.4,194.4l-5.8,0.8c-42,6.2-78.3,36.2-84.1,64.3c-9.5,49.8-36.3,95.5-57.5,139.1c-5.9,12.3,4,30.3,23.8,49.3
	c19.9,18.6,49.7,38.3,86.8,44.4c3.4,0.6,6.9,1.1,10.4,1.6c75.2,10.8,135.4-39.4,130.4-71.4c-7.5-58-26.8-111.9-34.1-171.1
	C659.9,216.7,636.7,188.3,595.4,194.4z"/>
<path class="st1" d="M602.8,676.5c-3.1-2.2-6.7-3.7-10.4-4.5c-19.8-81.7-51.2-152.6-89.1-200.6c10.8-18.1,23.4-31.8,37.6-40.9
	C572.8,501.3,594.8,587.7,602.8,676.5z"/>
<path class="st1" d="M486.7,642.1c0.7-2.7,0.7-5.4,0.2-8.1c52.7-53.8,94.4-108.4,117.9-154.6c16-3.5,29.4-3.7,40-0.6
	C603.3,533.7,547.8,591.2,486.7,642.1z"/>
<path d="M540.8,593.9c-4.5-0.4-8.1-3.5-12.2-5.3c0.9-1,1.7-2,2.6-3c31.8-37.4,57.2-73.9,73.6-106.2c16-3.5,29.4-3.7,40-0.6
	c-27.9,36.9-62.2,75.1-100.2,111.6C543.3,591.6,542.1,592.7,540.8,593.9z"/>
<line class="st3" x1="568" y1="592.5" x2="589.4" y2="584.8"/>
<path class="st1" d="M586.6,196.1c32.3,0,89.9,11.6,89.9-61.3c0-78.4-57.6-109.5-89.9-109.5s-58.4,80.1-58.4,112.4
	C528.2,169.9,554.4,196.1,586.6,196.1C586.6,196.1,586.6,196.1,586.6,196.1z"/>
<path class="st1" d="M595.4,194.4l-5.8,0.8c-42,6.2-78.3,36.2-84.1,64.3c-9.5,49.8-36.3,95.5-57.5,139.1
	c-5.9,12.3,256.4,55.8,251.3,23.9c-7.5-58-26.8-111.9-34.1-171.1C659.9,216.7,636.7,188.3,595.4,194.4z"/>
<path d="M578.5,279.3l-12.3-6.3c-3.8-2-5.3-6.6-3.3-10.4l16.9-32.7c2-3.8,6.6-5.3,10.4-3.3l12.3,6.3c3.8,2,5.3,6.6,3.3,10.4
	L589,275.9C587,279.7,582.3,281.2,578.5,279.3z"/>
<path d="M600.9,240l-3-1.5c-0.9-0.5-1.3-1.6-0.8-2.5l6.6-12.8c0.5-0.9,1.6-1.3,2.5-0.8l3,1.5c0.9,0.5,1.3,1.6,0.8,2.5l-6.6,12.8
	C603,240.1,601.9,240.5,600.9,240z"/>
<linearGradient id="SVGID_13_" gradientUnits="userSpaceOnUse" x1="2096.8145" y1="-243.4787" x2="2096.8145" y2="-224.3948" gradientTransform="matrix(-0.8885 -0.4589 0.4589 -0.8885 2558.3818 1000.1632)">
	<stop  offset="0" style="stop-color:#656565"/>
	<stop  offset="0.618" style="stop-color:#1B1B1B"/>
	<stop  offset="0.629" style="stop-color:#545454"/>
	<stop  offset="0.983" style="stop-color:#3E3E3E"/>
</linearGradient>
<path class="st36" d="M576.2,247.1l6-11.6c0.8-1.5,2.6-2,4-1.3l12.3,6.3c1.5,0.8,2,2.6,1.3,4l-6,11.6c-0.8,1.5-2.6,2-4,1.3
	l-12.3-6.3C576,250.3,575.5,248.5,576.2,247.1z"/>
<linearGradient id="SVGID_14_" gradientUnits="userSpaceOnUse" x1="2096.8145" y1="-243.4787" x2="2096.8145" y2="-224.3948" gradientTransform="matrix(-0.8885 -0.4589 0.4589 -0.8885 2558.3818 1000.1632)">
	<stop  offset="0" style="stop-color:#0E0E0E"/>
	<stop  offset="0.5" style="stop-color:#000000"/>
	<stop  offset="0.521" style="stop-color:#010101"/>
	<stop  offset="0.726" style="stop-color:#0B0B0B"/>
	<stop  offset="1" style="stop-color:#0E0E0E"/>
</linearGradient>
<path class="st37" d="M576.2,247.1l6-11.6c0.8-1.5,2.6-2,4-1.3l12.3,6.3c1.5,0.8,2,2.6,1.3,4l-6,11.6c-0.8,1.5-2.6,2-4,1.3
	l-12.3-6.3C576,250.3,575.5,248.5,576.2,247.1z"/>
<linearGradient id="SVGID_15_" gradientUnits="userSpaceOnUse" x1="2086.9055" y1="-233.9368" x2="2106.7234" y2="-233.9368" gradientTransform="matrix(-0.8885 -0.4589 0.4589 -0.8885 2558.3818 1000.1632)">
	<stop  offset="0" style="stop-color:#FFFFFF;stop-opacity:0.77"/>
	<stop  offset="0.203" style="stop-color:#FFFFFF;stop-opacity:0.65"/>
	<stop  offset="0.345" style="stop-color:#FFFFFF;stop-opacity:0.65"/>
	<stop  offset="0.346" style="stop-color:#FFFFFF;stop-opacity:0.65"/>
	<stop  offset="0.422" style="stop-color:#FFFFFF;stop-opacity:0.619"/>
	<stop  offset="0.54" style="stop-color:#FFFFFF;stop-opacity:0.532"/>
	<stop  offset="0.686" style="stop-color:#FFFFFF;stop-opacity:0.391"/>
	<stop  offset="0.851" style="stop-color:#FFFFFF;stop-opacity:0.198"/>
	<stop  offset="1" style="stop-color:#FFFFFF;stop-opacity:0"/>
	<stop  offset="1" style="stop-color:#7E7E7E;stop-opacity:9.100000e-02"/>
	<stop  offset="1" style="stop-color:#1B1B1B;stop-opacity:0.16"/>
</linearGradient>
<path class="st38" d="M576.2,247.1l6-11.6c0.8-1.5,2.6-2,4-1.3l12.3,6.3c1.5,0.8,2,2.6,1.3,4l-6,11.6c-0.8,1.5-2.6,2-4,1.3
	l-12.3-6.3C576,250.3,575.5,248.5,576.2,247.1z"/>
<g class="st7">
	<path class="st8" d="M591.2,257.1c-2.7-0.7-5.3-2.4-7.8-3.7c-1.6-0.8-6.6-2.4-7-4.5c-0.5-2.2,2.7-6.1,3.6-7.9
		c1-1.9,2.3-6.4,4.9-6.5c2.4,0,5.7,2.6,7.8,3.7c1.6,0.8,6.6,2.4,7,4.5s-2.7,6.2-3.6,7.9C595,252.8,593.9,256.5,591.2,257.1
		c0,0,0,0.7,0,0.7c2.7-0.5,3.6-3.9,4.7-6.1c1.2-2.3,3.1-4.9,3.8-7.5c0.9-3.6-3.2-4.8-5.8-6.1c-2.4-1.2-5.1-3.2-7.7-4
		c-3.3-1-4.2,2.2-5.4,4.6c-1.4,2.7-4.6,6.6-4.5,9.8c0.1,2.8,3.9,3.9,6,5c2.8,1.5,5.8,3.5,8.9,4.3
		C591.1,257.8,591.2,257.1,591.2,257.1z"/>
</g>
<path class="st9" d="M576.2,247.1l6-11.6c0.8-1.5,2.6-2,4-1.3l12.3,6.3c1.5,0.8,2,2.6,1.3,4l-6,11.6c-0.8,1.5-2.6,2-4,1.3l-12.3-6.3
	C576,250.3,575.5,248.5,576.2,247.1z"/>
<g class="st10">
	<path d="M577.5,251.2l10,5.2c1.3,0.7,2.9,1.9,4.5,1.4s2.2-2.4,2.9-3.8c1.5-2.9,3.9-6.1,4.8-9.3c0.5-1.8,0.5-2.8-1.3-4.2
		c-2.8-2.2-6.9-3.6-10-5.2c-3.3-1.7-5.2-1.7-7.1,1.8c-1.7,3-4.2,6.6-5.1,10C575.7,248.8,575.7,249.7,577.5,251.2c0,0,0-0.1,0-0.1
		c-3.2-2.6,0.1-6.6,1.5-9.3c1-2,2.1-5.7,4-7.2c2.3-1.9,6.1,1.1,8.2,2.2c2.3,1.2,5.3,2.2,7.4,3.8c3.1,2.4,0.3,5.9-1.1,8.5
		c-1.1,2.2-2.3,6.4-4.4,8c-2.3,1.8-5.7-0.9-7.8-2l-7.8-4C577.5,251,577.5,251.1,577.5,251.2z"/>
</g>
<ellipse cx="610.3" cy="392.5" rx="1.5" ry="2.9"/>
<ellipse class="st11" cx="609.4" cy="402.3" rx="5.7" ry="6.8"/>
<path class="st12" d="M476.2,335.9c11-22.4,20.4-45.6,25.4-69.8c4.7-22.9,11-24,14.6-25.8c26.2-13.1,66.2,44.8,105.3,33.5
	c22.7-6.6,36.5-34.1,42.9-30.3c1.4,0.8,2.6,5.4,3.8,14.8c0.5,3.5,1,7,1.5,10.4c6.9,3.1,13.3,7.2,19,12.1c6.7,6.3,11,14.7,12.2,23.8
	c-1.7,2.5-4,4.6-6.7,6c-4.5,2.1-9.8,2.3-15.9,0.8c3,12.5,6.2,24.9,9.3,37.3C694.1,373.6,465.2,358.4,476.2,335.9z"/>
<path class="st1" d="M423.1,295.5c-0.1-0.1-0.2-0.2-0.3-0.4c0.3-0.2,64.2-58.6,109-74.8c1.8,5.2,3.4,10.2,4.8,15.2
	c-39.8,15.1-70.1,44-90.4,61.7c5.7,3.5,11.7,6.9,17,10.1c12.1,7,21.2,12.6,28,16.8c13.4,8.5,19.2,12.6,45,21.8
	c-0.7,0.9-2,1.7-2.1,2.9c-10.6-2.8-26.7-8-39.5-12.4c-10.3-3.5-20.4-7.4-30.3-11.9c-11.1-5.2-16.7-9.6-29.9-17.8
	C434.1,307,422.4,296.6,423.1,295.5z"/>
<path class="st13" d="M602.4,87.7c0,0-2.7-8.5-21.6-8.5s-21.6,8.5-21.6,8.5c0-5.9,9.7-10.7,21.6-10.7S602.4,81.8,602.4,87.7z"/>
<path class="st13" d="M661.6,89.6c0,0-2.7-8.5-21.6-8.5s-21.6,8.5-21.6,8.5c0-5.9,9.7-10.7,21.6-10.7S661.6,83.8,661.6,89.6z"/>
<path class="st14" d="M605.8,138c-0.7-6.5,3.9-10.1,7.5-9.4c3.3,0.6,7.3,5.2,7.2,10.8"/>
<ellipse class="st15" cx="610.8" cy="138.2" rx="1.5" ry="1.4"/>
<ellipse class="st15" cx="616.6" cy="138.2" rx="1.5" ry="1.4"/>
<path class="st16" d="M634,167c-1-1.7-5-8-11.5-11.9c-2.2-1.4-3.8-3.3-5.6-2.4c-2.5,1.2-3.1,5.8-4.8,5.6c-1.7-0.2-1.9-4.7-4.2-5.9
	c-1.6-0.8-3.1,0.8-4.3,1.4c-8.1,3.6-13.1,11.6-14.1,13.3c0.7,1.5,9.1,18.8,23.3,18C625.7,184.2,633.1,169,634,167z"/>
<path class="st17" d="M589.4,167.2h44.6"/>
<path class="st12" d="M602.4,665.9c-3.6,0.9-7.3,1.5-11,1.6c-2.2,14.4-3.2,28.9-3.1,43.5c5.7,1.5,11.5,2,17.4,1.7
	C606,697,604.9,681.3,602.4,665.9z"/>
<path class="st12" d="M594.3,671.2c-3.8,4.4,0.1,13.9,8.6,21.1s32.7,21.7,36.5,17.2s-14.3-26-22.8-33.3S598,666.8,594.3,671.2z"/>
<path class="st18" d="M645.2,292.1c0.3,0.2,2.9,5.7,3.1,6.1c1.8,3.6,10.8,11.9,27.6,13.2c0.8,0.3,1.6,0.6,2.4,0.8"/>
<path class="st19" d="M540.4,301.8c0.4,0.3,0.8,0.5,1.2,0.7c13.8,6.3,50.9,25.9,58.8,12.8c3.4-6.4,1.2-16.3-3.5-26.1"/>
<path class="st1" d="M517.6,119.1c-2.9,7.2,0.7,16.2,9.2,19.5c8.5,3.1,13.4-5.9,10.5-18.2c-2.8-12.3-5.5-20.4-9.1-18.7
	C524.6,103.6,520.6,111.7,517.6,119.1z"/>
<ellipse class="st2" cx="526.3" cy="170.2" rx="21.4" ry="40.8"/>
<path class="st12" d="M497,633.9c-2.3-1-4.5-2.4-6.3-4.2c-14.9,7.1-27,15.4-36.2,24.3c3.8,4.7,8.2,9,13,12.8
	C474.1,655.2,484,644.1,497,633.9z"/>
<path class="st12" d="M486.1,632.7c-5.3,0.4-8.9,8.7-8.1,18.6s7,33.9,12.2,33.5s7.6-25.2,6.9-35S491.3,632.3,486.1,632.7z"/>
<path class="st0" d="M597.1,22.1c0,0-22.9,2.6-36.6,12.9c-14.7,11-23.7,33.6-23.7,33.6s24.3-4,38.5-15.4
	C587.9,43.1,597.1,22.1,597.1,22.1z"/>
<path class="st0" d="M673.8,70.3c0,0-15.3-22.2-33.6-32.6C620.6,26.5,592.1,25,592.1,25s17.6,23.2,37.3,33.7
	C646.9,68,673.8,70.3,673.8,70.3z"/>
<path d="M569.7,596.7c-0.6-1.6-1.2-3.2-1.8-4.8c-17.8-47.7-39.9-89-64.7-120.5c10.8-18.1,23.4-31.8,37.6-40.9
	c21.6,47.9,38.7,102.9,49.9,160.9c0.1,0.5,0.2,1.1,0.3,1.6C583.8,593.6,576.8,595.4,569.7,596.7z"/>
<path class="st8" d="M665,114.5c0,0-12.7-13.2-23.8-13.4c-11.9-0.3-25.3,13.4-25.3,13.4s14,12.9,25.7,12.5
	C652.1,126.7,665,114.5,665,114.5z"/>
<path class="st23" d="M665,114.5c0,0-12.7-13.2-23.8-13.4c-11.9-0.3-25.3,13.4-25.3,13.4C632.1,111.3,648.8,111.3,665,114.5
	L665,114.5z"/>
<path class="st15" d="M616,114c5.3-0.9,10.6-1.4,15.9-1.6c2.4-0.1,5-0.1,9.3,0c5.7,0.2,13.9,0.5,24,1.6c0,0-5.8-0.6-14-1.1
	c-3.8-0.2-7.2-0.4-10-0.4"/>
<path class="st14" d="M658.3,113c3.5-4.9,2.8-11.6-1.6-15.6"/>
<path class="st14" d="M661.5,113c1.6-2.1,2.3-4.7,2.1-7.3c-0.3-2.8-1.6-5.5-3.8-7.3"/>
<path class="st14" d="M637.8,112.4c4-5.4,3.2-13-1.9-17.4"/>
<path class="st14" d="M641.8,112.4c4-5.4,3.2-13-1.9-17.4"/>
<path class="st14" d="M644.9,112.4c4-5.4,3.2-13-1.9-17.4"/>
<path class="st14" d="M648.7,112.4c4-5.4,3.2-13-1.9-17.4"/>
<path class="st14" d="M651.8,112.4c4-5.4,3.2-13-1.9-17.4"/>
<path class="st14" d="M655.5,113c1.8-2.4,2.7-5.3,2.5-8.3c-0.3-3.2-1.9-6.2-4.4-8.3"/>
<path class="st14" d="M624.9,112.9c2.5-4.8,0.9-10.7-3.7-13.6"/>
<path class="st14" d="M628.5,113c1.6-2.3,2.2-5.1,1.7-7.8c-0.8-2.9-2.8-5.4-5.5-6.9"/>
<path class="st14" d="M632.1,113c1.4-2.7,1.8-5.7,1-8.7c-0.9-3.1-2.9-5.8-5.7-7.5"/>
<path class="st14" d="M634.3,112.4c4-5.4,3.2-13-1.9-17.4"/>
<path class="st14" d="M622.6,113.2c0.7-2.1,0.7-4.5-0.2-6.5c-1-2.2-2.8-4-5.1-4.9"/>
<ellipse class="st15" cx="647.7" cy="119" rx="4.7" ry="5.6"/>
<path class="st8" d="M605.8,114.5c0,0-12.7-13.2-23.8-13.4c-11.9-0.3-25.3,13.4-25.3,13.4s14,12.9,25.7,12.5
	C592.9,126.7,605.8,114.5,605.8,114.5z"/>
<path class="st23" d="M605.8,114.5c0,0-12.7-13.2-23.8-13.4c-11.9-0.3-25.3,13.4-25.3,13.4C572.9,111.3,589.6,111.3,605.8,114.5
	L605.8,114.5z"/>
<path class="st15" d="M556.8,114c5.3-0.9,10.6-1.4,15.9-1.6c2.4-0.1,5-0.1,9.3,0c5.7,0.2,13.9,0.5,24,1.6c0,0-5.8-0.6-14-1.1
	c-3.8-0.2-7.2-0.4-10-0.4"/>
<path class="st14" d="M565.4,113c-3.5-4.9-2.8-11.6,1.6-15.6"/>
<path class="st14" d="M562.3,113c-1.6-2.1-2.3-4.7-2.1-7.3c0.3-2.8,1.6-5.5,3.8-7.3"/>
<path class="st14" d="M586,112.4c-4-5.4-3.2-13,1.9-17.4"/>
<path class="st14" d="M582,112.4c-4-5.4-3.2-13,1.9-17.4"/>
<path class="st14" d="M578.8,112.4c-4-5.4-3.2-13,1.9-17.4"/>
<path class="st14" d="M575.1,112.4c-4-5.4-3.2-13,1.9-17.4"/>
<path class="st14" d="M572,112.4c-4-5.4-3.2-13,1.9-17.4"/>
<path class="st14" d="M568.3,113c-1.8-2.4-2.7-5.3-2.5-8.3c0.3-3.2,1.9-6.2,4.4-8.3"/>
<path class="st14" d="M598.8,112.9c-2.4-4.8-0.9-10.7,3.7-13.6"/>
<path class="st14" d="M595.3,113c-1.6-2.3-2.2-5.1-1.7-7.8c0.8-2.9,2.8-5.4,5.5-6.9"/>
<path class="st14" d="M591.7,113c-1.4-2.7-1.8-5.7-1-8.7c0.9-3.1,2.9-5.8,5.7-7.5"/>
<path class="st14" d="M589.4,112.4c-4-5.4-3.2-13,1.9-17.4"/>
<path class="st14" d="M601.1,113.2c-0.7-2.1-0.7-4.5,0.2-6.5c1-2.2,2.8-4,5.1-4.9"/>
<ellipse class="st15" cx="588.5" cy="119" rx="4.7" ry="5.6"/>
<line class="st17" x1="490.7" y1="365.3" x2="489.9" y2="359"/>
<polygon class="st24" points="489.4,354.7 487.8,357.7 486.3,360.6 490,360.4 493.7,360.2 491.5,357.5 "/>
<ellipse transform="matrix(0.8783 -0.4781 0.4781 0.8783 -124.1801 284.6162)" class="st25" cx="497" cy="386.3" rx="18.9" ry="8"/>
<ellipse transform="matrix(0.4653 -0.8852 0.8852 0.4653 -74.539 636.0363)" class="st25" cx="489.2" cy="379.7" rx="18.1" ry="8.4"/>
<line class="st17" x1="493.5" y1="401.2" x2="492.2" y2="391.3"/>
<line class="st17" x1="489.4" y1="398.5" x2="492.6" y2="395.1"/>
<line class="st17" x1="490.5" y1="403.5" x2="493.4" y2="400.3"/>
<line class="st17" x1="497.2" y1="402.7" x2="493.5" y2="400.5"/>
<line class="st17" x1="496.9" y1="400.2" x2="493.2" y2="397.9"/>
<line class="st17" x1="496.3" y1="397.3" x2="492.6" y2="395"/>
<line class="st17" x1="489.8" y1="401.1" x2="493" y2="397.7"/>
<path class="st1" d="M531.9,348.8c-2,1.5-3.7,3.2-5.2,5.2c-2.7,3.4-3.4,7.9-2.1,11.9c4.2,8.8,14.2,14.5,18.6,13.8
	c5.1-1,6.4-9.2,6.7-21.1c0.4-12.7-8.2-16.7-14.3-12.3"/>
<path class="st26" d="M526.3,354.6c-2.3,3.3-2.9,7.4-1.7,11.2c4.1,8.9,14.1,14.7,18.4,14c5.1-0.9,6.5-9.1,6.9-21c0-0.4,0-0.8,0-1.2"
	/>
<g>
	<path class="st20" d="M764.6,57.6c24.6,6.8,47.5,13.7,68.6,25.4c1-3.1,2-6.2,3.1-9.4c-21.6-10.2-45.1-16.2-70.2-22.3
		C765.6,53.4,765.1,55.5,764.6,57.6z"/>
	<path class="st21" d="M764.9,59c10.1,1.8,19.7,4.2,29,8.4c0.6-3,1.2-6.1,1.9-9.3c-9.3-3-18.9-4.4-29-5.5
		C766.1,54.8,765.5,56.9,764.9,59z"/>
	<path class="st1" d="M800.5,75.3c2-1.5,3.7-3.3,5.1-5.3c2.6-3.4,3.3-7.9,1.9-12c-4.4-8.8-14.5-14.3-18.8-13.5
		c-5,1.1-6.3,9.3-6.3,21.2c-0.2,12.7,8.5,16.6,14.5,12.1"/>
	<path class="st1" d="M777.2,186.2c-42.3,23.5-90.7,33.8-138.9,29.8c0.8,6.7,1.6,13.4,2.3,20.1c49.7,1.6,98.8-11.6,141.1-37.8
		L777.2,186.2z"/>
	<path class="st1" d="M770.5,198.2c4.7-0.1,9.3-0.1,13.9,0c7.9-39.5,12.2-79.7,12.8-120.1c-3.2-1.2-6.5-2.4-9.8-3.5
		C785.4,127.3,777.9,168.2,770.5,198.2z"/>

		<ellipse transform="matrix(0.4373 -0.8993 0.8993 0.4373 399.3976 794.0114)" class="st22" cx="834.2" cy="77.9" rx="5.1" ry="1.3"/>
</g>
</svg>
