<svg xmlns="http://www.w3.org/2000/svg" width="160" height="220" viewBox="0 0 160 220"><defs><style>.cls-1{fill:#c1272d;}.cls-2{fill:#eaeaea;}.cls-3{fill:none;stroke:#000;stroke-miterlimit:10;}.cls-4{fill:#fff;}</style></defs><title>Fluesvamp2</title><g id="Layer_2" data-name="Layer 2"><path class="cls-1" d="M134.17,101a415.58,415.58,0,0,1-103.95,7c-6.65-.39-10.86-7.09-9.4-14.66s2.83-15.21,4.25-22.82C33.92,30.17,59.68,1.07,82.21,6.7h0c22.52,6.51,48.26,35.59,57.12,64.22q2.13,8.61,4.25,17.21C145,93.78,140.82,99.67,134.17,101Z"/><path class="cls-2" d="M129.76,94.45C128,86.26,106.25,82,81.07,82c-25.17.23-46.95,6.65-48.8,17.21-.42,2.61,1.47,8.1,4.41,8.62,3.85.75,24.32,1.54,44.71,0a390.49,390.49,0,0,0,44.5-5.67C129.6,101.34,130.2,96.86,129.76,94.45Z"/><path class="cls-3" d="M128.06,90.2c-5.1,4.71-13.43,9.1-25,12.57"/><path class="cls-3" d="M120.09,86.23c-4.28,6.32-11.11,12.15-20.61,17.16"/><path class="cls-3" d="M110.56,84a58.45,58.45,0,0,1-14.87,19.44"/><path class="cls-3" d="M101.06,82.64c-2.39,9.3-5.66,16.93-10,21.53"/><path class="cls-3" d="M91.72,82.18c-.23,8.73-2.22,16.24-6.55,22.44"/><path class="cls-3" d="M83.1,81.92c1.32,8.9.81,16.25-1.1,22.84"/><path class="cls-3" d="M78.19,82.16C76.53,91,75.89,99,77.6,105.07"/><path class="cls-3" d="M71.68,82.15c-1.34,8.43-1,16.24,1.6,23.12"/><path class="cls-3" d="M66.24,82.51c-1.25,9.18-.11,17,4.2,23"/><path class="cls-3" d="M57.51,83.79c1,8,3.64,15.47,9,21.7"/><path class="cls-3" d="M48.71,85.72a69.34,69.34,0,0,0,14.58,19.84"/><path class="cls-3" d="M41.23,89.47c4.21,7.57,11,12.73,20.24,15.17"/><path class="cls-3" d="M33.47,96.16a34.75,34.75,0,0,0,25.11,9.28"/><path class="cls-2" d="M93.33,206.93q-12.76,3.09-25.54,5.3c-9.53,1.67-16.74-4.39-16.06-12.92q3.17-43.44,6.34-86.89c.63-8.08,5.63-15.06,12-17a41.77,41.77,0,0,1,9.16-1.8,42.72,42.72,0,0,1,12.92,1c6.27,1.47,11.16,7.38,11.72,14.64q2.84,39.54,5.68,79.09C110.14,196,102.86,204.59,93.33,206.93Z"/><path class="cls-3" d="M130.09,94.52c-5.69,4.16-14.58,7.67-26.48,9.74"/><path class="cls-3" d="M32.08,102.11a50.78,50.78,0,0,0,26.31,5.7"/><path class="cls-4" d="M120.55,52.75c.49,2.79-2.84,5.17-7.44,5.22s-8.54-2.41-8.8-5.42,3.08-5.28,7.44-5.11S120.05,50,120.55,52.75Z"/><path class="cls-4" d="M78.48,66.27c0,5.27-5.46,9.54-12.12,9.35s-11.6-5-11-10.54,6-9.56,12.11-9.1S78.51,61,78.48,66.27Z"/><path class="cls-4" d="M70.45,24.8c-.21,4.65-3.08,8.09-6.4,7.66S58.41,27.8,58.88,23s3.34-8.19,6.4-7.64S70.66,20.16,70.45,24.8Z"/><path class="cls-4" d="M133,73.19c1.23,5.62-1.36,10.74-5.79,11.34s-8.7-3.91-9.51-10,1.8-11.06,5.81-11.22S131.73,67.56,133,73.19Z"/><path class="cls-4" d="M89.92,41.44a8,8,0,0,1-8.54,8.5c-4.92-.31-8.71-4.87-8.49-10.11s4-9,8.55-8.41S89.73,36.47,89.92,41.44Z"/><path class="cls-4" d="M47,72.63a8.66,8.66,0,0,1-9.23,7.54,7.56,7.56,0,0,1-6.86-9c.8-4.57,4.91-7.86,9.22-7.41A7.88,7.88,0,0,1,47,72.63Z"/><path class="cls-4" d="M42.44,41.54c-.57,3.76,2.59,7.26,7.05,7.75s8.36-2.14,8.67-5.81-2.85-7.09-7.06-7.67S43,37.77,42.44,41.54Z"/><path class="cls-4" d="M115.61,35.46c.51,3.08-2.08,5.43-5.77,5.21s-6.92-3.1-7.2-6.39,2.3-5.58,5.77-5.15S115.1,32.38,115.61,35.46Z"/><path class="cls-4" d="M80.59,16.71c0,4.26,2.33,8.06,5.31,8.47s5.26-2.59,5.07-6.69S88.41,10.61,85.66,10,80.64,12.45,80.59,16.71Z"/><path class="cls-4" d="M105.27,67.86c.37,3.81-2.88,7.08-7.27,7.24s-8-3-8.11-7.06a7,7,0,0,1,7.28-7.13C101.28,61,104.91,64.06,105.27,67.86Z"/></g></svg>
