<svg xmlns="http://www.w3.org/2000/svg" width="150" height="220" viewBox="0 0 150 220"><defs><style>.cls-1{fill:#c1272d;}.cls-2{fill:#eaeaea;}.cls-3{fill:none;stroke:#000;stroke-miterlimit:10;}.cls-4{fill:#fff;}</style></defs><title>Fluesvamp3</title><g id="Layer_2" data-name="Layer 2"><path class="cls-1" d="M126.49,84.63c-34.28-20.37-68.56,51-102.84,30.67C17,111.51,12.8,98,14.24,90.58S17.05,75.5,18.46,68C22.24,47.75,31.64,39.68,41.8,30,52.16,21.21,63.29,10.8,75.07,4.76h0c11.78-6,22.91-2.18,33.26,12,10.17,13.34,19.56,37,23.34,51.65q2.12,8.53,4.22,17.06C137.33,91.16,133.11,88.42,126.49,84.63Z"/><path class="cls-2" d="M122.11,76.46c-.76-3.44-6.76-10.81-15.45-12-8.74-1.7-20.17,2.74-32.71,12S50,93.18,41.21,96.78c-8.72,4.07-14.75,4.26-15.54,10-.41,2.64,1.47,9.57,4.4,10.77a24.5,24.5,0,0,0,16-.14c8.05-2.34,18.13-9.55,28.19-16.91S94.39,85.64,102.4,82.82c8-3.27,14-1.86,15.86-1.78C121.94,81.78,122.54,78.74,122.11,76.46Z"/><path class="cls-3" d="M120.42,72c-5.07,1.06-13.33,3.09-24.78,11.23"/><path class="cls-3" d="M112.52,65.78c-4.25,4.63-11,10.28-20.39,19.65"/><path class="cls-3" d="M103.08,63.71a155.77,155.77,0,0,1-14.7,23.76"/><path class="cls-3" d="M93.69,65.31C91.33,75,88.1,83.84,83.86,90.8"/><path class="cls-3" d="M84.47,69.74A59.87,59.87,0,0,1,78,95"/><path class="cls-3" d="M76,75a52.36,52.36,0,0,1-1.08,22.25"/><path class="cls-3" d="M79.67,81.91h0"/><path class="cls-3" d="M71.11,78.52c-1.64,9.45-2.27,17.39-.57,22"/><path class="cls-3" d="M64.68,82.76c-1.32,8.8-1,16,1.59,20.8"/><path class="cls-3" d="M59.31,86.34c-1.23,9.38-.09,16.33,4.16,19.3"/><path class="cls-3" d="M50.68,91.67c.94,7.42,3.61,13.54,8.93,16.3"/><path class="cls-3" d="M42,95.76c3.48,6.86,8.32,11.81,14.43,14.09"/><path class="cls-3" d="M34.56,99.41c4.19,8.56,10.95,12.92,20,10.52"/><path class="cls-3" d="M26.87,104.09c6.62,9.74,15,12.8,24.89,8"/><path class="cls-2" d="M86,186.15c-8.37,7.15-16.75,15-25.13,21.92-9.38,7.94-16.51,5.62-15.84-2.91q3.11-43.09,6.2-86.17c.62-8,5.55-16.86,11.81-22.71,2.71-2.51,5.73-5.17,9-7.68a53.45,53.45,0,0,1,12.75-7.47c6.2-2.41,11,1.24,11.57,7.78q2.77,35.73,5.56,71.45C102.59,167.24,95.41,178,86,186.15Z"/><path class="cls-3" d="M122.44,76.71c-5.67-.14-14.48.86-26.24,7.71"/><path class="cls-3" d="M25.49,109.86c7.58,8.1,16.31,9.48,26.09,4.57"/><path class="cls-4" d="M113,37.27c.48,2.57-2.82,2.83-7.38,2.72s-8.46-1.08-8.71-3.83,3-5.93,7.38-5.62S112.54,34.72,113,37.27Z"/><path class="cls-4" d="M71.39,63.36c0,4.92-5.39,12.82-12,16.37S48,79.78,48.5,74.19s5.9-10.74,12-13.71S71.42,58.32,71.39,63.36Z"/><path class="cls-4" d="M63.43,29.21c-.21,4.51-3,9.46-6.33,10.44S51.52,36.91,52,32.12s3.3-8.68,6.33-9.4S63.63,24.67,63.43,29.21Z"/><path class="cls-4" d="M125.33,62.34c1.23,5.38-1.37,6.41-5.77,4.56s-8.63-6.28-9.42-11.76,1.79-9.64,5.78-7.64S124.12,57,125.33,62.34Z"/><path class="cls-4" d="M82.7,32.49C82.89,37,79.11,43,74.25,46s-8.62,1.09-8.39-4,4-11,8.45-13.46S82.51,27.91,82.7,32.49Z"/><path class="cls-4" d="M40.21,82.71c-.49,4.49-4.59,8.16-9.15,6s-7.61-9.52-6.83-14.08S29.11,70,33.38,72.1,40.71,78.13,40.21,82.71Z"/><path class="cls-4" d="M35.7,49.27c-.55,3.79,2.58,9.19,7,9.85S51,56,51.29,52.33s-2.83-6-7-6.84S36.27,45.46,35.7,49.27Z"/><path class="cls-4" d="M108.14,20.72c.5,2.81-2.07,3.84-5.72,3.73s-6.85-1.72-7.13-4.7A5.31,5.31,0,0,1,101,14.09C104.45,14.36,107.65,17.92,108.14,20.72Z"/><path class="cls-4" d="M73.47,15.26c0,4.06,2.31,6,5.26,4.47s5.2-5.71,5-9.45-2.54-5.92-5.26-4.66S73.51,11.22,73.47,15.26Z"/><path class="cls-4" d="M97.87,50c.36,3.41-2.87,7.3-7.2,9.61s-7.91,1.64-8-2.11,3.12-8.79,7.19-10.77S97.51,46.62,97.87,50Z"/></g></svg>
