<svg xmlns="http://www.w3.org/2000/svg" width="160" height="220" viewBox="0 0 160 220"><defs><style>.cls-1{fill:#c1272d;}.cls-2{fill:#eaeaea;}.cls-3{fill:none;stroke:#000;stroke-miterlimit:10;}.cls-4{fill:#fff;}</style></defs><title>Fluesvamp1</title><g id="Layer_2" data-name="Layer 2"><path class="cls-1" d="M134.21,121.79C99.06,144.05,63.9,85.65,28.75,103.4c-6.72,3.23-12.63,5.14-13.14-.14s-1-10.64-1.48-15.94c-.66-6.63.62-15.8,3.61-23.85A57,57,0,0,1,31.55,42.19c12.17-11.47,30.07-20.71,49.93-28h0c19.86-7.29,37.76-1,49.93,11a59.39,59.39,0,0,1,13.8,19.68c3,7.25,4.28,14.81,3.62,26.08q-.74,12.36-1.48,24.68C146.84,103.87,140.93,117.69,134.21,121.79Z"/><path class="cls-2" d="M131.45,114.3c.26-5.93-5.26-6.78-14.54-10.28-9.26-3.11-22.29-8.87-36.71-15.34s-27.43-8.54-36.69-5.62c-9.27,2.53-14.78,10-14.5,13.46.14,1.89,3.18,4.46,6.23,4,2-.12,8.24-1.74,16.51.43,8.26,1.79,18.59,7.38,28.92,12.83s20.64,10.74,28.87,12.11c8.22,1.76,14.36-.42,16.32-.8C129.64,123.85,131.29,117.44,131.45,114.3Z"/><path class="cls-3" d="M130.72,109c-6.47,8.24-15.76,13.75-27.86,12"/><path class="cls-3" d="M123.15,105.34c-5.92,8.71-13.91,14.33-24,14.64"/><path class="cls-3" d="M113.13,102.25c-5.35,8.84-11.29,13.9-17.81,15.8"/><path class="cls-3" d="M102.72,98.23c-3.62,9.64-7.55,15.84-12.11,17.93"/><path class="cls-3" d="M92.25,94c-.7,9.07-3.22,15.67-7.73,19.08"/><path class="cls-3" d="M82.5,89.61c1.45,9.43.72,16.46-1.22,21.65"/><path class="cls-3" d="M86.53,101.44h0"/><path class="cls-3" d="M76.94,87.47c-1.71,7.6-2,14.62-.16,21.45"/><path class="cls-3" d="M69.57,84.52c-1.07,7-.14,14.19,2.78,22.08"/><path class="cls-3" d="M63.44,82.72c-.67,7.52,1.29,14.73,6,22.56"/><path class="cls-3" d="M53.74,81.39c2,6.68,5.74,13.59,11.69,21.85"/><path class="cls-3" d="M44.21,82.26c5,5.19,11.08,11.54,17.9,19.55"/><path class="cls-3" d="M36.63,86.21c6,4,13.82,8.13,23.53,14"/><path class="cls-3" d="M29.65,93.91c8.3.25,17.32,2.66,27.61,6"/><path class="cls-2" d="M89.05,212.21,71.7,206.73c-6.41-1.91-11.85-10.89-12.09-19.58q-1.08-44-2.18-81.33c-.21-6.88,4.32-11.31,11.05-10.06a44.85,44.85,0,0,1,9.78,3.12A75.56,75.56,0,0,1,92.08,107c6.68,4.81,11.17,13.28,11,21.18q-1,42.63-2,76.12C100.88,210.77,95.46,214.13,89.05,212.21Z"/><path class="cls-3" d="M131.77,114.29c-6.82,7.74-16.28,11.94-28.48,8.58"/><path class="cls-3" d="M29.43,98.53c8.69-1.53,17.86.21,27.87,3.35"/><path class="cls-4" d="M131.68,57.58c-.17,4.07-5,9.6-10.87,10.71s-10.5-2.16-10.41-6,5-7.3,10.88-8.66S131.85,53.5,131.68,57.58Z"/><path class="cls-4" d="M77,72.53c0,5.14-6.22,6.63-13.93,4.31s-14.1-6-14.29-10,6-7.35,13.93-6.17S76.94,67.46,77,72.53Z"/><path class="cls-4" d="M64,35.71c.07,3.75-3.68,6.82-8.38,7.11S47,41.19,46.82,38.2s3.59-6.32,8.38-7.38S63.94,32,64,35.71Z"/><path class="cls-4" d="M140.79,81.05c-.43,8-4.73,18-9.61,20.36s-8.6-3.28-8.32-11.21,4.58-15.55,9.6-18S141.22,73,140.79,81.05Z"/><path class="cls-4" d="M92.13,49.2c-.06,5.74-5.32,9.52-11.74,8.33S68.71,52,68.63,47.62s5.18-8.09,11.74-8.34S92.2,43.47,92.13,49.2Z"/><path class="cls-4" d="M40,73.16c.18,3.24-3.9,6.19-9.1,8.32s-9.64,2.93-9.92-.21,3.8-8.87,9.1-11S39.84,70,40,73.16Z"/><path class="cls-4" d="M27.91,56.4c.2,2.36,5.07,2.11,10.88.93s10.44-3.28,10.33-5.89-5-4.19-10.88-2.73S27.71,54,27.91,56.4Z"/><path class="cls-4" d="M129.73,33.3c-.18,4.66-4.49,10-9.63,11.11s-9.22-2.07-9.12-6.48,4.4-8.86,9.62-10.25S129.9,28.65,129.73,33.3Z"/><path class="cls-4" d="M79,25.11c0,4.07,3.63,7.08,8.07,6.69S95.13,27,95.19,22s-3.55-8-8.07-6.69S78.94,21.06,79,25.11Z"/><path class="cls-4" d="M109.38,81.79a7.29,7.29,0,0,1-9.44,6.94c-5.09-1.28-9.19-6.21-9.16-10.43s4.26-6.75,9.44-6S109.51,77,109.38,81.79Z"/></g></svg>
