<svg xmlns="http://www.w3.org/2000/svg" xmlns:xlink="http://www.w3.org/1999/xlink" width="494" height="765" viewBox="0 0 494 765"><defs><style>.cls-1{isolation:isolate;}.cls-2{fill:#efcc57;}.cls-13,.cls-3{fill:#c69c6d;}.cls-11,.cls-16,.cls-25,.cls-34,.cls-4,.cls-5{fill:none;}.cls-13,.cls-4{stroke:#f7931e;stroke-width:2px;}.cls-13,.cls-16,.cls-17,.cls-18,.cls-19,.cls-25,.cls-29,.cls-30,.cls-31,.cls-34,.cls-4{stroke-miterlimit:10;}.cls-6{fill:url(#linear-gradient);}.cls-7{opacity:0.51;fill:url(#linear-gradient-2);}.cls-7,.cls-8,.cls-9{mix-blend-mode:screen;}.cls-8{opacity:0.7;fill:url(#linear-gradient-3);}.cls-9{opacity:0.49;}.cls-10{fill:#fff;}.cls-11{stroke:#717171;stroke-miterlimit:1;stroke-width:0.588px;}.cls-12{opacity:0.58;}.cls-14,.cls-18,.cls-19{fill:#ff7bac;}.cls-15{fill:#231f20;}.cls-16,.cls-17,.cls-19,.cls-25,.cls-29,.cls-30,.cls-34{stroke:#000;}.cls-16,.cls-17,.cls-29,.cls-30{stroke-width:0.75px;}.cls-18{stroke:#1d1d1b;}.cls-18,.cls-19,.cls-34{stroke-width:0.5px;}.cls-20{fill:#f2f2f2;}.cls-21{fill:#f9a94b;}.cls-22{fill:#f15a24;}.cls-23,.cls-31{fill:#c1272d;}.cls-24{fill:#29abe2;}.cls-26{fill:#001300;}.cls-27{fill:#ed1c24;}.cls-28{fill:#333;}.cls-29{fill:url(#linear-gradient-4);}.cls-30{fill:url(#linear-gradient-5);}.cls-31{stroke:#c1272d;}.cls-32{fill:#2e3192;}.cls-33{fill:#eaeaea;}</style><linearGradient id="linear-gradient" x1="1944.514" y1="1048.79" x2="1944.514" y2="1029.707" gradientTransform="matrix(0, -1, -1, 0, 1231.202, 2214.377)" gradientUnits="userSpaceOnUse"><stop offset="0" stop-color="#656565"/><stop offset="0.618" stop-color="#1b1b1b"/><stop offset="0.629" stop-color="#545454"/><stop offset="0.983" stop-color="#3e3e3e"/></linearGradient><linearGradient id="linear-gradient-2" x1="1944.514" y1="1048.79" x2="1944.514" y2="1029.707" gradientTransform="matrix(0, -1, -1, 0, 1231.202, 2214.377)" gradientUnits="userSpaceOnUse"><stop offset="0" stop-color="#0e0e0e"/><stop offset="0.5"/><stop offset="0.521" stop-color="#010101"/><stop offset="0.726" stop-color="#0b0b0b"/><stop offset="1" stop-color="#0e0e0e"/></linearGradient><linearGradient id="linear-gradient-3" x1="1934.605" y1="1039.249" x2="1954.423" y2="1039.249" gradientTransform="matrix(0, -1, -1, 0, 1231.202, 2214.377)" gradientUnits="userSpaceOnUse"><stop offset="0" stop-color="#fff" stop-opacity="0.77"/><stop offset="0.203" stop-color="#fff" stop-opacity="0.65"/><stop offset="0.345" stop-color="#fff" stop-opacity="0.65"/><stop offset="0.346" stop-color="#fff" stop-opacity="0.65"/><stop offset="0.422" stop-color="#fff" stop-opacity="0.619"/><stop offset="0.54" stop-color="#fff" stop-opacity="0.532"/><stop offset="0.686" stop-color="#fff" stop-opacity="0.391"/><stop offset="0.851" stop-color="#fff" stop-opacity="0.198"/><stop offset="1" stop-color="#fff" stop-opacity="0"/><stop offset="1" stop-color="#7e7e7e" stop-opacity="0.091"/><stop offset="1" stop-color="#1b1b1b" stop-opacity="0.16"/></linearGradient><linearGradient id="linear-gradient-4" x1="422.958" y1="338.878" x2="468.597" y2="338.878" gradientTransform="translate(148.961 -133.345) rotate(21.831)" gradientUnits="userSpaceOnUse"><stop offset="0" stop-color="#fff"/><stop offset="0" stop-color="#2e3192"/><stop offset="0.384" stop-color="#3f41ff"/><stop offset="0.427" stop-color="#3d3fef"/><stop offset="0.535" stop-color="#373ace"/><stop offset="0.645" stop-color="#3336b3"/><stop offset="0.757" stop-color="#3033a1"/><stop offset="0.873" stop-color="#2f3296"/><stop offset="1" stop-color="#2e3192"/></linearGradient><linearGradient id="linear-gradient-5" x1="422.985" y1="303.748" x2="468.6" y2="303.748" gradientTransform="translate(753.578 -131.4) rotate(90)" gradientUnits="userSpaceOnUse"><stop offset="0" stop-color="#fff"/><stop offset="0" stop-color="#7a76a5"/><stop offset="0" stop-color="#2e3192" stop-opacity="0.9"/><stop offset="0.029" stop-color="#2e3192" stop-opacity="0.941"/><stop offset="0.099" stop-color="#2e3192" stop-opacity="0.987"/><stop offset="0.294" stop-color="#2e3192"/><stop offset="0.904" stop-color="#2e3192"/><stop offset="1" stop-color="#2e3192"/></linearGradient></defs><title>gameover_karakter</title><g class="cls-1"><g id="Layer_1" data-name="Layer 1"><path class="cls-2" d="M77.974,606.754c14.392-66.832,13.227,54.907,29.828.833s28.708,23.117,36.732,1.026,46.766-28.906,42.928,1.2,21.559,45.448,31.675.885,32.1,72.578,32.272.9,38.067,41.765,38.051,1.063,16.249-6.737,16.5-15.6l13.107-469.238a98.972,98.972,0,0,0-89.171-101.25,15.953,15.953,0,0,0-11.948,3.835l-10.358,8.931a16.056,16.056,0,0,1-16.571,2.7l-41.07-16.829a15.878,15.878,0,0,0-6.337-1.2A68.825,68.825,0,0,0,76.322,90.888L62.374,590.257C62.126,599.12,63.581,673.586,77.974,606.754Z"/><path class="cls-3" d="M293.445,144.14c2.917,7.168-.747,16.155-9.158,19.527-8.514,3.07-13.381-5.93-10.544-18.156,2.8-12.329,5.463-20.443,9.075-18.67C286.414,128.611,290.455,136.71,293.445,144.14Z"/><ellipse class="cls-4" cx="283.62" cy="196.248" rx="21.358" ry="40.775"/><path d="M199.36,218.512l-5.782.761c-42.037,6.164-78.314,36.166-84.1,64.253-9.513,49.835-36.295,95.459-57.454,139.087-5.911,12.258,4.018,30.259,23.807,49.287,19.929,18.619,49.719,38.265,86.771,44.363q5.168.891,10.365,1.625c75.179,10.755,135.435-39.433,130.388-71.416C295.847,388.5,276.6,334.615,269.229,275.388,263.834,240.77,240.6,212.4,199.36,218.512Z"/><path class="cls-3" d="M206.7,700.564a28.283,28.283,0,0,0-10.435-4.5C176.473,614.392,145.1,543.484,107.169,495.51c10.819-18.065,23.447-31.845,37.6-40.931C176.742,525.4,198.767,611.78,206.7,700.564Z"/><path class="cls-3" d="M90.6,666.221a18.981,18.981,0,0,0,.24-8.14c52.71-53.8,94.428-108.374,117.893-154.553,15.987-3.481,29.429-3.712,39.951-.636C207.194,557.754,151.764,615.261,90.6,666.221Z"/><path d="M144.765,617.98c-4.514-.431-8.129-3.454-12.223-5.288.851-.991,1.711-1.984,2.553-2.973,31.831-37.415,57.207-73.86,73.635-106.191,15.987-3.481,29.429-3.712,39.951-.636-27.928,36.931-62.174,75.061-100.234,111.585C147.227,615.648,145.992,616.813,144.765,617.98Z"/><line class="cls-5" x1="171.974" y1="616.617" x2="193.332" y2="608.85"/><path class="cls-3" d="M190.572,220.158c32.254,0,89.9,11.563,89.9-61.258,0-78.387-57.647-109.508-89.9-109.508s-58.4,80.11-58.4,112.365A58.4,58.4,0,0,0,190.572,220.158Z"/><path class="cls-3" d="M199.36,218.512l-5.782.761c-42.037,6.164-78.314,36.166-84.1,64.253-9.513,49.835-36.295,95.459-57.454,139.087-5.911,12.258,256.378,55.842,251.331,23.859C295.847,388.5,276.6,334.615,269.229,275.388,263.834,240.77,240.6,212.4,199.36,218.512Z"/><rect x="173.638" y="250.773" width="29.33" height="52.319" rx="7.754" transform="translate(228.526 609.395) rotate(-152.684)"/><rect x="203.988" y="246.087" width="7.134" height="18.232" rx="1.886" transform="translate(274.856 577.195) rotate(-152.684)"/><rect class="cls-6" x="182.412" y="259.954" width="19.084" height="19.818" rx="3" transform="translate(-135.904 316.575) rotate(-62.684)"/><rect class="cls-7" x="182.412" y="259.954" width="19.084" height="19.818" rx="3" transform="translate(-135.904 316.575) rotate(-62.684)"/><rect class="cls-8" x="182.412" y="259.954" width="19.084" height="19.818" rx="3" transform="translate(-135.904 316.575) rotate(-62.684)"/><g class="cls-9"><path class="cls-10" d="M195.088,281.131c-2.735-.667-5.263-2.387-7.752-3.673-1.591-.822-6.576-2.371-7.044-4.512-.477-2.188,2.662-6.118,3.58-7.9.973-1.885,2.3-6.41,4.948-6.456,2.414-.042,5.74,2.635,7.751,3.673,1.6.828,6.578,2.378,7.044,4.512s-2.7,6.189-3.579,7.9c-1.158,2.241-2.177,5.945-4.948,6.455-.048.009.038.719,0,.726,2.7-.5,3.615-3.875,4.747-6.067,1.2-2.321,3.143-4.939,3.755-7.5.856-3.579-3.245-4.8-5.837-6.141-2.408-1.243-5.052-3.173-7.653-3.953-3.34-1-4.2,2.207-5.439,4.6-1.384,2.68-4.613,6.637-4.489,9.817.111,2.822,3.852,3.859,5.982,4.96,2.85,1.471,5.8,3.519,8.934,4.283C195.037,281.845,195.149,281.146,195.088,281.131Z"/></g><rect class="cls-11" x="182.412" y="259.954" width="19.084" height="19.818" rx="3" transform="translate(-135.904 316.575) rotate(-62.684)"/><g class="cls-12"><path d="M181.437,275.231l10.035,5.183c1.347.7,2.933,1.86,4.53,1.351s2.242-2.428,2.944-3.786c1.519-2.941,3.856-6.141,4.814-9.321.528-1.751.453-2.762-1.289-4.163-2.752-2.212-6.9-3.563-10.036-5.183-3.279-1.693-5.22-1.676-7.142,1.794-1.669,3.014-4.214,6.643-5.145,9.962-.5,1.766-.5,2.729,1.289,4.163-.019-.015.02-.105,0-.121-3.188-2.556.069-6.55,1.5-9.318,1.049-2.032,2.083-5.669,3.961-7.157,2.345-1.857,6.106,1.091,8.19,2.168,2.324,1.2,5.321,2.2,7.384,3.813,3.075,2.41.289,5.857-1.074,8.5-1.144,2.214-2.342,6.36-4.387,7.979-2.283,1.808-5.712-.889-7.779-1.956l-7.794-4.026C181.452,275.118,181.42,275.222,181.437,275.231Z"/></g><ellipse cx="214.205" cy="416.626" rx="1.456" ry="2.912"/><ellipse class="cls-13" cx="213.36" cy="426.334" rx="5.7" ry="6.796"/><path class="cls-14" d="M80.128,360.007c10.984-22.432,20.448-45.619,25.41-69.828,4.7-22.926,10.976-24.024,14.623-25.848,26.205-13.1,66.249,44.773,105.268,33.471,22.689-6.571,36.538-34.073,42.9-30.316,1.417.838,2.595,5.438,3.844,14.786q.7,5.232,1.535,10.407a76.844,76.844,0,0,1,19.045,12.143,39.627,39.627,0,0,1,12.23,23.753,17.663,17.663,0,0,1-6.7,5.96c-4.489,2.116-9.849,2.259-15.947.756,2.96,12.527,6.157,24.937,9.309,37.333C298.006,397.668,69.145,382.44,80.128,360.007Z"/><path class="cls-3" d="M26.98,319.55c-.113-.121-.223-.246-.337-.366.3-.223,64.19-58.6,109.006-74.767,1.8,5.153,3.4,10.226,4.787,15.179-39.82,15.075-70.121,43.985-90.384,61.663,5.736,3.474,11.689,6.932,17.036,10.083,12.065,7.019,21.222,12.573,27.985,16.843,13.385,8.491,19.243,12.561,45.049,21.833-.749.892-1.986,1.652-2.078,2.854-10.6-2.8-26.654-7.953-39.454-12.414A324.953,324.953,0,0,1,68.3,348.578c-11.081-5.238-16.68-9.641-29.855-17.781C38.059,331.083,26.367,320.66,26.98,319.55Z"/><path class="cls-15" d="M194.888,114.829s-4.139-7.859-22.732-4.469-19.713,12.208-19.713,12.208c-1.057-5.8,7.586-12.238,19.307-14.375S193.83,109.027,194.888,114.829Z"/><path class="cls-15" d="M261.907,111.451s.722-8.853-16.789-15.963-23.185-.269-23.185-.269c2.218-5.465,12.966-6.261,24-1.779S264.126,105.986,261.907,111.451Z"/><path class="cls-16" d="M209.769,162.062c-.746-6.454,3.942-10.112,7.529-9.418,3.292.637,7.274,5.249,7.246,10.8"/><ellipse class="cls-17" cx="214.691" cy="162.287" rx="1.456" ry="1.438"/><ellipse class="cls-17" cx="220.516" cy="162.287" rx="1.456" ry="1.438"/><path class="cls-14" d="M206.339,689.936a50.166,50.166,0,0,1-10.986,1.577,263.472,263.472,0,0,0-3.061,43.513,57.082,57.082,0,0,0,17.4,1.7A264.081,264.081,0,0,0,206.339,689.936Z"/><path class="cls-14" d="M198.181,695.261c-3.77,4.428.074,13.892,8.585,21.137s32.706,21.652,36.475,17.224-14.313-26.014-22.824-33.26S201.951,690.833,198.181,695.261Z"/><path class="cls-18" d="M249.155,316.145c.345.243,2.9,5.746,3.091,6.13,1.763,3.578,10.842,11.916,27.564,13.238.761.286,1.576.561,2.429.818"/><path class="cls-19" d="M144.318,325.839q.594.376,1.206.741c13.755,6.259,50.888,25.93,58.774,12.822,3.4-6.438,1.234-16.32-3.527-26.075"/><path class="cls-3" d="M121.5,143.169c-2.917,7.168.747,16.155,9.157,19.527,8.514,3.07,13.381-5.93,10.544-18.156-2.8-12.329-5.462-20.443-9.074-18.67C128.534,127.64,124.493,135.739,121.5,143.169Z"/><ellipse class="cls-4" cx="130.229" cy="194.306" rx="21.358" ry="40.775"/><path class="cls-14" d="M92.178,655.523a20.993,20.993,0,0,0,4.961,5.757c-5.218,15.633-11.979,28.653-19.732,38.875A78.888,78.888,0,0,1,63.143,688.83C73.846,680.829,83.692,669.679,92.178,655.523Z"/><path class="cls-14" d="M94.72,666.23c.232,5.278-7.569,9.907-17.424,10.34s-34.518-2.774-34.75-8.053S66.6,657.886,76.458,657.454,94.489,660.951,94.72,666.23Z"/><path class="cls-2" d="M201.006,46.212s-22.892,2.614-36.6,12.9c-14.725,11.047-23.749,33.62-23.749,33.62S165,88.691,179.166,77.351C191.828,67.216,201.006,46.212,201.006,46.212Z"/><path class="cls-2" d="M277.773,94.349s-15.349-22.214-33.618-32.6c-19.628-11.155-48.114-12.7-48.114-12.7s17.629,23.2,37.255,33.692C250.835,92.12,277.773,94.349,277.773,94.349Z"/><path class="cls-20" d="M128.368,74.683c-22-12.92-42.924-24.519-66.025-31.512q2.265-4.318,4.608-8.789c22.41,8.374,42.994,21.043,64.884,34.788Q130.1,71.971,128.368,74.683Z"/><path class="cls-21" d="M127.226,75.406c-8.331-5.966-16.746-11.188-26.22-14.89q2.594-3.788,5.392-7.86c8.569,4.583,16.325,10.485,24.126,17Q128.814,72.657,127.226,75.406Z"/><ellipse class="cls-22" cx="65.404" cy="38.897" rx="5.14" ry="1.312" transform="translate(6.565 87.154) rotate(-70.098)"/><path d="M173.652,620.824c-.587-1.613-1.165-3.239-1.761-4.838-17.811-47.728-39.856-89.029-64.722-120.476,10.819-18.065,23.447-31.845,37.6-40.931,21.612,47.876,38.68,102.858,49.92,160.887.1.538.2,1.081.3,1.62C187.764,617.663,180.774,619.493,173.652,620.824Z"/><path class="cls-23" d="M267.778,143.363s-9.849-15.415-20.621-17.847c-11.572-2.612-27.5,8.107-27.5,8.107s11.174,15.407,22.707,17.367C252.67,152.742,267.778,143.363,267.778,143.363Z"/><path class="cls-24" d="M267.778,143.363s-9.849-15.415-20.621-17.847c-11.572-2.612-27.5,8.107-27.5,8.107a127.1,127.1,0,0,1,48.121,9.74Z"/><path class="cls-17" d="M219.8,133.115a125.887,125.887,0,0,1,15.867,1.6c2.353.388,4.931.881,9.149,1.852,5.6,1.289,13.481,3.281,23.168,6.3,0,0-5.558-1.767-13.5-3.867-3.677-.972-6.941-1.772-9.67-2.411"/><path class="cls-16" d="M261.509,140.606a11.746,11.746,0,0,0,1.482-15.637"/><path class="cls-16" d="M264.606,141.233a10.917,10.917,0,0,0,3.558-6.753,11.092,11.092,0,0,0-2.23-7.924"/><path class="cls-16" d="M241.509,135.922a12.967,12.967,0,0,0,1.627-17.448"/><path class="cls-16" d="M245.437,136.718a12.968,12.968,0,0,0,1.627-17.449"/><path class="cls-16" d="M248.486,137.335a12.964,12.964,0,0,0,1.627-17.448"/><path class="cls-16" d="M252.146,138.076a12.968,12.968,0,0,0,1.627-17.449"/><path class="cls-16" d="M255.2,138.693a12.967,12.967,0,0,0,1.627-17.448"/><path class="cls-16" d="M258.732,140.043a12.172,12.172,0,0,0,4.085-7.636,12.5,12.5,0,0,0-2.624-8.994"/><path class="cls-16" d="M228.8,133.859a10.531,10.531,0,0,0-.912-14.093"/><path class="cls-16" d="M232.238,134.669a10.073,10.073,0,0,0,3.16-7.286,11.063,11.063,0,0,0-4-7.818"/><path class="cls-16" d="M235.809,135.331a12.331,12.331,0,0,0,2.726-8.286,12.617,12.617,0,0,0-4.117-8.48"/><path class="cls-16" d="M238.118,135.236a12.967,12.967,0,0,0,1.627-17.448"/><path class="cls-16" d="M226.466,133.724a9.2,9.2,0,0,0,1.127-6.445,9.446,9.446,0,0,0-4.011-5.833"/><ellipse class="cls-17" cx="253.406" cy="142.504" rx="2.082" ry="1.735" transform="translate(63.462 362.602) rotate(-78.557)"/><path class="cls-23" d="M200.394,131.725s-16.556-7.778-26.964-4.085c-11.18,3.968-18.928,21.534-18.928,21.534s17.673,7.064,28.472,2.566C192.624,147.72,200.394,131.725,200.394,131.725Z"/><path class="cls-24" d="M200.394,131.725s-16.556-7.778-26.964-4.085c-11.18,3.968-18.928,21.534-18.928,21.534a127.135,127.135,0,0,1,45.892-17.449Z"/><path class="cls-17" d="M154.349,148.67a125.784,125.784,0,0,1,14.27-7.117c2.2-.928,4.641-1.887,8.725-3.317,5.425-1.9,13.152-4.422,22.956-7.038,0,0-5.643,1.473-13.482,3.938-3.629,1.14-6.815,2.207-9.465,3.123"/><path class="cls-16" d="M162.129,144.713a11.745,11.745,0,0,1-4.009-15.186"/><path class="cls-16" d="M159.175,145.836a10.912,10.912,0,0,1-4.61-6.083,11.094,11.094,0,0,1,.909-8.181"/><path class="cls-16" d="M181.1,136.835a12.967,12.967,0,0,1-4.447-16.951"/><path class="cls-16" d="M177.353,138.259a12.966,12.966,0,0,1-4.447-16.95"/><path class="cls-16" d="M174.445,139.365A12.967,12.967,0,0,1,170,122.414"/><path class="cls-16" d="M170.955,140.692a12.967,12.967,0,0,1-4.447-16.951"/><path class="cls-16" d="M168.047,141.8a12.967,12.967,0,0,1-4.448-16.95"/><path class="cls-16" d="M164.778,143.706a12.177,12.177,0,0,1-5.275-6.869,12.5,12.5,0,0,1,1.124-9.3"/><path class="cls-16" d="M193.308,132.727a10.529,10.529,0,0,1-1.4-14.052"/><path class="cls-16" d="M190.042,134.088a10.078,10.078,0,0,1-4.305-6.674,11.057,11.057,0,0,1,2.674-8.365"/><path class="cls-16" d="M186.627,135.323a12.333,12.333,0,0,1-4.039-7.732,12.611,12.611,0,0,1,2.68-9.037"/><path class="cls-16" d="M184.333,135.6a12.966,12.966,0,0,1-4.447-16.95"/><path class="cls-16" d="M195.583,132.215a9.192,9.192,0,0,1-2.161-6.175,9.435,9.435,0,0,1,3.007-6.408"/><ellipse class="cls-17" cx="170.75" cy="148.89" rx="2.151" ry="2.582" transform="translate(-41.767 70.403) rotate(-20.817)"/><line class="cls-25" x1="94.63" y1="389.4" x2="93.838" y2="383.037"/><polygon class="cls-26" points="93.313 378.788 91.766 381.735 90.219 384.682 93.919 384.483 97.619 384.284 95.466 381.536 93.313 378.788"/><ellipse class="cls-27" cx="100.948" cy="410.33" rx="18.895" ry="8.028" transform="translate(-183.886 98.191) rotate(-28.56)"/><ellipse class="cls-27" cx="93.113" cy="403.792" rx="18.077" ry="8.391" transform="translate(-307.63 298.326) rotate(-62.27)"/><line class="cls-25" x1="97.413" y1="425.249" x2="96.134" y2="415.404"/><line class="cls-25" x1="93.355" y1="422.538" x2="96.562" y2="419.157"/><line class="cls-25" x1="94.442" y1="427.541" x2="97.292" y2="424.379"/><line class="cls-25" x1="101.11" y1="426.763" x2="97.469" y2="424.579"/><line class="cls-25" x1="100.807" y1="424.278" x2="97.104" y2="421.968"/><line class="cls-25" x1="100.203" y1="421.342" x2="96.5" y2="419.032"/><line class="cls-25" x1="93.72" y1="425.149" x2="96.927" y2="421.768"/><path class="cls-23" d="M231.017,193.369c-3.221,10.592-7.876,18-13.5,17.279-5.544-.691-14.669-8.419-17.817-16.941-3.268-8.444,5.82-15.874,17.817-17.278C229.594,174.993,234.212,182.7,231.017,193.369Z"/><path class="cls-23" d="M231.017,193.369c-3.221,10.592-7.876,18-13.5,17.279-5.544-.691-14.669-8.419-17.817-16.941-3.268-8.444,5.82-15.874,17.817-17.278C229.594,174.993,234.212,182.7,231.017,193.369Z"/><path class="cls-28" d="M228.645,195.238c-2.462,8.1-6.02,13.761-10.315,13.209-4.239-.528-11.214-6.436-13.621-12.95-2.5-6.455,4.449-12.135,13.621-13.209C227.558,181.191,231.088,187.082,228.645,195.238Z"/><path class="cls-28" d="M228.645,195.238c-2.462,8.1-6.02,13.761-10.315,13.209-4.239-.528-11.214-6.436-13.621-12.95-2.5-6.455,4.449-12.135,13.621-13.209C227.558,181.191,231.088,187.082,228.645,195.238Z"/><path class="cls-2" d="M152.006,52.212s-22.892,2.614-36.6,12.9c-14.725,11.047-23.749,33.62-23.749,33.62S116,94.691,130.166,83.351C142.828,73.216,152.006,52.212,152.006,52.212Z"/><path class="cls-29" d="M428.322,306.684l-22.789,56.889c-1.5,3.74,6.771,10.571,18.47,15.258s22.4,5.454,23.9,1.713l22.789-56.888C464.008,329.33,430.851,317.81,428.322,306.684Z"/><ellipse class="cls-30" cx="449.832" cy="314.395" rx="7.296" ry="22.808" transform="translate(-9.294 615.054) rotate(-68.169)"/><path class="cls-31" d="M424.526,333.426a9.174,9.174,0,0,1,1.578.921,2.869,2.869,0,0,1,1.359,1.755,2.175,2.175,0,0,1-2.684,2.39l-.021.029a1.951,1.951,0,0,1-.039,1.919,13.163,13.163,0,0,0-.789,2.091l-.8-.569a10.7,10.7,0,0,1,.688-1.817c.452-1.012.369-1.573-.313-2.1l-.728-.518-1.972,2.782-.773-.55Zm-1.3,3.472.79.562a1.479,1.479,0,0,0,2.214-.259c.587-.828.285-1.588-.525-2.179a3.639,3.639,0,0,0-.817-.466Z"/><path class="cls-31" d="M427.033,341.333a1.746,1.746,0,0,0,.565,2.6,3.262,3.262,0,0,0,1.407.489l-.232.718a4.065,4.065,0,0,1-1.69-.588,2.543,2.543,0,0,1-.791-3.768c.863-1.469,2.352-2.15,3.677-1.371,1.484.872,1.055,2.5.528,3.4a4.43,4.43,0,0,1-.269.4Zm2.8.79a1.435,1.435,0,0,0-.3-2.11,1.658,1.658,0,0,0-2.113.692Z"/><path class="cls-31" d="M438.035,340.72l-2.917,6.177c-.214.455-.449.977-.583,1.339l-.779-.368.38-.9-.02-.01a1.933,1.933,0,0,1-2.1.236c-1.155-.544-1.547-2.009-.814-3.562.793-1.7,2.272-2.284,3.435-1.735a1.736,1.736,0,0,1,1.07,1.461l.02.009,1.441-3.052Zm-2.976,4.057a1.913,1.913,0,0,0,.146-.409,1.44,1.44,0,0,0-.744-1.669c-.9-.423-1.827.17-2.361,1.3-.49,1.034-.42,2.113.516,2.555a1.468,1.468,0,0,0,1.8-.508,1.96,1.96,0,0,0,.229-.383Z"/><path class="cls-31" d="M439.078,341.718a8.647,8.647,0,0,1,1.687.431,2.9,2.9,0,0,1,1.705,1.22,1.692,1.692,0,0,1,.106,1.513,1.854,1.854,0,0,1-1.752,1.2l-.008.022a1.992,1.992,0,0,1,.759,2.368,2.187,2.187,0,0,1-1.116,1.272,3.513,3.513,0,0,1-2.638-.166,10.715,10.715,0,0,1-1.355-.585Zm-1.466,6.9a4.733,4.733,0,0,0,.733.314c.924.331,1.9.274,2.291-.8.362-1.01-.3-1.719-1.274-2.068l-.738-.266Zm1.272-3.547.81.291a1.383,1.383,0,0,0,1.943-.7c.311-.867-.181-1.427-1.085-1.752a3.863,3.863,0,0,0-.814-.218Z"/><path class="cls-31" d="M447.123,350.672c-.144.565-.261,1.066-.339,1.5l-.824-.21.176-.907-.022,0a1.966,1.966,0,0,1-1.948.585c-.8-.2-1.642-.926-1.151-2.848l.816-3.2.929.237-.774,3.029c-.265,1.04-.147,1.817.7,2.033a1.393,1.393,0,0,0,1.455-.591,1.585,1.585,0,0,0,.214-.488l.856-3.357.93.238Z"/><path class="cls-31" d="M450.149,344.377l.943.175-1.524,8.143-.943-.175Z"/><path class="cls-31" d="M452.565,344.8l.95.141-1.209,8.2-.948-.141Z"/><path class="cls-32" d="M466.791,321c.378,1.591-4.778,1.334-9-.47-4.28-1.826-4.73-3.651-3.4-4.515,1.4-.878,2.75-1.183,5.32-.071C462.208,317.06,466.469,319.447,466.791,321Z"/><path class="cls-16" d="M466.791,321c.378,1.591-4.778,1.334-9-.47-4.28-1.826-4.73-3.651-3.4-4.515,1.4-.878,2.75-1.183,5.32-.071C462.208,317.06,466.469,319.447,466.791,321Z"/><path class="cls-3" d="M255.039,275.211c21.776-8.457,68.253-16.793,108.7-43.459,4.67,10.779,6.8,16.8,12.011,25.69A302.747,302.747,0,0,0,392.8,282.479c6.6,8.938,14.858,19.608,21.3,27.3a41.415,41.415,0,0,0-6.379,3.294c-6.692,3.565-6.84,13.175,4.86,18.3,10.89,4.943,18.868,7.216,21.935,3.07,2.53-3.577,1.709-15.063-4.436-22.674-3.858-3.63-8.291-4.033-12.484-3.08-13.088-18.354-15.509-24.607-21.053-37.5-2.958-6.834-7.081-15.912-12.67-27.644-2.883-6.139-6.186-13.041-9.131-19.646.159-.123-5-11.727-6.312-15.729q-3.478,2.64-7.194,5.257a247.807,247.807,0,0,1-29.12,17.621c-11.181,4.877-23.18,9.692-35.98,14.286-16.11,5.783-31.5,10.5-45.941,14.373A160.418,160.418,0,0,1,255.039,275.211Z"/><path class="cls-23" d="M175.962,386.031c-.458-11-22.133-8.156-22.59-19.151-.122-2.1,2.362-5.114,4.3-5.9l5.861-2.433c5.243-2.172,8.525-1.217,12.287-.321,3.6,1.063,7.684,2.067,10.858,3.879h0c3.173,1.812,3.957,4.967,2.244,9.5-1.553,4.361-5.6,10.1-8.423,13.181l-3.307,3.545C176.086,389.523,176.084,388.132,175.962,386.031Z"/><path class="cls-33" d="M177.19,383.787a5.505,5.505,0,0,0,.455-5.386c-.923-2.276-3.674-4.248-7.7-5.751a47.89,47.89,0,0,1-9.641-4.5c-2.256-1.4-3.209-2.767-4.654-2.087-.672.305-1.992,1.784-1.828,2.642a6.761,6.761,0,0,0,2.447,3.679c1.752,1.509,4.938,2.753,8.157,3.97s6.467,2.412,8.326,3.836a8.2,8.2,0,0,1,2.8,3.4C175.935,384.551,176.728,384.23,177.19,383.787Z"/><path class="cls-25" d="M177.96,382.73a17.026,17.026,0,0,0-6.33-4.038"/><path class="cls-25" d="M178.213,379.961c-1.71-.284-4.036-1-7.615-1.753"/><path class="cls-25" d="M177.271,377.467a42.923,42.923,0,0,1-7.708.182"/><path class="cls-25" d="M175.486,375.536a25.208,25.208,0,0,1-7.375,1.571"/><path class="cls-25" d="M173.072,374.074a16.548,16.548,0,0,1-6.82,2.314"/><path class="cls-25" d="M170.568,372.9a14.48,14.48,0,0,1-5.308,3.1"/><path class="cls-25" d="M169.535,374.8h0"/><path class="cls-25" d="M169.027,372.309c-2.431,1.044-4.361,2.095-5.17,3.182"/><path class="cls-25" d="M167.078,371.462c-2.233,1.02-3.84,2.187-4.569,3.5"/><path class="cls-25" d="M165.441,370.758c-2.353,1.132-3.788,2.44-3.834,3.871"/><path class="cls-25" d="M162.908,369.569c-1.572,1.334-2.585,2.875-2.422,4.519"/><path class="cls-25" d="M160.651,368.172a7.58,7.58,0,0,0-1.082,5.461"/><path class="cls-25" d="M158.689,367.008c-1.346,2.26-1.335,4.477.592,6.221"/><path class="cls-25" d="M156.448,365.935c-1.254,3-.7,5.386,1.906,6.957"/><path class="cls-33" d="M146.4,391.98c-2.915-.859-5.985-1.617-8.855-2.5-3.25-.972-3.787-2.969-1.714-4.1l20.853-11.555a10.327,10.327,0,0,1,7.029-.693c.989.248,2.059.548,3.138.934a14.714,14.714,0,0,1,3.647,1.82c1.494,1.069,1.375,2.734-.053,3.847L154.764,391.78C153.264,392.958,149.7,392.919,146.4,391.98Z"/><path class="cls-25" d="M177.181,383.9A13.42,13.42,0,0,0,171.446,379"/><path class="cls-25" d="M154.906,366.486a5.575,5.575,0,0,0,2.877,6.719"/><path class="cls-10" d="M184.88,375.779c-.521.5-1.078-.224-1.742-1.3s-1.026-2.119-.427-2.592a1.781,1.781,0,0,1,2.412.858A2.864,2.864,0,0,1,184.88,375.779Z"/><path class="cls-10" d="M172.574,370.089c-1.142.734-3.776.686-5.587-.3s-1.741-2.644-.365-3.36,3.372-.254,4.973.7S173.745,369.335,172.574,370.089Z"/><path class="cls-10" d="M179.269,363.1a3.278,3.278,0,0,1-3.366.11c-.726-.611-.209-1.7.969-2.319a2.867,2.867,0,0,1,3.125.048C180.615,361.535,180.348,362.464,179.269,363.1Z"/><path class="cls-10" d="M180.941,382.4c-1.061,1.094-1.689.65-1.924-.648a4.376,4.376,0,0,1,1.3-3.949c1.131-1,2.5-1.038,2.636.183C183.107,379.2,182,381.316,180.941,382.4Z"/><path class="cls-10" d="M181.415,368.05a4.863,4.863,0,0,1-4.406.089c-1.434-.666-1.551-1.827-.335-2.546a4.944,4.944,0,0,1,4.386-.076C182.305,366.172,182.445,367.317,181.415,368.05Z"/><path class="cls-10" d="M163.4,365.8a1.823,1.823,0,0,1-2.771-1.208,4.134,4.134,0,0,1,2.225-3.7c1.18-.511,1.817.423,1.968,1.731A3.038,3.038,0,0,1,163.4,365.8Z"/><path class="cls-10" d="M170.452,359.716a2.587,2.587,0,0,0-1.22,3.1,2.157,2.157,0,0,0,2.862.96c.9-.489.96-1.557.526-2.651S171.418,359.271,170.452,359.716Z"/><path class="cls-10" d="M187.971,372.157c-.574.538-1.2.1-1.725-.761s-.636-1.842.011-2.356a1.466,1.466,0,0,1,2.171.471A2.457,2.457,0,0,1,187.971,372.157Z"/><path class="cls-10" d="M184.006,363.32c-.944.6-1.046,1.442-.24,1.888a2.974,2.974,0,0,0,2.942-.264c.84-.607.985-1.478.283-1.917A3.138,3.138,0,0,0,184.006,363.32Z"/><path class="cls-10" d="M179.644,374.2c-.735.6-2.118.437-3.306-.215s-1.572-1.583-.72-2.169a3.719,3.719,0,0,1,3.576.039C180.269,372.5,180.38,373.6,179.644,374.2Z"/><path class="cls-3" d="M135.861,372.861a26.268,26.268,0,0,0-5.222,5.224,12.812,12.812,0,0,0-2.083,11.948c4.228,8.822,14.245,14.5,18.562,13.757,5.062-.986,6.441-9.166,6.663-21.123.4-12.7-8.243-16.725-14.335-12.331"/><path class="cls-34" d="M130.231,378.673a12.64,12.64,0,0,0-1.707,11.187c4.123,8.87,14.071,14.67,18.4,13.976,5.073-.926,6.55-9.089,6.913-21.043q.027-.608.025-1.19"/></g></g></svg>
