<svg id="Layer_1" data-name="Layer 1" xmlns="http://www.w3.org/2000/svg" width="950" height="686" viewBox="0 0 950 686"><defs><style>.cls-1{fill:#fff;}.cls-2{fill:#ff7bac;}</style></defs><title>game_complete</title><path class="cls-1" d="M776.43,11H175.74C89.62,11,19.17,77.71,19.17,159.23v275c0,81.53,70.45,148.23,156.57,148.23h7.59L45.25,668l327.9-85.54H776.43c86.11,0,156.57-66.7,156.57-148.23v-275C933,77.71,862.54,11,776.43,11Z"/><path class="cls-2" d="M99.17,103h13.9c8.28,0,15.09,2.88,15.09,12.19,0,9-6.81,12.85-15.09,12.85h-5v14.06H99.17Zm13.18,18c4.64,0,7.14-2,7.14-5.82S117,110,112.35,110H108v11Zm5.21-1L130,142.07h-9.9l-8.7-16.39Z"/><path class="cls-2" d="M136.54,103h25.92v7.42H145.39v7.85h14.5v7.42h-14.5v9h17.67v7.42H136.54Z"/><path class="cls-2" d="M170,137.15l5.08-6.08a16.73,16.73,0,0,0,10.39,4.08c3.76,0,5.49-1.45,5.49-3.37,0-2.81-2.32-3.49-6-5l-5.09-2.17c-4.34-1.65-8.29-5-8.29-10.66,0-6.48,5.83-11.66,14.33-11.66a19,19,0,0,1,13,5.12L194.43,113a14,14,0,0,0-9-3c-2.91,0-4.89,1.21-4.89,3.49s2.62,3.21,6.37,4.62l4.79,2c5.12,1.92,8.35,5.11,8.35,10.62,0,6.5-5.45,12.13-15.13,12.13A22.54,22.54,0,0,1,170,137.15Z"/><path class="cls-2" d="M207.47,103h13.87c8.49,0,15.32,3.07,15.32,12.58,0,9.21-7,13.26-15.32,13.26h-5v13.26h-8.85Zm13.36,18.82c4.85,0,7.15-2.18,7.15-6.24s-2.49-5.55-7.15-5.55h-4.51v11.79Z"/><path class="cls-2" d="M244.54,103h25.91v7.42H253.39v7.85h14.5v7.42h-14.5v9h17.66v7.42H244.54Z"/><path class="cls-2" d="M279,103H288v16h.23l11.52-16h9.83L288,131.39v10.68H279Zm12.72,21,5.18-6.9,13.72,25h-9.81Z"/><path class="cls-2" d="M324.57,110.39H312.85V103h32.29v7.42H333.42v31.68h-8.85Z"/><path class="cls-2" d="M359,136.69a6,6,0,1,1,12,0,6,6,0,1,1-12,0Zm1.89-26.84-.3-8h8.82l-.29,8-1.23,16.9H362.1Z"/><path class="cls-2" d="M423.22,103H434c11.34,0,18.8,5.94,18.8,19.37s-7.46,19.73-18.3,19.73h-11.3Zm10.31,32c6.08,0,10.22-3.25,10.22-12.61s-4.14-12.24-10.22-12.24h-1.47V135Z"/><path class="cls-2" d="M458.82,127V103h8.87v25c0,4.68,1.72,7.23,5.4,7.23s5.53-2.55,5.53-7.23V103h8.54v24c0,10.15-4.57,15.77-14.07,15.77S458.82,137.17,458.82,127Z"/><path class="cls-2" d="M533.28,103h26v7.42H542.13v9.07h14.64v7.42H542.13v15.19h-8.85Z"/><path class="cls-2" d="M568.53,103h25.92v7.42H577.38v7.85h14.5v7.42h-14.5v9h17.67v7.42H568.53Z"/><path class="cls-2" d="M602,137.15l5.08-6.08a16.71,16.71,0,0,0,10.39,4.08c3.76,0,5.49-1.45,5.49-3.37,0-2.81-2.32-3.49-6-5l-5.1-2.17c-4.33-1.65-8.28-5-8.28-10.66,0-6.48,5.83-11.66,14.33-11.66a19,19,0,0,1,13,5.12L626.42,113a14,14,0,0,0-9-3c-2.91,0-4.89,1.21-4.89,3.49s2.62,3.21,6.37,4.62l4.78,2c5.12,1.92,8.36,5.11,8.36,10.62,0,6.5-5.46,12.13-15.13,12.13A22.54,22.54,0,0,1,602,137.15Z"/><path class="cls-2" d="M648.56,110.39H636.84V103h32.29v7.42H657.41v31.68h-8.85Z"/><path class="cls-2" d="M676.53,103h25.91v7.42H685.38v7.85h14.5v7.42h-14.5v9H703v7.42H676.53Z"/><path class="cls-2" d="M711.15,103h13.9c8.28,0,15.1,2.88,15.1,12.19,0,9-6.82,12.85-15.1,12.85h-5v14.06h-8.86Zm13.18,18c4.65,0,7.14-2,7.14-5.82S729,110,724.33,110H720v11Zm5.22-1L742,142.07h-9.9l-8.7-16.39Z"/><path class="cls-2" d="M98,209.15l5.08-6.08a16.75,16.75,0,0,0,10.4,4.08c3.75,0,5.49-1.45,5.49-3.37,0-2.81-2.33-3.49-6-5l-5.09-2.17c-4.33-1.65-8.29-5-8.29-10.66,0-6.48,5.83-11.66,14.33-11.66a19,19,0,0,1,13,5.12L122.44,185a14,14,0,0,0-9-3c-2.92,0-4.9,1.21-4.9,3.49s2.62,3.21,6.37,4.62l4.79,2c5.12,1.92,8.35,5.11,8.35,10.62,0,6.5-5.45,12.13-15.13,12.13A22.56,22.56,0,0,1,98,209.15Z"/><path class="cls-2" d="M133.27,194.34c0-13.06,6.42-20.09,15.73-20.09s15.72,7,15.72,20.09c0,13.38-6.41,20.45-15.72,20.45S133.27,207.72,133.27,194.34Zm22.38,0c0-8.12-2.57-12.44-6.65-12.44s-6.65,4.32-6.65,12.44c0,8.44,2.57,12.81,6.65,12.81S155.65,202.78,155.65,194.34Z"/><path class="cls-2" d="M170.45,175h9.28l3.83,13.86,1.32,5.41h.24l1.29-5.41L190.26,175h9.28v39.1h-7.48V202c0-4.4.77-13.94,1.19-18.16h-.18l-3,10.49-3,9.42h-4.29l-3.09-9.42-2.8-10.49h-.21c.45,4.22,1.19,13.76,1.19,18.16v12.1h-7.37Z"/><path class="cls-2" d="M244.54,175h25.91v7.42H253.39v7.85h14.5v7.42h-14.5v9h17.66v7.42H244.54Z"/><path class="cls-2" d="M279,175H288l8.23,19.44,3.35,8.59h.2c-.39-4.11-1.22-9.59-1.22-14.21V175H307v39.1H298l-8.23-19.48L286.38,186h-.2c.39,4.33,1.22,9.56,1.22,14.16v13.87H279Z"/><path class="cls-2" d="M351.16,175h13.9c8.28,0,15.1,2.88,15.1,12.19,0,9-6.82,12.85-15.1,12.85h-5v14.06h-8.86Zm13.18,18c4.65,0,7.14-2,7.14-5.82S369,182,364.34,182H360v11Zm5.22-1L382,214.07h-9.9l-8.7-16.39Z"/><path class="cls-2" d="M387.44,206.65h9.13V182.39h-9.13V175h27.11v7.42h-9.13v24.26h9.13v7.42H387.44Z"/><path class="cls-2" d="M421.61,194.74c0-13.07,7.95-20.49,18.11-20.49a15.5,15.5,0,0,1,11.42,5l-4.87,5.47a8.48,8.48,0,0,0-6.55-2.8c-5.13,0-9,4.72-9,12.55,0,8,3.17,12.7,9.33,12.7a6.06,6.06,0,0,0,3.8-1.15v-6.76h-5.68V192h13.6v18a18.74,18.74,0,0,1-12.23,4.73C429.57,214.79,421.61,207.93,421.61,194.74Z"/><path class="cls-2" d="M468.56,182.39H456.84V175h32.29v7.42H477.41v31.68h-8.85Z"/><path class="cls-2" d="M495.43,206.65h9.13V182.39h-9.13V175h27.11v7.42h-9.13v24.26h9.13v7.42H495.43Z"/><path class="cls-2" d="M529.61,194.74c0-13.07,7.95-20.49,18.1-20.49a15.5,15.5,0,0,1,11.43,5l-4.87,5.47a8.49,8.49,0,0,0-6.56-2.8c-5.13,0-9,4.72-9,12.55,0,8,3.17,12.7,9.33,12.7a6,6,0,0,0,3.79-1.15v-6.76h-5.68V192h13.61v18a18.75,18.75,0,0,1-12.24,4.73C537.57,214.79,529.61,207.93,529.61,194.74Z"/><path class="cls-2" d="M98,281.15l5.08-6.08a16.75,16.75,0,0,0,10.4,4.08c3.75,0,5.49-1.45,5.49-3.37,0-2.81-2.33-3.49-6-5l-5.09-2.17c-4.33-1.65-8.29-5-8.29-10.66,0-6.48,5.83-11.66,14.33-11.66a19,19,0,0,1,13,5.12L122.44,257a14,14,0,0,0-9-3c-2.92,0-4.9,1.21-4.9,3.49s2.62,3.21,6.37,4.62l4.79,2c5.12,1.92,8.35,5.11,8.35,10.62,0,6.5-5.45,12.13-15.13,12.13A22.56,22.56,0,0,1,98,281.15Z"/><path class="cls-2" d="M137.39,247h8.84v31.68h17.4v7.42H137.39Z"/><path class="cls-2" d="M172.54,247h25.92v7.42H181.39v7.85h14.5v7.42h-14.5v9h17.67v7.42H172.54Z"/><path class="cls-2" d="M216.57,254.39H204.85V247h32.29v7.42H225.42v31.68h-8.85Z"/><path class="cls-2" d="M252.57,254.39H240.85V247h32.29v7.42H261.42v31.68h-8.85Z"/><path class="cls-2" d="M280.54,247h25.91v7.42H289.39v7.85h14.5v7.42h-14.5v9h17.66v7.42H280.54Z"/><path class="cls-2" d="M324.57,254.39H312.85V247h32.29v7.42H333.42v31.68h-8.85Z"/><path class="cls-2" d="M377,244.45l4.83,3.11L353,288.6l-4.84-3.11Zm-27.7,21.89c0-13.06,6.41-20.09,15.72-20.09s15.73,7,15.73,20.09c0,13.38-6.42,20.45-15.73,20.45S349.27,279.72,349.27,266.34Zm22.38,0c0-8.12-2.58-12.44-6.66-12.44s-6.65,4.32-6.65,12.44c0,8.44,2.57,12.81,6.65,12.81S371.65,274.78,371.65,266.34Z"/><path class="cls-2" d="M386,281.15l5.07-6.08a16.75,16.75,0,0,0,10.4,4.08c3.75,0,5.49-1.45,5.49-3.37,0-2.81-2.33-3.49-6-5l-5.09-2.17c-4.33-1.65-8.29-5-8.29-10.66,0-6.48,5.84-11.66,14.33-11.66a19,19,0,0,1,13,5.12L410.43,257a14,14,0,0,0-9-3c-2.92,0-4.89,1.21-4.89,3.49s2.62,3.21,6.37,4.62l4.78,2c5.12,1.92,8.35,5.11,8.35,10.62,0,6.5-5.45,12.13-15.13,12.13A22.52,22.52,0,0,1,386,281.15Z"/><path class="cls-2" d="M431,280.69a6,6,0,1,1,12,0,6,6,0,1,1-12,0Zm1.89-26.84-.3-8h8.82l-.29,8-1.23,16.9H434.1Z"/><rect class="cls-2" x="95" y="341" width="345" height="161" rx="35.95"/><path d="M208.68,405.22h7.42l3.07,11.09,1.05,4.33h.19l1-4.33,3.08-11.09H232v31.29h-6v-9.69c0-3.52.62-11.15.95-14.53h-.15l-2.4,8.4-2.43,7.53H218.5L216,420.69l-2.24-8.4h-.17c.36,3.38.95,11,.95,14.53v9.69h-5.89Z"/><path d="M239.15,405.22h20.74v5.94H246.23v6.27h11.6v5.94h-11.6v7.2h14.14v5.94H239.15Z"/><path d="M266.69,405.22H274l6.58,15.56,2.68,6.87h.16c-.32-3.29-1-7.68-1-11.37V405.22h6.75v31.29h-7.25l-6.59-15.59-2.67-6.84h-.17c.32,3.46,1,7.65,1,11.33v11.1h-6.75Z"/><path d="M295.38,424.46V405.22h7.09v20c0,3.75,1.38,5.79,4.33,5.79s4.42-2,4.42-5.79v-20h6.83v19.24c0,8.13-3.65,12.62-11.25,12.62S295.38,432.59,295.38,424.46Z"/><rect class="cls-2" x="494" y="341" width="345" height="161" rx="35.95"/><path d="M537.93,434.11l4.06-4.86a13.44,13.44,0,0,0,8.32,3.26c3,0,4.39-1.16,4.39-2.69,0-2.25-1.86-2.8-4.82-4L545.8,424c-3.46-1.31-6.63-4-6.63-8.52,0-5.19,4.67-9.33,11.47-9.33a15.14,15.14,0,0,1,10.39,4.1l-3.57,4.46a11.22,11.22,0,0,0-7.21-2.44c-2.33,0-3.91,1-3.91,2.79s2.09,2.57,5.09,3.7l3.83,1.62c4.1,1.54,6.69,4.09,6.69,8.5,0,5.2-4.37,9.71-12.11,9.71A18,18,0,0,1,537.93,434.11Z"/><path d="M567.89,406.77H579c6.79,0,12.25,2.45,12.25,10.06,0,7.37-5.62,10.61-12.25,10.61h-4v10.61h-7.08Zm10.69,15.05c3.88,0,5.72-1.74,5.72-5s-2-4.44-5.72-4.44H575v9.43Z"/><path d="M596.67,432.12H604V412.71h-7.3v-5.94h21.69v5.94h-7.31v19.41h7.31v5.93H596.67Z"/><path d="M627,406.77h7.06v25.35H648v5.93H627Z"/><path d="M683.06,432.12h7.31V412.71h-7.31v-5.94h21.69v5.94h-7.3v19.41h7.3v5.93H683.06Z"/><path d="M710.4,422.58c0-10.45,6.37-16.39,14.49-16.39a12.42,12.42,0,0,1,9.14,4l-3.9,4.38a6.76,6.76,0,0,0-5.24-2.24c-4.1,0-7.18,3.77-7.18,10,0,6.43,2.53,10.16,7.47,10.16a4.76,4.76,0,0,0,3-.92v-5.4h-4.54v-5.78h10.88v14.43a15,15,0,0,1-9.79,3.79C716.77,438.63,710.4,433.13,710.4,422.58Z"/><path d="M741.54,406.77h20.74v5.94H748.62V419h11.6v5.94h-11.6v7.2h14.14v5.93H741.54Z"/><path d="M769.08,406.77h7.26l6.58,15.55,2.68,6.88h.16c-.31-3.3-1-7.68-1-11.37V406.77h6.75v31.28h-7.26l-6.58-15.59L775,415.62h-.17c.32,3.46,1,7.66,1,11.34v11.09h-6.75Z"/></svg>
