<svg id="Layer_1" data-name="Layer 1" xmlns="http://www.w3.org/2000/svg" width="950" height="686" viewBox="0 0 950 686"><defs><style>.cls-1{fill:#fff;}.cls-2{fill:#ff7bac;}</style></defs><title>game_complete</title><path class="cls-1" d="M776.428,11.008H175.738c-86.114,0-156.572,66.7-156.572,148.224v275c0,81.524,70.458,148.225,156.572,148.225h7.594L45.249,668l327.9-85.541H776.428c86.115,0,156.572-66.7,156.572-148.225v-275C933,77.709,862.543,11.008,776.428,11.008Z"/><path class="cls-2" d="M99.165,90.975h13.9c8.283,0,15.1,2.879,15.1,12.181,0,8.986-6.815,12.852-15.1,12.852h-5.035v14.065H99.165Zm13.181,18.009c4.648,0,7.142-2,7.142-5.828,0-3.861-2.494-5.158-7.142-5.158h-4.315v10.986Zm5.218-.978,12.476,22.067h-9.9l-8.7-16.4Z"/><path class="cls-2" d="M136.54,90.975h25.917V98.4H145.39v7.84h14.5v7.42h-14.5v9h17.668v7.42H136.54Z"/><path class="cls-2" d="M170.022,125.146l5.078-6.077a16.725,16.725,0,0,0,10.394,4.081c3.755,0,5.489-1.455,5.489-3.366,0-2.815-2.324-3.5-6.024-5.046l-5.094-2.173c-4.332-1.646-8.286-4.969-8.286-10.659,0-6.476,5.833-11.652,14.328-11.652a18.949,18.949,0,0,1,12.986,5.12l-4.458,5.577a14.033,14.033,0,0,0-9.011-3.053c-2.914,0-4.893,1.207-4.893,3.492,0,2.351,2.621,3.212,6.371,4.618l4.784,2.027c5.12,1.92,8.353,5.113,8.353,10.629,0,6.5-5.453,12.129-15.132,12.129A22.527,22.527,0,0,1,170.022,125.146Z"/><path class="cls-2" d="M207.472,90.975h13.871c8.483,0,15.315,3.07,15.315,12.575,0,9.206-7.022,13.262-15.315,13.262h-5.022v13.261h-8.849Zm13.357,18.813c4.849,0,7.152-2.174,7.152-6.238,0-4.081-2.493-5.552-7.152-5.552h-4.508v11.79Z"/><path class="cls-2" d="M244.537,90.975h25.917V98.4H253.387v7.84h14.5v7.42h-14.5v9h17.668v7.42H244.537Z"/><path class="cls-2" d="M279.04,90.975h8.952v15.957h.224l11.521-15.957h9.828L287.992,119.4v10.678H279.04Zm12.718,20.949,5.181-6.9,13.72,25.053h-9.811Z"/><path class="cls-2" d="M324.568,98.4h-11.72v-7.42h32.291V98.4H333.418v31.678h-8.85Z"/><path class="cls-2" d="M358.994,124.686a6,6,0,1,1,12,0,6,6,0,1,1-12,0Zm1.884-26.834-.293-7.977H369.4l-.293,7.977-1.222,16.9H362.1Z"/><path class="cls-2" d="M423.216,90.975h10.8c11.342,0,18.8,5.937,18.8,19.369,0,13.449-7.459,19.729-18.3,19.729h-11.3Zm10.311,31.971c6.083,0,10.22-3.249,10.22-12.6,0-9.337-4.137-12.242-10.22-12.242h-1.463v24.844Z"/><path class="cls-2" d="M458.821,115.021V90.975h8.866V115.92c0,4.68,1.721,7.23,5.406,7.23,3.7,0,5.526-2.55,5.526-7.23V90.975h8.539v24.046c0,10.154-4.567,15.772-14.065,15.772C463.578,130.793,458.821,125.175,458.821,115.021Z"/><path class="cls-2" d="M533.279,90.975h26V98.4H542.129v9.06H556.77v7.42H542.129v15.2h-8.85Z"/><path class="cls-2" d="M568.528,90.975h25.917V98.4H577.378v7.84h14.5v7.42h-14.5v9h17.668v7.42H568.528Z"/><path class="cls-2" d="M602.011,125.146l5.077-6.077a16.725,16.725,0,0,0,10.394,4.081c3.755,0,5.49-1.455,5.49-3.366,0-2.815-2.325-3.5-6.025-5.046l-5.093-2.173c-4.333-1.646-8.287-4.969-8.287-10.659,0-6.476,5.833-11.652,14.329-11.652a18.945,18.945,0,0,1,12.985,5.12l-4.458,5.577a14.033,14.033,0,0,0-9.011-3.053c-2.914,0-4.892,1.207-4.892,3.492,0,2.351,2.621,3.212,6.371,4.618l4.783,2.027c5.12,1.92,8.353,5.113,8.353,10.629,0,6.5-5.453,12.129-15.131,12.129A22.523,22.523,0,0,1,602.011,125.146Z"/><path class="cls-2" d="M648.56,98.4H636.839v-7.42H669.13V98.4H657.409v31.678H648.56Z"/><path class="cls-2" d="M676.525,90.975h25.917V98.4H685.375v7.84h14.5v7.42h-14.5v9h17.668v7.42H676.525Z"/><path class="cls-2" d="M711.148,90.975h13.9c8.282,0,15.1,2.879,15.1,12.181,0,8.986-6.815,12.852-15.1,12.852h-5.035v14.065h-8.867Zm13.181,18.009c4.649,0,7.143-2,7.143-5.828,0-3.861-2.494-5.158-7.143-5.158h-4.314v10.986Zm5.219-.978,12.475,22.067h-9.9l-8.7-16.4Z"/><path class="cls-2" d="M98.024,197.146l5.078-6.077A16.725,16.725,0,0,0,113.5,195.15c3.755,0,5.489-1.455,5.489-3.366,0-2.815-2.324-3.5-6.024-5.046l-5.094-2.173c-4.332-1.646-8.286-4.969-8.286-10.659,0-6.476,5.833-11.652,14.328-11.652a18.949,18.949,0,0,1,12.986,5.12l-4.458,5.577a14.033,14.033,0,0,0-9.011-3.053c-2.914,0-4.893,1.207-4.893,3.492,0,2.351,2.621,3.212,6.371,4.618l4.784,2.027c5.12,1.92,8.353,5.113,8.353,10.629,0,6.5-5.453,12.129-15.132,12.129A22.527,22.527,0,0,1,98.024,197.146Z"/><path class="cls-2" d="M133.272,182.344c0-13.066,6.414-20.09,15.726-20.09s15.726,7.024,15.726,20.09c0,13.376-6.413,20.449-15.726,20.449S133.272,195.72,133.272,182.344Zm22.379,0c0-8.125-2.575-12.446-6.653-12.446s-6.652,4.321-6.652,12.446c0,8.434,2.574,12.806,6.652,12.806S155.651,190.778,155.651,182.344Z"/><path class="cls-2" d="M170.452,162.975h9.28l3.831,13.855,1.314,5.408h.24l1.3-5.408,3.849-13.855h9.28v39.1h-7.484v-12.1c0-4.4.773-13.937,1.186-18.162h-.18l-3,10.493-3.043,9.42h-4.292l-3.095-9.42-2.8-10.493h-.206c.446,4.225,1.185,13.758,1.185,18.162v12.1h-7.363Z"/><path class="cls-2" d="M244.537,162.975h25.917v7.42H253.387v7.84h14.5v7.42h-14.5v9h17.668v7.42H244.537Z"/><path class="cls-2" d="M278.963,162.975h9.069l8.228,19.437,3.346,8.593h.206c-.4-4.116-1.222-9.595-1.222-14.211V162.975h8.436v39.1h-9.069l-8.228-19.481-3.346-8.549h-.207c.4,4.322,1.222,9.561,1.222,14.161v13.869h-8.435Z"/><path class="cls-2" d="M351.158,162.975h13.9c8.282,0,15.1,2.879,15.1,12.181,0,8.986-6.815,12.852-15.1,12.852h-5.036v14.065h-8.866Zm13.181,18.009c4.648,0,7.142-2,7.142-5.828,0-3.861-2.494-5.158-7.142-5.158h-4.315v10.986Zm5.219-.978,12.475,22.067h-9.9l-8.7-16.4Z"/><path class="cls-2" d="M387.437,194.653h9.129V170.4h-9.129v-7.42h27.109v7.42h-9.13v24.258h9.13v7.42H387.437Z"/><path class="cls-2" d="M421.608,182.74c0-13.065,7.953-20.486,18.109-20.486a15.511,15.511,0,0,1,11.423,4.974l-4.871,5.473a8.455,8.455,0,0,0-6.552-2.8c-5.129,0-8.976,4.717-8.976,12.549,0,8.038,3.167,12.7,9.332,12.7A5.98,5.98,0,0,0,443.866,194v-6.754h-5.678v-7.213h13.6v18.032a18.73,18.73,0,0,1-12.235,4.732C429.57,202.793,421.608,195.926,421.608,182.74Z"/><path class="cls-2" d="M468.564,170.4h-11.72v-7.42h32.291v7.42H477.414v31.678h-8.85Z"/><path class="cls-2" d="M495.434,194.653h9.129V170.4h-9.129v-7.42h27.109v7.42h-9.13v24.258h9.13v7.42H495.434Z"/><path class="cls-2" d="M529.605,182.74c0-13.065,7.953-20.486,18.109-20.486a15.509,15.509,0,0,1,11.423,4.974l-4.871,5.473a8.455,8.455,0,0,0-6.552-2.8c-5.129,0-8.976,4.717-8.976,12.549,0,8.038,3.167,12.7,9.332,12.7A5.98,5.98,0,0,0,551.863,194v-6.754h-5.678v-7.213h13.6v18.032a18.732,18.732,0,0,1-12.235,4.732C537.567,202.793,529.605,195.926,529.605,182.74Z"/><path class="cls-2" d="M98.024,269.146l5.078-6.077A16.725,16.725,0,0,0,113.5,267.15c3.755,0,5.489-1.455,5.489-3.366,0-2.815-2.324-3.5-6.024-5.046l-5.094-2.173c-4.332-1.646-8.286-4.969-8.286-10.659,0-6.476,5.833-11.652,14.328-11.652a18.949,18.949,0,0,1,12.986,5.12l-4.458,5.577a14.033,14.033,0,0,0-9.011-3.053c-2.914,0-4.893,1.207-4.893,3.492,0,2.351,2.621,3.212,6.371,4.618l4.784,2.027c5.12,1.92,8.353,5.113,8.353,10.629,0,6.5-5.453,12.129-15.132,12.129A22.527,22.527,0,0,1,98.024,269.146Z"/><path class="cls-2" d="M137.394,234.975h8.833v31.678h17.4v7.42H137.394Z"/><path class="cls-2" d="M172.539,234.975h25.917v7.42H181.389v7.84h14.5v7.42h-14.5v9h17.668v7.42H172.539Z"/><path class="cls-2" d="M216.571,242.4h-11.72v-7.42h32.291v7.42H225.421v31.678h-8.85Z"/><path class="cls-2" d="M252.57,242.4H240.85v-7.42h32.291v7.42H261.42v31.678h-8.85Z"/><path class="cls-2" d="M280.536,234.975h25.917v7.42H289.386v7.84h14.5v7.42h-14.5v9h17.668v7.42H280.536Z"/><path class="cls-2" d="M324.568,242.4h-11.72v-7.42h32.291v7.42H333.418v31.678h-8.85Z"/><path class="cls-2" d="M376.973,232.449l4.831,3.112L352.946,276.6l-4.832-3.114Zm-27.706,21.895c0-13.066,6.413-20.09,15.725-20.09s15.726,7.024,15.726,20.09c0,13.376-6.413,20.449-15.726,20.449S349.267,267.72,349.267,254.344Zm22.379,0c0-8.125-2.576-12.446-6.654-12.446s-6.652,4.321-6.652,12.446c0,8.434,2.574,12.806,6.652,12.806S371.646,262.778,371.646,254.344Z"/><path class="cls-2" d="M386.017,269.146l5.077-6.077a16.725,16.725,0,0,0,10.394,4.081c3.755,0,5.49-1.455,5.49-3.366,0-2.815-2.325-3.5-6.025-5.046l-5.094-2.173c-4.332-1.646-8.286-4.969-8.286-10.659,0-6.476,5.833-11.652,14.328-11.652a18.949,18.949,0,0,1,12.986,5.12l-4.458,5.577a14.033,14.033,0,0,0-9.011-3.053c-2.914,0-4.893,1.207-4.893,3.492,0,2.351,2.621,3.212,6.371,4.618l4.784,2.027c5.12,1.92,8.353,5.113,8.353,10.629,0,6.5-5.453,12.129-15.132,12.129A22.522,22.522,0,0,1,386.017,269.146Z"/><path class="cls-2" d="M430.992,268.686a6,6,0,1,1,12,0,6,6,0,1,1-12,0Zm1.884-26.834-.293-7.977H441.4l-.293,7.977-1.222,16.9H434.1Z"/></svg>
