<svg id="Layer_1" data-name="Layer 1" xmlns="http://www.w3.org/2000/svg" width="935" height="668" viewBox="0 0 935 668"><defs><style>.cls-1{fill:#fff;}.cls-2{fill:#ff7bac;}</style></defs><title>game_over</title><path class="cls-1" d="M757.428,11.008H156.738C70.624,11.008.166,77.709.166,159.232v275c0,81.524,70.458,148.225,156.572,148.225h7.594L26.249,668l327.9-85.541H757.428c86.115,0,156.572-66.7,156.572-148.225v-275C914,77.709,843.543,11.008,757.428,11.008Z"/><path class="cls-2" d="M106.475,103.975h13.871c8.483,0,15.315,3.07,15.315,12.575,0,9.206-7.022,13.262-15.315,13.262h-5.022v13.261h-8.849Zm13.357,18.813c4.849,0,7.152-2.174,7.152-6.238,0-4.081-2.493-5.552-7.152-5.552h-4.508v11.79Z"/><path class="cls-2" d="M142.164,103.975h13.9c8.283,0,15.1,2.879,15.1,12.181,0,8.986-6.815,12.852-15.1,12.852H151.03v14.065h-8.866Zm13.181,18.009c4.648,0,7.142-2,7.142-5.828,0-3.861-2.494-5.158-7.142-5.158H151.03v10.986Zm5.218-.978,12.476,22.067h-9.9l-8.7-16.4Z"/><path class="cls-2" d="M203.978,101.449l4.831,3.112L179.951,145.6l-4.832-3.114Zm-27.707,21.895c0-13.066,6.414-20.09,15.726-20.09s15.726,7.024,15.726,20.09c0,13.376-6.413,20.449-15.726,20.449S176.271,136.72,176.271,123.344Zm22.379,0c0-8.125-2.575-12.446-6.653-12.446s-6.652,4.321-6.652,12.446c0,8.434,2.574,12.806,6.652,12.806S198.65,131.778,198.65,123.344Z"/><path class="cls-2" d="M210.872,103.975h9.382l4.7,18.209c1.164,4.273,1.95,8.226,3.131,12.526h.24c1.18-4.3,2.027-8.253,3.13-12.526l4.611-18.209h9.057l-11.787,39.1H222.692Z"/><path class="cls-2" d="M251.537,103.975h25.917v7.42H260.387v7.84h14.5v7.42h-14.5v9h17.668v7.42H251.537Z"/><path class="cls-2" d="M286.16,103.975h13.9c8.282,0,15.1,2.879,15.1,12.181,0,8.986-6.815,12.852-15.1,12.852h-5.036v14.065H286.16Zm13.181,18.009c4.648,0,7.142-2,7.142-5.828,0-3.861-2.494-5.158-7.142-5.158h-4.315v10.986Zm5.219-.978,12.475,22.067h-9.9l-8.7-16.4Z"/><path class="cls-2" d="M358.218,103.975h10.8c11.342,0,18.8,5.937,18.8,19.369,0,13.449-7.459,19.729-18.3,19.729h-11.3Zm10.311,31.971c6.083,0,10.22-3.249,10.22-12.6,0-9.337-4.137-12.242-10.22-12.242h-1.463v24.844Z"/><path class="cls-2" d="M393.823,128.021V103.975h8.865V128.92c0,4.68,1.722,7.23,5.407,7.23,3.7,0,5.526-2.55,5.526-7.23V103.975h8.539v24.046c0,10.154-4.567,15.772-14.065,15.772C398.58,143.793,393.823,138.175,393.823,128.021Z"/><path class="cls-2" d="M474.686,103.975h10.608l12.177,39.1h-9.382l-5.049-19.794c-.99-3.9-2.181-8.484-3.12-12.611h-.24c-.957,4.127-2.044,8.707-3.034,12.611l-5.082,19.794h-9.056Zm-4.12,22.906h18.709v6.893H470.566Z"/><path class="cls-2" d="M511.563,111.4h-11.72v-7.42h32.291v7.42H520.413v31.678h-8.85Z"/><path class="cls-2" d="M573.012,138.146l5.077-6.077a16.725,16.725,0,0,0,10.394,4.081c3.755,0,5.49-1.455,5.49-3.366,0-2.815-2.325-3.5-6.025-5.046l-5.094-2.173c-4.332-1.646-8.286-4.969-8.286-10.659,0-6.476,5.833-11.652,14.328-11.652a18.945,18.945,0,0,1,12.986,5.12l-4.458,5.577a14.033,14.033,0,0,0-9.011-3.053c-2.914,0-4.892,1.207-4.892,3.492,0,2.351,2.621,3.212,6.371,4.618l4.783,2.027c5.12,1.92,8.353,5.113,8.353,10.629,0,6.5-5.453,12.129-15.132,12.129A22.522,22.522,0,0,1,573.012,138.146Z"/><path class="cls-2" d="M612.381,103.975h8.833v31.678h17.4v7.42H612.381Z"/><path class="cls-2" d="M654.681,103.975h10.608l12.177,39.1h-9.382l-5.049-19.794c-.99-3.9-2.181-8.484-3.12-12.611h-.24c-.957,4.127-2.044,8.707-3.034,12.611l-5.081,19.794H642.5Zm-4.119,22.906h18.709v6.893H650.562Zm2.607-31.535c0-3.6,2.763-5.936,6.815-5.936,4.037,0,6.816,2.332,6.816,5.936,0,3.586-2.779,5.919-6.816,5.919C655.932,101.265,653.169,98.932,653.169,95.346Zm9.312,0a2.508,2.508,0,1,0-2.5,2.633A2.486,2.486,0,0,0,662.481,95.346Z"/><path class="cls-2" d="M105.454,175.975h9.28l3.831,13.855,1.314,5.408h.24l1.3-5.408,3.849-13.855h9.28v39.1h-7.484v-12.1c0-4.4.773-13.937,1.186-18.162h-.18l-3,10.493-3.043,9.42h-4.292l-3.095-9.42-2.8-10.493h-.206c.446,4.225,1.185,13.758,1.185,18.162v12.1h-7.363Z"/><path class="cls-2" d="M142.443,207.653h9.13V183.4h-9.13v-7.42h27.11v7.42h-9.13v24.258h9.13v7.42h-27.11Z"/><path class="cls-2" d="M176.615,195.74c0-13.065,7.952-20.486,18.109-20.486a15.507,15.507,0,0,1,11.422,4.974l-4.871,5.473a8.452,8.452,0,0,0-6.551-2.8c-5.129,0-8.976,4.717-8.976,12.549,0,8.038,3.167,12.7,9.332,12.7A5.98,5.98,0,0,0,198.873,207v-6.754h-5.679v-7.213H206.8v18.032a18.733,18.733,0,0,1-12.236,4.732C184.577,215.793,176.615,208.926,176.615,195.74Z"/><path class="cls-2" d="M250.44,207.653h9.13V183.4h-9.13v-7.42h27.11v7.42h-9.13v24.258h9.13v7.42H250.44Z"/><path class="cls-2" d="M285.826,175.975h8.865v15.054H305.3V175.975h8.866v39.1H305.3V198.758H294.691v16.315h-8.865Z"/><path class="cls-2" d="M321.538,209.34l5.085-5.485c2.236,2.788,4.881,4.3,7.464,4.3,3.978,0,6.022-1.738,6.022-7.091V183.378h-15.27v-7.42h24.136v25.823c0,7.666-3.776,14.012-14.6,14.012A15.561,15.561,0,0,1,321.538,209.34Z"/><path class="cls-2" d="M359.534,175.975h25.917v7.42H368.384v7.84h14.5v7.42h-14.5v9h17.668v7.42H359.534Z"/><path class="cls-2" d="M396.387,175.975h8.833v31.678h17.4v7.42H396.387Z"/><path class="cls-2" d="M436.929,222.958c5.315-1.89,7.879-4.913,7.775-8.725l-.3-7.165,3.62,6.039a6.037,6.037,0,0,1-3.965,1.379c-3.4,0-6.5-2.191-6.5-6.144,0-3.719,3-6.161,6.748-6.161,4.881,0,7.433,3.848,7.433,10.276,0,7.627-4.348,13.109-12.637,15.612Z"/><path class="cls-2" d="M511.563,183.4h-11.72v-7.42h32.291v7.42H520.413v31.678h-8.85Z"/><path class="cls-2" d="M546.684,175.975h10.608l12.177,39.1h-9.382l-5.049-19.794c-.99-3.9-2.181-8.484-3.12-12.611h-.24c-.957,4.127-2.044,8.707-3.034,12.611l-5.082,19.794h-9.056Zm-4.12,22.906h18.709v6.893H542.564Z"/><path class="cls-2" d="M574.412,175.975h13.15c8.127,0,14.323,2.223,14.323,9.685a8.6,8.6,0,0,1-6.684,8.45v.241c5.587,1.03,8.514,3.976,8.514,9.2,0,7.956-6.519,11.519-15.035,11.519H574.412Zm12.743,15.693c4.3,0,6.087-1.814,6.087-4.765,0-2.918-1.908-4.045-6.019-4.045h-3.979v8.81Zm.8,16.521c4.815,0,7.113-1.744,7.113-5.308,0-3.432-2.248-4.849-7.113-4.849h-4.715v10.157Z"/><path class="cls-2" d="M611.527,175.975h25.917v7.42H620.377v7.84h14.5v7.42h-14.5v9h17.668v7.42H611.527Z"/><path class="cls-2" d="M646.15,175.975h13.9c8.282,0,15.1,2.879,15.1,12.181,0,8.986-6.815,12.852-15.1,12.852h-5.035v14.065H646.15Zm13.181,18.009c4.648,0,7.143-2,7.143-5.828,0-3.861-2.5-5.158-7.143-5.158h-4.314v10.986Zm5.219-.978,12.475,22.067h-9.9l-8.7-16.4Z"/><path class="cls-2" d="M699.353,185.051c0-2.461-1.934-3.77-4.436-3.77s-4.3,1.148-6.154,2.772l-4.888-4.475a15.549,15.549,0,0,1,11.646-5.424c6.875,0,12.285,3.184,12.285,9.793,0,7.9-9.778,8.887-9.061,15.805h-7.713C689.766,191.752,699.353,189.525,699.353,185.051Zm-10.207,24.635a6,6,0,1,1,12,0,6,6,0,1,1-12,0Z"/><path class="cls-2" d="M725.984,209.686a6,6,0,1,1,12,0,6,6,0,1,1-12,0Zm1.884-26.834-.293-7.977h8.816l-.293,7.977-1.223,16.9h-5.784Z"/></svg>
