<svg id="Layer_1" data-name="Layer 1" xmlns="http://www.w3.org/2000/svg" width="935" height="668" viewBox="0 0 935 668"><defs><style>.cls-1{fill:#fff;}.cls-2{fill:#ff7bac;}</style></defs><title>game_over</title><path class="cls-1" d="M757.43,11H156.74C70.62,11,.17,77.71.17,159.23v275c0,81.53,70.45,148.23,156.57,148.23h7.59L26.25,668l327.9-85.54H757.43c86.11,0,156.57-66.7,156.57-148.23v-275C914,77.71,843.54,11,757.43,11Z"/><path class="cls-2" d="M106.47,104h13.88c8.48,0,15.31,3.07,15.31,12.58,0,9.21-7,13.26-15.31,13.26h-5v13.26h-8.85Zm13.36,18.82c4.85,0,7.15-2.18,7.15-6.24s-2.49-5.55-7.15-5.55h-4.51v11.79Z"/><path class="cls-2" d="M142.16,104h13.91c8.28,0,15.09,2.88,15.09,12.19,0,9-6.81,12.85-15.09,12.85h-5v14.06h-8.87Zm13.18,18c4.65,0,7.15-2,7.15-5.82S160,111,155.34,111H151v11Zm5.22-1L173,143.07h-9.9l-8.7-16.39Z"/><path class="cls-2" d="M204,101.45l4.83,3.11L180,145.6l-4.83-3.11Zm-27.71,21.89c0-13.06,6.41-20.09,15.73-20.09s15.72,7,15.72,20.09c0,13.38-6.41,20.45-15.72,20.45S176.27,136.72,176.27,123.34Zm22.38,0c0-8.12-2.57-12.44-6.65-12.44s-6.66,4.32-6.66,12.44c0,8.44,2.58,12.81,6.66,12.81S198.65,131.78,198.65,123.34Z"/><path class="cls-2" d="M210.87,104h9.38l4.7,18.21c1.17,4.28,2,8.23,3.13,12.53h.24c1.18-4.3,2-8.25,3.13-12.53L236.06,104h9.06l-11.79,39.1H222.69Z"/><path class="cls-2" d="M251.54,104h25.91v7.42H260.39v7.85h14.5v7.42h-14.5v9h17.66v7.42H251.54Z"/><path class="cls-2" d="M286.16,104h13.9c8.28,0,15.1,2.88,15.1,12.19,0,9-6.82,12.85-15.1,12.85h-5v14.06h-8.87Zm13.18,18c4.65,0,7.14-2,7.14-5.82S304,111,299.34,111H295v11Zm5.22-1L317,143.07h-9.9l-8.7-16.39Z"/><path class="cls-2" d="M358.22,104H369c11.34,0,18.8,5.94,18.8,19.37s-7.46,19.73-18.3,19.73h-11.3Zm10.31,32c6.08,0,10.22-3.25,10.22-12.61s-4.14-12.24-10.22-12.24h-1.46V136Z"/><path class="cls-2" d="M393.82,128V104h8.87v24.95c0,4.68,1.72,7.23,5.4,7.23s5.53-2.55,5.53-7.23V104h8.54V128c0,10.15-4.57,15.77-14.07,15.77S393.82,138.17,393.82,128Z"/><path class="cls-2" d="M474.69,104h10.6l12.18,39.1h-9.38l-5-19.79c-1-3.9-2.18-8.49-3.12-12.61h-.24c-1,4.12-2,8.71-3,12.61l-5.09,19.79h-9.05Zm-4.12,22.91h18.71v6.89H470.57Z"/><path class="cls-2" d="M511.56,111.39H499.84V104h32.29v7.42H520.41v31.68h-8.85Z"/><path class="cls-2" d="M573,138.15l5.08-6.08a16.73,16.73,0,0,0,10.39,4.08c3.76,0,5.49-1.45,5.49-3.37,0-2.81-2.32-3.49-6-5l-5.1-2.17c-4.33-1.65-8.28-5-8.28-10.66,0-6.48,5.83-11.66,14.33-11.66a19,19,0,0,1,13,5.12L597.42,114a14,14,0,0,0-9-3c-2.91,0-4.89,1.21-4.89,3.49s2.62,3.21,6.37,4.62l4.78,2c5.12,1.92,8.36,5.11,8.36,10.62,0,6.5-5.45,12.13-15.13,12.13A22.54,22.54,0,0,1,573,138.15Z"/><path class="cls-2" d="M612.38,104h8.83v31.68h17.41v7.42H612.38Z"/><path class="cls-2" d="M654.68,104h10.61l12.18,39.1h-9.39l-5-19.79c-1-3.9-2.19-8.49-3.12-12.61h-.25c-.95,4.12-2,8.71-3,12.61l-5.08,19.79H642.5Zm-4.12,22.91h18.71v6.89H650.56Zm2.61-31.53c0-3.61,2.76-5.94,6.81-5.94s6.82,2.33,6.82,5.94-2.78,5.91-6.82,5.91S653.17,98.93,653.17,95.35Zm9.31,0A2.51,2.51,0,1,0,660,98,2.49,2.49,0,0,0,662.48,95.35Z"/><path class="cls-2" d="M105.45,176h9.28l3.84,13.86,1.31,5.41h.24l1.3-5.41L125.26,176h9.28v39.1h-7.48V203c0-4.4.77-13.94,1.19-18.16h-.18l-3,10.49-3,9.42h-4.3l-3.09-9.42-2.8-10.49h-.21c.45,4.22,1.19,13.76,1.19,18.16v12.1h-7.37Z"/><path class="cls-2" d="M142.44,207.65h9.13V183.39h-9.13V176h27.11v7.42h-9.13v24.26h9.13v7.42H142.44Z"/><path class="cls-2" d="M176.62,195.74c0-13.07,7.95-20.49,18.1-20.49a15.5,15.5,0,0,1,11.43,5l-4.87,5.47a8.49,8.49,0,0,0-6.56-2.8c-5.13,0-9,4.72-9,12.55,0,8,3.17,12.7,9.33,12.7a6,6,0,0,0,3.79-1.15v-6.76h-5.68V193H206.8v18a18.75,18.75,0,0,1-12.24,4.73C184.58,215.79,176.62,208.93,176.62,195.74Z"/><path class="cls-2" d="M250.44,207.65h9.13V183.39h-9.13V176h27.11v7.42h-9.13v24.26h9.13v7.42H250.44Z"/><path class="cls-2" d="M285.83,176h8.86V191H305.3V176h8.86v39.1H305.3V198.76H294.69v16.31h-8.86Z"/><path class="cls-2" d="M321.54,209.34l5.08-5.48c2.24,2.78,4.88,4.29,7.47,4.29,4,0,6-1.74,6-7.09V183.38H324.84V176H349v25.82c0,7.67-3.77,14-14.59,14A15.55,15.55,0,0,1,321.54,209.34Z"/><path class="cls-2" d="M359.53,176h25.92v7.42H368.38v7.85h14.5v7.42h-14.5v9h17.67v7.42H359.53Z"/><path class="cls-2" d="M396.39,176h8.83v31.68h17.4v7.42H396.39Z"/><path class="cls-2" d="M436.93,223c5.31-1.89,7.88-4.92,7.77-8.73l-.3-7.16,3.62,6a6,6,0,0,1-4,1.38c-3.4,0-6.5-2.2-6.5-6.15,0-3.72,3-6.16,6.75-6.16,4.88,0,7.43,3.85,7.43,10.28,0,7.62-4.35,13.11-12.64,15.61Z"/><path class="cls-2" d="M511.56,183.39H499.84V176h32.29v7.42H520.41v31.68h-8.85Z"/><path class="cls-2" d="M546.68,176h10.61l12.18,39.1h-9.38L555,195.28c-1-3.9-2.18-8.49-3.12-12.61h-.24c-1,4.12-2,8.71-3,12.61l-5.08,19.79h-9Zm-4.12,22.91h18.71v6.89H542.56Z"/><path class="cls-2" d="M574.41,176h13.15c8.13,0,14.32,2.23,14.32,9.69a8.6,8.6,0,0,1-6.68,8.45v.24c5.59,1,8.51,4,8.51,9.2,0,8-6.51,11.52-15,11.52H574.41Zm12.75,15.7c4.29,0,6.08-1.82,6.08-4.77s-1.91-4-6-4h-4v8.81Zm.8,16.52c4.81,0,7.11-1.74,7.11-5.31S592.82,198,588,198h-4.72v10.16Z"/><path class="cls-2" d="M611.53,176h25.91v7.42H620.38v7.85h14.5v7.42h-14.5v9H638v7.42H611.53Z"/><path class="cls-2" d="M646.15,176h13.9c8.28,0,15.1,2.88,15.1,12.19,0,9-6.82,12.85-15.1,12.85h-5v14.06h-8.87Zm13.18,18c4.65,0,7.14-2,7.14-5.82S664,183,659.33,183H655v11Zm5.22-1L677,215.07h-9.9l-8.7-16.39Z"/><path class="cls-2" d="M699.35,185.05c0-2.46-1.93-3.77-4.43-3.77s-4.3,1.15-6.16,2.77l-4.88-4.47a15.54,15.54,0,0,1,11.64-5.43c6.88,0,12.29,3.19,12.29,9.8,0,7.9-9.78,8.88-9.06,15.8H691C689.77,191.75,699.35,189.53,699.35,185.05Zm-10.2,24.64a6,6,0,1,1,12,0,6,6,0,1,1-12,0Z"/><path class="cls-2" d="M726,209.69a6,6,0,1,1,12,0,6,6,0,1,1-12,0Zm1.89-26.84-.29-8h8.81l-.29,8-1.22,16.9h-5.79Z"/><rect class="cls-2" x="91" y="324" width="345" height="161" rx="35.95"/><path d="M204.68,388.22h7.42l3.07,11.09,1.05,4.33h.19l1-4.33,3.08-11.09H228v31.29h-6v-9.69c0-3.52.62-11.15.95-14.53h-.15l-2.4,8.4-2.43,7.53H214.5L212,403.69l-2.24-8.4h-.17c.36,3.38.95,11,.95,14.53v9.69h-5.89Z"/><path d="M235.15,388.22h20.74v5.94H242.23v6.27h11.6v5.94h-11.6v7.2h14.14v5.94H235.15Z"/><path d="M262.69,388.22H270l6.58,15.56,2.68,6.87h.16c-.32-3.29-1-7.68-1-11.37V388.22h6.75v31.29h-7.25l-6.59-15.59-2.67-6.84h-.17c.32,3.46,1,7.65,1,11.33v11.1h-6.75Z"/><path d="M291.38,407.46V388.22h7.09v20c0,3.75,1.38,5.79,4.33,5.79s4.42-2,4.42-5.79v-20h6.83v19.24c0,8.13-3.65,12.62-11.25,12.62S291.38,415.59,291.38,407.46Z"/><rect class="cls-2" x="484" y="324" width="345" height="161" rx="35.95"/><path d="M527.93,417.11l4.06-4.86a13.44,13.44,0,0,0,8.32,3.26c3,0,4.39-1.16,4.39-2.69,0-2.25-1.86-2.8-4.82-4L535.8,407c-3.46-1.31-6.63-4-6.63-8.52,0-5.19,4.67-9.33,11.47-9.33a15.14,15.14,0,0,1,10.39,4.1l-3.57,4.46a11.22,11.22,0,0,0-7.21-2.44c-2.33,0-3.91,1-3.91,2.79s2.09,2.57,5.09,3.7l3.83,1.62c4.1,1.54,6.69,4.09,6.69,8.5,0,5.2-4.37,9.71-12.11,9.71A18,18,0,0,1,527.93,417.11Z"/><path d="M557.89,389.77H569c6.79,0,12.25,2.45,12.25,10.06,0,7.37-5.62,10.61-12.25,10.61h-4v10.61h-7.08Zm10.69,15.05c3.88,0,5.72-1.74,5.72-5s-2-4.44-5.72-4.44H565v9.43Z"/><path d="M586.67,415.12H594V395.71h-7.3v-5.94h21.69v5.94h-7.31v19.41h7.31v5.93H586.67Z"/><path d="M617,389.77h7.06v25.35H638v5.93H617Z"/><path d="M673.06,415.12h7.31V395.71h-7.31v-5.94h21.69v5.94h-7.3v19.41h7.3v5.93H673.06Z"/><path d="M700.4,405.58c0-10.45,6.37-16.39,14.49-16.39a12.42,12.42,0,0,1,9.14,4l-3.9,4.38a6.76,6.76,0,0,0-5.24-2.24c-4.1,0-7.18,3.77-7.18,10,0,6.43,2.53,10.16,7.47,10.16a4.76,4.76,0,0,0,3-.92v-5.4h-4.54v-5.78h10.88v14.43a15,15,0,0,1-9.79,3.79C706.77,421.63,700.4,416.13,700.4,405.58Z"/><path d="M731.54,389.77h20.74v5.94H738.62V402h11.6v5.94h-11.6v7.2h14.14v5.93H731.54Z"/><path d="M759.08,389.77h7.26l6.58,15.55,2.68,6.88h.16c-.31-3.3-1-7.68-1-11.37V389.77h6.75v31.28h-7.26l-6.58-15.59L765,398.62h-.17c.32,3.46,1,7.66,1,11.34v11.09h-6.75Z"/></svg>
