<svg xmlns="http://www.w3.org/2000/svg" width="150" height="220" viewBox="0 0 150 220"><defs><style>.cls-1{fill:#4d4dff;}.cls-2{fill:#bfb4a6;}.cls-3{fill:none;stroke:#000;stroke-miterlimit:10;}.cls-4{fill:#e9e0d6;}</style></defs><title>God svamp1</title><g id="Layer_2" data-name="Layer 2"><path class="cls-1" d="M130.62,108.55q-51.72,2.19-106,2.23c-6.92,0-13.08-5-13.8-11.11S9.32,87.45,8.41,81.36C6.05,65,11,51.63,23.7,40.53,36.14,29.42,56.26,20.59,79.24,13h0c23-7,42.84-10.32,54.51-2.26,11.94,7.55,15.69,26.45,12.85,51.92Q145,76.83,143.81,91C143,100.49,137.21,108.4,130.62,108.55Z"/><path class="cls-2" d="M128,98.59c.9-12.65-21.44-16.86-51-13.22-29.54,3.32-53.13,9.75-52.25,18.25.2,2.11,3.38,6.42,6.51,6.73,8.81,1.17,83.8-1,91.13-2C126.14,108.09,127.82,102,128,98.59Z"/><path class="cls-3" d="M127.46,92.52c-6.53,6.24-15.73,10.81-27.79,13.75"/><path class="cls-3" d="M120.13,87A61.78,61.78,0,0,1,96,106.69"/><path class="cls-3" d="M110.24,84.65c-5.59,9.69-11.56,16.81-18.1,21.88"/><path class="cls-3" d="M99.83,83.88C96,94.51,92,102.53,87.43,107"/><path class="cls-3" d="M89.27,84.38c-.85,9.08-3.42,16.91-8,22.86"/><path class="cls-3" d="M79.36,85.09a47.61,47.61,0,0,1-1.3,22.19"/><path class="cls-3" d="M73.7,85.86c-1.75,8.5-2.07,15.82-.17,21.62"/><path class="cls-3" d="M66.17,86.56a36.89,36.89,0,0,0,2.89,21"/><path class="cls-3" d="M59.89,87.44c-.59,8.18,1.46,14.91,6.23,20.38"/><path class="cls-3" d="M50,89.36a42.61,42.61,0,0,0,12.1,18.41"/><path class="cls-3" d="M40.18,91.69a138.87,138.87,0,0,0,18.51,16.15"/><path class="cls-3" d="M32.45,95.28c6.35,5.82,14.39,9.76,24.26,11.78"/><path class="cls-3" d="M25.39,101.13a56.43,56.43,0,0,0,28.37,6.66"/><path class="cls-4" d="M87.94,212.55A199.89,199.89,0,0,0,68,206.39c-7.42-1.92-13.35-9.08-13.25-16.57q.39-38.38-.79-76A15.43,15.43,0,0,1,65.12,98.62,54.39,54.39,0,0,1,75,96.57,44.83,44.83,0,0,1,89,97.14c6.71,1.31,11.08,8.1,10.88,16.33q-1,44.25.81,88.68C101,211,95.37,215.32,87.94,212.55Z"/><path class="cls-3" d="M128.35,98.73c-6.79,5.1-16.12,8-28.26,9.24"/><path class="cls-3" d="M25.26,106a82.79,82.79,0,0,0,28.56,3.87"/></g></svg>