<svg xmlns="http://www.w3.org/2000/svg" width="150" height="220" viewBox="0 0 150 220"><defs><style>.cls-1{fill:#ff7bac;}.cls-2{fill:#bfb4a6;}.cls-3{fill:none;stroke:#000;stroke-miterlimit:10;}.cls-4{fill:#e9e0d6;}</style></defs><title>God svamp4</title><g id="Layer_2" data-name="Layer 2"><path class="cls-1" d="M134.84,100.21a421.33,421.33,0,0,1-116.72,6.51c-7.41-.53-12.56-8.49-11.54-17.42s2-17.79,3-26.69c2.74-23.81,12-41.81,24-50.93,12-9.42,26.75-9.95,42.9-5.66h0c31.61,9.84,60.79,30.56,67,62.17q1.49,9.07,3,18.16C147.4,92.35,142.24,98.72,134.84,100.21Z"/><path class="cls-2" d="M130.46,93.6c-1.19-8.55-25.69-11.1-55.3-12S21.07,84.66,19.82,96.88c-.28,3,2.17,9.18,5.49,9.81,4.29.91,27.31,2.33,50.27.83a385.84,385.84,0,0,0,50-6C129.77,100.68,130.76,96.06,130.46,93.6Z"/><path class="cls-3" d="M128.88,89.31c-6.09,5-15.68,9.69-28.83,13.24"/><path class="cls-3" d="M120.16,85.6c-5.29,6.59-13.31,12.56-24.13,17.59"/><path class="cls-3" d="M109.37,83.71a66.06,66.06,0,0,1-17.62,19.56"/><path class="cls-3" d="M98.44,82.52c-3.09,9.28-7,16.87-11.87,21.46"/><path class="cls-3" d="M87.59,82.05c-.42,8.71-2.83,16.18-7.74,22.35"/><path class="cls-3" d="M77.52,81.61c1.54,9,.89,16.3-1.26,22.91"/><path class="cls-3" d="M71.79,81.66c-1.88,8.85-2.49,16.93-.5,23.12"/><path class="cls-3" d="M64.19,81.32c-1.41,8.53-.8,16.57,2.21,23.6"/><path class="cls-3" d="M57.85,81.35c-1.18,9.39.37,17.61,5.34,23.79"/><path class="cls-3" d="M47.76,82c1.42,8.58,4.79,16.5,11,23"/><path class="cls-3" d="M37.7,83.29A78,78,0,0,0,55.11,105"/><path class="cls-3" d="M29.34,86.7C34.6,95.46,42.54,101.25,53,104"/><path class="cls-3" d="M21,93.56a41,41,0,0,0,28.81,11.22"/><path class="cls-4" d="M87.81,206.54,62,213.76c-9.62,2.75-17.13-2.28-16.68-11.21L49.46,112c.41-8.45,5.85-15.51,13.09-17.29A54.34,54.34,0,0,1,73,93.21a59.71,59.71,0,0,1,14.81,1.17,15.81,15.81,0,0,1,12.89,14.55l3.81,78.72C105,195.3,97.43,203.81,87.81,206.54Z"/><path class="cls-3" d="M130.83,93.66c-6.67,4.48-16.76,8.21-30.19,10.37"/><path class="cls-3" d="M19.81,100.18a57.85,57.85,0,0,0,29.85,7.07"/></g></svg>