<svg xmlns="http://www.w3.org/2000/svg" width="150" height="220" viewBox="0 0 150 220"><defs><style>.cls-1{fill:#ffc433;}.cls-2{fill:#bfb4a6;}.cls-3{fill:none;stroke:#000;stroke-miterlimit:10;}.cls-4{fill:#e9e0d6;}</style></defs><title>God svamp3</title><g id="Layer_2" data-name="Layer 2"><path class="cls-1" d="M128.67,120.14c-37.1,20.79-74.2-45.55-111.3-20.1-7.14,4.78-12.19,6-11.21-2.5S8.06,80.62,9,72.2c2.56-24,11.81-48.57,23.34-58.46C44,2.55,58,6,73,8h0c15,2,29,19.9,40.67,33.64C125.22,56.5,134.47,67.26,137,81q1.42,8.82,2.85,17.56C140.86,104.29,135.81,116.24,128.67,120.14Z"/><path class="cls-2" d="M124.44,114.54c-.51-4.73-6.82-5.13-16.33-10.1C98.56,100,85.81,91,71.78,81.41S45,68.17,35.42,71.71C25.89,74.7,19.56,84.83,19,90c-.27,2.8,2.09,6.63,5.27,5.8,2.12-.28,8.64-3,17.35-1.21,8.72,1.32,19.63,7.13,30.52,13.25s21.78,12.52,30.45,14.66a35.28,35.28,0,0,0,17.18.63C123.78,122.09,124.74,117,124.44,114.54Z"/><path class="cls-3" d="M122.91,110.36c-5.86,6.35-15,10.11-27.54,6.82"/><path class="cls-3" d="M114.52,106.67c-5.06,6.41-12.7,10.06-23,9"/><path class="cls-3" d="M104.2,102.12c-4.48,6.61-10.11,10.19-16.71,11.22"/><path class="cls-3" d="M93.81,96c-2.91,8-6.59,13.33-11.24,14.94"/><path class="cls-3" d="M83.53,89.37C83.14,98,80.86,104,76.21,107.23"/><path class="cls-3" d="M74,82.83c1.45,9.93.84,16.94-1.2,22.32"/><path class="cls-3" d="M68.6,79.54c-1.79,7.7-2.38,15.46-.5,22.9"/><path class="cls-3" d="M61.41,75.17a50.58,50.58,0,0,0,2.06,24.66"/><path class="cls-3" d="M55.41,72.38a42,42,0,0,0,5,26"/><path class="cls-3" d="M45.82,70c1.33,8.32,4.51,16.78,10.41,26.13"/><path class="cls-3" d="M36.22,70.67c4.21,7,9.76,14.86,16.54,24"/><path class="cls-3" d="M28.2,75.69c5.05,5.86,12.62,10.73,22.58,17.19"/><path class="cls-3" d="M20.14,86.22A193,193,0,0,1,47.7,92.64"/><path class="cls-4" d="M83.81,211.55l-24.72,7.07c-9.21,2.88-16.37-4.51-15.92-15.85q2.1-57,4.19-102.84C47.78,91.39,53,85.79,59.83,87.6a39.3,39.3,0,0,1,9.94,4.19,94.47,94.47,0,0,1,14,10.26c6.8,6,11.89,14.53,12.26,21.77q1.88,39.47,3.76,71.71C100.21,201.61,93,208.63,83.81,211.55Z"/><path class="cls-3" d="M124.79,114.52c-6.43,6.19-16.09,9.13-28.86,4.42"/><path class="cls-3" d="M19,92.93c8.49-1.82,18-.7,28.57,2.17"/></g></svg>