<svg xmlns="http://www.w3.org/2000/svg" width="37.149" height="38.594" viewBox="0 0 37.149 38.594"><defs><style>.cls-1{fill:none;stroke:#000;stroke-miterlimit:10;}.cls-2{fill:#001300;}.cls-3{fill:#ed1c24;}</style></defs><title>Hjerte</title><g id="Layer_2" data-name="Layer 2"><line class="cls-1" x1="29.275" y1="7.702" x2="33.999" y2="3.085"/><polygon class="cls-2" points="37.149 0 36.503 3.367 35.857 6.734 33.005 4.198 30.152 1.662 33.651 0.831 37.149 0"/><ellipse class="cls-3" cx="10.748" cy="20.504" rx="8.27" ry="19.463" transform="translate(-7.126 5.792) rotate(-22.88)"/><ellipse class="cls-3" cx="21.257" cy="20.268" rx="18.62" ry="8.644" transform="translate(-2.644 37.338) rotate(-79.17)"/><line class="cls-1" x1="4.016" y1="34.789" x2="11.368" y2="27.681"/><line class="cls-1" x1="9.025" y1="35.211" x2="8.613" y2="30.429"/><line class="cls-1" x1="4.938" y1="38.544" x2="4.673" y2="34.167"/><line class="cls-1" x1="0.066" y1="33.636" x2="4.402" y2="34.214"/><line class="cls-1" x1="1.906" y1="31.829" x2="6.372" y2="32.345"/><line class="cls-1" x1="4.278" y1="29.851" x2="8.744" y2="30.368"/><line class="cls-1" x1="7.055" y1="37.08" x2="6.643" y2="32.298"/></g></svg>
