<svg id="Layer_1" data-name="Layer 1" xmlns="http://www.w3.org/2000/svg" width="940" height="710" viewBox="0 0 940 710"><defs><style>.cls-1{fill:#fff;}.cls-2{fill:#ff7bac;}.cls-3,.cls-4{fill:none;stroke:#000;stroke-miterlimit:10;}.cls-3{stroke-width:6px;}.cls-4{stroke-width:4px;}</style></defs><title>indstillinger</title><path class="cls-1" d="M769.93,33.51H169.24c-86.12,0-156.57,66.7-156.57,148.22v275C12.67,538.26,83.12,605,169.24,605h7.59L38.75,690.5,366.65,605H769.93C856,605,926.5,538.26,926.5,456.73v-275C926.5,100.21,856,33.51,769.93,33.51Z"/><path d="M274.9,395.46h4.84v34.08h18.87v4.13H274.9Z"/><path d="M317.07,420l-12.81-24.58h5.18l5.71,11.3c1.46,3,2.8,5.89,4.37,8.92h.23c1.52-3,3-5.95,4.49-8.92l5.53-11.3h5L322,420v13.63h-4.89Z"/><path d="M342.06,395.46h9.44c11.47,0,17.7,6.82,17.7,18.93s-6.23,19.28-17.47,19.28h-9.67Zm9.09,34.19c8.68,0,13-5.59,13-15.26s-4.31-14.91-13-14.91H347v30.17Z"/><path d="M378.58,395.46h23.65v4.14H383.48v11.94h15.84v4.14H383.48v13.86h19.33v4.13H378.58Z"/><path d="M414.64,395.46h23.47v4.14H419.53v12.87h15.73v4.14H419.53v17.06h-4.89Z"/><path d="M449.59,395.46h23.47v4.14H454.48v12.87h15.73v4.14H454.48v17.06h-4.89Z"/><path d="M483.43,395.46h23.65v4.14H488.32v11.94h15.85v4.14H488.32v13.86h19.34v4.13H483.43Z"/><path d="M517.39,395.46h5v19.11h.18l16-19.11h5.59l-21.78,26v12.17h-5Zm10.83,16.9,3-3.85,14.33,25.16H540Z"/><path d="M561.72,399.6H549.08v-4.14h30.17v4.14H566.61v34.07h-4.89Z"/><path d="M588.28,395.46h23.65v4.14H593.17v11.94H609v4.14H593.17v13.86h19.34v4.13H588.28Z"/><path d="M622.35,395.46h11.94c7.75,0,13.4,2.8,13.4,10.78,0,7.63-5.65,11.3-13.4,11.3h-7v16.13h-5Zm11.25,18.12c5.94,0,9.2-2.45,9.2-7.34s-3.26-6.81-9.2-6.81h-6.29v14.15Zm3.55.06,11.65,20h-5.54l-10-17.47Z"/><path d="M271.45,263.84h5.94l5.36,16.31,1.86,6.18h.24l1.8-6.18,5.42-16.31H298v38.21h-4.66V283c0-3.73.58-10.25.82-13.51H294l-2.15,7.45-5.48,15h-3.49l-5.36-15-2.22-7.45h-.11c.35,3.26.81,9.78.81,13.51v19.1h-4.54Z"/><path d="M306.81,287.61V263.84h4.95v23.88c0,7.87,3.44,10.72,8,10.72s8.09-2.85,8.09-10.72V263.84h4.72v23.77c0,10.95-5.36,15.14-12.81,15.14S306.81,298.56,306.81,287.61Z"/><path d="M341.06,297.1l2.91-3.38a16,16,0,0,0,11.18,4.72c5.25,0,8.27-2.5,8.27-6,0-4.08-3-5.24-6.81-6.87l-5.53-2.45c-3.79-1.51-8.22-4.19-8.22-9.84,0-5.82,5.25-10.14,12.53-10.14a16.68,16.68,0,0,1,11.76,4.72L364.59,271a13.41,13.41,0,0,0-9.38-3.55c-4.42,0-7.4,2.09-7.4,5.53,0,3.67,3.56,5,6.82,6.29l5.36,2.39c4.72,1.86,8.44,4.54,8.44,10.19,0,6.06-5.12,10.89-13.51,10.89A19.41,19.41,0,0,1,341.06,297.1Z"/><path d="M377.64,297.92h9.49V268h-9.49v-4.14h23.88V268H392v29.94h9.5v4.13H377.64Z"/><path d="M412.7,263.84h5V283h.17l16-19.11h5.59l-21.78,26v12.17h-5Zm10.84,16.89,3-3.84,14.33,25.16H435.3Z"/><path class="cls-2" d="M124.65,162.1h8.86V138.55h-8.86v-7.2H151v7.2H142.1V162.1H151v7.2H124.65Z"/><path class="cls-2" d="M159.14,131.35h8.8l8,18.86,3.25,8.35h.2c-.39-4-1.19-9.32-1.19-13.8V131.35h8.19v38h-8.8l-8-18.91-3.25-8.3h-.2c.38,4.2,1.19,9.28,1.19,13.75V169.3h-8.19Z"/><path class="cls-2" d="M194.33,131.35h10.49c11,0,18.25,5.76,18.25,18.8s-7.24,19.15-17.76,19.15h-11Zm10,31c5.9,0,9.92-3.15,9.92-12.23s-4-11.89-9.92-11.89h-1.42v24.12Z"/><path class="cls-2" d="M228.12,164.52l4.93-5.9a16.23,16.23,0,0,0,10.09,4c3.64,0,5.33-1.41,5.33-3.27,0-2.73-2.26-3.39-5.85-4.9l-5-2.11c-4.2-1.59-8-4.82-8-10.34,0-6.29,5.66-11.31,13.91-11.31a18.39,18.39,0,0,1,12.61,5L251.82,141a13.63,13.63,0,0,0-8.75-3c-2.83,0-4.75,1.17-4.75,3.39s2.55,3.11,6.19,4.48l4.64,2c5,1.86,8.11,5,8.11,10.31,0,6.32-5.3,11.78-14.69,11.78A21.88,21.88,0,0,1,228.12,164.52Z"/><path class="cls-2" d="M273.31,138.55H261.93v-7.2h31.35v7.2H281.9V169.3h-8.59Z"/><path class="cls-2" d="M299.4,162.1h8.86V138.55H299.4v-7.2h26.31v7.2h-8.86V162.1h8.86v7.2H299.4Z"/><path class="cls-2" d="M336.24,131.35h8.57V162.1h16.9v7.2H336.24Z"/><path class="cls-2" d="M371.19,131.35h8.57V162.1h16.9v7.2H371.19Z"/><path class="cls-2" d="M404.24,162.1h8.87V138.55h-8.87v-7.2h26.32v7.2H421.7V162.1h8.86v7.2H404.24Z"/><path class="cls-2" d="M438.73,131.35h8.8l8,18.86,3.25,8.35h.2c-.38-4-1.19-9.32-1.19-13.8V131.35H466v38h-8.8l-8-18.91-3.25-8.3h-.2c.39,4.2,1.19,9.28,1.19,13.75V169.3h-8.19Z"/><path class="cls-2" d="M472.37,150.53c0-12.68,7.72-19.88,17.58-19.88A15.06,15.06,0,0,1,501,135.47l-4.73,5.32a8.21,8.21,0,0,0-6.36-2.72c-5,0-8.72,4.58-8.72,12.18,0,7.8,3.08,12.33,9.06,12.33a5.86,5.86,0,0,0,3.69-1.12V154.9h-5.52v-7h13.21v17.5a18.14,18.14,0,0,1-11.88,4.6C480.1,170,472.37,163.33,472.37,150.53Z"/><path class="cls-2" d="M510.16,131.35h25.16v7.2H518.75v7.61h14.07v7.2H518.75v8.74H535.9v7.2H510.16Z"/><path class="cls-2" d="M543.77,131.35h13.49c8,0,14.66,2.79,14.66,11.82,0,8.72-6.62,12.48-14.66,12.48h-4.88V169.3h-8.61Zm12.8,17.48c4.51,0,6.93-1.94,6.93-5.66s-2.42-5-6.93-5h-4.19v10.67Zm5.06-1,12.11,21.42h-9.61l-8.44-15.92Z"/><circle class="cls-2" cx="156.5" cy="421.5" r="56"/><circle class="cls-2" cx="156.5" cy="286.5" r="56"/><circle class="cls-2" cx="807.5" cy="141.5" r="40"/><line class="cls-3" x1="788.93" y1="122.93" x2="826.07" y2="160.07"/><line class="cls-3" x1="826.07" y1="122.93" x2="788.93" y2="160.07"/><ellipse cx="133.49" cy="309.03" rx="12.99" ry="8.09"/><ellipse cx="171.51" cy="300.37" rx="12.99" ry="8.09"/><path d="M184.5,253.88c0,3.64,0,7.29,0,10.94l-42.75,9.94-2.45-10.51Z"/><rect x="177.35" y="256.14" width="7.15" height="44.05"/><rect x="139.32" y="264.42" width="7.15" height="45.18"/><rect x="119.5" y="407.81" width="19.03" height="26.6"/><polygon points="157.55 448.12 119.5 421.11 157.55 394.1 157.55 448.12"/><path class="cls-4" d="M176.47,451.5c20.22-15,19.47-41.71,1.19-56.84"/><path class="cls-4" d="M171.05,444c15-11.38,14.24-31.3.47-42.47"/><path class="cls-4" d="M165.42,438.08c10.39-8.43,9.38-22.57-.67-30.21"/></svg>
