<svg id="Layer_1" data-name="Layer 1" xmlns="http://www.w3.org/2000/svg" width="940" height="710" viewBox="0 0 940 710"><defs><style>.cls-1{fill:#fff;}.cls-2{fill:#ff7bac;}</style></defs><title>indstillinger_ny</title><path class="cls-1" d="M769.928,33.508H169.238c-86.114,0-156.572,66.7-156.572,148.224v275c0,81.524,70.458,148.225,156.572,148.225h7.594L38.749,690.5l327.9-85.541H769.928c86.115,0,156.572-66.7,156.572-148.225v-275C926.5,100.209,856.043,33.508,769.928,33.508Z"/><path d="M274.9,395.465h4.834v34.072h18.871v4.135H274.9Z"/><path d="M317.072,420.043l-12.813-24.578h5.183l5.708,11.3c1.456,2.97,2.8,5.882,4.369,8.912h.233c1.514-3.03,3.028-5.942,4.484-8.912l5.534-11.3h5.008l-12.813,24.578v13.629h-4.893Z"/><path d="M342.062,395.465H351.5c11.474,0,17.7,6.814,17.7,18.93,0,12.171-6.231,19.277-17.473,19.277h-9.668Zm9.086,34.189c8.678,0,12.989-5.592,12.989-15.259,0-9.611-4.311-14.911-12.989-14.911h-4.193v30.17Z"/><path d="M378.584,395.465H402.23V399.6H383.477v11.94h15.841v4.136H383.477v13.861h19.336v4.135H378.584Z"/><path d="M414.64,395.465h23.471V399.6H419.532v12.873h15.726v4.134H419.532v17.065H414.64Z"/><path d="M449.589,395.465h23.472V399.6h-18.58v12.873h15.726v4.134H454.481v17.065h-4.892Z"/><path d="M483.432,395.465h23.646V399.6H488.324v11.94h15.842v4.136H488.324v13.861h19.337v4.135H483.432Z"/><path d="M517.391,395.465h4.951v19.1h.175l16.016-19.1h5.591L522.342,421.5v12.172h-4.951Zm10.833,16.89,2.97-3.843,14.328,25.16h-5.533Z"/><path d="M561.717,399.6H549.078v-4.135h30.17V399.6H566.609v34.072h-4.892Z"/><path d="M588.279,395.465h23.647V399.6H593.172v11.94h15.842v4.136H593.172v13.861h19.337v4.135h-24.23Z"/><path d="M622.354,395.465h11.941c7.746,0,13.4,2.8,13.4,10.775,0,7.629-5.649,11.3-13.4,11.3h-6.989v16.133h-4.952ZM633.6,413.578c5.94,0,9.2-2.445,9.2-7.338,0-5.01-3.262-6.814-9.2-6.814h-6.29v14.152Zm3.552.059L648.8,433.672h-5.533L633.3,416.2Z"/><path d="M271.451,263.844h5.941l5.358,16.308,1.864,6.174h.233l1.805-6.174,5.417-16.308h5.941v38.207h-4.659v-19.1c0-3.726.582-10.25.815-13.511h-.175l-2.155,7.455-5.475,15.026h-3.494l-5.358-15.026-2.214-7.455h-.116c.349,3.261.815,9.785.815,13.511v19.1h-4.543Z"/><path d="M306.809,287.607V263.844h4.95v23.88c0,7.862,3.436,10.716,7.979,10.716,4.6,0,8.1-2.854,8.1-10.716v-23.88h4.718v23.763c0,10.95-5.359,15.143-12.814,15.143C312.225,302.75,306.809,298.557,306.809,287.607Z"/><path d="M341.059,297.1l2.912-3.378a16.072,16.072,0,0,0,11.182,4.717c5.243,0,8.271-2.5,8.271-6,0-4.077-2.971-5.242-6.815-6.873l-5.533-2.445c-3.786-1.516-8.212-4.194-8.212-9.844,0-5.824,5.241-10.134,12.523-10.134a16.66,16.66,0,0,1,11.764,4.718l-2.562,3.145a13.429,13.429,0,0,0-9.377-3.553c-4.427,0-7.4,2.1-7.4,5.533,0,3.669,3.553,5.009,6.815,6.29l5.358,2.388c4.718,1.864,8.446,4.543,8.446,10.193,0,6.057-5.125,10.891-13.513,10.891A19.42,19.42,0,0,1,341.059,297.1Z"/><path d="M377.639,297.916h9.493V267.979h-9.493v-4.135h23.88v4.135h-9.5v29.937h9.5v4.135h-23.88Z"/><path d="M412.7,263.844h4.951v19.1h.175l16.017-19.1h5.591l-21.783,26.035v12.172H412.7Zm10.833,16.89,2.971-3.843,14.328,25.16H435.3Z"/><path class="cls-2" d="M124.65,162.1h8.864v-23.55H124.65v-7.2h26.317v7.2H142.1V162.1h8.863v7.2H124.65Z"/><path class="cls-2" d="M159.137,131.346h8.8l7.988,18.869,3.249,8.341h.2c-.385-4-1.187-9.315-1.187-13.8V131.346h8.19V169.3h-8.805l-7.986-18.912-3.249-8.3h-.2c.384,4.2,1.187,9.281,1.187,13.746V169.3h-8.189Z"/><path class="cls-2" d="M194.335,131.346h10.486c11.011,0,18.252,5.763,18.252,18.8,0,13.055-7.241,19.153-17.767,19.153H194.335Zm10.011,31.036c5.9,0,9.92-3.153,9.92-12.234,0-9.064-4.016-11.884-9.92-11.884h-1.42v24.118Z"/><path class="cls-2" d="M228.119,164.518l4.93-5.9a16.237,16.237,0,0,0,10.09,3.962c3.644,0,5.329-1.412,5.329-3.268,0-2.732-2.256-3.393-5.849-4.9l-4.944-2.109c-4.206-1.6-8.044-4.825-8.044-10.348,0-6.287,5.662-11.311,13.909-11.311a18.39,18.39,0,0,1,12.606,4.97l-4.329,5.414a13.614,13.614,0,0,0-8.747-2.964c-2.829,0-4.749,1.172-4.749,3.389,0,2.283,2.544,3.119,6.185,4.484l4.643,1.967c4.97,1.865,8.11,4.964,8.11,10.319,0,6.31-5.294,11.774-14.69,11.774A21.869,21.869,0,0,1,228.119,164.518Z"/><path class="cls-2" d="M273.311,138.548H261.933v-7.2h31.346v7.2H281.9V169.3h-8.589Z"/><path class="cls-2" d="M299.4,162.1h8.864v-23.55H299.4v-7.2h26.317v7.2H316.85V162.1h8.863v7.2H299.4Z"/><path class="cls-2" d="M336.239,131.346h8.574V162.1h16.9v7.2h-25.47Z"/><path class="cls-2" d="M371.188,131.346h8.575V162.1h16.9v7.2h-25.47Z"/><path class="cls-2" d="M404.244,162.1h8.863v-23.55h-8.863v-7.2h26.317v7.2H421.7V162.1h8.864v7.2H404.244Z"/><path class="cls-2" d="M438.73,131.346h8.8l7.987,18.869,3.25,8.341h.2c-.385-4-1.187-9.315-1.187-13.8V131.346h8.19V169.3h-8.805l-7.986-18.912-3.249-8.3h-.2c.385,4.2,1.188,9.281,1.188,13.746V169.3h-8.19Z"/><path class="cls-2" d="M472.369,150.533c0-12.683,7.72-19.887,17.578-19.887a15.05,15.05,0,0,1,11.089,4.828l-4.728,5.314a8.205,8.205,0,0,0-6.361-2.722c-4.978,0-8.713,4.58-8.713,12.182,0,7.8,3.076,12.332,9.059,12.332a5.8,5.8,0,0,0,3.683-1.121V154.9h-5.513v-7H501.67v17.5A18.179,18.179,0,0,1,489.792,170C480.1,170,472.369,163.333,472.369,150.533Z"/><path class="cls-2" d="M510.156,131.346h25.159v7.2H518.747v7.612h14.077v7.2H518.747V162.1H535.9v7.2H510.156Z"/><path class="cls-2" d="M543.77,131.346h13.5c8.04,0,14.656,2.795,14.656,11.824,0,8.723-6.616,12.476-14.656,12.476h-4.889V169.3H543.77Zm12.8,17.482c4.512,0,6.933-1.941,6.933-5.658,0-3.748-2.421-5.007-6.933-5.007h-4.189v10.665Zm5.066-.95L573.742,169.3h-9.609l-8.447-15.918Z"/></svg>
