<svg xmlns="http://www.w3.org/2000/svg" xmlns:xlink="http://www.w3.org/1999/xlink" width="420" height="700" viewBox="0 0 420 700"><defs><style>.cls-1{isolation:isolate;}.cls-2{fill:gray;opacity:0.26;}.cls-3{fill:#efcc57;}.cls-14,.cls-4{fill:#c69c6d;}.cls-12,.cls-17,.cls-20,.cls-29,.cls-5,.cls-6{fill:none;}.cls-14,.cls-5{stroke:#f7931e;stroke-width:2px;}.cls-14,.cls-17,.cls-18,.cls-20,.cls-21,.cls-22,.cls-29,.cls-5{stroke-miterlimit:10;}.cls-7{fill:url(#linear-gradient);}.cls-8{opacity:0.51;fill:url(#linear-gradient-2);}.cls-10,.cls-8,.cls-9{mix-blend-mode:screen;}.cls-9{opacity:0.7;fill:url(#linear-gradient-3);}.cls-10{opacity:0.49;}.cls-11{fill:#fff;}.cls-12{stroke:#717171;stroke-miterlimit:1;stroke-width:0.59px;}.cls-13{opacity:0.58;}.cls-15,.cls-21,.cls-22{fill:#ff7bac;}.cls-16{fill:#231f20;}.cls-17,.cls-18,.cls-20,.cls-22,.cls-29{stroke:#000;}.cls-17,.cls-18{stroke-width:0.75px;}.cls-19{fill:#c1272d;}.cls-21{stroke:#1d1d1b;}.cls-21,.cls-22,.cls-29{stroke-width:0.5px;}.cls-23{fill:#f2f2f2;}.cls-24{fill:#f9a94b;}.cls-25{fill:#f15a24;}.cls-26{fill:#29abe2;}.cls-27{fill:#001300;}.cls-28{fill:#ed1c24;}</style><linearGradient id="linear-gradient" x1="-608.81" y1="1087.06" x2="-608.81" y2="1069.26" gradientTransform="translate(846.25 -843.35)" gradientUnits="userSpaceOnUse"><stop offset="0" stop-color="#656565"/><stop offset="0.62" stop-color="#1b1b1b"/><stop offset="0.63" stop-color="#545454"/><stop offset="0.98" stop-color="#3e3e3e"/></linearGradient><linearGradient id="linear-gradient-2" x1="-608.81" y1="1087.06" x2="-608.81" y2="1069.26" gradientTransform="translate(846.25 -843.35)" gradientUnits="userSpaceOnUse"><stop offset="0" stop-color="#0e0e0e"/><stop offset="0.5"/><stop offset="0.52" stop-color="#010101"/><stop offset="0.73" stop-color="#0b0b0b"/><stop offset="1" stop-color="#0e0e0e"/></linearGradient><linearGradient id="linear-gradient-3" x1="-618.06" y1="1078.16" x2="-599.57" y2="1078.16" gradientTransform="translate(846.25 -843.35)" gradientUnits="userSpaceOnUse"><stop offset="0" stop-color="#fff" stop-opacity="0.77"/><stop offset="0.2" stop-color="#fff" stop-opacity="0.65"/><stop offset="0.34" stop-color="#fff" stop-opacity="0.65"/><stop offset="0.35" stop-color="#fff" stop-opacity="0.65"/><stop offset="0.42" stop-color="#fff" stop-opacity="0.62"/><stop offset="0.54" stop-color="#fff" stop-opacity="0.53"/><stop offset="0.69" stop-color="#fff" stop-opacity="0.39"/><stop offset="0.85" stop-color="#fff" stop-opacity="0.2"/><stop offset="1" stop-color="#fff" stop-opacity="0"/><stop offset="1" stop-color="#7e7e7e" stop-opacity="0.09"/><stop offset="1" stop-color="#1b1b1b" stop-opacity="0.16"/></linearGradient></defs><title>Karakter</title><g class="cls-1"><g id="Layer_2" data-name="Layer 2"><ellipse class="cls-2" cx="261.36" cy="646.73" rx="142.37" ry="37.97"/><path class="cls-3" d="M343.75,549c-13.43-62.33-12.34,51.21-27.82.78s-26.78,21.56-34.26,1-43.62-27-40,1.11-20.11,42.39-29.54.83-29.94,67.69-30.1.84-35.51,39-35.49,1-15.16-6.28-15.39-14.55L118.89,102.33A92.3,92.3,0,0,1,202.05,7.9a14.84,14.84,0,0,1,11.15,3.58l9.66,8.33a15,15,0,0,0,15.45,2.51L276.62,6.63a14.77,14.77,0,0,1,5.91-1.13,64.2,64.2,0,0,1,62.76,62.39l13,465.75C358.53,541.9,357.17,611.35,343.75,549Z"/><path class="cls-4" d="M142.78,117.55c-2.72,6.69.7,15.07,8.54,18.21,7.94,2.87,12.48-5.53,9.84-16.93s-5.1-19.07-8.47-17.41S145.57,110.62,142.78,117.55Z"/><ellipse class="cls-5" cx="151.94" cy="166.15" rx="19.92" ry="38.03"/><path d="M230.53,186.92l5.39.71c39.21,5.75,73.05,33.73,78.44,59.92,8.87,46.48,33.85,89,53.59,129.73,5.51,11.43-3.75,28.22-22.21,46-18.59,17.36-46.37,35.69-80.93,41.37-3.21.56-6.43,1.06-9.67,1.52-70.11,10-126.31-36.78-121.61-66.61,7-54.07,25-104.33,31.84-159.57C170.4,207.68,192.07,181.21,230.53,186.92Z"/><path class="cls-4" d="M223.69,636.52a26.46,26.46,0,0,1,9.73-4.2c18.46-76.17,47.72-142.31,83.1-187.05-10.09-16.85-21.87-29.7-35.07-38.18C251.63,473.15,231.08,553.71,223.69,636.52Z"/><path class="cls-4" d="M332,604.49a17.7,17.7,0,0,1-.22-7.6c-49.16-50.18-88.07-101.07-110-144.14-14.91-3.25-27.45-3.47-37.26-.6C223.22,503.32,274.92,557,332,604.49Z"/><path d="M281.45,559.49c4.21-.4,7.58-3.22,11.4-4.93l-2.38-2.77c-29.69-34.9-53.36-68.89-68.68-99-14.91-3.25-27.45-3.47-37.26-.6,26.05,34.45,58,70,93.49,104.08C279.15,557.32,280.31,558.4,281.45,559.49Z"/><line class="cls-6" x1="256.07" y1="558.22" x2="236.15" y2="550.98"/><path class="cls-4" d="M238.73,188.45c-30.08,0-83.85,10.79-83.85-57.13,0-73.11,53.77-102.14,83.85-102.14S293.2,103.9,293.2,134A54.47,54.47,0,0,1,238.73,188.45Z"/><path class="cls-4" d="M230.53,186.92l5.39.71c39.21,5.75,73.05,33.73,78.44,59.92,8.87,46.48,33.85,89,53.59,129.73,5.51,11.43-239.12,52.08-234.42,22.25,7-54.07,25-104.33,31.84-159.57C170.4,207.68,192.07,181.21,230.53,186.92Z"/><rect x="227.17" y="217.01" width="27.36" height="48.8" rx="12" transform="translate(-83.92 137.44) rotate(-27.32)"/><rect x="219.56" y="212.64" width="6.65" height="17" rx="3.05" transform="translate(-76.62 126.94) rotate(-27.32)"/><rect class="cls-7" x="228.2" y="225.91" width="18.48" height="17.8" rx="3" transform="translate(-81.28 135.14) rotate(-27.32)"/><rect class="cls-8" x="228.2" y="225.91" width="18.48" height="17.8" rx="3" transform="translate(-81.28 135.14) rotate(-27.32)"/><rect class="cls-9" x="228.2" y="225.91" width="18.48" height="17.8" rx="3" transform="translate(-81.28 135.14) rotate(-27.32)"/><g class="cls-10"><path class="cls-11" d="M234.6,245.2c-2.74-.5-3.72-4.07-4.87-6.3-.81-1.57-3.5-4.94-3.07-6.91s5-3.46,6.48-4.21c1.87-1,4.89-3.4,7.14-3.36,2.47,0,3.56,3.78,4.48,5.56s3.89,5.54,3.45,7.65c-.4,1.94-4.62,3.26-6.1,4-2.41,1.25-4.86,2.91-7.51,3.55-.06,0,.05.72,0,.73,3.38-.83,6.58-3.07,9.65-4.66,1.93-1,4.21-1.7,4.09-4.3-.08-1.67-1.32-3.34-2.05-4.76-1.09-2.11-3-8.46-6-8.52-1.27,0-2.81,1.13-3.87,1.67l-5.78,3c-1.9,1-4.15,1.66-4.09,4.21,0,1.72,1.29,3.38,2.05,4.86,1.32,2.55,2.81,7.92,6,8.51C234.56,245.92,234.65,245.21,234.6,245.2Z"/></g><rect class="cls-12" x="228.2" y="225.91" width="18.48" height="17.8" rx="3" transform="translate(-81.28 135.14) rotate(-27.32)"/><g class="cls-13"><path d="M247.07,239.79l-7,3.64c-2,1-4.94,3.38-7.15,1.84-1.83-1.27-2.87-4.77-3.85-6.65-1.31-2.56-4.36-6.47-1.22-8.79,1.92-1.42,4.55-2.35,6.67-3.45,1.82-.93,5-3.37,7.14-2.3s3.25,5,4.22,6.93c1.33,2.56,4.41,6.43,1.23,8.78,0,0,0,.11,0,.12,3.17-2.34.74-5.23-.66-7.92-1.1-2.15-2-4.78-3.47-6.72-2.09-2.83-4.63-1-7,.26-2.61,1.34-10.16,3.51-9.69,7.38a11.37,11.37,0,0,0,1.54,3.36c1.31,2.53,2.41,5.47,4,7.82,2.12,3.06,4.58,1.35,7.17,0l8.1-4.19S247.05,239.8,247.07,239.79Z"/></g><ellipse cx="216.69" cy="371.69" rx="1.36" ry="2.72"/><ellipse class="cls-14" cx="217.47" cy="380.75" rx="5.32" ry="6.34"/><path class="cls-15" d="M341.74,318.89C331.49,298,322.66,276.34,318,253.76c-4.38-21.38-10.24-22.41-13.64-24.11-24.44-12.22-61.79,41.76-98.18,31.22-21.16-6.13-34.08-31.78-40-28.28-1.32.79-2.42,5.08-3.59,13.79-.43,3.26-.91,6.49-1.43,9.71a71.58,71.58,0,0,0-17.76,11.33A37,37,0,0,0,132,289.57a16.52,16.52,0,0,0,6.25,5.56c4.19,2,9.19,2.11,14.88.7-2.76,11.69-5.75,23.26-8.69,34.82C138.53,354,352,339.81,341.74,318.89Z"/><path class="cls-4" d="M391.31,281.15c.1-.11.2-.23.31-.34-.28-.21-59.87-54.65-101.67-69.73-1.67,4.8-3.16,9.54-4.46,14.16,37.14,14.06,65.4,41,84.3,57.51-5.35,3.24-10.9,6.46-15.89,9.4-11.25,6.55-19.79,11.73-26.1,15.71-12.49,7.92-17.95,11.72-42,20.36.7.84,1.85,1.54,1.94,2.67,9.89-2.62,24.86-7.42,36.8-11.58,12.29-4.29,21.56-7.93,28.25-11.08,10.33-4.89,15.55-9,27.84-16.59C381,291.91,391.88,282.19,391.31,281.15Z"/><path class="cls-16" d="M224.08,87.38s2.48-7.91,20.11-7.91,20.13,7.91,20.13,7.91c0-5.51-9-10-20.12-10S224.08,81.87,224.08,87.38Z"/><path class="cls-16" d="M168.84,89.19s2.49-7.91,20.11-7.91,20.13,7.91,20.13,7.91c0-5.5-9-10-20.12-10S168.84,83.69,168.84,89.19Z"/><path class="cls-17" d="M220.82,134.27c.7-6-3.67-9.43-7-8.79-3.07.6-6.78,4.9-6.76,10.08"/><ellipse class="cls-18" cx="216.23" cy="134.48" rx="1.36" ry="1.34"/><ellipse class="cls-18" cx="210.8" cy="134.48" rx="1.36" ry="1.34"/><path class="cls-19" d="M194.59,161.37a34.15,34.15,0,0,1,10.71-11.12c2.09-1.26,3.56-3.07,5.26-2.28,2.36,1.1,2.88,5.4,4.49,5.2s1.73-4.37,3.88-5.49c1.49-.77,2.88.79,4,1.32,7.54,3.38,12.23,10.83,13.17,12.37-.64,1.38-8.44,17.55-21.76,16.76C202.26,177.4,195.43,163.18,194.59,161.37Z"/><path class="cls-20" d="M236.12,161.5H194.5"/><path class="cls-15" d="M224,626.77a46.53,46.53,0,0,0,10.25,1.13A247,247,0,0,1,237.09,669a51.38,51.38,0,0,1-16.23.86A245.72,245.72,0,0,1,224,626.77Z"/><path class="cls-15" d="M231.63,631.57c3.52,4.13-.07,13-8,19.72s-30.5,20.19-34,16.06,13.35-24.26,21.29-31S228.12,627.44,231.63,631.57Z"/><path class="cls-21" d="M184.09,278c-.32.22-2.71,5.36-2.88,5.71C179.56,287,171.09,294.81,155.5,296c-.71.27-1.47.52-2.27.76"/><path class="cls-22" d="M281.87,287l-1.13.69c-12.83,5.84-47.46,24.18-54.81,12-3.18-6-1.16-15.22,3.29-24.32"/><path class="cls-4" d="M303.15,116.65c2.72,6.68-.7,15.06-8.54,18.21-7.94,2.86-12.48-5.53-9.84-16.94s5.1-19.06,8.47-17.41S300.36,109.72,303.15,116.65Z"/><ellipse class="cls-5" cx="295.01" cy="164.34" rx="19.92" ry="38.03"/><path class="cls-15" d="M322.34,596.84a19.62,19.62,0,0,0,5.89-3.94c13.88,6.6,25.16,14.34,33.75,22.68a73.79,73.79,0,0,1-12.11,11.92C343.68,616.68,334.48,606.3,322.34,596.84Z"/><path class="cls-15" d="M332.54,595.7c4.91.38,8.31,8.13,7.59,17.3s-6.49,31.64-11.4,31.26-7.11-23.48-6.39-32.65S327.62,595.31,332.54,595.7Z"/><path class="cls-3" d="M229,26.22s21.35,2.43,34.13,12c13.73,10.3,22.15,31.35,22.15,31.35s-22.7-3.76-35.91-14.34C237.56,45.81,229,26.22,229,26.22Z"/><path class="cls-3" d="M157.4,71.11s14.31-20.72,31.35-30.4c18.31-10.4,44.88-11.85,44.88-11.85S217.18,50.5,198.88,60.29C182.52,69,157.4,71.11,157.4,71.11Z"/><path class="cls-23" d="M96.85,110.13c-23.73,1.84-45.92,4.12-67.33,11.09Q29,116.7,28.36,112c21.61-5.54,44.12-6.83,68.2-8C96.67,106.11,96.76,108.13,96.85,110.13Z"/><path class="cls-24" d="M96.36,111.29c-9.56-.12-18.78.37-28,2.59q0-4.29-.06-8.89c9-1.06,18.08-.68,27.53.14Q96.11,108.34,96.36,111.29Z"/><ellipse class="cls-25" cx="29.58" cy="116.32" rx="1.22" ry="4.79" transform="translate(-29.04 11.59) rotate(-14.97)"/><path d="M254.51,562.14c.55-1.5,1.08-3,1.64-4.51,16.61-44.51,37.17-83,60.37-112.36-10.09-16.85-21.87-29.7-35.07-38.18-20.16,44.66-36.08,95.94-46.56,150.06-.1.5-.19,1-.29,1.51C241.35,559.2,247.87,560.9,254.51,562.14Z"/><path class="cls-4" d="M181.75,222.38c-21.5-3.49-62.82-18.75-107.94-16.42,1.34-10.87,2.47-16.73,2.48-26.33,0-6.89-.61-16.14-1.88-28.19-1.08-10.31-2.68-22.79-4.22-32a39.11,39.11,0,0,0,6.69.37c7.06.29,11.72-7.36,4.74-17C75.2,93.65,69.85,88.06,65.43,89.94c-3.73,1.68-8.49,11.3-7.15,20.33,1.39,4.74,4.76,7.16,8.58,8.37,1.86,21,.85,27.12-.78,40.1-.86,6.9-1.83,16.14-2.88,28.22-.58,6.3-1.19,13.41-1.94,20.11-.19,0-1.53,11.79-2.36,15.63,2.7-.32,5.45-.6,8.27-.83a231.46,231.46,0,0,1,31.74-.4c11.3,1.36,23.22,3.16,35.68,5.51,15.69,3,30.3,6.44,43.74,10.15A150.66,150.66,0,0,1,181.75,222.38Z"/><path class="cls-11" d="M165.62,112.36s11.85-12.27,22.15-12.5c11.06-.25,23.64,12.5,23.64,12.5s-13.06,12-24,11.67C177.69,123.73,165.62,112.36,165.62,112.36Z"/><path class="cls-26" d="M165.62,112.36s11.85-12.27,22.15-12.5c11.06-.25,23.64,12.5,23.64,12.5a118.62,118.62,0,0,0-45.79,0Z"/><path class="cls-18" d="M211.38,111.87a119.18,119.18,0,0,0-14.8-1.48c-2.23-.08-4.67-.1-8.71,0-5.36.15-12.93.51-22.34,1.48,0,0,5.4-.59,13.06-1,3.54-.21,6.67-.33,9.28-.41"/><path class="cls-17" d="M171.86,111a11,11,0,0,1,1.54-14.57"/><path class="cls-17" d="M168.91,111a10,10,0,0,1,1.5-13.66"/><path class="cls-17" d="M191,110.42a12.1,12.1,0,0,1,1.74-16.25"/><path class="cls-17" d="M187.27,110.42A12.1,12.1,0,0,1,189,94.17"/><path class="cls-17" d="M184.37,110.42a12.1,12.1,0,0,1,1.74-16.25"/><path class="cls-17" d="M180.89,110.42a12.1,12.1,0,0,1,1.74-16.25"/><path class="cls-17" d="M178,110.42a12.07,12.07,0,0,1,1.74-16.25"/><path class="cls-17" d="M174.5,111a11.36,11.36,0,0,1-2.32-7.74,11.69,11.69,0,0,1,4.06-7.74"/><path class="cls-17" d="M203,110.88a9.81,9.81,0,0,1,3.45-12.71"/><path class="cls-17" d="M199.72,111a9.39,9.39,0,0,1-1.54-7.25,10.24,10.24,0,0,1,5.1-6.4"/><path class="cls-17" d="M196.33,110.93a11.46,11.46,0,0,1-1-8.08,11.83,11.83,0,0,1,5.33-7"/><path class="cls-17" d="M194.24,110.42A12.1,12.1,0,0,1,196,94.17"/><path class="cls-17" d="M205.17,111.19a8.55,8.55,0,0,1,.16-6.1,8.8,8.8,0,0,1,4.75-4.59"/><ellipse class="cls-18" cx="181.78" cy="116.55" rx="4.35" ry="5.22"/><path class="cls-11" d="M220.85,112.36s11.86-12.27,22.16-12.5c11.06-.25,23.64,12.5,23.64,12.5s-13.07,12-24,11.67C232.93,123.73,220.85,112.36,220.85,112.36Z"/><path class="cls-26" d="M220.85,112.36s11.86-12.27,22.16-12.5c11.06-.25,23.64,12.5,23.64,12.5a118.67,118.67,0,0,0-45.8,0Z"/><path class="cls-18" d="M266.61,111.87a118.76,118.76,0,0,0-14.8-1.48c-2.22-.08-4.67-.1-8.7,0-5.36.15-12.94.51-22.35,1.48,0,0,5.41-.59,13.06-1,3.54-.21,6.67-.33,9.29-.41"/><path class="cls-17" d="M258.52,111A11,11,0,0,0,257,96.43"/><path class="cls-17" d="M261.46,111A10,10,0,0,0,260,97.34"/><path class="cls-17" d="M239.37,110.42a12.1,12.1,0,0,0-1.74-16.25"/><path class="cls-17" d="M243.11,110.42a12.08,12.08,0,0,0-1.75-16.25"/><path class="cls-17" d="M246,110.42a12.1,12.1,0,0,0-1.74-16.25"/><path class="cls-17" d="M249.49,110.42a12.1,12.1,0,0,0-1.74-16.25"/><path class="cls-17" d="M252.39,110.42a12.1,12.1,0,0,0-1.74-16.25"/><path class="cls-17" d="M255.87,111a11.29,11.29,0,0,0,2.33-7.74,11.73,11.73,0,0,0-4.07-7.74"/><path class="cls-17" d="M227.36,110.88a9.8,9.8,0,0,0-3.44-12.71"/><path class="cls-17" d="M230.66,111a9.39,9.39,0,0,0,1.54-7.25,10.27,10.27,0,0,0-5.1-6.4"/><path class="cls-17" d="M234.05,110.93a11.57,11.57,0,0,0,1-8.08,11.79,11.79,0,0,0-5.34-7"/><path class="cls-17" d="M236.14,110.42a12.1,12.1,0,0,0-1.74-16.25"/><path class="cls-17" d="M225.21,111.19a8.61,8.61,0,0,0-.16-6.1,8.8,8.8,0,0,0-4.75-4.59"/><ellipse class="cls-18" cx="237.01" cy="116.55" rx="4.35" ry="5.22"/><line class="cls-20" x1="328.21" y1="346.3" x2="328.95" y2="340.37"/><polygon class="cls-27" points="329.44 336.4 330.88 339.15 332.32 341.9 328.87 341.71 325.42 341.53 327.43 338.97 329.44 336.4"/><ellipse class="cls-28" cx="322.32" cy="365.82" rx="7.49" ry="17.62" transform="translate(-153.08 474.03) rotate(-61.44)"/><ellipse class="cls-28" cx="329.63" cy="359.72" rx="7.83" ry="16.86" transform="translate(-129.52 194.69) rotate(-27.73)"/><line class="cls-20" x1="325.61" y1="379.74" x2="326.81" y2="370.55"/><line class="cls-20" x1="329.4" y1="377.21" x2="326.41" y2="374.05"/><line class="cls-20" x1="328.39" y1="381.87" x2="325.73" y2="378.92"/><line class="cls-20" x1="322.17" y1="381.15" x2="325.56" y2="379.11"/><line class="cls-20" x1="322.45" y1="378.83" x2="325.9" y2="376.68"/><line class="cls-20" x1="323.01" y1="376.09" x2="326.47" y2="373.94"/><line class="cls-20" x1="329.06" y1="379.64" x2="326.07" y2="376.49"/><path class="cls-4" d="M289.76,330.87a24.74,24.74,0,0,1,4.87,4.88,12,12,0,0,1,1.94,11.14c-3.94,8.23-13.29,13.53-17.31,12.83-4.72-.92-6-8.55-6.22-19.7-.37-11.84,7.69-15.6,13.37-11.5"/><path class="cls-29" d="M295,336.3a11.78,11.78,0,0,1,1.59,10.43c-3.85,8.27-13.13,13.68-17.16,13-4.73-.86-6.11-8.47-6.45-19.62,0-.38,0-.75,0-1.11"/></g></g></svg>
