<svg xmlns="http://www.w3.org/2000/svg" xmlns:xlink="http://www.w3.org/1999/xlink" width="1920" height="1080" viewBox="0 0 1920 1080"><defs><style>.cls-1{opacity:0.29;}.cls-2{fill:url(#linear-gradient);}.cls-3{opacity:0.37;}.cls-4{fill:url(#linear-gradient-2);}.cls-5{opacity:0.36;}.cls-6{fill:url(#linear-gradient-3);}.cls-7{opacity:0.35;}.cls-8{fill:url(#linear-gradient-4);}.cls-9{fill:url(#linear-gradient-5);}.cls-10{fill:url(#linear-gradient-6);}.cls-11{fill:url(#linear-gradient-7);}.cls-12{fill:url(#linear-gradient-8);}.cls-13{fill:url(#linear-gradient-9);}.cls-14{fill:url(#linear-gradient-10);}</style><linearGradient id="linear-gradient" x1="1672.46" y1="1242.91" x2="2436.66" y2="801.7" gradientTransform="matrix(0.78, -0.63, 0.63, 0.82, -1900.02, 1043.48)" gradientUnits="userSpaceOnUse"><stop offset="0" stop-color="#fff"/><stop offset="0" stop-color="#7a76a5"/><stop offset="0" stop-color="#e9e8f0"/><stop offset="0" stop-color="#dfdee9"/><stop offset="0" stop-color="#dcdbe7" stop-opacity="0"/><stop offset="0.04" stop-color="#ded0e8" stop-opacity="0.05"/><stop offset="0.1" stop-color="#e2b3eb" stop-opacity="0.18"/><stop offset="0.19" stop-color="#ea85f0" stop-opacity="0.39"/><stop offset="0.3" stop-color="#f445f7" stop-opacity="0.69"/><stop offset="0.4" stop-color="#f0f"/><stop offset="0.47" stop-color="#f0f"/><stop offset="0.89" stop-color="#f0f"/><stop offset="0.89" stop-color="#f0f"/><stop offset="0.92" stop-color="#f0f"/></linearGradient><linearGradient id="linear-gradient-2" x1="116.38" y1="755.47" x2="935.42" y2="282.6" gradientTransform="matrix(-1, 0.03, 0.03, 1, 993.15, -45.8)" gradientUnits="userSpaceOnUse"><stop offset="0" stop-color="#fff"/><stop offset="0" stop-color="#7a76a5"/><stop offset="0" stop-color="#e9e8f0"/><stop offset="0" stop-color="#dfdee9"/><stop offset="0" stop-color="#dcdbe7" stop-opacity="0"/><stop offset="0.06" stop-color="#b4b3eb" stop-opacity="0.18"/><stop offset="0.13" stop-color="#8a8af0" stop-opacity="0.37"/><stop offset="0.2" stop-color="#6565f4" stop-opacity="0.54"/><stop offset="0.28" stop-color="#4646f7" stop-opacity="0.68"/><stop offset="0.36" stop-color="#2d2cfa" stop-opacity="0.8"/><stop offset="0.44" stop-color="#1919fc" stop-opacity="0.89"/><stop offset="0.53" stop-color="#0b0bfe" stop-opacity="0.95"/><stop offset="0.63" stop-color="#0303ff" stop-opacity="0.99"/><stop offset="0.77" stop-color="blue"/></linearGradient><linearGradient id="linear-gradient-3" x1="101.81" y1="815.61" x2="866.65" y2="173.83" gradientTransform="matrix(-1, 0.02, 0.01, 0.99, 997.52, -35.22)" gradientUnits="userSpaceOnUse"><stop offset="0" stop-color="#fff"/><stop offset="0" stop-color="#7a76a5"/><stop offset="0" stop-color="#e9e8f0"/><stop offset="0" stop-color="#dfdee9"/><stop offset="0" stop-color="#dcdbe7" stop-opacity="0"/><stop offset="0.02" stop-color="#ddd4e2" stop-opacity="0.13"/><stop offset="0.06" stop-color="#dfc2d5" stop-opacity="0.44"/><stop offset="0.1" stop-color="#e1b4ca" stop-opacity="0.68"/><stop offset="0.13" stop-color="#e2aac3" stop-opacity="0.85"/><stop offset="0.16" stop-color="#e3a4bf" stop-opacity="0.96"/><stop offset="0.18" stop-color="#e3a2bd"/><stop offset="0.19" stop-color="#e599b3"/><stop offset="0.25" stop-color="#eb7689"/><stop offset="0.31" stop-color="#f05664"/><stop offset="0.37" stop-color="#f53b45"/><stop offset="0.44" stop-color="#f9252c"/><stop offset="0.52" stop-color="#fb1518"/><stop offset="0.61" stop-color="#fd090a"/><stop offset="0.72" stop-color="#ff0202"/><stop offset="0.92" stop-color="red"/></linearGradient><linearGradient id="linear-gradient-4" x1="282.53" y1="805.71" x2="1010.28" y2="150.36" gradientTransform="matrix(-1, -0.05, -0.05, 1, 1039.89, 80.31)" gradientUnits="userSpaceOnUse"><stop offset="0" stop-color="#fff"/><stop offset="0" stop-color="#7a76a5"/><stop offset="0" stop-color="#e9e8f0"/><stop offset="0" stop-color="#dfdee9" stop-opacity="0"/><stop offset="0.03" stop-color="#c6d6d7" stop-opacity="0.11"/><stop offset="0.17" stop-color="#5cb189" stop-opacity="0.59"/><stop offset="0.26" stop-color="#199b58" stop-opacity="0.89"/><stop offset="0.31" stop-color="#009245"/><stop offset="0.39" stop-color="#009245"/><stop offset="0.89" stop-color="#009245"/><stop offset="0.89" stop-color="#009245"/><stop offset="0.92" stop-color="#009245"/></linearGradient><linearGradient id="linear-gradient-5" x1="226.65" y1="57.06" x2="153.01" y2="-70.49" gradientTransform="matrix(0.97, 0.25, -0.25, 0.97, 4.03, -44.23)" gradientUnits="userSpaceOnUse"><stop offset="0" stop-color="#fff"/><stop offset="0" stop-color="#7a76a5"/><stop offset="0" stop-color="#e9e8f0"/><stop offset="0" stop-color="#dfdee9"/><stop offset="0" stop-color="#8a87b0"/><stop offset="0.03" stop-color="#5b5974"/><stop offset="0.11" stop-color="#464459"/><stop offset="0.39"/></linearGradient><linearGradient id="linear-gradient-6" x1="2443.8" y1="1760.89" x2="3152.85" y2="1351.52" gradientTransform="matrix(-0.6, -0.8, -0.81, 0.64, 4481.39, 1846.5)" xlink:href="#linear-gradient"/><linearGradient id="linear-gradient-7" x1="-785.75" y1="746.08" x2="7.1" y2="288.33" gradientTransform="matrix(0.96, 0.27, -0.27, 0.96, 1938.81, 88.03)" xlink:href="#linear-gradient-2"/><linearGradient id="linear-gradient-8" x1="-799.26" y1="800.43" x2="-60.72" y2="180.72" gradientTransform="matrix(0.96, 0.26, -0.25, 0.96, 1932.01, 97.24)" xlink:href="#linear-gradient-3"/><linearGradient id="linear-gradient-9" x1="-618.36" y1="716.88" x2="79.36" y2="88.58" gradientTransform="translate(1862.88 199.04) rotate(11.04)" xlink:href="#linear-gradient-4"/><linearGradient id="linear-gradient-10" x1="1766.78" y1="182.08" x2="1815.2" y2="49.06" gradientTransform="matrix(0.93, -0.1, 0.1, 0.94, 120.48, 193.81)" gradientUnits="userSpaceOnUse"><stop offset="0" stop-color="#fff"/><stop offset="0" stop-color="#7a76a5"/><stop offset="0" stop-color="#e9e8f0"/><stop offset="0" stop-color="#dfdee9"/><stop offset="0" stop-color="#8a87b0"/><stop offset="0" stop-color="#5b5974"/><stop offset="0.07" stop-color="#464459"/><stop offset="0.3"/></linearGradient></defs><title>Lys</title><g id="Layer_2" data-name="Layer 2"><g class="cls-1"><path class="cls-2" d="M200,32.42a39.38,39.38,0,0,1-26.32,3.2c30.46,434.54,99.7,783.57,198.93,1044.49C461.34,1029.05,542,967.27,612.09,904.55,427.49,760.1,281.89,467.13,200,32.42Z"/></g><g class="cls-3"><path class="cls-4" d="M199.23,14c10.74,2.68,20.64,2.44,29.54-.58,145.55,385.6,363.67,643,631.77,764-56.56,49.06-126.75,96.63-209,138C450.23,722.59,294.79,420.35,199.23,14Z"/></g><g class="cls-5"><path class="cls-6" d="M213.4,57.07c8.85,1.08,16.82-.45,23.78-4.48,142.15,342.49,383.38,573,703.47,679.26-38.54,40.54-93.28,78.69-162.94,111.87C509.19,688.34,316,423,213.4,57.07Z"/></g><g class="cls-7"><path class="cls-8" d="M180.87,19.9c11.13,5.2,21.66,7.3,31.45,6.49C328.85,434.74,514.1,708.85,744.61,841.16A1371.76,1371.76,0,0,1,499.72,994.69C351.77,766.75,241.78,440.55,180.87,19.9Z"/></g><path class="cls-9" d="M250.72,41.47c-26.73,13-55.63,26.05-86.32,38.64-14.22-43.75-22.05-90.26-25.08-138.78C158-66.18,176.07-73.6,193.08-80.73,206.52-36.95,225.35,4.15,250.72,41.47Z"/><g class="cls-1"><path class="cls-10" d="M1799.24,135.68a39.75,39.75,0,0,0,24.23,8.93c-130.63,385.58-278,685-433.3,898C1318,976.19,1255.87,901.9,1204,829.18,1413,741,1619.8,509.65,1799.24,135.68Z"/></g><g class="cls-3"><path class="cls-11" d="M1804.33,119.23c-10.83,0-20.17-2.53-27.91-7.3C1548,426.94,1280.74,609.52,998,657.39c42.2,57.28,97.69,116.33,166.1,172.54C1400.22,701.87,1618.51,464.44,1804.33,119.23Z"/></g><g class="cls-5"><path class="cls-12" d="M1780.79,154.89c-8.66-1-15.86-4.25-21.53-9.49-215.08,276.84-498,429.79-826.67,452.5,27.08,45.45,70.11,92.46,128.46,138.39C1352.29,657.42,1597.75,462,1780.79,154.89Z"/></g><g class="cls-7"><path class="cls-13" d="M1820.36,128.77c-11.77,2.15-22.26,1.63-31.36-1.34-206.19,342.21-446.18,547.4-695.94,614.12a1321.1,1321.1,0,0,0,196.5,194.8C1483.34,764.32,1664.09,494.83,1820.36,128.77Z"/></g><path class="cls-14" d="M1720.54,168.57c29.65,9.42,61.87,18.76,96.29,27.54,24-39.82,40.8-81.57,52.26-124.74-21-5.21-41.24-10.39-60.29-15.38A515.56,515.56,0,0,1,1720.54,168.57Z"/></g></svg>
