<svg xmlns="http://www.w3.org/2000/svg" xmlns:xlink="http://www.w3.org/1999/xlink" width="780" height="870" viewBox="0 0 780 870"><defs><style>.cls-1{opacity:0.29;}.cls-2{fill:url(#linear-gradient);}.cls-3{opacity:0.37;}.cls-4{fill:url(#linear-gradient-2);}.cls-5{opacity:0.36;}.cls-6{fill:url(#linear-gradient-3);}.cls-7{opacity:0.35;}.cls-8{fill:url(#linear-gradient-4);}.cls-9{fill:url(#linear-gradient-5);}</style><linearGradient id="linear-gradient" x1="1994.59" y1="2155.66" x2="2604.97" y2="1803.25" gradientTransform="matrix(-0.66, -0.75, -0.76, 0.7, 3563.53, 821.49)" gradientUnits="userSpaceOnUse"><stop offset="0" stop-color="#fff"/><stop offset="0" stop-color="#7a76a5"/><stop offset="0" stop-color="#e9e8f0"/><stop offset="0" stop-color="#dfdee9"/><stop offset="0" stop-color="#dcdbe7" stop-opacity="0"/><stop offset="0.04" stop-color="#ded0e8" stop-opacity="0.05"/><stop offset="0.1" stop-color="#e2b3eb" stop-opacity="0.18"/><stop offset="0.19" stop-color="#ea85f0" stop-opacity="0.39"/><stop offset="0.3" stop-color="#f445f7" stop-opacity="0.69"/><stop offset="0.4" stop-color="#f0f"/><stop offset="0.47" stop-color="#f0f"/><stop offset="0.89" stop-color="#f0f"/><stop offset="0.89" stop-color="#f0f"/><stop offset="0.92" stop-color="#f0f"/></linearGradient><linearGradient id="linear-gradient-2" x1="-1916.35" y1="876.71" x2="-1233.82" y2="482.66" gradientTransform="translate(2113.86 15.62) rotate(11.2)" gradientUnits="userSpaceOnUse"><stop offset="0" stop-color="#fff"/><stop offset="0" stop-color="#7a76a5"/><stop offset="0" stop-color="#e9e8f0"/><stop offset="0" stop-color="#dfdee9"/><stop offset="0" stop-color="#dcdbe7" stop-opacity="0"/><stop offset="0.06" stop-color="#b4b3eb" stop-opacity="0.18"/><stop offset="0.13" stop-color="#8a8af0" stop-opacity="0.37"/><stop offset="0.2" stop-color="#6565f4" stop-opacity="0.54"/><stop offset="0.28" stop-color="#4646f7" stop-opacity="0.68"/><stop offset="0.36" stop-color="#2d2cfa" stop-opacity="0.8"/><stop offset="0.44" stop-color="#1919fc" stop-opacity="0.89"/><stop offset="0.53" stop-color="#0b0bfe" stop-opacity="0.95"/><stop offset="0.63" stop-color="#0303ff" stop-opacity="0.99"/><stop offset="0.77" stop-color="blue"/></linearGradient><linearGradient id="linear-gradient-3" x1="-1912.18" y1="915.11" x2="-1276.41" y2="381.63" gradientTransform="matrix(0.98, 0.19, -0.18, 0.98, 2087.71, 22.45)" gradientUnits="userSpaceOnUse"><stop offset="0" stop-color="#fff"/><stop offset="0" stop-color="#7a76a5"/><stop offset="0" stop-color="#e9e8f0"/><stop offset="0" stop-color="#dfdee9"/><stop offset="0" stop-color="#dcdbe7" stop-opacity="0"/><stop offset="0.02" stop-color="#ddd4e2" stop-opacity="0.13"/><stop offset="0.06" stop-color="#dfc2d5" stop-opacity="0.44"/><stop offset="0.1" stop-color="#e1b4ca" stop-opacity="0.68"/><stop offset="0.13" stop-color="#e2aac3" stop-opacity="0.85"/><stop offset="0.16" stop-color="#e3a4bf" stop-opacity="0.96"/><stop offset="0.18" stop-color="#e3a2bd"/><stop offset="0.19" stop-color="#e599b3"/><stop offset="0.25" stop-color="#eb7689"/><stop offset="0.31" stop-color="#f05664"/><stop offset="0.37" stop-color="#f53b45"/><stop offset="0.44" stop-color="#f9252c"/><stop offset="0.52" stop-color="#fb1518"/><stop offset="0.61" stop-color="#fd090a"/><stop offset="0.72" stop-color="#ff0202"/><stop offset="0.92" stop-color="red"/></linearGradient><linearGradient id="linear-gradient-4" x1="-1689.31" y1="830.96" x2="-1088.68" y2="290.09" gradientTransform="translate(1968.07 28.65) rotate(6.76)" gradientUnits="userSpaceOnUse"><stop offset="0" stop-color="#fff"/><stop offset="0" stop-color="#7a76a5"/><stop offset="0" stop-color="#e9e8f0"/><stop offset="0" stop-color="#dfdee9" stop-opacity="0"/><stop offset="0.03" stop-color="#c6d6d7" stop-opacity="0.11"/><stop offset="0.17" stop-color="#5cb189" stop-opacity="0.59"/><stop offset="0.26" stop-color="#199b58" stop-opacity="0.89"/><stop offset="0.31" stop-color="#009245"/><stop offset="0.39" stop-color="#009245"/><stop offset="0.89" stop-color="#009245"/><stop offset="0.89" stop-color="#009245"/><stop offset="0.92" stop-color="#009245"/></linearGradient><linearGradient id="linear-gradient-5" x1="929.99" y1="389.53" x2="971.67" y2="275.02" gradientTransform="matrix(0.92, -0.17, 0.17, 0.93, -198.04, -104.84)" gradientUnits="userSpaceOnUse"><stop offset="0" stop-color="#fff"/><stop offset="0" stop-color="#7a76a5"/><stop offset="0" stop-color="#e9e8f0"/><stop offset="0" stop-color="#dfdee9"/><stop offset="0" stop-color="#8a87b0"/><stop offset="0" stop-color="#5b5974"/><stop offset="0.07" stop-color="#464459"/><stop offset="0.3"/></linearGradient></defs><title>Lyshøjre</title><g id="Layer_2" data-name="Layer 2"><g class="cls-1"><path class="cls-2" d="M735.25,54.59a34.25,34.25,0,0,0,21.38,6.1C669.28,400.1,562,666.64,442.41,859.46c-66.27-52.4-124.34-112.18-173.54-171.27C442.63,599,605.26,387.16,735.25,54.59Z"/></g><g class="cls-3"><path class="cls-4" d="M738.56,40.14c-9.3.66-17.47-.87-24.43-4.47C538.32,320.77,320.61,494.69,81,554c39.9,46.46,91.33,93.58,153.68,137.43C429.13,566.29,601.24,348.43,738.56,40.14Z"/></g><g class="cls-5"><path class="cls-6" d="M720.65,72.27a32.35,32.35,0,0,1-19.09-6.77C534.73,317,301.7,466.47,21,507.1,47.17,544.38,87.13,582,140.18,617.64,385.12,531.21,583.27,347.64,720.65,72.27Z"/></g><g class="cls-7"><path class="cls-8" d="M752.94,47.3c-10,2.6-19,2.83-27,.86-155,307-347.82,498.61-557.93,571.94A1137.29,1137.29,0,0,0,349.2,774.69C504.5,614.55,642.33,371.59,752.94,47.3Z"/></g><path class="cls-9" d="M669.8,87.88c26.07,6.19,54.32,12.13,84.43,17.45,18-35.72,29.79-72.65,36.85-110.44C772.7-8.23,755-11.38,738.33-14.44A443.24,443.24,0,0,1,669.8,87.88Z"/></g></svg>
