<svg xmlns="http://www.w3.org/2000/svg" xmlns:xlink="http://www.w3.org/1999/xlink" width="750" height="950" viewBox="0 0 750 950"><defs><style>.cls-1{opacity:0.29;}.cls-2{fill:url(#linear-gradient);}.cls-3{opacity:0.37;}.cls-4{fill:url(#linear-gradient-2);}.cls-5{opacity:0.36;}.cls-6{fill:url(#linear-gradient-3);}.cls-7{opacity:0.35;}.cls-8{fill:url(#linear-gradient-4);}.cls-9{fill:url(#linear-gradient-5);}</style><linearGradient id="linear-gradient" x1="2457.72" y1="1195.42" x2="3106.17" y2="821.04" gradientTransform="matrix(0.74, -0.68, 0.69, 0.77, -2536.21, 1645.76)" gradientUnits="userSpaceOnUse"><stop offset="0" stop-color="#fff"/><stop offset="0" stop-color="#7a76a5"/><stop offset="0" stop-color="#e9e8f0"/><stop offset="0" stop-color="#dfdee9"/><stop offset="0" stop-color="#dcdbe7" stop-opacity="0"/><stop offset="0.04" stop-color="#ded0e8" stop-opacity="0.05"/><stop offset="0.1" stop-color="#e2b3eb" stop-opacity="0.18"/><stop offset="0.19" stop-color="#ea85f0" stop-opacity="0.39"/><stop offset="0.3" stop-color="#f445f7" stop-opacity="0.69"/><stop offset="0.4" stop-color="#f0f"/><stop offset="0.47" stop-color="#f0f"/><stop offset="0.89" stop-color="#f0f"/><stop offset="0.89" stop-color="#f0f"/><stop offset="0.92" stop-color="#f0f"/></linearGradient><linearGradient id="linear-gradient-2" x1="1518.9" y1="869.75" x2="2213.87" y2="468.51" gradientTransform="matrix(-1, 0.09, 0.09, 1, 2106.68, -396.23)" gradientUnits="userSpaceOnUse"><stop offset="0" stop-color="#fff"/><stop offset="0" stop-color="#7a76a5"/><stop offset="0" stop-color="#e9e8f0"/><stop offset="0" stop-color="#dfdee9"/><stop offset="0" stop-color="#dcdbe7" stop-opacity="0"/><stop offset="0.06" stop-color="#b4b3eb" stop-opacity="0.18"/><stop offset="0.13" stop-color="#8a8af0" stop-opacity="0.37"/><stop offset="0.2" stop-color="#6565f4" stop-opacity="0.54"/><stop offset="0.28" stop-color="#4646f7" stop-opacity="0.68"/><stop offset="0.36" stop-color="#2d2cfa" stop-opacity="0.8"/><stop offset="0.44" stop-color="#1919fc" stop-opacity="0.89"/><stop offset="0.53" stop-color="#0b0bfe" stop-opacity="0.95"/><stop offset="0.63" stop-color="#0303ff" stop-opacity="0.99"/><stop offset="0.77" stop-color="blue"/></linearGradient><linearGradient id="linear-gradient-3" x1="1523.67" y1="917.33" x2="2172.65" y2="372.77" gradientTransform="matrix(-1, 0.09, 0.08, 0.99, 2131.07, -375.78)" gradientUnits="userSpaceOnUse"><stop offset="0" stop-color="#fff"/><stop offset="0" stop-color="#7a76a5"/><stop offset="0" stop-color="#e9e8f0"/><stop offset="0" stop-color="#dfdee9"/><stop offset="0" stop-color="#dcdbe7" stop-opacity="0"/><stop offset="0.02" stop-color="#ddd4e2" stop-opacity="0.13"/><stop offset="0.06" stop-color="#dfc2d5" stop-opacity="0.44"/><stop offset="0.1" stop-color="#e1b4ca" stop-opacity="0.68"/><stop offset="0.13" stop-color="#e2aac3" stop-opacity="0.85"/><stop offset="0.16" stop-color="#e3a4bf" stop-opacity="0.96"/><stop offset="0.18" stop-color="#e3a2bd"/><stop offset="0.19" stop-color="#e599b3"/><stop offset="0.25" stop-color="#eb7689"/><stop offset="0.31" stop-color="#f05664"/><stop offset="0.37" stop-color="#f53b45"/><stop offset="0.44" stop-color="#f9252c"/><stop offset="0.52" stop-color="#fb1518"/><stop offset="0.61" stop-color="#fd090a"/><stop offset="0.72" stop-color="#ff0202"/><stop offset="0.92" stop-color="red"/></linearGradient><linearGradient id="linear-gradient-4" x1="1742.48" y1="957.41" x2="2359.99" y2="401.33" gradientTransform="matrix(-1, 0.01, 0.01, 1, 2258.87, -229.2)" gradientUnits="userSpaceOnUse"><stop offset="0" stop-color="#fff"/><stop offset="0" stop-color="#7a76a5"/><stop offset="0" stop-color="#e9e8f0"/><stop offset="0" stop-color="#dfdee9" stop-opacity="0"/><stop offset="0.03" stop-color="#c6d6d7" stop-opacity="0.11"/><stop offset="0.17" stop-color="#5cb189" stop-opacity="0.59"/><stop offset="0.26" stop-color="#199b58" stop-opacity="0.89"/><stop offset="0.31" stop-color="#009245"/><stop offset="0.39" stop-color="#009245"/><stop offset="0.89" stop-color="#009245"/><stop offset="0.89" stop-color="#009245"/><stop offset="0.92" stop-color="#009245"/></linearGradient><linearGradient id="linear-gradient-5" x1="-51.72" y1="492.38" x2="-114.21" y2="384.15" gradientTransform="translate(198.06 -372.4) rotate(10.66)" gradientUnits="userSpaceOnUse"><stop offset="0" stop-color="#fff"/><stop offset="0" stop-color="#7a76a5"/><stop offset="0" stop-color="#e9e8f0"/><stop offset="0" stop-color="#dfdee9"/><stop offset="0" stop-color="#8a87b0"/><stop offset="0.03" stop-color="#5b5974"/><stop offset="0.11" stop-color="#464459"/><stop offset="0.39"/></linearGradient></defs><title>Lysvenstre</title><g id="Layer_2" data-name="Layer 2"><g class="cls-1"><path class="cls-2" d="M46.4,72.61a33.39,33.39,0,0,1-22.1,4.2C74.58,443,152.87,734.6,251.59,949.91c72.21-48.23,137-105.08,192.83-162.13C280,675.88,140.2,436,46.4,72.61Z"/></g><g class="cls-3"><path class="cls-4" d="M44.67,57.06c9.25,1.66,17.61.9,25-2.16,145,318.26,344.14,523.9,577.94,611.22-45.12,44.72-101.87,89-169.2,128.6C297.13,642.84,148.48,395.71,44.67,57.06Z"/></g><g class="cls-5"><path class="cls-6" d="M59.1,92.73A31.64,31.64,0,0,0,79,87.59C218.64,369.55,435.86,551.08,712.86,623c-30.34,36.5-74.54,71.88-131.65,103.9C345.11,610.52,166.6,396.75,59.1,92.73Z"/></g><g class="cls-7"><path class="cls-8" d="M29.46,63.1c9.72,3.77,18.76,4.95,27,3.72,121.68,339.16,294,560.79,496.6,659.82A1164.89,1164.89,0,0,1,354.36,870.43C216.25,685.78,104.74,415.8,29.46,63.1Z"/></g><path class="cls-9" d="M89.82,77.42C67.92,89.92,44.19,102.61,18.91,115,4.4,78.76-4.84,39.83-10.14-1.08,5.28-8.5,20.13-15.8,34.13-22.79,48,13.51,66.23,47.26,89.82,77.42Z"/></g></svg>
