<svg id="Layer_1" data-name="Layer 1" xmlns="http://www.w3.org/2000/svg" width="345" height="161" viewBox="0 0 345 161"><defs><style>.cls-1{fill:#ff7bac;}</style></defs><title>menu_button</title><rect class="cls-1" width="345" height="161" rx="35.95"/><path d="M113.68,64.225H121.1l3.066,11.086,1.052,4.326h.191l1.038-4.326,3.079-11.086h7.425V95.507h-5.988V85.822c0-3.521.619-11.15.949-14.531h-.144l-2.4,8.4-2.435,7.536H123.5l-2.477-7.536-2.24-8.4h-.165c.357,3.381.949,11.01.949,14.531v9.685H113.68Z"/><path d="M144.149,64.225h20.737V70.16H151.229v6.274h11.6v5.937h-11.6v7.2h14.137v5.937H144.149Z"/><path d="M171.69,64.225h7.256l6.583,15.55,2.678,6.875h.165c-.317-3.293-.977-7.675-.977-11.369V64.225h6.749V95.507h-7.256L180.305,79.92l-2.678-6.84h-.166c.317,3.459.978,7.65.978,11.33v11.1H171.69Z"/><path d="M200.381,83.463V64.225h7.093V84.183c0,3.745,1.378,5.785,4.325,5.785s4.422-2.04,4.422-5.785V64.225h6.832V83.463c0,8.125-3.655,12.62-11.254,12.62S200.381,91.588,200.381,83.463Z"/></svg>
