<svg xmlns="http://www.w3.org/2000/svg" xmlns:xlink="http://www.w3.org/1999/xlink" width="140" height="200" viewBox="0 0 140 200"><defs><style>.cls-1,.cls-2,.cls-5{stroke:#000;stroke-width:0.75px;}.cls-1,.cls-2,.cls-3,.cls-5{stroke-miterlimit:10;}.cls-1{fill:url(#linear-gradient);}.cls-2{fill:url(#linear-gradient-2);}.cls-3{fill:#c1272d;stroke:#c1272d;}.cls-4{fill:#2e3192;}.cls-5{fill:none;}</style><linearGradient id="linear-gradient" x1="14.47" y1="110.65" x2="123.81" y2="110.65" gradientTransform="matrix(1, 0, 0, 1, 0.95, 0.53)" gradientUnits="userSpaceOnUse"><stop offset="0" stop-color="#fff"/><stop offset="0" stop-color="#2e3192"/><stop offset="0.38" stop-color="#3f41ff"/><stop offset="0.43" stop-color="#3d3fef"/><stop offset="0.53" stop-color="#373ace"/><stop offset="0.64" stop-color="#3336b3"/><stop offset="0.76" stop-color="#3033a1"/><stop offset="0.87" stop-color="#2f3296"/><stop offset="1" stop-color="#2e3192"/></linearGradient><linearGradient id="linear-gradient-2" x1="14.53" y1="26.49" x2="123.82" y2="26.49" gradientTransform="matrix(1, 0, 0, 1, 0.95, 0.53)" gradientUnits="userSpaceOnUse"><stop offset="0" stop-color="#fff"/><stop offset="0" stop-color="#7a76a5"/><stop offset="0" stop-color="#2e3192" stop-opacity="0.9"/><stop offset="0.03" stop-color="#2e3192" stop-opacity="0.94"/><stop offset="0.1" stop-color="#2e3192" stop-opacity="0.99"/><stop offset="0.29" stop-color="#2e3192"/><stop offset="0.9" stop-color="#2e3192"/><stop offset="1" stop-color="#2e3192"/></linearGradient></defs><title>Redbull</title><g id="Layer_2" data-name="Layer 2"><path class="cls-1" d="M15.44,29l.14,146.83c0,9.65,24.5,17.45,54.69,17.42s54.66-7.87,54.65-17.53l-.13-146.82C115,47.5,31,51.5,15.44,29Z"/><ellipse class="cls-2" cx="70.15" cy="26.96" rx="54.64" ry="17.48"/><path class="cls-3" d="M31.11,91.93a22.44,22.44,0,0,1,4.34.64c2.36.56,3.77,1.39,4.59,2.68a4.88,4.88,0,0,1,.52,3.8A4.94,4.94,0,0,1,36.21,103V103c1.2.8,1.68,2.3,1.63,4.3a31.33,31.33,0,0,0,.12,5.34l-2.29-.54a25.55,25.55,0,0,1-.1-4.65c.1-2.66-.59-3.83-2.57-4.39l-2.09-.49L29,110.55,26.8,110Zm.22,8.88,2.26.54c2.36.57,4.19-.46,4.69-2.56.57-2.36-.79-3.78-3.12-4.37a9,9,0,0,0-2.23-.3Z"/><path class="cls-3" d="M43.7,107.24c-.44,3.3,1.32,5,3.59,5.29a7.84,7.84,0,0,0,3.56-.18l.13,1.8a9.56,9.56,0,0,1-4.28.21c-3.85-.58-5.74-3.63-5.14-7.67s3.3-6.88,6.94-6.34c4.08.61,4.59,4.62,4.23,7.08-.08.5-.19.88-.25,1.12Zm6.92-.75c.26-1.54,0-4-2.56-4.42-2.29-.35-3.64,1.77-4.07,3.43Z"/><path class="cls-3" d="M67.56,96l-.94,16.33c-.07,1.2-.12,2.57-.1,3.5l-2.06-.12,0-2.35h0a4.62,4.62,0,0,1-4.45,2.4c-3.05-.17-5.24-3.07-5-7.18.23-4.49,3-7.11,6.07-6.93A4.16,4.16,0,0,1,64.75,104h0l.47-8.07Zm-3,11.68a5.18,5.18,0,0,0,0-1,3.44,3.44,0,0,0-3.14-3c-2.38-.14-3.91,2-4.08,5-.16,2.74,1,5.08,3.43,5.22a3.53,3.53,0,0,0,3.54-2.74,4.91,4.91,0,0,0,.16-1.06Z"/><path class="cls-3" d="M70.73,97.3a20.59,20.59,0,0,1,4.13-.55c2.27-.09,3.75.28,4.88,1.18a4.07,4.07,0,0,1,1.59,3.27,4.44,4.44,0,0,1-2.82,4.25v.06a4.78,4.78,0,0,1,3.81,4.58A5.24,5.24,0,0,1,81,113.92c-1.18,1.25-3.14,1.88-6,2a23.74,23.74,0,0,1-3.53-.09Zm2.56,7.62,2.07-.07c2.4-.1,3.75-1.49,3.68-3.31-.08-2.21-1.68-3-4-2.92a9.06,9.06,0,0,0-2,.24Zm.35,9a11.11,11.11,0,0,0,1.91,0c2.35-.09,4.48-1.1,4.37-3.84-.09-2.57-2.2-3.55-4.68-3.45l-1.87.07Z"/><path class="cls-3" d="M96.57,110c.19,1.38.38,2.6.59,3.64l-2,.27-.43-2.17h0a4.72,4.72,0,0,1-3.8,3c-2,.26-4.48-.59-5.11-5.3l-1-7.85,2.28-.3,1,7.43c.34,2.55,1.3,4.17,3.37,3.9a3.35,3.35,0,0,0,2.7-2.62,3.87,3.87,0,0,0,0-1.28L93,100.56l2.28-.3Z"/><path class="cls-3" d="M97.65,93.32l2.26-.45,3.9,19.46-2.25.46Z"/><path class="cls-3" d="M103.36,92.11l2.24-.54,4.64,19.31-2.23.53Z"/><path class="cls-4" d="M109.29,27.14c3.64,4-3.34,7.63-15.49,6.55s-19-5.1-15.56-7.34,10.39-4.13,15.45-4.83S105.65,23.13,109.29,27.14Z"/><path class="cls-5" d="M109.29,27.14c3.64,4-3.34,7.63-15.49,6.55s-19-5.1-15.56-7.34,10.39-4.13,15.45-4.83S105.65,23.13,109.29,27.14Z"/></g></svg>
