<svg xmlns="http://www.w3.org/2000/svg" xmlns:xlink="http://www.w3.org/1999/xlink" width="101" height="89" viewBox="0 0 101 89"><defs><style>.cls-1{fill:url(#linear-gradient);}.cls-2{fill:#bf5c81;}.cls-3{fill:#395931;}</style><linearGradient id="linear-gradient" x1="1216.11" y1="-746.72" x2="918.85" y2="362.69" gradientUnits="userSpaceOnUse"><stop offset="0" stop-color="#fff"/><stop offset="0" stop-color="#7a76a5"/><stop offset="0" stop-color="#e9e8f0"/><stop offset="0" stop-color="#e7e7ee"/><stop offset="0" stop-color="#e1e2e7"/><stop offset="0" stop-color="#d6d9dc"/><stop offset="0" stop-color="#c7cccb"/><stop offset="0" stop-color="#b2bcb5"/><stop offset="0" stop-color="#99a799"/><stop offset="0" stop-color="#7b8f79"/><stop offset="0" stop-color="#5a7455"/><stop offset="0" stop-color="#395931"/><stop offset="0" stop-color="#3c5b34"/><stop offset="0" stop-color="#46623f"/><stop offset="0" stop-color="#566f50"/><stop offset="0" stop-color="#6d8069"/><stop offset="0" stop-color="#8b9588"/><stop offset="0" stop-color="#afb0af"/><stop offset="0" stop-color="#b3b3b3"/><stop offset="0.01" stop-color="#a8aba7"/><stop offset="0.05" stop-color="#8a9588"/><stop offset="0.09" stop-color="#71826c"/><stop offset="0.14" stop-color="#5c7356"/><stop offset="0.2" stop-color="#4c6745"/><stop offset="0.27" stop-color="#415f3a"/><stop offset="0.36" stop-color="#3b5a33"/><stop offset="0.64" stop-color="#395931"/><stop offset="0.82" stop-color="#395931"/></linearGradient></defs><title>Setting</title><g id="Layer_2" data-name="Layer 2"><path class="cls-1" d="M1995.61-501.83l30.39,0c-186.41-81.4-505.42-192.58-914.8-200C655.34-710,301.7-585.7,108.18-501.08l-7.77.22,6,645.86H2027q2.51-321.93,5-643.86Z"/><path class="cls-2" d="M61.41,38.88a38,38,0,0,1-22.43,0q2.19-18.17,4.4-36.33a23.27,23.27,0,0,0,13.75,0Q59.28,20.71,61.41,38.88Z"/><path class="cls-2" d="M61.41,38.88a38,38,0,0,1-22.43,0q2.19-18.17,4.4-36.33a23.27,23.27,0,0,0,13.75,0Q59.28,20.71,61.41,38.88Z"/><path class="cls-2" d="M61.14,48.29A37.92,37.92,0,0,1,46.73,31.11l30.62-20a23.28,23.28,0,0,0,8.84,10.53Z"/><path class="cls-2" d="M61.14,48.29A37.92,37.92,0,0,1,46.73,31.11l30.62-20a23.28,23.28,0,0,0,8.84,10.53Z"/><path class="cls-2" d="M53.4,57.75A37.91,37.91,0,0,0,37.3,42.13L15.1,71.22A23.29,23.29,0,0,1,25,80.8Z"/><path class="cls-2" d="M53.4,57.75A37.91,37.91,0,0,0,37.3,42.13L15.1,71.22A23.29,23.29,0,0,1,25,80.8Z"/><path class="cls-2" d="M51.44,34.26A38,38,0,0,1,35.29,49.83q-11-14.59-22.1-29.17a23.3,23.3,0,0,0,9.91-9.55Z"/><path class="cls-2" d="M51.44,34.26A38,38,0,0,1,35.29,49.83q-11-14.59-22.1-29.17a23.3,23.3,0,0,0,9.91-9.55Z"/><path class="cls-2" d="M62.53,42.39A37.94,37.94,0,0,0,46.91,58.48L76,80.68a23.21,23.21,0,0,1,9.58-9.87Q74.06,56.59,62.53,42.39Z"/><path class="cls-2" d="M62.53,42.39A37.94,37.94,0,0,0,46.91,58.48L76,80.68a23.21,23.21,0,0,1,9.58-9.87Q74.06,56.59,62.53,42.39Z"/><path class="cls-2" d="M42.48,57.73a37.84,37.84,0,0,0,0-22.42L6.18,39.58a23.19,23.19,0,0,1,0,13.75Z"/><path class="cls-2" d="M42.48,57.73a37.84,37.84,0,0,0,0-22.42L6.18,39.58a23.19,23.19,0,0,1,0,13.75Z"/><path class="cls-2" d="M59.83,56.76a38,38,0,0,1,0-22.42l36.33,4.4a23.27,23.27,0,0,0,0,13.75Z"/><path class="cls-2" d="M59.83,56.76a38,38,0,0,1,0-22.42l36.33,4.4a23.27,23.27,0,0,0,0,13.75Z"/><path class="cls-2" d="M61.38,51.23a37.84,37.84,0,0,0-22.42,0q2.13,18.16,4.27,36.34a23.19,23.19,0,0,1,13.75,0Q59.19,69.4,61.38,51.23Z"/><path class="cls-2" d="M61.38,51.23a37.84,37.84,0,0,0-22.42,0q2.13,18.16,4.27,36.34a23.19,23.19,0,0,1,13.75,0Q59.19,69.4,61.38,51.23Z"/><circle class="cls-2" cx="49.9" cy="45.51" r="29.99"/><circle class="cls-3" cx="49.65" cy="45.76" r="19.25"/></g></svg>
