<svg xmlns="http://www.w3.org/2000/svg" xmlns:xlink="http://www.w3.org/1999/xlink" width="1920" height="1080" viewBox="0 0 1920 1080"><defs><style>.cls-1,.cls-11,.cls-25{fill:none;}.cls-2{isolation:isolate;}.cls-3{opacity:0.92;fill:url(#linear-gradient);}.cls-4{fill:url(#linear-gradient-2);}.cls-5{fill:#2e3192;opacity:0.85;}.cls-6{fill:#f0ecec;}.cls-7{fill:#d4145a;}.cls-8{fill:#ed1e79;}.cls-9{fill:#42210b;}.cls-10{fill:#bfb4a6;}.cls-11,.cls-25{stroke:#000;stroke-miterlimit:10;}.cls-12{fill:#e9e0d6;}.cls-13{fill:#395931;}.cls-14{clip-path:url(#clip-path);}.cls-15{fill:#836748;}.cls-16{fill:#7f6446;}.cls-17{fill:#7b6144;}.cls-18{fill:#ad885f;}.cls-19{clip-path:url(#clip-path-2);}.cls-20{fill:#675139;}.cls-21{fill:#6b543b;}.cls-22{fill:#6f573d;}.cls-23{fill:#735a3f;}.cls-24{fill:#775e41;}.cls-25{stroke-width:0.25px;}.cls-26{clip-path:url(#clip-path-3);}.cls-27{clip-path:url(#clip-path-4);}.cls-28{clip-path:url(#clip-path-5);}.cls-29{clip-path:url(#clip-path-6);}.cls-30{clip-path:url(#clip-path-7);}.cls-31{clip-path:url(#clip-path-8);}.cls-32{clip-path:url(#clip-path-9);}.cls-33{clip-path:url(#clip-path-10);}.cls-34{opacity:0.89;mix-blend-mode:screen;}.cls-35{fill:url(#linear-gradient-3);}.cls-36{fill:#fffffd;}.cls-37{fill:#034926;opacity:0.73;}.cls-38{fill:#c1272d;}</style><linearGradient id="linear-gradient" x1="961" y1="583" x2="961" y2="-1" gradientUnits="userSpaceOnUse"><stop offset="0" stop-color="#fff"/><stop offset="0" stop-color="#7a76a5"/><stop offset="0" stop-color="#e9e8f0"/><stop offset="0" stop-color="#dfdee9"/><stop offset="0" stop-color="#dcdbe7"/><stop offset="0" stop-color="#b8b6cf"/><stop offset="0.23" stop-color="#8a87b0"/><stop offset="0.87" stop-color="#1b1464"/></linearGradient><linearGradient id="linear-gradient-2" x1="1110.11" y1="193.28" x2="812.85" y2="1302.69" gradientUnits="userSpaceOnUse"><stop offset="0" stop-color="#fff"/><stop offset="0" stop-color="#7a76a5"/><stop offset="0" stop-color="#e9e8f0"/><stop offset="0" stop-color="#e7e7ee"/><stop offset="0" stop-color="#e1e2e7"/><stop offset="0" stop-color="#d6d9dc"/><stop offset="0" stop-color="#c7cccb"/><stop offset="0" stop-color="#b2bcb5"/><stop offset="0" stop-color="#99a799"/><stop offset="0" stop-color="#7b8f79"/><stop offset="0" stop-color="#5a7455"/><stop offset="0" stop-color="#395931"/><stop offset="0" stop-color="#3c5b34"/><stop offset="0" stop-color="#46623f"/><stop offset="0" stop-color="#566f50"/><stop offset="0" stop-color="#6d8069"/><stop offset="0" stop-color="#8b9588"/><stop offset="0" stop-color="#afb0af"/><stop offset="0" stop-color="#b3b3b3"/><stop offset="0.01" stop-color="#a8aba7"/><stop offset="0.05" stop-color="#8a9588"/><stop offset="0.09" stop-color="#71826c"/><stop offset="0.14" stop-color="#5c7356"/><stop offset="0.2" stop-color="#4c6745"/><stop offset="0.27" stop-color="#415f3a"/><stop offset="0.36" stop-color="#3b5a33"/><stop offset="0.64" stop-color="#395931"/><stop offset="0.82" stop-color="#395931"/></linearGradient><clipPath id="clip-path"><path class="cls-1" d="M387.23,506.59l-49.18,26.74c10.24-5.56,23.83-7.92,38.76-5.82L426,500.76C411.05,498.66,397.46,501,387.23,506.59Z"/></clipPath><clipPath id="clip-path-2"><path class="cls-1" d="M415.72,608.72,464.89,582c11.63-6.32,18.92-16.79,18.9-29.58,0-24-25.93-47.15-57.81-51.63l-49.17,26.75c31.88,4.48,57.76,27.6,57.81,51.63C434.64,591.93,427.35,602.4,415.72,608.72Z"/></clipPath><clipPath id="clip-path-3"><path class="cls-1" d="M924.88,409l44.66,24.3c-9.29-5.06-21.64-7.2-35.2-5.29l-44.67-24.3C903.23,401.78,915.58,403.92,924.88,409Z"/></clipPath><clipPath id="clip-path-4"><path class="cls-1" d="M899,501.76l-44.67-24.3c-10.56-5.74-17.18-15.25-17.16-26.87,0-21.83,23.55-42.83,52.51-46.9L934.34,428c-29,4.07-52.47,25.07-52.51,46.9C881.8,486.51,888.43,496,899,501.76Z"/></clipPath><clipPath id="clip-path-5"><path class="cls-1" d="M1082.36,766.87l-58.77,32c12.23-6.66,28.48-9.48,46.32-7l58.78-32C1110.85,757.4,1094.6,760.22,1082.36,766.87Z"/></clipPath><clipPath id="clip-path-6"><path class="cls-1" d="M1116.43,889l58.77-32c13.9-7.56,22.62-20.07,22.59-35.35,0-28.74-31-56.37-69.1-61.72l-58.78,32c38.11,5.36,69,33,69.1,61.72C1139,868.88,1130.33,881.4,1116.43,889Z"/></clipPath><clipPath id="clip-path-7"><path class="cls-1" d="M309.05,826,375.48,862c-13.82-7.51-32.19-10.68-52.34-7.82l-66.43-36.06C276.86,815.3,295.22,818.47,309.05,826Z"/></clipPath><clipPath id="clip-path-8"><path class="cls-1" d="M270.7,963.93l-66.44-36c-15.71-8.53-25.57-22.66-25.55-39.92,0-32.46,34.95-63.71,78-69.8l66.43,36.06c-43.05,6.09-78,37.34-78,69.79C245.13,941.28,255,955.41,270.7,963.93Z"/></clipPath><clipPath id="clip-path-9"><path class="cls-1" d="M1685.84,611.88l-54.19,29.48c11.28-6.14,26.26-8.74,42.71-6.43l54.2-29.48C1712.11,603.14,1697.12,605.74,1685.84,611.88Z"/></clipPath><clipPath id="clip-path-10"><path class="cls-1" d="M1717.25,724.45l54.2-29.49c12.81-7,20.85-18.51,20.82-32.6,0-26.49-28.57-52-63.71-56.91l-54.2,29.48c35.14,4.94,63.67,30.42,63.72,56.91C1738.1,705.94,1730.07,717.47,1717.25,724.45Z"/></clipPath><linearGradient id="linear-gradient-3" x1="1686" y1="200" x2="1686" y2="70" gradientUnits="userSpaceOnUse"><stop offset="0" stop-color="#fff"/><stop offset="0" stop-color="#7a76a5"/><stop offset="0" stop-color="#e9e8f0"/><stop offset="0" stop-color="#edecf3" stop-opacity="0.82"/><stop offset="0" stop-color="#f1f0f5" stop-opacity="0.65"/><stop offset="0" stop-color="#f4f4f8" stop-opacity="0.5"/><stop offset="0" stop-color="#f7f7fa" stop-opacity="0.36"/><stop offset="0" stop-color="#faf9fb" stop-opacity="0.25"/><stop offset="0" stop-color="#fcfbfd" stop-opacity="0.16"/><stop offset="0" stop-color="#fdfdfe" stop-opacity="0.09"/><stop offset="0" stop-color="#fefefe" stop-opacity="0.04"/><stop offset="0" stop-color="#fff" stop-opacity="0.01"/><stop offset="0" stop-color="#fff" stop-opacity="0"/><stop offset="0.15" stop-color="#f7f7fa" stop-opacity="0.24"/><stop offset="0.31" stop-color="#f0f0f5" stop-opacity="0.47"/><stop offset="0.47" stop-color="#eae9f0" stop-opacity="0.66"/><stop offset="0.62" stop-color="#e5e4ed" stop-opacity="0.81"/><stop offset="0.76" stop-color="#e2e1eb" stop-opacity="0.91"/><stop offset="0.89" stop-color="#e0dfe9" stop-opacity="0.98"/><stop offset="1" stop-color="#dfdee9"/></linearGradient></defs><title>Spilskærm</title><g class="cls-2"><g id="Background"><rect class="cls-3" x="1" y="-1" width="1920" height="584"/><path class="cls-4" d="M1889.61,438.17l30.39,0c-186.41-81.4-505.42-192.58-914.8-200C549.34,230,195.7,354.3,2.18,438.92l-7.77.22L.41,1085H1921q2.51-321.93,5-643.86Z"/><path class="cls-5" d="M1040.47,303.67l6.29-4.71a2.36,2.36,0,0,0,.21-3.31h0a2.37,2.37,0,0,0-3.24-.73l-6.41,4.81a4.06,4.06,0,0,1-4.11.37,7.45,7.45,0,0,0-7.56.58l-26.57,19.89a3.75,3.75,0,0,0-.34,5.24l5.9,7.88a3.74,3.74,0,0,0,5.11,1.14l26.57-19.9a7.46,7.46,0,0,0,2.65-7.3A4.08,4.08,0,0,1,1040.47,303.67Z"/><rect class="cls-6" x="1009.89" y="308.03" width="17.81" height="17.81" transform="translate(661.82 -688.53) rotate(53.17)"/><path class="cls-7" d="M1042.72,293.63h.55a2.18,2.18,0,0,1,2.18,2.18v6.93a1,1,0,0,1-1,1h-3.09a1,1,0,0,1-1-1v-6.8a2.31,2.31,0,0,1,2.31-2.31Z" transform="translate(656.87 -715.17) rotate(53.17)"/><path class="cls-8" d="M1015.71,310.74s0,.06,0,.1l-.06,0-.32-.44,0,0,0,0a.06.06,0,0,0,.05,0l1.13-.85-.35-.47,0,0a.07.07,0,0,0-.07,0l0-.05.4-.3,0,0a.09.09,0,0,0,0,.07.14.14,0,0,0,0,.06l1,1.26a.1.1,0,0,0,0,0,.06.06,0,0,0,.07,0l0,.05-.4.3,0-.06a.07.07,0,0,0,0-.06.14.14,0,0,0,0-.06l-.36-.47Z"/><path class="cls-8" d="M1018.57,312.29a.09.09,0,0,0,0-.06.19.19,0,0,0-.05-.1l-.69-.92-.35.26.41.56a.32.32,0,0,0,.09.08.11.11,0,0,0,.1,0l0,.05-.45.33,0,0a.12.12,0,0,0,.06-.09.34.34,0,0,0-.05-.11l-.42-.55-.39.29.71.95a.13.13,0,0,0,.07.06.12.12,0,0,0,.08,0l0,.06-.39.29,0-.05s0-.05,0-.07l0-.07-1-1.33,0,0s0,0,0,0h.05l1.3-1a.06.06,0,0,0,0,0s0,0,0,0l.05,0,1,1.3a.17.17,0,0,0,.08.07.11.11,0,0,0,.07,0l0,.06-.37.28Z"/><path class="cls-8" d="M1019.14,315.1v0h0s0,0-.1-.06l-.2-.1a1.65,1.65,0,0,1-.47-.41,1.58,1.58,0,0,1-.21-.38,1.14,1.14,0,0,1-.08-.4.85.85,0,0,1,.37-.7,1,1,0,0,1,.39-.18.86.86,0,0,1,.39,0,.94.94,0,0,1,.36.18,1.3,1.3,0,0,1,.31.31,1.4,1.4,0,0,1,.17.28,2.35,2.35,0,0,1,.11.24.83.83,0,0,1,.05.18s0,.07,0,.08h.07v.07l-.51,0v0h0v0a.12.12,0,0,0,0-.11.55.55,0,0,0,0-.17,1.54,1.54,0,0,0-.08-.19.69.69,0,0,0-.1-.17,1,1,0,0,0-.2-.2.64.64,0,0,0-.25-.12.7.7,0,0,0-.25,0,.68.68,0,0,0-.26.12.6.6,0,0,0-.18.21.54.54,0,0,0-.06.25.59.59,0,0,0,0,.26.94.94,0,0,0,.14.26.85.85,0,0,0,.16.17,1.25,1.25,0,0,0,.19.15.71.71,0,0,0,.18.08.24.24,0,0,0,.12,0l0,0,.06,0-.16.42Z"/><path class="cls-8" d="M1021.67,316s0-.06,0-.1l.05,0,.33.44,0,0,0,0s0,0-.05,0l-1.3,1,0,0a.07.07,0,0,0,0,.05l-.05,0-.33-.44,0,0a.07.07,0,0,0,.1,0l.54-.41-.69-.91-.54.4a.05.05,0,0,0,0,0,.09.09,0,0,0,0,0l0,0-.32-.43.05,0s.06,0,.09,0l1.29-1s0-.05,0-.09l.06,0,.32.43,0,0,0,0a0,0,0,0,0,0,0l-.49.36.69.92Z"/><path class="cls-8" d="M1021,317.92a.06.06,0,0,0,.09,0l1.3-1a.06.06,0,0,0,0-.09l.05,0,.36.49-.05,0s0,0,0,0,0,.05,0,.12l-.24,1.45.91-.67s0-.07,0-.12l.06,0,.32.44-.05,0s-.06,0-.09,0l-1.3,1s0,.05,0,.09l0,0-.35-.46,0,0s0,0,.06,0a.29.29,0,0,0,0-.1l.26-1.55-.95.71s0,.06,0,.11l-.05,0L1021,318Z"/><path class="cls-8" d="M1024.77,319.89a1.24,1.24,0,0,1,.19.36,1.11,1.11,0,0,1,.09.4.92.92,0,0,1-.08.4.79.79,0,0,1-.27.34.9.9,0,0,1-.41.17,1.07,1.07,0,0,1-.4,0,1.27,1.27,0,0,1-.36-.2,1.48,1.48,0,0,1-.28-.28,1.58,1.58,0,0,1-.2-.36,1.09,1.09,0,0,1-.08-.39.92.92,0,0,1,.07-.4.81.81,0,0,1,.28-.34.74.74,0,0,1,.4-.17.9.9,0,0,1,.4,0,1.44,1.44,0,0,1,.37.19A1.85,1.85,0,0,1,1024.77,319.89Zm-.26.2a.91.91,0,0,0-.2-.19.55.55,0,0,0-.24-.12.58.58,0,0,0-.26,0,.66.66,0,0,0-.26.11.46.46,0,0,0-.17.22.43.43,0,0,0,0,.25.84.84,0,0,0,0,.27,1.19,1.19,0,0,0,.13.25,1.21,1.21,0,0,0,.2.19,1.08,1.08,0,0,0,.24.12.82.82,0,0,0,.27,0,.6.6,0,0,0,.25-.1.51.51,0,0,0,.17-.22.58.58,0,0,0,.06-.26.86.86,0,0,0,0-.27A.92.92,0,0,0,1024.51,320.09Z"/><path class="cls-8" d="M1024.77,322a0,0,0,0,0,0,0l0,0,0-.06.34-.25,0,.05a0,0,0,0,0,0,.08l.36.49,0,0,0,0,0,.05-.34.26,0-.05s0-.05,0-.08Z"/><path class="cls-8" d="M1015.24,314.33a2,2,0,0,1,.17.27.72.72,0,0,1,.09.27.43.43,0,0,1-.15.44.31.31,0,0,1-.27.07,1,1,0,0,1-.26-.11h0a.72.72,0,0,1,0,.32.39.39,0,0,1-.18.28.48.48,0,0,1-.19.09.53.53,0,0,1-.21,0,.71.71,0,0,1-.21-.11.88.88,0,0,1-.21-.22l-.79-1.05,0,0c0,.06.08.07.12,0l1.29-1s0-.07,0-.12l.05,0Zm-1.19,1a.54.54,0,0,0,.25.22.21.21,0,0,0,.2,0,.23.23,0,0,0,.09-.19.56.56,0,0,0-.14-.3l-.41-.54-.4.3Zm.65-.48a.68.68,0,0,0,.19.19.17.17,0,0,0,.2,0,.18.18,0,0,0,.08-.19,1.47,1.47,0,0,0-.13-.24l-.41-.54-.34.25Z"/><path class="cls-8" d="M1014.53,316.4a.1.1,0,0,0,.08,0l.11,0,1.5-.3h.1l.06,0a.05.05,0,0,0,0-.05l0-.06.05,0,.36.48,0,0,0,0a0,0,0,0,0-.06,0s0,0,0,0l0,.08-.71,1.46a.19.19,0,0,0,0,.07s0,.05,0,.08l-.05,0-.37-.5.05,0,0,0h0a.16.16,0,0,0,.05-.08l.13-.27-.52-.69-.28.05-.1,0s0,0,0,.08l-.05,0-.31-.41Zm1.34.68.35-.63-.73.13Z"/><path class="cls-8" d="M1016.35,318.08l0,.05a.37.37,0,0,0,0,.11.62.62,0,0,0,0,.13.78.78,0,0,0,0,.14.47.47,0,0,0,.07.12c.09.12.16.19.24.21a.24.24,0,0,0,.24-.06l.92-.68a.08.08,0,0,0,0-.08.2.2,0,0,0,0-.09l0,0,.41.55-.06,0a.16.16,0,0,0-.08-.06.1.1,0,0,0-.09,0l-.94.71a.5.5,0,0,1-.23.09.5.5,0,0,1-.24,0,.68.68,0,0,1-.22-.14,1.7,1.7,0,0,1-.22-.24l-.11-.17-.07-.16,0-.12a.39.39,0,0,0,0-.09.08.08,0,0,0-.07,0v-.06Z"/><path class="cls-8" d="M1019.36,320.47a.06.06,0,0,0,0-.06.21.21,0,0,0,0-.09l-.69-.93-.36.27.42.56a.28.28,0,0,0,.09.07s.06,0,.1,0l0,.05-.45.34,0,0s.06-.07.06-.1a.31.31,0,0,0,0-.1l-.42-.56-.39.3.71.95a.15.15,0,0,0,.07.05.08.08,0,0,0,.08,0l0,.05-.39.29,0-.05s0,0,0-.06l0-.08-1-1.32,0,0,0,0a0,0,0,0,0,0,0l1.3-1,0,0a0,0,0,0,0,0-.05l.05,0,1,1.3s0,.07.08.07a.06.06,0,0,0,.07,0l0,.05-.37.28Z"/><path class="cls-8" d="M1020.75,321.69a1.34,1.34,0,0,1,.17.27.76.76,0,0,1,.06.25.41.41,0,0,1,0,.22.67.67,0,0,1-.18.2.44.44,0,0,1-.37.1.79.79,0,0,1-.36-.19l-.26.78a.08.08,0,0,0,0,.07.09.09,0,0,0,0,.06l0,0-.4-.53,0,0a.08.08,0,0,0,0,0h0s0,0,0,0a.45.45,0,0,0,0-.08l.21-.64-.3-.41-.51.38s0,0,0,.05a.13.13,0,0,0,0,.07l-.05,0-.37-.49.05,0c0,.06.08.07.12.05l1.29-1s0-.07,0-.12l0,0Zm-.72.43a1.22,1.22,0,0,0,.14.16.56.56,0,0,0,.13.07.22.22,0,0,0,.11,0,.24.24,0,0,0,.1-.05.27.27,0,0,0,.07-.08.31.31,0,0,0,0-.11.3.3,0,0,0,0-.14,1,1,0,0,0-.11-.18l-.37-.49-.42.31Z"/><path class="cls-9" d="M1557.66,857.22a112.27,112.27,0,0,1-88.41,3c-5.22-2-7.62-7.13-5.45-10.89q4.14-7.44,8.29-14.88a55.78,55.78,0,0,1,21.62-20.66c7.46-3.88,13.44-4.91,19.79-2.66,1,.33,2,.64,3,.92,6.41,1.82,13.29,6,20.86,10.18,7.39,4.37,15.46,8.75,19.84,15.5l6.45,10.13C1565.34,850.42,1562.71,854.86,1557.66,857.22Z"/><path class="cls-10" d="M1553,855c-2.17-4.13-19.73-.73-39.77-1.51-10.14-.18-19.37-1-26.69-1.05s-12.65.62-14,3.51c-.64,1.42.3,5.15,2.74,6.17a84.72,84.72,0,0,0,13.55,3.78,109.72,109.72,0,0,0,24.26,1.92,111.27,111.27,0,0,0,24-3.39,124,124,0,0,0,13.21-4.32C1553.36,858.85,1553.49,856.19,1553,855Z"/><path class="cls-11" d="M1551.24,853c-3.74,3.77-10.31,8-19.93,11.07"/><path class="cls-11" d="M1544.55,852.54c-3,4.28-8.33,8.68-16.2,12.23"/><path class="cls-11" d="M1536.8,852.89a33.74,33.74,0,0,1-11.64,12.18"/><path class="cls-11" d="M1529.15,853.21c-1.65,5.31-4.24,9.77-7.83,12.48"/><path class="cls-11" d="M1521.69,853.52a17,17,0,0,1-5.38,12.55"/><path class="cls-11" d="M1514.8,853.47c1,4.95.54,9-1.16,12.68"/><path class="cls-11" d="M1517.78,859h0"/><path class="cls-11" d="M1510.88,853.47c-1.51,4.86-2.28,9.29-1,12.76"/><path class="cls-11" d="M1505.7,853.1c-1.37,4.62-1.41,9,.58,13"/><path class="cls-11" d="M1501.35,852.81c-1.43,5-.91,9.63,2.52,13.3"/><path class="cls-11" d="M1494.33,852.42a18.87,18.87,0,0,0,6.24,13.35"/><path class="cls-11" d="M1487.19,852a36.91,36.91,0,0,0,10.65,13.49"/><path class="cls-11" d="M1480.86,852.55c2.6,5.36,7.86,9.75,15.49,12.22"/><path class="cls-11" d="M1473.88,854.49a32,32,0,0,0,20,10.37"/><path class="cls-12" d="M1523.52,922.46a175.19,175.19,0,0,1-25.31,3.23c-9.56.53-16.54-3.82-15.44-8.56q5.14-24.2,10.28-48.38c1-4.51,5.58-7.74,10.84-8.36a73.85,73.85,0,0,1,7.59-.52,87.34,87.34,0,0,1,10.62.46c5.16.56,9.37,3.28,10.06,7.22q3.42,21.5,6.85,43C1539.76,914.69,1532.89,920.55,1523.52,922.46Z"/><path class="cls-11" d="M1553.22,854.93c-4.29,3.67-11.44,7.55-21.39,9.93"/><path class="cls-11" d="M1472.06,857.58a44.45,44.45,0,0,0,21.53,8.6"/><path class="cls-13" d="M1572,946H1468.82V912c1.66,0,4.52-4.78,5,0s8.28-6.57,8.44,0,9.62-5.38,13.71,0,6-5.38,10,0,7.63-10.16,14.42,0,7.69-10.16,7.47,0,4.09-4.18,8.49,0,11.33,0,11.33,0H1572Z"/><path class="cls-9" d="M152.45,625.31A98.23,98.23,0,0,1,75.1,628c-4.57-1.73-6.66-6.23-4.76-9.52q3.61-6.51,7.25-13A48.77,48.77,0,0,1,96.5,587.36c6.54-3.4,11.76-4.3,17.32-2.33.87.29,1.74.56,2.63.8,5.6,1.6,11.62,5.26,18.25,8.91,6.46,3.83,13.52,7.66,17.36,13.56l5.64,8.86C159.17,619.36,156.87,623.25,152.45,625.31Z"/><path class="cls-10" d="M148.33,623.35c-1.89-3.62-17.26-.64-34.79-1.33-8.87-.15-17-.86-23.35-.92s-11.07.55-12.2,3.07c-.57,1.24.26,4.51,2.39,5.4a74.93,74.93,0,0,0,11.86,3.31,95.39,95.39,0,0,0,21.22,1.68,97.18,97.18,0,0,0,21-3A108.29,108.29,0,0,0,146,627.82C148.69,626.74,148.81,624.41,148.33,623.35Z"/><path class="cls-11" d="M146.84,621.65c-3.27,3.3-9,7-17.44,9.68"/><path class="cls-11" d="M141,621.21c-2.64,3.75-7.3,7.61-14.18,10.7"/><path class="cls-11" d="M134.2,621.53A29.48,29.48,0,0,1,124,632.18"/><path class="cls-11" d="M127.51,621.8c-1.44,4.65-3.71,8.55-6.85,10.92"/><path class="cls-11" d="M121,622.07a14.88,14.88,0,0,1-4.7,11"/><path class="cls-11" d="M115,622a17.38,17.38,0,0,1-1,11.09"/><path class="cls-11" d="M117.56,626.86h0"/><path class="cls-11" d="M111.53,622c-1.32,4.25-2,8.13-.84,11.16"/><path class="cls-11" d="M107,621.71c-1.2,4-1.23,7.91.51,11.41"/><path class="cls-11" d="M103.19,621.46c-1.25,4.4-.8,8.42,2.2,11.63"/><path class="cls-11" d="M97.05,621.12a16.5,16.5,0,0,0,5.46,11.68"/><path class="cls-11" d="M90.8,620.74a32.4,32.4,0,0,0,9.32,11.81"/><path class="cls-11" d="M85.26,621.22c2.28,4.7,6.88,8.54,13.56,10.7"/><path class="cls-11" d="M79.15,622.92A28,28,0,0,0,96.65,632"/><path class="cls-12" d="M122.58,682.39a151.13,151.13,0,0,1-22.14,2.82c-8.36.47-14.47-3.34-13.5-7.48q4.49-21.16,9-42.33c.89-3.95,4.88-6.77,9.48-7.32a65.08,65.08,0,0,1,6.64-.45,76.61,76.61,0,0,1,9.29.4c4.52.49,8.2,2.87,8.8,6.32q3,18.81,6,37.61C136.8,675.59,130.78,680.71,122.58,682.39Z"/><path class="cls-11" d="M148.57,623.31c-3.76,3.21-10,6.61-18.72,8.69"/><path class="cls-11" d="M77.56,625.63a38.9,38.9,0,0,0,18.84,7.52"/><path class="cls-13" d="M165,703H74.73V673.2c1.45,0,4-4.18,4.35,0s7.25-5.75,7.39,0,8.41-4.7,12,0,5.28-4.7,8.79,0,6.67-8.88,12.61,0,6.73-8.88,6.54,0,3.58-3.66,7.43,0,9.91,0,9.91,0H165Z"/><path class="cls-9" d="M682.3,382.7c-11.8-.21-23-20.92-33.51-15.55-2,1.06-2.95.2-2.1-3.06s1.65-6.1,2.45-8.82c4.47-15.22,14-14.52,23.07-10.1h0c4.62,3.18,8.7,8.9,11.67,12.7,2.94,4.24,4.77,6.55,4,13.22-.27,2.34-.57,4.66-.89,6.89S684.57,382.81,682.3,382.7Z"/><path class="cls-10" d="M681.7,380.38c.5-2.22-6.45-5.85-14.87-14.62s-15.71-6.61-16.88-2c-.28,1,0,2.57.85,2.51,2-5.24,25.83,17.21,28.73,15.88C680.8,382.47,681.55,381.15,681.7,380.38Z"/><path class="cls-11" d="M681.66,378.94c-2.25,1.1-5.45.85-9.5-1.46"/><path class="cls-11" d="M679.47,376.88c-2.13,1.25-5,1.22-8.51-.22"/><path class="cls-11" d="M676.51,374.56a9.17,9.17,0,0,1-6.76,1"/><path class="cls-11" d="M673.45,371.87c-1.67,1.74-3.45,2.64-5.23,2.58"/><path class="cls-11" d="M670.37,369.06a5.43,5.43,0,0,1-4.08,3.78"/><path class="cls-11" d="M667.51,366.36a9,9,0,0,1-2.24,5.61"/><path class="cls-11" d="M665.86,364.94a10.16,10.16,0,0,0-2,5.89"/><path class="cls-11" d="M663.7,363.07a11,11,0,0,0-1.24,6.67"/><path class="cls-11" d="M661.88,361.73a9.74,9.74,0,0,0-.34,7.38"/><path class="cls-11" d="M658.94,360.16a17,17,0,0,0,1.37,8"/><path class="cls-11" d="M656,359.42a46,46,0,0,0,3.32,8.12"/><path class="cls-11" d="M653.35,360.11c.91,2.41,2.71,4.34,5.43,6.8"/><path class="cls-11" d="M650.51,362.61a45.37,45.37,0,0,0,7.3,4"/><path class="cls-12" d="M657.83,409.49c-2.46-.08-4.9-.28-7.32-.4-2.7-.18-4-3.2-2.93-6.95,3.55-13,6.74-24.69,9.56-33.41.79-2.49,2.86-3.67,5.06-2.56a16.6,16.6,0,0,1,3.1,2,33.84,33.84,0,0,1,4.11,4.1c1.92,2.26,2.93,5,2.36,7-2.1,7-4.56,14.19-7.39,24.45C663.57,406.66,660.58,409.53,657.83,409.49Z"/><path class="cls-11" d="M681.8,380.42c-2.37.88-5.61.3-9.61-2.42"/><path class="cls-11" d="M649.72,364.8a31.58,31.58,0,0,1,7.86,2.54"/><path class="cls-9" d="M627.72,907.39c-23.92,23-48.47-20.55-73.64-1.19-2.28,1.71-4.12,1.78-4.09-.59.18-12.81.5-24.93,1-37.88.6-14.47,9.2-28,18.7-24.88,10.67,1.82,21.16,4.47,31.48,5.58,9.19,1.35,18.6,14,21.3,23.5a290.53,290.53,0,0,0,8.23,28.31C631.2,901.75,629.88,905.31,627.72,907.39Z"/><path class="cls-10" d="M621.11,907.45c-.63-2.65-4.59-2.68-10.38-5.06-5.81-2.08-13.47-6.51-21.85-11.12-16.65-11.08-30.6-.83-30.64,6.77,0,1.59,1.81,4,3.77,3.66,2.61-1.67,15.88-1,28.84,6,13,7.35,25.68,7.2,28.07,5.07C621.25,911.85,621.46,908.83,621.11,907.45Z"/><path class="cls-11" d="M619.88,905.11a16.71,16.71,0,0,1-15.49,6.28"/><path class="cls-11" d="M614.61,903.35a15.49,15.49,0,0,1-12.46,7.51"/><path class="cls-11" d="M608.33,901.23c-2.12,4.42-5,7.25-8.6,8.59"/><path class="cls-11" d="M602.06,898.29c-1.11,5.31-2.76,9.05-5.22,10.54"/><path class="cls-11" d="M595.92,895.11c.34,5.52-.51,9.57-2.87,12"/><path class="cls-11" d="M590.22,892c1.44,6.15,1.57,10.65.81,14.21"/><path class="cls-11" d="M593.31,899.62h0"/><path class="cls-11" d="M587,890.4a34.15,34.15,0,0,0,1.23,14.5"/><path class="cls-11" d="M582.69,888.3a34.67,34.67,0,0,0,2.76,15.34"/><path class="cls-11" d="M579.11,887A28.2,28.2,0,0,0,583.64,903"/><path class="cls-11" d="M573.43,886.14a45.9,45.9,0,0,0,7.69,15.7"/><path class="cls-11" d="M567.76,886.87c3,4.19,6.79,8.9,11.27,14.21"/><path class="cls-11" d="M563.15,889.93c3.55,3.51,8.47,6.6,14.63,10.16"/><path class="cls-11" d="M558.72,895.91c5,.91,10.77,2.54,17.26,4.15"/><path class="cls-12" d="M606.23,965c-4.86,1.59-9.74,3.26-14.64,5.06-5.47,2.2-10.4-.67-10.9-6.65-1.77-19.78-3.25-40.09-4.43-58.84-.32-5.23,2.35-8.89,6.34-8.29a21.94,21.94,0,0,1,5.84,1.79,51.92,51.92,0,0,1,8.45,5.07c4.15,3,7.62,7.91,8.38,12.33,2.7,16.18,5.7,30,9,40.86C615.25,959.42,611.66,963.11,606.23,965Z"/><path class="cls-11" d="M621.32,907.42c-3.5,4-9,6.6-16.48,5"/><path class="cls-11" d="M558.43,899.75c5.41-.58,11.3.39,17.64,1.82"/><path class="cls-13" d="M648,975.47,560,985l-2.65-24.33c1.42-.15,3.49-3.83,4.25-.46s6.56-5.46,7.2-.78,7.79-4.74,11.7-1.27,4.73-4.4,8.57-.93,5.72-8,12.3-1.34,5.78-8,6.37-.69,3.17-3.37,7.25-.79,9.67-1.05,9.67-1.05l20.73-2.25Z"/><path class="cls-9" d="M1170,583.23c-13.48,10.57-27.29-12.38-41.43-2.76-2.26,1.49-4.1,1.82-4-.51.08-4.15.18-8.24.31-12.4.21-6.31,2.67-15.07,6-19.29,3.4-4.66,7.72-4.78,12.45-4.14,1.84.36,3.67.69,5.49,1,9.15,1.14,18.48,15,21.38,22.45.89,3.17,1.81,6.09,2.75,8.85C1173.5,577.89,1172.19,581.54,1170,583.23Z"/><path class="cls-10" d="M1167.56,582c-.82-2.05-9.41-3.18-19.49-10s-18.53,0-18.57,4.63c0,.95,1.09,2.31,2.28,2,3.32-5.28,31.72,12.2,34.46,6.57C1167.64,584.63,1167.78,582.79,1167.56,582Z"/><path class="cls-11" d="M1166.82,580.52a9.93,9.93,0,0,1-9.38,3.76"/><path class="cls-11" d="M1163.63,579.44a9.18,9.18,0,0,1-7.54,4.49"/><path class="cls-11" d="M1159.83,578.12a9.43,9.43,0,0,1-5.21,5.16"/><path class="cls-11" d="M1156,576.28c-.68,3.23-1.68,5.49-3.17,6.38"/><path class="cls-11" d="M1152.32,574.31c.2,3.36-.31,5.82-1.74,7.3"/><path class="cls-11" d="M1148.87,572.37a19.75,19.75,0,0,1,.48,8.63"/><path class="cls-11" d="M1146.92,571.42a20.81,20.81,0,0,0,.73,8.8"/><path class="cls-11" d="M1144.32,570.15a21,21,0,0,0,1.66,9.3"/><path class="cls-11" d="M1142.15,569.4a17.07,17.07,0,0,0,2.73,9.64"/><path class="cls-11" d="M1138.71,568.92a27.68,27.68,0,0,0,4.64,9.44"/><path class="cls-11" d="M1135.28,569.48c1.81,2.46,4.1,5.24,6.81,8.44"/><path class="cls-11" d="M1132.49,571.47a47.86,47.86,0,0,0,8.84,5.85"/><path class="cls-11" d="M1129.8,575.27a90.07,90.07,0,0,1,10.44,2.05"/><path class="cls-12" d="M1158.51,617c-3,1-5.91,2-8.89,3.09-3.31,1.35-6.3-.42-6.6-4.09-1-12.14-1.92-24.54-2.62-35.91-.18-3.17,1.44-5.42,3.85-5.07a12.69,12.69,0,0,1,3.54,1.09,30.06,30.06,0,0,1,5.11,3.12,13.1,13.1,0,0,1,5.07,7.57,205.77,205.77,0,0,0,5.41,24.92C1164,613.57,1161.8,615.81,1158.51,617Z"/><path class="cls-11" d="M1167.69,581.93a9.74,9.74,0,0,1-10,3"/><path class="cls-11" d="M1129.61,577.6c3.28-.61,6.84-.17,10.68.64"/><path class="cls-13" d="M1183.92,623.23l-53.41,5.8-1.61-14.76c.86-.1,2.12-2.33,2.58-.28s4-3.32,4.37-.48,4.73-2.87,7.1-.77,2.87-2.67,5.19-.56,3.48-4.83,7.47-.81,3.5-4.84,3.86-.42,1.93-2,4.4-.48,5.87-.64,5.87-.64l12.57-1.36Z"/><g class="cls-2"><g class="cls-2"><g class="cls-14"><g class="cls-2"><path class="cls-15" d="M376.81,527.51,426,500.76A69.47,69.47,0,0,0,399,502l-49.18,26.75a69.53,69.53,0,0,1,27-1.24"/><path class="cls-16" d="M349.83,528.75,399,502A52.48,52.48,0,0,0,389,505.69l-49.18,26.75a52.73,52.73,0,0,1,10.05-3.69"/><path class="cls-17" d="M339.78,532.44,389,505.69c-.59.29-1.17.59-1.73.9l-49.18,26.74,1.73-.89"/></g></g></g><ellipse class="cls-18" cx="376.89" cy="571.03" rx="42.58" ry="58.99" transform="translate(-280.23 761.58) rotate(-72.75)"/><g class="cls-2"><g class="cls-19"><g class="cls-2"><path class="cls-20" d="M415.72,608.72,464.89,582c11.63-6.32,18.92-16.79,18.9-29.58A36.36,36.36,0,0,0,481.51,540l-49.18,26.75a36.37,36.37,0,0,1,2.29,12.42c0,12.79-7.27,23.26-18.9,29.58"/><path class="cls-21" d="M432.33,566.72,481.51,540A44.69,44.69,0,0,0,479,534.3l-49.17,26.75a43.26,43.26,0,0,1,2.55,5.67"/><path class="cls-22" d="M429.78,561.05,479,534.3a50.83,50.83,0,0,0-3.07-5L426.7,556.08a49.08,49.08,0,0,1,3.08,5"/><path class="cls-23" d="M426.7,556.08l49.18-26.75a56.54,56.54,0,0,0-3.86-4.88L422.85,551.2a56.41,56.41,0,0,1,3.85,4.88"/><path class="cls-24" d="M422.85,551.2,472,524.45a62.64,62.64,0,0,0-5-5l-49.17,26.75a64.33,64.33,0,0,1,5,5"/><path class="cls-17" d="M417.84,546.16,467,519.41a68.87,68.87,0,0,0-6.94-5.48L410.9,540.68a68.87,68.87,0,0,1,6.94,5.48"/><path class="cls-16" d="M410.9,540.68l49.17-26.75a75.64,75.64,0,0,0-10.92-6.27L400,534.41a75.21,75.21,0,0,1,10.93,6.27"/><path class="cls-15" d="M400,534.41l49.18-26.75a81.12,81.12,0,0,0-23.17-6.9l-49.17,26.75a80.73,80.73,0,0,1,23.16,6.9"/></g></g></g></g><ellipse class="cls-25" cx="372.94" cy="570.45" rx="6.76" ry="9.52" transform="matrix(0.27, -0.96, 0.96, 0.27, -277.62, 773.61)"/><ellipse class="cls-25" cx="372.59" cy="570.71" rx="8.49" ry="11.97" transform="translate(-278.12 773.45) rotate(-74.17)"/><ellipse class="cls-25" cx="373.65" cy="569.94" rx="3.28" ry="4.63" transform="translate(-276.61 773.92) rotate(-74.17)"/><ellipse class="cls-25" cx="372.78" cy="571.02" rx="14.48" ry="20.41" transform="translate(-278.29 773.87) rotate(-74.17)"/><ellipse class="cls-25" cx="373.93" cy="569.98" rx="18.91" ry="26.67" transform="translate(-276.44 774.21) rotate(-74.17)"/><ellipse class="cls-25" cx="374.06" cy="569.52" rx="23.55" ry="33.2" transform="translate(-275.91 774) rotate(-74.17)"/><ellipse class="cls-25" cx="377.01" cy="570.06" rx="27.99" ry="39.46" transform="translate(-274.29 777.24) rotate(-74.17)"/><ellipse class="cls-25" cx="377.01" cy="570.09" rx="31.07" ry="43.81" transform="translate(-274.32 777.25) rotate(-74.17)"/><ellipse class="cls-25" cx="376.36" cy="570.78" rx="34.53" ry="49.02" transform="translate(-275.45 777.13) rotate(-74.17)"/><ellipse class="cls-25" cx="376.13" cy="570.83" rx="38.85" ry="53.22" transform="translate(-275.67 776.95) rotate(-74.17)"/><path class="cls-13" d="M483.53,631h-164V590c2.64,0,7.19-5.75,7.91,0s13.17-7.91,13.42,0,15.28-6.47,21.78,0,9.58-6.47,16,0,12.12-12.22,22.91,0,12.22-12.22,11.86,0,6.52-5,13.51,0,18,0,18,0h38.61Z"/><g class="cls-2"><g class="cls-2"><g class="cls-26"><g class="cls-2"><path class="cls-15" d="M934.34,428l-44.67-24.3a63,63,0,0,1,24.5,1.13l44.67,24.3a62.81,62.81,0,0,0-24.5-1.13"/><path class="cls-16" d="M958.84,429.12l-44.67-24.3a47.24,47.24,0,0,1,9.13,3.35L968,432.47a47.49,47.49,0,0,0-9.13-3.35"/><path class="cls-17" d="M968,432.47l-44.67-24.3c.54.26,1.06.53,1.58.81l44.66,24.3c-.51-.28-1-.55-1.57-.81"/></g></g></g><ellipse class="cls-18" cx="934.27" cy="467.52" rx="53.58" ry="38.68" transform="translate(-96.63 298.15) rotate(-17.25)"/><g class="cls-2"><g class="cls-27"><g class="cls-2"><path class="cls-20" d="M899,501.76l-44.67-24.3c-10.56-5.74-17.18-15.25-17.16-26.87a32.93,32.93,0,0,1,2.07-11.28l44.67,24.3a32.93,32.93,0,0,0-2.07,11.28c0,11.62,6.6,21.13,17.16,26.87"/><path class="cls-21" d="M883.9,463.61l-44.67-24.3a41.33,41.33,0,0,1,2.32-5.15l44.67,24.3a39.92,39.92,0,0,0-2.32,5.15"/><path class="cls-22" d="M886.22,458.46l-44.67-24.3a43.66,43.66,0,0,1,2.8-4.51L889,453.94a46.66,46.66,0,0,0-2.79,4.52"/><path class="cls-23" d="M889,453.94l-44.66-24.29a49.72,49.72,0,0,1,3.5-4.44l44.67,24.3a53.21,53.21,0,0,0-3.51,4.43"/><path class="cls-24" d="M892.52,449.51l-44.67-24.3a57.76,57.76,0,0,1,4.55-4.58l44.67,24.3a57.76,57.76,0,0,0-4.55,4.58"/><path class="cls-17" d="M897.07,444.93l-44.67-24.3a62.37,62.37,0,0,1,6.3-5L903.37,440a62.37,62.37,0,0,0-6.3,5"/><path class="cls-16" d="M903.37,440l-44.67-24.3a70.3,70.3,0,0,1,9.93-5.71l44.67,24.3a68.8,68.8,0,0,0-9.93,5.71"/><path class="cls-15" d="M913.3,434.25,868.63,410a73.59,73.59,0,0,1,21-6.26L934.34,428a73.59,73.59,0,0,0-21,6.26"/></g></g></g></g><ellipse class="cls-25" cx="937.85" cy="467" rx="8.65" ry="6.14" transform="translate(-91.83 273.6) rotate(-15.83)"/><ellipse class="cls-25" cx="938.17" cy="467.23" rx="10.88" ry="7.71" transform="translate(-91.88 273.69) rotate(-15.83)"/><ellipse class="cls-25" cx="937.21" cy="466.54" rx="4.2" ry="2.98" transform="matrix(0.96, -0.27, 0.27, 0.96, -91.73, 273.4)"/><ellipse class="cls-25" cx="938" cy="467.52" rx="18.54" ry="13.15" transform="translate(-91.97 273.66) rotate(-15.83)"/><ellipse class="cls-25" cx="936.96" cy="466.57" rx="24.22" ry="17.18" transform="translate(-91.75 273.34) rotate(-15.83)"/><ellipse class="cls-25" cx="936.84" cy="466.15" rx="30.16" ry="21.39" transform="translate(-91.64 273.29) rotate(-15.83)"/><ellipse class="cls-25" cx="934.15" cy="466.65" rx="35.84" ry="25.42" transform="translate(-91.88 272.57) rotate(-15.83)"/><ellipse class="cls-25" cx="934.16" cy="466.67" rx="39.8" ry="28.23" transform="translate(-91.88 272.58) rotate(-15.83)"/><ellipse class="cls-25" cx="934.75" cy="467.29" rx="44.53" ry="31.36" transform="translate(-92.03 272.76) rotate(-15.83)"/><ellipse class="cls-25" cx="934.96" cy="467.35" rx="48.35" ry="35.29" transform="translate(-92.04 272.82) rotate(-15.83)"/><g class="cls-2"><g class="cls-2"><g class="cls-28"><g class="cls-2"><path class="cls-15" d="M1069.91,791.88l58.78-32a82.94,82.94,0,0,0-32.24,1.48l-58.78,32a82.94,82.94,0,0,1,32.24-1.49"/><path class="cls-16" d="M1037.67,793.37l58.78-32a63.4,63.4,0,0,0-12,4.41l-58.78,32a62.72,62.72,0,0,1,12-4.41"/><path class="cls-17" d="M1025.65,797.78l58.78-32c-.7.35-1.39.7-2.07,1.07l-58.77,32c.67-.37,1.36-.73,2.06-1.07"/></g></g></g><ellipse class="cls-18" cx="1070.01" cy="843.9" rx="50.9" ry="70.51" transform="translate(-53.29 1615.45) rotate(-72.75)"/><g class="cls-2"><g class="cls-29"><g class="cls-2"><path class="cls-20" d="M1116.43,889l58.77-32c13.9-7.56,22.62-20.07,22.59-35.35a43.42,43.42,0,0,0-2.73-14.85l-58.78,32A43.42,43.42,0,0,1,1139,853.6c0,15.28-8.68,27.8-22.58,35.36"/><path class="cls-21" d="M1136.28,838.75l58.78-32a52.4,52.4,0,0,0-3-6.78l-58.78,32a52.89,52.89,0,0,1,3,6.77"/><path class="cls-22" d="M1133.23,832,1192,800a60,60,0,0,0-3.68-5.94l-58.78,32a58.82,58.82,0,0,1,3.68,5.94"/><path class="cls-23" d="M1129.55,826l58.78-32a65.81,65.81,0,0,0-4.61-5.83l-58.78,32a65.93,65.93,0,0,1,4.61,5.84"/><path class="cls-24" d="M1124.94,820.2l58.78-32a72.44,72.44,0,0,0-6-6l-58.78,32a74,74,0,0,1,6,6"/><path class="cls-17" d="M1119,814.17l58.78-32a84.72,84.72,0,0,0-8.29-6.55l-58.78,32a83.16,83.16,0,0,1,8.29,6.54"/><path class="cls-16" d="M1110.66,807.63l58.78-32a93,93,0,0,0-13.06-7.5l-58.78,32a90.53,90.53,0,0,1,13.06,7.5"/><path class="cls-15" d="M1097.6,800.13l58.78-32a96.81,96.81,0,0,0-27.69-8.24l-58.78,32a96.41,96.41,0,0,1,27.69,8.25"/></g></g></g></g><ellipse class="cls-25" cx="1065.29" cy="843.21" rx="8.07" ry="11.38" transform="matrix(0.27, -0.96, 0.96, 0.27, -36.58, 1638.03)"/><ellipse class="cls-25" cx="1064.87" cy="843.52" rx="10.15" ry="14.31" transform="translate(-37.18 1637.84) rotate(-74.17)"/><ellipse class="cls-25" cx="1066.14" cy="842.61" rx="3.92" ry="5.53" transform="translate(-35.38 1638.41) rotate(-74.17)"/><ellipse class="cls-25" cx="1065.1" cy="843.9" rx="17.3" ry="24.39" transform="translate(-37.38 1638.34) rotate(-74.17)"/><ellipse class="cls-25" cx="1066.47" cy="842.64" rx="22.61" ry="31.88" transform="translate(-35.18 1638.75) rotate(-74.17)"/><ellipse class="cls-25" cx="1066.62" cy="842.1" rx="28.15" ry="39.68" transform="translate(-34.54 1638.5) rotate(-74.17)"/><ellipse class="cls-25" cx="1070.16" cy="842.75" rx="33.45" ry="47.16" transform="translate(-32.6 1642.37) rotate(-74.17)"/><ellipse class="cls-25" cx="1070.15" cy="842.78" rx="37.14" ry="52.37" transform="translate(-32.64 1642.39) rotate(-74.17)"/><ellipse class="cls-25" cx="1069.37" cy="843.6" rx="41.27" ry="58.59" transform="translate(-33.98 1642.24) rotate(-74.17)"/><ellipse class="cls-25" cx="1069.1" cy="843.67" rx="46.44" ry="63.62" transform="translate(-34.25 1642.03) rotate(-74.17)"/><path class="cls-13" d="M1197.48,915.59h-196v-49c3.16,0,8.6-6.87,9.46,0s15.74-9.45,16,0,18.27-7.73,26,0,11.45-7.73,19.07,0,14.49-14.61,27.38,0,14.62-14.61,14.19,0,7.78-6,16.14,0,21.51,0,21.51,0h46.16Z"/><g class="cls-2"><g class="cls-2"><g class="cls-30"><g class="cls-2"><path class="cls-15" d="M323.14,854.22l-66.43-36.06a93.64,93.64,0,0,1,36.42,1.64l66.44,36.06a93.69,93.69,0,0,0-36.43-1.64"/><path class="cls-16" d="M359.57,855.86,293.13,819.8a71.18,71.18,0,0,1,13.58,5l66.43,36.06a70.83,70.83,0,0,0-13.57-5"/><path class="cls-17" d="M373.14,860.83l-66.43-36.06c.79.39,1.57.79,2.34,1.21L375.48,862c-.76-.42-1.54-.82-2.34-1.21"/></g></g></g><ellipse class="cls-18" cx="323.09" cy="912.98" rx="79.65" ry="57.5" transform="translate(-256.99 137.46) rotate(-17.31)"/><g class="cls-2"><g class="cls-31"><g class="cls-2"><path class="cls-20" d="M270.7,963.93l-66.44-36c-15.71-8.53-25.57-22.66-25.55-39.92a48.79,48.79,0,0,1,3.07-16.78l66.43,36.06A49.21,49.21,0,0,0,245.14,924c0,17.27,9.85,31.4,25.56,39.92"/><path class="cls-21" d="M248.21,907.24l-66.43-36.06a57.85,57.85,0,0,1,3.44-7.66l66.43,36.06a60.56,60.56,0,0,0-3.44,7.66"/><path class="cls-22" d="M251.65,899.58l-66.43-36.06a68.54,68.54,0,0,1,4.14-6.71l66.44,36.05a68.78,68.78,0,0,0-4.15,6.72"/><path class="cls-23" d="M255.8,892.86l-66.44-36.05a74.24,74.24,0,0,1,5.21-6.6L261,886.27a77.41,77.41,0,0,0-5.2,6.59"/><path class="cls-24" d="M261,886.27l-66.43-36.06a83.54,83.54,0,0,1,6.76-6.82l66.43,36.06a83.54,83.54,0,0,0-6.76,6.82"/><path class="cls-17" d="M267.76,879.45l-66.43-36.06a94.62,94.62,0,0,1,9.36-7.4l66.44,36.06a93.6,93.6,0,0,0-9.37,7.4"/><path class="cls-16" d="M277.13,872.05,210.69,836a103.06,103.06,0,0,1,14.74-8.49l66.44,36.06a103.06,103.06,0,0,0-14.74,8.49"/><path class="cls-15" d="M291.87,863.56,225.43,827.5a109.31,109.31,0,0,1,31.28-9.34l66.43,36.06a109.15,109.15,0,0,0-31.27,9.34"/></g></g></g></g><ellipse class="cls-25" cx="328.42" cy="912.2" rx="12.86" ry="9.12" transform="translate(-237.17 124.75) rotate(-15.89)"/><ellipse class="cls-25" cx="328.89" cy="912.55" rx="16.17" ry="11.47" transform="translate(-237.24 124.89) rotate(-15.89)"/><ellipse class="cls-25" cx="327.46" cy="911.52" rx="6.25" ry="4.43" transform="translate(-237.02 124.46) rotate(-15.89)"/><ellipse class="cls-25" cx="328.63" cy="912.97" rx="27.56" ry="19.55" transform="translate(-237.37 124.84) rotate(-15.89)"/><ellipse class="cls-25" cx="327.09" cy="911.56" rx="36.01" ry="25.54" transform="translate(-237.04 124.36) rotate(-15.89)"/><ellipse class="cls-25" cx="326.91" cy="910.94" rx="44.83" ry="31.8" transform="translate(-236.88 124.29) rotate(-15.89)"/><ellipse class="cls-25" cx="322.92" cy="911.68" rx="53.28" ry="37.79" transform="translate(-237.23 123.22) rotate(-15.89)"/><ellipse class="cls-25" cx="322.93" cy="911.72" rx="59.16" ry="41.96" transform="translate(-237.24 123.23) rotate(-15.89)"/><ellipse class="cls-25" cx="323.81" cy="912.64" rx="66.19" ry="46.62" transform="matrix(0.96, -0.27, 0.27, 0.96, -237.46, 123.5)"/><ellipse class="cls-25" cx="324.11" cy="912.72" rx="71.87" ry="52.46" transform="translate(-237.47 123.59) rotate(-15.89)"/><path class="cls-13" d="M179.16,994.1l221.41-.2-.06-55.36c-3.56,0-9.71-7.75-10.68,0s-17.79-10.66-18.11,0-20.65-8.72-29.43,0-12.94-8.73-21.54,0-16.39-16.49-30.94,0-16.52-16.49-16,0-8.8-6.78-18.24,0-24.3,0-24.3,0l-52.14,0Z"/><g class="cls-2"><g class="cls-2"><g class="cls-32"><g class="cls-2"><path class="cls-15" d="M1674.36,634.93l54.2-29.48a76.64,76.64,0,0,0-29.73,1.37l-54.2,29.49a76.64,76.64,0,0,1,29.73-1.38"/><path class="cls-16" d="M1644.63,636.31l54.2-29.49a58.89,58.89,0,0,0-11.08,4.07l-54.19,29.48a57.84,57.84,0,0,1,11.07-4.06"/><path class="cls-17" d="M1633.56,640.37l54.19-29.48c-.65.32-1.28.65-1.91,1l-54.19,29.48c.62-.34,1.26-.67,1.91-1"/></g></g></g><ellipse class="cls-18" cx="1674.45" cy="682.9" rx="46.93" ry="65.01" transform="translate(525.63 2079.45) rotate(-72.75)"/><g class="cls-2"><g class="cls-33"><g class="cls-2"><path class="cls-20" d="M1717.25,724.45l54.2-29.49c12.81-7,20.85-18.51,20.82-32.6a40.11,40.11,0,0,0-2.51-13.69l-54.2,29.49a40.06,40.06,0,0,1,2.52,13.68c0,14.1-8,25.63-20.83,32.61"/><path class="cls-21" d="M1735.56,678.16l54.2-29.49a49.59,49.59,0,0,0-2.82-6.25l-54.2,29.49a47,47,0,0,1,2.82,6.25"/><path class="cls-22" d="M1732.74,671.91l54.2-29.49a52.51,52.51,0,0,0-3.39-5.47l-54.19,29.48a53.19,53.19,0,0,1,3.38,5.48"/><path class="cls-23" d="M1729.36,666.43,1783.55,637a60.74,60.74,0,0,0-4.25-5.38l-54.19,29.48a64.67,64.67,0,0,1,4.25,5.38"/><path class="cls-24" d="M1725.11,661.05l54.19-29.48a68.88,68.88,0,0,0-5.52-5.56l-54.2,29.48a70.69,70.69,0,0,1,5.53,5.56"/><path class="cls-17" d="M1719.58,655.49l54.2-29.48a78.21,78.21,0,0,0-7.65-6l-54.2,29.49a75.52,75.52,0,0,1,7.65,6"/><path class="cls-16" d="M1711.93,649.46l54.2-29.49a83.76,83.76,0,0,0-12-6.91l-54.2,29.48a83.27,83.27,0,0,1,12,6.92"/><path class="cls-15" d="M1699.89,642.54l54.2-29.48a89.51,89.51,0,0,0-25.53-7.61l-54.2,29.48a89.32,89.32,0,0,1,25.53,7.61"/></g></g></g></g><ellipse class="cls-25" cx="1670.1" cy="682.27" rx="7.45" ry="10.5" transform="translate(558.06 2102.86) rotate(-74.17)"/><ellipse class="cls-25" cx="1669.71" cy="682.55" rx="9.36" ry="13.2" transform="translate(557.5 2102.69) rotate(-74.17)"/><ellipse class="cls-25" cx="1670.89" cy="681.71" rx="3.62" ry="5.1" transform="translate(559.17 2103.21) rotate(-74.17)"/><ellipse class="cls-25" cx="1669.92" cy="682.9" rx="15.95" ry="22.49" transform="translate(557.32 2103.15) rotate(-74.17)"/><ellipse class="cls-25" cx="1671.19" cy="681.74" rx="20.85" ry="29.39" transform="translate(559.35 2103.52) rotate(-74.17)"/><ellipse class="cls-25" cx="1671.33" cy="681.24" rx="25.95" ry="36.59" transform="translate(559.94 2103.29) rotate(-74.17)"/><ellipse class="cls-25" cx="1674.59" cy="681.84" rx="30.84" ry="43.49" transform="translate(561.73 2106.87) rotate(-74.17)"/><ellipse class="cls-25" cx="1674.58" cy="681.87" rx="34.25" ry="48.28" transform="translate(561.69 2106.88) rotate(-74.17)"/><ellipse class="cls-25" cx="1673.86" cy="682.62" rx="38.05" ry="54.02" transform="translate(560.45 2106.74) rotate(-74.17)"/><ellipse class="cls-25" cx="1673.61" cy="682.69" rx="42.82" ry="58.66" transform="translate(560.21 2106.55) rotate(-74.17)"/><path class="cls-5" d="M867.68,713.83l-16.77,10.74c-2.54,1.63-3.06,5.38-1.16,8.34h0c1.89,3,5.52,4.06,8.06,2.44l17.12-11a10.26,10.26,0,0,1,10.47-.18c6.26,3.35,13.52,3.59,19.23-.06l70.91-45.41c4-2.57,4.83-8.5,1.84-13.18l-13.47-21c-3-4.68-8.72-6.41-12.73-3.84l-70.91,45.4c-5.85,3.75-8.67,10.7-8.06,18A10.33,10.33,0,0,1,867.68,713.83Z"/><rect class="cls-6" x="902.41" y="661.7" width="45.17" height="45.17" transform="translate(847.54 1832.26) rotate(-122.63)"/><path class="cls-7" d="M858.76,713.21h3.8a4.37,4.37,0,0,1,4.37,4.37v19.27a2,2,0,0,1-2,2h-8.88a2,2,0,0,1-2-2v-19a4.63,4.63,0,0,1,4.63-4.63Z" transform="translate(713.17 1842.2) rotate(-122.63)"/><path class="cls-8" d="M931.61,700.5c.09-.06.1-.14,0-.25l.14-.09.75,1.17-.14.09a.18.18,0,0,0-.09-.08.16.16,0,0,0-.13,0l-3,1.94.8,1.25a.28.28,0,0,0,.13.11.16.16,0,0,0,.18,0l.09.14-1.06.68-.09-.13a.19.19,0,0,0,.1-.16.3.3,0,0,0,0-.16l-2.16-3.38a.43.43,0,0,0-.12-.11.22.22,0,0,0-.19,0l-.09-.14,1.07-.68.09.14a.21.21,0,0,0-.11.16.33.33,0,0,0,0,.15l.81,1.26Z"/><path class="cls-8" d="M924.67,696.05a.18.18,0,0,0-.09.15.55.55,0,0,0,.11.25l1.57,2.47,1-.61-1-1.49a.66.66,0,0,0-.19-.21q-.09-.06-.27.06l-.09-.14,1.19-.76.09.14c-.12.07-.18.15-.17.22a.48.48,0,0,0,.1.27l1,1.49,1-.67-1.63-2.54a.28.28,0,0,0-.17-.15.19.19,0,0,0-.19,0l-.09-.14,1-.67.08.14c-.07,0-.1.1-.08.15a1.24,1.24,0,0,0,.1.2l2.27,3.55-.13.08a.23.23,0,0,0-.1-.07.17.17,0,0,0-.13,0L926.44,700a.15.15,0,0,0-.08.1.21.21,0,0,0,0,.12l-.14.09L924,696.87a.42.42,0,0,0-.19-.19.17.17,0,0,0-.18,0l-.08-.14,1-.64Z"/><path class="cls-8" d="M923.75,688.83l0,0s0,0,0,0a1.09,1.09,0,0,0,.23.16,5.53,5.53,0,0,1,.48.3,3.86,3.86,0,0,1,.58.47,3.07,3.07,0,0,1,.53.65,3.59,3.59,0,0,1,.47,1,2.84,2.84,0,0,1,.13,1,2.22,2.22,0,0,1-1.06,1.71,2.44,2.44,0,0,1-1,.37,2.22,2.22,0,0,1-1-.13,2.73,2.73,0,0,1-.89-.53,4.2,4.2,0,0,1-.72-.84,5.33,5.33,0,0,1-.39-.74c-.09-.24-.16-.45-.22-.64s-.09-.33-.11-.45a1.5,1.5,0,0,0,0-.21.12.12,0,0,0-.08,0h-.09l0-.17h1.3V691l0,0,0,0a.35.35,0,0,0-.07.26,1.85,1.85,0,0,0,.06.44,3.6,3.6,0,0,0,.16.5,2,2,0,0,0,.22.44,2.37,2.37,0,0,0,.48.56,2.09,2.09,0,0,0,.59.34,1.48,1.48,0,0,0,1.32-.18,1.41,1.41,0,0,0,.5-.5,1.52,1.52,0,0,0,.21-.62,2,2,0,0,0-.06-.68,2.87,2.87,0,0,0-.3-.67,2.78,2.78,0,0,0-.39-.47,3.23,3.23,0,0,0-.45-.4,1.75,1.75,0,0,0-.44-.24.36.36,0,0,0-.3,0,.18.18,0,0,0-.07.09l-.13-.06.48-1Z"/><path class="cls-8" d="M917.5,686.07c-.09,0-.1.14,0,.25l-.14.09-.75-1.17.14-.09a.13.13,0,0,0,.09.07.13.13,0,0,0,.13,0L920.4,683a.15.15,0,0,0,.07-.11.17.17,0,0,0,0-.12l.13-.09.75,1.18-.13.08a.17.17,0,0,0-.25-.08l-1.43.92,1.57,2.45,1.43-.92a.15.15,0,0,0,.08-.1.21.21,0,0,0,0-.12l.14-.09.73,1.15-.13.09a.15.15,0,0,0-.23-.06l-3.46,2.21a.16.16,0,0,0,0,.24l-.14.08-.73-1.15.13-.08a.23.23,0,0,0,.1.07.21.21,0,0,0,.13,0l1.29-.83-1.57-2.45Z"/><path class="cls-8" d="M919.54,681.34c-.07-.1-.14-.12-.23-.06l-3.46,2.21a.16.16,0,0,0,0,.24l-.14.08-.83-1.3.13-.09c0,.05.07.05.12,0a.57.57,0,0,0,.12-.29l.86-3.64-2.42,1.55c-.09.06-.09.16,0,.29l-.13.09-.74-1.15.14-.09a.16.16,0,0,0,.23.06l3.45-2.22a.15.15,0,0,0,0-.23l.13-.09.79,1.24-.13.08c0-.06-.09-.08-.14,0a.47.47,0,0,0-.09.23l-.94,3.87,2.53-1.61c.09-.06.1-.15,0-.27l.14-.09.72,1.13Z"/><path class="cls-8" d="M910.38,675.66a3.5,3.5,0,0,1-.42-.94,3.28,3.28,0,0,1-.13-1,2.47,2.47,0,0,1,.26-1,2.05,2.05,0,0,1,.77-.81,2,2,0,0,1,1-.36,2.48,2.48,0,0,1,1,.18,2.88,2.88,0,0,1,.87.56,4,4,0,0,1,.66.78,3.69,3.69,0,0,1,.43.92,3,3,0,0,1,.15,1,2.47,2.47,0,0,1-.26,1,2.05,2.05,0,0,1-.77.81,2.1,2.1,0,0,1-1,.36,2.45,2.45,0,0,1-1-.18,3.3,3.3,0,0,1-.89-.55A4,4,0,0,1,910.38,675.66Zm.7-.45a2.81,2.81,0,0,0,.46.52,2.29,2.29,0,0,0,.6.35,1.64,1.64,0,0,0,.66.11,1.44,1.44,0,0,0,.67-.22,1.46,1.46,0,0,0,.48-.51,1.85,1.85,0,0,0,.18-.65,2.32,2.32,0,0,0-.07-.69,2.82,2.82,0,0,0-.28-.64,2.55,2.55,0,0,0-.47-.52,2.09,2.09,0,0,0-.59-.35,1.69,1.69,0,0,0-.67-.11,1.4,1.4,0,0,0-.66.22,1.46,1.46,0,0,0-.48.51,1.85,1.85,0,0,0-.18.65,2.32,2.32,0,0,0,.07.69A2.64,2.64,0,0,0,911.08,675.21Z"/><path class="cls-8" d="M910.79,670.36a.09.09,0,0,0,.1,0,.2.2,0,0,0,.11,0l.08.14-.91.58-.09-.13c.09-.06.12-.13.07-.21l-.84-1.3a.09.09,0,0,0-.1-.05.2.2,0,0,0-.11,0l-.08-.14.91-.59.09.14c-.09.06-.12.13-.07.2Z"/><path class="cls-8" d="M933.47,691.5a4.44,4.44,0,0,1-.38-.71,2.54,2.54,0,0,1-.19-.7,1.35,1.35,0,0,1,.07-.61.91.91,0,0,1,.4-.47.82.82,0,0,1,.69-.14,1.89,1.89,0,0,1,.64.34h0a1.69,1.69,0,0,1-.05-.83,1.05,1.05,0,0,1,.51-.67,1.07,1.07,0,0,1,.48-.17,1.23,1.23,0,0,1,.53.07,1.75,1.75,0,0,1,.53.34,2.67,2.67,0,0,1,.48.59l1.79,2.79-.13.08c-.09-.14-.19-.18-.28-.12l-3.45,2.21q-.14.09,0,.3l-.14.09Zm1.47-1.16a1.79,1.79,0,0,0-.46-.51.42.42,0,0,0-.51,0,.41.41,0,0,0-.22.46,1.84,1.84,0,0,0,.27.63l.93,1.45.92-.58Zm1.73-1.11a1.36,1.36,0,0,0-.59-.59.56.56,0,0,0-.78.5,1.48,1.48,0,0,0,.29.78l.93,1.46,1.08-.7Z"/><path class="cls-8" d="M935.64,686.38a.29.29,0,0,0-.2-.09h-.26l-3.86.49-.24,0a.65.65,0,0,0-.18.05.15.15,0,0,0-.07.12.4.4,0,0,0,0,.15l-.14.08-.82-1.28.14-.09.11.08a.11.11,0,0,0,.14,0,.35.35,0,0,0,.11-.1l.1-.18,2.09-3.57a.25.25,0,0,0,0-.18.75.75,0,0,0,0-.2l.14-.08.86,1.33-.14.09a.14.14,0,0,0-.07-.06.09.09,0,0,0-.1,0,.54.54,0,0,0-.16.19l-.37.65,1.18,1.85.72-.07a.84.84,0,0,0,.28-.07s0-.1,0-.2l.14-.08.69,1.08Zm-3.25-2-1,1.55,1.88-.19Z"/><path class="cls-8" d="M931.34,681.82l0-.15a.47.47,0,0,0,.14-.26,1.19,1.19,0,0,0,0-.33,2.37,2.37,0,0,0-.09-.36,1.71,1.71,0,0,0-.17-.33,1.62,1.62,0,0,0-.55-.58.69.69,0,0,0-.64.11l-2.44,1.57a.22.22,0,0,0-.11.2.46.46,0,0,0,0,.21l-.13.09-.93-1.45.14-.08a.49.49,0,0,0,.2.18.24.24,0,0,0,.23,0l2.51-1.61a1.22,1.22,0,0,1,.59-.2,1.29,1.29,0,0,1,.6.12,1.83,1.83,0,0,1,.55.41,4.43,4.43,0,0,1,.5.65c.1.16.18.31.25.45s.11.28.15.4.07.23.1.33a.93.93,0,0,0,.08.22.19.19,0,0,0,.18.07v.17Z"/><path class="cls-8" d="M924.19,675.2a.16.16,0,0,0-.09.15.55.55,0,0,0,.11.25l1.57,2.46,1-.6-1-1.49a.57.57,0,0,0-.19-.21c-.06,0-.15,0-.27,0l-.09-.13,1.19-.76.09.13c-.12.08-.18.15-.17.23a.48.48,0,0,0,.1.27l1,1.49,1-.67-1.63-2.55a.35.35,0,0,0-.17-.15.21.21,0,0,0-.19,0l-.09-.13,1-.67.08.14c-.07,0-.1.09-.08.15s.06.12.1.2l2.27,3.54-.13.09a.14.14,0,0,0-.1-.07.13.13,0,0,0-.13,0L926,679.17a.17.17,0,0,0-.08.11.27.27,0,0,0,0,.12l-.14.08L923.55,676c-.07-.11-.13-.18-.19-.2a.23.23,0,0,0-.18,0l-.08-.13,1-.65Z"/><path class="cls-8" d="M920.89,671.85a3.11,3.11,0,0,1-.36-.7,1.54,1.54,0,0,1-.12-.64,1.09,1.09,0,0,1,.15-.56,1.44,1.44,0,0,1,.48-.47,1.2,1.2,0,0,1,1-.2,2,2,0,0,1,.87.58l.8-1.94a.31.31,0,0,0,0-.19c0-.05,0-.1-.07-.14l.13-.09.91,1.43-.13.08a.32.32,0,0,0-.1-.1s-.07,0-.09,0a.17.17,0,0,0-.07.09l-.08.17-.65,1.6.7,1.09,1.35-.87a.13.13,0,0,0,.07-.11.33.33,0,0,0-.08-.21l.14-.08.84,1.31-.13.09c-.1-.15-.19-.19-.28-.13l-3.45,2.21c-.1.06-.1.16,0,.31l-.14.09Zm1.9-.94a2.39,2.39,0,0,0-.33-.43,1.18,1.18,0,0,0-.3-.21.56.56,0,0,0-.28,0,.6.6,0,0,0-.25.1.52.52,0,0,0-.2.19.45.45,0,0,0-.08.26.89.89,0,0,0,.07.37,2.23,2.23,0,0,0,.25.48l.84,1.32,1.13-.72Z"/><path class="cls-5" d="M220,820.56l7.14-24.29c1.08-3.68-1.55-7.72-5.84-9h0c-4.3-1.26-8.69.72-9.77,4.39l-7.29,24.8a13,13,0,0,1-9.89,8.9c-8.8,2-16,7.83-18.4,16.09l-30.17,102.7c-1.71,5.81,2.44,12.19,9.22,14.18l30.45,8.94c6.78,2,13.72-1.13,15.43-6.93l30.17-102.7c2.49-8.48-.6-17.49-7.26-24A13.15,13.15,0,0,1,220,820.56Z"/><rect class="cls-6" x="160.97" y="867.99" width="57.43" height="57.43" transform="translate(260.45 -17.11) rotate(16.37)"/><path class="cls-7" d="M213.24,786.63h7.27a4.37,4.37,0,0,1,4.37,4.37v26.21a2,2,0,0,1-2,2H210.57a2,2,0,0,1-2-2v-26a4.63,4.63,0,0,1,4.63-4.63Z" transform="translate(235.11 -28.54) rotate(16.37)"/><path class="cls-8" d="M169.73,886.65c0,.14,0,.22.19.27l-.06.2-1.7-.5.06-.2a.16.16,0,0,0,.15,0,.18.18,0,0,0,.11-.13l1.29-4.38-1.82-.54a.37.37,0,0,0-.21,0,.23.23,0,0,0-.16.18l-.2,0,.46-1.55.2.06a.25.25,0,0,0,0,.24.42.42,0,0,0,.18.11l4.89,1.44a.37.37,0,0,0,.21,0,.24.24,0,0,0,.15-.18l.2.06-.45,1.54-.2-.06a.25.25,0,0,0,0-.24.49.49,0,0,0-.18-.11l-1.82-.53Z"/><path class="cls-8" d="M180.11,885.13a.2.2,0,0,0-.05-.21.68.68,0,0,0-.3-.16l-3.57-1-.4,1.37,2.16.63a.68.68,0,0,0,.36,0c.09,0,.16-.11.21-.28l.2.06-.51,1.72-.2-.06a.39.39,0,0,0,0-.36.74.74,0,0,0-.32-.17l-2.16-.63-.45,1.52,3.68,1.08a.48.48,0,0,0,.29,0,.26.26,0,0,0,.17-.18l.2.06L179,890l-.19-.06c0-.11,0-.18,0-.21a1.16,1.16,0,0,0-.27-.11l-5.13-1.51.06-.19a.26.26,0,0,0,.15,0,.19.19,0,0,0,.1-.13l1.47-5a.18.18,0,0,0,0-.16.2.2,0,0,0-.13-.09l.06-.2,5,1.47a.53.53,0,0,0,.34,0,.23.23,0,0,0,.15-.17l.2.06-.43,1.46Z"/><path class="cls-8" d="M187,891.3l-.06,0-.06,0a1.14,1.14,0,0,0-.35,0c-.2,0-.43.08-.72.11a5.69,5.69,0,0,1-.95,0,4.92,4.92,0,0,1-1.05-.18,5.48,5.48,0,0,1-1.28-.57,3.42,3.42,0,0,1-1-.88,2.79,2.79,0,0,1-.5-1.14,2.75,2.75,0,0,1,.09-1.38,2.91,2.91,0,0,1,.66-1.2,2.85,2.85,0,0,1,1.05-.7,3.66,3.66,0,0,1,1.3-.23,5.06,5.06,0,0,1,1.38.2,5.49,5.49,0,0,1,1,.39c.29.15.53.29.74.42s.37.25.49.35a.9.9,0,0,0,.21.16.11.11,0,0,0,.11,0l.09-.07.13.18-1.26,1.08-.08-.11s0,0,0-.06,0-.06,0-.09a.44.44,0,0,0-.15-.31,2.63,2.63,0,0,0-.42-.37c-.18-.12-.37-.24-.57-.35a5.14,5.14,0,0,0-.58-.24,3.31,3.31,0,0,0-.93-.13,2.34,2.34,0,0,0-.85.17,2,2,0,0,0-.69.48,2.09,2.09,0,0,0-.49,1.68,1.88,1.88,0,0,0,.32.77,2.37,2.37,0,0,0,.62.6,2.88,2.88,0,0,0,.85.4,3.66,3.66,0,0,0,.76.13,4.94,4.94,0,0,0,.77,0,2.19,2.19,0,0,0,.62-.13q.26-.09.3-.24a.17.17,0,0,0,0-.14l.18,0,.38,1.39Z"/><path class="cls-8" d="M195.31,888.73q.06-.19-.18-.27l.06-.19,1.69.49,0,.2a.29.29,0,0,0-.16,0,.19.19,0,0,0-.1.13l-1.47,5a.18.18,0,0,0,0,.16.18.18,0,0,0,.12.09l-.06.2-1.7-.5.06-.2q.24.07.3-.12l.61-2.07-3.55-1-.6,2.07a.19.19,0,0,0,0,.17.21.21,0,0,0,.13.09l-.06.2-1.67-.49.06-.2c.14,0,.23,0,.27-.13l1.47-5a.19.19,0,0,0-.15-.26l.06-.2,1.66.49-.06.2a.26.26,0,0,0-.15,0,.16.16,0,0,0-.1.13l-.56,1.87,3.55,1.05Z"/><path class="cls-8" d="M197.3,895a.19.19,0,0,0,.27-.14l1.47-5a.19.19,0,0,0-.15-.26l.05-.2,1.89.55-.06.2q-.09,0-.12.09s0,.18.13.37l2.2,4.21,1-3.5c0-.13,0-.23-.23-.29l.06-.19,1.66.49-.06.19a.18.18,0,0,0-.26.14l-1.47,5a.18.18,0,0,0,.15.26l-.06.2-1.79-.52.06-.2c.1,0,.15,0,.17-.06s0-.15-.1-.3l-2.33-4.49-1.07,3.65c0,.14,0,.23.19.28l-.06.19-1.63-.47Z"/><path class="cls-8" d="M210.82,892.79a4.64,4.64,0,0,1,1.18.54,4.19,4.19,0,0,1,1,.88,3.38,3.38,0,0,1,.58,1.17,2.67,2.67,0,0,1-.06,1.42,2.7,2.7,0,0,1-.72,1.22,3.13,3.13,0,0,1-1.12.67,3.76,3.76,0,0,1-1.3.19,4.83,4.83,0,0,1-1.28-.2,5,5,0,0,1-1.19-.53,3.88,3.88,0,0,1-1-.86,3.12,3.12,0,0,1-.57-1.17,2.53,2.53,0,0,1,0-1.41,2.6,2.6,0,0,1,.72-1.22,3.15,3.15,0,0,1,1.12-.68,3.76,3.76,0,0,1,1.3-.2A4.47,4.47,0,0,1,210.82,892.79Zm-.3,1a2.81,2.81,0,0,0-.87-.11,2.74,2.74,0,0,0-.87.15,2.11,2.11,0,0,0-.72.46,1.6,1.6,0,0,0-.46.76,1.69,1.69,0,0,0,0,.89,2,2,0,0,0,.37.77,2.62,2.62,0,0,0,.64.6,2.79,2.79,0,0,0,1.67.49,2.49,2.49,0,0,0,.87-.15,2.22,2.22,0,0,0,.73-.45,1.75,1.75,0,0,0,.45-.77,1.69,1.69,0,0,0,0-.89,2.18,2.18,0,0,0-.36-.77,2.67,2.67,0,0,0-.65-.6A2.79,2.79,0,0,0,210.52,893.8Z"/><path class="cls-8" d="M214.85,898.21a.12.12,0,0,0-.14,0,.28.28,0,0,0-.08.12l-.2-.06.39-1.32.2.06c0,.13,0,.21.11.24l1.88.56a.19.19,0,0,0,.15,0,.25.25,0,0,0,.07-.12l.2.06-.39,1.32-.19-.06c0-.13,0-.21-.11-.25Z"/><path class="cls-8" d="M175.46,896.83a5.82,5.82,0,0,1,1,.38,2.81,2.81,0,0,1,.76.51,1.6,1.6,0,0,1,.44.64,1.18,1.18,0,0,1,0,.79,1,1,0,0,1-.55.7,2.38,2.38,0,0,1-.89.22v0a2.15,2.15,0,0,1,.73.74,1.3,1.3,0,0,1,.08,1.07,1.46,1.46,0,0,1-.32.57,1.52,1.52,0,0,1-.57.37,2.15,2.15,0,0,1-.79.12,3.52,3.52,0,0,1-1-.15l-4-1.19.06-.2c.2.06.33,0,.37-.11l1.47-5c0-.13-.05-.23-.26-.29l.06-.2Zm-1.18,4.85a1.84,1.84,0,0,0,1.06.08.69.69,0,0,0,.47-.48.68.68,0,0,0-.14-.65,1.75,1.75,0,0,0-.93-.51l-2.11-.62-.46,1.56Zm.74-2.51a2.09,2.09,0,0,0,.85.11.53.53,0,0,0,.49-.44.52.52,0,0,0-.17-.62,2.15,2.15,0,0,0-.79-.37l-2.1-.62-.39,1.32Z"/><path class="cls-8" d="M177.64,903.56a.38.38,0,0,0,.27-.08,2.55,2.55,0,0,0,.24-.23l3.3-3.69.21-.22a.5.5,0,0,0,.13-.19.16.16,0,0,0,0-.18l-.14-.11.06-.2,1.86.55-.06.19-.17,0c-.06,0-.1.05-.13.14a.53.53,0,0,0,0,.18,2,2,0,0,0,.05.27l1,5.16a.5.5,0,0,0,.1.22l.18.17-.06.2-1.94-.57.06-.2h.12a.14.14,0,0,0,.1-.08.66.66,0,0,0,0-.31l-.18-.94-2.68-.79-.63.66a1.17,1.17,0,0,0-.21.3c0,.08,0,.14.18.19l-.06.19-1.57-.46Zm4.76-.83-.33-2.32-1.63,1.74Z"/><path class="cls-8" d="M185.57,904.35l.16.12a.58.58,0,0,0,.08.36,1.16,1.16,0,0,0,.27.33,1.56,1.56,0,0,0,.39.26,2.35,2.35,0,0,0,1.44.27.84.84,0,0,0,.52-.63l1-3.54a.29.29,0,0,0-.06-.28.54.54,0,0,0-.23-.16l.06-.2,2.09.62-.06.19a.65.65,0,0,0-.34,0,.28.28,0,0,0-.21.2l-1.07,3.64a1.47,1.47,0,0,1-.4.7,1.51,1.51,0,0,1-.67.37,2.2,2.2,0,0,1-.86.07,5.24,5.24,0,0,1-1-.21,4.05,4.05,0,0,1-.62-.22,5.21,5.21,0,0,1-.48-.26l-.36-.23a1,1,0,0,0-.27-.14.23.23,0,0,0-.23.07l-.14-.15Z"/><path class="cls-8" d="M198,904.74a.22.22,0,0,0,0-.21.8.8,0,0,0-.31-.16l-3.57-1-.4,1.37,2.16.63a.68.68,0,0,0,.36,0c.09,0,.16-.11.21-.28l.2.06-.51,1.72-.2-.06c0-.17,0-.29,0-.36a.74.74,0,0,0-.32-.17l-2.16-.63-.45,1.52,3.68,1.08a.48.48,0,0,0,.29,0,.24.24,0,0,0,.17-.18l.2.06-.44,1.51-.2-.06c0-.11,0-.18-.05-.22a2,2,0,0,0-.27-.1l-5.13-1.51.06-.2a.2.2,0,0,0,.15,0,.22.22,0,0,0,.1-.13l1.47-5a.2.2,0,0,0,0-.17.3.3,0,0,0-.13-.09l.06-.19,5,1.47a.53.53,0,0,0,.34,0,.23.23,0,0,0,.15-.17l.2.06-.43,1.45Z"/><path class="cls-8" d="M203.91,905.19a4.84,4.84,0,0,1,.94.38,2.63,2.63,0,0,1,.65.51,1.42,1.42,0,0,1,.31.67,1.81,1.81,0,0,1-.06.85,1.55,1.55,0,0,1-.76,1,2.39,2.39,0,0,1-1.31.17l.85,2.53a.3.3,0,0,0,.14.18.6.6,0,0,0,.19.08l-.06.2-2.06-.6.06-.2a.37.37,0,0,0,.18,0,.11.11,0,0,0,.1-.06.23.23,0,0,0,0-.14,2.16,2.16,0,0,0-.08-.23l-.7-2.08-1.58-.46-.57,2a.17.17,0,0,0,0,.17.51.51,0,0,0,.25.13l-.06.19-1.91-.56.06-.2c.21.07.34,0,.38-.1l1.47-5c0-.13,0-.23-.26-.3l.06-.19Zm-1,2.5a2.86,2.86,0,0,0,.68.13,1.13,1.13,0,0,0,.47-.05.59.59,0,0,0,.29-.19.9.9,0,0,0,.17-.3,1.06,1.06,0,0,0,0-.35.72.72,0,0,0-.15-.32,1.17,1.17,0,0,0-.37-.3,2.85,2.85,0,0,0-.64-.25l-1.91-.56-.48,1.63Z"/><image class="cls-34" width="430" height="430" transform="translate(1471 -80)" xlink:href="Spilsk%C3%A6rm1.png"/><circle class="cls-35" cx="1686" cy="135" r="65"/><rect class="cls-1" x="1453.74" y="155.98" width="7" height="7"/><circle class="cls-36" cx="1457.24" cy="159.48" r="3.5"/><rect class="cls-1" x="1419.18" y="102.51" width="7" height="7"/><circle class="cls-36" cx="1422.68" cy="106.01" r="3.5"/><rect class="cls-1" x="1386.39" y="45.17" width="7" height="7"/><circle class="cls-36" cx="1389.89" cy="48.67" r="3.5"/><rect class="cls-1" x="1331.58" y="96.41" width="7" height="7"/><circle class="cls-36" cx="1335.08" cy="99.91" r="3.5"/><rect class="cls-1" x="1298.32" y="82.17" width="7" height="7"/><circle class="cls-36" cx="1301.82" cy="85.67" r="3.5"/><rect class="cls-1" x="1248.3" y="194.88" width="7" height="7"/><circle class="cls-36" cx="1251.8" cy="198.38" r="3.5"/><rect class="cls-1" x="1191.55" y="118.37" width="7" height="7"/><circle class="cls-36" cx="1195.05" cy="121.87" r="3.5"/><rect class="cls-1" x="1137.53" y="54.69" width="7" height="7"/><circle class="cls-36" cx="1141.03" cy="58.19" r="3.5"/><rect class="cls-1" x="1130.03" y="129.08" width="7" height="7"/><circle class="cls-36" cx="1133.53" cy="132.58" r="3.5"/><rect class="cls-1" x="1081.78" y="139.25" width="7" height="7"/><circle class="cls-36" cx="1085.28" cy="142.75" r="3.5"/><rect class="cls-1" x="1035.22" y="71.31" width="7" height="7"/><circle class="cls-36" cx="1038.72" cy="74.81" r="3.5"/><rect class="cls-1" x="1001.65" y="111.46" width="7" height="7"/><circle class="cls-36" cx="1005.15" cy="114.96" r="3.5"/><rect class="cls-1" x="937.35" y="134.17" width="7" height="7"/><circle class="cls-36" cx="940.85" cy="137.67" r="3.5"/><rect class="cls-1" x="888.94" y="1.24" width="7" height="7"/><circle class="cls-36" cx="892.44" cy="4.74" r="3.5"/><rect class="cls-1" x="854.69" y="3.84" width="7" height="7"/><circle class="cls-36" cx="858.19" cy="7.34" r="3.5"/><rect class="cls-1" x="793.21" y="152.43" width="7" height="7"/><circle class="cls-36" cx="796.71" cy="155.93" r="3.5"/><rect class="cls-1" x="741.21" y="19.79" width="7" height="7"/><circle class="cls-36" cx="744.71" cy="23.29" r="3.5"/><rect class="cls-1" x="708.96" y="143.61" width="7" height="7"/><circle class="cls-36" cx="712.46" cy="147.11" r="3.5"/><rect class="cls-1" x="654.79" y="143.06" width="7" height="7"/><circle class="cls-36" cx="658.29" cy="146.56" r="3.5"/><rect class="cls-1" x="612.42" y="170.99" width="7" height="7"/><circle class="cls-36" cx="615.92" cy="174.49" r="3.5"/><rect class="cls-1" x="542.83" y="-6.38" width="7" height="7"/><circle class="cls-36" cx="546.33" cy="-2.88" r="3.5"/><rect class="cls-1" x="484.46" y="33.44" width="7" height="7"/><circle class="cls-36" cx="487.96" cy="36.94" r="3.5"/><rect class="cls-1" x="456.62" y="152.13" width="7" height="7"/><circle class="cls-36" cx="460.12" cy="155.63" r="3.5"/><rect class="cls-1" x="415.41" y="169.58" width="7" height="7"/><circle class="cls-36" cx="418.91" cy="173.08" r="3.5"/><rect class="cls-1" x="340.93" y="28.8" width="7" height="7"/><circle class="cls-36" cx="344.43" cy="32.3" r="3.5"/><rect class="cls-1" x="356.93" y="214.72" width="7" height="7"/><circle class="cls-36" cx="360.43" cy="218.22" r="3.5"/><rect class="cls-1" x="287.01" y="227.87" width="7" height="7"/><circle class="cls-36" cx="290.51" cy="231.37" r="3.5"/><rect class="cls-1" x="257.79" y="181.69" width="7" height="7"/><circle class="cls-36" cx="261.29" cy="185.19" r="3.5"/><rect class="cls-1" x="206.73" y="31.9" width="7" height="7"/><circle class="cls-36" cx="210.23" cy="35.4" r="3.5"/><rect class="cls-1" x="168.33" y="113.31" width="7" height="7"/><circle class="cls-36" cx="171.83" cy="116.81" r="3.5"/><rect class="cls-1" x="132.48" y="73.39" width="7" height="7"/><circle class="cls-36" cx="135.98" cy="76.89" r="3.5"/><rect class="cls-1" x="73.1" y="189.69" width="7" height="7"/><circle class="cls-36" cx="76.6" cy="193.19" r="3.5"/><rect class="cls-1" x="85.07" y="104.35" width="7" height="7"/><circle class="cls-36" cx="88.57" cy="107.85" r="3.5"/></g><g id="Layer_2" data-name="Layer 2"><path class="cls-37" d="M476.37,479.09l-5.07-20.54c-.77-3.11-4.37-4.92-8-4h0c-3.63.9-6,4.18-5.21,7.29l5.18,21a10.89,10.89,0,0,1-3.4,10.59c-5.51,5.15-8.23,12.38-6.51,19.36l21.45,86.87c1.21,4.91,6.89,7.77,12.63,6.35l25.75-6.36c5.73-1.41,9.43-6.59,8.22-11.5L500,501.23c-1.77-7.17-7.79-12.37-15.33-14.25A11,11,0,0,1,476.37,479.09Z"/><rect class="cls-6" x="462.51" y="522.85" width="48" height="48" transform="translate(-116.9 132.56) rotate(-13.87)"/><path class="cls-38" d="M475.5,538.84c1.09-.08,2.06.21,2.32,1.26a2,2,0,0,1-.64,1.94,3.79,3.79,0,0,1-1.78.89l-2.67.66-.08-.31c.9-.31.93-.42.72-1.28l-1.08-4.36c-.22-.9-.33-1-1.23-.82l-.08-.3,2.85-.7a3,3,0,0,1,1.77,0,1.49,1.49,0,0,1,.94,1.06A1.78,1.78,0,0,1,475.5,538.84Zm-1.28.18c1.19-.29,1.56-.89,1.34-1.79a1.34,1.34,0,0,0-1.84-1,1.16,1.16,0,0,0-.58.26c-.07.09-.08.21,0,.56l.51,2.08Zm.08,2.73c.19.78.43.93,1.2.74a1.57,1.57,0,0,0,1.28-2c-.27-1.11-1.18-1.4-2.5-1.07l-.52.13Z"/><path class="cls-38" d="M484.44,538.86c0,.3,0,1.49,0,1.85l-5.28,1.3-.08-.3c1-.33,1-.45.83-1.34l-1.06-4.29c-.24-1-.37-1-1.21-.87l-.07-.31,3.32-.82c1-.25,1.45-.37,1.58-.41.07.27.32,1.08.5,1.64l-.31.14a3.56,3.56,0,0,0-.53-.75c-.26-.32-.53-.33-1.18-.17l-1,.26c-.33.08-.35.12-.27.43l.59,2.41,1.21-.3c.82-.2.83-.38.78-1.15l.34-.09.55,2.24-.34.09c-.33-.75-.45-.84-1.23-.64l-1.2.29.54,2.17c.19.76.44.76,1,.64l1-.25c.66-.17.75-.29.92-.63a4.7,4.7,0,0,0,.34-1.15Z"/><path class="cls-38" d="M490.85,537.28c0,.3,0,1.49,0,1.84l-5.29,1.31-.07-.31c1-.32,1-.44.82-1.33l-1.06-4.29c-.24-1-.37-1-1.2-.87l-.08-.31,3.33-.82c1-.25,1.44-.37,1.57-.41.08.27.32,1.07.51,1.64l-.31.13a3.74,3.74,0,0,0-.54-.74c-.26-.32-.53-.33-1.18-.17l-1,.26c-.34.08-.35.12-.27.43l.59,2.4,1.21-.29c.81-.21.83-.38.77-1.15l.34-.09.55,2.24-.33.09c-.34-.75-.45-.84-1.24-.64l-1.19.29.53,2.16c.19.77.45.77,1,.65l1-.25c.67-.17.75-.29.92-.63a4.7,4.7,0,0,0,.34-1.15Z"/><path class="cls-38" d="M498.51,537.32l-.41.07a2,2,0,0,1-1.93-.51c-.54-.46-1.1-1-1.58-1.52-.31-.29-.46-.32-1-.18l-.38.09.42,1.71c.23.92.36.95,1.25.82l.08.3-2.9.72-.08-.3c.88-.32,1-.39.72-1.31l-1.07-4.34c-.23-.92-.36-.93-1.24-.81l-.08-.31,2.77-.68a3.16,3.16,0,0,1,1.84-.06,1.67,1.67,0,0,1,1.09,1.25,2.08,2.08,0,0,1-.94,2.22c.28.29.92.9,1.37,1.31a10.18,10.18,0,0,0,1.14.91,1.59,1.59,0,0,0,.91.3Zm-4.89-2.55a1.79,1.79,0,0,0,1.12-.61,1.57,1.57,0,0,0,.27-1.48,1.5,1.5,0,0,0-2-1.19.92.92,0,0,0-.55.25c-.08.1-.09.21,0,.5l.66,2.66Z"/><rect class="cls-38" x="474.22" y="554.6" width="28.8" height="1.6" transform="translate(-118.89 133.31) rotate(-13.87)"/><rect class="cls-38" x="473.16" y="549.12" width="28.8" height="4" transform="translate(-117.89 132.94) rotate(-13.87)"/><rect class="cls-38" x="474.98" y="557.7" width="28.8" height="1.6" transform="translate(-119.61 133.59) rotate(-13.87)"/><path class="cls-38" d="M464.39,454.13H469a4.37,4.37,0,0,1,4.37,4.37v20.87a2,2,0,0,1-2,2h-9.68a2,2,0,0,1-2-2V458.76A4.63,4.63,0,0,1,464.39,454.13Z" transform="translate(-98.51 125.47) rotate(-13.87)"/><path class="cls-37" d="M1461.71,500.3l-13-3.58c-2-.54-4.1.91-4.73,3.21h0c-.63,2.3.46,4.63,2.44,5.17l13.3,3.65a7,7,0,0,1,4.85,5.19c1.16,4.68,4.34,8.45,8.77,9.66l55.12,15.1c3.11.85,6.48-1.43,7.47-5.06l4.48-16.35c1-3.63-.74-7.31-3.85-8.16L1481.4,494c-4.55-1.24-9.33.5-12.72,4.12A7,7,0,0,1,1461.71,500.3Z"/><rect class="cls-6" x="1487.32" y="500.42" width="30.66" height="30.66" transform="matrix(0.26, -0.96, 0.96, 0.26, 608.28, 1828.78)"/><path class="cls-38" d="M1494.73,519.33c.29-.63.75-1.08,1.42-.9a1.25,1.25,0,0,1,.88,1,2.32,2.32,0,0,1-.06,1.27l-.46,1.7-.19-.05c.1-.6,0-.66-.5-.8l-2.77-.76c-.57-.16-.63-.11-.83.43l-.2,0,.5-1.81a1.92,1.92,0,0,1,.53-1,.92.92,0,0,1,.89-.2A1.15,1.15,0,0,1,1494.73,519.33Zm-.3.78c.2-.76,0-1.16-.58-1.31a.87.87,0,0,0-1.12.72.8.8,0,0,0,0,.41c0,.07.1.11.32.17l1.32.36Zm1.54.8c.5.13.65.05.79-.44a1,1,0,0,0-.72-1.34c-.71-.19-1.15.22-1.38,1.06l-.09.33Z"/><path class="cls-38" d="M1497.52,514.35c.17.09.83.47,1,.6l-.92,3.35-.19,0c.12-.65.07-.72-.49-.87l-2.73-.75c-.61-.17-.67-.1-.86.4l-.19,0,.58-2.11c.18-.65.24-.92.26-1l1.07.23,0,.22a1.91,1.91,0,0,0-.58.06c-.26,0-.35.19-.47.61l-.18.65c0,.22,0,.24.16.29l1.53.42.21-.77c.14-.52,0-.58-.4-.79l.06-.21,1.42.39-.06.21c-.52,0-.6,0-.74.49l-.21.76,1.38.37c.48.13.56,0,.66-.35l.18-.64c.11-.42.07-.51-.07-.71a3.4,3.4,0,0,0-.53-.55Z"/><path class="cls-38" d="M1498.64,510.29c.16.09.82.47,1,.6l-.92,3.35-.19,0c.13-.66.08-.72-.49-.88l-2.72-.74c-.62-.17-.67-.11-.86.4l-.2-.05.58-2.12c.18-.65.25-.92.26-1l1.07.23,0,.21a2.3,2.3,0,0,0-.58.07c-.26,0-.35.19-.46.6l-.18.66c-.06.21,0,.23.16.29l1.52.42.21-.77c.14-.52.05-.58-.4-.79l.06-.22,1.42.39-.06.22c-.52-.05-.6,0-.74.48l-.2.76,1.37.38c.48.13.56,0,.67-.35l.17-.64c.12-.43.07-.51-.06-.71a3.1,3.1,0,0,0-.54-.55Z"/><path class="cls-38" d="M1501,506a1.83,1.83,0,0,1-.08.25,1.29,1.29,0,0,1-.89.92c-.42.16-.93.29-1.34.41-.26.08-.32.16-.42.51l-.07.24,1.09.3c.58.16.64.09.85-.45l.19.06-.51,1.84-.19-.06c.1-.58.08-.64-.51-.8l-2.75-.75c-.59-.17-.63-.1-.84.43l-.19-.05.48-1.76a2,2,0,0,1,.54-1,1.06,1.06,0,0,1,1-.22,1.32,1.32,0,0,1,.94,1.22l1.16-.36a7.6,7.6,0,0,0,.86-.35,1.06,1.06,0,0,0,.46-.42ZM1498.1,508a1.18,1.18,0,0,0,0-.81,1,1,0,0,0-.75-.61,1,1,0,0,0-1.29.74.81.81,0,0,0,0,.39c0,.07.1.11.28.16l1.69.46Z"/><rect class="cls-38" x="1498.87" y="516.72" width="18.39" height="1.02" transform="matrix(0.26, -0.96, 0.96, 0.26, 610.84, 1835.1)"/><rect class="cls-38" x="1496.16" y="515.21" width="18.39" height="2.55" transform="matrix(0.26, -0.96, 0.96, 0.26, 609.56, 1831.94)"/><rect class="cls-38" x="1500.84" y="517.26" width="18.39" height="1.02" transform="matrix(0.26, -0.96, 0.96, 0.26, 611.77, 1837.4)"/><path class="cls-38" d="M1452.44,493.54h0a4.22,4.22,0,0,1,4.22,4.22V509a1.89,1.89,0,0,1-1.89,1.89h-4.9A1.89,1.89,0,0,1,1448,509V498a4.47,4.47,0,0,1,4.47-4.47Z" transform="translate(584.28 1770.28) rotate(-74.68)"/></g></g></svg>
