<svg xmlns="http://www.w3.org/2000/svg" xmlns:xlink="http://www.w3.org/1999/xlink" width="1920" height="1080" viewBox="0 0 1920 1080"><defs><style>.cls-1,.cls-11,.cls-25{fill:none;}.cls-2{isolation:isolate;}.cls-3{opacity:0.92;fill:url(#linear-gradient);}.cls-4{fill:url(#linear-gradient-2);}.cls-5{fill:#2e3192;opacity:0.85;}.cls-6{fill:#f0ecec;}.cls-7{fill:#d4145a;}.cls-8{fill:#ed1e79;}.cls-9{fill:#42210b;}.cls-10{fill:#bfb4a6;}.cls-11,.cls-25{stroke:#000;stroke-miterlimit:10;}.cls-12{fill:#e9e0d6;}.cls-13{fill:#395931;}.cls-14{clip-path:url(#clip-path);}.cls-15{fill:#836748;}.cls-16{fill:#7f6446;}.cls-17{fill:#7b6144;}.cls-18{fill:#ad885f;}.cls-19{clip-path:url(#clip-path-2);}.cls-20{fill:#675139;}.cls-21{fill:#6b543b;}.cls-22{fill:#6f573d;}.cls-23{fill:#735a3f;}.cls-24{fill:#775e41;}.cls-25{stroke-width:0.25px;}.cls-26{clip-path:url(#clip-path-3);}.cls-27{clip-path:url(#clip-path-4);}.cls-28{clip-path:url(#clip-path-5);}.cls-29{clip-path:url(#clip-path-6);}.cls-30{clip-path:url(#clip-path-7);}.cls-31{clip-path:url(#clip-path-8);}.cls-32{clip-path:url(#clip-path-9);}.cls-33{clip-path:url(#clip-path-10);}.cls-34{opacity:0.89;mix-blend-mode:screen;}.cls-35{fill:url(#linear-gradient-3);}.cls-36{fill:#fffffd;}.cls-37{fill:#034926;opacity:0.73;}.cls-38{fill:#c1272d;}</style><linearGradient id="linear-gradient" x1="961" y1="583" x2="961" y2="-1" gradientUnits="userSpaceOnUse"><stop offset="0" stop-color="#fff"/><stop offset="0" stop-color="#7a76a5"/><stop offset="0" stop-color="#e9e8f0"/><stop offset="0" stop-color="#dfdee9"/><stop offset="0" stop-color="#dcdbe7"/><stop offset="0" stop-color="#b8b6cf"/><stop offset="0.225" stop-color="#8a87b0"/><stop offset="0.874" stop-color="#1b1464"/></linearGradient><linearGradient id="linear-gradient-2" x1="1110.114" y1="193.282" x2="812.849" y2="1302.692" gradientUnits="userSpaceOnUse"><stop offset="0" stop-color="#fff"/><stop offset="0" stop-color="#7a76a5"/><stop offset="0" stop-color="#e9e8f0"/><stop offset="0" stop-color="#e7e7ee"/><stop offset="0" stop-color="#e1e2e7"/><stop offset="0" stop-color="#d6d9dc"/><stop offset="0" stop-color="#c7cccb"/><stop offset="0" stop-color="#b2bcb5"/><stop offset="0" stop-color="#99a799"/><stop offset="0" stop-color="#7b8f79"/><stop offset="0" stop-color="#5a7455"/><stop offset="0" stop-color="#395931"/><stop offset="0" stop-color="#3c5b34"/><stop offset="0" stop-color="#46623f"/><stop offset="0" stop-color="#566f50"/><stop offset="0" stop-color="#6d8069"/><stop offset="0" stop-color="#8b9588"/><stop offset="0" stop-color="#afb0af"/><stop offset="0" stop-color="#b3b3b3"/><stop offset="0.012" stop-color="#a8aba7"/><stop offset="0.05" stop-color="#8a9588"/><stop offset="0.093" stop-color="#71826c"/><stop offset="0.141" stop-color="#5c7356"/><stop offset="0.197" stop-color="#4c6745"/><stop offset="0.267" stop-color="#415f3a"/><stop offset="0.365" stop-color="#3b5a33"/><stop offset="0.636" stop-color="#395931"/><stop offset="0.825" stop-color="#395931"/></linearGradient><clipPath id="clip-path"><path class="cls-1" d="M387.225,506.586l-49.172,26.749c10.234-5.567,23.828-7.925,38.754-5.828l49.172-26.749C411.054,498.66,397.46,501.018,387.225,506.586Z"/></clipPath><clipPath id="clip-path-2"><path class="cls-1" d="M415.722,608.722l49.172-26.749c11.629-6.326,18.92-16.8,18.9-29.58-.044-24.037-25.927-47.154-57.811-51.635l-49.172,26.749c31.883,4.481,57.766,27.6,57.811,51.635C434.642,591.927,427.351,602.4,415.722,608.722Z"/></clipPath><clipPath id="clip-path-3"><path class="cls-1" d="M924.876,408.982l44.668,24.3c-9.3-5.057-21.645-7.2-35.2-5.294l-44.668-24.3C903.23,401.783,915.579,403.925,924.876,408.982Z"/></clipPath><clipPath id="clip-path-4"><path class="cls-1" d="M898.99,501.763l-44.668-24.3c-10.564-5.747-17.187-15.257-17.165-26.871.041-21.834,23.553-42.834,52.516-46.905l44.668,24.3c-28.963,4.071-52.475,25.071-52.516,46.9C881.8,486.506,888.427,496.016,898.99,501.763Z"/></clipPath><clipPath id="clip-path-5"><path class="cls-1" d="M1082.364,766.872l-58.777,31.974c12.233-6.655,28.483-9.473,46.323-6.966l58.777-31.974C1110.847,757.4,1094.6,760.217,1082.364,766.872Z"/></clipPath><clipPath id="clip-path-6"><path class="cls-1" d="M1116.426,888.958l58.778-31.974c13.9-7.562,22.615-20.076,22.586-35.358-.053-28.731-30.992-56.364-69.1-61.72L1069.91,791.88c38.111,5.356,69.05,32.989,69.1,61.72C1139.042,868.882,1130.327,881.4,1116.426,888.958Z"/></clipPath><clipPath id="clip-path-7"><path class="cls-1" d="M309.047,825.977l66.435,36.058c-13.827-7.5-32.187-10.672-52.339-7.82l-66.435-36.059C276.86,815.305,295.22,818.472,309.047,825.977Z"/></clipPath><clipPath id="clip-path-8"><path class="cls-1" d="M270.7,963.935l-66.435-36.059c-15.711-8.527-25.57-22.656-25.554-39.92.029-32.457,34.951-63.708,78-69.8l66.435,36.059c-43.049,6.092-77.971,37.342-78,69.8C245.127,941.279,254.986,955.407,270.7,963.935Z"/></clipPath><clipPath id="clip-path-9"><path class="cls-1" d="M1685.844,611.876l-54.2,29.482c11.28-6.136,26.263-8.735,42.713-6.423l54.2-29.482C1712.107,603.141,1697.124,605.74,1685.844,611.876Z"/></clipPath><clipPath id="clip-path-10"><path class="cls-1" d="M1717.252,724.446l54.195-29.482c12.817-6.972,20.853-18.511,20.826-32.6-.049-26.491-28.576-51.97-63.716-56.909l-54.2,29.482c35.141,4.939,63.668,30.418,63.717,56.909C1738.1,705.935,1730.068,717.474,1717.252,724.446Z"/></clipPath><linearGradient id="linear-gradient-3" x1="1686" y1="200" x2="1686" y2="70" gradientUnits="userSpaceOnUse"><stop offset="0" stop-color="#fff"/><stop offset="0" stop-color="#7a76a5"/><stop offset="0" stop-color="#e9e8f0"/><stop offset="0" stop-color="#edecf3" stop-opacity="0.825"/><stop offset="0" stop-color="#f1f0f5" stop-opacity="0.653"/><stop offset="0" stop-color="#f4f4f8" stop-opacity="0.496"/><stop offset="0" stop-color="#f7f7fa" stop-opacity="0.361"/><stop offset="0" stop-color="#faf9fb" stop-opacity="0.248"/><stop offset="0" stop-color="#fcfbfd" stop-opacity="0.156"/><stop offset="0" stop-color="#fdfdfe" stop-opacity="0.085"/><stop offset="0" stop-color="#fefefe" stop-opacity="0.036"/><stop offset="0" stop-color="#fff" stop-opacity="0.008"/><stop offset="0" stop-color="#fff" stop-opacity="0"/><stop offset="0.149" stop-color="#f7f7fa" stop-opacity="0.24"/><stop offset="0.31" stop-color="#f0f0f5" stop-opacity="0.469"/><stop offset="0.469" stop-color="#eae9f0" stop-opacity="0.659"/><stop offset="0.62" stop-color="#e5e4ed" stop-opacity="0.808"/><stop offset="0.763" stop-color="#e2e1eb" stop-opacity="0.914"/><stop offset="0.893" stop-color="#e0dfe9" stop-opacity="0.978"/><stop offset="1" stop-color="#dfdee9"/></linearGradient></defs><title>Spilskærm</title><g class="cls-2"><g id="Background"><rect class="cls-3" x="1" y="-1" width="1920" height="584"/><path class="cls-4" d="M1889.61,438.169l30.4-.032c-186.417-81.392-505.429-192.572-914.806-199.958C549.338,229.955,195.705,354.3,2.184,438.924l-7.771.213q3,322.93,6,645.863H1921.005q2.5-321.931,5-643.864Z"/><path class="cls-5" d="M1040.472,303.669l6.284-4.706a2.371,2.371,0,0,0,.218-3.315h0a2.371,2.371,0,0,0-3.242-.724l-6.414,4.8a4.052,4.052,0,0,1-4.112.373,7.444,7.444,0,0,0-7.555.577l-26.571,19.9a3.742,3.742,0,0,0-.343,5.234l5.9,7.877a3.742,3.742,0,0,0,5.118,1.144l26.571-19.9a7.486,7.486,0,0,0,2.648-7.3A4.078,4.078,0,0,1,1040.472,303.669Z"/><rect class="cls-6" x="1009.887" y="308.033" width="17.808" height="17.808" transform="translate(661.819 -688.526) rotate(53.173)"/><path class="cls-7" d="M1042.724,293.627h.553a2.181,2.181,0,0,1,2.181,2.181v6.931a.979.979,0,0,1-.979.979h-3.088a.979.979,0,0,1-.979-.979v-6.8a2.311,2.311,0,0,1,2.311-2.311Z" transform="translate(656.871 -715.168) rotate(53.173)"/><path class="cls-8" d="M1015.71,310.738c-.034.026-.036.06,0,.1l-.051.038-.33-.439.052-.039a.071.071,0,0,0,.039.027.061.061,0,0,0,.051-.014l1.134-.85-.352-.47a.114.114,0,0,0-.052-.039.074.074,0,0,0-.072.016l-.038-.051.4-.3.038.051a.072.072,0,0,0-.036.065.122.122,0,0,0,.023.06l.948,1.266a.127.127,0,0,0,.051.04.075.075,0,0,0,.073-.016l.039.05-.4.3-.038-.051a.069.069,0,0,0,.036-.064.129.129,0,0,0-.023-.062l-.353-.469Z"/><path class="cls-8" d="M1018.569,312.286a.064.064,0,0,0,.029-.059.211.211,0,0,0-.048-.1l-.692-.924-.353.265.419.558a.24.24,0,0,0,.082.077c.026.013.061,0,.1-.03l.038.052-.444.333-.038-.052c.043-.032.064-.063.06-.094a.211.211,0,0,0-.048-.1l-.418-.559-.394.3.713.952a.144.144,0,0,0,.073.055.077.077,0,0,0,.074-.014l.039.052-.391.293-.039-.052c.029-.021.039-.043.029-.063a.4.4,0,0,0-.047-.074l-.994-1.329.051-.039a.067.067,0,0,0,.039.027.059.059,0,0,0,.051-.013l1.294-.97a.059.059,0,0,0,.027-.045.07.07,0,0,0-.014-.044l.051-.04.974,1.3a.178.178,0,0,0,.081.071.073.073,0,0,0,.068-.014l.039.052-.377.282Z"/><path class="cls-8" d="M1019.136,315.1l-.01-.018-.011-.017a.329.329,0,0,0-.094-.055c-.055-.026-.121-.061-.2-.105a1.8,1.8,0,0,1-.241-.168,1.33,1.33,0,0,1-.228-.239,1.589,1.589,0,0,1-.213-.38,1.083,1.083,0,0,1-.078-.4.867.867,0,0,1,.088-.379.979.979,0,0,1,.665-.5.878.878,0,0,1,.392.02,1.086,1.086,0,0,1,.364.183,1.545,1.545,0,0,1,.307.308,1.675,1.675,0,0,1,.174.282c.044.09.08.171.107.243a1.523,1.523,0,0,1,.056.176.4.4,0,0,0,.024.08.039.039,0,0,0,.032.013l.036,0,0,.069-.512.036v-.044a.07.07,0,0,0,.016-.014.172.172,0,0,0,.017-.019.14.14,0,0,0,.021-.1.728.728,0,0,0-.036-.171,1.589,1.589,0,0,0-.077-.191.887.887,0,0,0-.1-.168.971.971,0,0,0-.206-.2.691.691,0,0,0-.244-.116.589.589,0,0,0-.258-.01.622.622,0,0,0-.254.115.6.6,0,0,0-.182.212.629.629,0,0,0-.064.25.718.718,0,0,0,.044.266.969.969,0,0,0,.137.255,1.169,1.169,0,0,0,.165.175,1.328,1.328,0,0,0,.191.142.771.771,0,0,0,.177.083.135.135,0,0,0,.121,0,.063.063,0,0,0,.025-.037l.053.023-.161.414Z"/><path class="cls-8" d="M1021.675,316.007c.034-.027.035-.06,0-.1l.052-.038.329.44-.052.038a.071.071,0,0,0-.039-.027.06.06,0,0,0-.051.013l-1.293.97a.056.056,0,0,0-.028.044.069.069,0,0,0,.015.046l-.052.039-.329-.44.051-.039c.032.042.064.051.1.025l.536-.4-.688-.918-.536.4a.058.058,0,0,0-.027.045.077.077,0,0,0,.014.044l-.051.039-.322-.43.051-.039a.058.058,0,0,0,.092.015l1.294-.968a.058.058,0,0,0,.011-.093l.051-.038.323.429-.052.04a.064.064,0,0,0-.039-.027.061.061,0,0,0-.051.014l-.484.362.687.918Z"/><path class="cls-8" d="M1021.01,317.924a.059.059,0,0,0,.093.015l1.293-.969a.057.057,0,0,0,.011-.092l.052-.038.365.486-.052.039c-.011-.015-.026-.015-.045,0a.212.212,0,0,0-.037.117l-.237,1.455.906-.679c.035-.026.033-.063,0-.113l.051-.039.323.431-.051.039a.059.059,0,0,0-.093-.016l-1.293.969a.058.058,0,0,0-.011.093l-.051.038-.346-.462.051-.038c.018.025.036.03.053.018s.024-.041.032-.095l.255-1.548-.946.709c-.034.026-.035.06,0,.1l-.051.038-.316-.421Z"/><path class="cls-8" d="M1024.773,319.894a1.416,1.416,0,0,1,.192.354,1.235,1.235,0,0,1,.081.4.952.952,0,0,1-.074.4.812.812,0,0,1-.276.34.834.834,0,0,1-.4.17.954.954,0,0,1-.4-.041,1.134,1.134,0,0,1-.359-.2,1.514,1.514,0,0,1-.478-.637,1.139,1.139,0,0,1-.086-.4.964.964,0,0,1,.074-.4.9.9,0,0,1,.681-.51.944.944,0,0,1,.4.041,1.249,1.249,0,0,1,.363.19A1.457,1.457,0,0,1,1024.773,319.894Zm-.263.2a.913.913,0,0,0-.2-.191.859.859,0,0,0-.244-.122.656.656,0,0,0-.265-.022.561.561,0,0,0-.427.32.661.661,0,0,0-.053.26.843.843,0,0,0,.048.269.964.964,0,0,0,.128.242.9.9,0,0,0,.2.191.784.784,0,0,0,.244.121.66.66,0,0,0,.265.024.529.529,0,0,0,.254-.107.521.521,0,0,0,.173-.214.631.631,0,0,0,.052-.259.815.815,0,0,0-.047-.269A.942.942,0,0,0,1024.51,320.09Z"/><path class="cls-8" d="M1024.767,321.99a.043.043,0,0,0-.041-.02.088.088,0,0,0-.042.015l-.039-.051.342-.256.039.051c-.034.025-.041.053-.019.082l.365.487a.045.045,0,0,0,.041.02.088.088,0,0,0,.042-.015l.039.051-.342.255-.039-.05c.034-.027.041-.053.019-.082Z"/><path class="cls-8" d="M1015.241,314.331a1.806,1.806,0,0,1,.169.27.957.957,0,0,1,.094.268.521.521,0,0,1-.01.243.376.376,0,0,1-.143.2.334.334,0,0,1-.269.072.78.78,0,0,1-.26-.112l-.006,0a.7.7,0,0,1,.043.322.41.41,0,0,1-.18.28.432.432,0,0,1-.395.066.658.658,0,0,1-.218-.115,1.094,1.094,0,0,1-.209-.218l-.784-1.045.052-.039c.04.053.077.068.111.041l1.294-.968c.035-.026.031-.066-.009-.118l.052-.04Zm-1.195.983a.562.562,0,0,0,.25.217.214.214,0,0,0,.2-.031.218.218,0,0,0,.089-.188.579.579,0,0,0-.139-.3l-.407-.545-.4.3Zm.651-.486a.747.747,0,0,0,.191.188.195.195,0,0,0,.277-.207.71.71,0,0,0-.127-.237l-.407-.545-.342.256Z"/><path class="cls-8" d="M1014.534,316.4a.106.106,0,0,0,.081.032q.046,0,.1-.012l1.5-.3.1-.016a.149.149,0,0,0,.066-.025.055.055,0,0,0,.025-.05.18.18,0,0,0-.015-.055l.052-.038.36.481-.052.038a.286.286,0,0,0-.045-.028.055.055,0,0,0-.056.01.138.138,0,0,0-.038.045c-.01.019-.023.043-.038.075l-.716,1.462a.123.123,0,0,0-.017.072c0,.023.007.05.013.078l-.051.038-.376-.5.051-.038a.072.072,0,0,0,.03.021.034.034,0,0,0,.039,0,.223.223,0,0,0,.057-.079l.13-.265-.521-.7-.28.049a.324.324,0,0,0-.106.035c-.021.017-.018.042.009.079l-.051.038-.3-.405Zm1.335.678.351-.637-.731.13Z"/><path class="cls-8" d="M1016.355,318.076l.016.058a.184.184,0,0,0-.046.1.4.4,0,0,0,.007.131.581.581,0,0,0,.046.139.687.687,0,0,0,.072.123.606.606,0,0,0,.237.213.254.254,0,0,0,.245-.062l.916-.685a.089.089,0,0,0,.037-.081.141.141,0,0,0-.027-.082l.052-.039.405.541-.052.039a.166.166,0,0,0-.084-.066.087.087,0,0,0-.088.013l-.941.7a.477.477,0,0,1-.229.1.484.484,0,0,1-.236-.031.726.726,0,0,1-.228-.144,1.637,1.637,0,0,1-.217-.243,1.232,1.232,0,0,1-.111-.171,1.686,1.686,0,0,1-.072-.153c-.019-.045-.034-.088-.047-.125a.348.348,0,0,0-.04-.084.075.075,0,0,0-.073-.025l0-.063Z"/><path class="cls-8" d="M1019.359,320.472a.065.065,0,0,0,.028-.06.2.2,0,0,0-.047-.1l-.692-.923-.353.264.418.559a.272.272,0,0,0,.082.077c.027.013.061,0,.105-.03l.038.051-.445.333-.038-.051c.044-.034.065-.065.061-.094a.218.218,0,0,0-.048-.1l-.418-.558-.394.3.713.952a.15.15,0,0,0,.073.055.083.083,0,0,0,.074-.014l.039.052-.391.292-.039-.051c.029-.022.039-.043.029-.064a.459.459,0,0,0-.047-.074l-1-1.329.052-.038a.07.07,0,0,0,.039.026.059.059,0,0,0,.051-.013l1.294-.969a.061.061,0,0,0,.027-.045.066.066,0,0,0-.015-.045l.052-.039.974,1.3a.174.174,0,0,0,.081.071.073.073,0,0,0,.068-.014l.039.052-.377.282Z"/><path class="cls-8" d="M1020.753,321.691a1.466,1.466,0,0,1,.162.267.692.692,0,0,1,.065.249.435.435,0,0,1-.044.225.568.568,0,0,1-.175.2.454.454,0,0,1-.371.1.741.741,0,0,1-.358-.2l-.258.784a.1.1,0,0,0,0,.074.266.266,0,0,0,.032.053l-.052.038-.4-.533.051-.038a.134.134,0,0,0,.042.038c.015.008.028.009.037,0a.068.068,0,0,0,.024-.035c.007-.018.015-.041.024-.072l.21-.647-.305-.407-.507.38a.054.054,0,0,0-.025.047.153.153,0,0,0,.037.077l-.051.038-.37-.493.052-.038c.041.055.079.069.113.044l1.294-.969c.035-.026.031-.066-.011-.121l.052-.039Zm-.723.426a1.024,1.024,0,0,0,.144.159.367.367,0,0,0,.126.076.205.205,0,0,0,.109.006.237.237,0,0,0,.1-.046.247.247,0,0,0,.071-.08.214.214,0,0,0,.024-.107.374.374,0,0,0-.037-.141.993.993,0,0,0-.113-.183l-.369-.492-.421.316Z"/><path class="cls-9" d="M1557.659,857.221a112.309,112.309,0,0,1-88.412,3.053c-5.221-1.979-7.621-7.131-5.446-10.891l8.285-14.881a55.848,55.848,0,0,1,21.623-20.665c7.465-3.881,13.438-4.912,19.795-2.661q1.485.5,3,.92c6.4,1.826,13.288,6,20.861,10.183,7.382,4.374,15.455,8.75,19.842,15.5l6.447,10.128C1565.338,850.421,1562.711,854.858,1557.659,857.221Z"/><path class="cls-10" d="M1552.948,854.975c-2.167-4.134-19.729-.734-39.764-1.514-10.142-.181-19.372-.99-26.7-1.054-7.277-.061-12.651.624-13.942,3.512-.649,1.417.3,5.151,2.735,6.168a84.318,84.318,0,0,0,13.556,3.782,108.859,108.859,0,0,0,24.251,1.917,110.739,110.739,0,0,0,24.02-3.388,123.369,123.369,0,0,0,13.219-4.317C1553.357,858.847,1553.493,856.189,1552.948,854.975Z"/><path class="cls-11" d="M1551.239,853.033c-3.739,3.77-10.307,7.983-19.926,11.069"/><path class="cls-11" d="M1544.553,852.537c-3.018,4.281-8.336,8.687-16.207,12.228"/><path class="cls-11" d="M1536.8,852.9a33.9,33.9,0,0,1-11.636,12.18"/><path class="cls-11" d="M1529.151,853.206c-1.651,5.319-4.237,9.777-7.831,12.486"/><path class="cls-11" d="M1521.687,853.516a16.992,16.992,0,0,1-5.374,12.557"/><path class="cls-11" d="M1514.8,853.469c.974,4.951.538,9.026-1.161,12.678"/><path class="cls-11" d="M1517.78,858.99h0"/><path class="cls-11" d="M1510.884,853.473c-1.513,4.857-2.28,9.285-.956,12.752"/><path class="cls-11" d="M1505.7,853.1c-1.367,4.617-1.4,9.048.581,13.045"/><path class="cls-11" d="M1501.347,852.813c-1.422,5.031-.912,9.629,2.523,13.3"/><path class="cls-11" d="M1494.334,852.424a18.862,18.862,0,0,0,6.24,13.35"/><path class="cls-11" d="M1487.188,852a37.034,37.034,0,0,0,10.652,13.492"/><path class="cls-11" d="M1480.856,852.547c2.608,5.368,7.868,9.755,15.5,12.223"/><path class="cls-11" d="M1473.878,854.485a32.035,32.035,0,0,0,20,10.379"/><path class="cls-12" d="M1523.516,922.458a173.238,173.238,0,0,1-25.3,3.228c-9.561.535-16.544-3.819-15.439-8.552l10.281-48.387c1.015-4.507,5.574-7.734,10.84-8.359a75.974,75.974,0,0,1,7.589-.521,87,87,0,0,1,10.617.464c5.159.561,9.372,3.276,10.055,7.221l6.852,42.989C1539.762,914.689,1532.889,920.546,1523.516,922.458Z"/><path class="cls-11" d="M1553.222,854.932c-4.294,3.67-11.446,7.553-21.395,9.932"/><path class="cls-11" d="M1472.055,857.581a44.527,44.527,0,0,0,21.534,8.6"/><path class="cls-13" d="M1572,946.018H1468.817V911.959c1.659,0,4.526-4.78,4.978,0s8.287-6.573,8.443,0,9.618-5.378,13.712,0,6.027-5.378,10.039,0,7.631-10.158,14.42,0,7.693-10.158,7.467,0,4.1-4.183,8.5,0,11.327,0,11.327,0H1572Z"/><path class="cls-9" d="M152.453,625.313a98.258,98.258,0,0,1-77.35,2.671c-4.568-1.731-6.668-6.239-4.765-9.528q3.624-6.51,7.249-13.019a48.851,48.851,0,0,1,18.918-18.08c6.53-3.4,11.756-4.3,17.318-2.328q1.3.441,2.623.8c5.6,1.6,11.625,5.253,18.25,8.909,6.459,3.827,13.522,7.655,17.36,13.558q2.82,4.431,5.641,8.862C159.172,619.363,156.873,623.246,152.453,625.313Z"/><path class="cls-10" d="M148.332,623.348c-1.9-3.616-17.261-.642-34.789-1.324-8.874-.159-16.948-.867-23.358-.923-6.366-.053-11.068.546-12.2,3.073-.567,1.24.259,4.506,2.393,5.4a73.738,73.738,0,0,0,11.86,3.309,95.21,95.21,0,0,0,21.217,1.677,96.893,96.893,0,0,0,21.015-2.964,107.821,107.821,0,0,0,11.565-3.777C148.69,626.735,148.809,624.41,148.332,623.348Z"/><path class="cls-11" d="M146.836,621.649c-3.271,3.3-9.017,6.984-17.433,9.684"/><path class="cls-11" d="M140.987,621.215c-2.64,3.745-7.293,7.6-14.179,10.7"/><path class="cls-11" d="M134.2,621.528a29.65,29.65,0,0,1-10.18,10.656"/><path class="cls-11" d="M127.512,621.8c-1.445,4.653-3.707,8.553-6.852,10.923"/><path class="cls-11" d="M120.982,622.072a14.866,14.866,0,0,1-4.7,10.985"/><path class="cls-11" d="M114.956,622.031a17.407,17.407,0,0,1-1.016,11.092"/><path class="cls-11" d="M117.563,626.86h0"/><path class="cls-11" d="M111.53,622.034c-1.324,4.25-1.994,8.123-.836,11.157"/><path class="cls-11" d="M106.991,621.706c-1.2,4.04-1.228,7.917.508,11.414"/><path class="cls-11" d="M103.187,621.457c-1.244,4.4-.8,8.424,2.207,11.636"/><path class="cls-11" d="M97.051,621.116a16.5,16.5,0,0,0,5.459,11.68"/><path class="cls-11" d="M90.8,620.744a32.381,32.381,0,0,0,9.32,11.8"/><path class="cls-11" d="M85.259,621.224c2.282,4.7,6.884,8.535,13.559,10.694"/><path class="cls-11" d="M79.154,622.919A28.03,28.03,0,0,0,96.653,632"/><path class="cls-12" d="M122.582,682.388a151.5,151.5,0,0,1-22.138,2.824c-8.365.468-14.475-3.341-13.508-7.482q4.5-21.167,8.995-42.333c.888-3.943,4.877-6.767,9.484-7.313a66.234,66.234,0,0,1,6.639-.456,76.128,76.128,0,0,1,9.289.406c4.514.49,8.2,2.866,8.8,6.318q3,18.8,6,37.61C136.795,675.591,130.782,680.715,122.582,682.388Z"/><path class="cls-11" d="M148.572,623.311c-3.757,3.21-10.014,6.607-18.719,8.689"/><path class="cls-11" d="M77.56,625.628A38.959,38.959,0,0,0,96.4,633.152"/><path class="cls-13" d="M165,703H74.727V673.2c1.451,0,3.959-4.182,4.355,0s7.25-5.75,7.386,0,8.415-4.7,12,0,5.273-4.7,8.783,0,6.676-8.887,12.615,0,6.731-8.887,6.533,0,3.587-3.659,7.435,0,9.91,0,9.91,0H165Z"/><path class="cls-9" d="M682.3,382.7c-11.8-.2-22.974-20.916-33.513-15.549-2.029,1.061-2.948.2-2.1-3.053.841-3.156,1.656-6.107,2.449-8.82,4.471-15.228,14.011-14.53,23.073-10.109h0c4.619,3.187,8.7,8.906,11.674,12.7,2.938,4.24,4.764,6.557,4.049,13.22-.273,2.345-.569,4.66-.889,6.889C686.739,380.24,684.572,382.811,682.3,382.7Z"/><path class="cls-10" d="M681.7,380.377c.5-2.218-6.448-5.844-14.87-14.615-8.444-8.852-15.708-6.607-16.876-1.989-.28.955-.029,2.571.852,2.507,2.039-5.242,25.825,17.214,28.729,15.879C680.8,382.467,681.552,381.145,681.7,380.377Z"/><path class="cls-11" d="M681.655,378.938c-2.247,1.1-5.447.857-9.5-1.458"/><path class="cls-11" d="M679.469,376.882c-2.132,1.252-4.994,1.215-8.507-.226"/><path class="cls-11" d="M676.512,374.559a9.127,9.127,0,0,1-6.767,1.037"/><path class="cls-11" d="M673.454,371.87c-1.671,1.739-3.451,2.643-5.234,2.578"/><path class="cls-11" d="M670.366,369.064a5.394,5.394,0,0,1-4.077,3.771"/><path class="cls-11" d="M667.505,366.365a8.924,8.924,0,0,1-2.236,5.6"/><path class="cls-11" d="M665.857,364.943a10.111,10.111,0,0,0-2.008,5.885"/><path class="cls-11" d="M663.7,363.065a11.01,11.01,0,0,0-1.238,6.677"/><path class="cls-11" d="M661.883,361.725a9.737,9.737,0,0,0-.339,7.386"/><path class="cls-11" d="M658.943,360.155a16.94,16.94,0,0,0,1.369,8.039"/><path class="cls-11" d="M655.973,359.416a45.573,45.573,0,0,0,3.314,8.119"/><path class="cls-11" d="M653.349,360.108c.912,2.411,2.706,4.346,5.432,6.8"/><path class="cls-11" d="M650.506,362.613a46.282,46.282,0,0,0,7.306,4.035"/><path class="cls-12" d="M657.832,409.492c-2.463-.085-4.9-.28-7.32-.4-2.7-.181-3.982-3.2-2.932-6.946,3.553-13.013,6.739-24.692,9.56-33.408.795-2.491,2.865-3.671,5.058-2.565a16.157,16.157,0,0,1,3.1,2.034,33.758,33.758,0,0,1,4.115,4.1c1.917,2.255,2.925,5.04,2.353,6.986-2.1,7.041-4.556,14.191-7.382,24.454C663.568,406.66,660.582,409.532,657.832,409.492Z"/><path class="cls-11" d="M681.8,380.424c-2.368.88-5.611.3-9.607-2.422"/><path class="cls-11" d="M649.721,364.8a30.988,30.988,0,0,1,7.861,2.541"/><path class="cls-9" d="M627.72,907.391c-23.925,22.959-48.473-20.548-73.643-1.194-2.28,1.717-4.119,1.779-4.083-.585.171-12.81.492-24.93.96-37.886.6-14.468,9.2-27.993,18.7-24.877,10.667,1.818,21.159,4.475,31.475,5.578,9.195,1.352,18.6,14.048,21.3,23.5a291.27,291.27,0,0,0,8.235,28.317C631.2,901.75,629.885,905.314,627.72,907.391Z"/><path class="cls-10" d="M621.109,907.449c-.63-2.652-4.585-2.682-10.38-5.06-5.811-2.081-13.464-6.511-21.844-11.117-16.658-11.086-30.607-.829-30.646,6.766.009,1.588,1.815,3.981,3.774,3.666,2.612-1.67,15.878-.966,28.837,6.018,13,7.347,25.685,7.194,28.075,5.073C621.252,911.854,621.461,908.835,621.109,907.449Z"/><path class="cls-11" d="M619.879,905.109A16.71,16.71,0,0,1,604.4,911.4"/><path class="cls-11" d="M614.608,903.349a15.458,15.458,0,0,1-12.454,7.513"/><path class="cls-11" d="M608.334,901.229c-2.122,4.424-5.021,7.247-8.6,8.59"/><path class="cls-11" d="M602.064,898.285c-1.115,5.314-2.765,9.051-5.226,10.544"/><path class="cls-11" d="M595.915,895.111c.341,5.523-.507,9.571-2.861,12.031"/><path class="cls-11" d="M590.216,891.947c1.439,6.156,1.578,10.658.81,14.216"/><path class="cls-11" d="M593.313,899.624h0"/><path class="cls-11" d="M586.994,890.4a34.04,34.04,0,0,0,1.228,14.5"/><path class="cls-11" d="M582.688,888.3a34.656,34.656,0,0,0,2.767,15.341"/><path class="cls-11" d="M579.109,887.023a28.218,28.218,0,0,0,4.535,15.931"/><path class="cls-11" d="M573.427,886.14a46.029,46.029,0,0,0,7.692,15.7"/><path class="cls-11" d="M567.762,886.87c3,4.19,6.792,8.9,11.271,14.215"/><path class="cls-11" d="M563.155,889.929c3.54,3.507,8.464,6.6,14.626,10.159"/><path class="cls-11" d="M558.718,895.91c5.014.909,10.775,2.542,17.261,4.147"/><path class="cls-12" d="M606.232,964.97c-4.86,1.587-9.742,3.255-14.638,5.063-5.475,2.195-10.406-.674-10.9-6.653-1.771-19.782-3.248-40.085-4.434-58.835-.316-5.231,2.354-8.892,6.34-8.291a21.73,21.73,0,0,1,5.84,1.789,51.082,51.082,0,0,1,8.451,5.067c4.154,3.04,7.615,7.908,8.376,12.335,2.7,16.172,5.7,30.039,8.992,40.853C615.248,959.425,611.663,963.109,606.232,964.97Z"/><path class="cls-11" d="M621.323,907.417c-3.5,3.969-9,6.605-16.485,5.014"/><path class="cls-11" d="M558.425,899.745c5.41-.576,11.3.392,17.64,1.827"/><path class="cls-13" d="M648,975.469l-88.035,9.559L557.324,960.7c1.416-.154,3.49-3.834,4.247-.461s6.56-5.463,7.2-.782,7.789-4.733,11.7-1.27,4.726-4.4,8.565-.93,5.724-7.963,12.3-1.336,5.776-7.969,6.371-.692,3.173-3.368,7.251-.787,9.663-1.05,9.663-1.05l20.732-2.251Z"/><path class="cls-9" d="M1170.018,583.234c-13.477,10.564-27.287-12.381-41.424-2.763-2.266,1.491-4.106,1.818-4.055-.511.078-4.153.181-8.236.313-12.4.2-6.309,2.663-15.07,6.035-19.285,3.408-4.663,7.727-4.778,12.454-4.137,1.838.351,3.667.68,5.487.962,9.155,1.138,18.479,15.038,21.386,22.457.888,3.17,1.8,6.084,2.745,8.842C1173.5,577.892,1172.185,581.539,1170.018,583.234Z"/><path class="cls-10" d="M1167.559,581.948c-.82-2.047-9.4-3.178-19.49-9.994-10.078-6.838-18.527,0-18.565,4.621,0,.959,1.09,2.314,2.276,2.055,3.318-5.28,31.722,12.2,34.456,6.573C1167.644,584.63,1167.777,582.79,1167.559,581.948Z"/><path class="cls-11" d="M1166.816,580.524a9.921,9.921,0,0,1-9.374,3.752"/><path class="cls-11" d="M1163.628,579.44a9.193,9.193,0,0,1-7.542,4.495"/><path class="cls-11" d="M1159.833,578.115a9.441,9.441,0,0,1-5.215,5.166"/><path class="cls-11" d="M1156.042,576.282c-.68,3.224-1.684,5.485-3.174,6.375"/><path class="cls-11" d="M1152.322,574.314c.2,3.357-.311,5.812-1.745,7.293"/><path class="cls-11" d="M1148.875,572.367a19.833,19.833,0,0,1,.475,8.634"/><path class="cls-11" d="M1146.925,571.421a20.648,20.648,0,0,0,.728,8.8"/><path class="cls-11" d="M1144.32,570.153a21.146,21.146,0,0,0,1.656,9.3"/><path class="cls-11" d="M1142.154,569.4a17.069,17.069,0,0,0,2.726,9.639"/><path class="cls-11" d="M1138.715,568.925a27.624,27.624,0,0,0,4.637,9.44"/><path class="cls-11" d="M1135.284,569.481c1.807,2.455,4.1,5.24,6.8,8.437"/><path class="cls-11" d="M1132.49,571.471a48.021,48.021,0,0,0,8.842,5.851"/><path class="cls-11" d="M1129.8,575.267a91.263,91.263,0,0,1,10.443,2.052"/><path class="cls-12" d="M1158.508,616.948c-2.951.969-5.912,1.989-8.883,3.1-3.317,1.345-6.308-.425-6.6-4.095-1.051-12.144-1.926-24.538-2.618-35.91-.184-3.171,1.437-5.424,3.851-5.068a12.8,12.8,0,0,1,3.537,1.087,30.412,30.412,0,0,1,5.113,3.121,13.1,13.1,0,0,1,5.062,7.568,205.052,205.052,0,0,0,5.414,24.918C1163.977,613.566,1161.8,615.808,1158.508,616.948Z"/><path class="cls-11" d="M1167.689,581.929a9.734,9.734,0,0,1-9.979,2.982"/><path class="cls-11" d="M1129.615,577.6c3.272-.6,6.838-.165,10.676.641"/><path class="cls-13" d="M1183.915,623.229l-53.408,5.8-1.6-14.76c.859-.093,2.118-2.326,2.577-.28s3.98-3.314,4.37-.474,4.725-2.871,7.1-.771,2.867-2.669,5.2-.564,3.473-4.831,7.464-.811,3.505-4.834,3.865-.419,1.925-2.043,4.4-.478,5.863-.636,5.863-.636l12.578-1.366Z"/><g class="cls-2"><g class="cls-2"><g class="cls-14"><g class="cls-2"><path class="cls-15" d="M376.807,527.507l49.172-26.749A69.407,69.407,0,0,0,399.007,502l-49.172,26.749a69.425,69.425,0,0,1,26.972-1.244"/><path class="cls-16" d="M349.835,528.751,399.007,502a52.756,52.756,0,0,0-10.051,3.689L339.783,532.44a52.766,52.766,0,0,1,10.052-3.689"/><path class="cls-17" d="M339.783,532.44l49.173-26.749q-.88.432-1.731.9l-49.172,26.749q.849-.462,1.73-.895"/></g></g></g><ellipse class="cls-18" cx="376.887" cy="571.028" rx="42.584" ry="58.986" transform="translate(-280.232 761.585) rotate(-72.746)"/><g class="cls-2"><g class="cls-19"><g class="cls-2"><path class="cls-20" d="M415.722,608.722l49.172-26.749c11.629-6.326,18.92-16.8,18.9-29.58a36.312,36.312,0,0,0-2.283-12.42l-49.173,26.749a36.317,36.317,0,0,1,2.284,12.42c.024,12.785-7.267,23.254-18.9,29.58"/><path class="cls-21" d="M432.334,566.722l49.173-26.749a43.472,43.472,0,0,0-2.556-5.67l-49.173,26.749a43.4,43.4,0,0,1,2.556,5.67"/><path class="cls-22" d="M429.778,561.052,478.951,534.3a49.39,49.39,0,0,0-3.074-4.971l-49.172,26.75a49.255,49.255,0,0,1,3.073,4.97"/><path class="cls-23" d="M426.705,556.082l49.172-26.75a55.741,55.741,0,0,0-3.856-4.878L422.848,551.2a55.618,55.618,0,0,1,3.857,4.879"/><path class="cls-24" d="M422.848,551.2l49.173-26.749a62.389,62.389,0,0,0-5.011-5.046l-49.173,26.749a62.388,62.388,0,0,1,5.011,5.046"/><path class="cls-17" d="M417.837,546.157l49.173-26.749a69.489,69.489,0,0,0-6.94-5.475L410.9,540.682a69.519,69.519,0,0,1,6.94,5.475"/><path class="cls-16" d="M410.9,540.682l49.173-26.749a76.425,76.425,0,0,0-10.925-6.277l-49.172,26.749a76.468,76.468,0,0,1,10.924,6.277"/><path class="cls-15" d="M399.973,534.405l49.172-26.749a80.986,80.986,0,0,0-23.166-6.9l-49.172,26.749a81.037,81.037,0,0,1,23.166,6.9"/></g></g></g></g><ellipse class="cls-25" cx="372.943" cy="570.453" rx="6.755" ry="9.524" transform="matrix(0.273, -0.962, 0.962, 0.273, -277.619, 773.608)"/><ellipse class="cls-25" cx="372.588" cy="570.707" rx="8.492" ry="11.973" transform="translate(-278.122 773.451) rotate(-74.167)"/><ellipse class="cls-25" cx="373.653" cy="569.944" rx="3.281" ry="4.626" transform="translate(-276.614 773.921) rotate(-74.167)"/><ellipse class="cls-25" cx="372.781" cy="571.024" rx="14.475" ry="20.408" transform="translate(-278.287 773.867) rotate(-74.167)"/><ellipse class="cls-25" cx="373.927" cy="569.976" rx="18.914" ry="26.666" transform="translate(-276.445 774.207) rotate(-74.167)"/><ellipse class="cls-25" cx="374.057" cy="569.519" rx="23.546" ry="33.197" transform="translate(-275.911 773.999) rotate(-74.167)"/><ellipse class="cls-25" cx="377.013" cy="570.064" rx="27.985" ry="39.455" transform="translate(-274.285 777.24) rotate(-74.167)"/><ellipse class="cls-25" cx="377.005" cy="570.093" rx="31.073" ry="43.809" transform="translate(-274.319 777.253) rotate(-74.167)"/><ellipse class="cls-25" cx="376.356" cy="570.775" rx="34.527" ry="49.017" transform="translate(-275.447 777.125) rotate(-74.167)"/><ellipse class="cls-25" cx="376.129" cy="570.834" rx="38.85" ry="53.222" transform="translate(-275.668 776.95) rotate(-74.167)"/><path class="cls-13" d="M483.527,631H319.57V590.011c2.637,0,7.191-5.753,7.91,0s13.168-7.91,13.415,0,15.283-6.472,21.788,0,9.579-6.472,15.952,0,12.127-12.225,22.913,0,12.225-12.225,11.866,0,6.513-5.034,13.5,0,18,0,18,0h38.612Z"/><g class="cls-2"><g class="cls-2"><g class="cls-26"><g class="cls-2"><path class="cls-15" d="M934.341,427.987l-44.668-24.3a63.079,63.079,0,0,1,24.5,1.13l44.668,24.3a63.078,63.078,0,0,0-24.5-1.13"/><path class="cls-16" d="M958.842,429.117l-44.668-24.3a48,48,0,0,1,9.131,3.351l44.668,24.3a48,48,0,0,0-9.131-3.351"/><path class="cls-17" d="M967.973,432.468l-44.668-24.3q.8.393,1.571.813l44.668,24.3q-.771-.42-1.571-.813"/></g></g></g><ellipse class="cls-18" cx="934.267" cy="467.522" rx="53.583" ry="38.683" transform="translate(-96.628 298.149) rotate(-17.254)"/><g class="cls-2"><g class="cls-27"><g class="cls-2"><path class="cls-20" d="M898.99,501.763l-44.668-24.3c-10.564-5.747-17.187-15.257-17.165-26.871a33.017,33.017,0,0,1,2.074-11.282l44.669,24.3a32.994,32.994,0,0,0-2.075,11.282c-.021,11.614,6.6,21.124,17.165,26.871"/><path class="cls-21" d="M883.9,463.61l-44.669-24.3a39.537,39.537,0,0,1,2.322-5.151l44.668,24.3a39.53,39.53,0,0,0-2.321,5.151"/><path class="cls-22" d="M886.221,458.459l-44.668-24.3a44.94,44.94,0,0,1,2.792-4.515l44.669,24.3a44.951,44.951,0,0,0-2.793,4.515"/><path class="cls-23" d="M889.014,453.944l-44.669-24.3a50.519,50.519,0,0,1,3.5-4.431l44.668,24.3a50.318,50.318,0,0,0-3.5,4.431"/><path class="cls-24" d="M892.517,449.513l-44.668-24.3a56.515,56.515,0,0,1,4.552-4.584l44.668,24.3a56.515,56.515,0,0,0-4.552,4.584"/><path class="cls-17" d="M897.069,444.929,852.4,420.63a63.024,63.024,0,0,1,6.3-4.974l44.668,24.3a62.872,62.872,0,0,0-6.3,4.973"/><path class="cls-16" d="M903.373,439.956l-44.668-24.3a69.476,69.476,0,0,1,9.923-5.7l44.669,24.3a69.342,69.342,0,0,0-9.924,5.7"/><path class="cls-15" d="M913.3,434.254l-44.669-24.3a73.591,73.591,0,0,1,21.045-6.267l44.668,24.3a73.575,73.575,0,0,0-21.044,6.267"/></g></g></g></g><ellipse class="cls-25" cx="937.85" cy="466.999" rx="8.651" ry="6.136" transform="translate(-91.832 273.596) rotate(-15.833)"/><ellipse class="cls-25" cx="938.173" cy="467.23" rx="10.876" ry="7.714" transform="translate(-91.883 273.693) rotate(-15.833)"/><ellipse class="cls-25" cx="937.205" cy="466.537" rx="4.202" ry="2.98" transform="matrix(0.962, -0.273, 0.273, 0.962, -91.731, 273.402)"/><ellipse class="cls-25" cx="937.997" cy="467.518" rx="18.539" ry="13.149" transform="translate(-91.969 273.656) rotate(-15.833)"/><ellipse class="cls-25" cx="936.957" cy="466.566" rx="24.224" ry="17.181" transform="translate(-91.748 273.336) rotate(-15.833)"/><ellipse class="cls-25" cx="936.839" cy="466.151" rx="30.156" ry="21.389" transform="translate(-91.639 273.288) rotate(-15.833)"/><ellipse class="cls-25" cx="934.153" cy="466.646" rx="35.841" ry="25.422" transform="translate(-91.876 272.574) rotate(-15.833)"/><ellipse class="cls-25" cx="934.16" cy="466.672" rx="39.796" ry="28.227" transform="translate(-91.883 272.577) rotate(-15.833)"/><ellipse class="cls-25" cx="934.75" cy="467.292" rx="44.527" ry="31.364" transform="translate(-92.03 272.761) rotate(-15.833)"/><ellipse class="cls-25" cx="934.956" cy="467.345" rx="48.347" ry="35.291" transform="translate(-92.037 272.819) rotate(-15.833)"/><g class="cls-2"><g class="cls-2"><g class="cls-28"><g class="cls-2"><path class="cls-15" d="M1069.91,791.88l58.777-31.974a82.955,82.955,0,0,0-32.24,1.487l-58.777,31.974a82.974,82.974,0,0,1,32.24-1.487"/><path class="cls-16" d="M1037.67,793.367l58.777-31.974a63.14,63.14,0,0,0-12.015,4.409l-58.777,31.974a63.14,63.14,0,0,1,12.015-4.409"/><path class="cls-17" d="M1025.655,797.776l58.777-31.974q-1.052.518-2.068,1.07l-58.777,31.974q1.015-.552,2.068-1.07"/></g></g></g><ellipse class="cls-18" cx="1070.007" cy="843.902" rx="50.901" ry="70.508" transform="translate(-53.291 1615.451) rotate(-72.746)"/><g class="cls-2"><g class="cls-29"><g class="cls-2"><path class="cls-20" d="M1116.426,888.958l58.778-31.974c13.9-7.562,22.615-20.076,22.586-35.358a43.409,43.409,0,0,0-2.729-14.845l-58.777,31.974a43.418,43.418,0,0,1,2.729,14.845c.029,15.282-8.686,27.8-22.587,35.358"/><path class="cls-21" d="M1136.284,838.755l58.777-31.974a51.936,51.936,0,0,0-3.055-6.778l-58.777,31.974a52.13,52.13,0,0,1,3.055,6.778"/><path class="cls-22" d="M1133.229,831.977,1192.006,800a58.923,58.923,0,0,0-3.675-5.942l-58.777,31.975a58.91,58.91,0,0,1,3.675,5.941"/><path class="cls-23" d="M1129.554,826.036l58.777-31.975a66.661,66.661,0,0,0-4.609-5.831L1124.945,820.2a66.524,66.524,0,0,1,4.609,5.832"/><path class="cls-24" d="M1124.945,820.2l58.777-31.974a74.671,74.671,0,0,0-5.99-6.031l-58.777,31.974a74.671,74.671,0,0,1,5.99,6.031"/><path class="cls-17" d="M1118.955,814.173l58.777-31.974a82.906,82.906,0,0,0-8.3-6.545l-58.777,31.974a83.165,83.165,0,0,1,8.3,6.545"/><path class="cls-16" d="M1110.659,807.628l58.777-31.974a91.235,91.235,0,0,0-13.058-7.5L1097.6,800.126a91.33,91.33,0,0,1,13.058,7.5"/><path class="cls-15" d="M1097.6,800.126l58.777-31.974a96.8,96.8,0,0,0-27.691-8.246L1069.91,791.88a96.826,96.826,0,0,1,27.691,8.246"/></g></g></g></g><ellipse class="cls-25" cx="1065.292" cy="843.214" rx="8.074" ry="11.384" transform="matrix(0.273, -0.962, 0.962, 0.273, -36.58, 1638.032)"/><ellipse class="cls-25" cx="1064.868" cy="843.518" rx="10.151" ry="14.311" transform="translate(-37.181 1637.844) rotate(-74.167)"/><ellipse class="cls-25" cx="1066.141" cy="842.606" rx="3.922" ry="5.529" transform="translate(-35.378 1638.406) rotate(-74.167)"/><ellipse class="cls-25" cx="1065.098" cy="843.897" rx="17.302" ry="24.394" transform="translate(-37.378 1638.342) rotate(-74.167)"/><ellipse class="cls-25" cx="1066.468" cy="842.644" rx="22.608" ry="31.875" transform="translate(-35.176 1638.748) rotate(-74.167)"/><ellipse class="cls-25" cx="1066.623" cy="842.098" rx="28.145" ry="39.681" transform="translate(-34.538 1638.5) rotate(-74.167)"/><ellipse class="cls-25" cx="1070.157" cy="842.749" rx="33.451" ry="47.162" transform="translate(-32.595 1642.374) rotate(-74.167)"/><ellipse class="cls-25" cx="1070.147" cy="842.783" rx="37.142" ry="52.366" transform="translate(-32.635 1642.39) rotate(-74.167)"/><ellipse class="cls-25" cx="1069.372" cy="843.599" rx="41.271" ry="58.592" transform="translate(-33.984 1642.236) rotate(-74.167)"/><ellipse class="cls-25" cx="1069.101" cy="843.669" rx="46.438" ry="63.618" transform="translate(-34.248 1642.027) rotate(-74.167)"/><path class="cls-13" d="M1197.475,915.588H1001.494v-49c3.152,0,8.6-6.876,9.455,0s15.739-9.455,16.036,0,18.267-7.736,26.043,0,11.449-7.736,19.068,0,14.495-14.613,27.389,0,14.612-14.613,14.182,0,7.786-6.017,16.142,0,21.513,0,21.513,0h46.153Z"/><g class="cls-2"><g class="cls-2"><g class="cls-30"><g class="cls-2"><path class="cls-15" d="M323.143,854.215l-66.435-36.059a93.751,93.751,0,0,1,36.424,1.646l66.435,36.058a93.752,93.752,0,0,0-36.424-1.645"/><path class="cls-16" d="M359.567,855.86,293.132,819.8a71.251,71.251,0,0,1,13.578,4.968l66.435,36.059a71.32,71.32,0,0,0-13.578-4.969"/><path class="cls-17" d="M373.145,860.829,306.71,824.77q1.188.583,2.337,1.207l66.435,36.058q-1.148-.622-2.337-1.206"/></g></g></g><ellipse class="cls-18" cx="323.09" cy="912.985" rx="79.653" ry="57.504" transform="translate(-256.993 137.464) rotate(-17.308)"/><g class="cls-2"><g class="cls-31"><g class="cls-2"><path class="cls-20" d="M270.7,963.935l-66.435-36.059c-15.711-8.527-25.57-22.656-25.554-39.92a49.03,49.03,0,0,1,3.068-16.773l66.435,36.058a49.031,49.031,0,0,0-3.068,16.774c-.016,17.264,9.843,31.392,25.554,39.92"/><path class="cls-21" d="M248.211,907.241l-66.435-36.058a58.539,58.539,0,0,1,3.444-7.661l66.435,36.059a58.586,58.586,0,0,0-3.444,7.66"/><path class="cls-22" d="M251.655,899.581,185.22,863.522a66.7,66.7,0,0,1,4.144-6.716L255.8,892.865a66.7,66.7,0,0,0-4.144,6.716"/><path class="cls-23" d="M255.8,892.865l-66.435-36.059a75.261,75.261,0,0,1,5.2-6.592L261,886.272a75.246,75.246,0,0,0-5.2,6.593"/><path class="cls-24" d="M261,886.272l-66.436-36.058a84.206,84.206,0,0,1,6.761-6.82l66.435,36.058a84.352,84.352,0,0,0-6.76,6.82"/><path class="cls-17" d="M267.761,879.452l-66.435-36.058a93.7,93.7,0,0,1,9.364-7.4l66.435,36.059a93.7,93.7,0,0,0-9.364,7.4"/><path class="cls-16" d="M277.125,872.05,210.69,835.991a103.329,103.329,0,0,1,14.744-8.49l66.435,36.059a103.234,103.234,0,0,0-14.744,8.49"/><path class="cls-15" d="M291.869,863.56,225.434,827.5a109.412,109.412,0,0,1,31.274-9.345l66.435,36.059a109.38,109.38,0,0,0-31.274,9.345"/></g></g></g></g><ellipse class="cls-25" cx="328.415" cy="912.203" rx="12.861" ry="9.122" transform="translate(-237.167 124.747) rotate(-15.887)"/><ellipse class="cls-25" cx="328.895" cy="912.546" rx="16.168" ry="11.467" transform="translate(-237.243 124.891) rotate(-15.887)"/><ellipse class="cls-25" cx="327.456" cy="911.517" rx="6.247" ry="4.431" transform="translate(-237.016 124.458) rotate(-15.887)"/><ellipse class="cls-25" cx="328.635" cy="912.974" rx="27.558" ry="19.547" transform="translate(-237.37 124.836) rotate(-15.887)"/><ellipse class="cls-25" cx="327.086" cy="911.56" rx="36.009" ry="25.541" transform="translate(-237.042 124.358) rotate(-15.887)"/><ellipse class="cls-25" cx="326.91" cy="910.943" rx="44.828" ry="31.796" transform="translate(-236.88 124.287) rotate(-15.887)"/><ellipse class="cls-25" cx="322.919" cy="911.683" rx="53.279" ry="37.79" transform="translate(-237.235 123.222) rotate(-15.887)"/><ellipse class="cls-25" cx="322.93" cy="911.721" rx="59.158" ry="41.96" transform="translate(-237.245 123.227) rotate(-15.887)"/><ellipse class="cls-25" cx="323.807" cy="912.642" rx="66.192" ry="46.624" transform="matrix(0.962, -0.274, 0.274, 0.962, -237.463, 123.502)"/><ellipse class="cls-25" cx="324.113" cy="912.721" rx="71.87" ry="52.461" transform="translate(-237.473 123.589) rotate(-15.887)"/><path class="cls-13" d="M179.164,994.105l221.4-.21-.053-55.35c-3.56,0-9.718-7.76-10.681.01s-17.791-10.665-18.116.017-20.645-8.72-29.421.028-12.943-8.727-21.541.02-16.391-16.492-30.941.03-16.524-16.493-16.023.015-8.8-6.789-18.235.017-24.3.023-24.3.023l-52.139.049Z"/><g class="cls-2"><g class="cls-2"><g class="cls-32"><g class="cls-2"><path class="cls-15" d="M1674.361,634.935l54.2-29.482a76.516,76.516,0,0,0-29.728,1.371l-54.195,29.482a76.511,76.511,0,0,1,29.727-1.371"/><path class="cls-16" d="M1644.634,636.306l54.195-29.482a58.167,58.167,0,0,0-11.078,4.066l-54.2,29.482a58.177,58.177,0,0,1,11.079-4.066"/><path class="cls-17" d="M1633.555,640.372l54.2-29.482q-.97.477-1.907.986l-54.2,29.482q.938-.51,1.907-.986"/></g></g></g><ellipse class="cls-18" cx="1674.45" cy="682.902" rx="46.934" ry="65.012" transform="translate(525.625 2079.448) rotate(-72.746)"/><g class="cls-2"><g class="cls-33"><g class="cls-2"><path class="cls-20" d="M1717.252,724.446l54.195-29.482c12.817-6.972,20.853-18.511,20.826-32.6a40.032,40.032,0,0,0-2.516-13.688l-54.2,29.482a40.057,40.057,0,0,1,2.517,13.688c.026,14.091-8.01,25.63-20.826,32.6"/><path class="cls-21" d="M1735.561,678.156l54.2-29.482a47.985,47.985,0,0,0-2.817-6.249l-54.2,29.482a47.985,47.985,0,0,1,2.817,6.249"/><path class="cls-22" d="M1732.744,671.907l54.2-29.482a54.4,54.4,0,0,0-3.388-5.479l-54.2,29.482a54.4,54.4,0,0,1,3.388,5.479"/><path class="cls-23" d="M1729.356,666.428l54.2-29.482a61.26,61.26,0,0,0-4.251-5.376l-54.195,29.482a61.287,61.287,0,0,1,4.25,5.376"/><path class="cls-24" d="M1725.106,661.052,1779.3,631.57a68.758,68.758,0,0,0-5.522-5.562l-54.2,29.482a68.772,68.772,0,0,1,5.523,5.562"/><path class="cls-17" d="M1719.583,655.49l54.2-29.482a76.7,76.7,0,0,0-7.649-6.034l-54.2,29.482a76.554,76.554,0,0,1,7.649,6.034"/><path class="cls-16" d="M1711.934,649.456l54.2-29.482a84.269,84.269,0,0,0-12.041-6.918l-54.195,29.482a84.258,84.258,0,0,1,12.04,6.918"/><path class="cls-15" d="M1699.894,642.538l54.195-29.482a89.271,89.271,0,0,0-25.532-7.6l-54.2,29.482a89.278,89.278,0,0,1,25.533,7.6"/></g></g></g></g><ellipse class="cls-25" cx="1670.103" cy="682.268" rx="7.445" ry="10.497" transform="translate(558.057 2102.862) rotate(-74.167)"/><ellipse class="cls-25" cx="1669.712" cy="682.548" rx="9.36" ry="13.196" transform="translate(557.503 2102.689) rotate(-74.167)"/><ellipse class="cls-25" cx="1670.885" cy="681.707" rx="3.616" ry="5.098" transform="translate(559.165 2103.207) rotate(-74.167)"/><ellipse class="cls-25" cx="1669.924" cy="682.898" rx="15.954" ry="22.493" transform="translate(557.322 2103.148) rotate(-74.167)"/><ellipse class="cls-25" cx="1671.187" cy="681.742" rx="20.846" ry="29.39" transform="translate(559.352 2103.523) rotate(-74.167)"/><ellipse class="cls-25" cx="1671.33" cy="681.238" rx="25.951" ry="36.588" transform="translate(559.94 2103.294) rotate(-74.167)"/><ellipse class="cls-25" cx="1674.589" cy="681.839" rx="30.844" ry="43.486" transform="translate(561.732 2106.866) rotate(-74.167)"/><ellipse class="cls-25" cx="1674.58" cy="681.871" rx="34.247" ry="48.284" transform="translate(561.695 2106.88) rotate(-74.167)"/><ellipse class="cls-25" cx="1673.864" cy="682.623" rx="38.054" ry="54.025" transform="translate(560.451 2106.739) rotate(-74.167)"/><ellipse class="cls-25" cx="1673.615" cy="682.687" rx="42.818" ry="58.659" transform="translate(560.207 2106.546) rotate(-74.167)"/><path class="cls-5" d="M867.684,713.829l-16.772,10.74c-2.539,1.626-3.063,5.381-1.165,8.346h0c1.9,2.964,5.528,4.059,8.067,2.433l17.118-10.962a10.279,10.279,0,0,1,10.471-.181c6.255,3.355,13.519,3.595,19.223-.058l70.912-45.408c4.008-2.567,4.836-8.5,1.839-13.176l-13.462-21.024c-3-4.68-8.729-6.409-12.737-3.843L880.265,686.1c-5.849,3.746-8.665,10.693-8.053,17.976A10.346,10.346,0,0,1,867.684,713.829Z"/><rect class="cls-6" x="902.408" y="661.696" width="45.174" height="45.174" transform="translate(847.543 1832.264) rotate(-122.633)"/><path class="cls-7" d="M858.756,713.213h3.8a4.37,4.37,0,0,1,4.37,4.37v19.268a1.961,1.961,0,0,1-1.961,1.961h-8.878a1.961,1.961,0,0,1-1.961-1.961V717.843a4.63,4.63,0,0,1,4.63-4.63Z" transform="translate(713.165 1842.204) rotate(-122.633)"/><path class="cls-8" d="M931.613,700.5c.091-.059.1-.144.03-.256l.137-.087.75,1.172-.137.087a.172.172,0,0,0-.094-.072.147.147,0,0,0-.13.024l-3.028,1.939.8,1.254a.31.31,0,0,0,.122.11.187.187,0,0,0,.186-.027l.088.136-1.066.682-.087-.137a.182.182,0,0,0,.1-.157.3.3,0,0,0-.047-.158l-2.163-3.378a.3.3,0,0,0-.123-.109.183.183,0,0,0-.187.029l-.087-.139,1.065-.682.088.138a.181.181,0,0,0-.1.157.312.312,0,0,0,.047.158l.8,1.255Z"/><path class="cls-8" d="M924.668,696.054a.167.167,0,0,0-.085.146.523.523,0,0,0,.1.251l1.578,2.465.943-.6-.955-1.492a.639.639,0,0,0-.192-.209c-.064-.038-.154-.019-.271.055l-.087-.136,1.186-.76.088.136c-.117.074-.173.151-.171.228a.564.564,0,0,0,.1.268l.956,1.491,1.05-.672-1.628-2.541a.371.371,0,0,0-.173-.154.205.205,0,0,0-.19.022l-.088-.138,1.042-.667.088.137c-.076.049-.1.1-.083.154a1.09,1.09,0,0,0,.1.2l2.271,3.546-.137.088a.177.177,0,0,0-.1-.073.149.149,0,0,0-.129.024l-3.455,2.212a.145.145,0,0,0-.075.108.166.166,0,0,0,.025.117l-.137.087-2.221-3.469a.448.448,0,0,0-.193-.192.183.183,0,0,0-.175.019l-.087-.136,1-.643Z"/><path class="cls-8" d="M923.753,688.83a.239.239,0,0,1,.024.044.207.207,0,0,0,.022.045.861.861,0,0,0,.23.157c.134.076.295.176.484.3a4.584,4.584,0,0,1,.58.471,3.381,3.381,0,0,1,.532.646,4.04,4.04,0,0,1,.467,1,2.707,2.707,0,0,1,.123,1.022,2.2,2.2,0,0,1-.291.942,2.489,2.489,0,0,1-1.777,1.138,2.223,2.223,0,0,1-.986-.124,2.825,2.825,0,0,1-.888-.533,3.871,3.871,0,0,1-.719-.836,4.505,4.505,0,0,1-.39-.744c-.094-.236-.168-.448-.224-.634a3.657,3.657,0,0,1-.109-.455.838.838,0,0,0-.046-.208.094.094,0,0,0-.08-.04l-.088,0,.019-.173,1.3,0-.006.109a.339.339,0,0,0-.042.033c-.014.013-.029.027-.046.046a.354.354,0,0,0-.074.262,1.82,1.82,0,0,0,.061.438,3.986,3.986,0,0,0,.159.5,2.493,2.493,0,0,0,.22.445,2.447,2.447,0,0,0,.483.553,1.807,1.807,0,0,0,.593.34,1.535,1.535,0,0,0,.651.069,1.621,1.621,0,0,0,1.164-.745,1.547,1.547,0,0,0,.209-.62,1.833,1.833,0,0,0-.06-.68,2.444,2.444,0,0,0-.3-.671,2.946,2.946,0,0,0-.384-.474,3.722,3.722,0,0,0-.456-.394,1.918,1.918,0,0,0-.435-.244.353.353,0,0,0-.3-.013.167.167,0,0,0-.072.09l-.129-.069.486-1.018Z"/><path class="cls-8" d="M917.5,686.066c-.091.059-.1.143-.03.254l-.137.088-.75-1.172.137-.088a.165.165,0,0,0,.095.075.149.149,0,0,0,.129-.025l3.455-2.212a.147.147,0,0,0,.076-.107.182.182,0,0,0-.027-.118l.137-.087.75,1.172-.137.088c-.071-.112-.152-.138-.243-.08l-1.431.917,1.569,2.449,1.43-.916a.149.149,0,0,0,.076-.108.172.172,0,0,0-.027-.117l.137-.088.736,1.15-.137.087a.148.148,0,0,0-.23-.057l-3.454,2.212a.148.148,0,0,0-.045.232l-.137.088-.735-1.149.137-.087a.168.168,0,0,0,.1.072.146.146,0,0,0,.129-.023l1.294-.828-1.569-2.45Z"/><path class="cls-8" d="M919.536,681.339a.149.149,0,0,0-.23-.058l-3.454,2.212a.15.15,0,0,0-.045.234l-.137.086-.833-1.3.137-.088c.027.041.065.045.116.013s.079-.123.115-.29l.869-3.635-2.419,1.549c-.092.059-.1.154-.011.286l-.137.088-.736-1.15.137-.087a.149.149,0,0,0,.23.057l3.455-2.212a.148.148,0,0,0,.044-.232l.137-.088.789,1.232-.137.088c-.042-.065-.086-.084-.132-.055s-.068.1-.1.234l-.934,3.871,2.526-1.618c.091-.059.1-.147.025-.263l.137-.088.721,1.126Z"/><path class="cls-8" d="M910.383,675.656a3.608,3.608,0,0,1-.42-.932,3.127,3.127,0,0,1-.13-1.034,2.406,2.406,0,0,1,.26-.992,2.291,2.291,0,0,1,1.818-1.165,2.426,2.426,0,0,1,1.011.18,2.87,2.87,0,0,1,.871.558,3.812,3.812,0,0,1,1.092,1.7,2.9,2.9,0,0,1,.141,1.024,2.433,2.433,0,0,1-.259.993,2.289,2.289,0,0,1-1.819,1.165,2.438,2.438,0,0,1-1.011-.179,3.152,3.152,0,0,1-.883-.55A3.616,3.616,0,0,1,910.383,675.656Zm.7-.449a2.292,2.292,0,0,0,.461.521,2.1,2.1,0,0,0,.6.353,1.644,1.644,0,0,0,.663.106,1.424,1.424,0,0,0,1.141-.731,1.616,1.616,0,0,0,.181-.646,2.072,2.072,0,0,0-.071-.691,2.276,2.276,0,0,0-.279-.637,2.3,2.3,0,0,0-.461-.519,2.127,2.127,0,0,0-.6-.353,1.61,1.61,0,0,0-.663-.106,1.426,1.426,0,0,0-1.141.73,1.634,1.634,0,0,0-.182.648,2.111,2.111,0,0,0,.072.689A2.236,2.236,0,0,0,911.083,675.207Z"/><path class="cls-8" d="M910.786,670.355a.11.11,0,0,0,.1.058.214.214,0,0,0,.108-.032l.088.138-.913.585-.088-.138c.091-.059.113-.126.064-.2l-.833-1.3a.111.111,0,0,0-.1-.059.2.2,0,0,0-.108.033l-.088-.138.913-.585.088.138c-.092.058-.113.125-.064.2Z"/><path class="cls-8" d="M933.465,691.5a4.692,4.692,0,0,1-.376-.713,2.518,2.518,0,0,1-.188-.695,1.341,1.341,0,0,1,.069-.612.955.955,0,0,1,.4-.472.828.828,0,0,1,.692-.133,1.9,1.9,0,0,1,.637.332l.015-.01a1.763,1.763,0,0,1-.049-.821,1.035,1.035,0,0,1,.508-.674,1.106,1.106,0,0,1,.485-.171,1.16,1.16,0,0,1,.526.075,1.752,1.752,0,0,1,.53.334,2.769,2.769,0,0,1,.489.587l1.787,2.792-.137.087c-.09-.14-.181-.183-.273-.125l-3.454,2.213c-.091.058-.091.158,0,.3l-.137.088Zm1.47-1.155a1.855,1.855,0,0,0-.45-.511.493.493,0,0,0-.738.473,1.864,1.864,0,0,0,.275.622l.931,1.453.913-.584Zm1.735-1.112a1.445,1.445,0,0,0-.589-.592.559.559,0,0,0-.784.5,1.461,1.461,0,0,0,.292.783l.931,1.453,1.081-.692Z"/><path class="cls-8" d="M935.641,686.384a.267.267,0,0,0-.2-.093,2,2,0,0,0-.26.012l-3.861.487c-.089.007-.17.015-.244.022a.4.4,0,0,0-.171.051.135.135,0,0,0-.072.121.5.5,0,0,0,.027.143l-.137.088-.824-1.285.137-.088a.81.81,0,0,0,.11.079.134.134,0,0,0,.145-.017.384.384,0,0,0,.1-.1q.043-.066.108-.183l2.083-3.565a.294.294,0,0,0,.056-.181,1.919,1.919,0,0,0-.018-.2l.136-.088.858,1.339-.137.088a.224.224,0,0,0-.071-.061.091.091,0,0,0-.1,0,.578.578,0,0,0-.158.189l-.378.649,1.189,1.857.715-.073a.735.735,0,0,0,.277-.069c.056-.035.053-.1-.008-.2l.137-.087.692,1.08Zm-3.253-1.962-1,1.545,1.873-.191Z"/><path class="cls-8" d="M931.344,681.818l-.032-.151a.459.459,0,0,0,.137-.254,1.046,1.046,0,0,0,.007-.332,1.612,1.612,0,0,0-.091-.36,1.678,1.678,0,0,0-.161-.326,1.51,1.51,0,0,0-.558-.581.65.65,0,0,0-.633.11l-2.442,1.564a.231.231,0,0,0-.11.2.383.383,0,0,0,.051.212l-.137.088-.925-1.445.137-.088a.46.46,0,0,0,.2.182.225.225,0,0,0,.226-.017l2.511-1.607a1.179,1.179,0,0,1,1.19-.085,1.851,1.851,0,0,1,.551.408,4.33,4.33,0,0,1,.5.652,3.386,3.386,0,0,1,.247.454,3.906,3.906,0,0,1,.154.4c.039.122.071.231.1.326a.8.8,0,0,0,.086.218.192.192,0,0,0,.179.079l0,.162Z"/><path class="cls-8" d="M924.188,675.2a.17.17,0,0,0-.085.147.537.537,0,0,0,.1.251l1.578,2.465.943-.605-.954-1.491a.631.631,0,0,0-.194-.209c-.063-.038-.153-.02-.27.055l-.087-.136,1.186-.761.088.137c-.117.075-.173.15-.171.227a.557.557,0,0,0,.1.268l.955,1.491,1.05-.672-1.627-2.542a.37.37,0,0,0-.173-.152.2.2,0,0,0-.191.021l-.087-.137,1.042-.667.088.136c-.076.049-.1.1-.084.155a1.106,1.106,0,0,0,.105.2l2.27,3.546-.137.088a.174.174,0,0,0-.1-.073.151.151,0,0,0-.13.024l-3.454,2.212a.145.145,0,0,0-.076.107.173.173,0,0,0,.026.116l-.137.088-2.221-3.468a.45.45,0,0,0-.193-.194.192.192,0,0,0-.175.021l-.087-.137,1-.644Z"/><path class="cls-8" d="M920.886,671.854a3.752,3.752,0,0,1-.359-.7,1.762,1.762,0,0,1-.121-.641,1.135,1.135,0,0,1,.155-.562,1.443,1.443,0,0,1,.48-.467,1.171,1.171,0,0,1,.958-.2,1.911,1.911,0,0,1,.869.571l.8-1.938a.253.253,0,0,0,.011-.184.828.828,0,0,0-.071-.143l.137-.087.912,1.423-.137.088a.337.337,0,0,0-.1-.105.086.086,0,0,0-.092-.011.217.217,0,0,0-.067.087q-.03.063-.075.177l-.652,1.6.7,1.088,1.355-.868a.141.141,0,0,0,.071-.115.4.4,0,0,0-.081-.2l.137-.088.843,1.317-.137.087c-.094-.147-.186-.191-.278-.132l-3.454,2.212c-.091.058-.09.161,0,.308l-.137.087Zm1.907-.944a2.645,2.645,0,0,0-.334-.43.977.977,0,0,0-.3-.212.523.523,0,0,0-.276-.038.678.678,0,0,0-.449.288.516.516,0,0,0-.082.266.958.958,0,0,0,.067.364,2.539,2.539,0,0,0,.251.484l.843,1.316,1.126-.72Z"/><path class="cls-5" d="M220.031,820.563l7.137-24.292c1.08-3.677-1.548-7.717-5.841-8.979h0c-4.293-1.261-8.69.716-9.77,4.393l-7.284,24.793a13.063,13.063,0,0,1-9.9,8.905c-8.8,2-15.969,7.825-18.4,16.086l-30.173,102.7c-1.706,5.806,2.445,12.186,9.223,14.177l30.449,8.946c6.778,1.991,13.72-1.13,15.426-6.936l30.173-102.7c2.489-8.471-.6-17.485-7.264-23.963A13.156,13.156,0,0,1,220.031,820.563Z"/><rect class="cls-6" x="160.968" y="867.991" width="57.426" height="57.426" transform="translate(260.453 -17.106) rotate(16.372)"/><path class="cls-7" d="M213.235,786.633h7.271a4.37,4.37,0,0,1,4.37,4.37v26.211a1.961,1.961,0,0,1-1.961,1.961H210.566a1.961,1.961,0,0,1-1.961-1.961V791.263a4.63,4.63,0,0,1,4.63-4.63Z" transform="translate(235.11 -28.537) rotate(16.372)"/><path class="cls-8" d="M169.733,886.653c-.038.132.023.221.184.269l-.058.2-1.7-.5.059-.2a.216.216,0,0,0,.152-.01.186.186,0,0,0,.1-.13l1.288-4.387-1.818-.534a.4.4,0,0,0-.209,0,.231.231,0,0,0-.155.182l-.2-.059.453-1.542.2.059a.232.232,0,0,0,.031.236.4.4,0,0,0,.177.112l4.893,1.437a.389.389,0,0,0,.209,0,.231.231,0,0,0,.154-.182l.2.059-.453,1.542-.2-.059a.23.23,0,0,0-.031-.236.384.384,0,0,0-.177-.112l-1.818-.534Z"/><path class="cls-8" d="M180.105,885.128a.21.21,0,0,0-.04-.21.657.657,0,0,0-.307-.157l-3.57-1.049-.4,1.367,2.16.635a.808.808,0,0,0,.359.04c.093-.017.164-.11.214-.279l.2.058-.505,1.719-.2-.059c.049-.169.041-.288-.026-.36a.72.72,0,0,0-.321-.172l-2.159-.635-.447,1.521,3.68,1.082a.47.47,0,0,0,.292,0,.26.26,0,0,0,.167-.18l.2.059-.443,1.509-.2-.059c.032-.109.015-.182-.05-.216a1.365,1.365,0,0,0-.263-.1l-5.136-1.509.059-.2a.222.222,0,0,0,.152-.01.188.188,0,0,0,.1-.13l1.47-5a.188.188,0,0,0-.017-.166.218.218,0,0,0-.123-.09l.058-.2,5.025,1.475a.573.573,0,0,0,.346.024.237.237,0,0,0,.151-.164l.2.058-.427,1.455Z"/><path class="cls-8" d="M187.007,891.3a.362.362,0,0,1-.059-.024.362.362,0,0,0-.059-.024,1.08,1.08,0,0,0-.353.042q-.286.058-.715.112a5.78,5.78,0,0,1-.95.033,4.413,4.413,0,0,1-1.049-.177,5.177,5.177,0,0,1-1.281-.568,3.466,3.466,0,0,1-.97-.878,2.8,2.8,0,0,1-.506-1.148,2.918,2.918,0,0,1,1.806-3.275,3.575,3.575,0,0,1,1.295-.231,4.942,4.942,0,0,1,1.388.2,5.908,5.908,0,0,1,.994.387q.43.224.744.423a4.838,4.838,0,0,1,.485.346,1.029,1.029,0,0,0,.216.159.115.115,0,0,0,.11-.028l.087-.069.125.181-1.25,1.081-.088-.112a.454.454,0,0,0,.014-.066c0-.023,0-.051.006-.082a.446.446,0,0,0-.148-.312,2.289,2.289,0,0,0-.424-.371,5.293,5.293,0,0,0-.568-.347,3.078,3.078,0,0,0-1.507-.37,2.285,2.285,0,0,0-.851.169,2.014,2.014,0,0,0-1.181,2.161,1.966,1.966,0,0,0,.319.77,2.291,2.291,0,0,0,.625.6,3.056,3.056,0,0,0,.848.393,3.656,3.656,0,0,0,.763.134,4.541,4.541,0,0,0,.766,0,2.384,2.384,0,0,0,.619-.129c.175-.064.276-.143.3-.239a.22.22,0,0,0-.005-.146l.18-.043.385,1.382Z"/><path class="cls-8" d="M195.314,888.733c.039-.131-.023-.222-.185-.269l.059-.2,1.7.5-.058.2a.218.218,0,0,0-.153.01.183.183,0,0,0-.1.131l-1.47,5a.182.182,0,0,0,.017.165.207.207,0,0,0,.123.09l-.058.2-1.7-.5.058-.2c.162.047.262.006.3-.126l.608-2.072-3.548-1.043-.609,2.072a.185.185,0,0,0,.017.165.218.218,0,0,0,.124.091l-.059.2-1.663-.489.058-.2a.187.187,0,0,0,.267-.136l1.47-5a.187.187,0,0,0-.151-.259l.059-.2,1.663.49-.058.2a.21.21,0,0,0-.152.009.189.189,0,0,0-.105.13l-.55,1.874,3.548,1.043Z"/><path class="cls-8" d="M197.3,894.967a.188.188,0,0,0,.268-.136l1.47-5a.188.188,0,0,0-.151-.26l.058-.2,1.885.554-.059.2c-.059-.017-.1.012-.12.085s.026.184.13.373l2.2,4.213,1.029-3.5c.039-.132-.037-.225-.228-.282l.058-.2,1.664.489-.058.2a.188.188,0,0,0-.268.137l-1.47,5a.187.187,0,0,0,.151.259l-.058.2-1.786-.525.059-.2c.095.027.153.01.172-.057a.534.534,0,0,0-.1-.305l-2.332-4.491-1.075,3.659c-.038.132.027.221.2.271l-.059.2-1.631-.48Z"/><path class="cls-8" d="M210.822,892.786a4.645,4.645,0,0,1,1.18.545,4.037,4.037,0,0,1,.987.883,3.09,3.09,0,0,1,.578,1.169,2.911,2.911,0,0,1-.774,2.634,3.087,3.087,0,0,1-1.119.67,3.677,3.677,0,0,1-1.3.193,4.9,4.9,0,0,1-2.468-.726,3.683,3.683,0,0,1-.991-.866,3.075,3.075,0,0,1-.578-1.169,2.906,2.906,0,0,1,.774-2.634,3.1,3.1,0,0,1,1.119-.671,4.042,4.042,0,0,1,1.306-.209A4.693,4.693,0,0,1,210.822,892.786Zm-.3,1.014a2.856,2.856,0,0,0-.876-.113,2.649,2.649,0,0,0-.867.158,2.052,2.052,0,0,0-.725.452,1.811,1.811,0,0,0-.486,1.652,2.057,2.057,0,0,0,.366.773,2.672,2.672,0,0,0,.643.6,2.821,2.821,0,0,0,1.676.492,2.616,2.616,0,0,0,.865-.157,2.062,2.062,0,0,0,.726-.451,1.809,1.809,0,0,0,.485-1.652,2.074,2.074,0,0,0-.365-.774,2.7,2.7,0,0,0-.643-.6A2.877,2.877,0,0,0,210.524,893.8Z"/><path class="cls-8" d="M214.855,898.21a.138.138,0,0,0-.146.028.274.274,0,0,0-.078.121l-.2-.058.388-1.322.2.058c-.039.132,0,.214.107.247l1.884.553a.14.14,0,0,0,.146-.029.274.274,0,0,0,.077-.12l.2.058-.388,1.322-.2-.058c.039-.132,0-.214-.107-.247Z"/><path class="cls-8" d="M175.463,896.835a6.1,6.1,0,0,1,.956.37,3.193,3.193,0,0,1,.76.511,1.7,1.7,0,0,1,.444.646,1.208,1.208,0,0,1,.009.785,1.053,1.053,0,0,1-.555.707,2.35,2.35,0,0,1-.888.211l-.006.022a2.241,2.241,0,0,1,.732.748,1.315,1.315,0,0,1,.075,1.069,1.4,1.4,0,0,1-.323.571,1.493,1.493,0,0,1-.568.365,2.179,2.179,0,0,1-.785.123,3.578,3.578,0,0,1-.96-.157l-4.044-1.188.058-.2c.206.059.329.024.368-.108l1.47-5c.038-.133-.045-.231-.251-.29l.058-.2Zm-1.185,4.848a1.85,1.85,0,0,0,1.06.078.712.712,0,0,0,.334-1.135,1.849,1.849,0,0,0-.934-.508l-2.1-.619-.46,1.564Zm.738-2.512a2.346,2.346,0,0,0,.858.113.627.627,0,0,0,.314-1.068,2.322,2.322,0,0,0-.783-.368l-2.1-.619-.389,1.323Z"/><path class="cls-8" d="M177.641,903.557a.339.339,0,0,0,.268-.078,2.511,2.511,0,0,0,.241-.228l3.3-3.689c.079-.079.151-.154.215-.223a.484.484,0,0,0,.122-.192.168.168,0,0,0-.031-.176.753.753,0,0,0-.146-.116l.058-.2,1.863.547-.059.2a.937.937,0,0,0-.172.017c-.059.011-.1.056-.124.137a.464.464,0,0,0-.014.187c.009.068.025.154.048.266l.975,5.158a.4.4,0,0,0,.1.221c.051.054.112.111.182.173l-.058.2-1.94-.571.059-.2a.254.254,0,0,0,.12,0,.109.109,0,0,0,.095-.079.711.711,0,0,0,0-.312l-.179-.939-2.689-.79-.626.665a.976.976,0,0,0-.208.3c-.023.081.034.142.174.183l-.059.2-1.564-.459Zm4.757-.83-.324-2.322-1.638,1.745Z"/><path class="cls-8" d="M185.571,904.354l.157.118a.58.58,0,0,0,.08.359,1.318,1.318,0,0,0,.269.324,2.074,2.074,0,0,0,.388.27,2.309,2.309,0,0,0,.426.179,1.936,1.936,0,0,0,1.021.09.821.821,0,0,0,.515-.632l1.04-3.539a.287.287,0,0,0-.061-.28.483.483,0,0,0-.228-.164l.059-.2,2.093.615-.058.2a.576.576,0,0,0-.346,0,.287.287,0,0,0-.2.2l-1.068,3.636a1.493,1.493,0,0,1-1.07,1.075,2.343,2.343,0,0,1-.87.068,5.483,5.483,0,0,1-1.029-.207,4.454,4.454,0,0,1-.615-.229,5,5,0,0,1-.481-.255c-.14-.084-.26-.162-.363-.232a1.026,1.026,0,0,0-.265-.138.238.238,0,0,0-.237.074l-.133-.158Z"/><path class="cls-8" d="M197.956,904.737a.215.215,0,0,0-.04-.211.673.673,0,0,0-.307-.155l-3.571-1.05-.4,1.367,2.159.635a.813.813,0,0,0,.36.04c.093-.017.164-.11.213-.278l.2.058-.505,1.718-.2-.057c.049-.17.04-.289-.027-.362a.705.705,0,0,0-.32-.171l-2.16-.635-.446,1.521,3.68,1.081a.459.459,0,0,0,.293,0,.258.258,0,0,0,.166-.178l.2.057-.443,1.51-.2-.058c.032-.109.015-.182-.051-.217a1.315,1.315,0,0,0-.263-.1l-5.135-1.509.059-.2a.217.217,0,0,0,.152-.01.186.186,0,0,0,.1-.13l1.47-5a.2.2,0,0,0-.017-.167.22.22,0,0,0-.123-.089l.058-.2,5.025,1.477a.569.569,0,0,0,.346.022.239.239,0,0,0,.151-.164l.2.058-.427,1.455Z"/><path class="cls-8" d="M203.914,905.194a4.762,4.762,0,0,1,.932.375,2.269,2.269,0,0,1,.65.514,1.425,1.425,0,0,1,.319.669,1.817,1.817,0,0,1-.069.848,1.476,1.476,0,0,1-.757.986,2.412,2.412,0,0,1-1.309.178l.85,2.524a.321.321,0,0,0,.143.187,1.053,1.053,0,0,0,.187.078l-.059.2-2.061-.605.059-.2a.4.4,0,0,0,.181.017.1.1,0,0,0,.1-.067.256.256,0,0,0-.007-.138c-.015-.057-.041-.135-.076-.233l-.707-2.076-1.576-.463-.576,1.962a.178.178,0,0,0,.028.17.5.5,0,0,0,.244.126l-.058.2-1.906-.56.058-.2c.213.062.339.028.378-.1l1.47-5q.059-.2-.261-.293l.058-.2Zm-1.043,2.494a3.111,3.111,0,0,0,.679.134,1.208,1.208,0,0,0,.468-.048.668.668,0,0,0,.3-.194.811.811,0,0,0,.161-.305.8.8,0,0,0,.029-.344.658.658,0,0,0-.143-.325,1.26,1.26,0,0,0-.369-.294,3.182,3.182,0,0,0-.643-.254l-1.907-.561-.479,1.631Z"/><image class="cls-34" width="430" height="430" transform="translate(1471 -80)" xlink:href="Spilsk%C3%A6rm1.png"/><circle class="cls-35" cx="1686" cy="135" r="65"/><rect class="cls-1" x="1453.738" y="155.981" width="7" height="7"/><circle class="cls-36" cx="1457.238" cy="159.481" r="3.5"/><rect class="cls-1" x="1419.178" y="102.513" width="7" height="7"/><circle class="cls-36" cx="1422.678" cy="106.013" r="3.5"/><rect class="cls-1" x="1386.395" y="45.172" width="7" height="7"/><circle class="cls-36" cx="1389.895" cy="48.672" r="3.5"/><rect class="cls-1" x="1331.577" y="96.408" width="7" height="7"/><circle class="cls-36" cx="1335.077" cy="99.908" r="3.5"/><rect class="cls-1" x="1298.325" y="82.173" width="7" height="7"/><circle class="cls-36" cx="1301.825" cy="85.673" r="3.5"/><rect class="cls-1" x="1248.298" y="194.883" width="7" height="7"/><circle class="cls-36" cx="1251.798" cy="198.383" r="3.5"/><rect class="cls-1" x="1191.555" y="118.372" width="7" height="7"/><circle class="cls-36" cx="1195.055" cy="121.872" r="3.5"/><rect class="cls-1" x="1137.533" y="54.69" width="7" height="7"/><circle class="cls-36" cx="1141.033" cy="58.19" r="3.5"/><rect class="cls-1" x="1130.025" y="129.076" width="7" height="7"/><circle class="cls-36" cx="1133.525" cy="132.576" r="3.5"/><rect class="cls-1" x="1081.782" y="139.246" width="7" height="7"/><circle class="cls-36" cx="1085.282" cy="142.746" r="3.5"/><rect class="cls-1" x="1035.22" y="71.308" width="7" height="7"/><circle class="cls-36" cx="1038.72" cy="74.808" r="3.5"/><rect class="cls-1" x="1001.646" y="111.456" width="7" height="7"/><circle class="cls-36" cx="1005.146" cy="114.956" r="3.5"/><rect class="cls-1" x="937.354" y="134.168" width="7" height="7"/><circle class="cls-36" cx="940.854" cy="137.668" r="3.5"/><rect class="cls-1" x="888.937" y="1.244" width="7" height="7"/><circle class="cls-36" cx="892.437" cy="4.744" r="3.5"/><rect class="cls-1" x="854.691" y="3.837" width="7" height="7"/><circle class="cls-36" cx="858.191" cy="7.337" r="3.5"/><rect class="cls-1" x="793.205" y="152.434" width="7" height="7"/><circle class="cls-36" cx="796.705" cy="155.934" r="3.5"/><rect class="cls-1" x="741.206" y="19.786" width="7" height="7"/><circle class="cls-36" cx="744.706" cy="23.286" r="3.5"/><rect class="cls-1" x="708.959" y="143.61" width="7" height="7"/><circle class="cls-36" cx="712.459" cy="147.11" r="3.5"/><rect class="cls-1" x="654.788" y="143.06" width="7" height="7"/><circle class="cls-36" cx="658.288" cy="146.56" r="3.5"/><rect class="cls-1" x="612.424" y="170.989" width="7" height="7"/><circle class="cls-36" cx="615.924" cy="174.489" r="3.5"/><rect class="cls-1" x="542.827" y="-6.38" width="7" height="7"/><circle class="cls-36" cx="546.327" cy="-2.88" r="3.5"/><rect class="cls-1" x="484.456" y="33.444" width="7" height="7"/><circle class="cls-36" cx="487.956" cy="36.944" r="3.5"/><rect class="cls-1" x="456.621" y="152.133" width="7" height="7"/><circle class="cls-36" cx="460.121" cy="155.633" r="3.5"/><rect class="cls-1" x="415.411" y="169.578" width="7" height="7"/><circle class="cls-36" cx="418.911" cy="173.078" r="3.5"/><rect class="cls-1" x="340.932" y="28.8" width="7" height="7"/><circle class="cls-36" cx="344.432" cy="32.3" r="3.5"/><rect class="cls-1" x="356.934" y="214.717" width="7" height="7"/><circle class="cls-36" cx="360.434" cy="218.217" r="3.5"/><rect class="cls-1" x="287.01" y="227.873" width="7" height="7"/><circle class="cls-36" cx="290.51" cy="231.373" r="3.5"/><rect class="cls-1" x="257.786" y="181.685" width="7" height="7"/><circle class="cls-36" cx="261.286" cy="185.185" r="3.5"/><rect class="cls-1" x="206.73" y="31.897" width="7" height="7"/><circle class="cls-36" cx="210.23" cy="35.397" r="3.5"/><rect class="cls-1" x="168.332" y="113.307" width="7" height="7"/><circle class="cls-36" cx="171.832" cy="116.807" r="3.5"/><rect class="cls-1" x="132.476" y="73.394" width="7" height="7"/><circle class="cls-36" cx="135.976" cy="76.894" r="3.5"/><rect class="cls-1" x="73.103" y="189.691" width="7" height="7"/><circle class="cls-36" cx="76.603" cy="193.191" r="3.5"/><rect class="cls-1" x="85.072" y="104.351" width="7" height="7"/><circle class="cls-36" cx="88.572" cy="107.851" r="3.5"/></g><g id="Layer_2" data-name="Layer 2"><path class="cls-37" d="M476.369,479.093,471.3,458.548c-.768-3.11-4.367-4.921-8-4.025h0c-3.631.9-5.973,4.175-5.2,7.285l5.177,20.969a10.92,10.92,0,0,1-3.4,10.6c-5.514,5.147-8.237,12.373-6.512,19.36L474.809,599.6c1.212,4.91,6.895,7.769,12.628,6.354l25.753-6.359c5.733-1.415,9.432-6.591,8.219-11.5l-21.447-86.865c-1.769-7.164-7.8-12.372-15.332-14.246A11,11,0,0,1,476.369,479.093Z"/><rect class="cls-6" x="462.506" y="522.852" width="48" height="48" transform="translate(-116.899 132.56) rotate(-13.869)"/><path class="cls-38" d="M475.5,538.843c1.086-.085,2.058.207,2.318,1.261a1.932,1.932,0,0,1-.641,1.935,3.72,3.72,0,0,1-1.776.889l-2.675.66-.075-.3c.9-.315.932-.426.72-1.285l-1.076-4.36c-.223-.9-.34-.955-1.239-.814l-.075-.3,2.849-.7a2.984,2.984,0,0,1,1.768-.032,1.459,1.459,0,0,1,.942,1.059A1.786,1.786,0,0,1,475.5,538.843Zm-1.283.178c1.2-.295,1.567-.895,1.347-1.787a1.353,1.353,0,0,0-1.845-.975,1.172,1.172,0,0,0-.582.26c-.07.086-.074.213.012.561l.513,2.077Zm.084,2.724c.193.783.427.934,1.2.742a1.573,1.573,0,0,0,1.28-2.011c-.274-1.11-1.175-1.394-2.5-1.067l-.522.129Z"/><path class="cls-38" d="M484.444,538.859c0,.3-.012,1.493-.04,1.846l-5.285,1.3-.075-.3c.993-.325,1.045-.442.824-1.334l-1.06-4.295c-.239-.968-.372-.993-1.206-.868l-.076-.3,3.328-.821c1.022-.252,1.443-.367,1.571-.411.078.27.323,1.074.509,1.641l-.313.133a3.748,3.748,0,0,0-.53-.745c-.263-.316-.532-.33-1.184-.169l-1.033.255c-.337.083-.351.121-.273.437l.593,2.4,1.207-.3c.816-.2.83-.378.778-1.149l.337-.084.553,2.239-.338.084c-.334-.748-.448-.835-1.231-.642l-1.2.3.534,2.163c.188.762.444.768.99.644l1.011-.25c.664-.164.748-.288.918-.63a4.817,4.817,0,0,0,.34-1.145Z"/><path class="cls-38" d="M490.849,537.278c0,.3-.013,1.493-.041,1.846l-5.284,1.3-.076-.3c.993-.325,1.045-.442.825-1.334l-1.061-4.295c-.239-.968-.372-.993-1.206-.868l-.075-.3,3.327-.821c1.022-.253,1.443-.367,1.571-.411.078.27.323,1.074.509,1.64l-.313.134a3.748,3.748,0,0,0-.53-.746c-.263-.316-.531-.329-1.184-.168l-1.033.255c-.337.083-.351.12-.273.436l.593,2.4,1.207-.3c.816-.2.83-.378.778-1.149l.337-.083.553,2.239-.337.083c-.334-.747-.448-.834-1.231-.641l-1.2.295.534,2.163c.188.762.443.769.989.645l1.012-.25c.663-.164.747-.288.917-.63a4.771,4.771,0,0,0,.34-1.145Z"/><path class="cls-38" d="M498.506,537.315c-.141.035-.264.054-.408.078a1.987,1.987,0,0,1-1.927-.517c-.539-.454-1.1-1.043-1.584-1.512-.3-.294-.461-.324-1.016-.187l-.38.094.421,1.707c.228.924.361.949,1.253.821l.075.305-2.9.716-.075-.3c.878-.321.943-.383.715-1.308l-1.071-4.339c-.228-.924-.356-.926-1.239-.812l-.075-.305,2.772-.685a3.17,3.17,0,0,1,1.832-.059,1.674,1.674,0,0,1,1.093,1.253,2.077,2.077,0,0,1-.941,2.217c.279.288.927.9,1.374,1.31a10.177,10.177,0,0,0,1.135.907,1.621,1.621,0,0,0,.918.306Zm-4.885-2.544a1.8,1.8,0,0,0,1.119-.609,1.575,1.575,0,0,0,.267-1.485,1.509,1.509,0,0,0-2-1.192,1.033,1.033,0,0,0-.549.251c-.079.1-.085.217-.015.5l.657,2.663Z"/><rect class="cls-38" x="474.216" y="554.595" width="28.8" height="1.6" transform="translate(-118.885 133.315) rotate(-13.869)"/><rect class="cls-38" x="473.161" y="549.124" width="28.8" height="4" transform="translate(-117.892 132.937) rotate(-13.869)"/><rect class="cls-38" x="474.983" y="557.702" width="28.8" height="1.6" transform="translate(-119.607 133.589) rotate(-13.869)"/><path class="cls-38" d="M464.388,454.127h4.6a4.37,4.37,0,0,1,4.37,4.37v20.87a1.961,1.961,0,0,1-1.961,1.961h-9.679a1.961,1.961,0,0,1-1.961-1.961V458.757A4.63,4.63,0,0,1,464.388,454.127Z" transform="translate(-98.514 125.472) rotate(-13.869)"/><path class="cls-37" d="M1461.709,500.3l-13.036-3.57c-1.974-.541-4.1.9-4.735,3.206h0c-.631,2.3.467,4.631,2.44,5.172l13.306,3.644a6.972,6.972,0,0,1,4.85,5.194c1.153,4.677,4.334,8.447,8.767,9.661l55.117,15.1c3.116.853,6.48-1.425,7.477-5.062l4.475-16.341c1-3.638-.738-7.312-3.853-8.166l-55.117-15.1c-4.546-1.245-9.327.494-12.719,4.113A7.023,7.023,0,0,1,1461.709,500.3Z"/><rect class="cls-6" x="1487.321" y="500.418" width="30.658" height="30.658" transform="matrix(0.264, -0.964, 0.964, 0.264, 608.279, 1828.779)"/><path class="cls-38" d="M1494.725,519.334c.292-.632.757-1.083,1.427-.9a1.23,1.23,0,0,1,.879.96,2.344,2.344,0,0,1-.058,1.267l-.464,1.7-.194-.052c.106-.6.053-.653-.492-.8l-2.768-.758c-.573-.157-.638-.109-.839.436l-.194-.053.5-1.807a1.9,1.9,0,0,1,.533-1,.932.932,0,0,1,.884-.2A1.138,1.138,0,0,1,1494.725,519.334Zm-.3.771c.208-.758-.011-1.152-.578-1.307a.863.863,0,0,0-1.118.724.753.753,0,0,0-.037.406c.026.067.1.107.318.168l1.318.361Zm1.546.8c.5.136.653.054.787-.436a1.006,1.006,0,0,0-.723-1.342c-.7-.192-1.144.222-1.375,1.064l-.09.33Z"/><path class="cls-38" d="M1497.522,514.353c.168.089.828.471,1.017.6l-.919,3.356-.193-.053c.126-.655.078-.721-.488-.876l-2.726-.747c-.615-.168-.67-.1-.86.4l-.193-.052.578-2.112c.178-.648.245-.92.261-1.006.174.042.7.156,1.073.229l-.022.217a2.417,2.417,0,0,0-.582.062c-.258.049-.35.193-.463.608l-.18.656c-.059.215-.042.232.159.288l1.525.417.21-.766c.142-.517.048-.58-.4-.791l.059-.215,1.422.389-.059.215c-.522-.047-.606-.011-.742.487l-.208.759,1.374.376c.483.132.566-.007.667-.351l.176-.642c.115-.421.072-.507-.066-.707a2.976,2.976,0,0,0-.533-.547Z"/><path class="cls-38" d="M1498.635,510.289c.168.091.828.473,1.016.6l-.919,3.355-.193-.053c.128-.656.079-.72-.487-.876l-2.727-.747c-.614-.168-.669-.1-.859.4l-.193-.053.578-2.111c.178-.651.244-.92.26-1.006.175.041.7.154,1.073.226l-.022.217a2.347,2.347,0,0,0-.581.065c-.258.047-.35.192-.463.607l-.18.655c-.058.215-.042.234.158.288l1.526.418.21-.765c.141-.518.048-.582-.4-.792l.059-.215,1.421.39-.059.214c-.521-.046-.605-.01-.741.487l-.208.759,1.374.376c.482.132.565-.008.667-.351l.176-.643c.115-.421.072-.506-.066-.708a3.107,3.107,0,0,0-.533-.547Z"/><path class="cls-38" d="M1501.041,506.031c-.025.089-.053.164-.084.252a1.271,1.271,0,0,1-.889.914c-.422.158-.925.288-1.337.412-.259.079-.325.157-.421.508l-.066.241,1.084.3c.586.161.641.1.848-.442l.193.053-.5,1.841-.194-.052c.094-.589.081-.645-.506-.805l-2.754-.754c-.587-.161-.628-.092-.84.436l-.193-.053.482-1.758a2.038,2.038,0,0,1,.537-1.042,1.07,1.07,0,0,1,1.04-.219,1.33,1.33,0,0,1,.944,1.216c.247-.066.791-.236,1.158-.359a6.465,6.465,0,0,0,.86-.35,1.033,1.033,0,0,0,.456-.417Zm-2.941,1.933a1.153,1.153,0,0,0,.007-.815,1.007,1.007,0,0,0-.745-.611.963.963,0,0,0-1.287.744.659.659,0,0,0-.031.386c.031.075.094.113.274.163l1.692.463Z"/><rect class="cls-38" x="1498.873" y="516.721" width="18.395" height="1.022" transform="matrix(0.264, -0.964, 0.964, 0.264, 610.836, 1835.1)"/><rect class="cls-38" x="1496.163" y="515.212" width="18.395" height="2.555" transform="matrix(0.264, -0.964, 0.964, 0.264, 609.558, 1831.939)"/><rect class="cls-38" x="1500.845" y="517.261" width="18.395" height="1.022" transform="matrix(0.264, -0.964, 0.964, 0.264, 611.766, 1837.398)"/><path class="cls-38" d="M1452.441,493.539h0a4.218,4.218,0,0,1,4.218,4.218V509.02a1.892,1.892,0,0,1-1.892,1.892h-4.9a1.892,1.892,0,0,1-1.892-1.892V498.008a4.469,4.469,0,0,1,4.469-4.469Z" transform="translate(584.282 1770.283) rotate(-74.683)"/></g></g></svg>
