<svg id="Layer_1" data-name="Layer 1" xmlns="http://www.w3.org/2000/svg" width="345" height="161" viewBox="0 0 345 161"><defs><style>.cls-1{fill:#ff7bac;}</style></defs><title>spil_igen_button</title><rect class="cls-1" width="345" height="161" rx="35.95"/><path d="M43.93,93.109l4.062-4.861a13.386,13.386,0,0,0,8.317,3.265c3,0,4.391-1.164,4.391-2.694,0-2.252-1.859-2.8-4.819-4.036l-4.076-1.74c-3.466-1.316-6.63-3.975-6.63-8.527,0-5.182,4.667-9.323,11.464-9.323a15.156,15.156,0,0,1,10.389,4.1l-3.566,4.463a11.222,11.222,0,0,0-7.209-2.443c-2.333,0-3.915.965-3.915,2.793,0,1.881,2.1,2.57,5.1,3.695l3.828,1.622c4.1,1.536,6.683,4.091,6.683,8.505,0,5.2-4.363,9.7-12.107,9.7A18.02,18.02,0,0,1,43.93,93.109Z"/><path d="M73.89,65.77h11.1c6.787,0,12.254,2.455,12.254,10.06,0,7.365-5.619,10.611-12.254,10.611H80.97V97.052H73.89ZM84.577,80.821c3.879,0,5.723-1.739,5.723-4.991s-1.995-4.441-5.723-4.441H80.97v9.432Z"/><path d="M102.665,91.115h7.306V71.705h-7.306V65.77h21.69v5.935h-7.3v19.41h7.3v5.937h-21.69Z"/><path d="M133.025,65.77h7.068V91.115h13.925v5.937H133.025Z"/><path d="M189.064,91.115h7.306V71.705h-7.306V65.77h21.691v5.935H203.45v19.41h7.305v5.937H189.064Z"/><path d="M216.4,81.584c0-10.455,6.364-16.391,14.49-16.391a12.4,12.4,0,0,1,9.138,3.979l-3.9,4.38a6.76,6.76,0,0,0-5.241-2.243c-4.1,0-7.182,3.774-7.182,10.041,0,6.43,2.534,10.163,7.466,10.163a4.78,4.78,0,0,0,3.035-.924v-5.4h-4.543V79.414h10.885V93.841a14.99,14.99,0,0,1-9.79,3.787C222.773,97.628,216.4,92.133,216.4,81.584Z"/><path d="M247.542,65.77h20.736v5.935H254.622v6.274h11.6v5.937h-11.6v7.2h14.137v5.937H247.542Z"/><path d="M275.083,65.77h7.256l6.583,15.55L291.6,88.2h.165c-.318-3.293-.978-7.675-.978-11.369V65.77h6.749V97.052H290.28L283.7,81.465l-2.677-6.84h-.166c.317,3.459.978,7.65.978,11.33v11.1h-6.749Z"/></svg>
