<svg xmlns="http://www.w3.org/2000/svg" xmlns:xlink="http://www.w3.org/1999/xlink" width="1920" height="1080" viewBox="0 0 1920 1080"><defs><style>.cls-1,.cls-21,.cls-7{fill:none;}.cls-2{isolation:isolate;}.cls-3{opacity:0.92;fill:url(#linear-gradient);}.cls-4{fill:url(#linear-gradient-2);}.cls-5{fill:#42210b;}.cls-6{fill:#bfb4a6;}.cls-21,.cls-7{stroke:#000;stroke-miterlimit:10;}.cls-8{fill:#e9e0d6;}.cls-9{fill:#395931;}.cls-10{clip-path:url(#clip-path);}.cls-11{fill:#836748;}.cls-12{fill:#7f6446;}.cls-13{fill:#7b6144;}.cls-14{fill:#ad885f;}.cls-15{clip-path:url(#clip-path-2);}.cls-16{fill:#675139;}.cls-17{fill:#6b543b;}.cls-18{fill:#6f573d;}.cls-19{fill:#735a3f;}.cls-20{fill:#775e41;}.cls-21{stroke-width:0.25px;}.cls-22{clip-path:url(#clip-path-3);}.cls-23{clip-path:url(#clip-path-4);}.cls-24{clip-path:url(#clip-path-5);}.cls-25{clip-path:url(#clip-path-6);}.cls-26{opacity:0.89;mix-blend-mode:screen;}.cls-27{fill:url(#linear-gradient-3);}.cls-28{fill:#fffffd;}.cls-29{fill:#034926;opacity:0.73;}.cls-30{fill:#f0ecec;}.cls-31{fill:#c1272d;}.cls-32{fill:#2e3192;opacity:0.85;}.cls-33{fill:#d4145a;}.cls-34{clip-path:url(#clip-path-7);}.cls-35{clip-path:url(#clip-path-8);}.cls-36{clip-path:url(#clip-path-9);}.cls-37{clip-path:url(#clip-path-10);}</style><linearGradient id="linear-gradient" x1="960.5" y1="583" x2="960.5" y2="-1" gradientUnits="userSpaceOnUse"><stop offset="0" stop-color="#fff"/><stop offset="0" stop-color="#7a76a5"/><stop offset="0" stop-color="#e9e8f0"/><stop offset="0" stop-color="#dfdee9"/><stop offset="0" stop-color="#dcdbe7"/><stop offset="0" stop-color="#b8b6cf"/><stop offset="0.225" stop-color="#8a87b0"/><stop offset="0.874" stop-color="#1b1464"/></linearGradient><linearGradient id="linear-gradient-2" x1="1110.114" y1="193.282" x2="812.849" y2="1302.692" gradientUnits="userSpaceOnUse"><stop offset="0" stop-color="#fff"/><stop offset="0" stop-color="#7a76a5"/><stop offset="0" stop-color="#e9e8f0"/><stop offset="0" stop-color="#e7e7ee"/><stop offset="0" stop-color="#e1e2e7"/><stop offset="0" stop-color="#d6d9dc"/><stop offset="0" stop-color="#c7cccb"/><stop offset="0" stop-color="#b2bcb5"/><stop offset="0" stop-color="#99a799"/><stop offset="0" stop-color="#7b8f79"/><stop offset="0" stop-color="#5a7455"/><stop offset="0" stop-color="#395931"/><stop offset="0" stop-color="#3c5b34"/><stop offset="0" stop-color="#46623f"/><stop offset="0" stop-color="#566f50"/><stop offset="0" stop-color="#6d8069"/><stop offset="0" stop-color="#8b9588"/><stop offset="0" stop-color="#afb0af"/><stop offset="0" stop-color="#b3b3b3"/><stop offset="0.012" stop-color="#a8aba7"/><stop offset="0.05" stop-color="#8a9588"/><stop offset="0.093" stop-color="#71826c"/><stop offset="0.141" stop-color="#5c7356"/><stop offset="0.197" stop-color="#4c6745"/><stop offset="0.267" stop-color="#415f3a"/><stop offset="0.365" stop-color="#3b5a33"/><stop offset="0.636" stop-color="#395931"/><stop offset="0.825" stop-color="#395931"/></linearGradient><clipPath id="clip-path"><path class="cls-1" d="M324.225,430.586l-49.172,26.749c10.234-5.567,23.828-7.925,38.754-5.828l49.172-26.749C348.054,422.66,334.46,425.018,324.225,430.586Z"/></clipPath><clipPath id="clip-path-2"><path class="cls-1" d="M352.722,532.722l49.172-26.749c11.629-6.326,18.92-16.8,18.9-29.58-.044-24.037-25.927-47.154-57.811-51.635l-49.172,26.749c31.883,4.481,57.766,27.6,57.811,51.635C371.642,515.927,364.351,526.4,352.722,532.722Z"/></clipPath><clipPath id="clip-path-3"><path class="cls-1" d="M1022.364,734.872l-58.777,31.974c12.233-6.655,28.483-9.473,46.323-6.966l58.777-31.974C1050.847,725.4,1034.6,728.217,1022.364,734.872Z"/></clipPath><clipPath id="clip-path-4"><path class="cls-1" d="M1056.426,856.958l58.778-31.974c13.9-7.562,22.615-20.076,22.586-35.358-.053-28.731-30.992-56.364-69.1-61.72L1009.91,759.88c38.111,5.356,69.05,32.989,69.1,61.72C1079.042,836.882,1070.327,849.4,1056.426,856.958Z"/></clipPath><clipPath id="clip-path-5"><path class="cls-1" d="M309.047,825.977l66.435,36.058c-13.827-7.5-32.187-10.672-52.339-7.82l-66.435-36.059C276.86,815.305,295.22,818.472,309.047,825.977Z"/></clipPath><clipPath id="clip-path-6"><path class="cls-1" d="M270.7,963.935l-66.435-36.059c-15.711-8.527-25.57-22.656-25.554-39.92.029-32.457,34.951-63.708,78-69.8l66.435,36.059c-43.049,6.092-77.971,37.342-78,69.8C245.127,941.279,254.986,955.407,270.7,963.935Z"/></clipPath><linearGradient id="linear-gradient-3" x1="1686" y1="200" x2="1686" y2="70" gradientUnits="userSpaceOnUse"><stop offset="0" stop-color="#fff"/><stop offset="0" stop-color="#7a76a5"/><stop offset="0" stop-color="#e9e8f0"/><stop offset="0" stop-color="#edecf3" stop-opacity="0.825"/><stop offset="0" stop-color="#f1f0f5" stop-opacity="0.653"/><stop offset="0" stop-color="#f4f4f8" stop-opacity="0.496"/><stop offset="0" stop-color="#f7f7fa" stop-opacity="0.361"/><stop offset="0" stop-color="#faf9fb" stop-opacity="0.248"/><stop offset="0" stop-color="#fcfbfd" stop-opacity="0.156"/><stop offset="0" stop-color="#fdfdfe" stop-opacity="0.085"/><stop offset="0" stop-color="#fefefe" stop-opacity="0.036"/><stop offset="0" stop-color="#fff" stop-opacity="0.008"/><stop offset="0" stop-color="#fff" stop-opacity="0"/><stop offset="0.149" stop-color="#f7f7fa" stop-opacity="0.24"/><stop offset="0.31" stop-color="#f0f0f5" stop-opacity="0.469"/><stop offset="0.469" stop-color="#eae9f0" stop-opacity="0.659"/><stop offset="0.62" stop-color="#e5e4ed" stop-opacity="0.808"/><stop offset="0.763" stop-color="#e2e1eb" stop-opacity="0.914"/><stop offset="0.893" stop-color="#e0dfe9" stop-opacity="0.978"/><stop offset="1" stop-color="#dfdee9"/></linearGradient><clipPath id="clip-path-7"><path class="cls-1" d="M1657.655,634.02,1605,662.6c10.959-5.948,25.51-8.458,41.482-6.2l52.654-28.579C1683.166,625.562,1668.614,628.072,1657.655,634.02Z"/></clipPath><clipPath id="clip-path-8"><path class="cls-1" d="M1688.05,743.361l52.655-28.579c12.452-6.759,20.266-17.956,20.253-31.639-.023-25.725-27.7-50.493-61.821-55.321L1646.483,656.4c34.119,4.828,61.8,29.6,61.821,55.321C1708.316,725.405,1700.5,736.6,1688.05,743.361Z"/></clipPath><clipPath id="clip-path-9"><path class="cls-1" d="M962.69,350.216l31.621,17.162c-6.581-3.572-15.32-5.079-24.912-3.722l-31.621-17.162C947.37,345.136,956.109,346.644,962.69,350.216Z"/></clipPath><clipPath id="clip-path-10"><path class="cls-1" d="M944.436,415.88l-31.621-17.163c-7.478-4.059-12.17-10.784-12.163-19,.014-15.449,16.636-30.323,37.126-33.222L969.4,363.656c-20.49,2.9-37.112,17.774-37.126,33.223C932.266,405.1,936.958,411.821,944.436,415.88Z"/></clipPath></defs><title>Spilskærm_ny</title><g class="cls-2"><g id="Background"><rect class="cls-3" y="-1" width="1921" height="584"/><path class="cls-4" d="M1889.61,438.169l30.4-.032c-186.417-81.392-505.429-192.572-914.806-199.958C549.338,229.955,195.705,354.3,2.184,438.924l-7.771.213q3,322.93,6,645.863H1921.005q2.5-321.931,5-643.864Z"/><path class="cls-5" d="M1426.659,895.221a112.309,112.309,0,0,1-88.412,3.053c-5.221-1.979-7.621-7.131-5.446-10.891l8.285-14.881a55.848,55.848,0,0,1,21.623-20.665c7.465-3.881,13.438-4.912,19.795-2.661q1.485.5,3,.92c6.4,1.826,13.288,6,20.861,10.183,7.382,4.374,15.455,8.75,19.842,15.5l6.447,10.128C1434.338,888.421,1431.711,892.858,1426.659,895.221Z"/><path class="cls-6" d="M1421.948,892.975c-2.167-4.134-19.729-.734-39.764-1.514-10.142-.181-19.372-.99-26.7-1.054-7.277-.061-12.651.624-13.942,3.512-.649,1.417.3,5.151,2.735,6.168a84.318,84.318,0,0,0,13.556,3.782,108.859,108.859,0,0,0,24.251,1.917,110.739,110.739,0,0,0,24.02-3.388,123.369,123.369,0,0,0,13.219-4.317C1422.357,896.847,1422.493,894.189,1421.948,892.975Z"/><path class="cls-7" d="M1420.239,891.033c-3.739,3.77-10.307,7.983-19.926,11.069"/><path class="cls-7" d="M1413.553,890.537c-3.018,4.281-8.336,8.687-16.207,12.228"/><path class="cls-7" d="M1405.8,890.9a33.9,33.9,0,0,1-11.636,12.18"/><path class="cls-7" d="M1398.151,891.206c-1.651,5.319-4.237,9.777-7.831,12.486"/><path class="cls-7" d="M1390.687,891.516a16.992,16.992,0,0,1-5.374,12.557"/><path class="cls-7" d="M1383.8,891.469c.974,4.951.538,9.026-1.161,12.678"/><path class="cls-7" d="M1386.78,896.99h0"/><path class="cls-7" d="M1379.884,891.473c-1.513,4.857-2.28,9.285-.956,12.752"/><path class="cls-7" d="M1374.7,891.1c-1.367,4.617-1.4,9.048.581,13.045"/><path class="cls-7" d="M1370.347,890.813c-1.422,5.031-.912,9.629,2.523,13.3"/><path class="cls-7" d="M1363.334,890.424a18.862,18.862,0,0,0,6.24,13.35"/><path class="cls-7" d="M1356.188,890a37.034,37.034,0,0,0,10.652,13.492"/><path class="cls-7" d="M1349.856,890.547c2.608,5.368,7.868,9.755,15.5,12.223"/><path class="cls-7" d="M1342.878,892.485a32.035,32.035,0,0,0,20,10.379"/><path class="cls-8" d="M1392.516,960.458a173.238,173.238,0,0,1-25.3,3.228c-9.561.535-16.544-3.819-15.439-8.552l10.281-48.387c1.015-4.507,5.574-7.734,10.84-8.359a75.974,75.974,0,0,1,7.589-.521,87,87,0,0,1,10.617.464c5.159.561,9.372,3.276,10.055,7.221l6.852,42.989C1408.762,952.689,1401.889,958.546,1392.516,960.458Z"/><path class="cls-7" d="M1422.222,892.932c-4.294,3.67-11.446,7.553-21.395,9.932"/><path class="cls-7" d="M1341.055,895.581a44.527,44.527,0,0,0,21.534,8.6"/><path class="cls-9" d="M1441,984.018H1337.817V949.959c1.659,0,4.526-4.78,4.978,0s8.287-6.573,8.443,0,9.618-5.378,13.712,0,6.027-5.378,10.039,0,7.631-10.158,14.42,0,7.693-10.158,7.467,0,4.1-4.183,8.5,0,11.327,0,11.327,0H1441Z"/><path class="cls-5" d="M152.453,625.313a98.258,98.258,0,0,1-77.35,2.671c-4.568-1.731-6.668-6.239-4.765-9.528q3.624-6.51,7.249-13.019a48.851,48.851,0,0,1,18.918-18.08c6.53-3.4,11.756-4.3,17.318-2.328q1.3.441,2.623.8c5.6,1.6,11.625,5.253,18.25,8.909,6.459,3.827,13.522,7.655,17.36,13.558q2.82,4.431,5.641,8.862C159.172,619.363,156.873,623.246,152.453,625.313Z"/><path class="cls-6" d="M148.332,623.348c-1.9-3.616-17.261-.642-34.789-1.324-8.874-.159-16.948-.867-23.358-.923-6.366-.053-11.068.546-12.2,3.073-.567,1.24.259,4.506,2.393,5.4a73.738,73.738,0,0,0,11.86,3.309,95.21,95.21,0,0,0,21.217,1.677,96.893,96.893,0,0,0,21.015-2.964,107.821,107.821,0,0,0,11.565-3.777C148.69,626.735,148.809,624.41,148.332,623.348Z"/><path class="cls-7" d="M146.836,621.649c-3.271,3.3-9.017,6.984-17.433,9.684"/><path class="cls-7" d="M140.987,621.215c-2.64,3.745-7.293,7.6-14.179,10.7"/><path class="cls-7" d="M134.2,621.528a29.65,29.65,0,0,1-10.18,10.656"/><path class="cls-7" d="M127.512,621.8c-1.445,4.653-3.707,8.553-6.852,10.923"/><path class="cls-7" d="M120.982,622.072a14.866,14.866,0,0,1-4.7,10.985"/><path class="cls-7" d="M114.956,622.031a17.407,17.407,0,0,1-1.016,11.092"/><path class="cls-7" d="M117.563,626.86h0"/><path class="cls-7" d="M111.53,622.034c-1.324,4.25-1.994,8.123-.836,11.157"/><path class="cls-7" d="M106.991,621.706c-1.2,4.04-1.228,7.917.508,11.414"/><path class="cls-7" d="M103.187,621.457c-1.244,4.4-.8,8.424,2.207,11.636"/><path class="cls-7" d="M97.051,621.116a16.5,16.5,0,0,0,5.459,11.68"/><path class="cls-7" d="M90.8,620.744a32.381,32.381,0,0,0,9.32,11.8"/><path class="cls-7" d="M85.259,621.224c2.282,4.7,6.884,8.535,13.559,10.694"/><path class="cls-7" d="M79.154,622.919A28.03,28.03,0,0,0,96.653,632"/><path class="cls-8" d="M122.582,682.388a151.5,151.5,0,0,1-22.138,2.824c-8.365.468-14.475-3.341-13.508-7.482q4.5-21.167,8.995-42.333c.888-3.943,4.877-6.767,9.484-7.313a66.234,66.234,0,0,1,6.639-.456,76.128,76.128,0,0,1,9.289.406c4.514.49,8.2,2.866,8.8,6.318q3,18.8,6,37.61C136.795,675.591,130.782,680.715,122.582,682.388Z"/><path class="cls-7" d="M148.572,623.311c-3.757,3.21-10.014,6.607-18.719,8.689"/><path class="cls-7" d="M77.56,625.628A38.959,38.959,0,0,0,96.4,633.152"/><path class="cls-9" d="M165,703H74.727V673.2c1.451,0,3.959-4.182,4.355,0s7.25-5.75,7.386,0,8.415-4.7,12,0,5.273-4.7,8.783,0,6.676-8.887,12.615,0,6.731-8.887,6.533,0,3.587-3.659,7.435,0,9.91,0,9.91,0H165Z"/><path class="cls-5" d="M635.72,905.391c-23.925,22.959-48.473-20.548-73.643-1.194-2.28,1.717-4.119,1.779-4.083-.585.171-12.81.492-24.93.96-37.886.6-14.468,9.2-27.993,18.7-24.877,10.667,1.818,21.159,4.475,31.475,5.578,9.195,1.352,18.6,14.048,21.3,23.5a291.27,291.27,0,0,0,8.235,28.317C639.2,899.75,637.885,903.314,635.72,905.391Z"/><path class="cls-6" d="M629.109,905.449c-.63-2.652-4.585-2.682-10.38-5.06-5.811-2.081-13.464-6.511-21.844-11.117-16.658-11.086-30.607-.829-30.646,6.766.009,1.588,1.815,3.981,3.774,3.666,2.612-1.67,15.878-.966,28.837,6.018,13,7.347,25.685,7.194,28.075,5.073C629.252,909.854,629.461,906.835,629.109,905.449Z"/><path class="cls-7" d="M627.879,903.109A16.71,16.71,0,0,1,612.4,909.4"/><path class="cls-7" d="M622.608,901.349a15.458,15.458,0,0,1-12.454,7.513"/><path class="cls-7" d="M616.334,899.229c-2.122,4.424-5.021,7.247-8.6,8.59"/><path class="cls-7" d="M610.064,896.285c-1.115,5.314-2.765,9.051-5.226,10.544"/><path class="cls-7" d="M603.915,893.111c.341,5.523-.507,9.571-2.861,12.031"/><path class="cls-7" d="M598.216,889.947c1.439,6.156,1.578,10.658.81,14.216"/><path class="cls-7" d="M601.313,897.624h0"/><path class="cls-7" d="M594.994,888.4a34.04,34.04,0,0,0,1.228,14.5"/><path class="cls-7" d="M590.688,886.3a34.656,34.656,0,0,0,2.767,15.341"/><path class="cls-7" d="M587.109,885.023a28.218,28.218,0,0,0,4.535,15.931"/><path class="cls-7" d="M581.427,884.14a46.029,46.029,0,0,0,7.692,15.7"/><path class="cls-7" d="M575.762,884.87c3,4.19,6.792,8.9,11.271,14.215"/><path class="cls-7" d="M571.155,887.929c3.54,3.507,8.464,6.6,14.626,10.159"/><path class="cls-7" d="M566.718,893.91c5.014.909,10.775,2.542,17.261,4.147"/><path class="cls-8" d="M614.232,962.97c-4.86,1.587-9.742,3.255-14.638,5.063-5.475,2.195-10.406-.674-10.9-6.653-1.771-19.782-3.248-40.085-4.434-58.835-.316-5.231,2.354-8.892,6.34-8.291a21.73,21.73,0,0,1,5.84,1.789,51.082,51.082,0,0,1,8.451,5.067c4.154,3.04,7.615,7.908,8.376,12.335,2.7,16.172,5.7,30.039,8.992,40.853C623.248,957.425,619.663,961.109,614.232,962.97Z"/><path class="cls-7" d="M629.323,905.417c-3.5,3.969-9,6.605-16.485,5.014"/><path class="cls-7" d="M566.425,897.745c5.41-.576,11.3.392,17.64,1.827"/><path class="cls-9" d="M656,973.469l-88.035,9.559L565.324,958.7c1.416-.154,3.49-3.834,4.247-.461s6.56-5.463,7.2-.782,7.789-4.733,11.7-1.27,4.726-4.4,8.565-.93,5.724-7.963,12.3-1.336,5.776-7.969,6.371-.692,3.173-3.368,7.251-.787,9.663-1.05,9.663-1.05l20.732-2.251Z"/><g class="cls-2"><g class="cls-2"><g class="cls-10"><g class="cls-2"><path class="cls-11" d="M313.807,451.507l49.172-26.749A69.407,69.407,0,0,0,336.007,426l-49.172,26.749a69.425,69.425,0,0,1,26.972-1.244"/><path class="cls-12" d="M286.835,452.751,336.007,426a52.756,52.756,0,0,0-10.051,3.689L276.783,456.44a52.766,52.766,0,0,1,10.052-3.689"/><path class="cls-13" d="M276.783,456.44l49.173-26.749q-.88.432-1.731.9l-49.172,26.749q.849-.462,1.73-.895"/></g></g></g><ellipse class="cls-14" cx="313.887" cy="495.028" rx="42.584" ry="58.986" transform="translate(-251.966 647.962) rotate(-72.746)"/><g class="cls-2"><g class="cls-15"><g class="cls-2"><path class="cls-16" d="M352.722,532.722l49.172-26.749c11.629-6.326,18.92-16.8,18.9-29.58a36.312,36.312,0,0,0-2.283-12.42l-49.173,26.749a36.317,36.317,0,0,1,2.284,12.42c.024,12.785-7.267,23.254-18.9,29.58"/><path class="cls-17" d="M369.334,490.722l49.173-26.749a43.472,43.472,0,0,0-2.556-5.67l-49.173,26.749a43.4,43.4,0,0,1,2.556,5.67"/><path class="cls-18" d="M366.778,485.052,415.951,458.3a49.39,49.39,0,0,0-3.074-4.971l-49.172,26.75a49.255,49.255,0,0,1,3.073,4.97"/><path class="cls-19" d="M363.705,480.082l49.172-26.75a55.741,55.741,0,0,0-3.856-4.878L359.848,475.2a55.618,55.618,0,0,1,3.857,4.879"/><path class="cls-20" d="M359.848,475.2l49.173-26.749a62.389,62.389,0,0,0-5.011-5.046l-49.173,26.749a62.388,62.388,0,0,1,5.011,5.046"/><path class="cls-13" d="M354.837,470.157l49.173-26.749a69.489,69.489,0,0,0-6.94-5.475L347.9,464.682a69.519,69.519,0,0,1,6.94,5.475"/><path class="cls-12" d="M347.9,464.682l49.173-26.749a76.425,76.425,0,0,0-10.925-6.277l-49.172,26.749a76.468,76.468,0,0,1,10.924,6.277"/><path class="cls-11" d="M336.973,458.405l49.172-26.749a80.986,80.986,0,0,0-23.166-6.9l-49.172,26.749a81.037,81.037,0,0,1,23.166,6.9"/></g></g></g></g><ellipse class="cls-21" cx="309.943" cy="494.453" rx="6.755" ry="9.524" transform="matrix(0.273, -0.962, 0.962, 0.273, -250.314, 657.733)"/><ellipse class="cls-21" cx="309.588" cy="494.707" rx="8.492" ry="11.973" transform="translate(-250.817 657.577) rotate(-74.167)"/><ellipse class="cls-21" cx="310.653" cy="493.944" rx="3.281" ry="4.626" transform="translate(-249.309 658.046) rotate(-74.167)"/><ellipse class="cls-21" cx="309.781" cy="495.024" rx="14.475" ry="20.408" transform="translate(-250.981 657.993) rotate(-74.167)"/><ellipse class="cls-21" cx="310.927" cy="493.976" rx="18.914" ry="26.666" transform="translate(-249.14 658.333) rotate(-74.167)"/><ellipse class="cls-21" cx="311.057" cy="493.519" rx="23.546" ry="33.197" transform="translate(-248.606 658.125) rotate(-74.167)"/><ellipse class="cls-21" cx="314.013" cy="494.064" rx="27.985" ry="39.455" transform="translate(-246.98 661.366) rotate(-74.167)"/><ellipse class="cls-21" cx="314.005" cy="494.093" rx="31.073" ry="43.809" transform="translate(-247.014 661.379) rotate(-74.167)"/><ellipse class="cls-21" cx="313.356" cy="494.775" rx="34.527" ry="49.017" transform="translate(-248.142 661.251) rotate(-74.167)"/><ellipse class="cls-21" cx="313.129" cy="494.834" rx="38.85" ry="53.222" transform="translate(-248.363 661.075) rotate(-74.167)"/><path class="cls-9" d="M420.527,555H256.57V514.011c2.637,0,7.191-5.753,7.91,0s13.168-7.91,13.415,0,15.283-6.472,21.788,0,9.579-6.472,15.952,0,12.127-12.225,22.913,0,12.225-12.225,11.866,0,6.513-5.034,13.5,0,18,0,18,0h38.612Z"/><g class="cls-2"><g class="cls-2"><g class="cls-22"><g class="cls-2"><path class="cls-11" d="M1009.91,759.88l58.777-31.974a82.955,82.955,0,0,0-32.24,1.487L977.67,761.367a82.974,82.974,0,0,1,32.24-1.487"/><path class="cls-12" d="M977.67,761.367l58.777-31.974a63.14,63.14,0,0,0-12.015,4.409l-58.777,31.974a63.14,63.14,0,0,1,12.015-4.409"/><path class="cls-13" d="M965.655,765.776l58.777-31.974q-1.052.518-2.068,1.07l-58.777,31.974q1.015-.552,2.068-1.07"/></g></g></g><ellipse class="cls-14" cx="1010.007" cy="811.902" rx="50.901" ry="70.508" transform="translate(-64.935 1535.642) rotate(-72.746)"/><g class="cls-2"><g class="cls-23"><g class="cls-2"><path class="cls-16" d="M1056.426,856.958l58.778-31.974c13.9-7.562,22.615-20.076,22.586-35.358a43.409,43.409,0,0,0-2.729-14.845l-58.777,31.974a43.418,43.418,0,0,1,2.729,14.845c.029,15.282-8.686,27.8-22.587,35.358"/><path class="cls-17" d="M1076.284,806.755l58.777-31.974a51.936,51.936,0,0,0-3.055-6.778l-58.777,31.974a52.13,52.13,0,0,1,3.055,6.778"/><path class="cls-18" d="M1073.229,799.977,1132.006,768a58.923,58.923,0,0,0-3.675-5.942l-58.777,31.975a58.91,58.91,0,0,1,3.675,5.941"/><path class="cls-19" d="M1069.554,794.036l58.777-31.975a66.661,66.661,0,0,0-4.609-5.831L1064.945,788.2a66.524,66.524,0,0,1,4.609,5.832"/><path class="cls-20" d="M1064.945,788.2l58.777-31.974a74.671,74.671,0,0,0-5.99-6.031l-58.777,31.974a74.671,74.671,0,0,1,5.99,6.031"/><path class="cls-13" d="M1058.955,782.173l58.777-31.974a82.906,82.906,0,0,0-8.3-6.545l-58.777,31.974a83.165,83.165,0,0,1,8.3,6.545"/><path class="cls-12" d="M1050.659,775.628l58.777-31.974a91.235,91.235,0,0,0-13.058-7.5L1037.6,768.126a91.33,91.33,0,0,1,13.058,7.5"/><path class="cls-11" d="M1037.6,768.126l58.777-31.974a96.8,96.8,0,0,0-27.691-8.246L1009.91,759.88a96.826,96.826,0,0,1,27.691,8.246"/></g></g></g></g><ellipse class="cls-21" cx="1005.292" cy="811.214" rx="8.074" ry="11.384" transform="matrix(0.273, -0.962, 0.962, 0.273, -49.424, 1557.039)"/><ellipse class="cls-21" cx="1004.868" cy="811.518" rx="10.151" ry="14.311" transform="translate(-50.025 1556.852) rotate(-74.167)"/><ellipse class="cls-21" cx="1006.141" cy="810.606" rx="3.922" ry="5.529" transform="translate(-48.222 1557.413) rotate(-74.167)"/><ellipse class="cls-21" cx="1005.098" cy="811.897" rx="17.302" ry="24.394" transform="translate(-50.222 1557.349) rotate(-74.167)"/><ellipse class="cls-21" cx="1006.468" cy="810.644" rx="22.608" ry="31.875" transform="translate(-48.02 1557.755) rotate(-74.167)"/><ellipse class="cls-21" cx="1006.623" cy="810.098" rx="28.145" ry="39.681" transform="translate(-47.382 1557.507) rotate(-74.167)"/><ellipse class="cls-21" cx="1010.157" cy="810.749" rx="33.451" ry="47.162" transform="translate(-45.439 1561.381) rotate(-74.167)"/><ellipse class="cls-21" cx="1010.147" cy="810.783" rx="37.142" ry="52.366" transform="translate(-45.479 1561.397) rotate(-74.167)"/><ellipse class="cls-21" cx="1009.372" cy="811.599" rx="41.271" ry="58.592" transform="translate(-46.828 1561.243) rotate(-74.167)"/><ellipse class="cls-21" cx="1009.101" cy="811.669" rx="46.438" ry="63.618" transform="translate(-47.092 1561.034) rotate(-74.167)"/><path class="cls-9" d="M1137.475,883.588H941.494v-49c3.152,0,8.6-6.876,9.455,0s15.739-9.455,16.036,0,18.267-7.736,26.043,0,11.449-7.736,19.068,0,14.495-14.613,27.389,0,14.612-14.613,14.182,0,7.786-6.017,16.142,0,21.513,0,21.513,0h46.153Z"/><g class="cls-2"><g class="cls-2"><g class="cls-24"><g class="cls-2"><path class="cls-11" d="M323.143,854.215l-66.435-36.059a93.751,93.751,0,0,1,36.424,1.646l66.435,36.058a93.752,93.752,0,0,0-36.424-1.645"/><path class="cls-12" d="M359.567,855.86,293.132,819.8a71.251,71.251,0,0,1,13.578,4.968l66.435,36.059a71.32,71.32,0,0,0-13.578-4.969"/><path class="cls-13" d="M373.145,860.829,306.71,824.77q1.188.583,2.337,1.207l66.435,36.058q-1.148-.622-2.337-1.206"/></g></g></g><ellipse class="cls-14" cx="323.09" cy="912.985" rx="79.653" ry="57.504" transform="translate(-256.993 137.464) rotate(-17.308)"/><g class="cls-2"><g class="cls-25"><g class="cls-2"><path class="cls-16" d="M270.7,963.935l-66.435-36.059c-15.711-8.527-25.57-22.656-25.554-39.92a49.03,49.03,0,0,1,3.068-16.773l66.435,36.058a49.031,49.031,0,0,0-3.068,16.774c-.016,17.264,9.843,31.392,25.554,39.92"/><path class="cls-17" d="M248.211,907.241l-66.435-36.058a58.539,58.539,0,0,1,3.444-7.661l66.435,36.059a58.586,58.586,0,0,0-3.444,7.66"/><path class="cls-18" d="M251.655,899.581,185.22,863.522a66.7,66.7,0,0,1,4.144-6.716L255.8,892.865a66.7,66.7,0,0,0-4.144,6.716"/><path class="cls-19" d="M255.8,892.865l-66.435-36.059a75.261,75.261,0,0,1,5.2-6.592L261,886.272a75.246,75.246,0,0,0-5.2,6.593"/><path class="cls-20" d="M261,886.272l-66.436-36.058a84.206,84.206,0,0,1,6.761-6.82l66.435,36.058a84.352,84.352,0,0,0-6.76,6.82"/><path class="cls-13" d="M267.761,879.452l-66.435-36.058a93.7,93.7,0,0,1,9.364-7.4l66.435,36.059a93.7,93.7,0,0,0-9.364,7.4"/><path class="cls-12" d="M277.125,872.05,210.69,835.991a103.329,103.329,0,0,1,14.744-8.49l66.435,36.059a103.234,103.234,0,0,0-14.744,8.49"/><path class="cls-11" d="M291.869,863.56,225.434,827.5a109.412,109.412,0,0,1,31.274-9.345l66.435,36.059a109.38,109.38,0,0,0-31.274,9.345"/></g></g></g></g><ellipse class="cls-21" cx="328.415" cy="912.203" rx="12.861" ry="9.122" transform="translate(-237.167 124.747) rotate(-15.887)"/><ellipse class="cls-21" cx="328.895" cy="912.546" rx="16.168" ry="11.467" transform="translate(-237.243 124.891) rotate(-15.887)"/><ellipse class="cls-21" cx="327.456" cy="911.517" rx="6.247" ry="4.431" transform="translate(-237.016 124.458) rotate(-15.887)"/><ellipse class="cls-21" cx="328.635" cy="912.974" rx="27.558" ry="19.547" transform="translate(-237.37 124.836) rotate(-15.887)"/><ellipse class="cls-21" cx="327.086" cy="911.56" rx="36.009" ry="25.541" transform="translate(-237.042 124.358) rotate(-15.887)"/><ellipse class="cls-21" cx="326.91" cy="910.943" rx="44.828" ry="31.796" transform="translate(-236.88 124.287) rotate(-15.887)"/><ellipse class="cls-21" cx="322.919" cy="911.683" rx="53.279" ry="37.79" transform="translate(-237.235 123.222) rotate(-15.887)"/><ellipse class="cls-21" cx="322.93" cy="911.721" rx="59.158" ry="41.96" transform="translate(-237.245 123.227) rotate(-15.887)"/><ellipse class="cls-21" cx="323.807" cy="912.642" rx="66.192" ry="46.624" transform="matrix(0.962, -0.274, 0.274, 0.962, -237.463, 123.502)"/><ellipse class="cls-21" cx="324.113" cy="912.721" rx="71.87" ry="52.461" transform="translate(-237.473 123.589) rotate(-15.887)"/><image class="cls-26" width="430" height="430" transform="translate(1471 -80)" xlink:href="Spilsk%C3%A6rm_ny1.png"/><circle class="cls-27" cx="1686" cy="135" r="65"/><rect class="cls-1" x="1453.738" y="155.981" width="7" height="7"/><circle class="cls-28" cx="1457.238" cy="159.481" r="3.5"/><rect class="cls-1" x="1419.178" y="102.513" width="7" height="7"/><circle class="cls-28" cx="1422.678" cy="106.013" r="3.5"/><rect class="cls-1" x="1386.395" y="45.172" width="7" height="7"/><circle class="cls-28" cx="1389.895" cy="48.672" r="3.5"/><rect class="cls-1" x="1331.577" y="96.408" width="7" height="7"/><circle class="cls-28" cx="1335.077" cy="99.908" r="3.5"/><rect class="cls-1" x="1298.325" y="82.173" width="7" height="7"/><circle class="cls-28" cx="1301.825" cy="85.673" r="3.5"/><rect class="cls-1" x="1248.298" y="194.883" width="7" height="7"/><circle class="cls-28" cx="1251.798" cy="198.383" r="3.5"/><rect class="cls-1" x="1191.555" y="118.372" width="7" height="7"/><circle class="cls-28" cx="1195.055" cy="121.872" r="3.5"/><rect class="cls-1" x="1137.533" y="54.69" width="7" height="7"/><circle class="cls-28" cx="1141.033" cy="58.19" r="3.5"/><rect class="cls-1" x="1130.025" y="129.076" width="7" height="7"/><circle class="cls-28" cx="1133.525" cy="132.576" r="3.5"/><rect class="cls-1" x="1081.782" y="139.246" width="7" height="7"/><circle class="cls-28" cx="1085.282" cy="142.746" r="3.5"/><rect class="cls-1" x="1035.22" y="71.308" width="7" height="7"/><circle class="cls-28" cx="1038.72" cy="74.808" r="3.5"/><rect class="cls-1" x="1001.646" y="111.456" width="7" height="7"/><circle class="cls-28" cx="1005.146" cy="114.956" r="3.5"/><rect class="cls-1" x="937.354" y="134.168" width="7" height="7"/><circle class="cls-28" cx="940.854" cy="137.668" r="3.5"/><rect class="cls-1" x="888.937" y="1.244" width="7" height="7"/><circle class="cls-28" cx="892.437" cy="4.744" r="3.5"/><rect class="cls-1" x="854.691" y="3.837" width="7" height="7"/><circle class="cls-28" cx="858.191" cy="7.337" r="3.5"/><rect class="cls-1" x="793.205" y="152.434" width="7" height="7"/><circle class="cls-28" cx="796.705" cy="155.934" r="3.5"/><rect class="cls-1" x="741.206" y="19.786" width="7" height="7"/><circle class="cls-28" cx="744.706" cy="23.286" r="3.5"/><rect class="cls-1" x="708.959" y="143.61" width="7" height="7"/><circle class="cls-28" cx="712.459" cy="147.11" r="3.5"/><rect class="cls-1" x="654.788" y="143.06" width="7" height="7"/><circle class="cls-28" cx="658.288" cy="146.56" r="3.5"/><rect class="cls-1" x="612.424" y="170.989" width="7" height="7"/><circle class="cls-28" cx="615.924" cy="174.489" r="3.5"/><rect class="cls-1" x="542.827" y="-6.38" width="7" height="7"/><circle class="cls-28" cx="546.327" cy="-2.88" r="3.5"/><rect class="cls-1" x="484.456" y="33.444" width="7" height="7"/><circle class="cls-28" cx="487.956" cy="36.944" r="3.5"/><rect class="cls-1" x="456.621" y="152.133" width="7" height="7"/><circle class="cls-28" cx="460.121" cy="155.633" r="3.5"/><rect class="cls-1" x="415.411" y="169.578" width="7" height="7"/><circle class="cls-28" cx="418.911" cy="173.078" r="3.5"/><rect class="cls-1" x="340.932" y="28.8" width="7" height="7"/><circle class="cls-28" cx="344.432" cy="32.3" r="3.5"/><rect class="cls-1" x="356.934" y="214.717" width="7" height="7"/><circle class="cls-28" cx="360.434" cy="218.217" r="3.5"/><rect class="cls-1" x="287.01" y="227.873" width="7" height="7"/><circle class="cls-28" cx="290.51" cy="231.373" r="3.5"/><rect class="cls-1" x="257.786" y="181.685" width="7" height="7"/><circle class="cls-28" cx="261.286" cy="185.185" r="3.5"/><rect class="cls-1" x="206.73" y="31.897" width="7" height="7"/><circle class="cls-28" cx="210.23" cy="35.397" r="3.5"/><rect class="cls-1" x="168.332" y="113.307" width="7" height="7"/><circle class="cls-28" cx="171.832" cy="116.807" r="3.5"/><rect class="cls-1" x="132.476" y="73.394" width="7" height="7"/><circle class="cls-28" cx="135.976" cy="76.894" r="3.5"/><rect class="cls-1" x="73.103" y="189.691" width="7" height="7"/><circle class="cls-28" cx="76.603" cy="193.191" r="3.5"/><rect class="cls-1" x="85.072" y="104.351" width="7" height="7"/><circle class="cls-28" cx="88.572" cy="107.851" r="3.5"/><path class="cls-9" d="M178.52,1004.5H404.431V948.023c-3.633,0-9.909-7.927-10.9,0s-18.143-10.9-18.485,0-21.057-8.918-30.021,0-13.2-8.918-21.979,0-16.709-16.844-31.572,0-16.844-16.844-16.348,0-8.975-6.936-18.607,0-24.8,0-24.8,0h-53.2Z"/></g><g id="Layer_2" data-name="Layer 2"><path class="cls-5" d="M1371.57,268.845c-11.8-.2-22.968-20.912-33.506-15.546-2.029,1.061-2.943.2-2.1-3.053.84-3.155,1.656-6.105,2.448-8.818,4.468-15.224,14.007-14.527,23.068-10.107h0c4.619,3.188,8.7,8.905,11.672,12.7,2.937,4.239,4.766,6.556,4.048,13.217-.273,2.344-.569,4.66-.889,6.888C1376,266.39,1373.841,268.958,1371.57,268.845Z"/><path class="cls-6" d="M1370.966,266.526c.5-2.219-6.446-5.843-14.868-14.613-8.44-8.85-15.706-6.605-16.872-1.988-.278.954-.026,2.571.853,2.506,2.041-5.241,25.817,17.21,28.722,15.876C1370.07,268.614,1370.814,267.292,1370.966,266.526Z"/><path class="cls-7" d="M1370.922,265.086c-2.25,1.1-5.445.856-9.493-1.457"/><path class="cls-7" d="M1368.737,263.031c-2.136,1.252-4.989,1.214-8.505-.226"/><path class="cls-7" d="M1365.78,260.709a9.128,9.128,0,0,1-6.765,1.036"/><path class="cls-7" d="M1362.723,258.02c-1.671,1.739-3.45,2.643-5.233,2.577"/><path class="cls-7" d="M1359.636,255.214a5.407,5.407,0,0,1-4.077,3.771"/><path class="cls-7" d="M1356.776,252.516a8.9,8.9,0,0,1-2.237,5.6"/><path class="cls-7" d="M1355.127,251.094a10.074,10.074,0,0,0-2.007,5.884"/><path class="cls-7" d="M1352.972,249.217a11.027,11.027,0,0,0-1.237,6.675"/><path class="cls-7" d="M1351.154,247.877a9.714,9.714,0,0,0-.338,7.384"/><path class="cls-7" d="M1348.215,246.308a17.037,17.037,0,0,0,1.37,8.037"/><path class="cls-7" d="M1345.246,245.568a45.62,45.62,0,0,0,3.312,8.118"/><path class="cls-7" d="M1342.622,246.26c.908,2.412,2.7,4.347,5.431,6.8"/><path class="cls-7" d="M1339.78,248.765a46.077,46.077,0,0,0,7.3,4.034"/><path class="cls-8" d="M1358.683,258.452a33.587,33.587,0,0,0-4.113-4.1,16.083,16.083,0,0,0-3.1-2.034c-2.194-1.106-4.264.074-5.057,2.564-2.649,8.189-5.622,18.993-8.918,31.063.138-.112.27-.219.391-.312,1.726-1.325,3.664.086,4.307,1.757a2.97,2.97,0,0,1,4.359.624c.071-.014.14-.008.21-.015a6.629,6.629,0,0,0,1.068-1.212c1.2-1.587,4.138-2.31,5.186-.019a3.958,3.958,0,0,0,1.073,1.563c2.646-9.437,4.962-16.219,6.948-22.9C1361.609,263.492,1360.6,260.707,1358.683,258.452Z"/><path class="cls-7" d="M1371.065,266.572c-2.363.879-5.609.3-9.605-2.421"/><path class="cls-7" d="M1339,250.955a31.086,31.086,0,0,1,7.858,2.54"/><path class="cls-29" d="M395.564,433.228,392.025,418.9c-.536-2.17-3.047-3.433-5.58-2.808h0c-2.533.626-4.167,2.913-3.632,5.082l3.612,14.629a7.618,7.618,0,0,1-2.369,7.393c-3.846,3.59-5.747,8.632-4.543,13.506l14.962,60.6c.846,3.426,4.81,5.421,8.81,4.433l17.966-4.436c4-.987,6.58-4.6,5.735-8.024l-14.963-60.6c-1.234-5-5.439-8.631-10.7-9.939A7.668,7.668,0,0,1,395.564,433.228Z"/><rect class="cls-30" x="385.893" y="463.756" width="33.487" height="33.487" transform="translate(-103.439 110.522) rotate(-13.869)"/><path class="cls-31" d="M394.979,474.913c.758-.059,1.436.145,1.617.881a1.349,1.349,0,0,1-.447,1.35,2.59,2.59,0,0,1-1.239.619l-1.866.461-.052-.213c.629-.22.65-.3.5-.9l-.751-3.041c-.156-.629-.237-.665-.865-.566l-.052-.213,1.987-.49a2.086,2.086,0,0,1,1.234-.024,1.024,1.024,0,0,1,.657.74A1.245,1.245,0,0,1,394.979,474.913Zm-.895.124c.834-.206,1.093-.623.94-1.245a.944.944,0,0,0-1.287-.681.821.821,0,0,0-.405.18c-.05.062-.052.15.008.394l.357,1.448Zm.059,1.9c.135.546.3.651.836.518a1.1,1.1,0,0,0,.893-1.4c-.191-.774-.82-.973-1.745-.744l-.364.089Z"/><path class="cls-31" d="M401.219,474.926c0,.208-.009,1.04-.028,1.286l-3.687.91-.052-.213c.692-.226.729-.307.575-.93l-.74-3c-.166-.674-.259-.692-.841-.6l-.052-.213,2.32-.573c.713-.177,1.007-.257,1.1-.286.055.187.226.748.355,1.142l-.218.095a2.613,2.613,0,0,0-.37-.521c-.183-.22-.371-.23-.826-.118l-.72.179c-.235.058-.245.084-.191.3l.414,1.676.842-.208c.569-.14.579-.263.543-.8l.235-.059.386,1.563-.235.058c-.234-.522-.313-.583-.859-.448l-.835.206.373,1.51c.131.53.309.535.69.449l.706-.175c.462-.114.521-.2.639-.439a3.3,3.3,0,0,0,.237-.8Z"/><path class="cls-31" d="M405.687,473.822c0,.209-.009,1.041-.028,1.287l-3.687.911-.052-.213c.692-.228.729-.309.575-.931l-.74-3c-.166-.675-.259-.692-.841-.605l-.053-.213,2.321-.573c.713-.176,1.007-.257,1.1-.286.055.188.226.749.355,1.144l-.218.093a2.663,2.663,0,0,0-.37-.52c-.183-.22-.371-.23-.826-.117l-.72.177c-.235.058-.245.084-.191.3l.414,1.677.842-.208c.569-.14.579-.264.542-.8l.236-.058.386,1.562-.236.059c-.233-.522-.312-.583-.859-.449l-.834.206.373,1.51c.131.531.309.535.69.449l.706-.173c.462-.115.521-.2.639-.441a3.281,3.281,0,0,0,.237-.8Z"/><path class="cls-31" d="M411.029,473.848c-.1.024-.184.037-.285.053a1.383,1.383,0,0,1-1.344-.36c-.376-.317-.767-.728-1.1-1.055-.212-.2-.321-.225-.708-.131l-.266.067.294,1.19c.159.645.252.661.874.573l.052.212-2.025.5-.052-.212c.613-.224.658-.268.5-.913l-.747-3.026c-.16-.644-.249-.646-.865-.566l-.052-.213,1.934-.478a2.215,2.215,0,0,1,1.277-.042,1.169,1.169,0,0,1,.763.874,1.448,1.448,0,0,1-.656,1.546c.195.2.646.629.958.915a7.1,7.1,0,0,0,.792.633,1.123,1.123,0,0,0,.64.212Zm-3.407-1.776a1.244,1.244,0,0,0,.779-.425,1.1,1.1,0,0,0,.187-1.036,1.052,1.052,0,0,0-1.4-.83.708.708,0,0,0-.383.176c-.055.069-.059.151-.01.349l.458,1.857Z"/><rect class="cls-31" x="394.062" y="485.902" width="20.092" height="1.116" transform="translate(-104.825 111.048) rotate(-13.869)"/><rect class="cls-31" x="393.326" y="482.084" width="20.092" height="2.791" transform="translate(-104.132 110.785) rotate(-13.869)"/><rect class="cls-31" x="394.597" y="488.069" width="20.092" height="1.116" transform="translate(-105.329 111.24) rotate(-13.869)"/><path class="cls-31" d="M388.419,415.811h.851A4.194,4.194,0,0,1,393.463,420v12.9a1.882,1.882,0,0,1-1.882,1.882h-5.725a1.882,1.882,0,0,1-1.882-1.882V420.254A4.443,4.443,0,0,1,388.419,415.811Z" transform="translate(-90.613 105.576) rotate(-13.869)"/><path class="cls-29" d="M1427.31,486.819l-8.339-5.134a2.955,2.955,0,0,0-3.945,1.266h0a2.956,2.956,0,0,0,.645,4.093l8.512,5.241a5.052,5.052,0,0,1,2.316,4.6,9.283,9.283,0,0,0,4.132,8.5l35.259,21.71c1.993,1.227,4.8.327,6.229-2l6.436-10.453c1.433-2.327.975-5.235-1.019-6.462l-35.258-21.71a9.333,9.333,0,0,0-9.682.273A5.09,5.09,0,0,1,1427.31,486.819Z"/><rect class="cls-30" x="1441.532" y="494.786" width="22.213" height="22.213" transform="translate(260.228 1477.614) rotate(-58.378)"/><path class="cls-31" d="M1446.427,506.762c.331-.38.747-.6,1.175-.336a.9.9,0,0,1,.417.847,1.716,1.716,0,0,1-.3.872l-.669,1.085-.123-.075c.195-.4.169-.444-.18-.659l-1.771-1.091c-.367-.225-.422-.206-.674.134l-.123-.076.712-1.158a1.377,1.377,0,0,1,.574-.584.674.674,0,0,1,.655.043A.827.827,0,0,1,1446.427,506.762Zm-.366.476c.3-.486.227-.8-.135-1.028a.627.627,0,0,0-.927.277.535.535,0,0,0-.107.275c0,.051.045.094.186.181l.844.52Zm.912.872c.318.2.444.169.637-.143a.728.728,0,0,0-.23-1.08c-.451-.278-.841-.08-1.173.459l-.131.213Z"/><path class="cls-31" d="M1449.386,503.866c.1.1.479.5.585.622l-1.322,2.147-.123-.075c.221-.431.2-.486-.161-.708l-1.746-1.076c-.393-.241-.444-.207-.68.1l-.123-.076.832-1.352c.256-.415.357-.59.385-.644.114.062.456.249.7.375l-.06.146a1.726,1.726,0,0,0-.417-.074c-.189-.02-.283.064-.446.328l-.258.42c-.084.137-.077.154.052.233l.976.6.3-.49c.2-.331.151-.394-.117-.632l.085-.138.91.561-.084.137c-.354-.138-.42-.13-.616.188l-.3.485.879.542c.309.191.395.11.536-.108l.253-.411c.166-.27.153-.338.1-.507a2.223,2.223,0,0,0-.259-.488Z"/><path class="cls-31" d="M1450.986,501.267c.1.1.48.5.586.622l-1.322,2.147-.124-.076c.222-.431.2-.485-.161-.708l-1.745-1.075c-.393-.241-.445-.207-.68.1l-.124-.076.833-1.352c.255-.415.357-.59.385-.645.113.062.456.249.7.375l-.059.146a1.776,1.776,0,0,0-.417-.074c-.19-.019-.283.065-.446.329l-.259.42c-.084.137-.076.154.052.233l.976.6.3-.49c.2-.332.151-.4-.116-.633l.084-.137.91.561-.084.137c-.353-.139-.42-.13-.615.187l-.3.487.878.541c.31.19.4.109.537-.109l.253-.411c.165-.269.153-.338.1-.506a2.215,2.215,0,0,0-.26-.489Z"/><path class="cls-31" d="M1453.526,498.794c-.036.058-.07.1-.11.158a.918.918,0,0,1-.8.456c-.326.024-.7.012-1.015.015-.195,0-.257.042-.4.267l-.1.155.694.426c.375.232.427.2.68-.134l.124.076-.727,1.18-.123-.077c.186-.39.187-.432-.188-.664l-1.763-1.085c-.376-.231-.418-.192-.674.134l-.123-.076.694-1.127a1.459,1.459,0,0,1,.585-.615.776.776,0,0,1,.768.059.961.961,0,0,1,.409,1.038c.186,0,.6,0,.879-.013a4.62,4.62,0,0,0,.67-.07.731.731,0,0,0,.4-.2Zm-2.44.747a.838.838,0,0,0,.172-.565.734.734,0,0,0-.394-.578.7.7,0,0,0-1.048.256.491.491,0,0,0-.1.262c.006.059.043.1.157.17l1.083.666Z"/><rect class="cls-31" x="1449.442" y="507.658" width="13.328" height="0.74" transform="translate(260.059 1481.583) rotate(-58.378)"/><rect class="cls-31" x="1447.708" y="506.035" width="13.328" height="1.851" transform="translate(260.144 1479.599) rotate(-58.378)"/><rect class="cls-31" x="1450.703" y="508.434" width="13.328" height="0.74" transform="translate(259.998 1483.026) rotate(-58.378)"/><path class="cls-31" d="M1420,479.957h.921a2.609,2.609,0,0,1,2.609,2.609v8.808a1.171,1.171,0,0,1-1.171,1.171h-3.953a1.171,1.171,0,0,1-1.171-1.171v-8.653a2.764,2.764,0,0,1,2.764-2.764Z" transform="translate(261.611 1440.806) rotate(-58.378)"/><path class="cls-32" d="M746.433,613.607l14.6,3.409c2.21.516,4.51-1.172,5.113-3.752h0c.6-2.579-.713-5.112-2.922-5.628l-14.9-3.48a7.735,7.735,0,0,1-5.594-5.552c-1.473-5.134-5.157-9.178-10.121-10.337L670.9,573.854c-3.488-.815-7.121,1.851-8.072,5.924l-4.273,18.3c-.951,4.073,1.125,8.072,4.613,8.886l61.711,14.413c5.09,1.189,10.315-.939,13.922-5.091A7.786,7.786,0,0,1,746.433,613.607Z"/><rect class="cls-30" x="683.418" y="581.206" width="33.997" height="33.997" transform="translate(1442.243 52.196) rotate(103.146)"/><path class="cls-33" d="M754.372,601.441h4.915a2.29,2.29,0,0,1,2.29,2.29v15.947a1.028,1.028,0,0,1-1.028,1.028h-7.577a1.028,1.028,0,0,1-1.028-1.028V603.868a2.427,2.427,0,0,1,2.427-2.427Z" transform="translate(1523.935 13.123) rotate(103.146)"/><rect class="cls-33" x="684.614" y="596.707" width="25.396" height="1.21" transform="translate(1437.564 54.124) rotate(103.146)"/><rect class="cls-33" x="689.271" y="596.604" width="25.396" height="3.592" transform="translate(1444.34 50.924) rotate(103.146)"/><rect class="cls-33" x="682.258" y="596.157" width="25.396" height="1.21" transform="translate(1434.135 55.744) rotate(103.146)"/><rect class="cls-33" x="679.975" y="595.624" width="25.396" height="1.21" transform="translate(1430.814 57.312) rotate(103.146)"/><path class="cls-32" d="M225.645,824.516l5.116-24.739c.774-3.745-2.169-7.549-6.541-8.453h0c-4.372-.9-8.583,1.42-9.357,5.165l-5.222,25.25a13.035,13.035,0,0,1-9.114,9.663c-8.587,2.7-15.242,9.084-16.982,17.5L161.916,953.493c-1.223,5.913,3.425,11.918,10.328,13.346l31.009,6.413c6.9,1.427,13.552-2.242,14.775-8.155l21.63-104.6c1.784-8.627-2.026-17.339-9.178-23.237A13.126,13.126,0,0,1,225.645,824.516Z"/><rect class="cls-30" x="173.023" y="874.061" width="57.3" height="57.3" transform="translate(186.988 -22.137) rotate(11.684)"/><path class="cls-33" d="M217.445,790.988h7.235a4.37,4.37,0,0,1,4.37,4.37V821.5a1.961,1.961,0,0,1-1.961,1.961H214.775a1.961,1.961,0,0,1-1.961-1.961V795.618A4.63,4.63,0,0,1,217.445,790.988Z" transform="translate(168.049 -28.016) rotate(11.684)"/><rect class="cls-33" x="178.903" y="906.96" width="42.802" height="2.039" transform="translate(188.026 -21.75) rotate(11.684)"/><rect class="cls-33" x="180.535" y="897.059" width="42.802" height="6.054" transform="translate(186.461 -22.245) rotate(11.684)"/><rect class="cls-33" x="178.077" y="910.954" width="42.802" height="2.039" transform="translate(188.818 -21.5) rotate(11.684)"/><rect class="cls-33" x="177.277" y="914.823" width="42.802" height="2.039" transform="translate(189.585 -21.258) rotate(11.684)"/><path class="cls-32" d="M1446.823,855.685l-5.76-15.524c-.872-2.35-3.83-3.439-6.573-2.421h0c-2.744,1.018-4.275,3.773-3.4,6.123l5.879,15.844a8.545,8.545,0,0,1-1.7,8.537c-3.831,4.488-5.31,10.347-3.351,15.626l24.353,65.632c1.376,3.71,6.047,5.431,10.378,3.823l19.458-7.22c4.332-1.607,6.75-5.957,5.373-9.668l-24.352-65.631c-2.009-5.414-7.154-8.929-13.179-9.72A8.6,8.6,0,0,1,1446.823,855.685Z"/><rect class="cls-30" x="1441.916" y="888.686" width="37.555" height="37.555" transform="translate(-224.448 564.809) rotate(-20.357)"/><path class="cls-33" d="M1434.536,837.075h7.4a1.572,1.572,0,0,1,1.572,1.572v19a.705.705,0,0,1-.705.705h-9.23a.705.705,0,0,1-.705-.705V838.74a1.665,1.665,0,0,1,1.665-1.665Z" transform="translate(-205.069 553.249) rotate(-20.357)"/><rect class="cls-33" x="1447.739" y="910.199" width="28.054" height="1.337" transform="translate(-225.566 565.394) rotate(-20.357)"/><rect class="cls-33" x="1445.901" y="903.93" width="28.054" height="3.968" transform="translate(-223.957 564.446) rotate(-20.357)"/><rect class="cls-33" x="1448.668" y="912.705" width="28.054" height="1.337" transform="translate(-226.379 565.874) rotate(-20.357)"/><rect class="cls-33" x="1449.569" y="915.133" width="28.054" height="1.337" transform="translate(-227.168 566.339) rotate(-20.357)"/><g class="cls-2"><g class="cls-2"><g class="cls-34"><g class="cls-2"><path class="cls-11" d="M1646.483,656.4l52.654-28.579a74.29,74.29,0,0,0-28.868,1.3l-52.654,28.579a74.289,74.289,0,0,1,28.868-1.3"/><path class="cls-12" d="M1617.615,657.705l52.654-28.579a56.473,56.473,0,0,0-10.761,3.938l-52.655,28.579a56.458,56.458,0,0,1,10.762-3.938"/><path class="cls-13" d="M1606.853,661.643l52.655-28.579q-.944.462-1.853.956L1605,662.6q.909-.5,1.852-.956"/></g></g></g><path class="cls-14" d="M1639.175,740.223c.633-.217,1.263-.438,1.879-.675a.892.892,0,0,1,.841.128c-.893.173-1.716.409-2.542.575C1639.294,740.242,1639.235,740.228,1639.175,740.223Z"/><path class="cls-14" d="M1651.706,742.17c-.062.391-.517,1.806-.714,2.489-.076-.158-.191-.392-.359-.777-.071-.163-.15-.317-.227-.473.456-.426.894-.868,1.322-1.326C1651.722,742.113,1651.71,742.14,1651.706,742.17Z"/><path class="cls-14" d="M1608.663,730.55a3.89,3.89,0,0,0-3.331-1.92,10.968,10.968,0,0,0-2.955.633c-10.889-9.935-17.618-22.359-17.63-35.025-.023-25.725,27.617-42.665,61.736-37.837s61.8,29.6,61.821,55.321c.01,11.183-5.219,20.7-13.928,27.487-.26-.034-.522-.063-.779-.11-3.191-.583-5.035-3.247-6.727-5.794a3.9,3.9,0,0,0-6.027-.777,24.905,24.905,0,0,1-9.957,5.671,3.78,3.78,0,0,0-1.1.558c-3.188-1.177-6.126.361-8.548,2.51l-2.762-.422a2.966,2.966,0,0,1-.358-.368c-1.144-1.425-3.4-1.408-4.923-.439l-16.071-2.455a3.394,3.394,0,0,0-2.867-1.366,21.7,21.7,0,0,0-3.353.415l-9.679-1.478c-.023-.093-.046-.181-.07-.275a7.544,7.544,0,0,0-8.823-5.7A11.528,11.528,0,0,0,1608.663,730.55Z"/><path class="cls-14" d="M1658.478,740.845l2.38.364c-.418.115-.837.214-1.254.29A3.416,3.416,0,0,1,1658.478,740.845Z"/><path class="cls-14" d="M1622.249,738.7c-.374-1.042-.68-2.2-1.022-3.547l9.679,1.478c-2.225.437-4.355,1.134-6.612,1.756A8.046,8.046,0,0,1,1622.249,738.7Z"/><path class="cls-14" d="M1641.054,739.548c-.616.237-1.246.458-1.879.675a3.241,3.241,0,0,0-1,.059.686.686,0,0,1-.075-.228,4.836,4.836,0,0,0-.971-2.471l16.071,2.455a3.15,3.15,0,0,0-1.469,2.045c-.428.458-.866.9-1.322,1.326a7,7,0,0,0-6.916-3.936,11.381,11.381,0,0,0-1.6.2A.892.892,0,0,0,1641.054,739.548Z"/><g class="cls-2"><g class="cls-35"><g class="cls-2"><path class="cls-16" d="M1694.4,739.213c8.7-6.8,13.912-16.313,13.9-27.491a38.869,38.869,0,0,0-2.432-13.294l52.655-28.579a38.872,38.872,0,0,1,2.431,13.294c.013,13.683-7.8,24.88-20.253,31.639l-45.216,24.542C1695.124,739.3,1694.761,739.26,1694.4,739.213Z"/><path class="cls-17" d="M1705.872,698.427l52.655-28.578a46.675,46.675,0,0,0-2.73-6.072l-52.654,28.579a46.582,46.582,0,0,1,2.729,6.071"/><path class="cls-18" d="M1703.143,692.356l52.654-28.579a52.768,52.768,0,0,0-3.285-5.323l-52.654,28.579a53.133,53.133,0,0,1,3.285,5.323"/><path class="cls-19" d="M1699.858,687.033l52.654-28.579a59.791,59.791,0,0,0-4.122-5.225l-52.655,28.579a59.615,59.615,0,0,1,4.123,5.225"/><path class="cls-20" d="M1695.735,681.808l52.655-28.579a66.883,66.883,0,0,0-5.358-5.405L1690.377,676.4a66.719,66.719,0,0,1,5.358,5.4"/><path class="cls-13" d="M1690.377,676.4l52.655-28.579a74.414,74.414,0,0,0-7.422-5.867l-52.655,28.579a74.3,74.3,0,0,1,7.422,5.867"/><path class="cls-12" d="M1682.955,670.536l52.655-28.579a81.82,81.82,0,0,0-11.686-6.729l-52.654,28.579a81.714,81.714,0,0,1,11.685,6.729"/><path class="cls-11" d="M1671.27,663.807l52.654-28.579a86.689,86.689,0,0,0-24.787-7.406L1646.483,656.4a86.7,86.7,0,0,1,24.787,7.406"/></g></g></g></g><ellipse class="cls-21" cx="1642.305" cy="702.36" rx="7.23" ry="10.193" transform="translate(517.199 2089.664) rotate(-74.113)"/><ellipse class="cls-21" cx="1642.505" cy="701.699" rx="10.649" ry="15.013" transform="translate(517.98 2089.376) rotate(-74.113)"/><ellipse class="cls-21" cx="1643.065" cy="701.816" rx="3.512" ry="4.951" transform="translate(518.274 2090) rotate(-74.113)"/><ellipse class="cls-21" cx="1642.131" cy="702.971" rx="15.492" ry="21.842" transform="translate(516.485 2089.94) rotate(-74.113)"/><ellipse class="cls-21" cx="1643.358" cy="701.85" rx="20.243" ry="28.54" transform="translate(518.454 2090.307) rotate(-74.113)"/><ellipse class="cls-21" cx="1643.497" cy="701.361" rx="25.2" ry="35.529" transform="translate(519.026 2090.085) rotate(-74.113)"/><ellipse class="cls-21" cx="1646.661" cy="701.948" rx="29.951" ry="42.227" transform="translate(520.759 2093.554) rotate(-74.113)"/><ellipse class="cls-21" cx="1646.652" cy="701.978" rx="33.256" ry="46.887" transform="translate(520.724 2093.568) rotate(-74.113)"/><path class="cls-21" d="M1616.35,728.973c-16.507-10.983-25.413-27.52-20.982-42.362,5.957-19.956,33.753-29.277,62.084-20.82s46.47,31.491,40.512,51.447a29.134,29.134,0,0,1-11.142,15.208"/><path class="cls-21" d="M1609.569,729.223c-14.818-12.146-22.184-28.915-17.446-44.06,6.941-22.191,37.213-32.471,67.613-22.961s49.417,35.208,42.476,57.4a33.374,33.374,0,0,1-12.661,17.059"/><g class="cls-2"><g class="cls-2"><g class="cls-36"><g class="cls-2"><path class="cls-11" d="M969.4,363.656l-31.621-17.162a44.593,44.593,0,0,1,17.337.783l31.621,17.162a44.632,44.632,0,0,0-17.337-.783"/><path class="cls-12" d="M986.736,364.439l-31.621-17.162a33.811,33.811,0,0,1,6.462,2.365L993.2,366.8a33.947,33.947,0,0,0-6.462-2.365"/><path class="cls-13" d="M993.2,366.8l-31.621-17.162q.567.277,1.113.574l31.621,17.162q-.546-.3-1.113-.574"/></g></g></g><path class="cls-14" d="M973.788,414c-.38-.13-.758-.263-1.129-.405a.533.533,0,0,0-.5.077c.537.1,1.031.245,1.527.345C973.717,414.007,973.752,414,973.788,414Z"/><path class="cls-14" d="M966.263,415.164c.037.235.31,1.085.428,1.5.046-.095.115-.235.216-.466.043-.1.09-.191.137-.285-.275-.256-.537-.521-.794-.8C966.253,415.13,966.26,415.146,966.263,415.164Z"/><path class="cls-14" d="M992.112,408.186a2.336,2.336,0,0,1,2-1.153,6.574,6.574,0,0,1,1.775.38c6.539-5.966,10.58-13.428,10.587-21.034.014-15.449-16.585-25.622-37.075-22.723s-37.112,17.774-37.126,33.223a20.572,20.572,0,0,0,8.364,16.507c.157-.02.314-.038.468-.066,1.917-.35,3.024-1.95,4.04-3.48a2.34,2.34,0,0,1,3.62-.466,14.952,14.952,0,0,0,5.979,3.4,2.308,2.308,0,0,1,.66.335c1.914-.706,3.679.217,5.133,1.508l1.659-.253a1.953,1.953,0,0,0,.215-.221,2.293,2.293,0,0,1,2.956-.264l9.651-1.475a2.04,2.04,0,0,1,1.722-.82,12.907,12.907,0,0,1,2.014.25l5.812-.888.042-.165a4.532,4.532,0,0,1,5.3-3.423A6.921,6.921,0,0,1,992.112,408.186Z"/><path class="cls-14" d="M962.2,414.369l-1.429.218c.251.069.5.129.753.174A2.062,2.062,0,0,0,962.2,414.369Z"/><path class="cls-14" d="M983.953,413.081c.224-.626.408-1.324.613-2.13l-5.812.888c1.336.262,2.615.681,3.971,1.054A4.833,4.833,0,0,0,983.953,413.081Z"/><path class="cls-14" d="M972.659,413.59c.371.142.749.275,1.129.405a1.935,1.935,0,0,1,.6.036.413.413,0,0,0,.044-.137,2.914,2.914,0,0,1,.583-1.485l-9.651,1.475a1.894,1.894,0,0,1,.883,1.228c.257.275.519.54.794.8a4.2,4.2,0,0,1,4.153-2.363,6.737,6.737,0,0,1,.957.122A.533.533,0,0,1,972.659,413.59Z"/><g class="cls-2"><g class="cls-37"><g class="cls-2"><path class="cls-16" d="M940.622,413.389a20.588,20.588,0,0,1-8.349-16.51,23.345,23.345,0,0,1,1.461-7.984l-31.622-17.163a23.372,23.372,0,0,0-1.46,7.984c-.007,8.217,4.685,14.942,12.163,19l27.154,14.738C940.189,413.439,940.406,413.417,940.622,413.389Z"/><path class="cls-17" d="M933.734,388.9l-31.622-17.163a27.926,27.926,0,0,1,1.64-3.646l31.621,17.163a27.86,27.86,0,0,0-1.639,3.646"/><path class="cls-18" d="M935.373,385.249l-31.621-17.163a31.634,31.634,0,0,1,1.972-3.2l31.621,17.162a31.942,31.942,0,0,0-1.972,3.2"/><path class="cls-19" d="M937.345,382.052,905.724,364.89a35.816,35.816,0,0,1,2.476-3.138l31.621,17.163a35.8,35.8,0,0,0-2.476,3.137"/><path class="cls-20" d="M939.821,378.915,908.2,361.752a39.851,39.851,0,0,1,3.218-3.246l31.621,17.162a40.022,40.022,0,0,0-3.218,3.247"/><path class="cls-13" d="M943.039,375.668l-31.621-17.162a44.714,44.714,0,0,1,4.457-3.524L947.5,372.145a44.706,44.706,0,0,0-4.457,3.523"/><path class="cls-12" d="M947.5,372.145l-31.621-17.163a49.156,49.156,0,0,1,7.018-4.041L954.514,368.1a49.061,49.061,0,0,0-7.018,4.041"/><path class="cls-11" d="M954.514,368.1l-31.621-17.163a52.079,52.079,0,0,1,14.885-4.447L969.4,363.656a52.08,52.08,0,0,0-14.885,4.448"/></g></g></g></g><ellipse class="cls-21" cx="971.909" cy="391.257" rx="6.121" ry="4.342" transform="translate(-69.98 281.001) rotate(-15.887)"/><ellipse class="cls-21" cx="971.788" cy="390.86" rx="9.016" ry="6.395" transform="translate(-69.876 280.953) rotate(-15.887)"/><ellipse class="cls-21" cx="971.452" cy="390.93" rx="2.973" ry="2.109" transform="translate(-69.908 280.864) rotate(-15.887)"/><ellipse class="cls-21" cx="972.013" cy="391.624" rx="13.117" ry="9.304" transform="translate(-70.077 281.044) rotate(-15.887)"/><ellipse class="cls-21" cx="971.276" cy="390.951" rx="17.139" ry="12.157" transform="translate(-69.92 280.816) rotate(-15.887)"/><ellipse class="cls-21" cx="971.192" cy="390.657" rx="21.337" ry="15.134" transform="translate(-69.843 280.782) rotate(-15.887)"/><ellipse class="cls-21" cx="969.292" cy="391.009" rx="25.359" ry="17.987" transform="translate(-70.012 280.276) rotate(-15.887)"/><ellipse class="cls-21" cx="969.298" cy="391.028" rx="28.158" ry="19.972" transform="translate(-70.017 280.278) rotate(-15.887)"/><path class="cls-21" d="M987.5,407.239c9.912-6.6,15.261-16.527,12.6-25.44-3.577-11.984-20.27-17.582-37.284-12.5s-27.907,18.911-24.329,30.9a17.5,17.5,0,0,0,6.691,9.133"/><path class="cls-21" d="M991.568,407.389c8.9-7.294,13.322-17.364,10.477-26.46-4.169-13.326-22.348-19.5-40.6-13.789s-29.677,21.144-25.508,34.471a20.036,20.036,0,0,0,7.6,10.244"/><path class="cls-5" d="M1763.809,710.744c-14.4,3.8-35.069-17.525-46.028-7.394-2.1,1.985-3.506,1.256-3.6-2.987-.062-4.121-.083-7.984-.05-11.551.2-20.024,12.031-22.448,24.552-20.186h0c6.7,2.288,13.621,7.833,18.533,11.422,5.021,4.142,8.037,6.329,9.449,14.666.472,2.941.907,5.855,1.282,8.671C1768.352,706.241,1766.606,710.1,1763.809,710.744Z"/><path class="cls-6" d="M1762.28,708.134c-.155-2.866-9.833-4.887-23.07-12.651-13.286-7.856-21.342-2.637-21.176,3.371-.01,1.254.851,3.132,1.9,2.751.683-7.066,37.26,12.051,40.331,9.434C1761.908,710.977,1762.359,709.117,1762.28,708.134Z"/><path class="cls-7" d="M1761.734,706.4c-2.355,2.111-6.321,2.907-12.031,1.485"/><path class="cls-7" d="M1758.374,704.653c-2.164,2.253-5.643,3.186-10.408,2.642"/><path class="cls-7" d="M1753.987,702.846a11.522,11.522,0,0,1-7.863,3.579"/><path class="cls-7" d="M1749.352,700.629c-1.434,2.685-3.284,4.393-5.474,4.924"/><path class="cls-7" d="M1744.639,698.28c-.269,2.893-1.458,4.866-3.658,5.978"/><path class="cls-7" d="M1740.24,695.983c.6,3.339.206,5.688-.8,7.568"/><path class="cls-7" d="M1737.75,694.821a12.721,12.721,0,0,0-.42,7.835"/><path class="cls-7" d="M1734.489,693.28a13.915,13.915,0,0,0,.786,8.532"/><path class="cls-7" d="M1731.821,692.276a12.265,12.265,0,0,0,2.121,9.085"/><path class="cls-7" d="M1727.714,691.378a21.5,21.5,0,0,0,4.419,9.293"/><path class="cls-7" d="M1723.853,691.5a57.643,57.643,0,0,0,6.807,8.724"/><path class="cls-7" d="M1720.9,693.238c1.929,2.618,4.774,4.352,8.928,6.4"/><path class="cls-7" d="M1718.31,697.255c2.58,1.045,5.852,1.569,10.255,2.395"/><path class="cls-8" d="M1744.592,702.538a42.277,42.277,0,0,0-6.4-3.566,20.234,20.234,0,0,0-4.463-1.407c-3.045-.591-5.154,1.551-5.264,4.848-.409,10.855-.316,25-.181,40.789.13-.184.253-.359.369-.514,1.642-2.2,4.48-1.151,5.833.658,1.249-1.674,3.907-2.332,5.51-.737.08-.041.166-.058.249-.091a8.257,8.257,0,0,0,.881-1.838c.909-2.337,4.235-4.225,6.293-1.8a4.98,4.98,0,0,0,1.839,1.531c-.022-12.37.466-21.4.589-30.194C1749.875,707.657,1747.7,704.619,1744.592,702.538Z"/><path class="cls-7" d="M1762.416,708.156c-2.569,1.879-6.712,2.282-12.5.352"/><path class="cls-7" d="M1718.108,700.184a39.215,39.215,0,0,1,10.416.391"/></g></g></svg>
