<svg xmlns="http://www.w3.org/2000/svg" xmlns:xlink="http://www.w3.org/1999/xlink" width="1920" height="1080" viewBox="0 0 1920 1080"><defs><style>.cls-1,.cls-22,.cls-8{fill:none;}.cls-2{isolation:isolate;}.cls-3{fill:gray;stroke:#ff7bac;}.cls-22,.cls-3,.cls-8{stroke-miterlimit:10;}.cls-4{opacity:0.92;fill:url(#linear-gradient);}.cls-5{fill:url(#linear-gradient-2);}.cls-6{fill:#42210b;}.cls-7{fill:#bfb4a6;}.cls-22,.cls-8{stroke:#000;}.cls-9{fill:#e9e0d6;}.cls-10{fill:#395931;}.cls-11{clip-path:url(#clip-path);}.cls-12{fill:#836748;}.cls-13{fill:#7f6446;}.cls-14{fill:#7b6144;}.cls-15{fill:#ad885f;}.cls-16{clip-path:url(#clip-path-2);}.cls-17{fill:#675139;}.cls-18{fill:#6b543b;}.cls-19{fill:#6f573d;}.cls-20{fill:#735a3f;}.cls-21{fill:#775e41;}.cls-22{stroke-width:0.25px;}.cls-23{fill:#fffffd;}.cls-24{fill:#bf5c81;}.cls-25{opacity:0.89;mix-blend-mode:screen;}.cls-26{fill:#2e3192;opacity:0.85;}.cls-27{fill:#f0ecec;}.cls-28{fill:#d4145a;}.cls-29{clip-path:url(#clip-path-3);}.cls-30{clip-path:url(#clip-path-4);}.cls-31{clip-path:url(#clip-path-5);}.cls-32{clip-path:url(#clip-path-6);}.cls-33{fill:url(#linear-gradient-3);}</style><linearGradient id="linear-gradient" x1="961.002" y1="582.105" x2="961.002" y2="-1.771" gradientUnits="userSpaceOnUse"><stop offset="0" stop-color="#fff"/><stop offset="0" stop-color="#7a76a5"/><stop offset="0" stop-color="#e9e8f0"/><stop offset="0" stop-color="#dfdee9"/><stop offset="0" stop-color="#dcdbe7"/><stop offset="0" stop-color="#b8b6cf"/><stop offset="0.225" stop-color="#8a87b0"/><stop offset="0.874" stop-color="#1b1464"/></linearGradient><linearGradient id="linear-gradient-2" x1="1108.114" y1="188.282" x2="810.849" y2="1297.692" gradientUnits="userSpaceOnUse"><stop offset="0" stop-color="#fff"/><stop offset="0" stop-color="#7a76a5"/><stop offset="0" stop-color="#e9e8f0"/><stop offset="0" stop-color="#e7e7ee"/><stop offset="0" stop-color="#e1e2e7"/><stop offset="0" stop-color="#d6d9dc"/><stop offset="0" stop-color="#c7cccb"/><stop offset="0" stop-color="#b2bcb5"/><stop offset="0" stop-color="#99a799"/><stop offset="0" stop-color="#7b8f79"/><stop offset="0" stop-color="#5a7455"/><stop offset="0" stop-color="#395931"/><stop offset="0" stop-color="#3c5b34"/><stop offset="0" stop-color="#46623f"/><stop offset="0" stop-color="#566f50"/><stop offset="0" stop-color="#6d8069"/><stop offset="0" stop-color="#8b9588"/><stop offset="0" stop-color="#afb0af"/><stop offset="0" stop-color="#b3b3b3"/><stop offset="0.012" stop-color="#a8aba7"/><stop offset="0.05" stop-color="#8a9588"/><stop offset="0.093" stop-color="#71826c"/><stop offset="0.141" stop-color="#5c7356"/><stop offset="0.197" stop-color="#4c6745"/><stop offset="0.267" stop-color="#415f3a"/><stop offset="0.365" stop-color="#3b5a33"/><stop offset="0.636" stop-color="#395931"/><stop offset="0.825" stop-color="#395931"/></linearGradient><clipPath id="clip-path"><path class="cls-1" d="M519.527,479.712l-49.162,26.744c10.232-5.566,23.824-7.924,38.746-5.826l49.162-26.744C543.351,471.789,529.759,474.146,519.527,479.712Z"/></clipPath><clipPath id="clip-path-2"><path class="cls-1" d="M548.018,581.827l49.162-26.744c11.626-6.324,18.916-16.791,18.892-29.573-.045-24.031-25.922-47.144-57.8-51.624L509.111,500.63c31.877,4.48,57.754,27.592,57.8,51.623C566.933,565.035,559.644,575.5,548.018,581.827Z"/></clipPath><clipPath id="clip-path-3"><path class="cls-1" d="M1628.569,591.959l-59.346,32.211c12.352-6.7,28.753-9.533,46.754-6.985l59.346-32.211C1657.322,582.426,1640.921,585.255,1628.569,591.959Z"/></clipPath><clipPath id="clip-path-4"><path class="cls-1" d="M1662.827,715.2l59.346-32.211c14.034-7.617,22.841-20.238,22.827-35.66-.026-28.994-31.222-56.91-69.677-62.351l-59.346,32.211c38.455,5.441,69.651,33.357,69.677,62.351C1685.668,694.958,1676.861,707.578,1662.827,715.2Z"/></clipPath><clipPath id="clip-path-5"><path class="cls-1" d="M310.393,825.03l66.421,36.051c-13.824-7.5-32.18-10.669-52.328-7.818l-66.421-36.051C278.213,814.361,296.569,817.527,310.393,825.03Z"/></clipPath><clipPath id="clip-path-6"><path class="cls-1" d="M272.051,962.959,205.63,926.908c-15.708-8.525-25.564-22.651-25.548-39.911.029-32.451,34.944-63.695,77.983-69.785l66.421,36.051c-43.039,6.09-77.954,37.334-77.983,69.785C246.487,940.308,256.344,954.433,272.051,962.959Z"/></clipPath><linearGradient id="linear-gradient-3" x1="1632.659" y1="159.966" x2="1632.659" y2="29.994" gradientUnits="userSpaceOnUse"><stop offset="0" stop-color="#fff"/><stop offset="0" stop-color="#7a76a5"/><stop offset="0" stop-color="#e9e8f0"/><stop offset="0" stop-color="#edecf3" stop-opacity="0.825"/><stop offset="0" stop-color="#f1f0f5" stop-opacity="0.653"/><stop offset="0" stop-color="#f4f4f8" stop-opacity="0.496"/><stop offset="0" stop-color="#f7f7fa" stop-opacity="0.361"/><stop offset="0" stop-color="#faf9fb" stop-opacity="0.248"/><stop offset="0" stop-color="#fcfbfd" stop-opacity="0.156"/><stop offset="0" stop-color="#fdfdfe" stop-opacity="0.085"/><stop offset="0" stop-color="#fefefe" stop-opacity="0.036"/><stop offset="0" stop-color="#fff" stop-opacity="0.008"/><stop offset="0" stop-color="#fff" stop-opacity="0"/><stop offset="0.149" stop-color="#f7f7fa" stop-opacity="0.24"/><stop offset="0.31" stop-color="#f0f0f5" stop-opacity="0.469"/><stop offset="0.469" stop-color="#eae9f0" stop-opacity="0.659"/><stop offset="0.62" stop-color="#e5e4ed" stop-opacity="0.808"/><stop offset="0.763" stop-color="#e2e1eb" stop-opacity="0.914"/><stop offset="0.893" stop-color="#e0dfe9" stop-opacity="0.978"/><stop offset="1" stop-color="#dfdee9"/></linearGradient></defs><title>Startskærm_ny</title><g class="cls-2"><g id="Layer_2" data-name="Layer 2"><ellipse class="cls-3" cx="919.217" cy="1000.517" rx="140.47" ry="47.99"/><rect class="cls-4" y="-1.771" width="1922.005" height="583.876"/><path class="cls-5" d="M1887.61,433.169l30.4-.032c-186.417-81.392-505.429-192.572-914.806-199.958C547.338,224.955,193.705,349.3.184,433.924l-7.771.213q3,322.93,6,645.863H1919.005q2.5-321.931,5-643.864Z"/><path class="cls-6" d="M1831.683,861.267a112.284,112.284,0,0,1-88.393,3.052c-5.221-1.978-7.619-7.129-5.446-10.888q4.143-7.439,8.284-14.878a55.834,55.834,0,0,1,21.619-20.661c7.463-3.88,13.434-4.911,19.791-2.66q1.484.5,3,.92c6.4,1.826,13.284,6,20.856,10.18,7.381,4.374,15.452,8.749,19.838,15.5l6.446,10.126C1839.361,854.468,1836.734,858.9,1831.683,861.267Z"/><path class="cls-7" d="M1826.973,859.022c-2.166-4.133-19.725-.734-39.755-1.514-10.141-.181-19.368-.99-26.693-1.054-7.275-.06-12.648.624-13.939,3.512-.649,1.416.3,5.149,2.734,6.166a84.353,84.353,0,0,0,13.553,3.781,108.832,108.832,0,0,0,24.247,1.917,110.69,110.69,0,0,0,24.014-3.388,122.825,122.825,0,0,0,13.216-4.316C1827.382,862.892,1827.518,860.235,1826.973,859.022Z"/><path class="cls-8" d="M1825.264,857.08c-3.738,3.769-10.3,7.981-19.922,11.066"/><path class="cls-8" d="M1818.579,856.584c-3.016,4.28-8.333,8.685-16.2,12.226"/><path class="cls-8" d="M1810.827,856.942a33.892,33.892,0,0,1-11.633,12.177"/><path class="cls-8" d="M1803.181,857.253c-1.651,5.318-4.237,9.775-7.83,12.483"/><path class="cls-8" d="M1795.719,857.563a16.992,16.992,0,0,1-5.373,12.554"/><path class="cls-8" d="M1788.832,857.516c.973,4.95.538,9.024-1.16,12.676"/><path class="cls-8" d="M1791.812,863.035h0"/><path class="cls-8" d="M1784.918,857.519c-1.513,4.857-2.279,9.284-.956,12.75"/><path class="cls-8" d="M1779.73,857.146c-1.366,4.616-1.4,9.046.581,13.043"/><path class="cls-8" d="M1775.383,856.86c-1.422,5.03-.912,9.627,2.522,13.3"/><path class="cls-8" d="M1768.372,856.471a18.857,18.857,0,0,0,6.238,13.348"/><path class="cls-8" d="M1761.227,856.046a37.011,37.011,0,0,0,10.65,13.489"/><path class="cls-8" d="M1754.9,856.594c2.608,5.367,7.867,9.753,15.5,12.221"/><path class="cls-8" d="M1747.919,858.532a32.032,32.032,0,0,0,20,10.376"/><path class="cls-9" d="M1797.547,926.49a173.015,173.015,0,0,1-25.3,3.227c-9.559.536-16.54-3.817-15.435-8.55q5.139-24.187,10.279-48.376c1.014-4.506,5.573-7.733,10.837-8.358,2.293-.274,4.827-.468,7.587-.521a87.182,87.182,0,0,1,10.616.464c5.158.561,9.369,3.276,10.053,7.22q3.425,21.49,6.85,42.98C1813.79,918.723,1806.918,924.578,1797.547,926.49Z"/><path class="cls-8" d="M1827.247,858.979c-4.293,3.668-11.443,7.551-21.391,9.93"/><path class="cls-8" d="M1746.1,861.627a44.5,44.5,0,0,0,21.529,8.6"/><path class="cls-10" d="M1846.021,950.045H1742.86V915.993c1.659,0,4.524-4.779,4.977,0s8.285-6.571,8.441,0,9.616-5.376,13.709,0,6.026-5.376,10.037,0,7.63-10.155,14.416,0,7.692-10.155,7.466,0,4.1-4.181,8.5,0,11.324,0,11.324,0h24.294Z"/><path class="cls-6" d="M182.159,342.341a46.613,46.613,0,0,1-34.2,13.368c-2.317-.055-3.966-1.742-3.632-3.514q.6-3.483,1.195-6.967a23.185,23.185,0,0,1,5.621-11.069c2.389-2.547,4.585-3.773,7.385-3.767q.649-.007,1.3-.053c2.759-.166,6.029.522,9.57,1.115,3.493.7,7.256,1.3,9.9,3.336l3.919,3.078C184.229,338.621,183.812,340.72,182.159,342.341Z"/><path class="cls-7" d="M180.005,342.11c-1.418-1.32-7.826,2.429-15.778,4.882-4,1.326-7.721,2.28-10.6,3.264-2.858.978-4.868,1.986-4.976,3.294a2.327,2.327,0,0,0,1.92,2.039,35.073,35.073,0,0,0,5.829-.386,45.173,45.173,0,0,0,9.759-2.588,46.005,46.005,0,0,0,8.939-4.634,51.1,51.1,0,0,0,4.581-3.51A1.638,1.638,0,0,0,180.005,342.11Z"/><path class="cls-8" d="M179.068,341.585a20.569,20.569,0,0,1-6.277,7.078"/><path class="cls-8" d="M176.382,342.311a16.242,16.242,0,0,1-4.662,7.02"/><path class="cls-8" d="M173.4,343.519a14.065,14.065,0,0,1-2.88,6.371"/><path class="cls-8" d="M170.444,344.694a10.111,10.111,0,0,1-1.347,5.967"/><path class="cls-8" d="M167.564,345.843a7.053,7.053,0,0,1-.375,5.657"/><path class="cls-8" d="M164.861,346.773a8.256,8.256,0,0,1,1.291,5.124"/><path class="cls-8" d="M166.788,348.524h0"/><path class="cls-8" d="M163.328,347.314c.077,2.11.386,3.949,1.382,5.124"/><path class="cls-8" d="M161.245,347.882a7.251,7.251,0,0,0,2.024,5.028"/><path class="cls-8" d="M159.5,348.369a5.435,5.435,0,0,0,2.82,4.86"/><path class="cls-8" d="M156.7,349.182a7.83,7.83,0,0,0,4.281,4.368"/><path class="cls-8" d="M153.847,350a15.368,15.368,0,0,0,6.029,3.816"/><path class="cls-8" d="M151.444,351.086a10.366,10.366,0,0,0,7.751,2.652"/><path class="cls-8" d="M148.978,352.805a13.3,13.3,0,0,0,9.261,1.31"/><path class="cls-9" d="M177.772,372.585a71.874,71.874,0,0,1-9.463,4.748c-3.67,1.526-7,.783-7.222-1.223l-2.637-20.361c-.223-1.9,1.118-3.8,3.093-4.765a31.377,31.377,0,0,1,2.9-1.249,36.261,36.261,0,0,1,4.221-1.281c2.1-.49,4.121-.007,4.931,1.444q4.3,7.944,8.6,15.888C183.064,367.307,181.179,370.546,177.772,372.585Z"/><path class="cls-8" d="M180.107,342.056a21.508,21.508,0,0,1-7.01,6.834"/><path class="cls-8" d="M148.691,354.268a18.473,18.473,0,0,0,9.615.4"/><path class="cls-10" d="M200,375.134l-40.4,14.207-4.689-13.335c.65-.229,1.114-2.495,1.949-.686s2.34-3.714,3.306-1.162,3.025-3.43,5.369-1.888,1.619-2.936,3.93-1.382,1.59-5.028,5.646-1.986,1.614-5.036,2.924-1.028,1.029-2.2,3.328-1.17,4.434-1.56,4.434-1.56l9.515-3.345Z"/><path class="cls-6" d="M154.856,630.02a91.72,91.72,0,0,1-72.234,1.273c-4.237-1.688-6.125-5.928-4.3-8.969q3.484-6.018,6.971-12.036a45.591,45.591,0,0,1,17.941-16.575c6.148-3.067,11.04-3.826,16.2-1.9q1.206.432,2.435.793c5.2,1.579,10.767,5.085,16.893,8.6,5.968,3.674,12.5,7.358,15.988,12.928l5.125,8.36C161.22,624.573,159.014,628.16,154.856,630.02Z"/><path class="cls-7" d="M151.04,628.121c-1.712-3.4-16.1-.872-32.448-1.785-8.279-.288-15.8-1.076-21.786-1.229-5.941-.15-10.338.335-11.432,2.675a4.577,4.577,0,0,0,2.147,5.074,68.783,68.783,0,0,0,11.018,3.275,88.876,88.876,0,0,0,19.776,1.9,90.4,90.4,0,0,0,19.659-2.435,100.784,100.784,0,0,0,10.853-3.342A3.221,3.221,0,0,0,151.04,628.121Z"/><path class="cls-8" d="M149.671,626.511c-3.1,3.027-8.526,6.377-16.423,8.763"/><path class="cls-8" d="M144.218,626.014c-2.523,3.454-6.926,6.978-13.4,9.761"/><path class="cls-8" d="M137.882,626.2a27.679,27.679,0,0,1-9.669,9.785"/><path class="cls-8" d="M131.633,626.348c-1.421,4.32-3.595,7.925-6.567,10.087"/><path class="cls-8" d="M125.534,626.5a13.879,13.879,0,0,1-4.561,10.179"/><path class="cls-8" d="M119.911,626.365a16.249,16.249,0,0,1-1.123,10.336"/><path class="cls-8" d="M122.268,630.914h0"/><path class="cls-8" d="M116.713,626.313c-1.3,3.946-1.989,7.551-.956,10.4"/><path class="cls-8" d="M112.482,625.937c-1.18,3.751-1.271,7.368.294,10.66"/><path class="cls-8" d="M108.935,625.644c-1.23,4.088-.877,7.849,1.877,10.895"/><path class="cls-8" d="M103.215,625.229a15.4,15.4,0,0,0,4.91,10.987"/><path class="cls-8" d="M97.385,624.783a30.237,30.237,0,0,0,8.512,11.164"/><path class="cls-8" d="M92.207,625.143c2.056,4.419,6.29,8.075,12.487,10.195"/><path class="cls-8" d="M86.482,626.63a26.163,26.163,0,0,0,16.19,8.75"/><path class="cls-9" d="M126.076,682.817A141.225,141.225,0,0,1,105.37,685.1c-7.814.306-13.456-3.346-12.489-7.195l9.063-39.368c.891-3.667,4.658-6.239,8.966-6.676a61.978,61.978,0,0,1,6.2-.321,71.32,71.32,0,0,1,8.663.525c4.2.529,7.608,2.805,8.111,6.036l5,35.2C139.449,676.7,133.756,681.385,126.076,682.817Z"/><path class="cls-8" d="M151.265,628.09c-3.557,2.936-9.451,6.009-17.608,7.814"/><path class="cls-8" d="M84.952,629.132a36.35,36.35,0,0,0,17.464,7.319"/><path class="cls-10" d="M165.34,702.724,81.087,701.3l.47-27.811c1.355.023,3.762-3.84,4.065.069s6.857-5.252,6.894.117,7.927-4.259,11.2.189,5-4.308,8.2.138,6.372-8.189,11.775.2,6.422-8.188,6.1.1,3.405-3.358,6.939.118,9.249.156,9.249.156l19.841.335Z"/><path class="cls-6" d="M1881.57,406.845c-11.8-.2-22.968-20.912-33.506-15.546-2.029,1.061-2.943.2-2.1-3.053.84-3.155,1.656-6.1,2.448-8.818,4.468-15.224,14.007-14.527,23.068-10.107h0c4.619,3.188,8.7,8.9,11.672,12.7,2.937,4.239,4.766,6.556,4.048,13.217-.273,2.344-.569,4.66-.889,6.888C1886,404.39,1883.841,406.958,1881.57,406.845Z"/><path class="cls-7" d="M1880.966,404.526c.5-2.219-6.446-5.843-14.868-14.613-8.44-8.85-15.706-6.605-16.872-1.988-.278.954-.026,2.571.853,2.506,2.041-5.241,25.817,17.21,28.722,15.876C1880.07,406.614,1880.814,405.292,1880.966,404.526Z"/><path class="cls-8" d="M1880.922,403.086c-2.25,1.1-5.445.856-9.493-1.457"/><path class="cls-8" d="M1878.737,401.031c-2.136,1.252-4.989,1.214-8.505-.226"/><path class="cls-8" d="M1875.78,398.709a9.128,9.128,0,0,1-6.765,1.036"/><path class="cls-8" d="M1872.723,396.02c-1.671,1.739-3.45,2.643-5.233,2.577"/><path class="cls-8" d="M1869.636,393.214a5.407,5.407,0,0,1-4.077,3.771"/><path class="cls-8" d="M1866.776,390.516a8.9,8.9,0,0,1-2.237,5.6"/><path class="cls-8" d="M1865.127,389.094a10.074,10.074,0,0,0-2.007,5.884"/><path class="cls-8" d="M1862.972,387.217a11.027,11.027,0,0,0-1.237,6.675"/><path class="cls-8" d="M1861.154,385.877a9.714,9.714,0,0,0-.338,7.384"/><path class="cls-8" d="M1858.215,384.308a17.037,17.037,0,0,0,1.37,8.037"/><path class="cls-8" d="M1855.246,383.568a45.62,45.62,0,0,0,3.312,8.118"/><path class="cls-8" d="M1852.622,384.26c.908,2.412,2.7,4.347,5.431,6.8"/><path class="cls-8" d="M1849.78,386.765a46.077,46.077,0,0,0,7.3,4.034"/><path class="cls-9" d="M1868.683,396.452a33.587,33.587,0,0,0-4.113-4.1,16.083,16.083,0,0,0-3.1-2.034c-2.194-1.106-4.264.074-5.057,2.564-2.649,8.189-5.622,18.993-8.918,31.063.138-.112.27-.219.391-.312,1.726-1.325,3.664.086,4.307,1.757a2.97,2.97,0,0,1,4.359.624c.071-.014.14-.008.21-.015a6.629,6.629,0,0,0,1.068-1.212c1.2-1.587,4.138-2.31,5.186-.019a3.958,3.958,0,0,0,1.073,1.563c2.646-9.437,4.962-16.219,6.948-22.9C1871.609,401.492,1870.6,398.707,1868.683,396.452Z"/><path class="cls-8" d="M1881.065,404.572c-2.363.879-5.609.3-9.605-2.421"/><path class="cls-8" d="M1849,388.955a31.086,31.086,0,0,1,7.858,2.54"/><path class="cls-6" d="M1026.114,383.048c-11.537,2.488-27.127-15.134-36.166-7.51-1.735,1.5-2.82.868-2.741-2.494.1-3.264.222-6.322.377-9.144.883-15.842,10.331-17.335,20.16-15.093h0c5.224,2.052,10.5,6.69,14.257,9.708,3.825,3.459,6.133,5.3,6.951,11.948.268,2.345.507,4.667.7,6.909C1029.871,379.648,1028.35,382.641,1026.114,383.048Z"/><path class="cls-7" d="M1025,380.927c-.019-2.274-7.607-4.222-17.8-10.844-10.233-6.7-16.8-2.856-16.882,1.9-.053.993.56,2.51,1.4,2.246.795-5.568,29.058,10.881,31.582,8.92C1024.6,383.164,1025.024,381.708,1025,380.927Z"/><path class="cls-8" d="M1024.627,379.535c-1.94,1.586-5.107,2.073-9.576.742"/><path class="cls-8" d="M1022.031,378.032c-1.794,1.705-4.582,2.318-8.333,1.716"/><path class="cls-8" d="M1018.623,376.443a9.125,9.125,0,0,1-6.352,2.55"/><path class="cls-8" d="M1015.034,374.521c-1.231,2.074-2.757,3.36-4.509,3.7"/><path class="cls-8" d="M1011.389,372.492a5.4,5.4,0,0,1-3.111,4.6"/><path class="cls-8" d="M1007.99,370.516a8.892,8.892,0,0,1-.9,5.962"/><path class="cls-8" d="M1006.061,369.506a10.084,10.084,0,0,0-.615,6.187"/><path class="cls-8" d="M1003.536,368.169a11.022,11.022,0,0,0,.314,6.782"/><path class="cls-8" d="M1001.46,367.279a9.715,9.715,0,0,0,1.351,7.267"/><path class="cls-8" d="M998.241,366.42a17.03,17.03,0,0,0,3.163,7.514"/><path class="cls-8" d="M995.181,366.376a45.71,45.71,0,0,0,5.074,7.15"/><path class="cls-8" d="M992.784,367.647c1.433,2.141,3.622,3.617,6.837,5.388"/><path class="cls-8" d="M990.587,370.733a46.088,46.088,0,0,0,8.03,2.265"/><path class="cls-9" d="M1011.2,375.861a33.587,33.587,0,0,0-4.938-3.053,16.1,16.1,0,0,0-3.483-1.275c-2.388-.577-4.135,1.043-4.341,3.648-.714,8.577-1.15,19.775-1.612,32.278.11-.141.214-.275.311-.393,1.378-1.683,3.587-.75,4.593.73a2.97,2.97,0,0,1,4.387-.384c.066-.03.135-.04.2-.063a6.561,6.561,0,0,0,.764-1.424c.8-1.817,3.5-3.191,5.045-1.2a3.957,3.957,0,0,0,1.4,1.278c.428-9.792,1.14-16.923,1.553-23.877C1015.2,380.1,1013.582,377.62,1011.2,375.861Z"/><path class="cls-8" d="M1025.1,380.95c-2.1,1.394-5.4,1.564-9.9-.172"/><path class="cls-8" d="M990.321,373.044a31.085,31.085,0,0,1,8.23.684"/><g class="cls-2"><g class="cls-2"><g class="cls-11"><g class="cls-2"><path class="cls-12" d="M509.111,500.63l49.162-26.744a69.414,69.414,0,0,0-26.966,1.243l-49.162,26.744a69.4,69.4,0,0,1,26.966-1.243"/><path class="cls-13" d="M482.145,501.873l49.162-26.744a52.814,52.814,0,0,0-10.05,3.689L472.1,505.561a52.813,52.813,0,0,1,10.05-3.688"/><path class="cls-14" d="M472.1,505.561l49.162-26.743q-.88.432-1.73.894l-49.162,26.744q.851-.462,1.73-.9"/></g></g></g><ellipse class="cls-15" cx="509.191" cy="544.142" rx="42.575" ry="58.974" transform="translate(-161.493 869.023) rotate(-72.746)"/><g class="cls-2"><g class="cls-16"><g class="cls-2"><path class="cls-17" d="M548.018,581.827l49.162-26.744c11.626-6.324,18.916-16.791,18.892-29.573a36.319,36.319,0,0,0-2.283-12.417l-49.162,26.744a36.318,36.318,0,0,1,2.283,12.416c.023,12.782-7.266,23.25-18.892,29.574"/><path class="cls-18" d="M564.627,539.837l49.162-26.744a43.459,43.459,0,0,0-2.556-5.669l-49.162,26.743a43.532,43.532,0,0,1,2.556,5.67"/><path class="cls-19" d="M562.071,534.167l49.162-26.743a49.255,49.255,0,0,0-3.073-4.97L559,529.2a49.353,49.353,0,0,1,3.073,4.969"/><path class="cls-20" d="M559,529.2l49.162-26.744a55.715,55.715,0,0,0-3.855-4.877l-49.163,26.744A55.393,55.393,0,0,1,559,529.2"/><path class="cls-21" d="M555.142,524.321,604.3,497.577a62.528,62.528,0,0,0-5.01-5.045l-49.163,26.744a62.04,62.04,0,0,1,5.01,5.045"/><path class="cls-14" d="M550.132,519.276l49.163-26.744a69.353,69.353,0,0,0-6.939-5.474L543.194,513.8a69.225,69.225,0,0,1,6.938,5.474"/><path class="cls-13" d="M543.194,513.8l49.162-26.744a76.382,76.382,0,0,0-10.922-6.275l-49.162,26.744a76.287,76.287,0,0,1,10.922,6.275"/><path class="cls-12" d="M532.272,507.527l49.162-26.744a80.962,80.962,0,0,0-23.161-6.9L509.111,500.63a80.971,80.971,0,0,1,23.161,6.9"/></g></g></g></g><ellipse class="cls-22" cx="505.248" cy="543.566" rx="6.754" ry="9.522" transform="translate(-155.545 881.342) rotate(-74.167)"/><ellipse class="cls-22" cx="504.893" cy="543.821" rx="8.49" ry="11.97" transform="translate(-156.048 881.185) rotate(-74.167)"/><ellipse class="cls-22" cx="505.958" cy="543.058" rx="3.28" ry="4.625" transform="translate(-154.54 881.655) rotate(-74.167)"/><ellipse class="cls-22" cx="505.086" cy="544.138" rx="14.472" ry="20.404" transform="translate(-156.213 881.601) rotate(-74.167)"/><ellipse class="cls-22" cx="506.232" cy="543.089" rx="18.91" ry="26.661" transform="translate(-154.371 881.941) rotate(-74.167)"/><ellipse class="cls-22" cx="506.361" cy="542.632" rx="23.541" ry="33.19" transform="translate(-153.837 881.734) rotate(-74.167)"/><ellipse class="cls-22" cx="509.317" cy="543.178" rx="27.979" ry="39.447" transform="translate(-152.212 884.974) rotate(-74.167)"/><ellipse class="cls-22" cx="509.309" cy="543.206" rx="31.067" ry="43.8" transform="translate(-152.246 884.987) rotate(-74.167)"/><ellipse class="cls-22" cx="508.66" cy="543.888" rx="34.519" ry="49.007" transform="translate(-153.374 884.859) rotate(-74.167)"/><ellipse class="cls-22" cx="508.434" cy="543.947" rx="38.841" ry="53.211" transform="translate(-153.595 884.683) rotate(-74.167)"/><path class="cls-10" d="M615.808,604.1H451.886V563.12c2.636,0,7.19-5.752,7.909,0s13.164-7.908,13.412,0,15.28-6.471,21.783,0,9.577-6.471,15.949,0,12.124-12.222,22.908,0,12.223-12.222,11.863,0,6.512-5.033,13.5,0,17.994,0,17.994,0h38.6Z"/><path class="cls-10" d="M1643.064,1015.014h-411.7V969.243c6.621,0,18.057-6.424,19.863,0s33.063-8.833,33.686,0,38.375-7.227,54.71,0,24.051-7.227,40.056,0,30.45-13.651,57.535,0,30.7-13.651,29.794,0,16.356-5.621,33.909,0,45.192,0,45.192,0h96.955Z"/><rect class="cls-1" x="1575.829" y="113.183" width="7" height="7"/><circle class="cls-23" cx="1579.329" cy="116.683" r="3.5"/><rect class="cls-1" x="1544.978" y="58.05" width="7" height="7"/><circle class="cls-23" cx="1548.478" cy="61.55" r="3.5"/><rect class="cls-1" x="1515.682" y="-0.065" width="7" height="7"/><circle class="cls-23" cx="1519.182" cy="3.435" r="3.5"/><rect class="cls-1" x="1453.2" y="49.12" width="7" height="7"/><circle class="cls-23" cx="1456.7" cy="52.62" r="3.5"/><rect class="cls-1" x="1421.713" y="34.023" width="7" height="7"/><circle class="cls-23" cx="1425.213" cy="37.523" r="3.5"/><rect class="cls-1" x="1372.36" y="148.749" width="7" height="7"/><circle class="cls-23" cx="1375.86" cy="152.249" r="3.5"/><rect class="cls-1" x="1311.444" y="76.001" width="7" height="7"/><circle class="cls-23" cx="1314.944" cy="79.501" r="3.5"/><rect class="cls-1" x="1278.277" y="12.1" width="7" height="7"/><circle class="cls-23" cx="1281.777" cy="15.6" r="3.5"/><rect class="cls-1" x="1252.957" y="88.304" width="7" height="7"/><circle class="cls-23" cx="1256.457" cy="91.804" r="3.5"/><rect class="cls-1" x="1205.519" y="97.418" width="7" height="7"/><circle class="cls-23" cx="1209.019" cy="100.918" r="3.5"/><rect class="cls-1" x="1159.491" y="29.116" width="7" height="7"/><circle class="cls-23" cx="1162.991" cy="32.616" r="3.5"/><rect class="cls-1" x="1127.54" y="68.742" width="7" height="7"/><circle class="cls-23" cx="1131.04" cy="72.242" r="3.5"/><rect class="cls-1" x="1061.804" y="88.726" width="7" height="7"/><circle class="cls-23" cx="1065.304" cy="92.226" r="3.5"/><rect class="cls-1" x="917.224" y="103.509" width="7" height="7"/><circle class="cls-23" cx="920.724" cy="107.009" r="3.5"/><rect class="cls-1" x="833.165" y="93.137" width="7" height="7"/><circle class="cls-23" cx="836.665" cy="96.637" r="3.5"/><rect class="cls-1" x="778.717" y="93.133" width="7" height="7"/><circle class="cls-23" cx="782.217" cy="96.633" r="3.5"/><rect class="cls-1" x="735.945" y="120.248" width="7" height="7"/><circle class="cls-23" cx="739.445" cy="123.748" r="3.5"/><rect class="cls-1" x="580.832" y="106.674" width="7" height="7"/><circle class="cls-23" cx="584.332" cy="110.174" r="3.5"/><rect class="cls-1" x="540.962" y="127.272" width="7" height="7"/><circle class="cls-23" cx="544.462" cy="130.772" r="3.5"/><rect class="cls-1" x="452.55" y="-4.784" width="7" height="7"/><circle class="cls-23" cx="456.05" cy="-1.284" r="3.5"/><rect class="cls-1" x="489.571" y="179.559" width="7" height="7"/><circle class="cls-23" cx="493.071" cy="183.059" r="3.5"/><rect class="cls-1" x="416.882" y="196.616" width="7" height="7"/><circle class="cls-23" cx="420.382" cy="200.116" r="3.5"/><rect class="cls-1" x="386.638" y="150.587" width="7" height="7"/><circle class="cls-23" cx="390.138" cy="154.087" r="3.5"/><rect class="cls-1" x="341.577" y="1.581" width="7" height="7"/><circle class="cls-23" cx="345.077" cy="5.081" r="3.5"/><rect class="cls-1" x="301.014" y="79.914" width="7" height="7"/><circle class="cls-23" cx="304.514" cy="83.414" r="3.5"/><rect class="cls-1" x="268.224" y="39.605" width="7" height="7"/><circle class="cls-23" cx="271.724" cy="43.105" r="3.5"/><rect class="cls-1" x="202.313" y="152.325" width="7" height="7"/><circle class="cls-23" cx="205.813" cy="155.825" r="3.5"/><rect class="cls-1" x="226.729" y="72.438" width="7" height="7"/><circle class="cls-23" cx="230.229" cy="75.938" r="3.5"/><path class="cls-24" d="M332.19,334.234l-1.048-6.356-3.075-11.461q-16.721,3.565-25.85,2.105t-14.472-5.939a26.251,26.251,0,0,1-5.535-6.3,11.543,11.543,0,0,0-5.757-4.927l.574-1.534a10.94,10.94,0,0,0,6.47.235q3.217-.864,8.178-2.457t11.183-3.625q6.222-2.03,8.887-2.877a10.773,10.773,0,0,0,3.779-1.836,3.879,3.879,0,0,0,1.2-2.853l3,.179a3.878,3.878,0,0,0,.162,1.337q.543,2.022,4.6,3.693t12.889-.7q5.944-1.594,7.916-4.292a2.885,2.885,0,0,0,.511-2.5q-.805-3-4.378-3.1a62.206,62.206,0,0,0-8.452.461q-4.878.553-9.682,1.382t-10.473,1.5q-5.67.669-10.767,1.016a53.685,53.685,0,0,1-10.157-.264,34.479,34.479,0,0,1-8.974-2.224,19.117,19.117,0,0,1-6.952-4.969,19.841,19.841,0,0,1-4.368-8.323,26.221,26.221,0,0,1-.871-9.491,22.506,22.506,0,0,1,2.368-8.192,29.421,29.421,0,0,1,5.13-6.961,43.387,43.387,0,0,1,7.043-5.832,64.136,64.136,0,0,1,8.555-4.727,93.339,93.339,0,0,1,15.877-5.969q7.662-2.055,11.735-2.918t9.653-1.736a56.207,56.207,0,0,1,10.317-.732,65,65,0,0,1,9.569,1.014,24.867,24.867,0,0,1,16.036,9.562,22.736,22.736,0,0,0,5.608,4.737l-.419,1.624a10.571,10.571,0,0,0-6.422-.182l-.8.214q-4.856,1.5-13.817,4.463t-11.534,3.784A9.64,9.64,0,0,0,336.1,250a3.718,3.718,0,0,0-1,2.765l-2.895-.012a3.806,3.806,0,0,0-.128-1.214q-.691-2.574-5.361-3.325a23.63,23.63,0,0,0-9.941.663q-10.3,2.763-9.212,6.809.971,3.617,16.861,1.126,3.73-.54,8.444-1.345,16.442-2.639,25.685-2.227,19.412.839,23.671,16.712a25.8,25.8,0,0,1,.436,12.4,25.384,25.384,0,0,1-4.757,10.311,40.583,40.583,0,0,1-8.758,8.132,72.972,72.972,0,0,1-23.176,10.358q-3.676.987-4.368,1.106-3.31.89-1.945,5.976l.395,1.471a22.231,22.231,0,0,0,2.135,4.651,22.174,22.174,0,0,1,2.118,4.59q.871,3.247-1.4,3.857a2.118,2.118,0,0,1-2.071-.5,4.529,4.529,0,0,1-1.3-2.279,28.341,28.341,0,0,1-.574-5.2,28.358,28.358,0,0,0-.607-5.324q-.428-1.594-.631-2.229a15.65,15.65,0,0,0-.611-1.544,2.924,2.924,0,0,0-.891-1.239,3.638,3.638,0,0,0-3.239-.314q-3.8,1.018-2.024,7.639l3.065,9.954q1.086,4.046-.079,4.358T332.19,334.234Z"/><path class="cls-24" d="M489.513,260.427l1.519,8.113q1.482,6.757,4.807,8.886l-1.029,1.526a8.462,8.462,0,0,0-6.729-1.058l-18.039,3.956q.251.853.564,2.279.762,3.471-.974,3.852t-2.592-3.524q-.258-1.179-.346-1.874L411.213,294.75q-1.488.327-1.4,5.927a46.692,46.692,0,0,0,.8,8.823,80.315,80.315,0,0,0,4.023,11.235,81.127,81.127,0,0,1,4.343,12.692q1.026,4.68-2.631,5.482-3.967.87-5.028-3.965a76.713,76.713,0,0,1-1.269-13.788,75.992,75.992,0,0,0-1.161-13.292L389.185,218.3a8.482,8.482,0,0,0-3.839-5.655l1.016-1.587a8.748,8.748,0,0,0,6.743,1.12l22.193-4.867a8.478,8.478,0,0,0,5.655-3.839l1.587,1.016a8.478,8.478,0,0,0-1.12,6.743l11.215,51.142a8.509,8.509,0,0,1-1.072,6.667l1.588,1.017q2.467-3.857,13.13-6.194l29.71-4.955q10.6-2.325,13.068-6.18l1.574.954A8.478,8.478,0,0,0,489.513,260.427Zm-13,48.851q.558,2.541-1.55,3t-2.774-2.575a27.025,27.025,0,0,1-.411-6.765q.173-4.1.167-4.422.26.593,1.177,2.406t1.4,2.812A25.757,25.757,0,0,1,476.511,309.278Z"/><path class="cls-24" d="M541.717,257.368l-2.336-7.583-.119-.688a4.039,4.039,0,0,1,3.166-2.928l51.046-8.729a8.384,8.384,0,0,0,5.771-3.506l1.466,1.035q-2.393,7.047.517,23.932a83.886,83.886,0,0,0,2.907,9.964,84.8,84.8,0,0,1,2.881,9.807,6.657,6.657,0,0,1-.183,3.8,2.367,2.367,0,0,1-1.734,1.522,2.412,2.412,0,0,1-2.2-.974,6.765,6.765,0,0,1-1.469-3.482l-1.381-13.994q-.948-5.5-3.366-7.953a6.175,6.175,0,0,0-5.733-1.878q-7.443,1.283-5.514,12.477a89.036,89.036,0,0,0,3.437,12.288,96.415,96.415,0,0,1,3.049,10.036,4.79,4.79,0,0,1-.394,3.32,2.829,2.829,0,0,1-1.969,1.466,2.792,2.792,0,0,1-2.3-.666,4.119,4.119,0,0,1-1.386-2.627l-2.312-20.145q-1.886-10.945-6.576-10.136l-4.732.943L523.1,271.137q-5.568.959-7.827,3.538-2.571,3.018-.567,14.651a98.918,98.918,0,0,0,3.825,13.606,98.867,98.867,0,0,1,3.814,13.542q1.152,6.692-3.6,7.511-5.129.884-6.313-6a70.562,70.562,0,0,1-.328-14.24,70.634,70.634,0,0,0-.339-14.3l-3.922-20.9-12.562-72.924a8.369,8.369,0,0,0-3.443-5.782l1.024-1.529a8.864,8.864,0,0,0,6.675,1.362l80.3-13.834a8.591,8.591,0,0,0,5.834-3.516l1.477,1.1q-2.279,3.228-.9,11.232l.485,2.814q1.216,7.068,4.421,9.22l-1.046,1.4q-3.676-2.65-15.247-.658l-30.835,6.793q-11.508,1.983-15.184-.668l-1.1,1.477a9.453,9.453,0,0,1,2.165,12.57l1.518.963q2.465-3.644,12.1-5.3l26.453-3.076q9.694-1.669,12.282-5.336l1.529,1.025q-2.278,3.228-.769,11.982l.42,2.439q1.154,6.693,4.379,8.97l-1.087,1.54q-3.542-2.61-13.235-.94l-25.968,5.89q-9.633,1.659-13.3-.929l-1.036,1.466q3.09,2.237,4.243,8.929l.715,4.9.23,7.688q.389,2.252,2.045,1.967T541.717,257.368Z"/><path class="cls-24" d="M606.985,188.126l-.7-8.1q-.871-6.925-3.911-9.231l1.1-1.417a8.642,8.642,0,0,0,6.542,1.671l82.676-10.4a8.6,8.6,0,0,0,5.988-3.248l1.418,1.1a8.577,8.577,0,0,0-1.6,6.6l.7,8.1q.855,6.8,3.9,9.167l-1.093,1.481q-3.2-2.539-9.557-1.74l-13.805,2.632q-6.612.831-9.873-1.7l-1.164,1.426a8.458,8.458,0,0,1,3.248,5.988l6.574,52.262q.823,6.549,3.62,19.373t3.311,16.918q.9,7.178-1.679,7.5t-3.223-4.776q-.642-5.1-.889-13.928t-.8-13.235q-.864-6.864-3.572-6.523a2.33,2.33,0,0,0-1.88,1.835,7.161,7.161,0,0,0-.367,3.181l3.1,12.977q.57,4.535-2.012,4.859a2.073,2.073,0,0,1-2.118-1.077,7.155,7.155,0,0,1-1.018-3.006,24.5,24.5,0,0,1,.409-5.9,25.24,25.24,0,0,0,.313-6.66,4.267,4.267,0,0,0-2.655-3.567,10.458,10.458,0,0,0-5.644-.634,19.837,19.837,0,0,0-6.7,2.186,16.857,16.857,0,0,0-5.746,4.912q-2.356,3.142-2.011,5.882a32.347,32.347,0,0,0,1.686,6.536,31.923,31.923,0,0,1,1.67,6.41q.329,2.613-2,2.906-2.645.333-3-2.469a32.419,32.419,0,0,1,.117-7.21,31.3,31.3,0,0,0,.2-6.55l-2.059-16.371q-4.215-34.521-6.377-51.712a8.448,8.448,0,0,1,1.6-6.6l-1.418-1.1q-2.414,3.182-8.837,3.989l-13.64.885q-6.486.815-9.018,4.076l-1.426-1.164A8.5,8.5,0,0,0,606.985,188.126Zm66.751,92.346a57.968,57.968,0,0,1,3.024,11.837q.278,2.2-1.3,2.4t-1.827-1.817A50.863,50.863,0,0,1,673.736,280.472Z"/><path class="cls-24" d="M714.167,174.953l-.342-8.122q-.566-6.958-3.5-9.394l1.162-1.368a8.645,8.645,0,0,0,6.462,1.958L801,151.275a8.592,8.592,0,0,0,6.125-2.981l1.368,1.162a8.581,8.581,0,0,0-1.889,6.521l.342,8.122q.555,6.831,3.5,9.331l-1.157,1.431q-3.082-2.678-9.472-2.159l-13.907,2.022q-6.642.54-9.788-2.133l-1.225,1.373a8.459,8.459,0,0,1,2.981,6.124l4.268,52.5q.535,6.579,2.764,19.514t2.564,17.046q.586,7.212-2.007,7.422t-3.01-4.913q-.417-5.122-.275-13.953t-.218-13.258q-.561-6.9-3.28-6.674a2.328,2.328,0,0,0-1.959,1.751,7.148,7.148,0,0,0-.508,3.161l2.53,13.1q.37,4.554-2.223,4.765a2.072,2.072,0,0,1-2.069-1.169,7.167,7.167,0,0,1-.885-3.048,24.572,24.572,0,0,1,.669-5.88,25.286,25.286,0,0,0,.606-6.64,4.269,4.269,0,0,0-2.5-3.681,10.475,10.475,0,0,0-5.611-.881,19.823,19.823,0,0,0-6.787,1.89,16.844,16.844,0,0,0-5.957,4.654q-2.491,3.034-2.267,5.787a32.272,32.272,0,0,0,1.4,6.6,31.9,31.9,0,0,1,1.386,6.478q.213,2.625-2.127,2.815-2.657.216-2.885-2.6a32.325,32.325,0,0,1,.433-7.2,31.3,31.3,0,0,0,.488-6.534l-1.337-16.446q-2.692-34.674-4.1-51.942a8.453,8.453,0,0,1,1.89-6.521L745.5,175.08q-2.553,3.072-9,3.6l-13.666.283q-6.516.529-9.188,3.676l-1.374-1.226A8.5,8.5,0,0,0,714.167,174.953Zm62.625,95.193a58.006,58.006,0,0,1,2.5,11.958q.18,2.214-1.4,2.342t-1.745-1.9A50.855,50.855,0,0,1,776.792,270.146Z"/><path class="cls-24" d="M863.852,222.535l-1.293-7.828-.025-.7a4.042,4.042,0,0,1,3.532-2.475l51.756-1.768a8.388,8.388,0,0,0,6.192-2.7l1.313,1.223q-3.321,6.66-2.714,23.783a83.8,83.8,0,0,0,1.538,10.265,84.861,84.861,0,0,1,1.532,10.106,6.662,6.662,0,0,1-.693,3.74,2.367,2.367,0,0,1-1.924,1.274,2.414,2.414,0,0,1-2.045-1.261,6.767,6.767,0,0,1-.986-3.648l.519-14.052q-.2-5.583-2.264-8.334a6.17,6.17,0,0,0-5.427-2.634q-7.548.266-7.146,11.619a88.914,88.914,0,0,0,1.749,12.639,96.75,96.75,0,0,1,1.669,10.356,4.791,4.791,0,0,1-.838,3.236,2.825,2.825,0,0,1-2.149,1.187,2.787,2.787,0,0,1-2.193-.97,4.121,4.121,0,0,1-1.02-2.789l.425-20.273q-.391-11.1-5.149-10.931l-4.816.3-49.851,1.764q-5.644.2-8.232,2.451-2.955,2.643-2.537,14.441a98.89,98.89,0,0,0,1.956,14,98.952,98.952,0,0,1,1.954,13.933q.24,6.786-4.58,6.957-5.2.183-5.448-6.793a70.629,70.629,0,0,1,1.595-14.154,70.646,70.646,0,0,0,1.592-14.217l-1.069-21.236L826.158,155.1a8.369,8.369,0,0,0-2.633-6.193l1.222-1.377a8.864,8.864,0,0,0,6.43,2.249l81.435-2.882a8.6,8.6,0,0,0,6.255-2.7l1.316,1.287q-2.692,2.89-2.4,11.007l.1,2.854q.253,7.168,3.139,9.732l-1.226,1.25q-3.287-3.122-15.019-2.707l-31.47,2.574q-11.67.414-14.955-2.709l-1.287,1.316a9.455,9.455,0,0,1,.451,12.748l1.374,1.158q2.933-3.279,12.7-3.625l26.626.519q9.831-.35,12.89-3.632l1.377,1.222q-2.692,2.889-2.377,11.768l.087,2.474q.24,6.788,3.129,9.478l-1.284,1.379q-3.158-3.063-12.988-2.716l-26.524,2.336q-9.768.346-13.051-2.713l-1.223,1.313q2.759,2.634,3,9.42l.048,4.951-.809,7.649q.081,2.283,1.762,2.224T863.852,222.535Z"/><path class="cls-24" d="M975.978,205l-.659,12.939a47.287,47.287,0,0,0,1.562,10.332,47.17,47.17,0,0,1,1.563,10.109,54.581,54.581,0,0,0,.973,9.183,55.471,55.471,0,0,1,.968,9.5q-.043,3.584-3.119,3.549t-3.037-3.558a53.2,53.2,0,0,1,1.219-9.379,52.159,52.159,0,0,0,1.213-8.776,7.959,7.959,0,0,0-1.969-5.322,6.151,6.151,0,0,0-4.795-2.436q-6.346-.075-6.525,15.346a91.348,91.348,0,0,0,.825,10.863,91.784,91.784,0,0,1,.837,9.91q-.061,5.2-3.171,5.168a2.722,2.722,0,0,1-2.426-1.393,7.363,7.363,0,0,1-.812-3.913,68.335,68.335,0,0,1,1.219-9.252,67.793,67.793,0,0,0,1.224-9.76,44.882,44.882,0,0,0-.282-5.747,36.768,36.768,0,0,0-1.2-5.789,11.11,11.11,0,0,0-2.861-5.016,7.146,7.146,0,0,0-5.118-1.963,7.527,7.527,0,0,0-5.68,2.662q-2.539,2.7-2.567,5.143a16.109,16.109,0,0,0,.83,5.119,14.214,14.214,0,0,1,.84,4.135q-.033,2.792-2.1,2.768T940.9,246.6l1.641-10.136.878-80.783A17.864,17.864,0,0,0,939,143.13l1.284-1.255a18.154,18.154,0,0,0,12.449,4.652l73.231.853a18.161,18.161,0,0,0,12.555-4.359l1.253,1.283a16.773,16.773,0,0,0-4.638,11.37,45.165,45.165,0,0,0,.71,9.846,15.633,15.633,0,0,0,3.6,6.77l-1.284,1.254a10.111,10.111,0,0,0-8.324-4.6l-48.165-.562a8.527,8.527,0,0,1-6.064-2.482l-1.219,1.192a9.061,9.061,0,0,1-.144,12.311l1.192,1.22a9.741,9.741,0,0,1,5.075-2.543,37.427,37.427,0,0,1,7.019-.49l24.1,1.614a48.072,48.072,0,0,0,10.45-.894,16.044,16.044,0,0,0,7.822-4.034l1.254,1.284q-4.82,5.148-4.927,14.35t4.218,13.821l-1.347,1.254q-5.715-5.208-18.6-5.358l-23.749,1.056q-8.7-.1-11.83-3.311l-1.221,1.255A8.717,8.717,0,0,1,975.978,205Z"/><path class="cls-24" d="M1088.762,224.112l-.552-7.915.041-.7a4.041,4.041,0,0,1,3.749-2.132l51.693,3.1a8.378,8.378,0,0,0,6.417-2.1l1.193,1.341q-3.932,6.318-4.937,23.423a83.962,83.962,0,0,0,.567,10.364,85.31,85.31,0,0,1,.576,10.2,6.677,6.677,0,0,1-1.041,3.658,2.372,2.372,0,0,1-2.035,1.088,2.414,2.414,0,0,1-1.918-1.448,6.767,6.767,0,0,1-.639-3.724l1.837-13.942q.329-5.576-1.471-8.51a6.177,6.177,0,0,0-5.156-3.132q-7.539-.444-8.2,10.9a88.815,88.815,0,0,0,.554,12.747,96.353,96.353,0,0,1,.687,10.467,4.786,4.786,0,0,1-1.139,3.143,2.823,2.823,0,0,1-2.251.98,2.788,2.788,0,0,1-2.091-1.172,4.116,4.116,0,0,1-.753-2.873l2.328-20.143q.651-11.086-4.1-11.366l-4.822-.156-49.8-2.928q-5.64-.332-8.426,1.666-3.19,2.353-3.883,14.139a98.922,98.922,0,0,0,.632,14.119,98.74,98.74,0,0,1,.636,14.055q-.4,6.779-5.213,6.5-5.2-.306-4.786-7.275a70.624,70.624,0,0,1,2.918-13.941,70.666,70.666,0,0,0,2.921-14.005l.932-21.242,4.342-73.871a8.363,8.363,0,0,0-2.038-6.413l1.345-1.256a8.861,8.861,0,0,0,6.19,2.843l81.346,4.783a8.593,8.593,0,0,0,6.481-2.1l1.189,1.405q-2.954,2.625-3.429,10.733l-.167,2.851q-.421,7.159,2.21,9.984l-1.338,1.129q-2.977-3.417-14.7-4.106l-31.572-.394q-11.658-.686-14.635-4.1l-1.4,1.189a9.458,9.458,0,0,1-.748,12.734l1.259,1.282q3.228-2.988,12.984-2.415L1127,184.593q9.821.578,13.174-2.4l1.256,1.346q-2.952,2.624-3.473,11.493l-.146,2.471q-.4,6.78,2.226,9.73l-1.409,1.252q-2.854-3.346-12.674-3.924l-26.628-.167q-9.756-.573-12.737-3.927l-1.342,1.192q2.5,2.881,2.1,9.66l-.418,4.934-1.524,7.539q-.135,2.281,1.545,2.379T1088.762,224.112Z"/><path class="cls-24" d="M1201.221,262.08l1.317-6.306,1.272-11.8q-16.88-2.712-24.867-7.371t-11.35-10.765a26.237,26.237,0,0,1-2.886-7.875,11.545,11.545,0,0,0-3.589-6.674l1.089-1.223a10.936,10.936,0,0,0,5.948,2.556q3.312.357,8.514.662t11.737.658q6.537.354,9.327.526a10.783,10.783,0,0,0,4.186-.346,3.883,3.883,0,0,0,2.155-2.226l2.738,1.252a3.871,3.871,0,0,0-.333,1.305q-.224,2.082,2.961,5.107t12.271,4q6.12.66,8.932-1.144a2.882,2.882,0,0,0,1.38-2.149q.333-3.092-2.965-4.468a62.33,62.33,0,0,0-8.047-2.623q-4.749-1.244-9.529-2.207t-10.306-2.387q-5.529-1.425-10.407-2.94a53.632,53.632,0,0,1-9.376-3.915,34.5,34.5,0,0,1-7.566-5.315,19.112,19.112,0,0,1-4.688-7.144,19.845,19.845,0,0,1-1.068-9.338,26.212,26.212,0,0,1,2.615-9.165,22.478,22.478,0,0,1,5.168-6.784,29.389,29.389,0,0,1,7.3-4.64,43.541,43.541,0,0,1,8.674-2.895,64.3,64.3,0,0,1,9.685-1.318,93.3,93.3,0,0,1,16.961.168q7.887.849,12,1.515t9.628,1.868a56.245,56.245,0,0,1,9.885,3.044,65,65,0,0,1,8.558,4.4,24.863,24.863,0,0,1,11.5,14.707,22.746,22.746,0,0,0,3.52,6.444l-.978,1.363a10.562,10.562,0,0,0-5.923-2.49l-.82-.088q-5.07-.354-14.5-.828t-12.123-.636a9.647,9.647,0,0,0-3.931.342,3.726,3.726,0,0,0-1.931,2.218l-2.694-1.056a3.752,3.752,0,0,0,.318-1.179q.287-2.649-3.8-5.036a23.637,23.637,0,0,0-9.51-2.972q-10.6-1.141-11.049,3.023-.4,3.723,15.315,7.139,3.677.843,8.361,1.8,16.284,3.477,24.757,7.2,17.8,7.791,16.038,24.132a25.783,25.783,0,0,1-4.072,11.721,25.384,25.384,0,0,1-8.159,7.9,40.6,40.6,0,0,1-11.1,4.421,73,73,0,0,1-25.352,1.289q-3.786-.408-4.473-.546-3.408-.366-3.972,4.87l-.163,1.515a22.254,22.254,0,0,0,.311,5.108,22.25,22.25,0,0,1,.319,5.045q-.361,3.343-2.7,3.093a2.124,2.124,0,0,1-1.753-1.211,4.531,4.531,0,0,1-.39-2.6,28.272,28.272,0,0,1,1.344-5.057,28.27,28.27,0,0,0,1.355-5.184q.177-1.641.217-2.306a15.372,15.372,0,0,0-.013-1.661,2.912,2.912,0,0,0-.383-1.478,3.634,3.634,0,0,0-2.906-1.462q-3.913-.422-4.646,6.393l-.737,10.389q-.448,4.164-1.647,4.035T1201.221,262.08Z"/><path class="cls-24" d="M1289.554,184.964l1.56-7.979q1.071-6.9-1.216-9.95l1.45-1.06a8.642,8.642,0,0,0,5.828,3.41l82.34,12.788a8.6,8.6,0,0,0,6.651-1.471l1.06,1.448a8.578,8.578,0,0,0-3.358,5.9l-1.56,7.978q-1.053,6.772,1.226,9.888l-1.459,1.122q-2.375-3.321-8.708-4.307l-13.995-1.274q-6.587-1.023-9.021-4.355l-1.512,1.049a8.463,8.463,0,0,1,1.472,6.651l-8.084,52.05q-1.014,6.523-1.86,19.621t-1.479,17.175q-1.111,7.15-3.682,6.75t-1.782-5.479q.789-5.079,2.984-13.633t2.878-12.944q1.062-6.837-1.635-7.255a2.33,2.33,0,0,0-2.313,1.246,7.156,7.156,0,0,0-1.23,2.957l-.593,13.33q-.7,4.515-3.273,4.116a2.072,2.072,0,0,1-1.739-1.619,7.167,7.167,0,0,1-.15-3.17,24.543,24.543,0,0,1,2.02-5.563,25.272,25.272,0,0,0,2.137-6.315,4.266,4.266,0,0,0-1.57-4.161,10.459,10.459,0,0,0-5.251-2.165,19.815,19.815,0,0,0-7.04.255,16.869,16.869,0,0,0-6.878,3.139q-3.129,2.372-3.553,5.1a32.321,32.321,0,0,0-.181,6.747,31.873,31.873,0,0,1-.162,6.622q-.4,2.6-2.724,2.243-2.634-.41-2.2-3.2a32.281,32.281,0,0,1,2.1-6.9,31.355,31.355,0,0,0,2-6.241l2.532-16.305q5.463-34.345,8.121-51.466a8.45,8.45,0,0,1,3.358-5.9L1320,192.39q-3.2,2.393-9.594,1.4l-13.356-2.91q-6.461-1-9.792,1.434l-1.05-1.512A8.5,8.5,0,0,0,1289.554,184.964Zm38.717,107.166a57.92,57.92,0,0,1-.355,12.211q-.342,2.194-1.908,1.951t-1.257-2.25A50.981,50.981,0,0,1,1328.271,292.13Z"/><path class="cls-24" d="M1424.039,266.1l.564-7.915.137-.685a4.044,4.044,0,0,1,4.011-1.585l50.748,10.316a8.381,8.381,0,0,0,6.648-1.182l.994,1.5q-4.779,5.7-8.171,22.5a83.765,83.765,0,0,0-.891,10.341,85,85,0,0,1-.86,10.186,6.651,6.651,0,0,1-1.544,3.475,2.367,2.367,0,0,1-2.167.793,2.416,2.416,0,0,1-1.7-1.7,6.789,6.789,0,0,1-.111-3.778l3.773-13.547q1.106-5.474-.263-8.631a6.176,6.176,0,0,0-4.667-3.824q-7.4-1.5-9.651,9.64a88.728,88.728,0,0,0-1.239,12.7,96.463,96.463,0,0,1-.785,10.46,4.791,4.791,0,0,1-1.568,2.953,2.829,2.829,0,0,1-2.365.655,2.792,2.792,0,0,1-1.909-1.454,4.124,4.124,0,0,1-.342-2.95l5.127-19.618q2.2-10.887-2.465-11.828l-4.753-.831-48.895-9.877q-5.537-1.119-8.576.469-3.488,1.884-5.826,13.455a99.055,99.055,0,0,0-1.353,14.068,98.652,98.652,0,0,1-1.34,14.006q-1.344,6.656-6.072,5.7-5.1-1.03-3.719-7.873a70.56,70.56,0,0,1,4.843-13.4,70.694,70.694,0,0,0,4.855-13.457l3.9-20.9,14.653-72.533a8.369,8.369,0,0,0-1.121-6.636l1.509-1.055a8.865,8.865,0,0,0,5.731,3.683l79.873,16.135a8.6,8.6,0,0,0,6.711-1.17l.98,1.558q-3.291,2.184-4.9,10.146l-.566,2.8q-1.42,7.03.789,10.194l-1.483.931q-2.47-3.8-13.978-6.125l-31.2-4.815q-11.448-2.311-13.916-6.113l-1.557.98a9.456,9.456,0,0,1-2.526,12.5l1.068,1.446q3.614-2.506,13.194-.572l25.775,6.7q9.642,1.947,13.381-.535l1.055,1.508q-3.291,2.185-5.05,10.893l-.489,2.427q-1.345,6.657.839,9.946l-1.571,1.042q-2.356-3.713-12-5.661l-26.34-3.9q-9.582-1.935-12.063-5.674l-1.495.993q2.073,3.2.728,9.859l-1.105,4.827-2.565,7.251q-.453,2.239,1.2,2.573T1424.039,266.1Z"/><path class="cls-24" d="M1515.935,316.982l5.71-16.294a3.883,3.883,0,0,0-1.387-3.822,18.468,18.468,0,0,0-8.342-4.28q-7.013-1.781-10.36.315a5.191,5.191,0,0,0-2.083,3.3,43.34,43.34,0,0,0-.686,8.632,43.455,43.455,0,0,1-.7,8.694,7.561,7.561,0,0,1-1.876,3.649,2.98,2.98,0,0,1-2.981.782,3.053,3.053,0,0,1-2.279-2.117,7.438,7.438,0,0,1,.07-4.141,42.537,42.537,0,0,1,3.663-8.105,42.632,42.632,0,0,0,3.819-8.721l19.09-75.428a17.864,17.864,0,0,0-1.352-13.242l1.62-.964a18.158,18.158,0,0,0,10.994,7.507l18.391,4.67a21.091,21.091,0,0,0,6.916.742,8.438,8.438,0,0,0,5.359-2.666l1.78,1.5a19.233,19.233,0,0,0-3.428,6.79q-.7,2.768,6.189,16.37,8.984,17.734,11.348,23.638a36.581,36.581,0,0,1,2.69,9.261l3.691.937q-1.891-5.194.156-13.252a103.691,103.691,0,0,1,3.775-10.991,103.807,103.807,0,0,0,3.773-10.992q2.562-10.086-3.07-14.726l1.62-.964a18.154,18.154,0,0,0,10.993,7.507l12.61,3.2a18.149,18.149,0,0,0,13.242-1.352l.9,1.6a18.147,18.147,0,0,0-7.445,11.008l-19.2,75.073a39.506,39.506,0,0,0-.777,8.217,39.433,39.433,0,0,1-.777,8.216q-1,3.936-4.014,3.171t-2.014-4.7a37.84,37.84,0,0,1,3.1-7.3,38.035,38.035,0,0,0,2.918-6.592,3.039,3.039,0,0,0-.551-2.988,4.538,4.538,0,0,0-2.195-1.409l-24.3-6.17q-5.166-1.312-7.557,8.1a65.105,65.105,0,0,0-1.4,11.593,65.06,65.06,0,0,1-1.374,11.469q-1.359,5.352-5.357,4.336t-2.624-6.428a48.72,48.72,0,0,1,4.115-9.628,52.759,52.759,0,0,0,4.144-9.489l2.2-8.15q1.636-5.673.721-7.739l-19.981-44.82q-.78-1.833-.959-7.053l-3.783-.83a10.754,10.754,0,0,1,1.324,8.193l-8.92,35.123-6.736,31.421a2.653,2.653,0,0,1-1.014,1.543,2.028,2.028,0,0,1-1.779.3,2.163,2.163,0,0,1-1.481-1.261,2.984,2.984,0,0,1-.2-2.047l6.737-23.433a2.043,2.043,0,0,0-.21-1.494,1.743,1.743,0,0,0-1.135-.943q-1.6-.406-2.225,2.055a64.771,64.771,0,0,0-1.216,8.268,64.731,64.731,0,0,1-1.122,7.9q-1.187,4.674-3.494,4.089T1515.935,316.982Z"/><image class="cls-25" width="431" height="431" transform="translate(21.289 1002.766)" xlink:href="Startsk%C3%A6rm_ny1.png"/><path class="cls-26" d="M1346.794,423.315l-12.008-6.921a3.994,3.994,0,0,0-5.366,1.671h0a3.993,3.993,0,0,0,1.244,5.481l12.256,7.064a7.241,7.241,0,0,1,3.606,6.168,13.266,13.266,0,0,0,6.456,11.4l50.768,29.261a6.3,6.3,0,0,0,8.473-2.639l8.04-13.949a6.3,6.3,0,0,0-1.964-8.654l-50.768-29.261a13.3,13.3,0,0,0-13.41.307A7.271,7.271,0,0,1,1346.794,423.315Z"/><rect class="cls-27" x="1368.992" y="433.271" width="29.135" height="31.436" transform="translate(303.663 1423.49) rotate(-60.042)"/><path class="cls-28" d="M1336.719,413.606h1.045a3.5,3.5,0,0,1,3.5,3.5v12.742a1.571,1.571,0,0,1-1.571,1.571h-5.113a1.571,1.571,0,0,1-1.571-1.571V417.316a3.709,3.709,0,0,1,3.709-3.709Z" transform="translate(303.361 1370.015) rotate(-60.042)"/><rect class="cls-28" x="1375.193" y="450.04" width="21.763" height="1.119" transform="translate(303.527 1426.475) rotate(-60.042)"/><rect class="cls-28" x="1371.361" y="446.73" width="21.763" height="3.321" transform="translate(303.522 1422.05) rotate(-60.042)"/><rect class="cls-28" x="1377.131" y="451.157" width="21.763" height="1.119" transform="translate(303.53 1428.714) rotate(-60.042)"/><rect class="cls-28" x="1379.009" y="452.24" width="21.763" height="1.119" transform="translate(303.532 1430.883) rotate(-60.042)"/><g class="cls-2"><g class="cls-2"><g class="cls-29"><g class="cls-2"><path class="cls-12" d="M1615.977,617.185l59.346-32.211a83.732,83.732,0,0,0-32.537,1.469l-59.346,32.211a83.732,83.732,0,0,1,32.537-1.469"/><path class="cls-13" d="M1583.44,618.654l59.346-32.211a63.671,63.671,0,0,0-12.129,4.439l-59.346,32.211a63.671,63.671,0,0,1,12.129-4.439"/><path class="cls-14" d="M1571.311,623.093l59.346-32.211q-1.062.521-2.088,1.077l-59.346,32.211q1.026-.557,2.088-1.077"/></g></g></g><path class="cls-15" d="M1607.741,711.659c.712-.244,1.423-.493,2.117-.76a1,1,0,0,1,.948.144c-1.006.2-1.934.46-2.865.647C1607.874,711.681,1607.808,711.665,1607.741,711.659Z"/><path class="cls-15" d="M1621.863,713.854c-.069.441-.582,2.035-.8,2.8-.086-.178-.215-.441-.4-.875-.081-.185-.17-.359-.257-.534.515-.48,1.008-.978,1.49-1.494C1621.882,713.789,1621.869,713.82,1621.863,713.854Z"/><path class="cls-15" d="M1573.351,700.757a4.386,4.386,0,0,0-3.755-2.164,12.4,12.4,0,0,0-3.33.713c-12.273-11.2-19.857-25.2-19.87-39.476-.027-28.994,31.126-48.087,69.581-42.645s69.651,33.357,69.677,62.351c.012,12.6-5.882,23.325-15.7,30.981-.294-.039-.589-.071-.879-.124-3.6-.658-5.675-3.66-7.581-6.531a4.391,4.391,0,0,0-6.793-.876,28.075,28.075,0,0,1-11.223,6.392,4.258,4.258,0,0,0-1.237.628c-3.593-1.326-6.9.407-9.634,2.83l-3.113-.476a3.3,3.3,0,0,1-.4-.415c-1.29-1.605-3.838-1.586-5.549-.494l-18.113-2.768a3.826,3.826,0,0,0-3.231-1.539,24.5,24.5,0,0,0-3.78.468l-10.908-1.666c-.027-.1-.052-.2-.079-.309a8.5,8.5,0,0,0-9.945-6.424A12.988,12.988,0,0,0,1573.351,700.757Z"/><path class="cls-15" d="M1629.5,712.36l2.681.41c-.471.13-.943.241-1.413.327A3.83,3.83,0,0,1,1629.5,712.36Z"/><path class="cls-15" d="M1588.663,709.944c-.421-1.175-.767-2.485-1.151-4l10.908,1.666c-2.507.493-4.908,1.278-7.452,1.979A9.089,9.089,0,0,1,1588.663,709.944Z"/><path class="cls-15" d="M1609.858,710.9c-.694.267-1.4.516-2.117.76a3.663,3.663,0,0,0-1.131.067.777.777,0,0,1-.085-.257,5.445,5.445,0,0,0-1.094-2.786l18.113,2.768a3.554,3.554,0,0,0-1.656,2.3c-.482.516-.975,1.014-1.49,1.494a7.887,7.887,0,0,0-7.794-4.436,12.64,12.64,0,0,0-1.8.229A1,1,0,0,0,1609.858,710.9Z"/><g class="cls-2"><g class="cls-30"><g class="cls-2"><path class="cls-17" d="M1669.985,710.521c9.8-7.659,15.681-18.387,15.669-30.985a43.849,43.849,0,0,0-2.74-14.984l59.345-32.21A43.816,43.816,0,0,1,1745,647.325c.014,15.422-8.793,28.043-22.827,35.66l-50.962,27.66Q1670.593,710.6,1669.985,710.521Z"/><path class="cls-18" d="M1682.914,664.552l59.345-32.211a52.4,52.4,0,0,0-3.076-6.843l-59.346,32.211a52.541,52.541,0,0,1,3.077,6.843"/><path class="cls-19" d="M1679.837,657.709l59.346-32.211a59.6,59.6,0,0,0-3.7-6l-59.346,32.211a59.6,59.6,0,0,1,3.7,6"/><path class="cls-20" d="M1676.135,651.71l59.346-32.211a67.167,67.167,0,0,0-4.647-5.889l-59.345,32.211a67.343,67.343,0,0,1,4.646,5.889"/><path class="cls-21" d="M1671.489,645.821l59.345-32.211a75.021,75.021,0,0,0-6.038-6.092l-59.346,32.211a75.037,75.037,0,0,1,6.039,6.092"/><path class="cls-14" d="M1665.45,639.729l59.346-32.211a83.773,83.773,0,0,0-8.366-6.613l-59.346,32.211a83.773,83.773,0,0,1,8.366,6.613"/><path class="cls-13" d="M1657.084,633.116l59.346-32.211a92.168,92.168,0,0,0-13.17-7.583l-59.346,32.21a92.268,92.268,0,0,1,13.17,7.584"/><path class="cls-12" d="M1643.914,625.532l59.346-32.21a97.67,97.67,0,0,0-27.937-8.348l-59.346,32.211a97.7,97.7,0,0,1,27.937,8.347"/></g></g></g></g><ellipse class="cls-22" cx="1611.268" cy="668.984" rx="8.148" ry="11.488" transform="translate(526.759 2035.573) rotate(-74.113)"/><ellipse class="cls-22" cx="1611.493" cy="668.239" rx="12.002" ry="16.921" transform="translate(527.64 2035.249) rotate(-74.113)"/><ellipse class="cls-22" cx="1612.125" cy="668.372" rx="3.958" ry="5.58" transform="translate(527.97 2035.952) rotate(-74.113)"/><ellipse class="cls-22" cx="1611.072" cy="669.673" rx="17.461" ry="24.618" transform="translate(525.954 2035.885) rotate(-74.113)"/><ellipse class="cls-22" cx="1612.455" cy="668.41" rx="22.816" ry="32.167" transform="translate(528.174 2036.298) rotate(-74.113)"/><ellipse class="cls-22" cx="1612.612" cy="667.859" rx="28.403" ry="40.045" transform="translate(528.818 2036.048) rotate(-74.113)"/><ellipse class="cls-22" cx="1616.178" cy="668.52" rx="33.758" ry="47.594" transform="translate(530.772 2039.958) rotate(-74.113)"/><ellipse class="cls-22" cx="1616.168" cy="668.554" rx="37.483" ry="52.846" transform="translate(530.731 2039.974) rotate(-74.113)"/><path class="cls-22" d="M1582.014,698.98c-18.6-12.38-28.641-31.018-23.648-47.746,6.714-22.492,38.043-33,69.974-23.465s52.375,35.492,45.661,57.984a32.845,32.845,0,0,1-12.558,17.141"/><path class="cls-22" d="M1574.372,699.261c-16.7-13.69-25-32.589-19.663-49.659,7.823-25.011,41.942-36.6,76.2-25.879s55.7,39.683,47.874,64.693a37.608,37.608,0,0,1-14.269,19.227"/><path class="cls-10" d="M1551.624,687.354c2.163-.781,4.882-2.436,7.39-3.653"/><path class="cls-26" d="M1707.389,580.861l-4.565-22.255a6.544,6.544,0,0,1,5.371-7.485h0a6.544,6.544,0,0,1,7.884,4.766l4.659,22.714a11.87,11.87,0,0,0,7.734,8.795,21.742,21.742,0,0,1,14.4,15.932l19.3,94.091c1.091,5.319-2.725,10.637-8.48,11.818l-25.854,5.3c-5.755,1.181-11.357-2.2-12.448-7.524l-19.3-94.091a21.8,21.8,0,0,1,7.4-20.7A11.917,11.917,0,0,0,1707.389,580.861Z"/><rect class="cls-27" x="1704.465" y="625.551" width="47.757" height="51.529" transform="translate(3552.317 942.007) rotate(168.407)"/><path class="cls-28" d="M1706.324,550.824h9.61a1.961,1.961,0,0,1,1.961,1.961v22.869a4.37,4.37,0,0,1-4.37,4.37h-4.531a4.63,4.63,0,0,1-4.63-4.63V552.784a1.961,1.961,0,0,1,1.961-1.961Z" transform="translate(3500.978 775.435) rotate(168.407)"/><rect class="cls-28" x="1711.713" y="655.142" width="35.674" height="1.834" transform="translate(3555.659 951.155) rotate(168.407)"/><rect class="cls-28" x="1710.256" y="646.236" width="35.674" height="5.444" transform="translate(3551.348 937.39) rotate(168.407)"/><rect class="cls-28" x="1712.45" y="658.735" width="35.674" height="1.834" transform="translate(3557.84 958.119) rotate(168.407)"/><rect class="cls-28" x="1713.164" y="662.216" width="35.674" height="1.834" transform="translate(3559.953 964.866) rotate(168.407)"/><g class="cls-2"><g class="cls-2"><g class="cls-31"><g class="cls-2"><path class="cls-12" d="M324.486,853.263l-66.421-36.051a93.711,93.711,0,0,1,36.416,1.645L360.9,854.908a93.711,93.711,0,0,0-36.416-1.645"/><path class="cls-13" d="M360.9,854.908l-66.421-36.051a71.287,71.287,0,0,1,13.575,4.967l66.421,36.051a71.287,71.287,0,0,0-13.575-4.967"/><path class="cls-14" d="M374.477,859.875l-66.421-36.051q1.19.584,2.337,1.206l66.421,36.051q-1.148-.622-2.337-1.206"/></g></g></g><ellipse class="cls-15" cx="324.433" cy="912.02" rx="79.636" ry="57.491" transform="translate(-256.646 137.82) rotate(-17.308)"/><g class="cls-2"><g class="cls-32"><g class="cls-2"><path class="cls-17" d="M272.051,962.959,205.63,926.908c-15.708-8.525-25.564-22.651-25.548-39.911a49.036,49.036,0,0,1,3.067-16.77l66.421,36.051a49.032,49.032,0,0,0-3.067,16.77c-.016,17.26,9.841,31.385,25.548,39.911"/><path class="cls-18" d="M249.57,906.278l-66.421-36.051a58.7,58.7,0,0,1,3.443-7.659l66.421,36.051a58.7,58.7,0,0,0-3.443,7.659"/><path class="cls-19" d="M253.013,898.619l-66.421-36.051a66.382,66.382,0,0,1,4.144-6.714l66.421,36.05a66.507,66.507,0,0,0-4.144,6.715"/><path class="cls-20" d="M257.157,891.9l-66.421-36.05a74.872,74.872,0,0,1,5.2-6.592l66.421,36.051a75.2,75.2,0,0,0-5.2,6.591"/><path class="cls-21" d="M262.357,885.313l-66.421-36.051a84.317,84.317,0,0,1,6.759-6.818L269.116,878.5a84.155,84.155,0,0,0-6.759,6.818"/><path class="cls-14" d="M269.116,878.5,202.7,842.444a93.662,93.662,0,0,1,9.362-7.4l66.421,36.051a93.662,93.662,0,0,0-9.362,7.4"/><path class="cls-13" d="M278.478,871.094l-66.421-36.051a103.231,103.231,0,0,1,14.741-8.488l66.421,36.051a103.19,103.19,0,0,0-14.741,8.488"/><path class="cls-12" d="M293.219,862.606,226.8,826.555a109.341,109.341,0,0,1,31.267-9.343l66.421,36.051a109.341,109.341,0,0,0-31.267,9.343"/></g></g></g></g><ellipse class="cls-22" cx="329.757" cy="911.238" rx="12.858" ry="9.12" transform="translate(-236.852 125.077) rotate(-15.887)"/><ellipse class="cls-22" cx="330.237" cy="911.581" rx="16.164" ry="11.465" transform="translate(-236.927 125.222) rotate(-15.887)"/><ellipse class="cls-22" cx="328.798" cy="910.553" rx="6.245" ry="4.43" transform="translate(-236.701 124.788) rotate(-15.887)"/><ellipse class="cls-22" cx="329.977" cy="912.009" rx="27.552" ry="19.543" transform="matrix(0.962, -0.274, 0.274, 0.962, -237.055, 125.167)"/><ellipse class="cls-22" cx="328.428" cy="910.595" rx="36.002" ry="25.536" transform="translate(-236.727 124.689) rotate(-15.887)"/><ellipse class="cls-22" cx="328.253" cy="909.979" rx="44.819" ry="31.789" transform="translate(-236.564 124.617) rotate(-15.887)"/><ellipse class="cls-22" cx="324.262" cy="910.718" rx="53.268" ry="37.782" transform="translate(-236.919 123.553) rotate(-15.887)"/><ellipse class="cls-22" cx="324.273" cy="910.757" rx="59.146" ry="41.951" transform="translate(-236.93 123.558) rotate(-15.887)"/><ellipse class="cls-22" cx="325.15" cy="911.678" rx="66.178" ry="46.614" transform="translate(-237.148 123.833) rotate(-15.887)"/><ellipse class="cls-22" cx="325.456" cy="911.756" rx="71.855" ry="52.45" transform="translate(-237.158 123.92) rotate(-15.887)"/><path class="cls-10" d="M180.538,993.123l221.355-.21-.053-55.338c-3.56,0-9.716-7.758-10.679.01s-17.787-10.663-18.112.017-20.641-8.718-29.415.028-12.94-8.726-21.537.02-16.387-16.489-30.934.03-16.52-16.489-16.019.015-8.8-6.788-18.232.017-24.3.023-24.3.023l-52.129.049Z"/><path class="cls-26" d="M233.053,826.792l4.6-22.429a6.6,6.6,0,0,0-5.413-7.544h0a6.6,6.6,0,0,0-7.946,4.8l-4.7,22.893a11.961,11.961,0,0,1-7.794,8.864,21.912,21.912,0,0,0-14.515,16.057l-19.455,94.832c-1.1,5.36,2.746,10.72,8.547,11.91l26.057,5.346c5.8,1.19,11.446-2.223,12.546-7.584l19.455-94.831c1.6-7.822-1.5-15.639-7.462-20.866A12.012,12.012,0,0,1,233.053,826.792Z"/><rect class="cls-27" x="187.868" y="871.834" width="48.132" height="51.934" transform="translate(184.75 -24.275) rotate(11.593)"/><path class="cls-28" d="M227.1,796.519h4.637a4.37,4.37,0,0,1,4.37,4.37v23.1a1.961,1.961,0,0,1-1.961,1.961h-9.716a1.961,1.961,0,0,1-1.961-1.961V801.149a4.63,4.63,0,0,1,4.63-4.63Z" transform="translate(167.707 -29.528) rotate(11.593)"/><rect class="cls-28" x="192.741" y="901.658" width="35.954" height="1.848" transform="translate(185.686 -23.933) rotate(11.593)"/><rect class="cls-28" x="194.209" y="892.682" width="35.954" height="5.487" transform="translate(184.278 -24.374) rotate(11.593)"/><rect class="cls-28" x="191.998" y="905.279" width="35.954" height="1.848" transform="translate(186.399 -23.71) rotate(11.593)"/><rect class="cls-28" x="191.278" y="908.787" width="35.954" height="1.848" transform="translate(187.089 -23.493) rotate(11.593)"/><path class="cls-6" d="M622.047,537.348c-10.282,7.33-20.809-9.687-31.581-2.754-2.073,1.275-3.746,1.676-3.692-.44.044-2.138.1-4.26.16-6.4.176-5.757,2.449-13.943,5.518-17.638,3.105-4.169,7.006-3.848,11.29-3.511h0c8.352.912,16.831,14.093,19.565,20.136.467,1.564.942,3.049,1.427,4.48C625.225,532.581,624.027,535.938,622.047,537.348Z"/><path class="cls-7" d="M620.607,535.969c-.646-1.6-7.4-2.534-15.329-7.927-7.924-5.421-14.576.177-14.61,3.817,0,.752.855,1.79,1.789,1.561,2.611-4.371,24.958,9.542,27.109,5.117A2.254,2.254,0,0,0,620.607,535.969Z"/><path class="cls-8" d="M620.023,534.846a7.748,7.748,0,0,1-7.375,2.935"/><path class="cls-8" d="M617.516,533.987a7.178,7.178,0,0,1-5.935,3.519"/><path class="cls-8" d="M614.531,532.932a7.383,7.383,0,0,1-4.1,4.052"/><path class="cls-8" d="M611.549,531.473c-.533,2.54-1.327,4.316-2.5,5.013"/><path class="cls-8" d="M608.624,529.91c.154,2.644-.25,4.576-1.377,5.74"/><path class="cls-8" d="M605.912,528.368a15.678,15.678,0,0,1,.369,6.8"/><path class="cls-8" d="M607.379,532.052h0"/><path class="cls-8" d="M604.379,527.621a16.287,16.287,0,0,0,.567,6.929"/><path class="cls-8" d="M602.33,526.625a16.53,16.53,0,0,0,1.3,7.319"/><path class="cls-8" d="M600.626,526.037a13.38,13.38,0,0,0,2.138,7.58"/><path class="cls-8" d="M597.92,525.687a21.641,21.641,0,0,0,3.642,7.4"/><path class="cls-8" d="M595.22,526.164c1.421,1.9,3.218,4.072,5.348,6.578"/><path class="cls-8" d="M593.022,527.777a39.2,39.2,0,0,0,6.951,4.5"/><path class="cls-8" d="M590.9,530.824a58.38,58.38,0,0,1,8.214,1.456"/><path class="cls-9" d="M613.47,563.564c-2.323.765-4.655,1.571-7,2.447a3.57,3.57,0,0,1-5.2-3.243c-.821-9.61-1.5-19.394-2.038-28.346-.143-2.5,1.134-4.28,3.034-4a9.933,9.933,0,0,1,2.783.856,23.685,23.685,0,0,1,4.022,2.472,10.413,10.413,0,0,1,3.98,5.987,162.011,162.011,0,0,0,4.251,19.665C617.78,560.9,616.066,562.664,613.47,563.564Z"/><path class="cls-8" d="M620.709,535.954a7.589,7.589,0,0,1-7.85,2.328"/><path class="cls-8" d="M590.754,532.659a20.577,20.577,0,0,1,8.4.344"/><path class="cls-10" d="M633.5,568.481l-42.057,4.567-1.262-11.623c.676-.073,1.667-1.831,2.029-.22s3.134-2.61,3.441-.374,3.721-2.261,5.589-.607,2.258-2.1,4.092-.444,2.734-3.8,5.877-.638,2.76-3.807,3.044-.331,1.516-1.608,3.464-.376,4.617-.5,4.617-.5l9.9-1.076Z"/><image class="cls-25" width="431" height="431" transform="translate(1417.574 -120.23)" xlink:href="Startsk%C3%A6rm_ny2.png"/><circle class="cls-33" cx="1632.659" cy="94.98" r="64.986"/></g></g></svg>
