<svg xmlns="http://www.w3.org/2000/svg" xmlns:xlink="http://www.w3.org/1999/xlink" width="1920" height="1080" viewBox="0 0 1920 1080"><defs><style>.cls-1,.cls-12,.cls-26,.cls-49,.cls-50{fill:none;}.cls-2{isolation:isolate;}.cls-3{fill:gray;stroke:#ff7bac;}.cls-12,.cls-26,.cls-3,.cls-49,.cls-50{stroke-miterlimit:10;}.cls-4{opacity:0.92;fill:url(#linear-gradient);}.cls-5{fill:url(#linear-gradient-2);}.cls-6{fill:#2e3192;opacity:0.85;}.cls-7{fill:#f0ecec;}.cls-8{fill:#d4145a;}.cls-9{fill:#ed1e79;}.cls-10{fill:#42210b;}.cls-11{fill:#bfb4a6;}.cls-12,.cls-26,.cls-49,.cls-50{stroke:#000;}.cls-13{fill:#e9e0d6;}.cls-14{fill:#395931;}.cls-15{clip-path:url(#clip-path);}.cls-16{fill:#836748;}.cls-17{fill:#7f6446;}.cls-18{fill:#7b6144;}.cls-19{fill:#ad885f;}.cls-20{clip-path:url(#clip-path-2);}.cls-21{fill:#675139;}.cls-22{fill:#6b543b;}.cls-23{fill:#6f573d;}.cls-24{fill:#735a3f;}.cls-25{fill:#775e41;}.cls-26{stroke-width:0.25px;}.cls-27{clip-path:url(#clip-path-3);}.cls-28{clip-path:url(#clip-path-4);}.cls-29{opacity:0.89;mix-blend-mode:screen;}.cls-30{fill:url(#linear-gradient-3);}.cls-31{opacity:0.29;}.cls-32{fill:url(#linear-gradient-4);}.cls-33{opacity:0.37;}.cls-34{fill:url(#linear-gradient-5);}.cls-35{opacity:0.36;}.cls-36{fill:url(#linear-gradient-6);}.cls-37{opacity:0.35;}.cls-38{fill:url(#linear-gradient-7);}.cls-39{fill:url(#linear-gradient-8);}.cls-40{fill:#bf5c81;}.cls-41{fill:#fffffd;}.cls-42{fill:url(#linear-gradient-9);}.cls-43{fill:url(#linear-gradient-10);}.cls-44{fill:url(#linear-gradient-11);}.cls-45{fill:url(#linear-gradient-12);}.cls-46{fill:url(#linear-gradient-13);}.cls-47{fill:#999;}.cls-48{fill:#001300;}.cls-49{stroke-width:2px;}.cls-50{stroke-width:7px;}.cls-51{clip-path:url(#clip-path-5);}.cls-52{clip-path:url(#clip-path-6);}</style><linearGradient id="linear-gradient" x1="962.208" y1="582.105" x2="962.208" y2="-1.771" gradientUnits="userSpaceOnUse"><stop offset="0" stop-color="#fff"/><stop offset="0" stop-color="#7a76a5"/><stop offset="0" stop-color="#e9e8f0"/><stop offset="0" stop-color="#dfdee9"/><stop offset="0" stop-color="#dcdbe7"/><stop offset="0" stop-color="#b8b6cf"/><stop offset="0.225" stop-color="#8a87b0"/><stop offset="0.874" stop-color="#1b1464"/></linearGradient><linearGradient id="linear-gradient-2" x1="1108.114" y1="188.282" x2="810.849" y2="1297.692" gradientUnits="userSpaceOnUse"><stop offset="0" stop-color="#fff"/><stop offset="0" stop-color="#7a76a5"/><stop offset="0" stop-color="#e9e8f0"/><stop offset="0" stop-color="#e7e7ee"/><stop offset="0" stop-color="#e1e2e7"/><stop offset="0" stop-color="#d6d9dc"/><stop offset="0" stop-color="#c7cccb"/><stop offset="0" stop-color="#b2bcb5"/><stop offset="0" stop-color="#99a799"/><stop offset="0" stop-color="#7b8f79"/><stop offset="0" stop-color="#5a7455"/><stop offset="0" stop-color="#395931"/><stop offset="0" stop-color="#3c5b34"/><stop offset="0" stop-color="#46623f"/><stop offset="0" stop-color="#566f50"/><stop offset="0" stop-color="#6d8069"/><stop offset="0" stop-color="#8b9588"/><stop offset="0" stop-color="#afb0af"/><stop offset="0" stop-color="#b3b3b3"/><stop offset="0.012" stop-color="#a8aba7"/><stop offset="0.05" stop-color="#8a9588"/><stop offset="0.093" stop-color="#71826c"/><stop offset="0.141" stop-color="#5c7356"/><stop offset="0.197" stop-color="#4c6745"/><stop offset="0.267" stop-color="#415f3a"/><stop offset="0.365" stop-color="#3b5a33"/><stop offset="0.636" stop-color="#395931"/><stop offset="0.825" stop-color="#395931"/></linearGradient><clipPath id="clip-path"><path class="cls-1" d="M1697.351,604.934l-50.25,27.335c10.459-5.689,24.351-8.1,39.6-5.956l50.25-27.335C1721.7,596.835,1707.81,599.244,1697.351,604.934Z"/></clipPath><clipPath id="clip-path-2"><path class="cls-1" d="M1726.472,709.307l50.25-27.335c11.883-6.465,19.334-17.163,19.309-30.228-.045-24.563-26.495-48.187-59.077-52.766l-50.25,27.335c32.582,4.58,59.032,28.2,59.078,52.766C1745.806,692.144,1738.355,702.843,1726.472,709.307Z"/></clipPath><clipPath id="clip-path-3"><path class="cls-1" d="M519.527,479.712l-49.162,26.744c10.232-5.566,23.824-7.924,38.746-5.826l49.162-26.744C543.351,471.789,529.759,474.146,519.527,479.712Z"/></clipPath><clipPath id="clip-path-4"><path class="cls-1" d="M548.018,581.827l49.162-26.744c11.626-6.324,18.916-16.791,18.892-29.573-.045-24.031-25.922-47.144-57.8-51.624L509.111,500.63c31.877,4.48,57.754,27.592,57.8,51.623C566.933,565.035,559.644,575.5,548.018,581.827Z"/></clipPath><linearGradient id="linear-gradient-3" x1="1632.659" y1="159.966" x2="1632.659" y2="29.994" gradientUnits="userSpaceOnUse"><stop offset="0" stop-color="#fff"/><stop offset="0" stop-color="#7a76a5"/><stop offset="0" stop-color="#e9e8f0"/><stop offset="0" stop-color="#edecf3" stop-opacity="0.825"/><stop offset="0" stop-color="#f1f0f5" stop-opacity="0.653"/><stop offset="0" stop-color="#f4f4f8" stop-opacity="0.496"/><stop offset="0" stop-color="#f7f7fa" stop-opacity="0.361"/><stop offset="0" stop-color="#faf9fb" stop-opacity="0.248"/><stop offset="0" stop-color="#fcfbfd" stop-opacity="0.156"/><stop offset="0" stop-color="#fdfdfe" stop-opacity="0.085"/><stop offset="0" stop-color="#fefefe" stop-opacity="0.036"/><stop offset="0" stop-color="#fff" stop-opacity="0.008"/><stop offset="0" stop-color="#fff" stop-opacity="0"/><stop offset="0.149" stop-color="#f7f7fa" stop-opacity="0.24"/><stop offset="0.31" stop-color="#f0f0f5" stop-opacity="0.469"/><stop offset="0.469" stop-color="#eae9f0" stop-opacity="0.659"/><stop offset="0.62" stop-color="#e5e4ed" stop-opacity="0.808"/><stop offset="0.763" stop-color="#e2e1eb" stop-opacity="0.914"/><stop offset="0.893" stop-color="#e0dfe9" stop-opacity="0.978"/><stop offset="1" stop-color="#dfdee9"/></linearGradient><linearGradient id="linear-gradient-4" x1="2485.79" y1="-1308.277" x2="3134.231" y2="-1682.655" gradientTransform="matrix(0.737, -0.681, 0.686, 0.774, -843.934, 3579.865)" gradientUnits="userSpaceOnUse"><stop offset="0" stop-color="#fff"/><stop offset="0" stop-color="#7a76a5"/><stop offset="0" stop-color="#e9e8f0"/><stop offset="0" stop-color="#dfdee9"/><stop offset="0" stop-color="#dcdbe7" stop-opacity="0"/><stop offset="0.036" stop-color="#ded0e8" stop-opacity="0.05"/><stop offset="0.102" stop-color="#e2b3eb" stop-opacity="0.181"/><stop offset="0.191" stop-color="#ea85f0" stop-opacity="0.395"/><stop offset="0.297" stop-color="#f445f7" stop-opacity="0.686"/><stop offset="0.403" stop-color="#f0f"/><stop offset="0.466" stop-color="#f0f"/><stop offset="0.886" stop-color="#f0f"/><stop offset="0.891" stop-color="#f0f"/><stop offset="0.924" stop-color="#f0f"/></linearGradient><linearGradient id="linear-gradient-5" x1="8107.519" y1="544.439" x2="8802.495" y2="143.195" gradientTransform="matrix(-0.996, 0.092, 0.092, 0.996, 8691.885, -698.63)" gradientUnits="userSpaceOnUse"><stop offset="0" stop-color="#fff"/><stop offset="0" stop-color="#7a76a5"/><stop offset="0" stop-color="#e9e8f0"/><stop offset="0" stop-color="#dfdee9"/><stop offset="0" stop-color="#dcdbe7" stop-opacity="0"/><stop offset="0.058" stop-color="#b4b3eb" stop-opacity="0.18"/><stop offset="0.127" stop-color="#8a8af0" stop-opacity="0.371"/><stop offset="0.201" stop-color="#6565f4" stop-opacity="0.54"/><stop offset="0.277" stop-color="#4646f7" stop-opacity="0.682"/><stop offset="0.357" stop-color="#2d2cfa" stop-opacity="0.798"/><stop offset="0.441" stop-color="#1919fc" stop-opacity="0.887"/><stop offset="0.531" stop-color="#0b0bfe" stop-opacity="0.951"/><stop offset="0.632" stop-color="#0303ff" stop-opacity="0.988"/><stop offset="0.767" stop-color="blue"/></linearGradient><linearGradient id="linear-gradient-6" x1="8101.876" y1="618.049" x2="8750.861" y2="73.487" gradientTransform="matrix(-0.995, 0.086, 0.075, 0.991, 8694.451, -664.861)" gradientUnits="userSpaceOnUse"><stop offset="0" stop-color="#fff"/><stop offset="0" stop-color="#7a76a5"/><stop offset="0" stop-color="#e9e8f0"/><stop offset="0" stop-color="#dfdee9"/><stop offset="0" stop-color="#dcdbe7" stop-opacity="0"/><stop offset="0.017" stop-color="#ddd4e2" stop-opacity="0.13"/><stop offset="0.061" stop-color="#dfc2d5" stop-opacity="0.436"/><stop offset="0.101" stop-color="#e1b4ca" stop-opacity="0.679"/><stop offset="0.135" stop-color="#e2aac3" stop-opacity="0.853"/><stop offset="0.162" stop-color="#e3a4bf" stop-opacity="0.961"/><stop offset="0.178" stop-color="#e3a2bd"/><stop offset="0.19" stop-color="#e599b3"/><stop offset="0.246" stop-color="#eb7689"/><stop offset="0.306" stop-color="#f05664"/><stop offset="0.371" stop-color="#f53b45"/><stop offset="0.441" stop-color="#f9252c"/><stop offset="0.519" stop-color="#fb1518"/><stop offset="0.609" stop-color="#fd090a"/><stop offset="0.721" stop-color="#ff0202"/><stop offset="0.924" stop-color="red"/></linearGradient><linearGradient id="linear-gradient-7" x1="8251.63" y1="888.743" x2="8869.146" y2="332.665" gradientTransform="matrix(-1, 0.014, 0.014, 1, 8762.842, -275.286)" gradientUnits="userSpaceOnUse"><stop offset="0" stop-color="#fff"/><stop offset="0" stop-color="#7a76a5"/><stop offset="0" stop-color="#e9e8f0"/><stop offset="0" stop-color="#dfdee9" stop-opacity="0"/><stop offset="0.03" stop-color="#c6d6d7" stop-opacity="0.11"/><stop offset="0.166" stop-color="#5cb189" stop-opacity="0.587"/><stop offset="0.265" stop-color="#199b58" stop-opacity="0.886"/><stop offset="0.314" stop-color="#009245"/><stop offset="0.39" stop-color="#009245"/><stop offset="0.886" stop-color="#009245"/><stop offset="0.891" stop-color="#009245"/><stop offset="0.924" stop-color="#009245"/></linearGradient><linearGradient id="linear-gradient-8" x1="220.347" y1="1050.026" x2="157.86" y2="941.796" gradientTransform="translate(28.302 -993.246) rotate(10.657)" gradientUnits="userSpaceOnUse"><stop offset="0" stop-color="#fff"/><stop offset="0" stop-color="#7a76a5"/><stop offset="0" stop-color="#e9e8f0"/><stop offset="0" stop-color="#dfdee9"/><stop offset="0" stop-color="#8a87b0"/><stop offset="0.032" stop-color="#5b5974"/><stop offset="0.112" stop-color="#464459"/><stop offset="0.386"/></linearGradient><linearGradient id="linear-gradient-9" x1="8785.828" y1="4538.644" x2="9396.209" y2="4186.24" gradientTransform="matrix(-0.662, -0.754, -0.763, 0.699, 11017.129, 4256.872)" xlink:href="#linear-gradient-4"/><linearGradient id="linear-gradient-10" x1="-471.853" y1="1590.936" x2="210.67" y2="1196.882" gradientTransform="translate(1975.654 -986.131) rotate(11.203)" xlink:href="#linear-gradient-5"/><linearGradient id="linear-gradient-11" x1="-501.893" y1="1620.357" x2="133.877" y2="1086.882" gradientTransform="matrix(0.981, 0.188, -0.178, 0.977, 1969.604, -952.81)" xlink:href="#linear-gradient-6"/><linearGradient id="linear-gradient-12" x1="-382.836" y1="1260.811" x2="217.798" y2="719.935" gradientTransform="translate(1861.237 -572.411) rotate(6.756)" xlink:href="#linear-gradient-7"/><linearGradient id="linear-gradient-13" x1="1636.492" y1="-334.883" x2="1678.172" y2="-449.399" gradientTransform="matrix(0.918, -0.17, 0.166, 0.931, 413.247, 669.285)" gradientUnits="userSpaceOnUse"><stop offset="0" stop-color="#fff"/><stop offset="0" stop-color="#7a76a5"/><stop offset="0" stop-color="#e9e8f0"/><stop offset="0" stop-color="#dfdee9"/><stop offset="0" stop-color="#8a87b0"/><stop offset="0" stop-color="#5b5974"/><stop offset="0.068" stop-color="#464459"/><stop offset="0.301"/></linearGradient><clipPath id="clip-path-5"><path class="cls-1" d="M310.393,825.03l66.421,36.051c-13.824-7.5-32.18-10.669-52.328-7.818l-66.421-36.051C278.213,814.361,296.569,817.527,310.393,825.03Z"/></clipPath><clipPath id="clip-path-6"><path class="cls-1" d="M272.051,962.959,205.63,926.908c-15.708-8.525-25.564-22.651-25.548-39.911.029-32.451,34.944-63.695,77.983-69.785l66.421,36.051c-43.039,6.09-77.954,37.334-77.983,69.785C246.487,940.308,256.344,954.433,272.051,962.959Z"/></clipPath></defs><title>Startskærm_settings</title><g class="cls-2"><g id="Layer_2" data-name="Layer 2"><ellipse class="cls-3" cx="919.217" cy="1000.517" rx="140.47" ry="47.99"/><rect class="cls-4" x="2.411" y="-1.771" width="1919.593" height="583.876"/><path class="cls-5" d="M1887.61,433.169l30.4-.032c-186.417-81.392-505.429-192.572-914.806-199.958C547.338,224.955,193.705,349.3.184,433.924l-7.771.213q3,322.93,6,645.863H1919.005q2.5-321.931,5-643.864Z"/><path class="cls-6" d="M1218.707,338.17l11.243-8.419c1.7-1.275,1.877-3.943.389-5.93h0c-1.488-1.987-4.1-2.57-5.8-1.3l-11.476,8.593a7.248,7.248,0,0,1-7.356.668c-4.572-2.037-9.694-1.831-13.518,1.032l-47.537,35.6c-2.687,2.012-2.964,6.225-.614,9.363l10.553,14.093c2.35,3.138,6.471,4.059,9.158,2.046l47.537-35.6c3.921-2.936,5.543-7.968,4.737-13.06A7.3,7.3,0,0,1,1218.707,338.17Z"/><rect class="cls-7" x="1163.988" y="345.979" width="31.86" height="31.86" transform="translate(762.364 -799.484) rotate(53.173)"/><path class="cls-8" d="M1223.23,320.2h.027a4.37,4.37,0,0,1,4.37,4.37V336.3a1.961,1.961,0,0,1-1.961,1.961h-5.106a1.961,1.961,0,0,1-1.961-1.961V324.835a4.63,4.63,0,0,1,4.63-4.63Z" transform="translate(753.511 -847.15) rotate(53.173)"/><path class="cls-9" d="M1174.4,350.817c-.06.046-.063.105-.007.18l-.092.068-.588-.785.092-.068a.124.124,0,0,0,.07.046.1.1,0,0,0,.09-.023l2.031-1.521-.631-.841a.209.209,0,0,0-.093-.071.126.126,0,0,0-.129.03l-.068-.092.714-.535.069.092a.125.125,0,0,0-.065.115.219.219,0,0,0,.042.109l1.695,2.265a.225.225,0,0,0,.093.07.129.129,0,0,0,.13-.029l.068.092-.714.535-.069-.092a.127.127,0,0,0,.064-.116.2.2,0,0,0-.041-.109l-.629-.841Z"/><path class="cls-9" d="M1179.52,353.586a.116.116,0,0,0,.051-.106.366.366,0,0,0-.085-.172l-1.237-1.653-.633.474.749,1a.456.456,0,0,0,.147.137c.047.023.109,0,.187-.053l.069.093-.8.6-.069-.093c.078-.059.115-.115.109-.168a.386.386,0,0,0-.085-.183l-.749-1-.7.527,1.276,1.7a.258.258,0,0,0,.129.1.14.14,0,0,0,.133-.025l.069.093-.7.523-.069-.092c.051-.038.068-.076.05-.113a.78.78,0,0,0-.083-.133l-1.78-2.378.092-.068a.118.118,0,0,0,.07.047.1.1,0,0,0,.09-.023l2.316-1.735a.1.1,0,0,0,.048-.08.129.129,0,0,0-.024-.081l.092-.069,1.742,2.326a.31.31,0,0,0,.145.126.132.132,0,0,0,.122-.023l.069.092-.674.5Z"/><path class="cls-9" d="M1180.535,358.622a.1.1,0,0,1-.017-.029.216.216,0,0,0-.019-.031.634.634,0,0,0-.171-.1c-.1-.045-.216-.108-.355-.188a3.151,3.151,0,0,1-.433-.3,2.435,2.435,0,0,1-.407-.427,2.97,2.97,0,0,1-.381-.679,1.942,1.942,0,0,1-.139-.712,1.56,1.56,0,0,1,.157-.679,1.619,1.619,0,0,1,1.891-.855,1.983,1.983,0,0,1,.652.328,2.69,2.69,0,0,1,.549.553,3.046,3.046,0,0,1,.313.5c.078.161.141.307.19.435a2.53,2.53,0,0,1,.1.315.527.527,0,0,0,.043.142.063.063,0,0,0,.057.025c.027,0,.047,0,.062,0l0,.123-.916.063,0-.077a.167.167,0,0,0,.028-.025c.01-.009.019-.021.031-.034a.254.254,0,0,0,.038-.189,1.3,1.3,0,0,0-.066-.3,2.776,2.776,0,0,0-.136-.343,1.826,1.826,0,0,0-.178-.3,1.729,1.729,0,0,0-.369-.366,1.279,1.279,0,0,0-.435-.208,1.088,1.088,0,0,0-1.356,1.016,1.275,1.275,0,0,0,.076.476,1.767,1.767,0,0,0,.247.457,2.083,2.083,0,0,0,.294.312,2.433,2.433,0,0,0,.342.254,1.27,1.27,0,0,0,.317.148.247.247,0,0,0,.216,0,.127.127,0,0,0,.046-.065l.094.039-.289.742Z"/><path class="cls-9" d="M1185.079,360.245c.061-.046.064-.106.008-.182l.092-.068.588.785-.092.069a.126.126,0,0,0-.071-.047.1.1,0,0,0-.089.025l-2.317,1.734a.1.1,0,0,0-.049.079.121.121,0,0,0,.026.081l-.092.068-.588-.785.092-.068c.056.075.114.089.176.043l.959-.718-1.231-1.644-.959.718a.11.11,0,0,0-.048.08.122.122,0,0,0,.025.081l-.092.068-.576-.769.092-.068a.1.1,0,0,0,.164.027l2.316-1.734a.106.106,0,0,0,.02-.166l.091-.068.577.769-.092.069a.123.123,0,0,0-.071-.046.1.1,0,0,0-.089.023l-.868.649,1.231,1.644Z"/><path class="cls-9" d="M1183.89,363.676a.1.1,0,0,0,.164.028l2.316-1.735a.1.1,0,0,0,.02-.165l.091-.069.654.872-.092.069c-.021-.028-.048-.029-.082,0s-.05.09-.066.209l-.424,2.6,1.622-1.215c.061-.046.059-.113-.007-.2l.092-.068.576.77-.092.069a.1.1,0,0,0-.164-.029l-2.316,1.734a.105.105,0,0,0-.02.167l-.092.068-.618-.826.092-.068c.032.043.065.054.1.032a.3.3,0,0,0,.055-.17l.457-2.771-1.693,1.269c-.062.046-.063.108,0,.186l-.092.068-.565-.755Z"/><path class="cls-9" d="M1190.623,367.2a2.606,2.606,0,0,1,.344.634,2.19,2.19,0,0,1,.143.72,1.712,1.712,0,0,1-.131.713,1.454,1.454,0,0,1-.5.608,1.475,1.475,0,0,1-.724.305,1.718,1.718,0,0,1-.721-.075,2.031,2.031,0,0,1-.641-.347,2.718,2.718,0,0,1-.5-.514,2.76,2.76,0,0,1-.352-.629,2.04,2.04,0,0,1-.152-.714,1.7,1.7,0,0,1,.131-.711,1.62,1.62,0,0,1,1.219-.913,1.717,1.717,0,0,1,.721.073,2.235,2.235,0,0,1,.649.342A2.548,2.548,0,0,1,1190.623,367.2Zm-.47.352a1.607,1.607,0,0,0-.351-.342,1.448,1.448,0,0,0-.438-.218,1.136,1.136,0,0,0-.471-.04,1,1,0,0,0-.766.573,1.108,1.108,0,0,0-.094.464,1.458,1.458,0,0,0,.085.482,1.59,1.59,0,0,0,.23.433,1.608,1.608,0,0,0,.351.342,1.521,1.521,0,0,0,.438.218,1.154,1.154,0,0,0,.472.04,1,1,0,0,0,.765-.573,1.164,1.164,0,0,0,.1-.464,1.531,1.531,0,0,0-.086-.482A1.616,1.616,0,0,0,1190.153,367.553Z"/><path class="cls-9" d="M1190.612,370.952a.076.076,0,0,0-.074-.035.135.135,0,0,0-.074.027l-.069-.092.611-.458.07.091c-.061.046-.074.095-.035.146l.653.872a.08.08,0,0,0,.075.036.164.164,0,0,0,.075-.027l.068.091-.612.458-.069-.091c.062-.046.073-.1.035-.146Z"/><path class="cls-9" d="M1173.564,357.245a3.225,3.225,0,0,1,.3.483,1.741,1.741,0,0,1,.168.479.946.946,0,0,1-.016.435.669.669,0,0,1-.258.353.584.584,0,0,1-.481.128,1.33,1.33,0,0,1-.466-.2l-.009.007a1.246,1.246,0,0,1,.076.575.731.731,0,0,1-.322.5.77.77,0,0,1-.332.145.8.8,0,0,1-.374-.026,1.194,1.194,0,0,1-.39-.207,1.931,1.931,0,0,1-.374-.388l-1.4-1.872.091-.069c.072.1.138.12.2.074l2.315-1.734c.062-.046.057-.117-.015-.212l.092-.069Zm-2.137,1.761a1.03,1.03,0,0,0,.445.387.388.388,0,0,0,.368-.057.383.383,0,0,0,.157-.336,1.011,1.011,0,0,0-.246-.537l-.729-.975-.725.543Zm1.163-.871a1.331,1.331,0,0,0,.344.336.348.348,0,0,0,.494-.371,1.317,1.317,0,0,0-.226-.424l-.729-.974-.613.458Z"/><path class="cls-9" d="M1172.3,360.956a.181.181,0,0,0,.144.055,1.262,1.262,0,0,0,.183-.022l2.691-.542c.062-.009.12-.019.17-.028a.291.291,0,0,0,.118-.044.1.1,0,0,0,.045-.089.337.337,0,0,0-.026-.1l.092-.069.645.861-.091.069a.812.812,0,0,0-.082-.05.094.094,0,0,0-.1.02.257.257,0,0,0-.068.078c-.018.033-.04.078-.068.135l-1.281,2.616a.21.21,0,0,0-.029.13,1,1,0,0,0,.023.137l-.093.069-.673-.9.092-.069a.205.205,0,0,0,.055.04.058.058,0,0,0,.068,0,.38.38,0,0,0,.1-.14l.232-.477-.931-1.244-.5.088a.555.555,0,0,0-.192.063c-.037.028-.031.074.018.139l-.093.069-.542-.725Zm2.389,1.212.627-1.139-1.307.232Z"/><path class="cls-9" d="M1175.558,363.947l.029.1a.331.331,0,0,0-.083.187.7.7,0,0,0,.012.234,1.248,1.248,0,0,0,.213.468,1.054,1.054,0,0,0,.422.38.458.458,0,0,0,.441-.11l1.637-1.226a.16.16,0,0,0,.066-.145.26.26,0,0,0-.047-.148l.092-.069.725.97-.091.069a.315.315,0,0,0-.152-.118.16.16,0,0,0-.158.023l-1.684,1.261a.843.843,0,0,1-.41.174.858.858,0,0,1-.422-.052,1.289,1.289,0,0,1-.409-.261,2.991,2.991,0,0,1-.388-.433,2.281,2.281,0,0,1-.2-.306,2.947,2.947,0,0,1-.129-.273c-.033-.084-.061-.159-.084-.223a.511.511,0,0,0-.072-.15.129.129,0,0,0-.13-.046l-.006-.114Z"/><path class="cls-9" d="M1180.933,368.233a.116.116,0,0,0,.051-.106.366.366,0,0,0-.084-.171l-1.238-1.653-.633.474.749,1a.445.445,0,0,0,.147.137c.046.023.109.006.187-.052l.07.092-.8.6-.07-.092c.079-.059.115-.116.109-.169a.4.4,0,0,0-.085-.184l-.749-1-.7.528,1.276,1.7a.255.255,0,0,0,.129.1.142.142,0,0,0,.133-.025l.069.093-.7.523-.068-.092c.05-.038.068-.076.049-.113a.686.686,0,0,0-.083-.132l-1.78-2.378.092-.069a.123.123,0,0,0,.071.047.108.108,0,0,0,.09-.023l2.316-1.735a.1.1,0,0,0,.047-.08.119.119,0,0,0-.024-.08l.092-.069,1.742,2.326a.316.316,0,0,0,.145.125.132.132,0,0,0,.122-.023l.069.092-.673.5Z"/><path class="cls-9" d="M1183.428,370.417a2.606,2.606,0,0,1,.289.477,1.225,1.225,0,0,1,.118.445.789.789,0,0,1-.08.4,1.019,1.019,0,0,1-.313.353.816.816,0,0,1-.664.186,1.324,1.324,0,0,1-.64-.355l-.462,1.4a.166.166,0,0,0,0,.13.551.551,0,0,0,.056.1l-.091.068-.715-.954.092-.068a.223.223,0,0,0,.075.067.056.056,0,0,0,.065,0,.144.144,0,0,0,.043-.065c.013-.03.026-.072.044-.127l.376-1.157-.547-.73-.908.68a.1.1,0,0,0-.043.085.257.257,0,0,0,.066.136l-.092.069-.661-.882.092-.069c.074.1.141.125.2.079l2.317-1.734c.06-.046.055-.118-.019-.216l.092-.069Zm-1.293.761a1.715,1.715,0,0,0,.258.286.669.669,0,0,0,.224.134.359.359,0,0,0,.2.012.428.428,0,0,0,.173-.081.447.447,0,0,0,.128-.144.363.363,0,0,0,.043-.192.67.67,0,0,0-.065-.253,1.86,1.86,0,0,0-.2-.327l-.662-.882-.755.565Z"/><path class="cls-10" d="M1831.683,861.267a112.284,112.284,0,0,1-88.393,3.052c-5.221-1.978-7.619-7.129-5.446-10.888q4.143-7.439,8.284-14.878a55.834,55.834,0,0,1,21.619-20.661c7.463-3.88,13.434-4.911,19.791-2.66q1.484.5,3,.92c6.4,1.826,13.284,6,20.856,10.18,7.381,4.374,15.452,8.749,19.838,15.5l6.446,10.126C1839.361,854.468,1836.734,858.9,1831.683,861.267Z"/><path class="cls-11" d="M1826.973,859.022c-2.166-4.133-19.725-.734-39.755-1.514-10.141-.181-19.368-.99-26.693-1.054-7.275-.06-12.648.624-13.939,3.512-.649,1.416.3,5.149,2.734,6.166a84.353,84.353,0,0,0,13.553,3.781,108.832,108.832,0,0,0,24.247,1.917,110.69,110.69,0,0,0,24.014-3.388,122.825,122.825,0,0,0,13.216-4.316C1827.382,862.892,1827.518,860.235,1826.973,859.022Z"/><path class="cls-12" d="M1825.264,857.08c-3.738,3.769-10.3,7.981-19.922,11.066"/><path class="cls-12" d="M1818.579,856.584c-3.016,4.28-8.333,8.685-16.2,12.226"/><path class="cls-12" d="M1810.827,856.942a33.892,33.892,0,0,1-11.633,12.177"/><path class="cls-12" d="M1803.181,857.253c-1.651,5.318-4.237,9.775-7.83,12.483"/><path class="cls-12" d="M1795.719,857.563a16.992,16.992,0,0,1-5.373,12.554"/><path class="cls-12" d="M1788.832,857.516c.973,4.95.538,9.024-1.16,12.676"/><path class="cls-12" d="M1791.812,863.035h0"/><path class="cls-12" d="M1784.918,857.519c-1.513,4.857-2.279,9.284-.956,12.75"/><path class="cls-12" d="M1779.73,857.146c-1.366,4.616-1.4,9.046.581,13.043"/><path class="cls-12" d="M1775.383,856.86c-1.422,5.03-.912,9.627,2.522,13.3"/><path class="cls-12" d="M1768.372,856.471a18.857,18.857,0,0,0,6.238,13.348"/><path class="cls-12" d="M1761.227,856.046a37.011,37.011,0,0,0,10.65,13.489"/><path class="cls-12" d="M1754.9,856.594c2.608,5.367,7.867,9.753,15.5,12.221"/><path class="cls-12" d="M1747.919,858.532a32.032,32.032,0,0,0,20,10.376"/><path class="cls-13" d="M1797.547,926.49a173.015,173.015,0,0,1-25.3,3.227c-9.559.536-16.54-3.817-15.435-8.55q5.139-24.187,10.279-48.376c1.014-4.506,5.573-7.733,10.837-8.358,2.293-.274,4.827-.468,7.587-.521a87.182,87.182,0,0,1,10.616.464c5.158.561,9.369,3.276,10.053,7.22q3.425,21.49,6.85,42.98C1813.79,918.723,1806.918,924.578,1797.547,926.49Z"/><path class="cls-12" d="M1827.247,858.979c-4.293,3.668-11.443,7.551-21.391,9.93"/><path class="cls-12" d="M1746.1,861.627a44.5,44.5,0,0,0,21.529,8.6"/><path class="cls-14" d="M1846.021,950.045H1742.86V915.993c1.659,0,4.524-4.779,4.977,0s8.285-6.571,8.441,0,9.616-5.376,13.709,0,6.026-5.376,10.037,0,7.63-10.155,14.416,0,7.692-10.155,7.466,0,4.1-4.181,8.5,0,11.324,0,11.324,0h24.294Z"/><path class="cls-10" d="M153.833,624.409A98.241,98.241,0,0,1,76.5,627.08c-4.568-1.731-6.666-6.238-4.764-9.527l7.247-13.016A48.837,48.837,0,0,1,97.9,586.461c6.529-3.395,11.753-4.3,17.314-2.327q1.3.441,2.623.8c5.6,1.6,11.622,5.251,18.246,8.906,6.458,3.827,13.519,7.654,17.356,13.556l5.64,8.86C160.55,618.461,158.252,622.342,153.833,624.409Z"/><path class="cls-11" d="M149.712,622.445c-1.895-3.616-17.257-.642-34.781-1.324-8.872-.159-16.945-.867-23.353-.923-6.366-.052-11.066.547-12.2,3.073-.568,1.239.258,4.5,2.391,5.4a73.87,73.87,0,0,0,11.858,3.307,95.178,95.178,0,0,0,21.213,1.677,96.857,96.857,0,0,0,21.01-2.963,107.762,107.762,0,0,0,11.562-3.776C150.07,625.831,150.189,623.506,149.712,622.445Z"/><path class="cls-12" d="M148.217,620.746c-3.27,3.3-9.015,6.983-17.429,9.682"/><path class="cls-12" d="M142.368,620.312c-2.639,3.745-7.291,7.6-14.175,10.7"/><path class="cls-12" d="M135.586,620.625a29.646,29.646,0,0,1-10.178,10.654"/><path class="cls-12" d="M128.9,620.9c-1.444,4.652-3.706,8.552-6.85,10.921"/><path class="cls-12" d="M122.368,621.169a14.866,14.866,0,0,1-4.7,10.983"/><path class="cls-12" d="M116.343,621.128a17.392,17.392,0,0,1-1.015,11.089"/><path class="cls-12" d="M118.95,625.956h0"/><path class="cls-12" d="M112.918,621.131c-1.323,4.249-1.994,8.122-.836,11.154"/><path class="cls-12" d="M108.38,620.8c-1.2,4.039-1.228,7.915.508,11.412"/><path class="cls-12" d="M104.576,620.554c-1.243,4.4-.8,8.422,2.207,11.634"/><path class="cls-12" d="M98.442,620.213a16.5,16.5,0,0,0,5.458,11.678"/><path class="cls-12" d="M92.191,619.842a32.393,32.393,0,0,0,9.318,11.8"/><path class="cls-12" d="M86.653,620.321c2.281,4.695,6.882,8.533,13.556,10.692"/><path class="cls-12" d="M80.549,622.016a28.02,28.02,0,0,0,17.495,9.078"/><path class="cls-13" d="M123.967,681.472a151.277,151.277,0,0,1-22.133,2.823c-8.363.469-14.471-3.34-13.5-7.48q4.5-21.162,8.993-42.324c.887-3.942,4.875-6.765,9.481-7.312,2.006-.24,4.223-.409,6.638-.456a76.508,76.508,0,0,1,9.287.406c4.513.491,8.2,2.866,8.8,6.317q3,18.8,5.993,37.6C138.178,674.677,132.166,679.8,123.967,681.472Z"/><path class="cls-12" d="M149.952,622.407c-3.756,3.21-10.012,6.607-18.715,8.688"/><path class="cls-12" d="M78.955,624.724a38.936,38.936,0,0,0,18.836,7.522"/><path class="cls-14" d="M166.377,702.08H76.122V672.289c1.452,0,3.959-4.182,4.355,0s7.248-5.75,7.385,0,8.412-4.7,11.993,0,5.273-4.7,8.781,0,6.676-8.886,12.614,0,6.729-8.886,6.531,0,3.586-3.659,7.434,0,9.907,0,9.907,0h21.255Z"/><path class="cls-10" d="M683.57,381.845c-11.8-.2-22.968-20.912-33.5-15.546-2.029,1.061-2.946.2-2.1-3.053.839-3.155,1.656-6.1,2.448-8.818,4.468-15.224,14.007-14.527,23.067-10.107h0c4.621,3.188,8.7,8.9,11.673,12.7,2.936,4.239,4.766,6.556,4.048,13.217-.273,2.344-.569,4.659-.889,6.888C688,379.388,685.84,381.959,683.57,381.845Z"/><path class="cls-11" d="M682.965,379.526c.5-2.219-6.445-5.843-14.867-14.613-8.439-8.85-15.706-6.605-16.872-1.988-.277.954-.027,2.57.853,2.506,2.041-5.241,25.817,17.21,28.722,15.876C682.068,381.614,682.814,380.293,682.965,379.526Z"/><path class="cls-12" d="M682.922,378.086c-2.249,1.1-5.444.856-9.493-1.457"/><path class="cls-12" d="M680.737,376.031c-2.137,1.251-4.99,1.215-8.5-.226"/><path class="cls-12" d="M677.78,373.709a9.123,9.123,0,0,1-6.765,1.036"/><path class="cls-12" d="M674.723,371.02c-1.672,1.74-3.448,2.642-5.233,2.577"/><path class="cls-12" d="M671.636,368.214a5.4,5.4,0,0,1-4.077,3.771"/><path class="cls-12" d="M668.776,365.516a8.9,8.9,0,0,1-2.237,5.6"/><path class="cls-12" d="M667.127,364.094a10.065,10.065,0,0,0-2.007,5.884"/><path class="cls-12" d="M664.973,362.217a11.02,11.02,0,0,0-1.238,6.675"/><path class="cls-12" d="M663.154,360.877a9.715,9.715,0,0,0-.339,7.384"/><path class="cls-12" d="M660.216,359.308a17.035,17.035,0,0,0,1.369,8.037"/><path class="cls-12" d="M657.246,358.569a45.756,45.756,0,0,0,3.312,8.118"/><path class="cls-12" d="M654.622,359.26c.908,2.412,2.7,4.345,5.431,6.8"/><path class="cls-12" d="M651.78,361.765a46.129,46.129,0,0,0,7.3,4.034"/><path class="cls-13" d="M659.1,408.634c-2.461-.085-4.9-.28-7.319-.4-2.7-.181-3.984-3.2-2.93-6.944,3.552-13.011,6.738-24.688,9.557-33.4.793-2.49,2.863-3.67,5.057-2.564a16.066,16.066,0,0,1,3.1,2.034,33.516,33.516,0,0,1,4.113,4.1c1.921,2.254,2.927,5.039,2.353,6.984-2.093,7.04-4.554,14.189-7.381,24.449C664.838,405.8,661.852,408.674,659.1,408.634Z"/><path class="cls-12" d="M683.065,379.572c-2.364.88-5.608.3-9.605-2.421"/><path class="cls-12" d="M651,363.955a30.98,30.98,0,0,1,7.858,2.54"/><path class="cls-14" d="M681.285,417.439l-44.738-11.975,3.309-12.363c.72.192,2.427-1.21,2.159.578s4.231-1.425,3.66.979,4.693-.836,5.946,1.592,3.136-1.253,4.352,1.165,4.3-2.8,6.252,1.673,4.323-2.794,3.238.867,2.184-1.043,3.685.986,4.911,1.315,4.911,1.315l10.536,2.82Z"/><path class="cls-10" d="M629,906.429c-23.92,22.952-48.462-20.544-73.626-1.195-2.277,1.717-4.12,1.779-4.083-.585.172-12.8.492-24.922.96-37.873.6-14.469,9.2-27.993,18.7-24.876,10.661,1.818,21.149,4.473,31.462,5.576,9.194,1.351,18.593,14.048,21.3,23.5a291.951,291.951,0,0,0,8.233,28.306C632.48,900.788,631.163,904.352,629,906.429Z"/><path class="cls-11" d="M622.389,906.485c-1.359-3.422-15.554-5.082-32.218-16.173s-30.6-.827-30.638,6.765c.008,1.587,1.812,3.979,3.773,3.665,2.612-1.669,15.871-.966,28.828,6.017,13,7.346,25.68,7.191,28.072,5.071C622.529,910.888,622.745,907.871,622.389,906.485Z"/><path class="cls-12" d="M621.16,904.145a16.706,16.706,0,0,1-15.482,6.285"/><path class="cls-12" d="M615.889,902.386a15.453,15.453,0,0,1-12.451,7.512"/><path class="cls-12" d="M609.616,900.267c-2.124,4.422-5.016,7.246-8.6,8.588"/><path class="cls-12" d="M603.348,897.323c-1.112,5.313-2.768,9.05-5.224,10.542"/><path class="cls-12" d="M597.2,894.15c.336,5.521-.5,9.569-2.861,12.029"/><path class="cls-12" d="M591.5,890.986c1.437,6.155,1.575,10.655.809,14.214"/><path class="cls-12" d="M594.6,898.662h0"/><path class="cls-12" d="M588.281,889.438a34.013,34.013,0,0,0,1.228,14.494"/><path class="cls-12" d="M583.977,887.339a34.619,34.619,0,0,0,2.765,15.338"/><path class="cls-12" d="M580.4,886.064a28.217,28.217,0,0,0,4.534,15.928"/><path class="cls-12" d="M574.717,885.181a46,46,0,0,0,7.69,15.7"/><path class="cls-12" d="M569.053,885.911c3,4.189,6.788,8.9,11.269,14.212"/><path class="cls-12" d="M564.448,888.97c3.539,3.506,8.459,6.6,14.622,10.156"/><path class="cls-12" d="M560.011,894.949c5.013.908,10.782,2.541,17.258,4.146"/><path class="cls-13" d="M607.516,964c-4.862,1.587-9.74,3.254-14.636,5.062-5.469,2.193-10.4-.673-10.9-6.652-1.771-19.778-3.248-40.077-4.433-58.823-.316-5.23,2.35-8.89,6.338-8.289a21.723,21.723,0,0,1,5.839,1.788,51.169,51.169,0,0,1,8.449,5.066c4.163,3.042,7.61,7.9,8.374,12.332,2.7,16.169,5.7,30.034,8.99,40.845C616.529,958.447,612.948,962.133,607.516,964Z"/><path class="cls-12" d="M622.6,906.454c-3.5,3.969-9,6.6-16.481,5.013"/><path class="cls-12" d="M559.719,898.784c5.4-.577,11.3.392,17.636,1.825"/><path class="cls-14" d="M649.274,974.491l-88.016,9.557-2.641-24.324c1.416-.153,3.49-3.833,4.247-.461s6.559-5.461,7.2-.782,7.788-4.731,11.7-1.27,4.725-4.4,8.563-.929,5.722-7.962,12.3-1.336,5.775-7.967,6.37-.692,3.172-3.366,7.249-.787,9.662-1.049,9.662-1.049l20.727-2.25Z"/><g class="cls-2"><g class="cls-2"><g class="cls-15"><g class="cls-2"><path class="cls-16" d="M1686.7,626.313l50.25-27.335a70.941,70.941,0,0,0-27.563,1.271l-50.25,27.335a70.979,70.979,0,0,1,27.563-1.271"/><path class="cls-17" d="M1659.141,627.584l50.25-27.335a53.982,53.982,0,0,0-10.272,3.77l-50.249,27.335a53.972,53.972,0,0,1,10.271-3.77"/><path class="cls-18" d="M1648.87,631.354l50.249-27.335q-.9.442-1.768.915l-50.25,27.335q.869-.473,1.769-.915"/></g></g></g><ellipse class="cls-19" cx="1686.787" cy="670.788" rx="43.516" ry="60.278" transform="translate(545.872 2082.708) rotate(-72.746)"/><g class="cls-2"><g class="cls-20"><g class="cls-2"><path class="cls-21" d="M1726.472,709.307l50.25-27.335c11.883-6.465,19.334-17.163,19.309-30.228a37.1,37.1,0,0,0-2.333-12.692l-50.25,27.336a37.11,37.11,0,0,1,2.334,12.691c.024,13.065-7.427,23.764-19.31,30.228"/><path class="cls-22" d="M1743.448,666.388l50.25-27.336a44.379,44.379,0,0,0-2.612-5.794l-50.25,27.335a44.451,44.451,0,0,1,2.612,5.8"/><path class="cls-23" d="M1740.836,660.593l50.25-27.335a50.417,50.417,0,0,0-3.141-5.08l-50.25,27.336a50.4,50.4,0,0,1,3.141,5.079"/><path class="cls-24" d="M1737.7,655.514l50.25-27.336a57.1,57.1,0,0,0-3.941-4.985l-50.25,27.335a56.773,56.773,0,0,1,3.941,4.986"/><path class="cls-25" d="M1733.754,650.528,1784,623.193a63.65,63.65,0,0,0-5.121-5.156l-50.25,27.335a63.649,63.649,0,0,1,5.121,5.156"/><path class="cls-18" d="M1728.633,645.372l50.25-27.335a70.889,70.889,0,0,0-7.092-5.6l-50.25,27.335a70.919,70.919,0,0,1,7.092,5.595"/><path class="cls-17" d="M1721.541,639.777l50.25-27.335a78.017,78.017,0,0,0-11.164-6.414l-50.249,27.335a78.1,78.1,0,0,1,11.163,6.414"/><path class="cls-16" d="M1710.378,633.363l50.249-27.335a82.762,82.762,0,0,0-23.673-7.05l-50.25,27.335a82.769,82.769,0,0,1,23.674,7.05"/></g></g></g></g><ellipse class="cls-26" cx="1682.756" cy="670.2" rx="6.903" ry="9.732" transform="translate(578.868 2106.26) rotate(-74.167)"/><ellipse class="cls-26" cx="1682.393" cy="670.46" rx="8.678" ry="12.235" transform="translate(578.354 2106.1) rotate(-74.167)"/><ellipse class="cls-26" cx="1683.482" cy="669.68" rx="3.353" ry="4.727" transform="translate(579.896 2106.58) rotate(-74.167)"/><ellipse class="cls-26" cx="1682.591" cy="670.784" rx="14.792" ry="20.855" transform="translate(578.186 2106.525) rotate(-74.167)"/><ellipse class="cls-26" cx="1683.761" cy="669.712" rx="19.328" ry="27.251" transform="translate(580.068 2106.873) rotate(-74.167)"/><ellipse class="cls-26" cx="1683.894" cy="669.245" rx="24.062" ry="33.924" transform="translate(580.614 2106.66) rotate(-74.167)"/><ellipse class="cls-26" cx="1686.915" cy="669.803" rx="28.598" ry="40.32" transform="translate(582.275 2109.972) rotate(-74.167)"/><ellipse class="cls-26" cx="1686.907" cy="669.832" rx="31.754" ry="44.769" transform="translate(582.241 2109.985) rotate(-74.167)"/><ellipse class="cls-26" cx="1686.244" cy="670.529" rx="35.283" ry="50.091" transform="translate(581.088 2109.854) rotate(-74.167)"/><ellipse class="cls-26" cx="1686.012" cy="670.589" rx="39.701" ry="54.388" transform="translate(580.862 2109.675) rotate(-74.167)"/><path class="cls-14" d="M1795.762,732.073H1628.214V690.186c2.694,0,7.348-5.879,8.083,0s13.456-8.083,13.709,0,15.618-6.613,22.266,0,9.788-6.613,16.3,0,12.392-12.492,23.415,0,12.493-12.492,12.125,0,6.656-5.144,13.8,0,18.392,0,18.392,0h39.457Z"/><g class="cls-2"><g class="cls-2"><g class="cls-27"><g class="cls-2"><path class="cls-16" d="M509.111,500.63l49.162-26.744a69.414,69.414,0,0,0-26.966,1.243l-49.162,26.744a69.4,69.4,0,0,1,26.966-1.243"/><path class="cls-17" d="M482.145,501.873l49.162-26.744a52.814,52.814,0,0,0-10.05,3.689L472.1,505.561a52.813,52.813,0,0,1,10.05-3.688"/><path class="cls-18" d="M472.1,505.561l49.162-26.743q-.88.432-1.73.894l-49.162,26.744q.851-.462,1.73-.9"/></g></g></g><ellipse class="cls-19" cx="509.191" cy="544.142" rx="42.575" ry="58.974" transform="translate(-161.493 869.023) rotate(-72.746)"/><g class="cls-2"><g class="cls-28"><g class="cls-2"><path class="cls-21" d="M548.018,581.827l49.162-26.744c11.626-6.324,18.916-16.791,18.892-29.573a36.319,36.319,0,0,0-2.283-12.417l-49.162,26.744a36.318,36.318,0,0,1,2.283,12.416c.023,12.782-7.266,23.25-18.892,29.574"/><path class="cls-22" d="M564.627,539.837l49.162-26.744a43.459,43.459,0,0,0-2.556-5.669l-49.162,26.743a43.532,43.532,0,0,1,2.556,5.67"/><path class="cls-23" d="M562.071,534.167l49.162-26.743a49.255,49.255,0,0,0-3.073-4.97L559,529.2a49.353,49.353,0,0,1,3.073,4.969"/><path class="cls-24" d="M559,529.2l49.162-26.744a55.715,55.715,0,0,0-3.855-4.877l-49.163,26.744A55.393,55.393,0,0,1,559,529.2"/><path class="cls-25" d="M555.142,524.321,604.3,497.577a62.528,62.528,0,0,0-5.01-5.045l-49.163,26.744a62.04,62.04,0,0,1,5.01,5.045"/><path class="cls-18" d="M550.132,519.276l49.163-26.744a69.353,69.353,0,0,0-6.939-5.474L543.194,513.8a69.225,69.225,0,0,1,6.938,5.474"/><path class="cls-17" d="M543.194,513.8l49.162-26.744a76.382,76.382,0,0,0-10.922-6.275l-49.162,26.744a76.287,76.287,0,0,1,10.922,6.275"/><path class="cls-16" d="M532.272,507.527l49.162-26.744a80.962,80.962,0,0,0-23.161-6.9L509.111,500.63a80.971,80.971,0,0,1,23.161,6.9"/></g></g></g></g><ellipse class="cls-26" cx="505.248" cy="543.566" rx="6.754" ry="9.522" transform="translate(-155.545 881.342) rotate(-74.167)"/><ellipse class="cls-26" cx="504.893" cy="543.821" rx="8.49" ry="11.97" transform="translate(-156.048 881.185) rotate(-74.167)"/><ellipse class="cls-26" cx="505.958" cy="543.058" rx="3.28" ry="4.625" transform="translate(-154.54 881.655) rotate(-74.167)"/><ellipse class="cls-26" cx="505.086" cy="544.138" rx="14.472" ry="20.404" transform="translate(-156.213 881.601) rotate(-74.167)"/><ellipse class="cls-26" cx="506.232" cy="543.089" rx="18.91" ry="26.661" transform="translate(-154.371 881.941) rotate(-74.167)"/><ellipse class="cls-26" cx="506.361" cy="542.632" rx="23.541" ry="33.19" transform="translate(-153.837 881.734) rotate(-74.167)"/><ellipse class="cls-26" cx="509.317" cy="543.178" rx="27.979" ry="39.447" transform="translate(-152.212 884.974) rotate(-74.167)"/><ellipse class="cls-26" cx="509.309" cy="543.206" rx="31.067" ry="43.8" transform="translate(-152.246 884.987) rotate(-74.167)"/><ellipse class="cls-26" cx="508.66" cy="543.888" rx="34.519" ry="49.007" transform="translate(-153.374 884.859) rotate(-74.167)"/><ellipse class="cls-26" cx="508.434" cy="543.947" rx="38.841" ry="53.211" transform="translate(-153.595 884.683) rotate(-74.167)"/><path class="cls-14" d="M615.808,604.1H451.886V563.12c2.636,0,7.19-5.752,7.909,0s13.164-7.908,13.412,0,15.28-6.471,21.783,0,9.577-6.471,15.949,0,12.124-12.222,22.908,0,12.223-12.222,11.863,0,6.512-5.033,13.5,0,17.994,0,17.994,0h38.6Z"/><path class="cls-6" d="M1783,556.234l-5.174-22.989c-.783-3.48-4.748-5.578-8.811-4.664h0c-4.063.914-6.746,4.51-5.963,7.989l5.281,23.463a12.156,12.156,0,0,1-4.025,11.718c-6.255,5.6-9.454,13.585-7.694,21.4l21.876,97.194c1.236,5.5,7.5,8.809,13.912,7.365l28.815-6.486c6.415-1.444,10.652-7.12,9.415-12.615l-21.876-97.194c-1.805-8.016-8.394-13.952-16.741-16.212A12.244,12.244,0,0,1,1783,556.234Z"/><rect class="cls-7" x="1766.002" y="605.175" width="53.447" height="53.447" transform="translate(-95.001 409.076) rotate(-12.685)"/><path class="cls-8" d="M1769.4,528.211h6.143a4.37,4.37,0,0,1,4.37,4.37v23.956a1.961,1.961,0,0,1-1.961,1.961h-11.222a1.961,1.961,0,0,1-1.961-1.961v-23.7A4.63,4.63,0,0,1,1769.4,528.211Z" transform="translate(-76.056 402.439) rotate(-12.685)"/><path class="cls-9" d="M1771.914,632.7c.028.125.119.17.272.136l.043.188-1.607.361-.042-.188a.2.2,0,0,0,.12-.076.182.182,0,0,0,.026-.153l-.935-4.152-1.722.387a.373.373,0,0,0-.171.094.217.217,0,0,0-.043.218l-.188.043-.329-1.461.188-.042a.222.222,0,0,0,.133.179.383.383,0,0,0,.195.01l4.631-1.043a.364.364,0,0,0,.171-.092.214.214,0,0,0,.044-.218l.188-.042.329,1.459-.188.043a.218.218,0,0,0-.133-.179.384.384,0,0,0-.195-.012l-1.722.388Z"/><path class="cls-9" d="M1779.664,626.765a.2.2,0,0,0-.127-.153.613.613,0,0,0-.32.013l-3.381.76.291,1.293,2.045-.46a.757.757,0,0,0,.31-.13c.069-.056.084-.163.048-.323l.188-.042.366,1.627-.188.042c-.035-.161-.1-.253-.183-.282a.66.66,0,0,0-.339,0l-2.045.461.324,1.44,3.485-.786a.439.439,0,0,0,.239-.129.243.243,0,0,0,.055-.221l.187-.042.321,1.428-.187.043c-.024-.1-.07-.158-.14-.155a1.246,1.246,0,0,0-.259.035l-4.861,1.1-.042-.187a.2.2,0,0,0,.119-.076.174.174,0,0,0,.026-.154l-1.066-4.736a.17.17,0,0,0-.089-.127.207.207,0,0,0-.14-.019l-.043-.187,4.757-1.071a.542.542,0,0,0,.292-.137.223.223,0,0,0,.047-.2l.188-.042.31,1.377Z"/><path class="cls-9" d="M1788.07,628.664a.322.322,0,0,1-.058.008.437.437,0,0,0-.059.008,1.01,1.01,0,0,0-.269.191q-.207.179-.532.416a5.331,5.331,0,0,1-.757.455,4.008,4.008,0,0,1-.934.331,4.8,4.8,0,0,1-1.3.118,3.238,3.238,0,0,1-1.185-.276,2.6,2.6,0,0,1-.932-.7,2.937,2.937,0,0,1-.549-2.436,2.658,2.658,0,0,1,.537-1.047,3.336,3.336,0,0,1,.95-.772,4.594,4.594,0,0,1,1.222-.462,5.3,5.3,0,0,1,.984-.134q.451-.012.795.007a4.57,4.57,0,0,1,.552.062.918.918,0,0,0,.248.033.11.11,0,0,0,.077-.073c.016-.04.03-.072.038-.1l.185.09-.529,1.445-.121-.05a.272.272,0,0,0-.02-.061c-.008-.019-.018-.042-.031-.07a.423.423,0,0,0-.262-.188,2.228,2.228,0,0,0-.512-.108,4.816,4.816,0,0,0-.619-.025,2.831,2.831,0,0,0-1.394.378,2.158,2.158,0,0,0-.617.524,1.814,1.814,0,0,0-.342.7,1.939,1.939,0,0,0,.359,1.6,1.82,1.82,0,0,0,.608.483,2.12,2.12,0,0,0,.781.206,2.868,2.868,0,0,0,.867-.063,3.375,3.375,0,0,0,.682-.236,4.3,4.3,0,0,0,.623-.348,2.192,2.192,0,0,0,.444-.385.42.42,0,0,0,.14-.332.211.211,0,0,0-.071-.116l.128-.117.937.951Z"/><path class="cls-9" d="M1793.67,622.822c-.027-.125-.119-.17-.272-.135l-.042-.188,1.607-.361.042.187a.208.208,0,0,0-.12.077.178.178,0,0,0-.026.153l1.066,4.736a.174.174,0,0,0,.09.128.213.213,0,0,0,.14.018l.042.187-1.606.361-.042-.187c.152-.034.215-.114.187-.239l-.441-1.961-3.359.756.441,1.96a.175.175,0,0,0,.09.128.2.2,0,0,0,.14.018l.042.187-1.574.355-.042-.188a.174.174,0,0,0,.155-.232l-1.066-4.736a.174.174,0,0,0-.239-.143l-.043-.187,1.575-.355.042.188a.2.2,0,0,0-.12.077.17.17,0,0,0-.025.152l.4,1.775,3.358-.756Z"/><path class="cls-9" d="M1798.105,627a.174.174,0,0,0,.157-.231l-1.066-4.737a.175.175,0,0,0-.241-.143l-.042-.188,1.783-.4.042.187c-.054.013-.074.054-.058.123s.1.137.273.246l3.693,2.434-.746-3.317c-.028-.125-.132-.167-.313-.126l-.042-.188,1.574-.354.043.187a.175.175,0,0,0-.156.233l1.065,4.736a.176.176,0,0,0,.241.143l.042.187-1.69.38-.042-.188c.091-.019.128-.061.114-.125-.011-.047-.085-.115-.22-.2l-3.928-2.6.779,3.463c.029.125.122.169.282.133l.042.188-1.543.347Z"/><path class="cls-9" d="M1808.122,619.11a4.275,4.275,0,0,1,1.207-.091,3.743,3.743,0,0,1,1.2.272,2.879,2.879,0,0,1,1,.689,2.7,2.7,0,0,1,.561,2.5,2.832,2.832,0,0,1-.608,1.05,3.424,3.424,0,0,1-.97.746,4.563,4.563,0,0,1-2.337.526,3.462,3.462,0,0,1-1.2-.257,2.871,2.871,0,0,1-1-.689,2.716,2.716,0,0,1-.562-2.5,2.894,2.894,0,0,1,.607-1.05,3.748,3.748,0,0,1,.969-.761A4.326,4.326,0,0,1,1808.122,619.11Zm.216.96a2.679,2.679,0,0,0-.765.3,2.476,2.476,0,0,0-.633.521,1.925,1.925,0,0,0-.386.7,1.684,1.684,0,0,0,.352,1.564,1.89,1.89,0,0,0,.647.463,2.42,2.42,0,0,0,.795.2,2.623,2.623,0,0,0,1.586-.356,2.451,2.451,0,0,0,.632-.52,1.894,1.894,0,0,0,.387-.7,1.681,1.681,0,0,0-.351-1.564,1.931,1.931,0,0,0-.648-.463,2.451,2.451,0,0,0-.795-.2A2.7,2.7,0,0,0,1808.338,620.07Z"/><path class="cls-9" d="M1813.855,621.7a.13.13,0,0,0-.105.089.25.25,0,0,0-.009.134l-.188.042-.282-1.251.189-.042c.028.125.1.176.2.152l1.783-.4a.132.132,0,0,0,.107-.09.266.266,0,0,0,.008-.133l.188-.043.281,1.251-.187.043c-.028-.125-.1-.176-.2-.152Z"/><path class="cls-9" d="M1781.18,638.391a5.418,5.418,0,0,1,.946-.131,2.981,2.981,0,0,1,.849.072,1.609,1.609,0,0,1,.654.324,1.124,1.124,0,0,1,.361.637.975.975,0,0,1-.131.823,2.187,2.187,0,0,1-.628.574l.005.021a2.112,2.112,0,0,1,.934.277,1.23,1.23,0,0,1,.545.837,1.283,1.283,0,0,1-.006.61,1.358,1.358,0,0,1-.3.554,2.023,2.023,0,0,1-.582.454,3.279,3.279,0,0,1-.851.307l-3.829.861-.043-.187c.2-.044.279-.128.25-.253l-1.066-4.736c-.027-.124-.139-.166-.334-.123l-.042-.187Zm.692,2.1a2.2,2.2,0,0,0,.75-.3.584.584,0,0,0-.227-1.011,2.194,2.194,0,0,0-.8.055l-1.992.448.281,1.252Zm.536,2.378a1.7,1.7,0,0,0,.9-.417.66.66,0,0,0-.242-1.073,1.7,1.7,0,0,0-.989.009l-1.992.448.334,1.481Z"/><path class="cls-9" d="M1785.992,642.875a.318.318,0,0,0,.184-.184,2.459,2.459,0,0,0,.092-.3l1.016-4.492c.028-.1.053-.193.074-.279a.468.468,0,0,0,.013-.212.158.158,0,0,0-.106-.129.65.65,0,0,0-.17-.028l-.042-.188,1.761-.4.043.187a.85.85,0,0,0-.132.092.152.152,0,0,0-.04.166.4.4,0,0,0,.075.159c.036.05.089.116.158.2l3.125,3.757a.354.354,0,0,0,.179.134,1.934,1.934,0,0,0,.226.059l.042.187-1.836.413-.042-.187a.224.224,0,0,0,.1-.055.1.1,0,0,0,.042-.107.691.691,0,0,0-.145-.253l-.57-.682-2.545.573-.209.825a.875.875,0,0,0-.034.337c.017.076.092.1.224.069l.043.188-1.482.333Zm3.5-2.825-1.313-1.743-.543,2.161Z"/><path class="cls-9" d="M1792.805,639.938l.181.025a.537.537,0,0,0,.228.256,1.215,1.215,0,0,0,.366.142,1.887,1.887,0,0,0,.438.044,1.933,1.933,0,0,0,.427-.047,1.785,1.785,0,0,0,.871-.387.763.763,0,0,0,.133-.748l-.753-3.348a.269.269,0,0,0-.176-.2.459.459,0,0,0-.26-.029l-.042-.188,1.982-.446.042.187a.541.541,0,0,0-.283.153.267.267,0,0,0-.074.257l.775,3.442a1.393,1.393,0,0,1-.386,1.358,2.183,2.183,0,0,1-.676.448,5.07,5.07,0,0,1-.931.3,3.965,3.965,0,0,1-.6.092,4.677,4.677,0,0,1-.507.01c-.151-.006-.285-.014-.4-.025a1.013,1.013,0,0,0-.278.007.222.222,0,0,0-.159.168l-.18-.069Z"/><path class="cls-9" d="M1803.056,634.65a.193.193,0,0,0-.127-.151.614.614,0,0,0-.321.012l-3.379.76.291,1.293,2.043-.46a.79.79,0,0,0,.312-.13c.067-.056.084-.163.047-.324l.187-.042.368,1.627-.188.042c-.036-.16-.1-.253-.185-.281a.656.656,0,0,0-.338,0l-2.044.46.323,1.439,3.484-.783a.422.422,0,0,0,.239-.131.235.235,0,0,0,.054-.22l.189-.042.321,1.428-.187.042c-.024-.1-.071-.156-.14-.154a1.275,1.275,0,0,0-.26.036l-4.86,1.094-.043-.188a.2.2,0,0,0,.121-.076.181.181,0,0,0,.025-.154l-1.066-4.736a.172.172,0,0,0-.089-.126.207.207,0,0,0-.142-.019l-.042-.187,4.757-1.071a.543.543,0,0,0,.293-.136.224.224,0,0,0,.047-.2l.188-.042.31,1.377Z"/><path class="cls-9" d="M1808.111,632.329a4.4,4.4,0,0,1,.928-.116,2.09,2.09,0,0,1,.762.125,1.318,1.318,0,0,1,.561.4,1.69,1.69,0,0,1,.327.721,1.38,1.38,0,0,1-.169,1.146,2.26,2.26,0,0,1-.985.737l1.833,1.669a.3.3,0,0,0,.2.087.955.955,0,0,0,.188-.021l.042.188-1.95.438-.043-.187a.376.376,0,0,0,.154-.068.1.1,0,0,0,.05-.1.227.227,0,0,0-.07-.111,2.019,2.019,0,0,0-.166-.154l-1.513-1.369-1.491.336.418,1.856a.159.159,0,0,0,.1.125.452.452,0,0,0,.257-.008l.042.188-1.805.406-.042-.187c.2-.046.288-.131.261-.256l-1.066-4.737c-.029-.124-.144-.165-.345-.119l-.042-.187Zm.279,2.5a2.966,2.966,0,0,0,.613-.2,1.137,1.137,0,0,0,.36-.252.627.627,0,0,0,.153-.292.774.774,0,0,0-.006-.321.8.8,0,0,0-.132-.294.644.644,0,0,0-.264-.2,1.157,1.157,0,0,0-.432-.071,2.876,2.876,0,0,0-.64.083l-1.8.406.348,1.544Z"/><path class="cls-14" d="M1643.064,1015.014h-411.7V969.243c6.621,0,18.057-6.424,19.863,0s33.063-8.833,33.686,0,38.375-7.227,54.71,0,24.051-7.227,40.056,0,30.45-13.651,57.535,0,30.7-13.651,29.794,0,16.356-5.621,33.909,0,45.192,0,45.192,0h96.955Z"/><image class="cls-29" width="431" height="431" transform="translate(1417.574 -120.23)" xlink:href="Startsk%C3%A6rm_settings1.png"/><circle class="cls-30" cx="1632.659" cy="94.98" r="64.986"/><g class="cls-31"><path class="cls-32" d="M40.9,50.111a33.367,33.367,0,0,1-22.1,4.194c50.285,366.189,128.575,657.79,227.3,873.106,72.207-48.227,137-105.082,192.821-162.131C274.484,653.385,134.7,413.544,40.9,50.111Z"/></g><g class="cls-33"><path class="cls-34" d="M39.171,34.559c9.249,1.663,17.613.9,24.984-2.159C209.113,350.664,408.3,556.3,642.1,643.616c-45.122,44.725-101.868,88.955-169.2,128.6C291.626,620.342,142.984,373.215,39.171,34.559Z"/></g><g class="cls-35"><path class="cls-36" d="M53.6,70.227a31.634,31.634,0,0,0,19.881-5.133C213.135,347.055,430.363,528.581,707.357,600.542c-30.34,36.493-74.539,71.882-131.645,103.9C339.607,588.019,161.1,374.254,53.6,70.227Z"/></g><g class="cls-37"><path class="cls-38" d="M23.963,40.6c9.714,3.771,18.753,4.952,26.992,3.717,121.676,339.164,293.966,560.8,496.591,659.821A1164.24,1164.24,0,0,1,348.863,847.929C210.75,663.278,99.239,393.3,23.963,40.6Z"/></g><path class="cls-39" d="M84.321,54.917c-21.9,12.5-45.633,25.194-70.907,37.581C-1.1,56.256-10.338,17.326-15.643-23.582-.217-31,14.629-38.3,28.631-45.294,42.474-8.987,60.733,24.756,84.321,54.917Z"/><path class="cls-40" d="M79.394,1002.861a37.943,37.943,0,0,1-22.428,0q2.167-18.168,4.336-36.337a23.262,23.262,0,0,0,13.757,0Z"/><path class="cls-40" d="M79.394,1002.861a37.943,37.943,0,0,1-22.428,0q2.167-18.168,4.336-36.337a23.262,23.262,0,0,0,13.757,0Z"/><path class="cls-40" d="M79.15,1012.274A37.951,37.951,0,0,1,64.7,995.117l30.588-20.088a23.271,23.271,0,0,0,8.861,10.523Q91.652,998.914,79.15,1012.274Z"/><path class="cls-40" d="M79.15,1012.274A37.951,37.951,0,0,1,64.7,995.117l30.588-20.088a23.271,23.271,0,0,0,8.861,10.523Q91.652,998.914,79.15,1012.274Z"/><path class="cls-40" d="M71.42,1021.747a37.946,37.946,0,0,0-16.12-15.594l-22.149,29.131a23.276,23.276,0,0,1,9.888,9.565Z"/><path class="cls-40" d="M71.42,1021.747a37.946,37.946,0,0,0-16.12-15.594l-22.149,29.131a23.276,23.276,0,0,1,9.888,9.565Z"/><path class="cls-40" d="M69.42,998.261a37.94,37.94,0,0,1-16.12,15.594l-22.149-29.13a23.273,23.273,0,0,0,9.888-9.566Z"/><path class="cls-40" d="M69.42,998.261a37.94,37.94,0,0,1-16.12,15.594l-22.149-29.13a23.273,23.273,0,0,0,9.888-9.566Z"/><path class="cls-40" d="M80.525,1006.367a37.952,37.952,0,0,0-15.595,16.119l29.131,22.149a23.279,23.279,0,0,1,9.566-9.888Z"/><path class="cls-40" d="M80.525,1006.367a37.952,37.952,0,0,0-15.595,16.119l29.131,22.149a23.279,23.279,0,0,1,9.566-9.888Z"/><path class="cls-40" d="M60.507,1021.749a37.959,37.959,0,0,0,0-22.428l-36.337,4.335a23.281,23.281,0,0,1,0,13.758Z"/><path class="cls-40" d="M60.507,1021.749a37.959,37.959,0,0,0,0-22.428l-36.337,4.335a23.281,23.281,0,0,1,0,13.758Z"/><path class="cls-40" d="M77.854,1020.749a37.943,37.943,0,0,1,0-22.428l36.336,4.336a23.278,23.278,0,0,0,0,13.757Z"/><path class="cls-40" d="M77.854,1020.749a37.943,37.943,0,0,1,0-22.428l36.336,4.336a23.278,23.278,0,0,0,0,13.757Z"/><path class="cls-40" d="M79.394,1015.209a37.959,37.959,0,0,0-22.428,0q2.167,18.169,4.336,36.337a23.278,23.278,0,0,1,13.757,0Z"/><path class="cls-40" d="M79.394,1015.209a37.959,37.959,0,0,0-22.428,0q2.167,18.169,4.336,36.337a23.278,23.278,0,0,1,13.757,0Z"/><circle class="cls-40" cx="67.897" cy="1009.515" r="29.994"/><circle class="cls-14" cx="67.647" cy="1009.765" r="19.246"/><rect class="cls-1" x="1575.829" y="113.183" width="7" height="7"/><circle class="cls-41" cx="1579.329" cy="116.683" r="3.5"/><rect class="cls-1" x="1544.978" y="58.05" width="7" height="7"/><circle class="cls-41" cx="1548.478" cy="61.55" r="3.5"/><rect class="cls-1" x="1515.682" y="-0.065" width="7" height="7"/><circle class="cls-41" cx="1519.182" cy="3.435" r="3.5"/><rect class="cls-1" x="1453.2" y="49.12" width="7" height="7"/><circle class="cls-41" cx="1456.7" cy="52.62" r="3.5"/><rect class="cls-1" x="1421.713" y="34.023" width="7" height="7"/><circle class="cls-41" cx="1425.213" cy="37.523" r="3.5"/><rect class="cls-1" x="1372.36" y="148.749" width="7" height="7"/><circle class="cls-41" cx="1375.86" cy="152.249" r="3.5"/><rect class="cls-1" x="1311.444" y="76.001" width="7" height="7"/><circle class="cls-41" cx="1314.944" cy="79.501" r="3.5"/><rect class="cls-1" x="1278.277" y="12.1" width="7" height="7"/><circle class="cls-41" cx="1281.777" cy="15.6" r="3.5"/><rect class="cls-1" x="1252.957" y="88.304" width="7" height="7"/><circle class="cls-41" cx="1256.457" cy="91.804" r="3.5"/><rect class="cls-1" x="1205.519" y="97.418" width="7" height="7"/><circle class="cls-41" cx="1209.019" cy="100.918" r="3.5"/><rect class="cls-1" x="1159.491" y="29.116" width="7" height="7"/><circle class="cls-41" cx="1162.991" cy="32.616" r="3.5"/><rect class="cls-1" x="1127.54" y="68.742" width="7" height="7"/><circle class="cls-41" cx="1131.04" cy="72.242" r="3.5"/><rect class="cls-1" x="1061.804" y="88.726" width="7" height="7"/><circle class="cls-41" cx="1065.304" cy="92.226" r="3.5"/><rect class="cls-1" x="917.224" y="103.509" width="7" height="7"/><circle class="cls-41" cx="920.724" cy="107.009" r="3.5"/><rect class="cls-1" x="833.165" y="93.137" width="7" height="7"/><circle class="cls-41" cx="836.665" cy="96.637" r="3.5"/><rect class="cls-1" x="778.717" y="93.133" width="7" height="7"/><circle class="cls-41" cx="782.217" cy="96.633" r="3.5"/><rect class="cls-1" x="735.945" y="120.248" width="7" height="7"/><circle class="cls-41" cx="739.445" cy="123.748" r="3.5"/><rect class="cls-1" x="580.832" y="106.674" width="7" height="7"/><circle class="cls-41" cx="584.332" cy="110.174" r="3.5"/><rect class="cls-1" x="540.962" y="127.272" width="7" height="7"/><circle class="cls-41" cx="544.462" cy="130.772" r="3.5"/><rect class="cls-1" x="452.55" y="-4.784" width="7" height="7"/><circle class="cls-41" cx="456.05" cy="-1.284" r="3.5"/><rect class="cls-1" x="489.571" y="179.559" width="7" height="7"/><circle class="cls-41" cx="493.071" cy="183.059" r="3.5"/><rect class="cls-1" x="416.882" y="196.616" width="7" height="7"/><circle class="cls-41" cx="420.382" cy="200.116" r="3.5"/><rect class="cls-1" x="386.638" y="150.587" width="7" height="7"/><circle class="cls-41" cx="390.138" cy="154.087" r="3.5"/><rect class="cls-1" x="341.577" y="1.581" width="7" height="7"/><circle class="cls-41" cx="345.077" cy="5.081" r="3.5"/><rect class="cls-1" x="301.014" y="79.914" width="7" height="7"/><circle class="cls-41" cx="304.514" cy="83.414" r="3.5"/><rect class="cls-1" x="268.224" y="39.605" width="7" height="7"/><circle class="cls-41" cx="271.724" cy="43.105" r="3.5"/><rect class="cls-1" x="202.313" y="152.325" width="7" height="7"/><circle class="cls-41" cx="205.813" cy="155.825" r="3.5"/><rect class="cls-1" x="226.729" y="72.438" width="7" height="7"/><circle class="cls-41" cx="230.229" cy="75.938" r="3.5"/><path class="cls-40" d="M332.19,334.234l-1.048-6.356-3.075-11.461q-16.721,3.565-25.85,2.105t-14.472-5.939a26.251,26.251,0,0,1-5.535-6.3,11.543,11.543,0,0,0-5.757-4.927l.574-1.534a10.94,10.94,0,0,0,6.47.235q3.217-.864,8.178-2.457t11.183-3.625q6.222-2.03,8.887-2.877a10.773,10.773,0,0,0,3.779-1.836,3.879,3.879,0,0,0,1.2-2.853l3,.179a3.878,3.878,0,0,0,.162,1.337q.543,2.022,4.6,3.693t12.889-.7q5.944-1.594,7.916-4.292a2.885,2.885,0,0,0,.511-2.5q-.805-3-4.378-3.1a62.206,62.206,0,0,0-8.452.461q-4.878.553-9.682,1.382t-10.473,1.5q-5.67.669-10.767,1.016a53.685,53.685,0,0,1-10.157-.264,34.479,34.479,0,0,1-8.974-2.224,19.117,19.117,0,0,1-6.952-4.969,19.841,19.841,0,0,1-4.368-8.323,26.221,26.221,0,0,1-.871-9.491,22.506,22.506,0,0,1,2.368-8.192,29.421,29.421,0,0,1,5.13-6.961,43.387,43.387,0,0,1,7.043-5.832,64.136,64.136,0,0,1,8.555-4.727,93.339,93.339,0,0,1,15.877-5.969q7.662-2.055,11.735-2.918t9.653-1.736a56.207,56.207,0,0,1,10.317-.732,65,65,0,0,1,9.569,1.014,24.867,24.867,0,0,1,16.036,9.562,22.736,22.736,0,0,0,5.608,4.737l-.419,1.624a10.571,10.571,0,0,0-6.422-.182l-.8.214q-4.856,1.5-13.817,4.463t-11.534,3.784A9.64,9.64,0,0,0,336.1,250a3.718,3.718,0,0,0-1,2.765l-2.895-.012a3.806,3.806,0,0,0-.128-1.214q-.691-2.574-5.361-3.325a23.63,23.63,0,0,0-9.941.663q-10.3,2.763-9.212,6.809.971,3.617,16.861,1.126,3.73-.54,8.444-1.345,16.442-2.639,25.685-2.227,19.412.839,23.671,16.712a25.8,25.8,0,0,1,.436,12.4,25.384,25.384,0,0,1-4.757,10.311,40.583,40.583,0,0,1-8.758,8.132,72.972,72.972,0,0,1-23.176,10.358q-3.676.987-4.368,1.106-3.31.89-1.945,5.976l.395,1.471a22.231,22.231,0,0,0,2.135,4.651,22.174,22.174,0,0,1,2.118,4.59q.871,3.247-1.4,3.857a2.118,2.118,0,0,1-2.071-.5,4.529,4.529,0,0,1-1.3-2.279,28.341,28.341,0,0,1-.574-5.2,28.358,28.358,0,0,0-.607-5.324q-.428-1.594-.631-2.229a15.65,15.65,0,0,0-.611-1.544,2.924,2.924,0,0,0-.891-1.239,3.638,3.638,0,0,0-3.239-.314q-3.8,1.018-2.024,7.639l3.065,9.954q1.086,4.046-.079,4.358T332.19,334.234Z"/><path class="cls-40" d="M489.513,260.427l1.519,8.113q1.482,6.757,4.807,8.886l-1.029,1.526a8.462,8.462,0,0,0-6.729-1.058l-18.039,3.956q.251.853.564,2.279.762,3.471-.974,3.852t-2.592-3.524q-.258-1.179-.346-1.874L411.213,294.75q-1.488.327-1.4,5.927a46.692,46.692,0,0,0,.8,8.823,80.315,80.315,0,0,0,4.023,11.235,81.127,81.127,0,0,1,4.343,12.692q1.026,4.68-2.631,5.482-3.967.87-5.028-3.965a76.713,76.713,0,0,1-1.269-13.788,75.992,75.992,0,0,0-1.161-13.292L389.185,218.3a8.482,8.482,0,0,0-3.839-5.655l1.016-1.587a8.748,8.748,0,0,0,6.743,1.12l22.193-4.867a8.478,8.478,0,0,0,5.655-3.839l1.587,1.016a8.478,8.478,0,0,0-1.12,6.743l11.215,51.142a8.509,8.509,0,0,1-1.072,6.667l1.588,1.017q2.467-3.857,13.13-6.194l29.71-4.955q10.6-2.325,13.068-6.18l1.574.954A8.478,8.478,0,0,0,489.513,260.427Zm-13,48.851q.558,2.541-1.55,3t-2.774-2.575a27.025,27.025,0,0,1-.411-6.765q.173-4.1.167-4.422.26.593,1.177,2.406t1.4,2.812A25.757,25.757,0,0,1,476.511,309.278Z"/><path class="cls-40" d="M541.717,257.368l-2.336-7.583-.119-.688a4.039,4.039,0,0,1,3.166-2.928l51.046-8.729a8.384,8.384,0,0,0,5.771-3.506l1.466,1.035q-2.393,7.047.517,23.932a83.886,83.886,0,0,0,2.907,9.964,84.8,84.8,0,0,1,2.881,9.807,6.657,6.657,0,0,1-.183,3.8,2.367,2.367,0,0,1-1.734,1.522,2.412,2.412,0,0,1-2.2-.974,6.765,6.765,0,0,1-1.469-3.482l-1.381-13.994q-.948-5.5-3.366-7.953a6.175,6.175,0,0,0-5.733-1.878q-7.443,1.283-5.514,12.477a89.036,89.036,0,0,0,3.437,12.288,96.415,96.415,0,0,1,3.049,10.036,4.79,4.79,0,0,1-.394,3.32,2.829,2.829,0,0,1-1.969,1.466,2.792,2.792,0,0,1-2.3-.666,4.119,4.119,0,0,1-1.386-2.627l-2.312-20.145q-1.886-10.945-6.576-10.136l-4.732.943L523.1,271.137q-5.568.959-7.827,3.538-2.571,3.018-.567,14.651a98.918,98.918,0,0,0,3.825,13.606,98.867,98.867,0,0,1,3.814,13.542q1.152,6.692-3.6,7.511-5.129.884-6.313-6a70.562,70.562,0,0,1-.328-14.24,70.634,70.634,0,0,0-.339-14.3l-3.922-20.9-12.562-72.924a8.369,8.369,0,0,0-3.443-5.782l1.024-1.529a8.864,8.864,0,0,0,6.675,1.362l80.3-13.834a8.591,8.591,0,0,0,5.834-3.516l1.477,1.1q-2.279,3.228-.9,11.232l.485,2.814q1.216,7.068,4.421,9.22l-1.046,1.4q-3.676-2.65-15.247-.658l-30.835,6.793q-11.508,1.983-15.184-.668l-1.1,1.477a9.453,9.453,0,0,1,2.165,12.57l1.518.963q2.465-3.644,12.1-5.3l26.453-3.076q9.694-1.669,12.282-5.336l1.529,1.025q-2.278,3.228-.769,11.982l.42,2.439q1.154,6.693,4.379,8.97l-1.087,1.54q-3.542-2.61-13.235-.94l-25.968,5.89q-9.633,1.659-13.3-.929l-1.036,1.466q3.09,2.237,4.243,8.929l.715,4.9.23,7.688q.389,2.252,2.045,1.967T541.717,257.368Z"/><path class="cls-40" d="M606.985,188.126l-.7-8.1q-.871-6.925-3.911-9.231l1.1-1.417a8.642,8.642,0,0,0,6.542,1.671l82.676-10.4a8.6,8.6,0,0,0,5.988-3.248l1.418,1.1a8.577,8.577,0,0,0-1.6,6.6l.7,8.1q.855,6.8,3.9,9.167l-1.093,1.481q-3.2-2.539-9.557-1.74l-13.805,2.632q-6.612.831-9.873-1.7l-1.164,1.426a8.458,8.458,0,0,1,3.248,5.988l6.574,52.262q.823,6.549,3.62,19.373t3.311,16.918q.9,7.178-1.679,7.5t-3.223-4.776q-.642-5.1-.889-13.928t-.8-13.235q-.864-6.864-3.572-6.523a2.33,2.33,0,0,0-1.88,1.835,7.161,7.161,0,0,0-.367,3.181l3.1,12.977q.57,4.535-2.012,4.859a2.073,2.073,0,0,1-2.118-1.077,7.155,7.155,0,0,1-1.018-3.006,24.5,24.5,0,0,1,.409-5.9,25.24,25.24,0,0,0,.313-6.66,4.267,4.267,0,0,0-2.655-3.567,10.458,10.458,0,0,0-5.644-.634,19.837,19.837,0,0,0-6.7,2.186,16.857,16.857,0,0,0-5.746,4.912q-2.356,3.142-2.011,5.882a32.347,32.347,0,0,0,1.686,6.536,31.923,31.923,0,0,1,1.67,6.41q.329,2.613-2,2.906-2.645.333-3-2.469a32.419,32.419,0,0,1,.117-7.21,31.3,31.3,0,0,0,.2-6.55l-2.059-16.371q-4.215-34.521-6.377-51.712a8.448,8.448,0,0,1,1.6-6.6l-1.418-1.1q-2.414,3.182-8.837,3.989l-13.64.885q-6.486.815-9.018,4.076l-1.426-1.164A8.5,8.5,0,0,0,606.985,188.126Zm66.751,92.346a57.968,57.968,0,0,1,3.024,11.837q.278,2.2-1.3,2.4t-1.827-1.817A50.863,50.863,0,0,1,673.736,280.472Z"/><path class="cls-40" d="M714.167,174.953l-.342-8.122q-.566-6.958-3.5-9.394l1.162-1.368a8.645,8.645,0,0,0,6.462,1.958L801,151.275a8.592,8.592,0,0,0,6.125-2.981l1.368,1.162a8.581,8.581,0,0,0-1.889,6.521l.342,8.122q.555,6.831,3.5,9.331l-1.157,1.431q-3.082-2.678-9.472-2.159l-13.907,2.022q-6.642.54-9.788-2.133l-1.225,1.373a8.459,8.459,0,0,1,2.981,6.124l4.268,52.5q.535,6.579,2.764,19.514t2.564,17.046q.586,7.212-2.007,7.422t-3.01-4.913q-.417-5.122-.275-13.953t-.218-13.258q-.561-6.9-3.28-6.674a2.328,2.328,0,0,0-1.959,1.751,7.148,7.148,0,0,0-.508,3.161l2.53,13.1q.37,4.554-2.223,4.765a2.072,2.072,0,0,1-2.069-1.169,7.167,7.167,0,0,1-.885-3.048,24.572,24.572,0,0,1,.669-5.88,25.286,25.286,0,0,0,.606-6.64,4.269,4.269,0,0,0-2.5-3.681,10.475,10.475,0,0,0-5.611-.881,19.823,19.823,0,0,0-6.787,1.89,16.844,16.844,0,0,0-5.957,4.654q-2.491,3.034-2.267,5.787a32.272,32.272,0,0,0,1.4,6.6,31.9,31.9,0,0,1,1.386,6.478q.213,2.625-2.127,2.815-2.657.216-2.885-2.6a32.325,32.325,0,0,1,.433-7.2,31.3,31.3,0,0,0,.488-6.534l-1.337-16.446q-2.692-34.674-4.1-51.942a8.453,8.453,0,0,1,1.89-6.521L745.5,175.08q-2.553,3.072-9,3.6l-13.666.283q-6.516.529-9.188,3.676l-1.374-1.226A8.5,8.5,0,0,0,714.167,174.953Zm62.625,95.193a58.006,58.006,0,0,1,2.5,11.958q.18,2.214-1.4,2.342t-1.745-1.9A50.855,50.855,0,0,1,776.792,270.146Z"/><path class="cls-40" d="M863.852,222.535l-1.293-7.828-.025-.7a4.042,4.042,0,0,1,3.532-2.475l51.756-1.768a8.388,8.388,0,0,0,6.192-2.7l1.313,1.223q-3.321,6.66-2.714,23.783a83.8,83.8,0,0,0,1.538,10.265,84.861,84.861,0,0,1,1.532,10.106,6.662,6.662,0,0,1-.693,3.74,2.367,2.367,0,0,1-1.924,1.274,2.414,2.414,0,0,1-2.045-1.261,6.767,6.767,0,0,1-.986-3.648l.519-14.052q-.2-5.583-2.264-8.334a6.17,6.17,0,0,0-5.427-2.634q-7.548.266-7.146,11.619a88.914,88.914,0,0,0,1.749,12.639,96.75,96.75,0,0,1,1.669,10.356,4.791,4.791,0,0,1-.838,3.236,2.825,2.825,0,0,1-2.149,1.187,2.787,2.787,0,0,1-2.193-.97,4.121,4.121,0,0,1-1.02-2.789l.425-20.273q-.391-11.1-5.149-10.931l-4.816.3-49.851,1.764q-5.644.2-8.232,2.451-2.955,2.643-2.537,14.441a98.89,98.89,0,0,0,1.956,14,98.952,98.952,0,0,1,1.954,13.933q.24,6.786-4.58,6.957-5.2.183-5.448-6.793a70.629,70.629,0,0,1,1.595-14.154,70.646,70.646,0,0,0,1.592-14.217l-1.069-21.236L826.158,155.1a8.369,8.369,0,0,0-2.633-6.193l1.222-1.377a8.864,8.864,0,0,0,6.43,2.249l81.435-2.882a8.6,8.6,0,0,0,6.255-2.7l1.316,1.287q-2.692,2.89-2.4,11.007l.1,2.854q.253,7.168,3.139,9.732l-1.226,1.25q-3.287-3.122-15.019-2.707l-31.47,2.574q-11.67.414-14.955-2.709l-1.287,1.316a9.455,9.455,0,0,1,.451,12.748l1.374,1.158q2.933-3.279,12.7-3.625l26.626.519q9.831-.35,12.89-3.632l1.377,1.222q-2.692,2.889-2.377,11.768l.087,2.474q.24,6.788,3.129,9.478l-1.284,1.379q-3.158-3.063-12.988-2.716l-26.524,2.336q-9.768.346-13.051-2.713l-1.223,1.313q2.759,2.634,3,9.42l.048,4.951-.809,7.649q.081,2.283,1.762,2.224T863.852,222.535Z"/><path class="cls-40" d="M975.978,205l-.659,12.939a47.287,47.287,0,0,0,1.562,10.332,47.17,47.17,0,0,1,1.563,10.109,54.581,54.581,0,0,0,.973,9.183,55.471,55.471,0,0,1,.968,9.5q-.043,3.584-3.119,3.549t-3.037-3.558a53.2,53.2,0,0,1,1.219-9.379,52.159,52.159,0,0,0,1.213-8.776,7.959,7.959,0,0,0-1.969-5.322,6.151,6.151,0,0,0-4.795-2.436q-6.346-.075-6.525,15.346a91.348,91.348,0,0,0,.825,10.863,91.784,91.784,0,0,1,.837,9.91q-.061,5.2-3.171,5.168a2.722,2.722,0,0,1-2.426-1.393,7.363,7.363,0,0,1-.812-3.913,68.335,68.335,0,0,1,1.219-9.252,67.793,67.793,0,0,0,1.224-9.76,44.882,44.882,0,0,0-.282-5.747,36.768,36.768,0,0,0-1.2-5.789,11.11,11.11,0,0,0-2.861-5.016,7.146,7.146,0,0,0-5.118-1.963,7.527,7.527,0,0,0-5.68,2.662q-2.539,2.7-2.567,5.143a16.109,16.109,0,0,0,.83,5.119,14.214,14.214,0,0,1,.84,4.135q-.033,2.792-2.1,2.768T940.9,246.6l1.641-10.136.878-80.783A17.864,17.864,0,0,0,939,143.13l1.284-1.255a18.154,18.154,0,0,0,12.449,4.652l73.231.853a18.161,18.161,0,0,0,12.555-4.359l1.253,1.283a16.773,16.773,0,0,0-4.638,11.37,45.165,45.165,0,0,0,.71,9.846,15.633,15.633,0,0,0,3.6,6.77l-1.284,1.254a10.111,10.111,0,0,0-8.324-4.6l-48.165-.562a8.527,8.527,0,0,1-6.064-2.482l-1.219,1.192a9.061,9.061,0,0,1-.144,12.311l1.192,1.22a9.741,9.741,0,0,1,5.075-2.543,37.427,37.427,0,0,1,7.019-.49l24.1,1.614a48.072,48.072,0,0,0,10.45-.894,16.044,16.044,0,0,0,7.822-4.034l1.254,1.284q-4.82,5.148-4.927,14.35t4.218,13.821l-1.347,1.254q-5.715-5.208-18.6-5.358l-23.749,1.056q-8.7-.1-11.83-3.311l-1.221,1.255A8.717,8.717,0,0,1,975.978,205Z"/><path class="cls-40" d="M1088.762,224.112l-.552-7.915.041-.7a4.041,4.041,0,0,1,3.749-2.132l51.693,3.1a8.378,8.378,0,0,0,6.417-2.1l1.193,1.341q-3.932,6.318-4.937,23.423a83.962,83.962,0,0,0,.567,10.364,85.31,85.31,0,0,1,.576,10.2,6.677,6.677,0,0,1-1.041,3.658,2.372,2.372,0,0,1-2.035,1.088,2.414,2.414,0,0,1-1.918-1.448,6.767,6.767,0,0,1-.639-3.724l1.837-13.942q.329-5.576-1.471-8.51a6.177,6.177,0,0,0-5.156-3.132q-7.539-.444-8.2,10.9a88.815,88.815,0,0,0,.554,12.747,96.353,96.353,0,0,1,.687,10.467,4.786,4.786,0,0,1-1.139,3.143,2.823,2.823,0,0,1-2.251.98,2.788,2.788,0,0,1-2.091-1.172,4.116,4.116,0,0,1-.753-2.873l2.328-20.143q.651-11.086-4.1-11.366l-4.822-.156-49.8-2.928q-5.64-.332-8.426,1.666-3.19,2.353-3.883,14.139a98.922,98.922,0,0,0,.632,14.119,98.74,98.74,0,0,1,.636,14.055q-.4,6.779-5.213,6.5-5.2-.306-4.786-7.275a70.624,70.624,0,0,1,2.918-13.941,70.666,70.666,0,0,0,2.921-14.005l.932-21.242,4.342-73.871a8.363,8.363,0,0,0-2.038-6.413l1.345-1.256a8.861,8.861,0,0,0,6.19,2.843l81.346,4.783a8.593,8.593,0,0,0,6.481-2.1l1.189,1.405q-2.954,2.625-3.429,10.733l-.167,2.851q-.421,7.159,2.21,9.984l-1.338,1.129q-2.977-3.417-14.7-4.106l-31.572-.394q-11.658-.686-14.635-4.1l-1.4,1.189a9.458,9.458,0,0,1-.748,12.734l1.259,1.282q3.228-2.988,12.984-2.415L1127,184.593q9.821.578,13.174-2.4l1.256,1.346q-2.952,2.624-3.473,11.493l-.146,2.471q-.4,6.78,2.226,9.73l-1.409,1.252q-2.854-3.346-12.674-3.924l-26.628-.167q-9.756-.573-12.737-3.927l-1.342,1.192q2.5,2.881,2.1,9.66l-.418,4.934-1.524,7.539q-.135,2.281,1.545,2.379T1088.762,224.112Z"/><path class="cls-40" d="M1201.221,262.08l1.317-6.306,1.272-11.8q-16.88-2.712-24.867-7.371t-11.35-10.765a26.237,26.237,0,0,1-2.886-7.875,11.545,11.545,0,0,0-3.589-6.674l1.089-1.223a10.936,10.936,0,0,0,5.948,2.556q3.312.357,8.514.662t11.737.658q6.537.354,9.327.526a10.783,10.783,0,0,0,4.186-.346,3.883,3.883,0,0,0,2.155-2.226l2.738,1.252a3.871,3.871,0,0,0-.333,1.305q-.224,2.082,2.961,5.107t12.271,4q6.12.66,8.932-1.144a2.882,2.882,0,0,0,1.38-2.149q.333-3.092-2.965-4.468a62.33,62.33,0,0,0-8.047-2.623q-4.749-1.244-9.529-2.207t-10.306-2.387q-5.529-1.425-10.407-2.94a53.632,53.632,0,0,1-9.376-3.915,34.5,34.5,0,0,1-7.566-5.315,19.112,19.112,0,0,1-4.688-7.144,19.845,19.845,0,0,1-1.068-9.338,26.212,26.212,0,0,1,2.615-9.165,22.478,22.478,0,0,1,5.168-6.784,29.389,29.389,0,0,1,7.3-4.64,43.541,43.541,0,0,1,8.674-2.895,64.3,64.3,0,0,1,9.685-1.318,93.3,93.3,0,0,1,16.961.168q7.887.849,12,1.515t9.628,1.868a56.245,56.245,0,0,1,9.885,3.044,65,65,0,0,1,8.558,4.4,24.863,24.863,0,0,1,11.5,14.707,22.746,22.746,0,0,0,3.52,6.444l-.978,1.363a10.562,10.562,0,0,0-5.923-2.49l-.82-.088q-5.07-.354-14.5-.828t-12.123-.636a9.647,9.647,0,0,0-3.931.342,3.726,3.726,0,0,0-1.931,2.218l-2.694-1.056a3.752,3.752,0,0,0,.318-1.179q.287-2.649-3.8-5.036a23.637,23.637,0,0,0-9.51-2.972q-10.6-1.141-11.049,3.023-.4,3.723,15.315,7.139,3.677.843,8.361,1.8,16.284,3.477,24.757,7.2,17.8,7.791,16.038,24.132a25.783,25.783,0,0,1-4.072,11.721,25.384,25.384,0,0,1-8.159,7.9,40.6,40.6,0,0,1-11.1,4.421,73,73,0,0,1-25.352,1.289q-3.786-.408-4.473-.546-3.408-.366-3.972,4.87l-.163,1.515a22.254,22.254,0,0,0,.311,5.108,22.25,22.25,0,0,1,.319,5.045q-.361,3.343-2.7,3.093a2.124,2.124,0,0,1-1.753-1.211,4.531,4.531,0,0,1-.39-2.6,28.272,28.272,0,0,1,1.344-5.057,28.27,28.27,0,0,0,1.355-5.184q.177-1.641.217-2.306a15.372,15.372,0,0,0-.013-1.661,2.912,2.912,0,0,0-.383-1.478,3.634,3.634,0,0,0-2.906-1.462q-3.913-.422-4.646,6.393l-.737,10.389q-.448,4.164-1.647,4.035T1201.221,262.08Z"/><path class="cls-40" d="M1289.554,184.964l1.56-7.979q1.071-6.9-1.216-9.95l1.45-1.06a8.642,8.642,0,0,0,5.828,3.41l82.34,12.788a8.6,8.6,0,0,0,6.651-1.471l1.06,1.448a8.578,8.578,0,0,0-3.358,5.9l-1.56,7.978q-1.053,6.772,1.226,9.888l-1.459,1.122q-2.375-3.321-8.708-4.307l-13.995-1.274q-6.587-1.023-9.021-4.355l-1.512,1.049a8.463,8.463,0,0,1,1.472,6.651l-8.084,52.05q-1.014,6.523-1.86,19.621t-1.479,17.175q-1.111,7.15-3.682,6.75t-1.782-5.479q.789-5.079,2.984-13.633t2.878-12.944q1.062-6.837-1.635-7.255a2.33,2.33,0,0,0-2.313,1.246,7.156,7.156,0,0,0-1.23,2.957l-.593,13.33q-.7,4.515-3.273,4.116a2.072,2.072,0,0,1-1.739-1.619,7.167,7.167,0,0,1-.15-3.17,24.543,24.543,0,0,1,2.02-5.563,25.272,25.272,0,0,0,2.137-6.315,4.266,4.266,0,0,0-1.57-4.161,10.459,10.459,0,0,0-5.251-2.165,19.815,19.815,0,0,0-7.04.255,16.869,16.869,0,0,0-6.878,3.139q-3.129,2.372-3.553,5.1a32.321,32.321,0,0,0-.181,6.747,31.873,31.873,0,0,1-.162,6.622q-.4,2.6-2.724,2.243-2.634-.41-2.2-3.2a32.281,32.281,0,0,1,2.1-6.9,31.355,31.355,0,0,0,2-6.241l2.532-16.305q5.463-34.345,8.121-51.466a8.45,8.45,0,0,1,3.358-5.9L1320,192.39q-3.2,2.393-9.594,1.4l-13.356-2.91q-6.461-1-9.792,1.434l-1.05-1.512A8.5,8.5,0,0,0,1289.554,184.964Zm38.717,107.166a57.92,57.92,0,0,1-.355,12.211q-.342,2.194-1.908,1.951t-1.257-2.25A50.981,50.981,0,0,1,1328.271,292.13Z"/><path class="cls-40" d="M1424.039,266.1l.564-7.915.137-.685a4.044,4.044,0,0,1,4.011-1.585l50.748,10.316a8.381,8.381,0,0,0,6.648-1.182l.994,1.5q-4.779,5.7-8.171,22.5a83.765,83.765,0,0,0-.891,10.341,85,85,0,0,1-.86,10.186,6.651,6.651,0,0,1-1.544,3.475,2.367,2.367,0,0,1-2.167.793,2.416,2.416,0,0,1-1.7-1.7,6.789,6.789,0,0,1-.111-3.778l3.773-13.547q1.106-5.474-.263-8.631a6.176,6.176,0,0,0-4.667-3.824q-7.4-1.5-9.651,9.64a88.728,88.728,0,0,0-1.239,12.7,96.463,96.463,0,0,1-.785,10.46,4.791,4.791,0,0,1-1.568,2.953,2.829,2.829,0,0,1-2.365.655,2.792,2.792,0,0,1-1.909-1.454,4.124,4.124,0,0,1-.342-2.95l5.127-19.618q2.2-10.887-2.465-11.828l-4.753-.831-48.895-9.877q-5.537-1.119-8.576.469-3.488,1.884-5.826,13.455a99.055,99.055,0,0,0-1.353,14.068,98.652,98.652,0,0,1-1.34,14.006q-1.344,6.656-6.072,5.7-5.1-1.03-3.719-7.873a70.56,70.56,0,0,1,4.843-13.4,70.694,70.694,0,0,0,4.855-13.457l3.9-20.9,14.653-72.533a8.369,8.369,0,0,0-1.121-6.636l1.509-1.055a8.865,8.865,0,0,0,5.731,3.683l79.873,16.135a8.6,8.6,0,0,0,6.711-1.17l.98,1.558q-3.291,2.184-4.9,10.146l-.566,2.8q-1.42,7.03.789,10.194l-1.483.931q-2.47-3.8-13.978-6.125l-31.2-4.815q-11.448-2.311-13.916-6.113l-1.557.98a9.456,9.456,0,0,1-2.526,12.5l1.068,1.446q3.614-2.506,13.194-.572l25.775,6.7q9.642,1.947,13.381-.535l1.055,1.508q-3.291,2.185-5.05,10.893l-.489,2.427q-1.345,6.657.839,9.946l-1.571,1.042q-2.356-3.713-12-5.661l-26.34-3.9q-9.582-1.935-12.063-5.674l-1.495.993q2.073,3.2.728,9.859l-1.105,4.827-2.565,7.251q-.453,2.239,1.2,2.573T1424.039,266.1Z"/><path class="cls-40" d="M1515.935,316.982l5.71-16.294a3.883,3.883,0,0,0-1.387-3.822,18.468,18.468,0,0,0-8.342-4.28q-7.013-1.781-10.36.315a5.191,5.191,0,0,0-2.083,3.3,43.34,43.34,0,0,0-.686,8.632,43.455,43.455,0,0,1-.7,8.694,7.561,7.561,0,0,1-1.876,3.649,2.98,2.98,0,0,1-2.981.782,3.053,3.053,0,0,1-2.279-2.117,7.438,7.438,0,0,1,.07-4.141,42.537,42.537,0,0,1,3.663-8.105,42.632,42.632,0,0,0,3.819-8.721l19.09-75.428a17.864,17.864,0,0,0-1.352-13.242l1.62-.964a18.158,18.158,0,0,0,10.994,7.507l18.391,4.67a21.091,21.091,0,0,0,6.916.742,8.438,8.438,0,0,0,5.359-2.666l1.78,1.5a19.233,19.233,0,0,0-3.428,6.79q-.7,2.768,6.189,16.37,8.984,17.734,11.348,23.638a36.581,36.581,0,0,1,2.69,9.261l3.691.937q-1.891-5.194.156-13.252a103.691,103.691,0,0,1,3.775-10.991,103.807,103.807,0,0,0,3.773-10.992q2.562-10.086-3.07-14.726l1.62-.964a18.154,18.154,0,0,0,10.993,7.507l12.61,3.2a18.149,18.149,0,0,0,13.242-1.352l.9,1.6a18.147,18.147,0,0,0-7.445,11.008l-19.2,75.073a39.506,39.506,0,0,0-.777,8.217,39.433,39.433,0,0,1-.777,8.216q-1,3.936-4.014,3.171t-2.014-4.7a37.84,37.84,0,0,1,3.1-7.3,38.035,38.035,0,0,0,2.918-6.592,3.039,3.039,0,0,0-.551-2.988,4.538,4.538,0,0,0-2.195-1.409l-24.3-6.17q-5.166-1.312-7.557,8.1a65.105,65.105,0,0,0-1.4,11.593,65.06,65.06,0,0,1-1.374,11.469q-1.359,5.352-5.357,4.336t-2.624-6.428a48.72,48.72,0,0,1,4.115-9.628,52.759,52.759,0,0,0,4.144-9.489l2.2-8.15q1.636-5.673.721-7.739l-19.981-44.82q-.78-1.833-.959-7.053l-3.783-.83a10.754,10.754,0,0,1,1.324,8.193l-8.92,35.123-6.736,31.421a2.653,2.653,0,0,1-1.014,1.543,2.028,2.028,0,0,1-1.779.3,2.163,2.163,0,0,1-1.481-1.261,2.984,2.984,0,0,1-.2-2.047l6.737-23.433a2.043,2.043,0,0,0-.21-1.494,1.743,1.743,0,0,0-1.135-.943q-1.6-.406-2.225,2.055a64.771,64.771,0,0,0-1.216,8.268,64.731,64.731,0,0,1-1.122,7.9q-1.187,4.674-3.494,4.089T1515.935,316.982Z"/><g class="cls-31"><path class="cls-42" d="M1875.252,34.092a34.24,34.24,0,0,0,21.375,6.1C1809.283,379.6,1702,646.137,1582.408,838.955c-66.271-52.391-124.335-112.172-173.534-171.26C1582.634,578.53,1745.262,366.659,1875.252,34.092Z"/></g><g class="cls-33"><path class="cls-43" d="M1878.56,19.637c-9.3.662-17.469-.871-24.427-4.467-175.811,285.1-393.519,459.021-633.188,518.3,39.91,46.455,91.339,93.581,153.685,137.429C1569.126,545.789,1741.242,327.931,1878.56,19.637Z"/></g><g class="cls-35"><path class="cls-44" d="M1860.647,51.766A32.291,32.291,0,0,1,1841.56,45C1674.725,296.488,1441.7,445.972,1161,486.6c26.173,37.274,66.134,74.861,119.177,110.54C1525.117,510.714,1723.265,327.14,1860.647,51.766Z"/></g><g class="cls-37"><path class="cls-45" d="M1892.942,26.8c-9.972,2.6-19.011,2.826-27.013.861C1710.935,334.689,1518.113,526.268,1308,599.6A1137.016,1137.016,0,0,0,1489.2,754.193C1644.5,594.052,1782.331,351.088,1892.942,26.8Z"/></g><path class="cls-46" d="M1809.8,67.379c26.067,6.188,54.32,12.131,84.431,17.45,18.028-35.721,29.781-72.645,36.844-110.44-18.38-3.118-36.067-6.265-52.747-9.327A443.383,443.383,0,0,1,1809.8,67.379Z"/><rect class="cls-1" x="82.772" y="1052.246" width="7" height="7"/><circle class="cls-41" cx="86.272" cy="1055.746" r="3.5"/><image class="cls-29" width="431" height="431" transform="translate(21.289 1002.766)" xlink:href="Startsk%C3%A6rm_settings2.png"/><path class="cls-47" d="M1393.931,997.068c-81.84,13.512-164.918,15.843-246.758,6.06V845.57c81.84-9.783,164.918-7.452,246.758,6.06Z"/><path class="cls-47" d="M1225.873,847.781q-7.137.923-14.247,2.092-4.71-33.089-9.418-66.176,8.255-1.019,16.53-1.753Q1222.3,814.863,1225.873,847.781Z"/><path class="cls-47" d="M1330.414,847.328q-7.167-.864-14.35-1.481,3.307-30.984,6.616-61.969,8.23,1.041,16.428,2.364Q1334.76,816.785,1330.414,847.328Z"/><path class="cls-47" d="M1321.381,796.05a473.262,473.262,0,0,0-117.323.646q-.925-6.5-1.85-13a485.892,485.892,0,0,1,120.472.181Z"/><path class="cls-48" d="M1257.86,900.389q-.183-7.44-.364-14.879l-.36-14.876q7.6,3.7,14.936,7.5T1286.5,885.8q-7.4,3.239-14.569,6.888T1257.86,900.389Z"/><path class="cls-49" d="M1295.038,886.192c-.933,12.826-12.548,22.956-25.9,23.6a25,25,0,0,1-25.941-23.6c-1.02-14.041,10.593-25.81,25.9-25.181C1284.394,861.624,1295.975,873.393,1295.038,886.192Z"/><path class="cls-50" d="M1150.627,814.364c-19,.354-34.091,15.6-33.747,34.081"/><path class="cls-50" d="M1141.061,784.935c-32,5.986-53.185,36.026-47.361,67.163"/><path class="cls-50" d="M1129.229,758.1c-44.168,11.489-70.863,55.56-59.685,98.535"/><path class="cls-50" d="M1384.342,814.364c19,.354,34.091,15.6,33.748,34.081"/><path class="cls-50" d="M1393.908,784.935c32,5.986,53.185,36.026,47.361,67.163"/><path class="cls-50" d="M1405.74,758.1c44.168,11.489,70.863,55.56,59.685,98.535"/><path d="M1249.483,943.3c1.836,20.462-16.484,38.285-40.661,41.605-24.152,3.282-44.158-12.255-45.008-36.493-.85-24.191,17.3-44.8,40.5-44.3C1227.478,904.569,1247.657,922.886,1249.483,943.3Z"/><path d="M1327.274,986.946c-23.327-5.818-38.385-29.132-31.606-51.219,6.712-22.085,30.231-36.188,50.562-32.469,20.39,3.731,32.149,25.846,28.418,50.062C1370.878,977.5,1350.652,992.793,1327.274,986.946Z"/><g class="cls-2"><g class="cls-2"><g class="cls-51"><g class="cls-2"><path class="cls-16" d="M324.486,853.263l-66.421-36.051a93.711,93.711,0,0,1,36.416,1.645L360.9,854.908a93.711,93.711,0,0,0-36.416-1.645"/><path class="cls-17" d="M360.9,854.908l-66.421-36.051a71.287,71.287,0,0,1,13.575,4.967l66.421,36.051a71.287,71.287,0,0,0-13.575-4.967"/><path class="cls-18" d="M374.477,859.875l-66.421-36.051q1.19.584,2.337,1.206l66.421,36.051q-1.148-.622-2.337-1.206"/></g></g></g><ellipse class="cls-19" cx="324.433" cy="912.02" rx="79.636" ry="57.491" transform="translate(-256.646 137.82) rotate(-17.308)"/><g class="cls-2"><g class="cls-52"><g class="cls-2"><path class="cls-21" d="M272.051,962.959,205.63,926.908c-15.708-8.525-25.564-22.651-25.548-39.911a49.036,49.036,0,0,1,3.067-16.77l66.421,36.051a49.032,49.032,0,0,0-3.067,16.77c-.016,17.26,9.841,31.385,25.548,39.911"/><path class="cls-22" d="M249.57,906.278l-66.421-36.051a58.7,58.7,0,0,1,3.443-7.659l66.421,36.051a58.7,58.7,0,0,0-3.443,7.659"/><path class="cls-23" d="M253.013,898.619l-66.421-36.051a66.382,66.382,0,0,1,4.144-6.714l66.421,36.05a66.507,66.507,0,0,0-4.144,6.715"/><path class="cls-24" d="M257.157,891.9l-66.421-36.05a74.872,74.872,0,0,1,5.2-6.592l66.421,36.051a75.2,75.2,0,0,0-5.2,6.591"/><path class="cls-25" d="M262.357,885.313l-66.421-36.051a84.317,84.317,0,0,1,6.759-6.818L269.116,878.5a84.155,84.155,0,0,0-6.759,6.818"/><path class="cls-18" d="M269.116,878.5,202.7,842.444a93.662,93.662,0,0,1,9.362-7.4l66.421,36.051a93.662,93.662,0,0,0-9.362,7.4"/><path class="cls-17" d="M278.478,871.094l-66.421-36.051a103.231,103.231,0,0,1,14.741-8.488l66.421,36.051a103.19,103.19,0,0,0-14.741,8.488"/><path class="cls-16" d="M293.219,862.606,226.8,826.555a109.341,109.341,0,0,1,31.267-9.343l66.421,36.051a109.341,109.341,0,0,0-31.267,9.343"/></g></g></g></g><ellipse class="cls-26" cx="329.757" cy="911.238" rx="12.858" ry="9.12" transform="translate(-236.852 125.077) rotate(-15.887)"/><ellipse class="cls-26" cx="330.237" cy="911.581" rx="16.164" ry="11.465" transform="translate(-236.927 125.222) rotate(-15.887)"/><ellipse class="cls-26" cx="328.798" cy="910.553" rx="6.245" ry="4.43" transform="translate(-236.701 124.788) rotate(-15.887)"/><ellipse class="cls-26" cx="329.977" cy="912.009" rx="27.552" ry="19.543" transform="matrix(0.962, -0.274, 0.274, 0.962, -237.055, 125.167)"/><ellipse class="cls-26" cx="328.428" cy="910.595" rx="36.002" ry="25.536" transform="translate(-236.727 124.689) rotate(-15.887)"/><ellipse class="cls-26" cx="328.253" cy="909.979" rx="44.819" ry="31.789" transform="translate(-236.564 124.617) rotate(-15.887)"/><ellipse class="cls-26" cx="324.262" cy="910.718" rx="53.268" ry="37.782" transform="translate(-236.919 123.553) rotate(-15.887)"/><ellipse class="cls-26" cx="324.273" cy="910.757" rx="59.146" ry="41.951" transform="translate(-236.93 123.558) rotate(-15.887)"/><ellipse class="cls-26" cx="325.15" cy="911.678" rx="66.178" ry="46.614" transform="translate(-237.148 123.833) rotate(-15.887)"/><ellipse class="cls-26" cx="325.456" cy="911.756" rx="71.855" ry="52.45" transform="translate(-237.158 123.92) rotate(-15.887)"/><path class="cls-14" d="M180.538,993.123l221.355-.21-.053-55.338c-3.56,0-9.716-7.758-10.679.01s-17.787-10.663-18.112.017-20.641-8.718-29.415.028-12.94-8.726-21.537.02-16.387-16.489-30.934.03-16.52-16.489-16.019.015-8.8-6.788-18.232.017-24.3.023-24.3.023l-52.129.049Z"/><path class="cls-6" d="M221.4,819.618l7.136-24.287c1.08-3.676-1.548-7.716-5.841-8.977h0c-4.292-1.261-8.687.716-9.767,4.392l-7.283,24.787a13.061,13.061,0,0,1-9.893,8.9c-8.8,2-15.965,7.823-18.391,16.082L147.19,943.2c-1.7,5.8,2.444,12.183,9.221,14.174l30.442,8.943c6.777,1.991,13.717-1.129,15.423-6.933L232.442,856.7c2.489-8.469-.6-17.481-7.261-23.958A13.151,13.151,0,0,1,221.4,819.618Z"/><rect class="cls-7" x="162.346" y="867.036" width="57.414" height="57.414" transform="translate(260.238 -17.531) rotate(16.372)"/><path class="cls-8" d="M214.6,785.695h7.267a4.37,4.37,0,0,1,4.37,4.37v26.2a1.961,1.961,0,0,1-1.961,1.961H211.933a1.961,1.961,0,0,1-1.961-1.961V790.325a4.63,4.63,0,0,1,4.63-4.63Z" transform="translate(234.9 -28.96) rotate(16.372)"/><path class="cls-9" d="M171.116,885.689c-.039.133.023.223.184.27l-.058.2-1.7-.5.059-.2a.216.216,0,0,0,.152-.009.187.187,0,0,0,.1-.131l1.289-4.385-1.818-.535a.414.414,0,0,0-.21,0,.239.239,0,0,0-.155.183l-.2-.058.453-1.543.2.059a.231.231,0,0,0,.032.236.406.406,0,0,0,.177.113l4.893,1.436a.371.371,0,0,0,.209,0,.233.233,0,0,0,.156-.181l.2.057-.453,1.543-.2-.058a.234.234,0,0,0-.033-.237.4.4,0,0,0-.177-.112l-1.818-.533Z"/><path class="cls-9" d="M181.489,884.164a.212.212,0,0,0-.041-.209.657.657,0,0,0-.307-.156l-3.57-1.049-.4,1.366,2.16.635a.828.828,0,0,0,.36.04c.093-.017.164-.109.213-.279l.2.058-.5,1.719-.2-.058c.05-.169.041-.289-.025-.36a.706.706,0,0,0-.321-.172l-2.16-.635-.447,1.521,3.681,1.081a.462.462,0,0,0,.292,0,.255.255,0,0,0,.167-.179l.2.059-.444,1.51-.2-.059c.033-.109.016-.183-.05-.218a1.384,1.384,0,0,0-.263-.1l-5.136-1.509.058-.2a.227.227,0,0,0,.152-.009.194.194,0,0,0,.106-.131l1.47-5a.187.187,0,0,0-.018-.166.212.212,0,0,0-.123-.091l.058-.2,5.025,1.477a.59.59,0,0,0,.347.023.239.239,0,0,0,.15-.165l.2.058-.427,1.455Z"/><path class="cls-9" d="M188.39,890.334a.486.486,0,0,1-.059-.023.4.4,0,0,0-.059-.024,1.055,1.055,0,0,0-.353.04c-.191.04-.429.077-.715.113a5.889,5.889,0,0,1-.949.033,4.347,4.347,0,0,1-1.049-.177,5.184,5.184,0,0,1-1.282-.568,3.478,3.478,0,0,1-.97-.877,2.809,2.809,0,0,1-.506-1.148,2.921,2.921,0,0,1,1.806-3.277,3.575,3.575,0,0,1,1.3-.23,4.948,4.948,0,0,1,1.389.2,5.761,5.761,0,0,1,.993.388c.287.149.535.289.743.423a4.574,4.574,0,0,1,.485.346,1.135,1.135,0,0,0,.216.159.114.114,0,0,0,.11-.028c.036-.029.066-.052.088-.071l.125.182-1.25,1.08-.089-.109a.529.529,0,0,0,.015-.069c0-.022,0-.05.006-.081a.451.451,0,0,0-.148-.313,2.322,2.322,0,0,0-.424-.369,5.155,5.155,0,0,0-.567-.347,3.071,3.071,0,0,0-1.508-.371,2.29,2.29,0,0,0-.852.169,1.949,1.949,0,0,0-.684.475,2.073,2.073,0,0,0-.5,1.686,1.949,1.949,0,0,0,.318.77,2.294,2.294,0,0,0,.625.6,3.075,3.075,0,0,0,.849.392,3.634,3.634,0,0,0,.762.134,4.541,4.541,0,0,0,.766,0,2.35,2.35,0,0,0,.62-.13c.174-.063.275-.144.3-.239a.218.218,0,0,0,0-.145l.18-.042.385,1.38Z"/><path class="cls-9" d="M196.7,887.771c.039-.133-.022-.222-.183-.27l.058-.2,1.7.5-.058.2a.21.21,0,0,0-.152.009.186.186,0,0,0-.106.131l-1.47,5a.191.191,0,0,0,.018.167.215.215,0,0,0,.123.088l-.058.2-1.7-.5.058-.2c.161.047.262,0,.3-.127l.608-2.072-3.549-1.042-.608,2.071a.189.189,0,0,0,.016.167.223.223,0,0,0,.124.09l-.058.2L190.1,891.7l.058-.2a.188.188,0,0,0,.268-.136l1.47-5a.187.187,0,0,0-.151-.259l.058-.2,1.664.49-.058.2a.209.209,0,0,0-.153.01.185.185,0,0,0-.105.13l-.55,1.874,3.549,1.042Z"/><path class="cls-9" d="M198.683,894a.188.188,0,0,0,.268-.137l1.47-5a.188.188,0,0,0-.151-.26l.058-.2,1.884.554-.058.2c-.059-.017-.1.012-.12.084s.026.184.129.374l2.2,4.213,1.03-3.5c.039-.133-.037-.226-.228-.282l.058-.2,1.664.489-.058.2a.188.188,0,0,0-.268.137l-1.47,5a.188.188,0,0,0,.151.26l-.058.2L203.4,895.6l.058-.2c.095.028.153.009.173-.056s-.02-.154-.1-.306l-2.331-4.492-1.075,3.659c-.039.132.026.223.195.272l-.058.2-1.631-.479Z"/><path class="cls-9" d="M212.205,891.824a4.589,4.589,0,0,1,1.18.544,3.973,3.973,0,0,1,.986.882,3.089,3.089,0,0,1,.579,1.17,2.911,2.911,0,0,1-.774,2.634,3.086,3.086,0,0,1-1.12.671,3.71,3.71,0,0,1-1.3.192,5.128,5.128,0,0,1-1.283-.2,5.027,5.027,0,0,1-1.184-.529,3.669,3.669,0,0,1-.992-.865,3.072,3.072,0,0,1-.578-1.17,2.9,2.9,0,0,1,.774-2.634,3.06,3.06,0,0,1,1.119-.669,3.936,3.936,0,0,1,1.306-.209A4.571,4.571,0,0,1,212.205,891.824Zm-.3,1.014a2.864,2.864,0,0,0-.876-.113,2.628,2.628,0,0,0-.867.158,2.048,2.048,0,0,0-.726.451,1.814,1.814,0,0,0-.485,1.652,2.057,2.057,0,0,0,.366.773,2.677,2.677,0,0,0,.643.6,2.876,2.876,0,0,0,.8.378,2.919,2.919,0,0,0,.876.115,2.649,2.649,0,0,0,.866-.16,2.037,2.037,0,0,0,.726-.45,1.812,1.812,0,0,0,.486-1.653,2.07,2.07,0,0,0-.367-.772,2.653,2.653,0,0,0-.642-.6A2.877,2.877,0,0,0,211.907,892.838Z"/><path class="cls-9" d="M216.238,897.246a.14.14,0,0,0-.146.029.274.274,0,0,0-.078.121l-.2-.058.389-1.322.2.058q-.058.2.108.246l1.885.554a.139.139,0,0,0,.145-.028.271.271,0,0,0,.077-.121l.2.058-.388,1.322-.2-.058c.039-.133,0-.215-.106-.247Z"/><path class="cls-9" d="M176.846,895.872a5.965,5.965,0,0,1,.956.371,3.193,3.193,0,0,1,.76.511,1.7,1.7,0,0,1,.445.644,1.224,1.224,0,0,1,.008.788,1.053,1.053,0,0,1-.554.7,2.379,2.379,0,0,1-.888.212l-.007.022a2.231,2.231,0,0,1,.732.748,1.308,1.308,0,0,1,.075,1.068,1.382,1.382,0,0,1-.323.57,1.479,1.479,0,0,1-.569.366,2.214,2.214,0,0,1-.784.123,3.561,3.561,0,0,1-.959-.156l-4.044-1.189.058-.2c.206.061.327.024.366-.108l1.47-5c.038-.132-.044-.229-.25-.289l.058-.2Zm-1.184,4.848a1.839,1.839,0,0,0,1.06.077.712.712,0,0,0,.333-1.135,1.852,1.852,0,0,0-.934-.507l-2.105-.619-.46,1.565Zm.738-2.513a2.35,2.35,0,0,0,.857.115.628.628,0,0,0,.314-1.07,2.361,2.361,0,0,0-.783-.367l-2.105-.619-.389,1.323Z"/><path class="cls-9" d="M179.024,902.594a.341.341,0,0,0,.268-.077,2.414,2.414,0,0,0,.241-.229l3.3-3.687c.08-.081.151-.156.215-.225a.5.5,0,0,0,.123-.191.17.17,0,0,0-.032-.177.72.72,0,0,0-.146-.115l.058-.2,1.862.547-.058.2a1.035,1.035,0,0,0-.172.015c-.059.011-.1.057-.124.138a.464.464,0,0,0-.013.187c.008.067.024.156.048.266l.975,5.158a.383.383,0,0,0,.1.22,2.072,2.072,0,0,0,.182.174l-.058.2-1.94-.569.058-.2a.266.266,0,0,0,.12,0,.11.11,0,0,0,.095-.08.7.7,0,0,0,0-.312l-.179-.939-2.688-.79-.627.666a.967.967,0,0,0-.207.3c-.024.081.033.143.173.184l-.058.2-1.565-.46Zm4.757-.829-.324-2.322-1.638,1.745Z"/><path class="cls-9" d="M186.954,903.391l.157.118a.586.586,0,0,0,.08.359,1.3,1.3,0,0,0,.27.324,2.066,2.066,0,0,0,.387.27,2.25,2.25,0,0,0,.427.179,1.926,1.926,0,0,0,1.021.09.824.824,0,0,0,.515-.633l1.039-3.536a.29.29,0,0,0-.062-.282.478.478,0,0,0-.227-.163l.058-.2,2.094.615-.058.2a.581.581,0,0,0-.345,0,.289.289,0,0,0-.205.2l-1.068,3.635a1.556,1.556,0,0,1-.4.7,1.581,1.581,0,0,1-.669.378,2.357,2.357,0,0,1-.869.068,5.473,5.473,0,0,1-1.028-.207,4.181,4.181,0,0,1-.616-.229,5.03,5.03,0,0,1-.482-.254c-.138-.085-.259-.162-.363-.233a1.023,1.023,0,0,0-.264-.138.239.239,0,0,0-.238.075l-.132-.16Z"/><path class="cls-9" d="M199.338,903.773a.208.208,0,0,0-.04-.209.669.669,0,0,0-.308-.157l-3.569-1.049-.4,1.368,2.159.633a.808.808,0,0,0,.359.04c.093-.016.164-.109.214-.278l.2.059-.5,1.718-.2-.058c.049-.169.041-.289-.026-.361a.7.7,0,0,0-.321-.171l-2.159-.635-.447,1.52,3.68,1.081a.455.455,0,0,0,.294,0,.254.254,0,0,0,.166-.179l.2.058-.444,1.511-.2-.059c.032-.11.016-.182-.05-.217a1.225,1.225,0,0,0-.264-.1l-5.134-1.509.058-.2a.217.217,0,0,0,.152-.01.185.185,0,0,0,.1-.131l1.47-5a.185.185,0,0,0-.017-.166.226.226,0,0,0-.123-.09l.058-.2,5.025,1.477a.565.565,0,0,0,.346.024.242.242,0,0,0,.151-.166l.2.059-.428,1.454Z"/><path class="cls-9" d="M205.3,904.23a4.75,4.75,0,0,1,.932.376,2.268,2.268,0,0,1,.65.515,1.427,1.427,0,0,1,.319.668,1.818,1.818,0,0,1-.07.848,1.482,1.482,0,0,1-.756.986,2.412,2.412,0,0,1-1.309.178l.85,2.524a.312.312,0,0,0,.144.187,1.117,1.117,0,0,0,.185.078l-.058.2-2.06-.605.058-.2a.413.413,0,0,0,.18.018c.055-.009.087-.031.1-.068a.253.253,0,0,0-.006-.14c-.015-.056-.04-.133-.075-.232l-.708-2.075-1.575-.463-.576,1.962a.175.175,0,0,0,.027.17.5.5,0,0,0,.244.125l-.058.2-1.906-.56.058-.2c.213.062.34.027.379-.105l1.469-5c.039-.132-.049-.229-.262-.292l.058-.2Zm-1.044,2.5a3.111,3.111,0,0,0,.68.132,1.234,1.234,0,0,0,.468-.046.666.666,0,0,0,.3-.2.808.808,0,0,0,.163-.3.819.819,0,0,0,.028-.345.655.655,0,0,0-.143-.324,1.227,1.227,0,0,0-.369-.293,3.162,3.162,0,0,0-.644-.256l-1.906-.56-.479,1.631Z"/></g></g></svg>
