<svg xmlns="http://www.w3.org/2000/svg" xmlns:xlink="http://www.w3.org/1999/xlink" width="1920" height="1080" viewBox="0 0 1920 1080"><defs><style>.cls-1,.cls-12,.cls-26,.cls-42,.cls-48,.cls-53,.cls-64{fill:none;}.cls-2{isolation:isolate;}.cls-3{fill:gray;stroke:#ff7bac;}.cls-12,.cls-26,.cls-3,.cls-42,.cls-50,.cls-53,.cls-54,.cls-56,.cls-57,.cls-64{stroke-miterlimit:10;}.cls-4{opacity:0.92;fill:url(#linear-gradient);}.cls-5{fill:url(#linear-gradient-2);}.cls-6{fill:#2e3192;opacity:0.85;}.cls-7{fill:#f0ecec;}.cls-8{fill:#d4145a;}.cls-9{fill:#ed1e79;}.cls-10{fill:#42210b;}.cls-11{fill:#bfb4a6;}.cls-12,.cls-26,.cls-53,.cls-54,.cls-57,.cls-64{stroke:#000;}.cls-13{fill:#e9e0d6;}.cls-14{fill:#395931;}.cls-15{clip-path:url(#clip-path);}.cls-16{fill:#836748;}.cls-17{fill:#7f6446;}.cls-18{fill:#7b6144;}.cls-19{fill:#ad885f;}.cls-20{clip-path:url(#clip-path-2);}.cls-21{fill:#675139;}.cls-22{fill:#6b543b;}.cls-23{fill:#6f573d;}.cls-24{fill:#735a3f;}.cls-25{fill:#775e41;}.cls-26{stroke-width:0.25px;}.cls-27{clip-path:url(#clip-path-3);}.cls-28{clip-path:url(#clip-path-4);}.cls-29{opacity:0.89;}.cls-29,.cls-44,.cls-45,.cls-46{mix-blend-mode:screen;}.cls-30{fill:url(#linear-gradient-3);}.cls-31{opacity:0.29;}.cls-32{fill:url(#linear-gradient-4);}.cls-33{opacity:0.37;}.cls-34{fill:url(#linear-gradient-5);}.cls-35{opacity:0.36;}.cls-36{fill:url(#linear-gradient-6);}.cls-37{opacity:0.35;}.cls-38{fill:url(#linear-gradient-7);}.cls-39{fill:url(#linear-gradient-8);}.cls-40{fill:#efcc57;}.cls-41,.cls-50{fill:#c69c6d;}.cls-42,.cls-50{stroke:#f7931e;stroke-width:2px;}.cls-43{fill:url(#linear-gradient-9);}.cls-44{opacity:0.51;fill:url(#linear-gradient-10);}.cls-45{opacity:0.7;fill:url(#linear-gradient-11);}.cls-46{opacity:0.49;}.cls-47{fill:#fff;}.cls-48{stroke:#717171;stroke-miterlimit:1;stroke-width:0.59px;}.cls-49{opacity:0.58;}.cls-51,.cls-56,.cls-57{fill:#ff7bac;}.cls-52{fill:#231f20;}.cls-53,.cls-54{stroke-width:0.75px;}.cls-55{fill:#c1272d;}.cls-56{stroke:#1d1d1b;}.cls-56,.cls-57,.cls-64{stroke-width:0.5px;}.cls-58{fill:#f2f2f2;}.cls-59{fill:#f9a94b;}.cls-60{fill:#f15a24;}.cls-61{fill:#29abe2;}.cls-62{fill:#001300;}.cls-63{fill:#ed1c24;}.cls-65{fill:#fffffd;}.cls-66{fill:#bf5c81;}.cls-67{fill:url(#linear-gradient-12);}.cls-68{fill:url(#linear-gradient-13);}.cls-69{fill:url(#linear-gradient-14);}.cls-70{fill:url(#linear-gradient-15);}.cls-71{fill:url(#linear-gradient-16);}.cls-72{clip-path:url(#clip-path-5);}.cls-73{clip-path:url(#clip-path-6);}</style><linearGradient id="linear-gradient" x1="962.21" y1="582.11" x2="962.21" y2="-1.77" gradientUnits="userSpaceOnUse"><stop offset="0" stop-color="#fff"/><stop offset="0" stop-color="#7a76a5"/><stop offset="0" stop-color="#e9e8f0"/><stop offset="0" stop-color="#dfdee9"/><stop offset="0" stop-color="#dcdbe7"/><stop offset="0" stop-color="#b8b6cf"/><stop offset="0.23" stop-color="#8a87b0"/><stop offset="0.87" stop-color="#1b1464"/></linearGradient><linearGradient id="linear-gradient-2" x1="1108.11" y1="188.28" x2="810.85" y2="1297.69" gradientUnits="userSpaceOnUse"><stop offset="0" stop-color="#fff"/><stop offset="0" stop-color="#7a76a5"/><stop offset="0" stop-color="#e9e8f0"/><stop offset="0" stop-color="#e7e7ee"/><stop offset="0" stop-color="#e1e2e7"/><stop offset="0" stop-color="#d6d9dc"/><stop offset="0" stop-color="#c7cccb"/><stop offset="0" stop-color="#b2bcb5"/><stop offset="0" stop-color="#99a799"/><stop offset="0" stop-color="#7b8f79"/><stop offset="0" stop-color="#5a7455"/><stop offset="0" stop-color="#395931"/><stop offset="0" stop-color="#3c5b34"/><stop offset="0" stop-color="#46623f"/><stop offset="0" stop-color="#566f50"/><stop offset="0" stop-color="#6d8069"/><stop offset="0" stop-color="#8b9588"/><stop offset="0" stop-color="#afb0af"/><stop offset="0" stop-color="#b3b3b3"/><stop offset="0.01" stop-color="#a8aba7"/><stop offset="0.05" stop-color="#8a9588"/><stop offset="0.09" stop-color="#71826c"/><stop offset="0.14" stop-color="#5c7356"/><stop offset="0.2" stop-color="#4c6745"/><stop offset="0.27" stop-color="#415f3a"/><stop offset="0.36" stop-color="#3b5a33"/><stop offset="0.64" stop-color="#395931"/><stop offset="0.82" stop-color="#395931"/></linearGradient><clipPath id="clip-path"><path class="cls-1" d="M1697.35,604.93l-50.25,27.34c10.46-5.69,24.35-8.1,39.6-6L1737,599C1721.7,596.83,1707.81,599.24,1697.35,604.93Z"/></clipPath><clipPath id="clip-path-2"><path class="cls-1" d="M1726.47,709.31,1776.72,682c11.89-6.46,19.34-17.16,19.31-30.23,0-24.56-26.49-48.18-59.08-52.76l-50.25,27.33c32.59,4.58,59,28.21,59.08,52.77C1745.81,692.14,1738.36,702.84,1726.47,709.31Z"/></clipPath><clipPath id="clip-path-3"><path class="cls-1" d="M519.53,479.71l-49.16,26.75c10.23-5.57,23.82-7.93,38.74-5.83l49.16-26.74C543.35,471.79,529.76,474.15,519.53,479.71Z"/></clipPath><clipPath id="clip-path-4"><path class="cls-1" d="M548,581.83l49.16-26.75c11.63-6.32,18.92-16.79,18.89-29.57,0-24-25.92-47.14-57.8-51.62l-49.16,26.74c31.88,4.48,57.76,27.59,57.8,51.62C566.93,565,559.64,575.5,548,581.83Z"/></clipPath><linearGradient id="linear-gradient-3" x1="1632.66" y1="159.97" x2="1632.66" y2="29.99" gradientUnits="userSpaceOnUse"><stop offset="0" stop-color="#fff"/><stop offset="0" stop-color="#7a76a5"/><stop offset="0" stop-color="#e9e8f0"/><stop offset="0" stop-color="#edecf3" stop-opacity="0.82"/><stop offset="0" stop-color="#f1f0f5" stop-opacity="0.65"/><stop offset="0" stop-color="#f4f4f8" stop-opacity="0.5"/><stop offset="0" stop-color="#f7f7fa" stop-opacity="0.36"/><stop offset="0" stop-color="#faf9fb" stop-opacity="0.25"/><stop offset="0" stop-color="#fcfbfd" stop-opacity="0.16"/><stop offset="0" stop-color="#fdfdfe" stop-opacity="0.09"/><stop offset="0" stop-color="#fefefe" stop-opacity="0.04"/><stop offset="0" stop-color="#fff" stop-opacity="0.01"/><stop offset="0" stop-color="#fff" stop-opacity="0"/><stop offset="0.15" stop-color="#f7f7fa" stop-opacity="0.24"/><stop offset="0.31" stop-color="#f0f0f5" stop-opacity="0.47"/><stop offset="0.47" stop-color="#eae9f0" stop-opacity="0.66"/><stop offset="0.62" stop-color="#e5e4ed" stop-opacity="0.81"/><stop offset="0.76" stop-color="#e2e1eb" stop-opacity="0.91"/><stop offset="0.89" stop-color="#e0dfe9" stop-opacity="0.98"/><stop offset="1" stop-color="#dfdee9"/></linearGradient><linearGradient id="linear-gradient-4" x1="2485.79" y1="-1308.28" x2="3134.23" y2="-1682.65" gradientTransform="matrix(0.74, -0.68, 0.69, 0.77, -843.93, 3579.86)" gradientUnits="userSpaceOnUse"><stop offset="0" stop-color="#fff"/><stop offset="0" stop-color="#7a76a5"/><stop offset="0" stop-color="#e9e8f0"/><stop offset="0" stop-color="#dfdee9"/><stop offset="0" stop-color="#dcdbe7" stop-opacity="0"/><stop offset="0.04" stop-color="#ded0e8" stop-opacity="0.05"/><stop offset="0.1" stop-color="#e2b3eb" stop-opacity="0.18"/><stop offset="0.19" stop-color="#ea85f0" stop-opacity="0.39"/><stop offset="0.3" stop-color="#f445f7" stop-opacity="0.69"/><stop offset="0.4" stop-color="#f0f"/><stop offset="0.47" stop-color="#f0f"/><stop offset="0.89" stop-color="#f0f"/><stop offset="0.89" stop-color="#f0f"/><stop offset="0.92" stop-color="#f0f"/></linearGradient><linearGradient id="linear-gradient-5" x1="8107.52" y1="544.44" x2="8802.49" y2="143.19" gradientTransform="matrix(-1, 0.09, 0.09, 1, 8691.89, -698.63)" gradientUnits="userSpaceOnUse"><stop offset="0" stop-color="#fff"/><stop offset="0" stop-color="#7a76a5"/><stop offset="0" stop-color="#e9e8f0"/><stop offset="0" stop-color="#dfdee9"/><stop offset="0" stop-color="#dcdbe7" stop-opacity="0"/><stop offset="0.06" stop-color="#b4b3eb" stop-opacity="0.18"/><stop offset="0.13" stop-color="#8a8af0" stop-opacity="0.37"/><stop offset="0.2" stop-color="#6565f4" stop-opacity="0.54"/><stop offset="0.28" stop-color="#4646f7" stop-opacity="0.68"/><stop offset="0.36" stop-color="#2d2cfa" stop-opacity="0.8"/><stop offset="0.44" stop-color="#1919fc" stop-opacity="0.89"/><stop offset="0.53" stop-color="#0b0bfe" stop-opacity="0.95"/><stop offset="0.63" stop-color="#0303ff" stop-opacity="0.99"/><stop offset="0.77" stop-color="blue"/></linearGradient><linearGradient id="linear-gradient-6" x1="8101.88" y1="618.05" x2="8750.86" y2="73.49" gradientTransform="matrix(-1, 0.09, 0.08, 0.99, 8694.45, -664.86)" gradientUnits="userSpaceOnUse"><stop offset="0" stop-color="#fff"/><stop offset="0" stop-color="#7a76a5"/><stop offset="0" stop-color="#e9e8f0"/><stop offset="0" stop-color="#dfdee9"/><stop offset="0" stop-color="#dcdbe7" stop-opacity="0"/><stop offset="0.02" stop-color="#ddd4e2" stop-opacity="0.13"/><stop offset="0.06" stop-color="#dfc2d5" stop-opacity="0.44"/><stop offset="0.1" stop-color="#e1b4ca" stop-opacity="0.68"/><stop offset="0.13" stop-color="#e2aac3" stop-opacity="0.85"/><stop offset="0.16" stop-color="#e3a4bf" stop-opacity="0.96"/><stop offset="0.18" stop-color="#e3a2bd"/><stop offset="0.19" stop-color="#e599b3"/><stop offset="0.25" stop-color="#eb7689"/><stop offset="0.31" stop-color="#f05664"/><stop offset="0.37" stop-color="#f53b45"/><stop offset="0.44" stop-color="#f9252c"/><stop offset="0.52" stop-color="#fb1518"/><stop offset="0.61" stop-color="#fd090a"/><stop offset="0.72" stop-color="#ff0202"/><stop offset="0.92" stop-color="red"/></linearGradient><linearGradient id="linear-gradient-7" x1="8251.63" y1="888.74" x2="8869.15" y2="332.67" gradientTransform="matrix(-1, 0.01, 0.01, 1, 8762.84, -275.29)" gradientUnits="userSpaceOnUse"><stop offset="0" stop-color="#fff"/><stop offset="0" stop-color="#7a76a5"/><stop offset="0" stop-color="#e9e8f0"/><stop offset="0" stop-color="#dfdee9" stop-opacity="0"/><stop offset="0.03" stop-color="#c6d6d7" stop-opacity="0.11"/><stop offset="0.17" stop-color="#5cb189" stop-opacity="0.59"/><stop offset="0.26" stop-color="#199b58" stop-opacity="0.89"/><stop offset="0.31" stop-color="#009245"/><stop offset="0.39" stop-color="#009245"/><stop offset="0.89" stop-color="#009245"/><stop offset="0.89" stop-color="#009245"/><stop offset="0.92" stop-color="#009245"/></linearGradient><linearGradient id="linear-gradient-8" x1="220.35" y1="1050.03" x2="157.86" y2="941.8" gradientTransform="translate(28.3 -993.25) rotate(10.66)" gradientUnits="userSpaceOnUse"><stop offset="0" stop-color="#fff"/><stop offset="0" stop-color="#7a76a5"/><stop offset="0" stop-color="#e9e8f0"/><stop offset="0" stop-color="#dfdee9"/><stop offset="0" stop-color="#8a87b0"/><stop offset="0.03" stop-color="#5b5974"/><stop offset="0.11" stop-color="#464459"/><stop offset="0.39"/></linearGradient><linearGradient id="linear-gradient-9" x1="623.49" y1="879.45" x2="623.49" y2="861.45" gradientTransform="matrix(0, -1, -1, 0, 1787.64, 1221.78)" gradientUnits="userSpaceOnUse"><stop offset="0" stop-color="#656565"/><stop offset="0.62" stop-color="#1b1b1b"/><stop offset="0.63" stop-color="#545454"/><stop offset="0.98" stop-color="#3e3e3e"/></linearGradient><linearGradient id="linear-gradient-10" x1="623.49" y1="879.45" x2="623.49" y2="861.45" gradientTransform="matrix(0, -1, -1, 0, 1787.64, 1221.78)" gradientUnits="userSpaceOnUse"><stop offset="0" stop-color="#0e0e0e"/><stop offset="0.5"/><stop offset="0.52" stop-color="#010101"/><stop offset="0.73" stop-color="#0b0b0b"/><stop offset="1" stop-color="#0e0e0e"/></linearGradient><linearGradient id="linear-gradient-11" x1="614.14" y1="870.45" x2="632.84" y2="870.45" gradientTransform="matrix(0, -1, -1, 0, 1787.64, 1221.78)" gradientUnits="userSpaceOnUse"><stop offset="0" stop-color="#fff" stop-opacity="0.77"/><stop offset="0.2" stop-color="#fff" stop-opacity="0.65"/><stop offset="0.34" stop-color="#fff" stop-opacity="0.65"/><stop offset="0.35" stop-color="#fff" stop-opacity="0.65"/><stop offset="0.42" stop-color="#fff" stop-opacity="0.62"/><stop offset="0.54" stop-color="#fff" stop-opacity="0.53"/><stop offset="0.69" stop-color="#fff" stop-opacity="0.39"/><stop offset="0.85" stop-color="#fff" stop-opacity="0.2"/><stop offset="1" stop-color="#fff" stop-opacity="0"/><stop offset="1" stop-color="#7e7e7e" stop-opacity="0.09"/><stop offset="1" stop-color="#1b1b1b" stop-opacity="0.16"/></linearGradient><linearGradient id="linear-gradient-12" x1="8785.83" y1="4538.64" x2="9396.21" y2="4186.24" gradientTransform="matrix(-0.66, -0.75, -0.76, 0.7, 11017.13, 4256.87)" xlink:href="#linear-gradient-4"/><linearGradient id="linear-gradient-13" x1="-471.85" y1="1590.94" x2="210.67" y2="1196.88" gradientTransform="translate(1975.65 -986.13) rotate(11.2)" xlink:href="#linear-gradient-5"/><linearGradient id="linear-gradient-14" x1="-501.89" y1="1620.36" x2="133.88" y2="1086.88" gradientTransform="matrix(0.98, 0.19, -0.18, 0.98, 1969.6, -952.81)" xlink:href="#linear-gradient-6"/><linearGradient id="linear-gradient-15" x1="-382.84" y1="1260.81" x2="217.8" y2="719.94" gradientTransform="translate(1861.24 -572.41) rotate(6.76)" xlink:href="#linear-gradient-7"/><linearGradient id="linear-gradient-16" x1="1636.49" y1="-334.88" x2="1678.17" y2="-449.4" gradientTransform="matrix(0.92, -0.17, 0.17, 0.93, 413.25, 669.28)" gradientUnits="userSpaceOnUse"><stop offset="0" stop-color="#fff"/><stop offset="0" stop-color="#7a76a5"/><stop offset="0" stop-color="#e9e8f0"/><stop offset="0" stop-color="#dfdee9"/><stop offset="0" stop-color="#8a87b0"/><stop offset="0" stop-color="#5b5974"/><stop offset="0.07" stop-color="#464459"/><stop offset="0.3"/></linearGradient><clipPath id="clip-path-5"><path class="cls-1" d="M310.39,825l66.42,36.05c-13.82-7.5-32.18-10.67-52.32-7.82l-66.42-36C278.21,814.36,296.57,817.53,310.39,825Z"/></clipPath><clipPath id="clip-path-6"><path class="cls-1" d="M272.05,963l-66.42-36.05c-15.71-8.53-25.56-22.65-25.55-39.91,0-32.45,34.95-63.7,78-69.79l66.42,36c-43,6.09-78,37.34-78,69.79C246.49,940.31,256.34,954.43,272.05,963Z"/></clipPath></defs><title>Startskærm</title><g class="cls-2"><g id="Layer_2" data-name="Layer 2"><ellipse class="cls-3" cx="919.22" cy="1000.52" rx="140.47" ry="47.99"/><rect class="cls-4" x="2.41" y="-1.77" width="1919.59" height="583.88"/><path class="cls-5" d="M1887.61,433.17l30.39,0c-186.41-81.4-505.42-192.58-914.8-200C547.34,225,193.7,349.3.18,433.92l-7.77.22,6,645.86H1919q2.51-321.93,5-643.86Z"/><path class="cls-6" d="M1218.71,338.17l11.24-8.42c1.7-1.27,1.88-3.94.39-5.93h0c-1.49-2-4.1-2.57-5.8-1.29l-11.48,8.59a7.25,7.25,0,0,1-7.35.67c-4.57-2-9.7-1.83-13.52,1l-47.54,35.6c-2.68,2-3,6.22-.61,9.36l10.55,14.09c2.35,3.14,6.47,4.06,9.16,2.05l47.54-35.6c3.92-2.94,5.54-8,4.73-13.06A7.31,7.31,0,0,1,1218.71,338.17Z"/><rect class="cls-7" x="1163.99" y="345.98" width="31.86" height="31.86" transform="translate(762.36 -799.48) rotate(53.17)"/><path class="cls-8" d="M1223.23,320.2h0a4.37,4.37,0,0,1,4.37,4.37V336.3a2,2,0,0,1-2,2h-5.11a2,2,0,0,1-2-2V324.83a4.63,4.63,0,0,1,4.63-4.63Z" transform="translate(753.51 -847.15) rotate(53.17)"/><path class="cls-9" d="M1174.4,350.82q-.09.06,0,.18l-.1.07-.58-.79.09-.07a.12.12,0,0,0,.07.05.09.09,0,0,0,.09,0l2-1.52-.63-.84a.31.31,0,0,0-.09-.07.16.16,0,0,0-.13,0l-.07-.09.71-.53.07.09a.1.1,0,0,0-.06.11.21.21,0,0,0,0,.11l1.69,2.27.1.07a.17.17,0,0,0,.13,0l.06.09-.71.53-.07-.09a.13.13,0,0,0,.07-.11.19.19,0,0,0,0-.11l-.63-.84Z"/><path class="cls-9" d="M1179.52,353.59a.13.13,0,0,0,0-.11.36.36,0,0,0-.08-.17l-1.24-1.65-.63.47.75,1a.46.46,0,0,0,.14.14s.11,0,.19-.06l.07.1-.8.59-.07-.09c.08-.06.12-.12.11-.17a.34.34,0,0,0-.08-.18l-.75-1-.71.52,1.28,1.71a.31.31,0,0,0,.13.1.15.15,0,0,0,.13,0l.07.09-.7.53-.07-.09s.07-.08,0-.12a.51.51,0,0,0-.08-.13l-1.78-2.38.09-.07a.12.12,0,0,0,.07.05.1.1,0,0,0,.09,0l2.32-1.74a.1.1,0,0,0,0-.08.13.13,0,0,0,0-.08l.09-.07,1.75,2.33a.4.4,0,0,0,.14.13.12.12,0,0,0,.12,0l.07.09-.67.51Z"/><path class="cls-9" d="M1180.54,358.62s0,0,0,0l0,0-.17-.1a3.28,3.28,0,0,1-.36-.19,2.11,2.11,0,0,1-.43-.3,2.72,2.72,0,0,1-.41-.42,3.27,3.27,0,0,1-.38-.68,2,2,0,0,1-.14-.71,1.58,1.58,0,0,1,.16-.68,1.51,1.51,0,0,1,.5-.58,1.5,1.5,0,0,1,1.39-.28,2.1,2.1,0,0,1,.65.33,2.61,2.61,0,0,1,.55.55,2.58,2.58,0,0,1,.31.51c.08.16.15.3.2.43s.08.23.1.32a.39.39,0,0,0,0,.14s0,0,.06,0h.06V357l-.91.07V357l0,0,0,0a.26.26,0,0,0,0-.19.89.89,0,0,0-.06-.3,2.55,2.55,0,0,0-.14-.35,1.49,1.49,0,0,0-.18-.3,1.58,1.58,0,0,0-.37-.36,1.23,1.23,0,0,0-.43-.21,1,1,0,0,0-.46,0,1.12,1.12,0,0,0-.46.21,1.05,1.05,0,0,0-.32.38,1.16,1.16,0,0,0-.12.44,1.34,1.34,0,0,0,.08.48,1.88,1.88,0,0,0,.25.46,2.09,2.09,0,0,0,.29.31,3.25,3.25,0,0,0,.34.25,1.5,1.5,0,0,0,.32.15.27.27,0,0,0,.22,0,.16.16,0,0,0,0-.07l.1,0-.29.74Z"/><path class="cls-9" d="M1185.08,360.24c.06,0,.06-.1,0-.18l.09-.07.59.79-.1.07s0,0-.07-.05a.09.09,0,0,0-.09,0l-2.31,1.73a.1.1,0,0,0,0,.08.19.19,0,0,0,0,.08l-.09.07-.58-.79.09-.06a.11.11,0,0,0,.17,0l1-.72-1.23-1.64-1,.72a.14.14,0,0,0,0,.08.13.13,0,0,0,0,.08l-.09.06-.58-.77.09-.06a.11.11,0,0,0,.17,0l2.31-1.73a.11.11,0,0,0,0-.17l.09-.06.58.77-.09.06a.12.12,0,0,0-.16,0l-.87.65,1.23,1.64Z"/><path class="cls-9" d="M1183.89,363.68a.1.1,0,0,0,.16,0l2.32-1.73a.11.11,0,0,0,0-.17l.09-.07.65.88-.09.07s0,0-.08,0,0,.09-.07.21l-.42,2.6,1.62-1.21c.06,0,.06-.11,0-.2l.09-.07.57.77-.09.07c-.05-.07-.1-.08-.16,0l-2.32,1.73a.11.11,0,0,0,0,.17l-.09.07-.62-.83.09-.07c0,.05.07.06.1,0a.44.44,0,0,0,.06-.17l.45-2.77-1.69,1.26c-.06.05-.06.11,0,.19l-.1.07-.56-.76Z"/><path class="cls-9" d="M1190.62,367.2a2.63,2.63,0,0,1,.35.64,2.19,2.19,0,0,1,.14.72,1.75,1.75,0,0,1-.13.71,1.62,1.62,0,0,1-1.22.91,1.74,1.74,0,0,1-.72-.07,2,2,0,0,1-.64-.35,3.07,3.07,0,0,1-.51-.51,3.19,3.19,0,0,1-.35-.63,2.26,2.26,0,0,1-.15-.72,1.75,1.75,0,0,1,.13-.71,1.5,1.5,0,0,1,.5-.61,1.41,1.41,0,0,1,.72-.3,1.74,1.74,0,0,1,.72.07,2.38,2.38,0,0,1,.65.34A2.46,2.46,0,0,1,1190.62,367.2Zm-.47.35a1.42,1.42,0,0,0-.35-.34,1.51,1.51,0,0,0-.44-.22,1.23,1.23,0,0,0-.47,0,1,1,0,0,0-.45.19.88.88,0,0,0-.31.39,1,1,0,0,0-.1.46,1.36,1.36,0,0,0,.09.48,1.42,1.42,0,0,0,.23.44,1.62,1.62,0,0,0,.35.34,1.27,1.27,0,0,0,.44.21,1.06,1.06,0,0,0,.47,0,1,1,0,0,0,.76-.57,1.06,1.06,0,0,0,.1-.46,1.36,1.36,0,0,0-.09-.48A1.42,1.42,0,0,0,1190.15,367.55Z"/><path class="cls-9" d="M1190.61,371s0,0-.07,0l-.08,0-.07-.09.62-.46.07.1c-.07,0-.08.09,0,.14l.65.87a.1.1,0,0,0,.15,0l.07.09-.61.46-.07-.09c.06-.05.07-.09,0-.15Z"/><path class="cls-9" d="M1173.56,357.25a3,3,0,0,1,.31.48,1.51,1.51,0,0,1,.16.48.89.89,0,0,1,0,.43.64.64,0,0,1-.26.35.56.56,0,0,1-.48.13,1.28,1.28,0,0,1-.47-.2h0a1.19,1.19,0,0,1,.08.58.76.76,0,0,1-.32.5.81.81,0,0,1-.33.14.83.83,0,0,1-.38,0,1,1,0,0,1-.39-.2,2,2,0,0,1-.37-.39l-1.4-1.87.09-.07c.07.09.14.12.2.07l2.31-1.73c.06-.05.06-.12,0-.21l.09-.07Zm-2.13,1.76a1,1,0,0,0,.44.38.37.37,0,0,0,.37-.05.41.41,0,0,0,.16-.34,1.14,1.14,0,0,0-.25-.54l-.73-1-.72.54Zm1.16-.88a1.36,1.36,0,0,0,.34.34.3.3,0,0,0,.36,0,.31.31,0,0,0,.14-.34,1.26,1.26,0,0,0-.23-.42l-.73-1-.61.46Z"/><path class="cls-9" d="M1172.3,361a.19.19,0,0,0,.14.05l.19,0,2.69-.54.17,0a.22.22,0,0,0,.12-.05.09.09,0,0,0,0-.08.17.17,0,0,0,0-.1l.1-.07.64.86-.09.07-.08-.05a.08.08,0,0,0-.1,0,.19.19,0,0,0-.07.08l-.07.13-1.28,2.62a.19.19,0,0,0,0,.13.69.69,0,0,0,0,.13l-.09.07-.67-.9.09-.06,0,0a.06.06,0,0,0,.07,0,.27.27,0,0,0,.1-.14l.24-.48-.93-1.24-.5.09-.2.06s0,.08,0,.14l-.09.07-.54-.73Zm2.39,1.21.63-1.14-1.31.23Z"/><path class="cls-9" d="M1175.56,364l0,.1a.31.31,0,0,0-.09.19.93.93,0,0,0,0,.23.81.81,0,0,0,.08.25,1.16,1.16,0,0,0,.13.22,1.09,1.09,0,0,0,.42.38.46.46,0,0,0,.44-.11l1.64-1.23a.13.13,0,0,0,.06-.14.24.24,0,0,0,0-.15l.09-.07.73,1-.1.07a.29.29,0,0,0-.15-.12.16.16,0,0,0-.16,0l-1.68,1.26a.86.86,0,0,1-.41.17.87.87,0,0,1-.42-.05,1.41,1.41,0,0,1-.41-.26,3.34,3.34,0,0,1-.39-.43c-.08-.11-.14-.21-.2-.31l-.13-.27c0-.09-.06-.16-.08-.23a1.07,1.07,0,0,0-.07-.15.12.12,0,0,0-.13,0v-.12Z"/><path class="cls-9" d="M1180.93,368.23a.09.09,0,0,0,0-.1.32.32,0,0,0-.08-.17l-1.24-1.66-.63.48.75,1a.54.54,0,0,0,.14.13s.11,0,.19-.05l.07.09-.79.6-.07-.09c.07-.06.11-.12.1-.17a.34.34,0,0,0-.08-.19l-.75-1-.7.52,1.27,1.71a.22.22,0,0,0,.13.09.12.12,0,0,0,.13,0l.07.09-.7.53-.06-.1s.06-.07,0-.11a.77.77,0,0,0-.09-.13l-1.78-2.38.09-.07.08.05a.11.11,0,0,0,.09,0l2.31-1.73a.1.1,0,0,0,0-.08.11.11,0,0,0,0-.08l.1-.07,1.74,2.33a.29.29,0,0,0,.14.12.12.12,0,0,0,.13,0l.06.09-.67.51Z"/><path class="cls-9" d="M1183.43,370.42a2.73,2.73,0,0,1,.29.47,1.14,1.14,0,0,1,.11.45.69.69,0,0,1-.08.4.85.85,0,0,1-.31.35.78.78,0,0,1-.66.19,1.32,1.32,0,0,1-.64-.35l-.46,1.4a.15.15,0,0,0,0,.13l0,.1-.09.07-.71-1,.09-.07.07.07s.05,0,.07,0a.09.09,0,0,0,0-.06.59.59,0,0,0,0-.13l.37-1.16-.54-.73-.91.68a.14.14,0,0,0-.05.09.35.35,0,0,0,.07.14l-.09.06-.66-.88.09-.07c.07.1.14.13.2.08l2.32-1.73c.06,0,0-.12,0-.22l.09-.07Zm-1.3.76a1.84,1.84,0,0,0,.26.28.65.65,0,0,0,.23.14.41.41,0,0,0,.19,0,.48.48,0,0,0,.18-.08.53.53,0,0,0,.12-.14.42.42,0,0,0,.05-.2.73.73,0,0,0-.07-.25,2.23,2.23,0,0,0-.2-.33l-.66-.88-.76.57Z"/><path class="cls-10" d="M1831.68,861.27a112.3,112.3,0,0,1-88.39,3.05c-5.22-2-7.62-7.13-5.45-10.89q4.15-7.44,8.29-14.88a55.92,55.92,0,0,1,21.62-20.66c7.46-3.88,13.43-4.91,19.79-2.66,1,.34,2,.64,3,.92,6.41,1.83,13.29,6,20.86,10.18,7.38,4.38,15.45,8.75,19.84,15.5l6.44,10.12C1839.36,854.47,1836.73,858.9,1831.68,861.27Z"/><path class="cls-11" d="M1827,859c-2.16-4.13-19.72-.73-39.75-1.51-10.14-.18-19.37-1-26.69-1.06s-12.65.63-13.94,3.52c-.65,1.41.29,5.14,2.73,6.16a83.61,83.61,0,0,0,13.55,3.78,108.44,108.44,0,0,0,24.25,1.92,110.47,110.47,0,0,0,24-3.39,122.09,122.09,0,0,0,13.22-4.31C1827.38,862.89,1827.52,860.24,1827,859Z"/><path class="cls-12" d="M1825.26,857.08c-3.73,3.77-10.3,8-19.92,11.07"/><path class="cls-12" d="M1818.58,856.58c-3,4.28-8.33,8.69-16.2,12.23"/><path class="cls-12" d="M1810.83,856.94a33.9,33.9,0,0,1-11.64,12.18"/><path class="cls-12" d="M1803.18,857.25c-1.65,5.32-4.24,9.78-7.83,12.49"/><path class="cls-12" d="M1795.72,857.56a17,17,0,0,1-5.37,12.56"/><path class="cls-12" d="M1788.83,857.52c1,5,.54,9-1.16,12.67"/><path class="cls-12" d="M1791.81,863h0"/><path class="cls-12" d="M1784.92,857.52c-1.52,4.86-2.28,9.28-1,12.75"/><path class="cls-12" d="M1779.73,857.15c-1.37,4.61-1.4,9,.58,13"/><path class="cls-12" d="M1775.38,856.86c-1.42,5-.91,9.63,2.53,13.3"/><path class="cls-12" d="M1768.37,856.47a18.89,18.89,0,0,0,6.24,13.35"/><path class="cls-12" d="M1761.23,856.05a37.08,37.08,0,0,0,10.65,13.49"/><path class="cls-12" d="M1754.9,856.59c2.6,5.37,7.86,9.76,15.49,12.22"/><path class="cls-12" d="M1747.92,858.53a32,32,0,0,0,20,10.38"/><path class="cls-13" d="M1797.55,926.49a172.48,172.48,0,0,1-25.3,3.23c-9.56.53-16.54-3.82-15.44-8.55q5.14-24.2,10.28-48.38c1-4.51,5.57-7.73,10.84-8.36,2.29-.27,4.83-.46,7.59-.52a87,87,0,0,1,10.61.47c5.16.56,9.37,3.27,10,7.22q3.43,21.48,6.85,43C1813.79,918.72,1806.92,924.58,1797.55,926.49Z"/><path class="cls-12" d="M1827.25,859c-4.3,3.67-11.45,7.55-21.39,9.93"/><path class="cls-12" d="M1746.1,861.63a44.44,44.44,0,0,0,21.53,8.59"/><path class="cls-14" d="M1846,950H1742.86V916c1.66,0,4.52-4.78,5,0s8.28-6.57,8.44,0,9.61-5.37,13.71,0,6-5.37,10,0,7.63-10.15,14.42,0,7.69-10.15,7.47,0,4.09-4.18,8.49,0,11.33,0,11.33,0H1846Z"/><path class="cls-10" d="M153.83,624.41a98.23,98.23,0,0,1-77.33,2.67c-4.57-1.73-6.67-6.24-4.77-9.53q3.63-6.51,7.25-13A48.86,48.86,0,0,1,97.9,586.46c6.52-3.39,11.75-4.3,17.31-2.33.87.3,1.74.57,2.62.81,5.6,1.6,11.63,5.25,18.25,8.91,6.46,3.82,13.52,7.65,17.36,13.55l5.63,8.86C160.55,618.46,158.25,622.34,153.83,624.41Z"/><path class="cls-11" d="M149.71,622.44c-1.89-3.61-17.26-.64-34.78-1.32-8.87-.16-16.94-.87-23.35-.92s-11.07.54-12.2,3.07c-.57,1.24.26,4.51,2.39,5.4A74.19,74.19,0,0,0,93.63,632a94.75,94.75,0,0,0,21.21,1.68,96.5,96.5,0,0,0,21-3,109.86,109.86,0,0,0,11.57-3.78C150.07,625.83,150.19,623.51,149.71,622.44Z"/><path class="cls-12" d="M148.22,620.75c-3.27,3.29-9,7-17.43,9.68"/><path class="cls-12" d="M142.37,620.31c-2.64,3.75-7.29,7.6-14.18,10.7"/><path class="cls-12" d="M135.59,620.63a29.81,29.81,0,0,1-10.18,10.65"/><path class="cls-12" d="M128.9,620.9c-1.45,4.65-3.71,8.55-6.85,10.92"/><path class="cls-12" d="M122.37,621.17a14.85,14.85,0,0,1-4.7,11"/><path class="cls-12" d="M116.34,621.13a17.45,17.45,0,0,1-1,11.09"/><path class="cls-12" d="M119,626h0"/><path class="cls-12" d="M112.92,621.13c-1.33,4.25-2,8.12-.84,11.16"/><path class="cls-12" d="M108.38,620.8c-1.2,4-1.23,7.92.51,11.41"/><path class="cls-12" d="M104.58,620.55c-1.25,4.4-.8,8.43,2.2,11.64"/><path class="cls-12" d="M98.44,620.21a16.54,16.54,0,0,0,5.46,11.68"/><path class="cls-12" d="M92.19,619.84a32.37,32.37,0,0,0,9.32,11.8"/><path class="cls-12" d="M86.65,620.32c2.28,4.7,6.89,8.53,13.56,10.69"/><path class="cls-12" d="M80.55,622A28,28,0,0,0,98,631.09"/><path class="cls-13" d="M124,681.47a151.14,151.14,0,0,1-22.14,2.83c-8.36.46-14.47-3.34-13.5-7.48q4.5-21.17,9-42.33c.89-3.94,4.88-6.76,9.48-7.31,2-.24,4.23-.41,6.64-.46a76.44,76.44,0,0,1,9.29.41c4.51.49,8.2,2.87,8.79,6.32l6,37.6C138.18,674.68,132.17,679.8,124,681.47Z"/><path class="cls-12" d="M150,622.41c-3.75,3.21-10,6.6-18.71,8.68"/><path class="cls-12" d="M79,624.72a39,39,0,0,0,18.83,7.53"/><path class="cls-14" d="M166.38,702.08H76.12V672.29c1.45,0,4-4.18,4.36,0s7.25-5.75,7.38,0,8.41-4.71,12,0,5.27-4.71,8.78,0,6.67-8.89,12.61,0,6.73-8.89,6.53,0,3.59-3.66,7.43,0,9.91,0,9.91,0h21.26Z"/><path class="cls-10" d="M683.57,381.85c-11.8-.21-23-20.92-33.51-15.55-2,1.06-2.94.2-2.1-3.05s1.66-6.11,2.45-8.82c4.47-15.23,14-14.53,23.07-10.11h0c4.62,3.19,8.7,8.91,11.67,12.7,2.94,4.24,4.77,6.56,4.05,13.22-.27,2.34-.57,4.66-.89,6.88S685.84,382,683.57,381.85Z"/><path class="cls-11" d="M683,379.53c.49-2.22-6.45-5.85-14.87-14.62s-15.71-6.6-16.87-2c-.28,1,0,2.58.85,2.51,2-5.24,25.82,17.21,28.72,15.88C682.07,381.61,682.81,380.29,683,379.53Z"/><path class="cls-12" d="M682.92,378.09c-2.25,1.1-5.44.85-9.49-1.46"/><path class="cls-12" d="M680.74,376c-2.14,1.25-5,1.22-8.51-.23"/><path class="cls-12" d="M677.78,373.71a9.13,9.13,0,0,1-6.77,1"/><path class="cls-12" d="M674.72,371c-1.67,1.74-3.44,2.64-5.23,2.58"/><path class="cls-12" d="M671.64,368.21a5.43,5.43,0,0,1-4.08,3.78"/><path class="cls-12" d="M668.78,365.52a9,9,0,0,1-2.24,5.6"/><path class="cls-12" d="M667.13,364.09a10,10,0,0,0-2,5.89"/><path class="cls-12" d="M665,362.22a11.07,11.07,0,0,0-1.24,6.67"/><path class="cls-12" d="M663.15,360.88a9.7,9.7,0,0,0-.33,7.38"/><path class="cls-12" d="M660.22,359.31a17,17,0,0,0,1.36,8"/><path class="cls-12" d="M657.25,358.57a44.83,44.83,0,0,0,3.31,8.12"/><path class="cls-12" d="M654.62,359.26c.91,2.41,2.71,4.35,5.43,6.8"/><path class="cls-12" d="M651.78,361.77a46.71,46.71,0,0,0,7.3,4"/><path class="cls-13" d="M659.1,408.63c-2.46-.08-4.9-.28-7.32-.4-2.7-.18-4-3.2-2.93-6.94,3.56-13,6.74-24.69,9.56-33.41.79-2.49,2.86-3.67,5.06-2.56a16.28,16.28,0,0,1,3.1,2,33.84,33.84,0,0,1,4.11,4.1c1.92,2.26,2.93,5,2.36,7-2.1,7-4.56,14.18-7.38,24.44C664.84,405.8,661.85,408.67,659.1,408.63Z"/><path class="cls-12" d="M683.06,379.57c-2.36.88-5.6.3-9.6-2.42"/><path class="cls-12" d="M651,364a30.83,30.83,0,0,1,7.85,2.54"/><path class="cls-14" d="M681.29,417.44l-44.74-12,3.31-12.36c.72.19,2.42-1.21,2.15.58s4.24-1.43,3.67,1,4.69-.84,5.94,1.59,3.14-1.25,4.35,1.16,4.3-2.8,6.26,1.68,4.32-2.8,3.23.86,2.19-1,3.69,1,4.91,1.32,4.91,1.32l10.53,2.82Z"/><path class="cls-10" d="M629,906.43c-23.92,23-48.46-20.54-73.63-1.2-2.27,1.72-4.12,1.78-4.08-.58.17-12.81.49-24.92,1-37.87.6-14.47,9.2-28,18.7-24.88,10.66,1.82,21.15,4.47,31.46,5.58,9.19,1.35,18.59,14,21.3,23.49a290.53,290.53,0,0,0,8.23,28.31C632.48,900.79,631.16,904.35,629,906.43Z"/><path class="cls-11" d="M622.39,906.49c-1.36-3.43-15.55-5.09-32.22-16.18s-30.6-.83-30.64,6.77c0,1.58,1.81,4,3.78,3.66,2.61-1.67,15.87-1,28.82,6,13,7.35,25.68,7.19,28.08,5.07C622.53,910.89,622.74,907.87,622.39,906.49Z"/><path class="cls-12" d="M621.16,904.15a16.71,16.71,0,0,1-15.48,6.28"/><path class="cls-12" d="M615.89,902.39a15.48,15.48,0,0,1-12.45,7.51"/><path class="cls-12" d="M609.62,900.27c-2.13,4.42-5,7.24-8.61,8.59"/><path class="cls-12" d="M603.35,897.32c-1.11,5.32-2.77,9-5.23,10.55"/><path class="cls-12" d="M597.2,894.15c.34,5.52-.5,9.57-2.86,12"/><path class="cls-12" d="M591.5,891c1.44,6.15,1.58,10.65.81,14.21"/><path class="cls-12" d="M594.6,898.66h0"/><path class="cls-12" d="M588.28,889.44a34.11,34.11,0,0,0,1.23,14.49"/><path class="cls-12" d="M584,887.34a34.53,34.53,0,0,0,2.76,15.34"/><path class="cls-12" d="M580.4,886.06A28.2,28.2,0,0,0,584.93,902"/><path class="cls-12" d="M574.72,885.18a45.9,45.9,0,0,0,7.69,15.7"/><path class="cls-12" d="M569.05,885.91c3,4.19,6.79,8.9,11.27,14.21"/><path class="cls-12" d="M564.45,889c3.54,3.51,8.46,6.6,14.62,10.16"/><path class="cls-12" d="M560,895c5,.91,10.78,2.54,17.26,4.14"/><path class="cls-13" d="M607.52,964c-4.87,1.59-9.74,3.26-14.64,5.07-5.47,2.19-10.4-.68-10.9-6.65-1.77-19.78-3.25-40.08-4.43-58.83-.32-5.23,2.35-8.89,6.34-8.29a21.94,21.94,0,0,1,5.84,1.79,51.22,51.22,0,0,1,8.45,5.07c4.16,3,7.61,7.9,8.37,12.33,2.7,16.17,5.7,30,9,40.84C616.53,958.45,613,962.13,607.52,964Z"/><path class="cls-12" d="M622.6,906.45c-3.5,4-9,6.61-16.48,5"/><path class="cls-12" d="M559.72,898.78c5.4-.57,11.3.4,17.64,1.83"/><path class="cls-14" d="M649.27,974.49l-88,9.56-2.64-24.33c1.41-.15,3.49-3.83,4.24-.46s6.56-5.46,7.21-.78,7.78-4.73,11.69-1.27,4.73-4.4,8.57-.93,5.72-8,12.3-1.33,5.77-8,6.36-.7,3.18-3.36,7.25-.78,9.67-1.05,9.67-1.05l20.72-2.25Z"/><g class="cls-2"><g class="cls-2"><g class="cls-15"><g class="cls-2"><path class="cls-16" d="M1686.7,626.31,1737,599a70.9,70.9,0,0,0-27.56,1.27l-50.25,27.33a71.1,71.1,0,0,1,27.56-1.27"/><path class="cls-17" d="M1659.14,627.58l50.25-27.33a54.11,54.11,0,0,0-10.27,3.77l-50.25,27.33a54.8,54.8,0,0,1,10.27-3.77"/><path class="cls-18" d="M1648.87,631.35,1699.12,604c-.6.29-1.19.6-1.77.91l-50.25,27.34c.58-.32,1.17-.62,1.77-.92"/></g></g></g><ellipse class="cls-19" cx="1686.79" cy="670.79" rx="43.52" ry="60.28" transform="translate(545.87 2082.71) rotate(-72.75)"/><g class="cls-2"><g class="cls-20"><g class="cls-2"><path class="cls-21" d="M1726.47,709.31,1776.72,682c11.89-6.46,19.34-17.16,19.31-30.23a37.21,37.21,0,0,0-2.33-12.69l-50.25,27.34a37.21,37.21,0,0,1,2.33,12.69c0,13.06-7.42,23.76-19.31,30.23"/><path class="cls-22" d="M1743.45,666.39l50.25-27.34a44.54,44.54,0,0,0-2.61-5.79l-50.25,27.33a44.66,44.66,0,0,1,2.61,5.8"/><path class="cls-23" d="M1740.84,660.59l50.25-27.33a48.43,48.43,0,0,0-3.15-5.08l-50.24,27.33a52.37,52.37,0,0,1,3.14,5.08"/><path class="cls-24" d="M1737.7,655.51l50.24-27.33a55.23,55.23,0,0,0-3.94-5l-50.25,27.34a57.08,57.08,0,0,1,4,5"/><path class="cls-25" d="M1733.75,650.53,1784,623.19a62.13,62.13,0,0,0-5.12-5.15l-50.25,27.33a60.73,60.73,0,0,1,5.12,5.16"/><path class="cls-18" d="M1728.63,645.37,1778.88,618a70.73,70.73,0,0,0-7.09-5.6l-50.25,27.34a69.25,69.25,0,0,1,7.09,5.59"/><path class="cls-17" d="M1721.54,639.78l50.25-27.34a77.9,77.9,0,0,0-11.16-6.41l-50.25,27.33a77.94,77.94,0,0,1,11.16,6.42"/><path class="cls-16" d="M1710.38,633.36,1760.63,606a82.47,82.47,0,0,0-23.68-7l-50.25,27.33a83.11,83.11,0,0,1,23.68,7.05"/></g></g></g></g><ellipse class="cls-26" cx="1682.76" cy="670.2" rx="6.9" ry="9.73" transform="translate(578.87 2106.26) rotate(-74.17)"/><ellipse class="cls-26" cx="1682.39" cy="670.46" rx="8.68" ry="12.23" transform="translate(578.35 2106.1) rotate(-74.17)"/><ellipse class="cls-26" cx="1683.48" cy="669.68" rx="3.35" ry="4.73" transform="translate(579.9 2106.58) rotate(-74.17)"/><ellipse class="cls-26" cx="1682.59" cy="670.78" rx="14.79" ry="20.86" transform="translate(578.19 2106.53) rotate(-74.17)"/><ellipse class="cls-26" cx="1683.76" cy="669.71" rx="19.33" ry="27.25" transform="translate(580.07 2106.87) rotate(-74.17)"/><ellipse class="cls-26" cx="1683.89" cy="669.25" rx="24.06" ry="33.92" transform="translate(580.61 2106.66) rotate(-74.17)"/><ellipse class="cls-26" cx="1686.92" cy="669.8" rx="28.6" ry="40.32" transform="translate(582.27 2109.97) rotate(-74.17)"/><ellipse class="cls-26" cx="1686.91" cy="669.83" rx="31.75" ry="44.77" transform="translate(582.24 2109.99) rotate(-74.17)"/><ellipse class="cls-26" cx="1686.24" cy="670.53" rx="35.28" ry="50.09" transform="translate(581.09 2109.85) rotate(-74.17)"/><ellipse class="cls-26" cx="1686.01" cy="670.59" rx="39.7" ry="54.39" transform="translate(580.86 2109.68) rotate(-74.17)"/><path class="cls-14" d="M1795.76,732.07H1628.21V690.19c2.7,0,7.35-5.88,8.09,0s13.45-8.09,13.71,0,15.61-6.62,22.26,0,9.79-6.62,16.3,0,12.4-12.5,23.42,0,12.49-12.5,12.12,0,6.66-5.15,13.8,0,18.39,0,18.39,0h39.46Z"/><g class="cls-2"><g class="cls-2"><g class="cls-27"><g class="cls-2"><path class="cls-16" d="M509.11,500.63l49.16-26.74a69.43,69.43,0,0,0-27,1.24l-49.17,26.74a69.49,69.49,0,0,1,27-1.24"/><path class="cls-17" d="M482.14,501.87l49.17-26.74a52.48,52.48,0,0,0-10,3.69L472.1,505.56a52.63,52.63,0,0,1,10-3.69"/><path class="cls-18" d="M472.1,505.56l49.16-26.74c-.59.29-1.17.58-1.73.89l-49.16,26.75c.56-.31,1.14-.61,1.73-.9"/></g></g></g><ellipse class="cls-19" cx="509.19" cy="544.14" rx="42.57" ry="58.97" transform="translate(-161.49 869.02) rotate(-72.75)"/><g class="cls-2"><g class="cls-28"><g class="cls-2"><path class="cls-21" d="M548,581.83l49.16-26.75c11.63-6.32,18.92-16.79,18.89-29.57a36.36,36.36,0,0,0-2.28-12.42l-49.16,26.75a36.26,36.26,0,0,1,2.28,12.41c0,12.79-7.27,23.25-18.89,29.58"/><path class="cls-22" d="M564.63,539.84l49.16-26.75a43.33,43.33,0,0,0-2.56-5.67l-49.16,26.75a44.07,44.07,0,0,1,2.56,5.67"/><path class="cls-23" d="M562.07,534.17l49.16-26.75a49,49,0,0,0-3.07-5L559,529.2a50.83,50.83,0,0,1,3.07,5"/><path class="cls-24" d="M559,529.2l49.16-26.75a54.55,54.55,0,0,0-3.86-4.87l-49.16,26.74A54.67,54.67,0,0,1,559,529.2"/><path class="cls-25" d="M555.14,524.32l49.16-26.74a61.13,61.13,0,0,0-5-5.05l-49.16,26.75a59.51,59.51,0,0,1,5,5"/><path class="cls-18" d="M550.13,519.28l49.16-26.75a71.29,71.29,0,0,0-6.93-5.47L543.19,513.8a68.87,68.87,0,0,1,6.94,5.48"/><path class="cls-17" d="M543.19,513.8l49.17-26.74a76.19,76.19,0,0,0-10.93-6.28l-49.16,26.75a75.64,75.64,0,0,1,10.92,6.27"/><path class="cls-16" d="M532.27,507.53l49.16-26.75a80.63,80.63,0,0,0-23.16-6.89l-49.16,26.74a81,81,0,0,1,23.16,6.9"/></g></g></g></g><ellipse class="cls-26" cx="505.25" cy="543.57" rx="6.75" ry="9.52" transform="translate(-155.55 881.34) rotate(-74.17)"/><ellipse class="cls-26" cx="504.89" cy="543.82" rx="8.49" ry="11.97" transform="translate(-156.05 881.19) rotate(-74.17)"/><ellipse class="cls-26" cx="505.96" cy="543.06" rx="3.28" ry="4.62" transform="translate(-154.54 881.65) rotate(-74.17)"/><ellipse class="cls-26" cx="505.09" cy="544.14" rx="14.47" ry="20.4" transform="translate(-156.21 881.6) rotate(-74.17)"/><ellipse class="cls-26" cx="506.23" cy="543.09" rx="18.91" ry="26.66" transform="translate(-154.37 881.94) rotate(-74.17)"/><ellipse class="cls-26" cx="506.36" cy="542.63" rx="23.54" ry="33.19" transform="translate(-153.84 881.73) rotate(-74.17)"/><ellipse class="cls-26" cx="509.32" cy="543.18" rx="27.98" ry="39.45" transform="translate(-152.21 884.97) rotate(-74.17)"/><ellipse class="cls-26" cx="509.31" cy="543.21" rx="31.07" ry="43.8" transform="translate(-152.25 884.99) rotate(-74.17)"/><ellipse class="cls-26" cx="508.66" cy="543.89" rx="34.52" ry="49.01" transform="translate(-153.37 884.86) rotate(-74.17)"/><ellipse class="cls-26" cx="508.43" cy="543.95" rx="38.84" ry="53.21" transform="translate(-153.59 884.68) rotate(-74.17)"/><path class="cls-14" d="M615.81,604.1H451.89v-41c2.63,0,7.19-5.75,7.9,0s13.17-7.91,13.42,0,15.28-6.47,21.78,0,9.58-6.47,15.95,0,12.12-12.22,22.91,0,12.22-12.22,11.86,0,6.51-5,13.5,0,18,0,18,0h38.6Z"/><path class="cls-6" d="M1783,556.23l-5.18-23c-.78-3.48-4.74-5.58-8.81-4.67h0c-4.06.92-6.74,4.51-6,8l5.28,23.46a12.15,12.15,0,0,1-4,11.72c-6.26,5.6-9.46,13.59-7.7,21.4l21.88,97.2c1.24,5.49,7.5,8.81,13.91,7.36l28.82-6.48c6.41-1.45,10.65-7.12,9.41-12.62l-21.88-97.19c-1.8-8-8.39-14-16.74-16.21A12.25,12.25,0,0,1,1783,556.23Z"/><rect class="cls-7" x="1766" y="605.18" width="53.45" height="53.45" transform="translate(-95 409.08) rotate(-12.68)"/><path class="cls-8" d="M1769.4,528.21h6.14a4.37,4.37,0,0,1,4.37,4.37v24a2,2,0,0,1-2,2h-11.22a2,2,0,0,1-2-2v-23.7A4.63,4.63,0,0,1,1769.4,528.21Z" transform="translate(-76.06 402.44) rotate(-12.68)"/><path class="cls-9" d="M1771.91,632.7c0,.12.12.17.28.13l0,.19-1.61.36,0-.19a.19.19,0,0,0,.12-.07.2.2,0,0,0,0-.16l-.94-4.15-1.72.39a.32.32,0,0,0-.17.09.2.2,0,0,0,0,.22l-.19,0-.33-1.46.19,0c0,.1.06.16.13.18a.41.41,0,0,0,.19,0l4.64-1a.5.5,0,0,0,.17-.1.21.21,0,0,0,0-.21l.19,0,.33,1.46-.19.05a.22.22,0,0,0-.13-.18.35.35,0,0,0-.2,0l-1.72.38Z"/><path class="cls-9" d="M1779.66,626.76a.2.2,0,0,0-.12-.15.7.7,0,0,0-.32,0l-3.38.76.29,1.3,2-.46a.82.82,0,0,0,.31-.13c.07-.06.09-.17,0-.33l.19,0,.36,1.63-.18,0c0-.16-.1-.25-.19-.28a.57.57,0,0,0-.34,0l-2,.46.32,1.44,3.49-.79a.47.47,0,0,0,.24-.13.25.25,0,0,0,0-.22l.19,0,.32,1.43-.19,0c0-.1-.07-.16-.14-.16a1.66,1.66,0,0,0-.26,0l-4.86,1.09,0-.18a.2.2,0,0,0,.12-.08.19.19,0,0,0,0-.15l-1.07-4.74a.18.18,0,0,0-.09-.13.17.17,0,0,0-.14,0l0-.19,4.75-1.07a.6.6,0,0,0,.3-.14.21.21,0,0,0,0-.2l.19,0,.31,1.37Z"/><path class="cls-9" d="M1788.07,628.66H1788a1,1,0,0,0-.27.19,6.14,6.14,0,0,1-.53.42,4.49,4.49,0,0,1-.76.45,3.54,3.54,0,0,1-.93.33,4.81,4.81,0,0,1-1.3.12,3.24,3.24,0,0,1-1.18-.27,2.63,2.63,0,0,1-.94-.71,2.71,2.71,0,0,1-.54-1.16,2.62,2.62,0,0,1,.53-2.32,3.25,3.25,0,0,1,1-.77,4.68,4.68,0,0,1,1.23-.47,5.19,5.19,0,0,1,1-.13,6.71,6.71,0,0,1,.79,0,3.54,3.54,0,0,1,.56.06.66.66,0,0,0,.24,0,.11.11,0,0,0,.08-.07.69.69,0,0,0,0-.1l.18.09-.53,1.45-.12-.05a.14.14,0,0,0,0-.06.11.11,0,0,0,0-.07c0-.08-.12-.14-.26-.19a2.16,2.16,0,0,0-.51-.11,4.24,4.24,0,0,0-.62,0,2.58,2.58,0,0,0-.58.06,3,3,0,0,0-.81.31,2.15,2.15,0,0,0-.62.53,1.77,1.77,0,0,0-.34,1.53,1.85,1.85,0,0,0,.36.76,1.72,1.72,0,0,0,.6.48,2.05,2.05,0,0,0,.78.21,2.85,2.85,0,0,0,.87-.07,3.21,3.21,0,0,0,.68-.23,4.15,4.15,0,0,0,.63-.35,2.12,2.12,0,0,0,.44-.38c.11-.14.16-.25.14-.34a.16.16,0,0,0-.07-.11l.13-.12.93.95Z"/><path class="cls-9" d="M1793.67,622.82c0-.12-.12-.17-.27-.13l0-.19,1.6-.36,0,.19a.25.25,0,0,0-.12.07.19.19,0,0,0,0,.15l1.06,4.74a.22.22,0,0,0,.09.13.26.26,0,0,0,.15,0l0,.18-1.61.37,0-.19c.15,0,.21-.12.19-.24l-.45-2-3.35.75.44,2a.15.15,0,0,0,.09.13.22.22,0,0,0,.14,0l0,.19-1.57.35,0-.19a.17.17,0,0,0,.16-.23l-1.07-4.73a.18.18,0,0,0-.24-.15l0-.18,1.58-.36,0,.19a.2.2,0,0,0-.12.08.18.18,0,0,0,0,.15l.4,1.77,3.36-.75Z"/><path class="cls-9" d="M1798.11,627a.17.17,0,0,0,.15-.23L1797.2,622c0-.13-.11-.17-.24-.14l0-.19,1.79-.4,0,.18c-.06,0-.08.06-.06.13s.1.13.27.24l3.7,2.44-.75-3.32c0-.13-.13-.17-.31-.13l0-.18,1.58-.36,0,.19a.17.17,0,0,0-.15.23l1.06,4.74a.18.18,0,0,0,.24.14l0,.19-1.69.38,0-.19q.14,0,.12-.12a.54.54,0,0,0-.22-.2l-3.93-2.61.78,3.47c0,.12.12.17.28.13l0,.19-1.54.34Z"/><path class="cls-9" d="M1808.12,619.11a4,4,0,0,1,1.21-.09,3.74,3.74,0,0,1,1.2.27,3,3,0,0,1,1,.69,2.49,2.49,0,0,1,.59,1.18,2.41,2.41,0,0,1,0,1.31,2.88,2.88,0,0,1-.61,1.06,3.38,3.38,0,0,1-1,.74,5,5,0,0,1-1.13.42,4.79,4.79,0,0,1-1.21.11,3.43,3.43,0,0,1-1.19-.26,2.85,2.85,0,0,1-1-.69,2.45,2.45,0,0,1-.6-1.18,2.5,2.5,0,0,1,0-1.31,2.88,2.88,0,0,1,.6-1.05,3.83,3.83,0,0,1,1-.77A4.6,4.6,0,0,1,1808.12,619.11Zm.22,1a2.8,2.8,0,0,0-.77.3,2.91,2.91,0,0,0-.63.52,1.94,1.94,0,0,0-.39.7,1.66,1.66,0,0,0,0,.83,1.55,1.55,0,0,0,.38.73,1.87,1.87,0,0,0,.64.47,2.4,2.4,0,0,0,.8.19,2.5,2.5,0,0,0,.82,0,2.74,2.74,0,0,0,.76-.3,2.52,2.52,0,0,0,.64-.52,2.07,2.07,0,0,0,.38-.7,1.62,1.62,0,0,0,0-.82,1.54,1.54,0,0,0-.38-.74,1.9,1.9,0,0,0-.65-.47,2.54,2.54,0,0,0-.79-.19A2.49,2.49,0,0,0,1808.34,620.07Z"/><path class="cls-9" d="M1813.86,621.7a.12.12,0,0,0-.11.09.2.2,0,0,0,0,.13l-.19,0-.28-1.25.19,0c0,.13.09.18.2.15l1.78-.4a.13.13,0,0,0,.11-.09.3.3,0,0,0,0-.13l.18,0,.29,1.25-.19,0c0-.12-.1-.18-.2-.15Z"/><path class="cls-9" d="M1781.18,638.39a6.37,6.37,0,0,1,1-.13,3.18,3.18,0,0,1,.84.07,1.58,1.58,0,0,1,.66.33,1.1,1.1,0,0,1,.36.63,1,1,0,0,1-.13.83,2.18,2.18,0,0,1-.63.57v0a2.2,2.2,0,0,1,.93.28,1.42,1.42,0,0,1,.54,1.44,1.33,1.33,0,0,1-.3.56,2.08,2.08,0,0,1-.58.45,3.27,3.27,0,0,1-.85.31l-3.83.86,0-.19c.19,0,.28-.12.25-.25l-1.07-4.74q0-.18-.33-.12l0-.19Zm.69,2.1a2.3,2.3,0,0,0,.75-.29.52.52,0,0,0,.2-.58.5.5,0,0,0-.43-.43,2.06,2.06,0,0,0-.8,0l-2,.45.28,1.25Zm.54,2.38a1.67,1.67,0,0,0,.89-.42.61.61,0,0,0,.17-.6.63.63,0,0,0-.41-.47,1.73,1.73,0,0,0-1,0l-2,.45.34,1.48Z"/><path class="cls-9" d="M1786,642.88a.35.35,0,0,0,.19-.19l.09-.29,1-4.5c0-.1.06-.19.08-.28a.51.51,0,0,0,0-.21.15.15,0,0,0-.11-.13l-.17,0,0-.19,1.76-.4,0,.19a.55.55,0,0,0-.14.09.18.18,0,0,0,0,.17.6.6,0,0,0,.08.16l.16.19,3.12,3.76a.36.36,0,0,0,.18.13l.23.06,0,.19-1.84.41,0-.19a.19.19,0,0,0,.1-.05.1.1,0,0,0,0-.11.58.58,0,0,0-.14-.25l-.57-.68-2.55.57-.21.82a.92.92,0,0,0,0,.34c0,.08.09.1.22.07l0,.19-1.49.33Zm3.5-2.83-1.32-1.74-.54,2.16Z"/><path class="cls-9" d="M1792.8,639.94l.19,0a.51.51,0,0,0,.22.26,1.35,1.35,0,0,0,.37.14,2,2,0,0,0,.44,0,3,3,0,0,0,.43,0,1.86,1.86,0,0,0,.87-.39.76.76,0,0,0,.13-.75l-.75-3.34a.29.29,0,0,0-.18-.21.61.61,0,0,0-.26,0l0-.18,2-.45,0,.19a.51.51,0,0,0-.28.15.28.28,0,0,0-.08.26l.78,3.44a1.37,1.37,0,0,1-.39,1.36,2.07,2.07,0,0,1-.67.45,6.39,6.39,0,0,1-.93.29,3.6,3.6,0,0,1-.61.09,2.84,2.84,0,0,1-.5,0l-.4,0a.82.82,0,0,0-.28,0c-.08,0-.13.07-.16.16l-.18-.07Z"/><path class="cls-9" d="M1803.06,634.65a.18.18,0,0,0-.13-.15.59.59,0,0,0-.32,0l-3.38.76.29,1.29,2-.46a.74.74,0,0,0,.32-.13c.06-.05.08-.16,0-.32l.19,0,.37,1.63-.19,0c0-.16-.1-.26-.19-.28a.61.61,0,0,0-.33,0l-2,.46.32,1.44,3.49-.78a.55.55,0,0,0,.24-.13.25.25,0,0,0,0-.22l.19,0,.32,1.43-.19,0c0-.1-.07-.15-.14-.15a.91.91,0,0,0-.25,0l-4.87,1.09,0-.19a.19.19,0,0,0,.12-.07.21.21,0,0,0,0-.16l-1.07-4.73a.16.16,0,0,0-.09-.13.22.22,0,0,0-.14,0l0-.19,4.76-1.07a.52.52,0,0,0,.29-.13.26.26,0,0,0,0-.21l.18,0,.31,1.38Z"/><path class="cls-9" d="M1808.11,632.33a4,4,0,0,1,.93-.12,2,2,0,0,1,.76.13,1.26,1.26,0,0,1,.56.4,1.72,1.72,0,0,1,.33.72,1.36,1.36,0,0,1-.17,1.14,2.3,2.3,0,0,1-1,.74l1.83,1.67a.28.28,0,0,0,.2.09l.19,0,0,.18-2,.44,0-.19a.34.34,0,0,0,.16-.06.1.1,0,0,0,0-.1.23.23,0,0,0-.07-.11l-.17-.16-1.51-1.37-1.49.34.42,1.86a.14.14,0,0,0,.1.12.43.43,0,0,0,.25,0l0,.19-1.8.41,0-.19c.2,0,.29-.13.26-.26l-1.07-4.73c0-.13-.14-.17-.34-.12l0-.19Zm.28,2.5a2.42,2.42,0,0,0,.61-.2,1,1,0,0,0,.36-.25.65.65,0,0,0,.16-.29.7.7,0,0,0,0-.32,1,1,0,0,0-.13-.3.6.6,0,0,0-.27-.19,1,1,0,0,0-.43-.08,2.86,2.86,0,0,0-.64.09l-1.8.4.35,1.55Z"/><path class="cls-14" d="M1643.06,1015h-411.7V969.24c6.63,0,18.06-6.42,19.87,0s33.06-8.83,33.68,0,38.38-7.22,54.71,0,24.05-7.22,40.06,0,30.45-13.65,57.53,0,30.7-13.65,29.8,0,16.35-5.62,33.91,0,45.19,0,45.19,0h97Z"/><image class="cls-29" width="431" height="431" transform="translate(1417.57 -120.23)" xlink:href="Startsk%C3%A6rm1.png"/><circle class="cls-30" cx="1632.66" cy="94.98" r="64.99"/><g class="cls-31"><path class="cls-32" d="M40.9,50.11a33.39,33.39,0,0,1-22.1,4.2C69.08,420.49,147.37,712.1,246.09,927.41c72.21-48.23,137-105.08,192.83-162.13C274.48,653.38,134.7,413.54,40.9,50.11Z"/></g><g class="cls-33"><path class="cls-34" d="M39.17,34.56c9.25,1.66,17.61.9,25-2.16,145,318.26,344.14,523.9,577.94,611.22-45.12,44.72-101.87,89-169.2,128.6C291.63,620.34,143,373.21,39.17,34.56Z"/></g><g class="cls-35"><path class="cls-36" d="M53.6,70.23a31.64,31.64,0,0,0,19.88-5.14c139.66,282,356.88,463.49,633.88,535.45C677,637,632.82,672.42,575.71,704.44,339.61,588,161.1,374.25,53.6,70.23Z"/></g><g class="cls-37"><path class="cls-38" d="M24,40.6c9.72,3.77,18.76,4.95,27,3.72,121.68,339.16,294,560.79,496.6,659.82A1164.89,1164.89,0,0,1,348.86,847.93C210.75,663.28,99.24,393.3,24,40.6Z"/></g><path class="cls-39" d="M84.32,54.92C62.42,67.42,38.69,80.11,13.41,92.5-1.1,56.26-10.34,17.33-15.64-23.58-.22-31,14.63-38.3,28.63-45.29,42.47-9,60.73,24.76,84.32,54.92Z"/><path class="cls-40" d="M809.65,916.13c13.58-63,12.48,51.8,28.15.78s27.08,21.81,34.65,1S916.57,890.61,913,919s20.34,42.88,29.88.84,30.29,68.47,30.45.85,35.91,39.4,35.9,1,15.33-6.35,15.56-14.72l12.37-442.69A93.38,93.38,0,0,0,953,368.76a15.06,15.06,0,0,0-11.27,3.62l-9.77,8.43a15.16,15.16,0,0,1-15.64,2.54l-38.74-15.88a15,15,0,0,0-6-1.13,64.93,64.93,0,0,0-63.48,63.1L794.94,900.56C794.7,908.93,796.08,979.18,809.65,916.13Z"/><path class="cls-41" d="M1012.94,479.68c2.75,6.76-.71,15.24-8.64,18.42-8,2.9-12.63-5.59-9.95-17.13s5.15-19.28,8.56-17.61S1010.12,472.67,1012.94,479.68Z"/><ellipse class="cls-42" cx="1003.67" cy="528.84" rx="20.15" ry="38.47"/><path d="M924.17,549.84l-5.45.72c-39.66,5.82-73.89,34.12-79.34,60.62-9,47-34.24,90.06-54.2,131.22C779.6,754,789,771,807.64,788.9c18.8,17.57,46.9,36.1,81.86,41.86q4.88.84,9.78,1.53c70.92,10.15,127.77-37.2,123-67.38-7.09-54.69-25.25-105.53-32.2-161.41C985,570.84,963.09,544.07,924.17,549.84Z"/><path class="cls-41" d="M931.1,1004.63a26.81,26.81,0,0,0-9.85-4.24c-18.67-77.06-48.26-143.95-84-189.21,10.21-17,22.12-30,35.47-38.62C902.84,839.38,923.62,920.87,931.1,1004.63Z"/><path class="cls-41" d="M821.56,972.23a17.94,17.94,0,0,0,.23-7.68C871.52,913.79,910.88,862.31,933,818.74c15.08-3.28,27.76-3.5,37.69-.6C931.57,869.9,879.27,924.15,821.56,972.23Z"/><path d="M872.67,926.72c-4.26-.41-7.67-3.26-11.53-5l2.4-2.8c30-35.3,54-69.69,69.48-100.19,15.08-3.28,27.76-3.5,37.69-.6C944.36,853,912.05,889,876.14,923.42Z"/><line class="cls-1" x1="898.34" y1="925.43" x2="918.49" y2="918.11"/><path class="cls-41" d="M915.88,551.4c30.43,0,84.82,10.91,84.82-57.8,0-74-54.39-103.31-84.82-103.31s-55.09,75.58-55.09,106A55.09,55.09,0,0,0,915.88,551.4Z"/><path class="cls-41" d="M924.17,549.84l-5.45.72c-39.66,5.82-73.89,34.12-79.34,60.62-9,47-34.24,90.06-54.2,131.22-5.58,11.57,241.87,52.69,237.11,22.51-7.09-54.69-25.25-105.53-32.2-161.41C985,570.84,963.09,544.07,924.17,549.84Z"/><rect x="899.91" y="580.28" width="27.67" height="49.36" rx="12" transform="translate(1447.99 1561.77) rotate(-152.68)"/><rect x="928.54" y="575.86" width="6.73" height="17.2" rx="3.37" transform="translate(1491.69 1531.39) rotate(-152.68)"/><rect class="cls-43" x="908.19" y="588.94" width="18" height="18.7" rx="3" transform="translate(-35.28 1138.66) rotate(-62.68)"/><rect class="cls-44" x="908.19" y="588.94" width="18" height="18.7" rx="3" transform="translate(-35.28 1138.66) rotate(-62.68)"/><rect class="cls-45" x="908.19" y="588.94" width="18" height="18.7" rx="3" transform="translate(-35.28 1138.66) rotate(-62.68)"/><g class="cls-46"><path class="cls-47" d="M920.07,608.82c-2.69-.65-5.17-2.34-7.62-3.6-1.48-.77-5.75-2.09-6.18-4.07s2.49-5.78,3.32-7.38c.94-1.83,2.15-6,4.71-6,2.17,0,5.06,2.28,6.86,3.21,1.53.79,6.51,2.38,6.94,4.46s-2.27,5.38-3.12,7c-1.15,2.24-2.15,5.87-4.91,6.38-.05,0,0,.72,0,.73,3.22-.59,4.75-6.06,6.08-8.64.76-1.48,2-3.18,2.08-4.91,0-2.58-2.22-3.25-4.13-4.24l-5.88-3c-1.07-.55-2.63-1.71-3.92-1.69-3,.06-5,6.52-6.07,8.64-.74,1.43-2,3.15-2.08,4.82-.11,2.62,2.19,3.33,4.13,4.33,3.11,1.61,6.37,3.89,9.79,4.73C920,609.54,920.13,608.84,920.07,608.82Z"/></g><rect class="cls-48" x="908.19" y="588.94" width="18" height="18.7" rx="3" transform="translate(-35.28 1138.66) rotate(-62.68)"/><g class="cls-49"><path d="M907.42,603.44l9.22,4.76c1.31.68,2.79,1.75,4.35,1.26s2.16-2.28,2.84-3.6c1.65-3.2,7.23-9.46,3.13-12.71-2.55-2-6.33-3.27-9.22-4.77-3.12-1.61-5.06-1.54-6.89,1.75-1.55,2.79-3.83,6.09-4.72,9.14-.52,1.76-.48,2.75,1.29,4.17,0,0,0-.11,0-.12-3.11-2.5-.14-6.16,1.27-8.88,1-1.9,1.94-5.24,3.69-6.64,2.28-1.81,5.75.91,7.79,2s4.88,2,6.79,3.51c3,2.32.44,5.55-.88,8.12-1.07,2.07-2.18,5.87-4.09,7.39-2.21,1.77-5.39-.72-7.41-1.76l-7.16-3.7S907.4,603.43,907.42,603.44Z"/></g><ellipse cx="938.18" cy="736.75" rx="1.37" ry="2.75"/><ellipse class="cls-50" cx="937.38" cy="745.91" rx="5.38" ry="6.41"/><path class="cls-51" d="M811.69,683.34c10.36-21.17,19.29-43,24-65.88,4.43-21.63,10.35-22.67,13.8-24.39,24.72-12.36,62.5,42.24,99.31,31.58,21.4-6.2,34.47-32.15,40.47-28.6,1.34.79,2.45,5.13,3.63,14,.43,3.29.92,6.56,1.44,9.82a72.27,72.27,0,0,1,18,11.45,37.42,37.42,0,0,1,11.54,22.41,16.74,16.74,0,0,1-6.32,5.63c-4.24,2-9.29,2.13-15,.71,2.8,11.82,5.81,23.53,8.78,35.22C1017.24,718.87,801.33,704.5,811.69,683.34Z"/><path class="cls-41" d="M761.54,645.17l-.31-.35c.28-.21,60.56-55.28,102.84-70.54q2.53,7.31,4.51,14.33c-37.56,14.22-66.15,41.49-85.27,58.17,5.41,3.28,11,6.54,16.07,9.51,11.39,6.63,20,11.87,26.41,15.89,12.62,8,18.15,11.85,42.5,20.6-.71.84-1.88,1.56-2,2.69-10-2.64-25.15-7.5-37.23-11.71a303.43,303.43,0,0,1-28.57-11.21c-10.45-4.94-15.74-9.09-28.17-16.77C772,656.05,761,646.22,761.54,645.17Z"/><path class="cls-52" d="M930.7,449.15s-2.51-8-20.34-8-20.36,8-20.36,8c0-5.56,9.11-10.07,20.35-10.07S930.7,443.59,930.7,449.15Z"/><path class="cls-52" d="M986.57,451s-2.51-8-20.34-8-20.36,8-20.36,8c0-5.57,9.11-10.08,20.35-10.08S986.57,445.42,986.57,451Z"/><path class="cls-53" d="M934,496.59c-.71-6.09,3.71-9.54,7.1-8.89,3.1.6,6.86,4.95,6.83,10.19"/><ellipse class="cls-54" cx="938.64" cy="496.8" rx="1.37" ry="1.36"/><ellipse class="cls-54" cx="944.13" cy="496.8" rx="1.37" ry="1.36"/><path class="cls-55" d="M960.54,524c-1-1.62-4.76-7.58-10.84-11.24-2.12-1.28-3.61-3.11-5.32-2.31-2.39,1.11-2.91,5.46-4.54,5.26s-1.75-4.42-3.93-5.55c-1.51-.78-2.91.79-4.1,1.33-7.63,3.42-12.37,11-13.32,12.51.65,1.4,8.54,17.76,22,17C952.77,540.22,959.69,525.84,960.54,524Z"/><path class="cls-12" d="M918.52,524.13h42.1"/><path class="cls-51" d="M930.76,994.61a47.25,47.25,0,0,1-10.37,1.48,248,248,0,0,0-2.88,41.06,53.89,53.89,0,0,0,16.41,1.6A249.13,249.13,0,0,0,930.76,994.61Z"/><path class="cls-51" d="M923.06,999.63c-3.55,4.18.07,13.11,8.1,19.94S962,1040,965.57,1035.82s-13.5-24.54-21.53-31.38S926.62,995.45,923.06,999.63Z"/><path class="cls-56" d="M971.15,642c.33.23,2.74,5.42,2.92,5.78,1.66,3.38,10.23,11.24,26,12.49.71.27,1.48.53,2.29.77"/><path class="cls-57" d="M872.25,651.1c.37.24.75.47,1.13.7,13,5.91,48,24.46,55.45,12.1,3.21-6.08,1.17-15.4-3.32-24.6"/><path class="cls-41" d="M850.72,478.76c-2.75,6.77.71,15.24,8.64,18.43,8,2.89,12.62-5.6,9.95-17.13s-5.15-19.29-8.56-17.62S853.54,471.75,850.72,478.76Z"/><ellipse class="cls-42" cx="858.95" cy="527.01" rx="20.15" ry="38.47"/><path class="cls-51" d="M831.31,964.5a19.78,19.78,0,0,1-6-4c-14,6.68-25.45,14.51-34.14,22.94a73.92,73.92,0,0,0,12.25,12.06C809.72,984.57,819,974.07,831.31,964.5Z"/><path class="cls-51" d="M821,963.34c-5,.39-8.41,8.23-7.68,17.51s6.56,32,11.53,31.61,7.19-23.74,6.47-33S826,963,821,963.34Z"/><path class="cls-40" d="M925.73,387.29s-21.6,2.47-34.53,12.17c-13.89,10.42-22.41,31.72-22.41,31.72s23-3.81,36.33-14.51C917.07,407.11,925.73,387.29,925.73,387.29Z"/><path class="cls-40" d="M998.15,432.7S983.67,411.75,966.44,402c-18.52-10.52-45.4-12-45.4-12s16.64,21.88,35.15,31.78C972.74,430.6,998.15,432.7,998.15,432.7Z"/><path class="cls-58" d="M1059.4,472.17c24,1.86,46.45,4.17,68.11,11.22q.57-4.56,1.17-9.29c-21.86-5.6-44.63-6.9-69-8.07C1059.58,468.1,1059.49,470.15,1059.4,472.17Z"/><path class="cls-59" d="M1059.9,473.34c9.66-.12,19,.38,28.32,2.62q0-4.32.07-9c-9.11-1.07-18.29-.69-27.84.14C1060.25,469.28,1060.07,471.35,1059.9,473.34Z"/><ellipse class="cls-60" cx="1127.44" cy="478.43" rx="4.85" ry="1.24" transform="translate(374.05 1444.05) rotate(-75.03)"/><path d="M899.92,929.4c-.55-1.52-1.1-3-1.66-4.56-16.8-45-37.6-84-61.06-113.66,10.21-17,22.12-30,35.47-38.62,20.39,45.17,36.49,97,47.1,151.79.1.51.19,1,.28,1.53C913.23,926.42,906.64,928.15,899.92,929.4Z"/><path class="cls-41" d="M973.52,585.72c21.75-3.53,63.54-19,109.19-16.61-1.36-11-2.5-16.92-2.51-26.64a283.53,283.53,0,0,1,1.89-28.51c1.1-10.43,2.72-23.05,4.28-32.39a39.06,39.06,0,0,1-6.77.37c-7.14.3-11.86-7.45-4.79-17.21,6.49-9.23,11.9-14.89,16.37-13,3.77,1.7,8.59,11.43,7.23,20.56-1.4,4.8-4.81,7.24-8.68,8.47-1.87,21.19-.85,27.43.8,40.57.86,7,1.85,16.32,2.91,28.54.59,6.37,1.2,13.56,2,20.34.19,0,1.54,11.93,2.39,15.81q-4.1-.48-8.37-.84a235.33,235.33,0,0,0-32.11-.41c-11.42,1.38-23.48,3.2-36.09,5.58-15.87,3-30.64,6.51-44.24,10.27C976.06,595.56,974.91,590.57,973.52,585.72Z"/><path class="cls-47" d="M989.84,474.43s-12-12.41-22.41-12.65c-11.19-.25-23.91,12.65-23.91,12.65s13.21,12.15,24.24,11.81C977.62,485.93,989.84,474.43,989.84,474.43Z"/><path class="cls-61" d="M989.84,474.43s-12-12.41-22.41-12.65c-11.19-.25-23.91,12.65-23.91,12.65a119.77,119.77,0,0,1,46.32,0Z"/><path class="cls-54" d="M943.55,473.93a119.21,119.21,0,0,1,15-1.49c2.25-.08,4.73-.11,8.81,0,5.42.14,13.08.51,22.6,1.49,0,0-5.47-.59-13.21-1.05-3.58-.21-6.75-.34-9.39-.42"/><path class="cls-53" d="M983.52,473.05A11.08,11.08,0,0,0,982,458.31"/><path class="cls-53" d="M986.5,473.05a10.25,10.25,0,0,0,2-6.91,10.52,10.52,0,0,0-3.54-6.91"/><path class="cls-53" d="M964.15,472.46A12.23,12.23,0,0,0,962.39,456"/><path class="cls-53" d="M967.93,472.46a12.41,12.41,0,0,0,2.35-8.22,12.57,12.57,0,0,0-4.11-8.22"/><path class="cls-53" d="M970.87,472.46A12.23,12.23,0,0,0,969.11,456"/><path class="cls-53" d="M974.39,472.46A12.23,12.23,0,0,0,972.63,456"/><path class="cls-53" d="M977.33,472.46A12.23,12.23,0,0,0,975.57,456"/><path class="cls-53" d="M980.85,473.05a11.49,11.49,0,0,0,2.35-7.83,11.8,11.8,0,0,0-4.11-7.82"/><path class="cls-53" d="M952,472.93a9.95,9.95,0,0,0-3.48-12.86"/><path class="cls-53" d="M955.35,473a9.53,9.53,0,0,0,1.55-7.33,10.41,10.41,0,0,0-5.16-6.48"/><path class="cls-53" d="M958.77,473a11.62,11.62,0,0,0,1-8.17,11.89,11.89,0,0,0-5.39-7.07"/><path class="cls-53" d="M960.89,472.46A12.23,12.23,0,0,0,959.13,456"/><path class="cls-53" d="M949.83,473.25a8.71,8.71,0,0,0-.16-6.18,9,9,0,0,0-4.8-4.64"/><ellipse class="cls-54" cx="973.49" cy="478.66" rx="4.4" ry="5.28"/><path class="cls-47" d="M934,474.43S922,462,911.56,461.78c-11.19-.25-23.92,12.65-23.92,12.65s13.22,12.15,24.25,11.81C921.75,485.93,934,474.43,934,474.43Z"/><path class="cls-61" d="M934,474.43S922,462,911.56,461.78c-11.19-.25-23.92,12.65-23.92,12.65a119.82,119.82,0,0,1,46.33,0Z"/><path class="cls-54" d="M887.68,473.93a119.21,119.21,0,0,1,15-1.49c2.25-.08,4.72-.11,8.81,0,5.42.14,13.08.51,22.6,1.49,0,0-5.47-.59-13.21-1.05-3.58-.21-6.75-.34-9.39-.42"/><path class="cls-53" d="M895.87,473.05a11.08,11.08,0,0,1,1.55-14.74"/><path class="cls-53" d="M892.88,473.05a10.32,10.32,0,0,1-2-6.91,10.48,10.48,0,0,1,3.54-6.91"/><path class="cls-53" d="M915.24,472.46A12.23,12.23,0,0,1,917,456"/><path class="cls-53" d="M911.46,472.46A12.23,12.23,0,0,1,913.22,456"/><path class="cls-53" d="M908.52,472.46A12.23,12.23,0,0,1,910.28,456"/><path class="cls-53" d="M905,472.46A12.23,12.23,0,0,1,906.76,456"/><path class="cls-53" d="M902.06,472.46A12.23,12.23,0,0,1,903.82,456"/><path class="cls-53" d="M898.54,473.05a11.49,11.49,0,0,1-2.35-7.83,11.8,11.8,0,0,1,4.11-7.82"/><path class="cls-53" d="M927.38,472.93a10,10,0,0,1-.8-6.83,10.17,10.17,0,0,1,4.28-6"/><path class="cls-53" d="M924,473a9.53,9.53,0,0,1-1.55-7.33,10.41,10.41,0,0,1,5.16-6.48"/><path class="cls-53" d="M920.62,473a11.62,11.62,0,0,1-1-8.17,11.89,11.89,0,0,1,5.39-7.07"/><path class="cls-53" d="M918.5,472.46A12.23,12.23,0,0,1,920.26,456"/><path class="cls-53" d="M929.56,473.25a8.71,8.71,0,0,1,.16-6.18,9,9,0,0,1,4.8-4.64"/><ellipse class="cls-54" cx="917.62" cy="478.66" rx="4.4" ry="5.28"/><line class="cls-12" x1="825.37" y1="711.07" x2="824.62" y2="705.06"/><polygon class="cls-62" points="824.13 701.06 822.67 703.84 821.21 706.62 824.7 706.43 828.19 706.24 826.16 703.65 824.13 701.06"/><ellipse class="cls-63" cx="831.33" cy="730.81" rx="17.83" ry="7.57" transform="translate(-248.23 486.37) rotate(-28.56)"/><ellipse class="cls-63" cx="823.94" cy="724.65" rx="17.05" ry="7.92" transform="translate(-200.86 1116.78) rotate(-62.27)"/><line class="cls-12" x1="827.99" y1="744.89" x2="826.79" y2="735.6"/><line class="cls-12" x1="824.17" y1="742.33" x2="827.19" y2="739.14"/><line class="cls-12" x1="825.19" y1="747.05" x2="827.88" y2="744.07"/><line class="cls-12" x1="831.48" y1="746.32" x2="828.05" y2="744.26"/><line class="cls-12" x1="831.2" y1="743.97" x2="827.7" y2="741.79"/><line class="cls-12" x1="830.63" y1="741.2" x2="827.13" y2="739.02"/><line class="cls-12" x1="824.51" y1="744.79" x2="827.54" y2="741.61"/><path class="cls-41" d="M864.27,695.46a25,25,0,0,0-4.93,4.93,12.1,12.1,0,0,0-2,11.28c4,8.32,13.43,13.68,17.51,13,4.77-.93,6.07-8.64,6.28-19.92.38-12-7.77-15.78-13.52-11.64"/><path class="cls-64" d="M859,701a11.87,11.87,0,0,0-1.61,10.55c3.88,8.37,13.27,13.84,17.35,13.19,4.79-.88,6.18-8.58,6.52-19.85,0-.39,0-.76,0-1.13"/><rect class="cls-1" x="1575.83" y="113.18" width="7" height="7"/><circle class="cls-65" cx="1579.33" cy="116.68" r="3.5"/><rect class="cls-1" x="1544.98" y="58.05" width="7" height="7"/><circle class="cls-65" cx="1548.48" cy="61.55" r="3.5"/><rect class="cls-1" x="1515.68" y="-0.06" width="7" height="7"/><circle class="cls-65" cx="1519.18" cy="3.44" r="3.5"/><rect class="cls-1" x="1453.2" y="49.12" width="7" height="7"/><circle class="cls-65" cx="1456.7" cy="52.62" r="3.5"/><rect class="cls-1" x="1421.71" y="34.02" width="7" height="7"/><circle class="cls-65" cx="1425.21" cy="37.52" r="3.5"/><rect class="cls-1" x="1372.36" y="148.75" width="7" height="7"/><circle class="cls-65" cx="1375.86" cy="152.25" r="3.5"/><rect class="cls-1" x="1311.44" y="76" width="7" height="7"/><circle class="cls-65" cx="1314.94" cy="79.5" r="3.5"/><rect class="cls-1" x="1278.28" y="12.1" width="7" height="7"/><circle class="cls-65" cx="1281.78" cy="15.6" r="3.5"/><rect class="cls-1" x="1252.96" y="88.3" width="7" height="7"/><circle class="cls-65" cx="1256.46" cy="91.8" r="3.5"/><rect class="cls-1" x="1205.52" y="97.42" width="7" height="7"/><circle class="cls-65" cx="1209.02" cy="100.92" r="3.5"/><rect class="cls-1" x="1159.49" y="29.12" width="7" height="7"/><circle class="cls-65" cx="1162.99" cy="32.62" r="3.5"/><rect class="cls-1" x="1127.54" y="68.74" width="7" height="7"/><circle class="cls-65" cx="1131.04" cy="72.24" r="3.5"/><rect class="cls-1" x="1061.8" y="88.73" width="7" height="7"/><circle class="cls-65" cx="1065.3" cy="92.23" r="3.5"/><rect class="cls-1" x="917.22" y="103.51" width="7" height="7"/><circle class="cls-65" cx="920.72" cy="107.01" r="3.5"/><rect class="cls-1" x="833.16" y="93.14" width="7" height="7"/><circle class="cls-65" cx="836.66" cy="96.64" r="3.5"/><rect class="cls-1" x="778.72" y="93.13" width="7" height="7"/><circle class="cls-65" cx="782.22" cy="96.63" r="3.5"/><rect class="cls-1" x="735.94" y="120.25" width="7" height="7"/><circle class="cls-65" cx="739.44" cy="123.75" r="3.5"/><rect class="cls-1" x="580.83" y="106.67" width="7" height="7"/><circle class="cls-65" cx="584.33" cy="110.17" r="3.5"/><rect class="cls-1" x="540.96" y="127.27" width="7" height="7"/><circle class="cls-65" cx="544.46" cy="130.77" r="3.5"/><rect class="cls-1" x="452.55" y="-4.78" width="7" height="7"/><circle class="cls-65" cx="456.05" cy="-1.28" r="3.5"/><rect class="cls-1" x="489.57" y="179.56" width="7" height="7"/><circle class="cls-65" cx="493.07" cy="183.06" r="3.5"/><rect class="cls-1" x="416.88" y="196.62" width="7" height="7"/><circle class="cls-65" cx="420.38" cy="200.12" r="3.5"/><rect class="cls-1" x="386.64" y="150.59" width="7" height="7"/><circle class="cls-65" cx="390.14" cy="154.09" r="3.5"/><rect class="cls-1" x="341.58" y="1.58" width="7" height="7"/><circle class="cls-65" cx="345.08" cy="5.08" r="3.5"/><rect class="cls-1" x="301.01" y="79.91" width="7" height="7"/><circle class="cls-65" cx="304.51" cy="83.41" r="3.5"/><rect class="cls-1" x="268.22" y="39.6" width="7" height="7"/><circle class="cls-65" cx="271.72" cy="43.1" r="3.5"/><rect class="cls-1" x="202.31" y="152.32" width="7" height="7"/><circle class="cls-65" cx="205.81" cy="155.82" r="3.5"/><rect class="cls-1" x="226.73" y="72.44" width="7" height="7"/><circle class="cls-65" cx="230.23" cy="75.94" r="3.5"/><path class="cls-66" d="M332.19,334.23l-1.05-6.35-3.07-11.46q-16.72,3.56-25.85,2.1t-14.48-5.94a26.48,26.48,0,0,1-5.53-6.3,11.62,11.62,0,0,0-5.76-4.93l.58-1.53a11,11,0,0,0,6.47.24c2.14-.58,4.87-1.4,8.17-2.46s7-2.27,11.19-3.63,7.11-2.31,8.89-2.87a10.84,10.84,0,0,0,3.77-1.84,3.86,3.86,0,0,0,1.21-2.85l3,.18a3.8,3.8,0,0,0,.17,1.33q.54,2,4.6,3.7t12.89-.7q5.94-1.6,7.92-4.3a2.88,2.88,0,0,0,.51-2.5q-.81-3-4.38-3.09a60.58,60.58,0,0,0-8.45.46c-3.26.37-6.48.83-9.69,1.38s-6.69,1.05-10.47,1.5-7.37.78-10.77,1a53.79,53.79,0,0,1-10.15-.26,34.22,34.22,0,0,1-9-2.23,19,19,0,0,1-6.95-5,19.85,19.85,0,0,1-4.37-8.32,26.1,26.1,0,0,1-.87-9.49,22.55,22.55,0,0,1,2.37-8.19,29,29,0,0,1,5.13-7,44.12,44.12,0,0,1,7-5.84,64.25,64.25,0,0,1,8.56-4.72,92.87,92.87,0,0,1,15.88-6q7.65-2.06,11.73-2.92t9.65-1.74a56.75,56.75,0,0,1,10.32-.73,65.64,65.64,0,0,1,9.57,1,24.82,24.82,0,0,1,16,9.56,22.82,22.82,0,0,0,5.61,4.74l-.42,1.62a10.54,10.54,0,0,0-6.42-.18L365,240q-4.86,1.5-13.82,4.46t-11.54,3.79A9.74,9.74,0,0,0,336.1,250a3.74,3.74,0,0,0-1,2.76h-2.89a3.87,3.87,0,0,0-.13-1.21q-.69-2.58-5.36-3.33a23.54,23.54,0,0,0-9.94.67q-10.3,2.76-9.21,6.8,1,3.63,16.86,1.13c2.48-.36,5.3-.81,8.44-1.35q16.44-2.62,25.69-2.22,19.41.84,23.67,16.71a25.83,25.83,0,0,1,.43,12.4,25.32,25.32,0,0,1-4.75,10.31,40.49,40.49,0,0,1-8.76,8.13A72.76,72.76,0,0,1,346,311.15c-2.45.66-3.91,1-4.37,1.11q-3.3.89-1.94,6l.39,1.48a22.52,22.52,0,0,0,2.14,4.65,22,22,0,0,1,2.12,4.59c.58,2.16.11,3.45-1.4,3.85a2.1,2.1,0,0,1-2.07-.49,4.48,4.48,0,0,1-1.3-2.28,27.71,27.71,0,0,1-.58-5.2,29.09,29.09,0,0,0-.6-5.33c-.29-1.06-.5-1.8-.63-2.23a15.44,15.44,0,0,0-.62-1.54,2.81,2.81,0,0,0-.89-1.24,3.61,3.61,0,0,0-3.23-.31q-3.81,1-2,7.64l3.07,9.95q1.08,4.05-.08,4.36C333.17,336.34,332.58,335.7,332.19,334.23Z"/><path class="cls-66" d="M489.51,260.43l1.52,8.11q1.49,6.75,4.81,8.89l-1,1.52a8.46,8.46,0,0,0-6.73-1.06l-18,4q.25.86.57,2.28c.5,2.31.18,3.6-1,3.85s-2-.92-2.59-3.52c-.17-.79-.29-1.41-.35-1.88l-55.48,12.17c-1,.22-1.46,2.19-1.39,5.93a46.88,46.88,0,0,0,.79,8.82,82.34,82.34,0,0,0,4,11.24A80.62,80.62,0,0,1,419,333.43c.68,3.12-.19,4.94-2.63,5.48-2.65.58-4.32-.74-5-4a76.46,76.46,0,0,1-1.27-13.78,76.59,76.59,0,0,0-1.16-13.3l-19.7-89.56a8.52,8.52,0,0,0-3.84-5.65l1-1.59a8.77,8.77,0,0,0,6.74,1.12l22.2-4.87a8.45,8.45,0,0,0,5.65-3.84l1.59,1a8.48,8.48,0,0,0-1.12,6.74l11.22,51.15a8.51,8.51,0,0,1-1.08,6.66l1.59,1q2.48-3.85,13.13-6.19l29.71-5q10.61-2.32,13.07-6.18l1.57,1A8.51,8.51,0,0,0,489.51,260.43Zm-13,48.85c.37,1.69-.14,2.69-1.55,3s-2.33-.55-2.77-2.57a26.9,26.9,0,0,1-.41-6.77c.11-2.73.17-4.2.16-4.42.18.39.57,1.2,1.18,2.41s1.08,2.14,1.4,2.81A26,26,0,0,1,476.51,309.28Z"/><path class="cls-66" d="M541.72,257.37l-2.34-7.59-.12-.68a4,4,0,0,1,3.17-2.93l51-8.73a8.4,8.4,0,0,0,5.78-3.51l1.46,1q-2.38,7,.52,23.93a83.25,83.25,0,0,0,2.91,10,88,88,0,0,1,2.88,9.81,6.64,6.64,0,0,1-.19,3.8A2.34,2.34,0,0,1,605.1,284a2.42,2.42,0,0,1-2.2-1,6.85,6.85,0,0,1-1.47-3.48l-1.38-14q-.94-5.51-3.36-8a6.2,6.2,0,0,0-5.74-1.88q-7.44,1.29-5.51,12.48a89.19,89.19,0,0,0,3.44,12.29,99,99,0,0,1,3,10,4.82,4.82,0,0,1-.4,3.32,2.81,2.81,0,0,1-2,1.47,2.77,2.77,0,0,1-2.3-.67,4.13,4.13,0,0,1-1.39-2.62l-2.31-20.15q-1.89-11-6.57-10.14l-4.74.95-49.15,8.47c-3.72.64-6.32,1.82-7.83,3.53q-2.58,3-.57,14.66a98.17,98.17,0,0,0,3.83,13.6,98.72,98.72,0,0,1,3.81,13.54q1.15,6.7-3.6,7.51-5.13.88-6.31-6a70.45,70.45,0,0,1-.33-14.24,70.26,70.26,0,0,0-.34-14.3l-3.92-20.9-12.56-72.93a8.4,8.4,0,0,0-3.45-5.78l1-1.53a8.84,8.84,0,0,0,6.67,1.37l80.31-13.84a8.62,8.62,0,0,0,5.83-3.51l1.48,1.09q-2.28,3.22-.9,11.23l.48,2.82q1.21,7.07,4.42,9.22l-1,1.4q-3.68-2.64-15.25-.65L544,204.23q-11.52,2-15.19-.67l-1.1,1.48a9.44,9.44,0,0,1,2.17,12.57l1.52,1q2.46-3.65,12.09-5.3L570,210.19q9.69-1.66,12.28-5.34l1.53,1q-2.28,3.23-.77,12l.42,2.44c.77,4.46,2.22,7.45,4.38,9l-1.09,1.54q-3.54-2.61-13.24-.94l-26,5.89q-9.64,1.67-13.3-.93l-1,1.47q3.09,2.23,4.25,8.93l.71,4.9.23,7.68c.26,1.5.94,2.16,2,2S542,258.79,541.72,257.37Z"/><path class="cls-66" d="M607,188.13l-.69-8.1q-.87-6.93-3.92-9.23l1.11-1.42a8.66,8.66,0,0,0,6.54,1.67l82.67-10.4a8.57,8.57,0,0,0,6-3.25l1.42,1.1a8.56,8.56,0,0,0-1.6,6.6l.7,8.1q.85,6.81,3.9,9.17L702,183.85q-3.19-2.53-9.56-1.74l-13.8,2.63q-6.61.84-9.88-1.7l-1.16,1.43a8.45,8.45,0,0,1,3.25,6l6.57,52.27q.83,6.54,3.62,19.37T684.36,279q.9,7.17-1.68,7.5t-3.22-4.77q-.65-5.12-.89-13.93t-.8-13.24c-.58-4.57-1.77-6.75-3.57-6.52a2.32,2.32,0,0,0-1.88,1.83,7.3,7.3,0,0,0-.37,3.18l3.11,13c.38,3-.3,4.64-2,4.86a2.06,2.06,0,0,1-2.11-1.08,7.16,7.16,0,0,1-1-3,24.5,24.5,0,0,1,.41-5.91,25.3,25.3,0,0,0,.31-6.66,4.27,4.27,0,0,0-2.65-3.56,10.55,10.55,0,0,0-5.65-.64,19.92,19.92,0,0,0-6.7,2.19,16.9,16.9,0,0,0-5.74,4.91q-2.35,3.15-2,5.88a32.48,32.48,0,0,0,1.68,6.54,31.6,31.6,0,0,1,1.67,6.41c.22,1.74-.45,2.71-2,2.91-1.76.22-2.76-.61-3-2.47a32.88,32.88,0,0,1,.12-7.21,31.38,31.38,0,0,0,.2-6.55l-2.06-16.38q-4.22-34.51-6.38-51.71a8.41,8.41,0,0,1,1.61-6.59l-1.42-1.11q-2.41,3.19-8.84,4l-13.64.89q-6.48.81-9,4.07l-1.42-1.16A8.46,8.46,0,0,0,607,188.13Zm66.76,92.34a58.66,58.66,0,0,1,3,11.84c.18,1.47-.25,2.27-1.3,2.4s-1.66-.47-1.82-1.82A50.31,50.31,0,0,1,673.74,280.47Z"/><path class="cls-66" d="M714.17,175l-.34-8.12q-.57-7-3.51-9.39l1.17-1.37a8.64,8.64,0,0,0,6.46,2l83-6.76a8.56,8.56,0,0,0,6.13-3l1.36,1.17A8.59,8.59,0,0,0,806.6,156l.35,8.12q.56,6.83,3.49,9.33l-1.15,1.43q-3.09-2.67-9.48-2.16l-13.9,2q-6.64.54-9.79-2.13L774.89,174a8.48,8.48,0,0,1,3,6.13l4.26,52.5q.54,6.58,2.77,19.51t2.56,17q.59,7.22-2,7.42c-1.73.14-2.73-1.49-3-4.91s-.37-8.07-.27-14,0-10.31-.22-13.26c-.37-4.6-1.47-6.82-3.28-6.68a2.34,2.34,0,0,0-2,1.75,7.23,7.23,0,0,0-.51,3.17l2.53,13.1q.38,4.54-2.22,4.76a2.06,2.06,0,0,1-2.07-1.17,7.09,7.09,0,0,1-.88-3,23.92,23.92,0,0,1,.67-5.88,25.18,25.18,0,0,0,.6-6.64,4.27,4.27,0,0,0-2.49-3.68,10.46,10.46,0,0,0-5.62-.89,19.79,19.79,0,0,0-6.78,1.89,16.82,16.82,0,0,0-6,4.66q-2.49,3-2.27,5.79a32.58,32.58,0,0,0,1.4,6.6,32.69,32.69,0,0,1,1.39,6.48c.14,1.75-.57,2.69-2.13,2.81-1.77.15-2.73-.72-2.89-2.6a32.64,32.64,0,0,1,.44-7.19,31.93,31.93,0,0,0,.49-6.54l-1.34-16.45q-2.7-34.66-4.1-51.94a8.5,8.5,0,0,1,1.89-6.52l-1.37-1.16q-2.55,3.07-9,3.6l-13.67.28q-6.51.53-9.18,3.68l-1.38-1.23A8.5,8.5,0,0,0,714.17,175Zm62.62,95.2a58,58,0,0,1,2.5,12c.12,1.48-.35,2.26-1.4,2.35s-1.64-.55-1.75-1.9A51.33,51.33,0,0,1,776.79,270.15Z"/><path class="cls-66" d="M863.85,222.53l-1.29-7.82,0-.7a4.06,4.06,0,0,1,3.54-2.48l51.75-1.76a8.4,8.4,0,0,0,6.19-2.7l1.32,1.22Q922,215,922.61,232.08a86.47,86.47,0,0,0,1.54,10.26,85.51,85.51,0,0,1,1.53,10.11,6.68,6.68,0,0,1-.69,3.74,2.37,2.37,0,0,1-1.92,1.27A2.41,2.41,0,0,1,921,256.2a6.74,6.74,0,0,1-1-3.65l.51-14.05q-.19-5.58-2.26-8.33a6.17,6.17,0,0,0-5.43-2.64q-7.54.27-7.14,11.62a87.48,87.48,0,0,0,1.75,12.64,93.54,93.54,0,0,1,1.66,10.36,4.82,4.82,0,0,1-.83,3.23,2.85,2.85,0,0,1-2.15,1.19,2.79,2.79,0,0,1-2.2-1,4.17,4.17,0,0,1-1-2.79l.42-20.27q-.39-11.1-5.15-10.93l-4.81.29-49.86,1.77q-5.64.2-8.23,2.45-3,2.64-2.53,14.44a98.71,98.71,0,0,0,2,14,100.7,100.7,0,0,1,2,13.93c.15,4.52-1.37,6.84-4.59,7q-5.19.18-5.44-6.8c-.12-3.17.42-7.88,1.59-14.15a69.75,69.75,0,0,0,1.59-14.22l-1.07-21.23-2.61-74a8.4,8.4,0,0,0-2.63-6.2l1.22-1.38a8.84,8.84,0,0,0,6.43,2.25l81.43-2.88a8.59,8.59,0,0,0,6.26-2.7l1.31,1.29q-2.68,2.9-2.4,11l.1,2.85q.25,7.17,3.14,9.73l-1.23,1.25q-3.28-3.12-15-2.7l-31.47,2.57q-11.67.42-14.95-2.71l-1.29,1.32a9.45,9.45,0,0,1,.45,12.75l1.38,1.15q2.93-3.27,12.7-3.62l26.62.52q9.84-.34,12.89-3.63l1.38,1.22q-2.7,2.88-2.38,11.77l.09,2.47q.24,6.78,3.13,9.48L912,202.29q-3.15-3.07-13-2.72l-26.53,2.34q-9.76.34-13-2.72l-1.22,1.32q2.76,2.63,3,9.42l0,4.95-.8,7.65c0,1.52.64,2.26,1.76,2.22S863.9,224,863.85,222.53Z"/><path class="cls-66" d="M976,205l-.66,12.94a47,47,0,0,0,1.56,10.33,46.67,46.67,0,0,1,1.56,10.11,54.67,54.67,0,0,0,1,9.18,55.42,55.42,0,0,1,1,9.5q0,3.58-3.11,3.55t-3-3.56a53.17,53.17,0,0,1,1.22-9.38,52.35,52.35,0,0,0,1.21-8.77,8,8,0,0,0-2-5.33,6.14,6.14,0,0,0-4.79-2.43q-6.35-.07-6.53,15.35a90.71,90.71,0,0,0,.83,10.86,90.87,90.87,0,0,1,.83,9.91c0,3.47-1.09,5.19-3.17,5.17a2.74,2.74,0,0,1-2.42-1.4,7.44,7.44,0,0,1-.82-3.91,70.57,70.57,0,0,1,1.22-9.25,68,68,0,0,0,1.23-9.76,45.86,45.86,0,0,0-.28-5.75,37.74,37.74,0,0,0-1.21-5.79,11,11,0,0,0-2.86-5,7.14,7.14,0,0,0-5.12-2,7.53,7.53,0,0,0-5.67,2.67c-1.7,1.79-2.55,3.51-2.57,5.14a16.19,16.19,0,0,0,.83,5.12,14.25,14.25,0,0,1,.84,4.13c0,1.86-.72,2.79-2.1,2.77s-2-.95-2-2.82l1.64-10.13.88-80.79A17.83,17.83,0,0,0,939,143.13l1.28-1.25a18.18,18.18,0,0,0,12.45,4.65l73.23.85a18.13,18.13,0,0,0,12.56-4.36l1.25,1.28a16.79,16.79,0,0,0-4.64,11.37,45.27,45.27,0,0,0,.71,9.85,15.75,15.75,0,0,0,3.61,6.77l-1.29,1.25a10.11,10.11,0,0,0-8.32-4.6l-48.17-.56a8.51,8.51,0,0,1-6.06-2.48l-1.22,1.19a9.07,9.07,0,0,1-.14,12.31l1.19,1.22a9.65,9.65,0,0,1,5.07-2.54,37.33,37.33,0,0,1,7-.49l24.1,1.61a48,48,0,0,0,10.45-.89,16,16,0,0,0,7.82-4l1.26,1.29q-4.83,5.15-4.93,14.35t4.22,13.82L1029.1,205q-5.71-5.21-18.6-5.36l-23.75,1.06q-8.68-.1-11.83-3.31l-1.22,1.25A8.73,8.73,0,0,1,976,205Z"/><path class="cls-66" d="M1088.76,224.11l-.55-7.91,0-.7a4,4,0,0,1,3.75-2.13l51.69,3.1a8.4,8.4,0,0,0,6.42-2.1l1.19,1.34q-3.93,6.31-4.93,23.42a82.94,82.94,0,0,0,.56,10.37,85,85,0,0,1,.58,10.2,6.73,6.73,0,0,1-1,3.66,2.39,2.39,0,0,1-2,1.09,2.44,2.44,0,0,1-1.92-1.45,6.76,6.76,0,0,1-.63-3.72l1.83-13.95q.33-5.57-1.47-8.51a6.18,6.18,0,0,0-5.15-3.13q-7.54-.44-8.21,10.9a89.22,89.22,0,0,0,.55,12.75,97.16,97.16,0,0,1,.69,10.46A4.79,4.79,0,0,1,1129,271a2.84,2.84,0,0,1-2.25,1,2.79,2.79,0,0,1-2.09-1.18,4.12,4.12,0,0,1-.75-2.87l2.33-20.14q.65-11.09-4.1-11.37l-4.83-.15-49.79-2.93q-5.64-.33-8.43,1.66-3.18,2.36-3.88,14.14a97.94,97.94,0,0,0,.63,14.12,99.26,99.26,0,0,1,.64,14.06q-.4,6.78-5.22,6.49-5.19-.3-4.78-7.27.27-4.75,2.92-13.94a71.45,71.45,0,0,0,2.92-14l.93-21.24,4.34-73.87a8.3,8.3,0,0,0-2-6.41l1.35-1.26a8.83,8.83,0,0,0,6.19,2.84l81.34,4.79a8.59,8.59,0,0,0,6.48-2.1l1.19,1.4c-2,1.75-3.11,5.33-3.42,10.74l-.17,2.85q-.42,7.16,2.21,10l-1.34,1.13q-3-3.42-14.7-4.11l-31.57-.39q-11.65-.69-14.63-4.1l-1.41,1.18a9.45,9.45,0,0,1-.75,12.74l1.26,1.28q3.23-3,13-2.41l26.46,3q9.82.58,13.18-2.4l1.25,1.34q-2.94,2.63-3.47,11.5l-.14,2.47q-.4,6.78,2.22,9.73l-1.41,1.25q-2.85-3.34-12.67-3.92l-26.63-.17q-9.75-.57-12.74-3.93l-1.34,1.2q2.51,2.88,2.1,9.65l-.41,4.94-1.53,7.54c-.09,1.52.43,2.31,1.55,2.38S1088.68,225.55,1088.76,224.11Z"/><path class="cls-66" d="M1201.22,262.08l1.32-6.31,1.27-11.79q-16.87-2.72-24.87-7.38t-11.35-10.76a26.07,26.07,0,0,1-2.88-7.88,11.56,11.56,0,0,0-3.59-6.67l1.09-1.22a11,11,0,0,0,6,2.55q3.3.36,8.51.66t11.74.66c4.35.24,7.46.41,9.32.53a10.83,10.83,0,0,0,4.19-.35,3.85,3.85,0,0,0,2.15-2.22l2.74,1.25a4,4,0,0,0-.33,1.3q-.23,2.09,3,5.11t12.27,4q6.12.66,8.93-1.14a2.86,2.86,0,0,0,1.38-2.15q.35-3.09-3-4.47a61.61,61.61,0,0,0-8-2.62c-3.17-.83-6.34-1.57-9.53-2.21s-6.62-1.43-10.3-2.39-7.16-1.92-10.41-2.94a53.84,53.84,0,0,1-9.38-3.91,34,34,0,0,1-7.56-5.32,19,19,0,0,1-4.69-7.14,19.8,19.8,0,0,1-1.07-9.34,26.2,26.2,0,0,1,2.62-9.16,22.44,22.44,0,0,1,5.16-6.79,29.57,29.57,0,0,1,7.3-4.64,43.92,43.92,0,0,1,8.67-2.89,63.69,63.69,0,0,1,9.69-1.32,93.37,93.37,0,0,1,17,.17q7.89.85,12,1.51t9.62,1.87a56,56,0,0,1,9.89,3,63.61,63.61,0,0,1,8.56,4.4,24.88,24.88,0,0,1,11.5,14.7,22.67,22.67,0,0,0,3.52,6.45l-1,1.36a10.56,10.56,0,0,0-5.92-2.49l-.82-.09q-5.07-.34-14.5-.83c-6.28-.31-10.33-.52-12.12-.63a9.53,9.53,0,0,0-3.93.34,3.71,3.71,0,0,0-1.93,2.22l-2.7-1.06a3.56,3.56,0,0,0,.32-1.18q.29-2.64-3.8-5a23.48,23.48,0,0,0-9.51-3q-10.59-1.15-11.05,3-.39,3.72,15.32,7.14,3.68.84,8.36,1.79,16.29,3.48,24.76,7.2,17.79,7.78,16,24.13a25.68,25.68,0,0,1-4.07,11.72,25.26,25.26,0,0,1-8.16,7.9,40.23,40.23,0,0,1-11.1,4.42,72.78,72.78,0,0,1-25.35,1.29c-2.53-.27-4-.45-4.48-.54q-3.4-.37-4,4.87l-.16,1.51a22.36,22.36,0,0,0,.31,5.11,22.06,22.06,0,0,1,.32,5q-.36,3.35-2.7,3.1a2.12,2.12,0,0,1-1.75-1.21,4.53,4.53,0,0,1-.39-2.6,29.17,29.17,0,0,1,1.34-5.06,28.31,28.31,0,0,0,1.36-5.18c.12-1.09.19-1.86.22-2.31a15.89,15.89,0,0,0,0-1.66,2.92,2.92,0,0,0-.38-1.48,3.66,3.66,0,0,0-2.9-1.46q-3.92-.42-4.65,6.4l-.74,10.38c-.3,2.78-.85,4.13-1.65,4S1201.06,263.59,1201.22,262.08Z"/><path class="cls-66" d="M1289.55,185l1.56-8q1.08-6.9-1.21-10l1.45-1.05a8.67,8.67,0,0,0,5.83,3.41l82.34,12.78a8.57,8.57,0,0,0,6.65-1.47l1.06,1.45a8.56,8.56,0,0,0-3.36,5.9l-1.56,8q-1.05,6.76,1.23,9.89l-1.46,1.12q-2.38-3.31-8.71-4.31l-14-1.27q-6.58-1-9-4.36l-1.51,1.05a8.49,8.49,0,0,1,1.47,6.65l-8.08,52.05q-1,6.52-1.86,19.63t-1.48,17.17q-1.11,7.16-3.68,6.75c-1.72-.27-2.31-2.09-1.79-5.48s1.53-7.93,3-13.63,2.42-10,2.88-13q1.07-6.82-1.64-7.25a2.31,2.31,0,0,0-2.31,1.25,7,7,0,0,0-1.23,3l-.59,13.33q-.7,4.51-3.28,4.12a2.1,2.1,0,0,1-1.74-1.62,7.21,7.21,0,0,1-.15-3.17,25.08,25.08,0,0,1,2-5.56,25.17,25.17,0,0,0,2.14-6.32,4.26,4.26,0,0,0-1.57-4.16,10.46,10.46,0,0,0-5.25-2.16,19.63,19.63,0,0,0-7,.25,16.88,16.88,0,0,0-6.88,3.14c-2.08,1.58-3.27,3.28-3.55,5.1A32.64,32.64,0,0,0,1308,275a32,32,0,0,1-.16,6.62c-.27,1.73-1.18,2.48-2.73,2.24-1.75-.27-2.49-1.34-2.2-3.2a32.51,32.51,0,0,1,2.1-6.9,31.29,31.29,0,0,0,2-6.24l2.53-16.3q5.46-34.35,8.12-51.47a8.46,8.46,0,0,1,3.36-5.9l-1.06-1.45q-3.2,2.4-9.59,1.4l-13.36-2.91q-6.46-1-9.79,1.43l-1-1.51A8.49,8.49,0,0,0,1289.55,185Zm38.72,107.17a58.35,58.35,0,0,1-.35,12.21c-.23,1.46-.87,2.12-1.91,2s-1.47-.91-1.26-2.25A51.35,51.35,0,0,1,1328.27,292.13Z"/><path class="cls-66" d="M1424,266.1l.56-7.91.14-.69a4,4,0,0,1,4-1.58l50.75,10.31a8.39,8.39,0,0,0,6.65-1.18l1,1.5q-4.77,5.7-8.17,22.49a84.27,84.27,0,0,0-.89,10.35,84.48,84.48,0,0,1-.86,10.18,6.65,6.65,0,0,1-1.55,3.48,2.35,2.35,0,0,1-2.16.79,2.43,2.43,0,0,1-1.7-1.7,6.82,6.82,0,0,1-.11-3.78l3.77-13.55c.74-3.65.65-6.52-.26-8.63a6.17,6.17,0,0,0-4.67-3.82q-7.39-1.5-9.65,9.64a88.93,88.93,0,0,0-1.24,12.7,94.15,94.15,0,0,1-.78,10.46,4.82,4.82,0,0,1-1.57,2.95,2.8,2.8,0,0,1-2.36.65,2.76,2.76,0,0,1-1.91-1.45,4.12,4.12,0,0,1-.35-2.95l5.13-19.62q2.2-10.89-2.46-11.83l-4.76-.83-48.89-9.87c-3.69-.75-6.55-.59-8.58.46q-3.48,1.89-5.82,13.46a99.44,99.44,0,0,0-1.36,14.07,98.2,98.2,0,0,1-1.34,14q-1.33,6.66-6.07,5.7-5.1-1-3.72-7.87a70.84,70.84,0,0,1,4.85-13.39,70.85,70.85,0,0,0,4.85-13.46l3.9-20.9,14.65-72.54a8.33,8.33,0,0,0-1.12-6.63l1.51-1.06a8.88,8.88,0,0,0,5.73,3.69l79.87,16.13a8.59,8.59,0,0,0,6.71-1.17l1,1.56q-3.3,2.19-4.9,10.15l-.57,2.79q-1.42,7,.79,10.2l-1.48.93q-2.47-3.79-14-6.13l-31.21-4.81q-11.45-2.31-13.91-6.11l-1.56,1a9.47,9.47,0,0,1-2.52,12.5l1.06,1.45q3.62-2.51,13.2-.58l25.77,6.7q9.64,1.95,13.38-.53l1.06,1.5q-3.3,2.19-5.05,10.9l-.49,2.42q-1.35,6.66.84,9.95l-1.57,1q-2.35-3.71-12-5.66l-26.34-3.9q-9.58-1.94-12.06-5.67l-1.5,1q2.07,3.21.73,9.86l-1.11,4.83-2.56,7.25c-.3,1.49.09,2.35,1.19,2.57S1423.75,267.51,1424,266.1Z"/><path class="cls-66" d="M1515.93,317l5.71-16.29a3.85,3.85,0,0,0-1.38-3.82,18.44,18.44,0,0,0-8.34-4.28q-7-1.79-10.36.31a5.17,5.17,0,0,0-2.09,3.3,43.17,43.17,0,0,0-.68,8.64,42.76,42.76,0,0,1-.71,8.69,7.53,7.53,0,0,1-1.87,3.65,3,3,0,0,1-3,.78,3.05,3.05,0,0,1-2.28-2.12,7.4,7.4,0,0,1,.07-4.14,43,43,0,0,1,3.66-8.1,42.45,42.45,0,0,0,3.82-8.72l19.09-75.43a17.85,17.85,0,0,0-1.35-13.24l1.62-1a18.13,18.13,0,0,0,11,7.51l18.39,4.67a21.06,21.06,0,0,0,6.92.74,8.41,8.41,0,0,0,5.36-2.67l1.78,1.5a19.3,19.3,0,0,0-3.43,6.8q-.7,2.76,6.19,16.36,9,17.74,11.35,23.64a37.06,37.06,0,0,1,2.69,9.26l3.69.94q-1.89-5.19.16-13.25a101.88,101.88,0,0,1,3.77-11,102.64,102.64,0,0,0,3.77-11q2.57-10.09-3.07-14.73l1.62-1a18.18,18.18,0,0,0,11,7.5l12.61,3.2a18.14,18.14,0,0,0,13.24-1.35l.9,1.61a18.14,18.14,0,0,0-7.45,11l-19.19,75.07a39.22,39.22,0,0,0-.78,8.22,39.19,39.19,0,0,1-.78,8.21c-.66,2.63-2,3.68-4,3.17s-2.68-2.07-2-4.7a37.9,37.9,0,0,1,3.09-7.3,38,38,0,0,0,2.92-6.59,3,3,0,0,0-.55-3,4.58,4.58,0,0,0-2.19-1.41l-24.3-6.17q-5.18-1.31-7.56,8.1a65.77,65.77,0,0,0-1.4,11.59,64.28,64.28,0,0,1-1.38,11.47c-.9,3.57-2.69,5-5.35,4.34s-3.54-2.82-2.63-6.43a49.06,49.06,0,0,1,4.12-9.63,52.19,52.19,0,0,0,4.14-9.49l2.2-8.15q1.63-5.67.72-7.74l-20-44.82q-.78-1.83-1-7.05l-3.78-.83a10.75,10.75,0,0,1,1.32,8.2l-8.92,35.12-6.73,31.42a2.68,2.68,0,0,1-1,1.54,2,2,0,0,1-1.77.3,2.15,2.15,0,0,1-1.48-1.26,2.89,2.89,0,0,1-.2-2l6.73-23.44a2,2,0,0,0-.21-1.49,1.72,1.72,0,0,0-1.13-.94c-1.07-.27-1.81.41-2.23,2.05a65.37,65.37,0,0,0-1.21,8.27,64.88,64.88,0,0,1-1.13,7.9c-.79,3.11-2,4.48-3.49,4.09S1515.25,319.69,1515.93,317Z"/><g class="cls-31"><path class="cls-67" d="M1875.25,34.09a34.25,34.25,0,0,0,21.38,6.1C1809.28,379.6,1702,646.14,1582.41,839c-66.27-52.4-124.34-112.18-173.54-171.27C1582.63,578.53,1745.26,366.66,1875.25,34.09Z"/></g><g class="cls-33"><path class="cls-68" d="M1878.56,19.64c-9.3.66-17.47-.87-24.43-4.47-175.81,285.1-393.52,459-633.18,518.3,39.9,46.46,91.33,93.58,153.68,137.43C1569.13,545.79,1741.24,327.93,1878.56,19.64Z"/></g><g class="cls-35"><path class="cls-69" d="M1860.65,51.77A32.35,32.35,0,0,1,1841.56,45C1674.73,296.49,1441.7,446,1161,486.6c26.17,37.28,66.13,74.86,119.18,110.54C1525.12,510.71,1723.27,327.14,1860.65,51.77Z"/></g><g class="cls-37"><path class="cls-70" d="M1892.94,26.8c-10,2.6-19,2.83-27,.86-155,307-347.82,498.61-557.93,571.94a1137.29,1137.29,0,0,0,181.2,154.59C1644.5,594.05,1782.33,351.09,1892.94,26.8Z"/></g><path class="cls-71" d="M1809.8,67.38c26.07,6.19,54.32,12.13,84.43,17.45,18-35.72,29.79-72.65,36.85-110.44-18.38-3.12-36.07-6.27-52.75-9.33A443.24,443.24,0,0,1,1809.8,67.38Z"/><rect class="cls-1" x="82.77" y="1052.25" width="7" height="7"/><circle class="cls-65" cx="86.27" cy="1055.75" r="3.5"/><image class="cls-29" width="431" height="431" transform="translate(21.29 1002.77)" xlink:href="Startsk%C3%A6rm2.png"/><g class="cls-2"><g class="cls-2"><g class="cls-72"><g class="cls-2"><path class="cls-16" d="M324.49,853.26l-66.42-36a93.58,93.58,0,0,1,36.41,1.65l66.42,36a93.77,93.77,0,0,0-36.41-1.65"/><path class="cls-17" d="M360.9,854.91l-66.42-36a71.84,71.84,0,0,1,13.58,5l66.42,36.06a71.18,71.18,0,0,0-13.58-5"/><path class="cls-18" d="M374.48,859.88l-66.42-36.06c.79.39,1.57.8,2.33,1.21l66.42,36.05c-.76-.41-1.54-.82-2.33-1.2"/></g></g></g><ellipse class="cls-19" cx="324.43" cy="912.02" rx="79.64" ry="57.49" transform="translate(-256.65 137.82) rotate(-17.31)"/><g class="cls-2"><g class="cls-73"><g class="cls-2"><path class="cls-21" d="M272.05,963l-66.42-36.05c-15.71-8.53-25.56-22.65-25.55-39.91a49.17,49.17,0,0,1,3.07-16.77l66.42,36a49.21,49.21,0,0,0-3.07,16.77c0,17.26,9.84,31.38,25.55,39.91"/><path class="cls-22" d="M249.57,906.28l-66.42-36a58,58,0,0,1,3.44-7.66l66.42,36a59.93,59.93,0,0,0-3.44,7.66"/><path class="cls-23" d="M253,898.62l-66.42-36a65.8,65.8,0,0,1,4.15-6.72l66.42,36a66.9,66.9,0,0,0-4.15,6.72"/><path class="cls-24" d="M257.16,891.9l-66.42-36a75.46,75.46,0,0,1,5.2-6.59l66.42,36a75.46,75.46,0,0,0-5.2,6.59"/><path class="cls-25" d="M262.36,885.31l-66.42-36a85,85,0,0,1,6.75-6.82l66.43,36a85.17,85.17,0,0,0-6.76,6.82"/><path class="cls-18" d="M269.12,878.49l-66.43-36a95.94,95.94,0,0,1,9.37-7.4l66.42,36.05a94.62,94.62,0,0,0-9.36,7.4"/><path class="cls-17" d="M278.48,871.09,212.06,835a104,104,0,0,1,14.74-8.49l66.42,36.06a103,103,0,0,0-14.74,8.48"/><path class="cls-16" d="M293.22,862.61,226.8,826.55a109.79,109.79,0,0,1,31.27-9.34l66.42,36a109.48,109.48,0,0,0-31.27,9.35"/></g></g></g></g><ellipse class="cls-26" cx="329.76" cy="911.24" rx="12.86" ry="9.12" transform="translate(-236.85 125.08) rotate(-15.89)"/><ellipse class="cls-26" cx="330.24" cy="911.58" rx="16.16" ry="11.46" transform="translate(-236.93 125.22) rotate(-15.89)"/><ellipse class="cls-26" cx="328.8" cy="910.55" rx="6.25" ry="4.43" transform="translate(-236.7 124.79) rotate(-15.89)"/><ellipse class="cls-26" cx="329.98" cy="912.01" rx="27.55" ry="19.54" transform="matrix(0.96, -0.27, 0.27, 0.96, -237.05, 125.17)"/><ellipse class="cls-26" cx="328.43" cy="910.6" rx="36" ry="25.54" transform="translate(-236.73 124.69) rotate(-15.89)"/><ellipse class="cls-26" cx="328.25" cy="909.98" rx="44.82" ry="31.79" transform="translate(-236.56 124.62) rotate(-15.89)"/><ellipse class="cls-26" cx="324.26" cy="910.72" rx="53.27" ry="37.78" transform="translate(-236.92 123.55) rotate(-15.89)"/><ellipse class="cls-26" cx="324.27" cy="910.76" rx="59.15" ry="41.95" transform="translate(-236.93 123.56) rotate(-15.89)"/><ellipse class="cls-26" cx="325.15" cy="911.68" rx="66.18" ry="46.61" transform="translate(-237.15 123.83) rotate(-15.89)"/><ellipse class="cls-26" cx="325.46" cy="911.76" rx="71.85" ry="52.45" transform="translate(-237.16 123.92) rotate(-15.89)"/><path class="cls-14" d="M180.54,993.12l221.35-.21-.05-55.34c-3.56,0-9.72-7.75-10.68,0s-17.79-10.66-18.11,0-20.64-8.72-29.42,0-12.94-8.73-21.53,0-16.39-16.49-30.94,0-16.52-16.49-16,0-8.8-6.78-18.23,0-24.3,0-24.3,0l-52.12,0Z"/><path class="cls-6" d="M221.4,819.62l7.13-24.29c1.08-3.68-1.55-7.71-5.84-9h0c-4.29-1.26-8.69.72-9.77,4.4l-7.28,24.78a13.08,13.08,0,0,1-9.89,8.91c-8.8,2-16,7.82-18.39,16.08L147.19,943.2c-1.71,5.8,2.44,12.18,9.22,14.17l30.44,9c6.78,2,13.72-1.13,15.43-6.94L232.44,856.7c2.49-8.47-.6-17.48-7.26-24A13.15,13.15,0,0,1,221.4,819.62Z"/><rect class="cls-7" x="162.35" y="867.04" width="57.41" height="57.41" transform="translate(260.24 -17.53) rotate(16.37)"/><path class="cls-8" d="M214.6,785.69h7.27a4.37,4.37,0,0,1,4.37,4.37v26.2a2,2,0,0,1-2,2H211.93a2,2,0,0,1-2-2V790.33a4.63,4.63,0,0,1,4.63-4.63Z" transform="translate(234.9 -28.96) rotate(16.37)"/><path class="cls-9" d="M171.12,885.69q-.06.19.18.27l-.06.2-1.69-.5,0-.2a.22.22,0,0,0,.16,0,.17.17,0,0,0,.1-.13l1.29-4.38-1.82-.54a.37.37,0,0,0-.21,0,.24.24,0,0,0-.15.18l-.2-.06.45-1.54.2.06a.25.25,0,0,0,0,.24.42.42,0,0,0,.18.11l4.89,1.43a.5.5,0,0,0,.21,0,.25.25,0,0,0,.16-.19l.19.06-.45,1.55-.2-.06a.24.24,0,0,0,0-.24.42.42,0,0,0-.18-.11l-1.82-.54Z"/><path class="cls-9" d="M181.49,884.16a.2.2,0,0,0,0-.2.59.59,0,0,0-.31-.16l-3.57-1-.4,1.37,2.16.63a.82.82,0,0,0,.36,0c.09,0,.16-.11.21-.28l.2.06-.5,1.72-.2-.06q.07-.26,0-.36a.69.69,0,0,0-.32-.17l-2.16-.64-.45,1.52,3.68,1.09a.51.51,0,0,0,.3,0,.24.24,0,0,0,.16-.18l.2.06-.44,1.51-.2-.06c0-.11,0-.18,0-.22a1.79,1.79,0,0,0-.26-.1l-5.14-1.51.06-.2a.2.2,0,0,0,.15,0,.18.18,0,0,0,.11-.13l1.47-5a.2.2,0,0,0,0-.17.27.27,0,0,0-.12-.09l0-.19,5,1.47a.64.64,0,0,0,.35,0,.28.28,0,0,0,.15-.17l.19.06-.42,1.45Z"/><path class="cls-9" d="M188.39,890.33l-.06,0-.06,0a.87.87,0,0,0-.35,0c-.19,0-.43.07-.72.11a4.84,4.84,0,0,1-.95,0,4.26,4.26,0,0,1-1-.17,5.38,5.38,0,0,1-1.29-.57,3.57,3.57,0,0,1-1-.88,2.77,2.77,0,0,1-.5-1.15,2.83,2.83,0,0,1,.09-1.37,2.79,2.79,0,0,1,.66-1.2,2.73,2.73,0,0,1,1.05-.7,3.49,3.49,0,0,1,1.3-.23,4.77,4.77,0,0,1,1.39.2,5.67,5.67,0,0,1,1,.39c.29.15.54.29.74.42a4.28,4.28,0,0,1,.49.35,1.27,1.27,0,0,0,.22.16.13.13,0,0,0,.11,0l.08-.07.13.18-1.25,1.08-.09-.11a.17.17,0,0,0,0-.07.19.19,0,0,0,0-.08.44.44,0,0,0-.15-.31,2.22,2.22,0,0,0-.42-.37,5.43,5.43,0,0,0-.57-.35,2.75,2.75,0,0,0-.58-.24,3,3,0,0,0-.93-.13,2.15,2.15,0,0,0-.85.17,1.89,1.89,0,0,0-.68.47,1.91,1.91,0,0,0-.44.79,2,2,0,0,0-.06.9,1.94,1.94,0,0,0,.32.77,2.26,2.26,0,0,0,.63.6,3.26,3.26,0,0,0,.84.4,4.41,4.41,0,0,0,.77.13,4.81,4.81,0,0,0,.76,0,2.5,2.5,0,0,0,.62-.13c.18-.07.28-.15.31-.24a.26.26,0,0,0,0-.15l.18,0,.38,1.38Z"/><path class="cls-9" d="M196.7,887.77c0-.13,0-.22-.19-.27l.06-.2,1.7.5-.06.2a.2.2,0,0,0-.15,0,.18.18,0,0,0-.11.13l-1.47,5a.2.2,0,0,0,0,.17.27.27,0,0,0,.12.09l-.06.2-1.69-.5.06-.2c.16.05.26,0,.3-.13l.6-2.07-3.54-1-.61,2.07a.2.2,0,0,0,0,.17.38.38,0,0,0,.13.09l-.06.2-1.66-.49.05-.2a.19.19,0,0,0,.27-.14l1.47-5a.19.19,0,0,0-.15-.26l.06-.2,1.66.49-.05.2a.22.22,0,0,0-.16,0,.17.17,0,0,0-.1.13l-.55,1.87,3.55,1Z"/><path class="cls-9" d="M198.68,894c.14,0,.23,0,.27-.13l1.47-5a.18.18,0,0,0-.15-.26l.06-.2,1.88.55-.06.2c-.06,0-.09,0-.12.08a.8.8,0,0,0,.13.38l2.2,4.21,1-3.5c0-.14,0-.23-.23-.29l.06-.2,1.67.49-.06.2a.19.19,0,0,0-.27.14l-1.47,5a.19.19,0,0,0,.15.26l-.06.2-1.78-.53.06-.19c.09,0,.15,0,.17-.06a.58.58,0,0,0-.11-.31l-2.33-4.49-1.07,3.66c0,.13,0,.22.19.27l-.05.2-1.64-.48Z"/><path class="cls-9" d="M212.2,891.82a4.55,4.55,0,0,1,1.19.55,3.94,3.94,0,0,1,1,.88,2.93,2.93,0,0,1,.58,1.17,2.63,2.63,0,0,1-.06,1.41,2.67,2.67,0,0,1-.71,1.22,3.07,3.07,0,0,1-1.12.67,3.57,3.57,0,0,1-1.3.2,5.35,5.35,0,0,1-1.29-.2,5.16,5.16,0,0,1-1.18-.53,3.57,3.57,0,0,1-1-.86,3.06,3.06,0,0,1-.58-1.17,2.66,2.66,0,0,1,.05-1.42,2.7,2.7,0,0,1,.72-1.22,3.13,3.13,0,0,1,1.12-.67,4.09,4.09,0,0,1,1.31-.21A4.83,4.83,0,0,1,212.2,891.82Zm-.29,1a3.22,3.22,0,0,0-.88-.12,2.85,2.85,0,0,0-.87.16,2.08,2.08,0,0,0-.72.45,1.75,1.75,0,0,0-.45.77,1.69,1.69,0,0,0,0,.89,2,2,0,0,0,.37.77,2.62,2.62,0,0,0,.64.6,2.79,2.79,0,0,0,.8.38,2.83,2.83,0,0,0,.88.11,2.48,2.48,0,0,0,.86-.16,2,2,0,0,0,.73-.45,1.66,1.66,0,0,0,.45-.76,1.69,1.69,0,0,0,0-.89,2,2,0,0,0-.36-.77,2.82,2.82,0,0,0-.64-.6A2.93,2.93,0,0,0,211.91,892.84Z"/><path class="cls-9" d="M216.24,897.25a.14.14,0,0,0-.15,0,.25.25,0,0,0-.08.12l-.19-.06.39-1.32.19.05c0,.14,0,.22.11.25l1.88.55a.16.16,0,0,0,.15,0,.35.35,0,0,0,.08-.13l.2.06-.39,1.33-.2-.06c0-.14,0-.22-.11-.25Z"/><path class="cls-9" d="M176.85,895.87a6,6,0,0,1,1,.37,3.36,3.36,0,0,1,.76.51,1.74,1.74,0,0,1,.45.65,1.19,1.19,0,0,1,0,.79,1,1,0,0,1-.55.7,2.16,2.16,0,0,1-.89.21v0a2.48,2.48,0,0,1,.73.75,1.3,1.3,0,0,1,.07,1.07,1.34,1.34,0,0,1-.32.57,1.52,1.52,0,0,1-.57.37,2.37,2.37,0,0,1-.78.12,3.11,3.11,0,0,1-1-.16l-4.05-1.18.06-.2c.21.06.33,0,.37-.11l1.47-5c0-.14-.05-.23-.25-.29l.06-.2Zm-1.19,4.85a1.85,1.85,0,0,0,1.06.08.72.72,0,0,0,.34-1.14,1.85,1.85,0,0,0-.94-.5l-2.1-.62-.46,1.56Zm.74-2.51a2.56,2.56,0,0,0,.86.11.63.63,0,0,0,.31-1.07,2.36,2.36,0,0,0-.78-.37l-2.11-.61-.39,1.32Z"/><path class="cls-9" d="M179,902.59a.33.33,0,0,0,.27-.07,2.55,2.55,0,0,0,.24-.23l3.3-3.69.22-.22a.62.62,0,0,0,.12-.2.17.17,0,0,0,0-.17l-.15-.12.06-.19,1.86.54-.06.2-.17,0c-.06,0-.1,0-.12.13a.58.58,0,0,0,0,.19c0,.07,0,.16.05.27l1,5.15a.34.34,0,0,0,.09.22,1.66,1.66,0,0,0,.19.18l-.06.2-1.94-.57.06-.2H184a.11.11,0,0,0,.09-.08.84.84,0,0,0,0-.32l-.18-.93-2.69-.79-.63.66a.93.93,0,0,0-.2.3c0,.08,0,.14.17.18l-.06.2-1.56-.46Zm4.76-.83-.32-2.32-1.64,1.75Z"/><path class="cls-9" d="M187,903.39l.16.12a.68.68,0,0,0,.08.36,1.58,1.58,0,0,0,.27.32,2.24,2.24,0,0,0,.39.27,2,2,0,0,0,.43.18,1.91,1.91,0,0,0,1,.09.83.83,0,0,0,.51-.63l1-3.54a.29.29,0,0,0-.06-.28.48.48,0,0,0-.23-.16l.06-.2,2.09.61-.06.2a.56.56,0,0,0-.34,0,.27.27,0,0,0-.2.2L191,904.57a1.68,1.68,0,0,1-.4.69,1.54,1.54,0,0,1-.67.38,2.24,2.24,0,0,1-.87.07,5.39,5.39,0,0,1-1-.21,3.47,3.47,0,0,1-.62-.23A5.27,5.27,0,0,1,187,905l-.36-.23a.87.87,0,0,0-.27-.14.22.22,0,0,0-.23.07l-.14-.16Z"/><path class="cls-9" d="M199.34,903.77a.22.22,0,0,0,0-.21.74.74,0,0,0-.31-.15l-3.57-1-.4,1.37,2.16.63a.82.82,0,0,0,.36,0c.09,0,.16-.11.21-.28l.2.06-.5,1.72-.2-.06q.08-.26,0-.36a.69.69,0,0,0-.32-.17l-2.16-.64-.45,1.52,3.68,1.08a.45.45,0,0,0,.3,0,.24.24,0,0,0,.16-.18l.2.06-.44,1.51-.2-.06c0-.11,0-.18-.05-.22a.94.94,0,0,0-.26-.1l-5.14-1.51.06-.2a.2.2,0,0,0,.15,0,.18.18,0,0,0,.11-.13l1.47-5a.2.2,0,0,0,0-.17.27.27,0,0,0-.12-.09l.05-.2,5,1.48a.54.54,0,0,0,.35,0,.24.24,0,0,0,.15-.16l.19.06-.42,1.45Z"/><path class="cls-9" d="M205.3,904.23a4.4,4.4,0,0,1,.93.38,2.11,2.11,0,0,1,.65.51,1.54,1.54,0,0,1,.32.67,2,2,0,0,1-.07.85,1.5,1.5,0,0,1-.76,1,2.3,2.3,0,0,1-1.31.18l.85,2.53a.3.3,0,0,0,.15.18.71.71,0,0,0,.18.08l-.06.2-2.06-.61.06-.2a.4.4,0,0,0,.18,0c.06,0,.09,0,.1-.07a.23.23,0,0,0,0-.14s0-.13-.07-.23l-.71-2.07-1.58-.47-.57,2a.2.2,0,0,0,0,.17.52.52,0,0,0,.25.12l-.06.2-1.91-.56.06-.2c.22.06.34,0,.38-.1l1.47-5c0-.13,0-.23-.26-.29l.06-.2Zm-1.05,2.5a3.61,3.61,0,0,0,.68.13,1.3,1.3,0,0,0,.47-.05.77.77,0,0,0,.3-.19.89.89,0,0,0,.19-.65.76.76,0,0,0-.15-.33,1.23,1.23,0,0,0-.36-.29,3.5,3.5,0,0,0-.65-.26l-1.9-.56-.48,1.64Z"/></g></g></svg>
