<svg xmlns="http://www.w3.org/2000/svg" width="150" height="220" viewBox="0 0 150 220"><defs><style>.cls-1{fill:#42210b;}.cls-2{fill:#bfb4a6;}.cls-3{fill:none;stroke:#000;stroke-miterlimit:10;}.cls-4{fill:#e9e0d6;}</style></defs><title>Svamp4</title><g id="Layer_2" data-name="Layer 2"><path class="cls-1" d="M124.68,115.15q-48.45,2.05-99.32,2.09c-6.49,0-12.26-4.7-12.93-10.41S11,95.38,10.17,89.68C8,74.34,12.63,61.81,24.49,51.42,36.15,41,55,32.73,76.54,25.59h0c21.53-6.58,40.14-9.67,51.07-2.11,11.2,7.07,14.7,24.78,12,48.64q-1.54,13.3-2.62,26.57C136.3,107.6,130.86,115,124.68,115.15Z"/><path class="cls-2" d="M122.27,105.82c.84-11.85-20.1-15.8-47.8-12.39-27.68,3.11-49.79,9.13-49,17.1.18,2,3.16,6,6.1,6.31,8.25,1.1,78.52-1,85.39-1.9C120.48,114.72,122.06,109,122.27,105.82Z"/><path class="cls-3" d="M121.73,100.13C115.61,106,107,110.26,95.68,113"/><path class="cls-3" d="M114.86,94.94a58,58,0,0,1-22.61,18.47"/><path class="cls-3" d="M105.58,92.75c-5.24,9.09-10.82,15.75-17,20.51"/><path class="cls-3" d="M95.83,92c-3.62,10-7.33,17.48-11.62,21.69"/><path class="cls-3" d="M85.93,92.5c-.79,8.52-3.19,15.85-7.44,21.42"/><path class="cls-3" d="M76.65,93.17A44.62,44.62,0,0,1,75.43,114"/><path class="cls-3" d="M71.35,93.89c-1.64,8-1.95,14.82-.17,20.26"/><path class="cls-3" d="M64.29,94.55A34.53,34.53,0,0,0,67,114.26"/><path class="cls-3" d="M58.41,95.37c-.56,7.66,1.36,14,5.84,19.1"/><path class="cls-3" d="M49.1,97.17a40,40,0,0,0,11.34,17.25"/><path class="cls-3" d="M39.94,99.36a130.5,130.5,0,0,0,17.34,15.13"/><path class="cls-3" d="M32.7,102.71c5.95,5.46,13.48,9.15,22.73,11"/><path class="cls-3" d="M26.08,108.2a52.94,52.94,0,0,0,26.59,6.24"/><path class="cls-4" d="M84.69,212.6A187.93,187.93,0,0,0,66,206.83c-7-1.8-12.5-8.51-12.41-15.52q.38-36-.74-71.21a14.46,14.46,0,0,1,10.45-14.25,50.07,50.07,0,0,1,9.28-1.92,41.82,41.82,0,0,1,13,.53c6.28,1.22,10.38,7.59,10.19,15.3q-.94,41.47.76,83.1C97,211.1,91.65,215.2,84.69,212.6Z"/><path class="cls-3" d="M122.56,106c-6.36,4.78-15.11,7.53-26.49,8.66"/><path class="cls-3" d="M26,112.74a77.82,77.82,0,0,0,26.77,3.62"/></g></svg>
