<svg xmlns="http://www.w3.org/2000/svg" width="150" height="220" viewBox="0 0 150 220"><defs><style>.cls-1{fill:#42210b;}.cls-2{fill:#bfb4a6;}.cls-3{fill:none;stroke:#000;stroke-miterlimit:10;}.cls-4{fill:#e9e0d6;}</style></defs><title>Svamp2</title><g id="Layer_2" data-name="Layer 2"><path class="cls-1" d="M120.37,119C89.9,136.07,59.42,81.58,28.94,102.48c-5.87,3.93-10,5-9.21-2s1.56-13.91,2.34-20.82A126.78,126.78,0,0,1,28.9,51.16c3.35-8.89,7.59-15.51,12.35-19.65,9.58-8.06,21-7.37,33.41-4.65h0C87,29.6,98.48,42.16,108.06,54.54c4.76,6.09,9,11.76,12.35,16.56,3.34,5,5.8,9,6.83,15.75.78,4.83,1.56,9.65,2.34,14.43S126.24,115.79,120.37,119Z"/><path class="cls-2" d="M116.9,114.39c-.42-3.88-5.6-4.21-13.42-8.29-7.84-3.64-18.32-11-29.85-18.92s-22-10.88-29.86-8c-7.83,2.45-13,10.77-13.47,15-.23,2.3,1.71,5.44,4.33,4.76,1.73-.23,7.09-2.46,14.25-1C56,99.07,65,103.85,74,108.87s17.89,10.28,25,12a29,29,0,0,0,14.12.51C116.36,120.59,117.14,116.39,116.9,114.39Z"/><path class="cls-3" d="M115.64,111c-4.81,5.21-12.36,8.31-22.62,5.6"/><path class="cls-3" d="M108.75,107.92c-4.16,5.27-10.43,8.27-18.87,7.42"/><path class="cls-3" d="M100.27,104.19c-3.68,5.43-8.3,8.37-13.73,9.22"/><path class="cls-3" d="M91.73,99.16c-2.39,6.59-5.41,11-9.23,12.28"/><path class="cls-3" d="M83.29,93.71c-.32,7.12-2.19,12.05-6,14.67"/><path class="cls-3" d="M75.47,88.34c1.19,8.16.69,13.92-1,18.33"/><path class="cls-3" d="M78.83,98.84h0"/><path class="cls-3" d="M71,85.64c-1.47,6.32-2,12.7-.41,18.81"/><path class="cls-3" d="M65.12,82.05a41.56,41.56,0,0,0,1.69,20.26"/><path class="cls-3" d="M60.19,79.76a34.42,34.42,0,0,0,4.12,21.35"/><path class="cls-3" d="M52.31,77.82C53.4,84.65,56,91.6,60.86,99.29"/><path class="cls-3" d="M44.43,78.35C47.88,84.14,52.45,90.56,58,98"/><path class="cls-3" d="M37.84,82.48C42,87.29,48.2,91.29,56.39,96.6"/><path class="cls-3" d="M31.22,91.13A157.47,157.47,0,0,1,53.85,96.4"/><path class="cls-4" d="M83.52,194.08l-20.31,5.81c-7.56,2.37-13.45-3.7-13.07-13q1.71-46.78,3.44-84.48c.34-7,4.6-11.62,10.24-10.13A32.25,32.25,0,0,1,72,95.7a78.66,78.66,0,0,1,11.52,8.43C89.09,109,93.26,116.07,93.57,122q1.55,32.43,3.09,58.92C97,185.92,91.08,191.69,83.52,194.08Z"/><path class="cls-3" d="M117.19,114.38c-5.28,5.08-13.23,7.49-23.71,3.63"/><path class="cls-3" d="M30.28,96.64c7-1.5,14.78-.58,23.47,1.78"/></g></svg>
