<svg xmlns="http://www.w3.org/2000/svg" width="150" height="220" viewBox="0 0 150 220"><defs><style>.cls-1{fill:#42210b;}.cls-2{fill:#bfb4a6;}.cls-3{fill:none;stroke:#000;stroke-miterlimit:10;}.cls-4{fill:#e9e0d6;}</style></defs><title>Svamp</title><g id="Layer_2" data-name="Layer 2"><path class="cls-1" d="M135.84,105a158.22,158.22,0,0,1-124.52,4.3C4,106.52.59,99.26,3.65,94L15.32,73C23.39,59,35.63,49.42,45.78,43.9,56.29,38.44,64.7,37,73.66,40.16c1.39.47,2.8.9,4.22,1.29,9,2.57,18.71,8.46,29.38,14.34C117.66,62,129,68.12,135.2,77.62l9.09,14.27C146.66,95.43,143,101.68,135.84,105Z"/><path class="cls-2" d="M129.21,101.84c-3.05-5.82-27.79-1-56-2.13-14.28-.25-27.28-1.39-37.6-1.48s-17.82.88-19.63,4.94c-.92,2,.41,7.26,3.85,8.69a118.51,118.51,0,0,0,19.09,5.33,153.41,153.41,0,0,0,34.16,2.7,156.74,156.74,0,0,0,33.83-4.77A173,173,0,0,0,125.51,109C129.79,107.3,130,103.55,129.21,101.84Z"/><path class="cls-3" d="M126.8,99.11c-5.26,5.31-14.51,11.24-28.06,15.59"/><path class="cls-3" d="M117.39,98.41c-4.25,6-11.74,12.24-22.83,17.22"/><path class="cls-3" d="M106.46,98.92a47.77,47.77,0,0,1-16.38,17.15"/><path class="cls-3" d="M95.69,99.35c-2.32,7.49-6,13.77-11,17.59"/><path class="cls-3" d="M85.18,99.79c-.16,6.8-2.37,12.79-7.57,17.69"/><path class="cls-3" d="M75.48,99.72c1.37,7,.76,12.72-1.64,17.86"/><path class="cls-3" d="M70,99.73c-2.13,6.84-3.21,13.08-1.34,18"/><path class="cls-3" d="M62.66,99.2c-1.93,6.51-2,12.75.81,18.38"/><path class="cls-3" d="M56.53,98.8c-2,7.09-1.28,13.56,3.56,18.73"/><path class="cls-3" d="M46.66,98.25a26.56,26.56,0,0,0,8.78,18.81"/><path class="cls-3" d="M36.59,97.65a52.19,52.19,0,0,0,15,19"/><path class="cls-3" d="M27.67,98.43c3.68,7.56,11.08,13.74,21.83,17.21"/><path class="cls-3" d="M17.84,101.15c6.62,7.56,16.23,12.94,28.17,14.62"/><path class="cls-4" d="M87.76,196.89a244.3,244.3,0,0,1-35.64,4.55c-13.47.75-23.31-5.38-21.75-12.05q7.25-34.06,14.48-68.15c1.43-6.35,7.85-10.89,15.27-11.77,3.23-.39,6.8-.66,10.69-.74a124.58,124.58,0,0,1,15,.66C93,110.18,99,114,99.92,119.56q4.83,30.27,9.65,60.55C110.64,186,101,194.2,87.76,196.89Z"/><path class="cls-3" d="M129.6,101.78c-6,5.17-16.13,10.64-30.14,14"/><path class="cls-3" d="M15.28,105.52a62.75,62.75,0,0,0,30.33,12.11"/></g></svg>
