<svg xmlns="http://www.w3.org/2000/svg" width="150" height="220" viewBox="0 0 150 220"><defs><style>.cls-1{fill:#42210b;}.cls-2{fill:#bfb4a6;}.cls-3{fill:none;stroke:#000;stroke-miterlimit:10;}.cls-4{fill:#e9e0d6;}</style></defs><title>Svamp3</title><g id="Layer_2" data-name="Layer 2"><path class="cls-1" d="M125.26,106.83a352,352,0,0,1-97.51,5.43c-6.19-.44-10.5-7.09-9.64-14.55l2.49-22.3c2.28-19.88,10-34.93,20-42.55C50.68,25,63,24.56,76.46,28.14h0c26.42,8.21,50.79,25.53,55.94,51.93l2.49,15.18C135.75,100.26,131.44,105.58,125.26,106.83Z"/><path class="cls-2" d="M121.6,101.31c-1-7.14-21.46-9.28-46.2-10s-45.19,2.57-46.23,12.78c-.24,2.46,1.81,7.67,4.58,8.19,3.59.76,22.82,2,42,.69a322.54,322.54,0,0,0,41.81-5C121,107.22,121.85,103.36,121.6,101.31Z"/><path class="cls-3" d="M120.28,97.72c-5.08,4.22-13.1,8.1-24.09,11.06"/><path class="cls-3" d="M113,94.62c-4.42,5.51-11.11,10.5-20.16,14.7"/><path class="cls-3" d="M104,93.05a55.32,55.32,0,0,1-14.72,16.34"/><path class="cls-3" d="M94.85,92.05C92.27,99.8,89,106.15,84.93,110"/><path class="cls-3" d="M85.79,91.66c-.35,7.27-2.37,13.51-6.47,18.67"/><path class="cls-3" d="M77.37,91.29a38.77,38.77,0,0,1-1.05,19.14"/><path class="cls-3" d="M81,99.69h0"/><path class="cls-3" d="M72.59,91.33c-1.57,7.4-2.09,14.15-.42,19.32"/><path class="cls-3" d="M66.24,91.05c-1.18,7.12-.67,13.84,1.85,19.71"/><path class="cls-3" d="M60.94,91.07c-1,7.85.31,14.71,4.46,19.88"/><path class="cls-3" d="M52.51,91.62a35.33,35.33,0,0,0,9.2,19.22"/><path class="cls-3" d="M44.1,92.69a65.41,65.41,0,0,0,14.55,18.15"/><path class="cls-3" d="M37.12,95.54c4.4,7.32,11,12.16,19.79,14.47"/><path class="cls-3" d="M30.14,101.27a34.22,34.22,0,0,0,24.07,9.37"/><path class="cls-4" d="M86,195.66l-21.59,6c-8,2.3-14.31-1.9-13.93-9.36l3.48-75.62c.34-7.06,4.88-13,10.93-14.44A45,45,0,0,1,73.63,101,50,50,0,0,1,86,102a13.2,13.2,0,0,1,10.77,12.15L100,179.88C100.3,186.27,94,193.38,86,195.66Z"/><path class="cls-3" d="M121.91,101.36c-5.57,3.74-14,6.85-25.22,8.66"/><path class="cls-3" d="M29.15,106.8a48.27,48.27,0,0,0,25,5.9"/></g></svg>
