<svg xmlns="http://www.w3.org/2000/svg" xmlns:xlink="http://www.w3.org/1999/xlink" width="276" height="255" viewBox="0 0 276 255"><defs><style>.cls-1{fill:none;}.cls-2{isolation:isolate;}.cls-3{clip-path:url(#clip-path);}.cls-4{fill:#836748;}.cls-5{fill:#7f6446;}.cls-6{fill:#7b6144;}.cls-7{fill:#ad885f;}.cls-8{clip-path:url(#clip-path-2);}.cls-9{fill:#675139;}.cls-10{fill:#6b543b;}.cls-11{fill:#6f573d;}.cls-12{fill:#735a3f;}.cls-13{fill:#775e41;}.cls-14{fill:#395931;}.cls-15{fill:#034926;opacity:0.73;}.cls-16{fill:#f0ecec;}.cls-17{fill:#c1272d;}</style><clipPath id="clip-path"><path class="cls-1" d="M115,65.07,47.19,101.93c14.1-7.67,32.84-10.92,53.4-8L168.34,57C147.78,54.15,129.05,57.4,115,65.07Z"/></clipPath><clipPath id="clip-path-2"><path class="cls-1" d="M154.21,205.8,222,169c16-8.72,26.07-23.14,26-40.76-.06-33.12-35.72-65-79.66-71.15L100.59,93.9c43.93,6.18,79.6,38,79.66,71.15C180.28,182.66,170.23,197.09,154.21,205.8Z"/></clipPath></defs><title>Tid</title><g id="Background"><g class="cls-2"><g class="cls-2"><g class="cls-3"><g class="cls-2"><path class="cls-4" d="M100.59,93.9,168.34,57a95.79,95.79,0,0,0-37.16,1.72L63.43,95.61a95.59,95.59,0,0,1,37.16-1.71"/><path class="cls-5" d="M63.43,95.61l67.75-36.85a72.85,72.85,0,0,0-13.85,5.08L49.58,100.7a73.55,73.55,0,0,1,13.85-5.09"/><path class="cls-6" d="M49.58,100.7l67.75-36.86c-.81.4-1.6.81-2.38,1.23L47.19,101.93c.78-.42,1.58-.83,2.39-1.23"/></g></g></g><ellipse class="cls-7" cx="100.7" cy="153.87" rx="58.67" ry="81.28" transform="translate(-76.11 204.4) rotate(-72.75)"/><g class="cls-2"><g class="cls-8"><g class="cls-2"><path class="cls-9" d="M154.21,205.8,222,169c16-8.72,26.07-23.14,26-40.76a50,50,0,0,0-3.15-17.11L177.1,147.93a50,50,0,0,1,3.15,17.12c0,17.61-10,32-26,40.75"/><path class="cls-10" d="M177.1,147.93l67.75-36.85a58.45,58.45,0,0,0-3.52-7.82l-67.75,36.86a61.6,61.6,0,0,1,3.52,7.81"/><path class="cls-11" d="M173.58,140.12l67.75-36.86a68.23,68.23,0,0,0-4.23-6.84l-67.76,36.85a67.77,67.77,0,0,1,4.24,6.85"/><path class="cls-12" d="M169.34,133.27,237.1,96.42a75.82,75.82,0,0,0-5.32-6.73L164,126.55a77,77,0,0,1,5.31,6.72"/><path class="cls-13" d="M164,126.55l67.75-36.86a86.9,86.9,0,0,0-6.9-7L157.13,119.6a85.29,85.29,0,0,1,6.9,7"/><path class="cls-6" d="M157.13,119.6l67.75-36.86a95.88,95.88,0,0,0-9.56-7.54l-67.76,36.85a97.26,97.26,0,0,1,9.57,7.55"/><path class="cls-5" d="M147.56,112.05,215.32,75.2a105,105,0,0,0-15.06-8.65l-67.75,36.86a104.81,104.81,0,0,1,15.05,8.64"/><path class="cls-4" d="M132.51,103.41l67.75-36.86A111.77,111.77,0,0,0,168.34,57L100.59,93.9a111.45,111.45,0,0,1,31.92,9.51"/></g></g></g></g><path class="cls-14" d="M14.52,248.5H240.43V192c-3.63,0-9.91-7.92-10.9,0s-18.14-10.9-18.48,0-21.06-8.91-30,0-13.2-8.91-22,0-16.71-16.84-31.57,0-16.85-16.84-16.35,0-9-6.93-18.61,0-24.8,0-24.8,0H14.52Z"/></g><g id="Layer_2" data-name="Layer 2"><path class="cls-15" d="M205.74,38.17l-7.45-25.92c-1.13-3.92-5.8-6-10.38-4.73h0c-4.58,1.31-7.4,5.6-6.27,9.52l7.6,26.45a13.89,13.89,0,0,1-3.81,13.65c-6.77,6.82-9.89,16.16-7.35,25l31.51,109.55c1.78,6.19,9.15,9.56,16.38,7.48l32.48-9.34c7.23-2.08,11.69-8.85,9.91-15L236.85,65.2c-2.6-9-10.52-15.37-20.21-17.39A14,14,0,0,1,205.74,38.17Z"/><rect class="cls-16" x="191.35" y="93.36" width="61.15" height="61.15" transform="translate(-25.61 66.17) rotate(-16.05)"/><path class="cls-17" d="M207.53,114.24c1.38-.16,2.63.16,3,1.49a2.46,2.46,0,0,1-.72,2.49,4.62,4.62,0,0,1-2.22,1.22l-3.37,1-.11-.38c1.13-.45,1.17-.59.85-1.67l-1.58-5.5c-.33-1.14-.48-1.2-1.61-1l-.11-.38,3.59-1a3.73,3.73,0,0,1,2.25-.13,1.86,1.86,0,0,1,1.25,1.3A2.29,2.29,0,0,1,207.53,114.24Zm-1.62.28c1.5-.43,2-1.21,1.62-2.33a1.71,1.71,0,0,0-2.39-1.15,1.57,1.57,0,0,0-.73.35c-.09.12-.08.28,0,.72l.76,2.62Zm.23,3.47c.29,1,.59,1.17,1.57.89a2,2,0,0,0,1.53-2.63c-.4-1.4-1.56-1.71-3.24-1.23l-.66.19Z"/><path class="cls-17" d="M218.92,113.83c0,.38.05,1.89,0,2.35l-6.67,1.91-.11-.38c1.25-.46,1.31-.62,1-1.74l-1.56-5.42c-.35-1.22-.52-1.24-1.58-1l-.11-.39,4.2-1.2c1.29-.37,1.82-.54,2-.6.11.34.46,1.35.72,2.06l-.39.19a5.3,5.3,0,0,0-.71-.93c-.35-.39-.69-.39-1.51-.15l-1.31.37c-.42.12-.44.17-.32.57l.87,3L215,112c1-.29,1-.52.93-1.5l.43-.12.81,2.82-.42.12c-.47-.93-.61-1-1.6-.75l-1.51.43.78,2.73c.28,1,.61,1,1.3.77l1.27-.36c.84-.24.94-.41,1.14-.85a6.28,6.28,0,0,0,.38-1.48Z"/><path class="cls-17" d="M227,111.5c0,.38.05,1.9,0,2.35l-6.66,1.92-.11-.39c1.25-.46,1.31-.61,1-1.73l-1.55-5.42c-.36-1.22-.53-1.24-1.58-1l-.11-.39,4.19-1.21c1.29-.37,1.82-.53,2-.59.12.33.47,1.35.73,2.06l-.39.18a5.18,5.18,0,0,0-.71-.92c-.35-.39-.69-.39-1.52-.16l-1.3.38c-.43.12-.44.17-.33.57l.88,3,1.52-.44c1-.3,1-.52.93-1.5l.43-.12.81,2.82-.43.12c-.46-.93-.61-1-1.59-.76l-1.51.44.78,2.73c.28,1,.6.95,1.29.77l1.28-.37c.83-.24.94-.4,1.13-.84a5.94,5.94,0,0,0,.38-1.48Z"/><path class="cls-17" d="M236.75,111.18l-.52.12a2.53,2.53,0,0,1-2.48-.57c-.71-.55-1.45-1.27-2.09-1.85-.4-.36-.6-.39-1.3-.19l-.48.14.62,2.15c.33,1.17.51,1.2,1.63,1l.11.38-3.66,1.06-.11-.39c1.11-.45,1.19-.53.85-1.7l-1.57-5.47c-.34-1.16-.5-1.16-1.62-1l-.11-.39,3.5-1a4,4,0,0,1,2.32-.17,2.14,2.14,0,0,1,1.46,1.55,2.65,2.65,0,0,1-1.09,2.86c.37.36,1.22,1.11,1.81,1.6a12.23,12.23,0,0,0,1.49,1.11,2,2,0,0,0,1.18.34Zm-6.35-3a2.3,2.3,0,0,0,1.4-.84,2,2,0,0,0,.27-1.9,1.93,1.93,0,0,0-2.61-1.42,1.29,1.29,0,0,0-.68.35c-.1.13-.1.28,0,.64l1,3.36Z"/><rect class="cls-17" x="206.68" y="133.7" width="36.69" height="2.04" transform="translate(-28.47 67.45) rotate(-16.05)"/><rect class="cls-17" x="205.13" y="126.78" width="36.69" height="5.1" transform="matrix(0.96, -0.28, 0.28, 0.96, -27.04, 66.81)"/><rect class="cls-17" x="207.81" y="137.61" width="36.69" height="2.04" transform="translate(-29.51 67.91) rotate(-16.05)"/><path class="cls-17" d="M188.67,6.84H197a4.37,4.37,0,0,1,4.37,4.37V39.54a2,2,0,0,1-2,2H186a2,2,0,0,1-2-2V11.47a4.63,4.63,0,0,1,4.63-4.63Z" transform="matrix(0.96, -0.28, 0.28, 0.96, 0.83, 54.21)"/></g></svg>
