<svg id="Layer_1" data-name="Layer 1" xmlns="http://www.w3.org/2000/svg" xmlns:xlink="http://www.w3.org/1999/xlink" width="500" height="200" viewBox="0 0 500 200"><defs><style>.cls-1,.cls-10,.cls-15,.cls-18,.cls-27,.cls-4{fill:none;}.cls-2{fill:#efcc57;}.cls-12,.cls-3{fill:#c69c6d;}.cls-12,.cls-4{stroke:#f7931e;stroke-width:2px;}.cls-12,.cls-15,.cls-16,.cls-18,.cls-19,.cls-20,.cls-27,.cls-4{stroke-miterlimit:10;}.cls-5{fill:url(#linear-gradient);}.cls-29,.cls-32,.cls-35,.cls-38,.cls-6{opacity:0.51;}.cls-29,.cls-30,.cls-32,.cls-33,.cls-35,.cls-36,.cls-38,.cls-39,.cls-6,.cls-7{isolation:isolate;}.cls-6{fill:url(#linear-gradient-2);}.cls-30,.cls-33,.cls-36,.cls-39,.cls-7{opacity:0.7;}.cls-7{fill:url(#linear-gradient-3);}.cls-8{opacity:0.49;}.cls-9{fill:#fff;}.cls-10{stroke:#717171;stroke-miterlimit:1;stroke-width:0.588px;}.cls-11{opacity:0.58;}.cls-13,.cls-19,.cls-20{fill:#ff7bac;}.cls-14{fill:#231f20;}.cls-15,.cls-16,.cls-18,.cls-20,.cls-27{stroke:#000;}.cls-15,.cls-16{stroke-width:0.75px;}.cls-17{fill:#c1272d;}.cls-19{stroke:#1d1d1b;}.cls-19,.cls-20,.cls-27{stroke-width:0.5px;}.cls-21{fill:#f2f2f2;}.cls-22{fill:#f9a94b;}.cls-23{fill:#f15a24;}.cls-24{fill:#29abe2;}.cls-25{fill:#001300;}.cls-26{fill:#ed1c24;}.cls-28{fill:url(#linear-gradient-4);}.cls-29{fill:url(#linear-gradient-5);}.cls-30{fill:url(#linear-gradient-6);}.cls-31{fill:url(#linear-gradient-7);}.cls-32{fill:url(#linear-gradient-8);}.cls-33{fill:url(#linear-gradient-9);}.cls-34{fill:url(#linear-gradient-10);}.cls-35{fill:url(#linear-gradient-11);}.cls-36{fill:url(#linear-gradient-12);}.cls-37{fill:url(#linear-gradient-13);}.cls-38{fill:url(#linear-gradient-14);}.cls-39{fill:url(#linear-gradient-15);}</style><linearGradient id="linear-gradient" x1="1356.384" y1="-145.247" x2="1356.384" y2="-140.436" gradientTransform="translate(185.231 1438.414) rotate(-90)" gradientUnits="userSpaceOnUse"><stop offset="0" stop-color="#656565"/><stop offset="0.618" stop-color="#1b1b1b"/><stop offset="0.629" stop-color="#545454"/><stop offset="0.983" stop-color="#3e3e3e"/></linearGradient><linearGradient id="linear-gradient-2" x1="1356.384" y1="-145.247" x2="1356.384" y2="-140.436" gradientTransform="translate(185.231 1438.414) rotate(-90)" gradientUnits="userSpaceOnUse"><stop offset="0" stop-color="#0e0e0e"/><stop offset="0.5"/><stop offset="0.521" stop-color="#010101"/><stop offset="0.726" stop-color="#0b0b0b"/><stop offset="1" stop-color="#0e0e0e"/></linearGradient><linearGradient id="linear-gradient-3" x1="1353.886" y1="-142.842" x2="1358.882" y2="-142.842" gradientTransform="translate(185.231 1438.414) rotate(-90)" gradientUnits="userSpaceOnUse"><stop offset="0" stop-color="#fff" stop-opacity="0.77"/><stop offset="0.203" stop-color="#fff" stop-opacity="0.65"/><stop offset="0.345" stop-color="#fff" stop-opacity="0.65"/><stop offset="0.346" stop-color="#fff" stop-opacity="0.65"/><stop offset="0.422" stop-color="#fff" stop-opacity="0.619"/><stop offset="0.54" stop-color="#fff" stop-opacity="0.532"/><stop offset="0.686" stop-color="#fff" stop-opacity="0.391"/><stop offset="0.851" stop-color="#fff" stop-opacity="0.198"/><stop offset="1" stop-color="#fff" stop-opacity="0"/><stop offset="1" stop-color="#7e7e7e" stop-opacity="0.091"/><stop offset="1" stop-color="#1b1b1b" stop-opacity="0.16"/></linearGradient><linearGradient id="linear-gradient-4" x1="1267.535" y1="-99.357" x2="1267.535" y2="-94.547" gradientTransform="translate(239.341 1349.566) rotate(-90)" xlink:href="#linear-gradient"/><linearGradient id="linear-gradient-5" x1="1267.535" y1="-99.357" x2="1267.535" y2="-94.547" gradientTransform="translate(239.341 1349.566) rotate(-90)" xlink:href="#linear-gradient-2"/><linearGradient id="linear-gradient-6" x1="1265.037" y1="-96.952" x2="1270.033" y2="-96.952" gradientTransform="translate(239.341 1349.566) rotate(-90)" xlink:href="#linear-gradient-3"/><linearGradient id="linear-gradient-7" x1="1178.686" y1="-53.468" x2="1178.686" y2="-48.657" gradientTransform="translate(293.451 1260.717) rotate(-90)" xlink:href="#linear-gradient"/><linearGradient id="linear-gradient-8" x1="1178.686" y1="-53.468" x2="1178.686" y2="-48.657" gradientTransform="translate(293.451 1260.717) rotate(-90)" xlink:href="#linear-gradient-2"/><linearGradient id="linear-gradient-9" x1="1176.188" y1="-51.062" x2="1181.184" y2="-51.062" gradientTransform="translate(293.451 1260.717) rotate(-90)" xlink:href="#linear-gradient-3"/><linearGradient id="linear-gradient-10" x1="1089.837" y1="-7.578" x2="1089.837" y2="-2.767" gradientTransform="translate(347.561 1171.868) rotate(-90)" xlink:href="#linear-gradient"/><linearGradient id="linear-gradient-11" x1="1089.837" y1="-7.578" x2="1089.837" y2="-2.767" gradientTransform="translate(347.561 1171.868) rotate(-90)" xlink:href="#linear-gradient-2"/><linearGradient id="linear-gradient-12" x1="1087.34" y1="-5.172" x2="1092.335" y2="-5.172" gradientTransform="translate(347.561 1171.868) rotate(-90)" xlink:href="#linear-gradient-3"/><linearGradient id="linear-gradient-13" x1="1000.989" y1="38.312" x2="1000.989" y2="43.123" gradientTransform="translate(401.672 1083.019) rotate(-90)" xlink:href="#linear-gradient"/><linearGradient id="linear-gradient-14" x1="1000.989" y1="38.312" x2="1000.989" y2="43.123" gradientTransform="translate(401.672 1083.019) rotate(-90)" xlink:href="#linear-gradient-2"/><linearGradient id="linear-gradient-15" x1="998.491" y1="40.717" x2="1003.486" y2="40.717" gradientTransform="translate(401.672 1083.019) rotate(-90)" xlink:href="#linear-gradient-3"/></defs><title>Toggle_sprite</title><rect class="cls-1" width="100" height="200"/><rect class="cls-1" x="100" width="100" height="200"/><path class="cls-2" d="M13.657,166.953c3.628-16.847,3.334,13.841,7.519.21s7.236,5.828,9.259.259,11.789-7.287,10.822.3,5.434,11.457,7.984.223,8.092,18.3,8.135.227,9.6,10.528,9.592.268,4.1-1.7,4.159-3.932l3.3-118.286A24.948,24.948,0,0,0,51.952,20.7a4.023,4.023,0,0,0-3.011.965L46.33,23.919a4.051,4.051,0,0,1-4.178.68L31.8,20.356a3.994,3.994,0,0,0-1.6-.3A17.349,17.349,0,0,0,13.241,36.913L9.724,162.795C9.662,165.029,10.029,183.8,13.657,166.953Z"/><path class="cls-3" d="M67.973,50.337a3.849,3.849,0,0,1-2.309,4.922c-2.146.774-3.373-1.494-2.658-4.576.706-3.108,1.377-5.154,2.288-4.707S67.219,48.464,67.973,50.337Z"/><ellipse class="cls-4" cx="65.496" cy="63.472" rx="5.384" ry="10.279"/><path d="M44.256,69.085l-1.458.192c-10.6,1.554-19.741,9.116-21.2,16.2-2.4,12.562-9.15,24.063-14.483,35.061-1.49,3.09,1.013,7.627,6,12.424A42.8,42.8,0,0,0,34.99,144.142q1.3.225,2.612.41c18.952,2.711,34.141-9.941,32.869-18-1.893-14.614-6.745-28.2-8.6-43.127C60.508,74.7,54.652,67.543,44.256,69.085Z"/><path class="cls-3" d="M46.105,190.6a7.127,7.127,0,0,0-2.631-1.134C38.486,168.878,30.578,151,21.016,138.91A30.723,30.723,0,0,1,30.5,128.592C38.554,146.446,44.106,168.22,46.105,190.6Z"/><path class="cls-3" d="M16.839,181.944a4.784,4.784,0,0,0,.06-2.052c13.287-13.562,23.8-27.319,29.719-38.96,4.03-.878,7.418-.936,10.071-.16A258.111,258.111,0,0,1,16.839,181.944Z"/><path d="M30.493,169.783a10.329,10.329,0,0,1-3.081-1.333c.215-.25.431-.5.644-.75,8.024-9.431,14.42-18.618,18.562-26.768,4.03-.878,7.418-.936,10.071-.16A242.16,242.16,0,0,1,31.421,168.9C31.114,169.2,30.8,169.489,30.493,169.783Z"/><line class="cls-1" x1="37.352" y1="169.439" x2="42.736" y2="167.482"/><path class="cls-3" d="M42.04,69.5c8.131,0,22.662,2.915,22.662-15.442,0-19.76-14.531-27.6-22.662-27.6S27.319,46.647,27.319,54.778A14.722,14.722,0,0,0,42.04,69.5Z"/><path class="cls-3" d="M44.256,69.085l-1.458.192c-10.6,1.554-19.741,9.116-21.2,16.2-2.4,12.562-9.15,24.063-14.483,35.061-1.489,3.09,64.629,14.076,63.357,6.016-1.894-14.616-6.746-28.2-8.6-43.129C60.508,74.7,54.652,67.543,44.256,69.085Z"/><rect x="34.875" y="80.115" width="13.189" height="7.394" rx="1.955" transform="translate(-52.027 82.195) rotate(-62.684)"/><rect x="44.024" y="77.435" width="4.596" height="1.798" rx="0.475" transform="translate(-44.534 83.544) rotate(-62.684)"/><rect class="cls-5" x="39.984" y="79.532" width="4.811" height="4.996" rx="0.756" transform="translate(-49.946 82.049) rotate(-62.684)"/><rect class="cls-6" x="39.984" y="79.532" width="4.811" height="4.996" rx="0.756" transform="translate(-49.946 82.049) rotate(-62.684)"/><rect class="cls-7" x="39.984" y="79.532" width="4.811" height="4.996" rx="0.756" transform="translate(-49.946 82.049) rotate(-62.684)"/><g class="cls-8"><path class="cls-9" d="M43.179,84.87a9.311,9.311,0,0,1-1.954-.926c-.4-.207-1.658-.6-1.776-1.137s.671-1.542.9-1.991c.246-.475.58-1.615,1.248-1.627.608-.01,1.447.664,1.954.926.4.209,1.658.6,1.776,1.137s-.681,1.561-.9,1.992c-.292.565-.548,1.5-1.247,1.627-.012,0,.009.181,0,.183.68-.126.911-.976,1.2-1.529a9.364,9.364,0,0,0,.946-1.891c.216-.9-.818-1.21-1.471-1.548a12.458,12.458,0,0,0-1.93-1c-.842-.252-1.058.556-1.371,1.159-.349.676-1.163,1.674-1.131,2.475.028.712.971.973,1.508,1.25a10.785,10.785,0,0,0,2.252,1.08C43.166,85.05,43.194,84.874,43.179,84.87Z"/></g><rect class="cls-10" x="39.984" y="79.532" width="4.811" height="4.996" rx="0.756" transform="translate(-49.946 82.049) rotate(-62.684)"/><g class="cls-11"><path d="M39.738,83.383l2.529,1.306c.34.176.74.469,1.142.341s.566-.612.742-.955a15.28,15.28,0,0,0,1.214-2.349.809.809,0,0,0-.325-1.05,15.309,15.309,0,0,0-2.53-1.306c-.826-.427-1.316-.423-1.8.452a13.34,13.34,0,0,0-1.3,2.511.805.805,0,0,0,.325,1.05c-.005,0,.005-.025,0-.031-.8-.644.017-1.651.378-2.349a5.732,5.732,0,0,1,1-1.8c.592-.468,1.54.275,2.065.547a11.856,11.856,0,0,1,1.861.961c.775.608.073,1.476-.271,2.143a6.522,6.522,0,0,1-1.1,2.011c-.576.456-1.44-.224-1.961-.493l-1.965-1.015S39.733,83.381,39.738,83.383Z"/></g><ellipse cx="47.998" cy="119.026" rx="0.367" ry="0.734"/><ellipse class="cls-12" cx="47.785" cy="121.473" rx="1.437" ry="1.713"/><path class="cls-13" d="M14.2,104.753a74.324,74.324,0,0,0,6.406-17.6c1.185-5.779,2.767-6.055,3.686-6.515,6.606-3.3,16.7,11.286,26.536,8.437,5.72-1.656,9.211-8.589,10.815-7.642.357.211.654,1.371.968,3.727q.177,1.319.387,2.624a19.343,19.343,0,0,1,4.8,3.061A9.987,9.987,0,0,1,70.88,96.83a4.447,4.447,0,0,1-1.689,1.5,5.954,5.954,0,0,1-4.02.19c.746,3.158,1.552,6.286,2.347,9.411C69.122,114.247,11.431,110.408,14.2,104.753Z"/><path class="cls-3" d="M.8,94.555c-.029-.031-.056-.062-.085-.092C.793,94.406,16.9,79.691,28.2,75.615c.454,1.3.857,2.578,1.207,3.827-10.038,3.8-17.676,11.086-22.784,15.543,1.446.876,2.947,1.748,4.294,2.542,3.042,1.769,5.35,3.17,7.055,4.246a43.611,43.611,0,0,0,11.356,5.5c-.189.224-.5.416-.524.719-2.672-.706-6.719-2-9.946-3.129q-3.889-1.307-7.634-3A70.9,70.9,0,0,1,3.693,97.39C3.6,97.462.647,94.834.8,94.555Z"/><path class="cls-14" d="M46,42.181s-.671-2.136-5.435-2.136-5.441,2.136-5.441,2.136c0-1.487,2.435-2.692,5.438-2.692S46,40.694,46,42.181Z"/><path class="cls-14" d="M60.929,42.671s-.672-2.136-5.436-2.136-5.44,2.136-5.44,2.136c0-1.488,2.434-2.692,5.438-2.692S60.929,41.184,60.929,42.671Z"/><path class="cls-15" d="M46.88,54.855c-.188-1.627.993-2.549,1.9-2.374A2.811,2.811,0,0,1,50.6,55.2"/><ellipse class="cls-16" cx="48.12" cy="54.912" rx="0.367" ry="0.362"/><ellipse class="cls-16" cx="49.589" cy="54.912" rx="0.367" ry="0.362"/><path class="cls-17" d="M53.971,62.18a9.222,9.222,0,0,0-2.9-3.005c-.564-.341-.962-.832-1.419-.617-.639.3-.779,1.459-1.215,1.406s-.467-1.182-1.05-1.483c-.4-.208-.776.213-1.094.355a8.857,8.857,0,0,0-3.56,3.344c.174.373,2.282,4.744,5.881,4.529C51.9,66.513,53.744,62.67,53.971,62.18Z"/><path class="cls-18" d="M42.744,62.215h11.25"/><path class="cls-13" d="M46.015,187.922a12.628,12.628,0,0,1-2.769.4,66.465,66.465,0,0,0-.772,10.969,14.371,14.371,0,0,0,4.386.429A66.551,66.551,0,0,0,46.015,187.922Z"/><path class="cls-13" d="M43.958,189.264c-.95,1.117.019,3.5,2.165,5.329s8.244,5.457,9.194,4.341-3.608-6.557-5.753-8.384S44.909,188.148,43.958,189.264Z"/><path class="cls-19" d="M56.808,93.7c.087.061.731,1.449.779,1.545.445.9,2.733,3,6.949,3.338.192.072.4.141.612.206"/><path class="cls-20" d="M30.381,96.14c.1.063.2.125.3.187,3.467,1.578,12.828,6.536,14.815,3.232.857-1.623.312-4.114-.889-6.573"/><path class="cls-3" d="M24.629,50.093a3.85,3.85,0,0,0,2.309,4.922c2.146.774,3.373-1.495,2.658-4.577-.706-3.108-1.377-5.153-2.288-4.706S25.383,48.22,24.629,50.093Z"/><ellipse class="cls-4" cx="26.829" cy="62.983" rx="5.384" ry="10.279"/><path class="cls-13" d="M19.442,179.876a5.277,5.277,0,0,1-1.592-1.064,33.981,33.981,0,0,0-9.121,6.13A19.9,19.9,0,0,0,12,188.163,28.929,28.929,0,0,1,19.442,179.876Z"/><path class="cls-13" d="M16.686,179.569c-1.327.1-2.246,2.2-2.052,4.677s1.753,8.551,3.081,8.447,1.921-6.345,1.727-8.824S18.014,179.465,16.686,179.569Z"/><path class="cls-2" d="M44.671,25.651S38.9,26.31,35.445,28.9c-3.712,2.785-5.987,8.475-5.987,8.475s6.135-1.018,9.707-3.876C42.356,30.946,44.671,25.651,44.671,25.651Z"/><path class="cls-2" d="M64.022,37.786s-3.869-5.6-8.474-8.218c-4.948-2.812-12.129-3.2-12.129-3.2s4.444,5.849,9.391,8.493C57.232,37.224,64.022,37.786,64.022,37.786Z"/><path class="cls-21" d="M80.387,48.33c6.413.5,12.411,1.116,18.2,3q.154-1.219.314-2.482C93.056,47.35,86.973,47,80.465,46.692,80.435,47.244,80.41,47.79,80.387,48.33Z"/><path class="cls-22" d="M80.519,48.645a30.232,30.232,0,0,1,7.569.7q.009-1.158.018-2.4a36.315,36.315,0,0,0-7.44.039Q80.588,47.847,80.519,48.645Z"/><ellipse class="cls-23" cx="98.538" cy="50.002" rx="1.296" ry="0.331" transform="matrix(0.258, -0.966, 0.966, 0.258, 24.802, 132.3)"/><path d="M37.775,170.5c-.148-.407-.293-.817-.444-1.219-4.49-12.032-10.047-22.443-16.315-30.37A30.723,30.723,0,0,1,30.5,128.593a185.071,185.071,0,0,1,12.583,40.556c.026.136.051.273.076.409A51.642,51.642,0,0,0,37.775,170.5Z"/><path class="cls-3" d="M57.439,78.67c5.813-.943,16.979-5.067,29.175-4.438a52.507,52.507,0,0,1-.67-7.118A76.055,76.055,0,0,1,86.45,59.5c.294-2.786.725-6.159,1.142-8.653a10.5,10.5,0,0,1-1.807.1c-1.91.079-3.169-1.99-1.281-4.6,1.735-2.465,3.179-3.978,4.375-3.469,1.007.454,2.3,3.056,1.932,5.5a3.276,3.276,0,0,1-2.319,2.263,39.167,39.167,0,0,0,.213,10.838c.23,1.863.493,4.363.777,7.626.157,1.7.321,3.625.525,5.436.05.007.411,3.187.637,4.225q-1.094-.129-2.235-.224a62.5,62.5,0,0,0-8.579-.11c-3.053.368-6.277.854-9.644,1.49-4.24.8-8.187,1.74-11.821,2.744A40.382,40.382,0,0,0,57.439,78.67Z"/><path class="cls-9" d="M61.8,48.933s-3.2-3.315-5.987-3.377c-2.99-.067-6.39,3.377-6.39,3.377s3.532,3.248,6.479,3.156C58.536,52.006,61.8,48.933,61.8,48.933Z"/><path class="cls-24" d="M61.8,48.933s-3.2-3.315-5.987-3.377c-2.99-.067-6.39,3.377-6.39,3.377a32.057,32.057,0,0,1,12.377,0Z"/><path class="cls-16" d="M49.432,48.8a31.758,31.758,0,0,1,4-.4c.6-.022,1.262-.029,2.353,0,1.448.038,3.494.136,6.039.4,0,0-1.462-.158-3.529-.28-.958-.056-1.8-.09-2.51-.112"/><path class="cls-15" d="M60.113,48.566a2.962,2.962,0,0,0-.416-3.938"/><path class="cls-15" d="M60.91,48.566a2.759,2.759,0,0,0,.541-1.847,2.8,2.8,0,0,0-.947-1.846"/><path class="cls-15" d="M54.938,48.409a3.269,3.269,0,0,0-.471-4.392"/><path class="cls-15" d="M55.948,48.409a3.269,3.269,0,0,0-.471-4.392"/><path class="cls-15" d="M56.732,48.409a3.268,3.268,0,0,0-.47-4.392"/><path class="cls-15" d="M57.673,48.409a3.267,3.267,0,0,0-.469-4.392"/><path class="cls-15" d="M58.458,48.409a3.269,3.269,0,0,0-.471-4.392"/><path class="cls-15" d="M59.4,48.566a3.07,3.07,0,0,0,.627-2.092,3.147,3.147,0,0,0-1.1-2.093"/><path class="cls-15" d="M51.693,48.535a2.654,2.654,0,0,0-.93-3.436"/><path class="cls-15" d="M52.584,48.563A2.541,2.541,0,0,0,53,46.605a2.789,2.789,0,0,0-1.38-1.732"/><path class="cls-15" d="M53.5,48.548a3.115,3.115,0,0,0,.259-2.184,3.181,3.181,0,0,0-1.442-1.89"/><path class="cls-15" d="M54.065,48.409a3.268,3.268,0,0,0-.47-4.392"/><path class="cls-15" d="M51.111,48.618a2.32,2.32,0,0,0-.044-1.649,2.381,2.381,0,0,0-1.283-1.24"/><ellipse class="cls-16" cx="57.433" cy="50.066" rx="1.176" ry="1.412"/><path class="cls-9" d="M46.872,48.933s-3.2-3.315-5.988-3.377c-2.99-.067-6.389,3.377-6.389,3.377s3.531,3.248,6.479,3.156C43.608,52.006,46.872,48.933,46.872,48.933Z"/><path class="cls-24" d="M46.872,48.933s-3.2-3.315-5.988-3.377c-2.99-.067-6.389,3.377-6.389,3.377a32.057,32.057,0,0,1,12.377,0Z"/><path class="cls-16" d="M34.5,48.8a31.761,31.761,0,0,1,4-.4c.6-.022,1.263-.029,2.353,0,1.449.038,3.495.136,6.04.4,0,0-1.462-.158-3.529-.28-.958-.056-1.8-.09-2.51-.112"/><path class="cls-15" d="M36.692,48.566a2.962,2.962,0,0,1,.416-3.938"/><path class="cls-15" d="M35.9,48.566a2.749,2.749,0,0,1-.541-1.847,2.794,2.794,0,0,1,.947-1.846"/><path class="cls-15" d="M41.867,48.409a3.269,3.269,0,0,1,.471-4.392"/><path class="cls-15" d="M40.857,48.409a3.267,3.267,0,0,1,.471-4.392"/><path class="cls-15" d="M40.073,48.409a3.267,3.267,0,0,1,.471-4.392"/><path class="cls-15" d="M39.132,48.409a3.268,3.268,0,0,1,.47-4.392"/><path class="cls-15" d="M38.348,48.409a3.269,3.269,0,0,1,.471-4.392"/><path class="cls-15" d="M37.406,48.566a3.07,3.07,0,0,1-.627-2.092,3.147,3.147,0,0,1,1.1-2.093"/><path class="cls-15" d="M45.112,48.535a2.654,2.654,0,0,1,.93-3.436"/><path class="cls-15" d="M44.222,48.563a2.541,2.541,0,0,1-.417-1.958,2.792,2.792,0,0,1,1.38-1.732"/><path class="cls-15" d="M43.305,48.548a3.115,3.115,0,0,1-.259-2.184,3.181,3.181,0,0,1,1.442-1.89"/><path class="cls-15" d="M42.74,48.409a3.268,3.268,0,0,1,.47-4.392"/><path class="cls-15" d="M45.694,48.618a2.32,2.32,0,0,1,.044-1.649,2.378,2.378,0,0,1,1.283-1.24"/><ellipse class="cls-16" cx="42.504" cy="50.066" rx="1.176" ry="1.412"/><line class="cls-18" x1="17.855" y1="112.163" x2="17.656" y2="110.558"/><polygon class="cls-25" points="17.523 109.488 17.134 110.23 16.744 110.973 17.676 110.923 18.609 110.873 18.066 110.18 17.523 109.488"/><ellipse class="cls-26" cx="19.448" cy="117.439" rx="4.763" ry="2.024" transform="translate(-53.778 23.588) rotate(-28.56)"/><ellipse class="cls-26" cx="17.473" cy="115.79" rx="4.557" ry="2.115" transform="translate(-93.149 77.379) rotate(-62.27)"/><line class="cls-18" x1="18.557" y1="121.199" x2="18.235" y2="118.717"/><line class="cls-18" x1="17.534" y1="120.516" x2="18.342" y2="119.664"/><line class="cls-18" x1="17.808" y1="121.777" x2="18.526" y2="120.98"/><line class="cls-18" x1="19.489" y1="121.581" x2="18.571" y2="121.03"/><line class="cls-18" x1="19.413" y1="120.955" x2="18.479" y2="120.372"/><line class="cls-18" x1="19.26" y1="120.214" x2="18.327" y2="119.632"/><line class="cls-18" x1="17.626" y1="121.174" x2="18.434" y2="120.322"/><path class="cls-3" d="M28.249,107.993a6.627,6.627,0,0,0-1.317,1.317,3.229,3.229,0,0,0-.524,3.012c1.065,2.224,3.59,3.655,4.679,3.468,1.275-.249,1.623-2.31,1.679-5.325.1-3.2-2.078-4.216-3.614-3.108"/><path class="cls-27" d="M26.83,109.46a3.188,3.188,0,0,0-.431,2.82c1.04,2.236,3.547,3.7,4.639,3.523,1.278-.234,1.651-2.291,1.742-5.3,0-.1.007-.2.007-.3"/><path class="cls-2" d="M113.657,166.953c3.628-16.847,3.334,13.841,7.519.21s7.236,5.828,9.259.259,11.789-7.287,10.822.3,5.434,11.457,7.984.223,8.092,18.3,8.135.227,9.6,10.528,9.592.268,4.1-1.7,4.159-3.932l3.3-118.286A24.948,24.948,0,0,0,151.952,20.7a4.023,4.023,0,0,0-3.011.965l-2.611,2.252a4.051,4.051,0,0,1-4.178.68L131.8,20.356a3.994,3.994,0,0,0-1.6-.3,17.349,17.349,0,0,0-16.961,16.859l-3.517,125.882C109.662,165.029,110.029,183.8,113.657,166.953Z"/><path class="cls-3" d="M167.973,50.337a3.849,3.849,0,0,1-2.309,4.922c-2.146.774-3.373-1.494-2.658-4.576.706-3.108,1.377-5.154,2.288-4.707S167.219,48.464,167.973,50.337Z"/><ellipse class="cls-4" cx="165.496" cy="63.472" rx="5.384" ry="10.279"/><path d="M144.256,69.085l-1.458.192c-10.6,1.554-19.741,9.116-21.2,16.2-2.4,12.562-9.15,24.063-14.483,35.061-1.49,3.09,1.013,7.627,6,12.424a42.8,42.8,0,0,0,21.874,11.183q1.3.225,2.612.41c18.952,2.711,34.141-9.941,32.869-18-1.893-14.614-6.745-28.2-8.6-43.127C160.508,74.7,154.652,67.543,144.256,69.085Z"/><path class="cls-3" d="M146.1,190.6a7.127,7.127,0,0,0-2.631-1.134c-4.988-20.589-12.9-38.463-22.458-50.557a30.723,30.723,0,0,1,9.479-10.318C138.554,146.446,144.106,168.22,146.1,190.6Z"/><path class="cls-3" d="M116.839,181.944a4.784,4.784,0,0,0,.06-2.052c13.287-13.562,23.8-27.319,29.719-38.96,4.03-.878,7.418-.936,10.071-.16A258.111,258.111,0,0,1,116.839,181.944Z"/><path d="M130.493,169.783a10.329,10.329,0,0,1-3.081-1.333c.215-.25.431-.5.644-.75,8.024-9.431,14.42-18.618,18.562-26.768,4.03-.878,7.418-.936,10.071-.16A242.16,242.16,0,0,1,131.421,168.9C131.114,169.2,130.8,169.489,130.493,169.783Z"/><line class="cls-1" x1="137.352" y1="169.439" x2="142.736" y2="167.482"/><path class="cls-3" d="M142.04,69.5c8.131,0,22.662,2.915,22.662-15.442,0-19.76-14.531-27.6-22.662-27.6s-14.721,20.194-14.721,28.325A14.722,14.722,0,0,0,142.04,69.5Z"/><path class="cls-3" d="M144.256,69.085l-1.458.192c-10.6,1.554-19.741,9.116-21.2,16.2-2.4,12.562-9.15,24.063-14.483,35.061-1.489,3.09,64.629,14.076,63.357,6.016-1.894-14.616-6.746-28.2-8.6-43.129C160.508,74.7,154.652,67.543,144.256,69.085Z"/><rect x="134.875" y="80.115" width="13.189" height="7.394" rx="1.955" transform="translate(2.083 171.044) rotate(-62.684)"/><rect x="144.024" y="77.435" width="4.596" height="1.798" rx="0.475" transform="translate(9.576 172.393) rotate(-62.684)"/><rect class="cls-28" x="139.984" y="79.532" width="4.811" height="4.996" rx="0.756" transform="translate(4.164 170.898) rotate(-62.684)"/><rect class="cls-29" x="139.984" y="79.532" width="4.811" height="4.996" rx="0.756" transform="translate(4.164 170.898) rotate(-62.684)"/><rect class="cls-30" x="139.984" y="79.532" width="4.811" height="4.996" rx="0.756" transform="translate(4.164 170.898) rotate(-62.684)"/><g class="cls-8"><path class="cls-9" d="M143.179,84.87a9.311,9.311,0,0,1-1.954-.926c-.4-.207-1.658-.6-1.776-1.137s.671-1.542.9-1.991c.246-.475.58-1.615,1.248-1.627.608-.01,1.447.664,1.954.926.4.209,1.658.6,1.776,1.137s-.681,1.561-.9,1.992c-.292.565-.548,1.5-1.247,1.627-.012,0,.009.181,0,.183.68-.126.911-.976,1.2-1.529a9.364,9.364,0,0,0,.946-1.891c.216-.9-.818-1.21-1.471-1.548a12.458,12.458,0,0,0-1.93-1c-.842-.252-1.058.556-1.371,1.159-.349.676-1.163,1.674-1.131,2.475.028.712.971.973,1.508,1.25a10.785,10.785,0,0,0,2.252,1.08C143.166,85.05,143.194,84.874,143.179,84.87Z"/></g><rect class="cls-10" x="139.984" y="79.532" width="4.811" height="4.996" rx="0.756" transform="translate(4.164 170.898) rotate(-62.684)"/><g class="cls-11"><path d="M139.738,83.383l2.529,1.306c.34.176.74.469,1.142.341s.566-.612.742-.955a15.28,15.28,0,0,0,1.214-2.349.809.809,0,0,0-.325-1.05,15.309,15.309,0,0,0-2.53-1.306c-.826-.427-1.316-.423-1.8.452a13.34,13.34,0,0,0-1.3,2.511.805.805,0,0,0,.325,1.05s0-.025,0-.031c-.8-.644.017-1.651.378-2.349a5.732,5.732,0,0,1,1-1.8c.592-.468,1.54.275,2.065.547a11.856,11.856,0,0,1,1.861.961c.775.608.073,1.476-.271,2.143a6.522,6.522,0,0,1-1.105,2.011c-.576.456-1.44-.224-1.961-.493l-1.965-1.015S139.733,83.381,139.738,83.383Z"/></g><ellipse cx="147.998" cy="119.026" rx="0.367" ry="0.734"/><ellipse class="cls-12" cx="147.785" cy="121.473" rx="1.437" ry="1.713"/><path class="cls-13" d="M114.2,104.753a74.324,74.324,0,0,0,6.406-17.6c1.185-5.779,2.767-6.055,3.686-6.515,6.606-3.3,16.7,11.286,26.536,8.437,5.72-1.656,9.211-8.589,10.815-7.642.357.211.654,1.371.968,3.727q.177,1.319.387,2.624a19.343,19.343,0,0,1,4.8,3.061,9.987,9.987,0,0,1,3.082,5.988,4.447,4.447,0,0,1-1.689,1.5,5.954,5.954,0,0,1-4.02.19c.746,3.158,1.552,6.286,2.347,9.411C169.122,114.247,111.431,110.408,114.2,104.753Z"/><path class="cls-3" d="M100.8,94.555c-.029-.031-.056-.062-.085-.092.076-.057,16.181-14.772,27.478-18.848.454,1.3.857,2.578,1.207,3.827-10.038,3.8-17.676,11.086-22.784,15.543,1.446.876,2.947,1.748,4.294,2.542,3.042,1.769,5.35,3.17,7.055,4.246a43.611,43.611,0,0,0,11.356,5.5c-.189.224-.5.416-.524.719-2.672-.706-6.719-2-9.946-3.129q-3.889-1.307-7.634-3a70.9,70.9,0,0,1-7.526-4.482C103.6,97.462,100.647,94.834,100.8,94.555Z"/><path class="cls-14" d="M146,42.181s-.671-2.136-5.435-2.136-5.441,2.136-5.441,2.136c0-1.487,2.435-2.692,5.438-2.692S146,40.694,146,42.181Z"/><path class="cls-14" d="M160.929,42.671s-.672-2.136-5.436-2.136-5.44,2.136-5.44,2.136c0-1.488,2.434-2.692,5.438-2.692S160.929,41.184,160.929,42.671Z"/><path class="cls-15" d="M146.88,54.855c-.188-1.627.993-2.549,1.9-2.374A2.811,2.811,0,0,1,150.6,55.2"/><ellipse class="cls-16" cx="148.12" cy="54.912" rx="0.367" ry="0.362"/><ellipse class="cls-16" cx="149.589" cy="54.912" rx="0.367" ry="0.362"/><path class="cls-17" d="M153.971,62.18a9.222,9.222,0,0,0-2.9-3.005c-.564-.341-.962-.832-1.419-.617-.639.3-.779,1.459-1.215,1.406s-.467-1.182-1.05-1.483c-.4-.208-.776.213-1.094.355a8.857,8.857,0,0,0-3.56,3.344c.174.373,2.282,4.744,5.881,4.529C151.9,66.513,153.744,62.67,153.971,62.18Z"/><path class="cls-18" d="M142.744,62.215h11.25"/><path class="cls-13" d="M146.015,187.922a12.628,12.628,0,0,1-2.769.4,66.465,66.465,0,0,0-.772,10.969,14.371,14.371,0,0,0,4.386.429A66.551,66.551,0,0,0,146.015,187.922Z"/><path class="cls-13" d="M143.958,189.264c-.95,1.117.019,3.5,2.165,5.329s8.244,5.457,9.194,4.341-3.608-6.557-5.753-8.384S144.909,188.148,143.958,189.264Z"/><path class="cls-19" d="M156.808,93.7c.087.061.731,1.449.779,1.545.445.9,2.733,3,6.949,3.338.192.072.4.141.612.206"/><path class="cls-20" d="M130.381,96.14c.1.063.2.125.3.187,3.467,1.578,12.828,6.536,14.815,3.232.857-1.623.312-4.114-.889-6.573"/><path class="cls-3" d="M124.629,50.093a3.85,3.85,0,0,0,2.309,4.922c2.146.774,3.373-1.495,2.658-4.577-.706-3.108-1.377-5.153-2.288-4.706S125.383,48.22,124.629,50.093Z"/><ellipse class="cls-4" cx="126.829" cy="62.983" rx="5.384" ry="10.279"/><path class="cls-13" d="M119.442,179.876a5.277,5.277,0,0,1-1.592-1.064,33.981,33.981,0,0,0-9.121,6.13A19.9,19.9,0,0,0,112,188.163,28.929,28.929,0,0,1,119.442,179.876Z"/><path class="cls-13" d="M116.686,179.569c-1.327.1-2.246,2.2-2.052,4.677s1.753,8.551,3.081,8.447,1.921-6.345,1.727-8.824S118.014,179.465,116.686,179.569Z"/><path class="cls-2" d="M144.671,25.651s-5.771.659-9.226,3.252c-3.712,2.785-5.987,8.475-5.987,8.475s6.135-1.018,9.707-3.876C142.356,30.946,144.671,25.651,144.671,25.651Z"/><path class="cls-2" d="M164.022,37.786s-3.869-5.6-8.474-8.218c-4.948-2.812-12.129-3.2-12.129-3.2s4.444,5.849,9.391,8.493C157.232,37.224,164.022,37.786,164.022,37.786Z"/><path d="M137.775,170.5c-.148-.407-.293-.817-.444-1.219-4.49-12.032-10.047-22.443-16.315-30.37a30.723,30.723,0,0,1,9.479-10.318,185.071,185.071,0,0,1,12.583,40.556c.026.136.051.273.076.409A51.642,51.642,0,0,0,137.775,170.5Z"/><path class="cls-9" d="M161.8,48.933s-3.2-3.315-5.987-3.377c-2.99-.067-6.39,3.377-6.39,3.377s3.532,3.248,6.479,3.156C158.536,52.006,161.8,48.933,161.8,48.933Z"/><path class="cls-24" d="M161.8,48.933s-3.2-3.315-5.987-3.377c-2.99-.067-6.39,3.377-6.39,3.377a32.057,32.057,0,0,1,12.377,0Z"/><path class="cls-16" d="M149.432,48.8a31.758,31.758,0,0,1,4-.4c.6-.022,1.262-.029,2.353,0,1.448.038,3.494.136,6.039.4,0,0-1.462-.158-3.529-.28-.958-.056-1.8-.09-2.51-.112"/><path class="cls-15" d="M160.113,48.566a2.962,2.962,0,0,0-.416-3.938"/><path class="cls-15" d="M160.91,48.566a2.759,2.759,0,0,0,.541-1.847,2.8,2.8,0,0,0-.947-1.846"/><path class="cls-15" d="M154.938,48.409a3.269,3.269,0,0,0-.471-4.392"/><path class="cls-15" d="M155.948,48.409a3.269,3.269,0,0,0-.471-4.392"/><path class="cls-15" d="M156.732,48.409a3.268,3.268,0,0,0-.47-4.392"/><path class="cls-15" d="M157.673,48.409a3.267,3.267,0,0,0-.469-4.392"/><path class="cls-15" d="M158.458,48.409a3.269,3.269,0,0,0-.471-4.392"/><path class="cls-15" d="M159.4,48.566a3.07,3.07,0,0,0,.627-2.092,3.147,3.147,0,0,0-1.1-2.093"/><path class="cls-15" d="M151.693,48.535a2.654,2.654,0,0,0-.93-3.436"/><path class="cls-15" d="M152.584,48.563A2.541,2.541,0,0,0,153,46.605a2.789,2.789,0,0,0-1.38-1.732"/><path class="cls-15" d="M153.5,48.548a3.115,3.115,0,0,0,.259-2.184,3.181,3.181,0,0,0-1.442-1.89"/><path class="cls-15" d="M154.065,48.409a3.268,3.268,0,0,0-.47-4.392"/><path class="cls-15" d="M151.111,48.618a2.32,2.32,0,0,0-.044-1.649,2.381,2.381,0,0,0-1.283-1.24"/><ellipse class="cls-16" cx="157.433" cy="50.066" rx="1.176" ry="1.412"/><path class="cls-9" d="M146.872,48.933s-3.205-3.315-5.988-3.377c-2.99-.067-6.389,3.377-6.389,3.377s3.531,3.248,6.479,3.156C143.608,52.006,146.872,48.933,146.872,48.933Z"/><path class="cls-24" d="M146.872,48.933s-3.205-3.315-5.988-3.377c-2.99-.067-6.389,3.377-6.389,3.377a32.057,32.057,0,0,1,12.377,0Z"/><path class="cls-16" d="M134.5,48.8a31.761,31.761,0,0,1,4-.4c.6-.022,1.263-.029,2.353,0,1.449.038,3.5.136,6.04.4,0,0-1.462-.158-3.529-.28-.958-.056-1.8-.09-2.51-.112"/><path class="cls-15" d="M136.692,48.566a2.962,2.962,0,0,1,.416-3.938"/><path class="cls-15" d="M135.9,48.566a2.749,2.749,0,0,1-.541-1.847,2.794,2.794,0,0,1,.947-1.846"/><path class="cls-15" d="M141.867,48.409a3.269,3.269,0,0,1,.471-4.392"/><path class="cls-15" d="M140.857,48.409a3.267,3.267,0,0,1,.471-4.392"/><path class="cls-15" d="M140.073,48.409a3.267,3.267,0,0,1,.471-4.392"/><path class="cls-15" d="M139.132,48.409a3.268,3.268,0,0,1,.47-4.392"/><path class="cls-15" d="M138.348,48.409a3.269,3.269,0,0,1,.471-4.392"/><path class="cls-15" d="M137.406,48.566a3.07,3.07,0,0,1-.627-2.092,3.147,3.147,0,0,1,1.1-2.093"/><path class="cls-15" d="M145.112,48.535a2.654,2.654,0,0,1,.93-3.436"/><path class="cls-15" d="M144.222,48.563a2.541,2.541,0,0,1-.417-1.958,2.792,2.792,0,0,1,1.38-1.732"/><path class="cls-15" d="M143.305,48.548a3.115,3.115,0,0,1-.259-2.184,3.181,3.181,0,0,1,1.442-1.89"/><path class="cls-15" d="M142.74,48.409a3.268,3.268,0,0,1,.47-4.392"/><path class="cls-15" d="M145.694,48.618a2.32,2.32,0,0,1,.044-1.649,2.378,2.378,0,0,1,1.283-1.24"/><ellipse class="cls-16" cx="142.504" cy="50.066" rx="1.176" ry="1.412"/><line class="cls-18" x1="117.855" y1="112.163" x2="117.656" y2="110.558"/><polygon class="cls-25" points="117.523 109.488 117.134 110.23 116.744 110.973 117.676 110.923 118.609 110.873 118.066 110.18 117.523 109.488"/><ellipse class="cls-26" cx="119.448" cy="117.439" rx="4.763" ry="2.024" transform="translate(-41.61 71.396) rotate(-28.56)"/><ellipse class="cls-26" cx="117.473" cy="115.79" rx="4.557" ry="2.115" transform="translate(-39.68 165.894) rotate(-62.27)"/><line class="cls-18" x1="118.557" y1="121.199" x2="118.235" y2="118.717"/><line class="cls-18" x1="117.534" y1="120.516" x2="118.342" y2="119.664"/><line class="cls-18" x1="117.808" y1="121.777" x2="118.526" y2="120.98"/><line class="cls-18" x1="119.489" y1="121.581" x2="118.571" y2="121.03"/><line class="cls-18" x1="119.413" y1="120.955" x2="118.479" y2="120.372"/><line class="cls-18" x1="119.26" y1="120.214" x2="118.327" y2="119.632"/><line class="cls-18" x1="117.626" y1="121.174" x2="118.434" y2="120.322"/><path class="cls-3" d="M128.249,107.993a6.627,6.627,0,0,0-1.317,1.317,3.229,3.229,0,0,0-.524,3.012c1.065,2.224,3.59,3.655,4.679,3.468,1.275-.249,1.623-2.31,1.679-5.325.1-3.2-2.078-4.216-3.614-3.108"/><path class="cls-27" d="M126.83,109.46a3.188,3.188,0,0,0-.431,2.82c1.04,2.236,3.547,3.7,4.639,3.523,1.278-.234,1.651-2.291,1.742-5.3,0-.1.007-.2.007-.3"/><path class="cls-2" d="M213.657,166.953c3.628-16.847,3.334,13.841,7.519.21s7.236,5.828,9.259.259,11.789-7.287,10.822.3,5.434,11.457,7.984.223,8.092,18.3,8.135.227,9.6,10.528,9.592.268,4.1-1.7,4.159-3.932l3.3-118.286A24.948,24.948,0,0,0,251.952,20.7a4.023,4.023,0,0,0-3.011.965l-2.611,2.252a4.051,4.051,0,0,1-4.178.68L231.8,20.356a3.994,3.994,0,0,0-1.6-.3,17.349,17.349,0,0,0-16.961,16.859l-3.517,125.882C209.662,165.029,210.029,183.8,213.657,166.953Z"/><path class="cls-3" d="M267.973,50.337a3.849,3.849,0,0,1-2.309,4.922c-2.146.774-3.373-1.494-2.658-4.576.706-3.108,1.377-5.154,2.288-4.707S267.219,48.464,267.973,50.337Z"/><ellipse class="cls-4" cx="265.496" cy="63.472" rx="5.384" ry="10.279"/><path d="M244.256,69.085l-1.458.192c-10.6,1.554-19.741,9.116-21.2,16.2-2.4,12.562-9.15,24.063-14.483,35.061-1.49,3.09,1.013,7.627,6,12.424a42.8,42.8,0,0,0,21.874,11.183q1.3.225,2.612.41c18.952,2.711,34.141-9.941,32.869-18-1.893-14.614-6.745-28.2-8.6-43.127C260.508,74.7,254.652,67.543,244.256,69.085Z"/><path class="cls-3" d="M246.105,190.6a7.127,7.127,0,0,0-2.631-1.134c-4.988-20.589-12.9-38.463-22.458-50.557a30.723,30.723,0,0,1,9.479-10.318C238.554,146.446,244.106,168.22,246.105,190.6Z"/><path class="cls-3" d="M216.839,181.944a4.784,4.784,0,0,0,.06-2.052c13.287-13.562,23.8-27.319,29.719-38.96,4.03-.878,7.418-.936,10.071-.16A258.111,258.111,0,0,1,216.839,181.944Z"/><path d="M230.493,169.783a10.329,10.329,0,0,1-3.081-1.333c.215-.25.431-.5.644-.75,8.024-9.431,14.42-18.618,18.562-26.768,4.03-.878,7.418-.936,10.071-.16A242.16,242.16,0,0,1,231.421,168.9C231.114,169.2,230.8,169.489,230.493,169.783Z"/><line class="cls-1" x1="237.352" y1="169.439" x2="242.736" y2="167.482"/><path class="cls-3" d="M242.04,69.5c8.131,0,22.662,2.915,22.662-15.442,0-19.76-14.531-27.6-22.662-27.6s-14.721,20.194-14.721,28.325A14.722,14.722,0,0,0,242.04,69.5Z"/><path class="cls-3" d="M244.256,69.085l-1.458.192c-10.6,1.554-19.741,9.116-21.2,16.2-2.4,12.562-9.15,24.063-14.483,35.061-1.489,3.09,64.629,14.076,63.357,6.016-1.894-14.616-6.746-28.2-8.6-43.129C260.508,74.7,254.652,67.543,244.256,69.085Z"/><rect x="234.875" y="80.115" width="13.189" height="7.394" rx="1.955" transform="translate(56.194 259.893) rotate(-62.684)"/><rect x="244.024" y="77.435" width="4.596" height="1.798" rx="0.475" transform="translate(63.687 261.241) rotate(-62.684)"/><rect class="cls-31" x="239.984" y="79.532" width="4.811" height="4.996" rx="0.756" transform="translate(58.274 259.747) rotate(-62.684)"/><rect class="cls-32" x="239.984" y="79.532" width="4.811" height="4.996" rx="0.756" transform="translate(58.274 259.747) rotate(-62.684)"/><rect class="cls-33" x="239.984" y="79.532" width="4.811" height="4.996" rx="0.756" transform="translate(58.274 259.747) rotate(-62.684)"/><g class="cls-8"><path class="cls-9" d="M243.179,84.87a9.311,9.311,0,0,1-1.954-.926c-.4-.207-1.658-.6-1.776-1.137s.671-1.542.9-1.991c.246-.475.58-1.615,1.248-1.627.608-.01,1.447.664,1.954.926.4.209,1.658.6,1.776,1.137s-.681,1.561-.9,1.992c-.292.565-.548,1.5-1.247,1.627-.012,0,.009.181,0,.183.68-.126.911-.976,1.2-1.529a9.364,9.364,0,0,0,.946-1.891c.216-.9-.818-1.21-1.471-1.548a12.458,12.458,0,0,0-1.93-1c-.842-.252-1.058.556-1.371,1.159-.349.676-1.163,1.674-1.131,2.475.028.712.971.973,1.508,1.25a10.785,10.785,0,0,0,2.252,1.08C243.166,85.05,243.194,84.874,243.179,84.87Z"/></g><rect class="cls-10" x="239.984" y="79.532" width="4.811" height="4.996" rx="0.756" transform="translate(58.274 259.747) rotate(-62.684)"/><g class="cls-11"><path d="M239.738,83.383l2.529,1.306c.34.176.74.469,1.142.341s.566-.612.742-.955a15.28,15.28,0,0,0,1.214-2.349.809.809,0,0,0-.325-1.05,15.309,15.309,0,0,0-2.53-1.306c-.826-.427-1.316-.423-1.8.452a13.34,13.34,0,0,0-1.3,2.511.805.805,0,0,0,.325,1.05s0-.025,0-.031c-.8-.644.017-1.651.378-2.349a5.732,5.732,0,0,1,1-1.8c.592-.468,1.54.275,2.065.547a11.856,11.856,0,0,1,1.861.961c.775.608.073,1.476-.271,2.143a6.522,6.522,0,0,1-1.105,2.011c-.576.456-1.44-.224-1.961-.493l-1.965-1.015S239.733,83.381,239.738,83.383Z"/></g><ellipse cx="247.998" cy="119.026" rx="0.367" ry="0.734"/><ellipse class="cls-12" cx="247.785" cy="121.473" rx="1.437" ry="1.713"/><path class="cls-13" d="M214.2,104.753a74.324,74.324,0,0,0,6.406-17.6c1.185-5.779,2.767-6.055,3.686-6.515,6.606-3.3,16.7,11.286,26.536,8.437,5.72-1.656,9.211-8.589,10.815-7.642.357.211.654,1.371.968,3.727q.177,1.319.387,2.624a19.343,19.343,0,0,1,4.8,3.061,9.987,9.987,0,0,1,3.082,5.988,4.447,4.447,0,0,1-1.689,1.5,5.954,5.954,0,0,1-4.02.19c.746,3.158,1.552,6.286,2.347,9.411C269.122,114.247,211.431,110.408,214.2,104.753Z"/><path class="cls-3" d="M200.8,94.555c-.029-.031-.056-.062-.085-.092.076-.057,16.181-14.772,27.478-18.848.454,1.3.857,2.578,1.207,3.827-10.038,3.8-17.676,11.086-22.784,15.543,1.446.876,2.947,1.748,4.294,2.542,3.042,1.769,5.35,3.17,7.055,4.246a43.611,43.611,0,0,0,11.356,5.5c-.189.224-.5.416-.524.719-2.672-.706-6.719-2-9.946-3.129q-3.89-1.307-7.634-3a70.9,70.9,0,0,1-7.526-4.482C203.6,97.462,200.647,94.834,200.8,94.555Z"/><path class="cls-14" d="M246,42.181s-.671-2.136-5.435-2.136-5.441,2.136-5.441,2.136c0-1.487,2.435-2.692,5.438-2.692S246,40.694,246,42.181Z"/><path class="cls-14" d="M260.929,42.671s-.672-2.136-5.436-2.136-5.44,2.136-5.44,2.136c0-1.488,2.434-2.692,5.438-2.692S260.929,41.184,260.929,42.671Z"/><path class="cls-15" d="M246.88,54.855c-.188-1.627.993-2.549,1.9-2.374A2.811,2.811,0,0,1,250.6,55.2"/><ellipse class="cls-16" cx="248.12" cy="54.912" rx="0.367" ry="0.362"/><ellipse class="cls-16" cx="249.589" cy="54.912" rx="0.367" ry="0.362"/><path class="cls-17" d="M253.971,62.18a9.222,9.222,0,0,0-2.9-3.005c-.564-.341-.962-.832-1.419-.617-.639.3-.779,1.459-1.215,1.406s-.467-1.182-1.05-1.483c-.4-.208-.776.213-1.094.355a8.857,8.857,0,0,0-3.56,3.344c.174.373,2.282,4.744,5.881,4.529C251.9,66.513,253.744,62.67,253.971,62.18Z"/><path class="cls-18" d="M242.744,62.215h11.25"/><path class="cls-13" d="M246.015,187.922a12.628,12.628,0,0,1-2.769.4,66.465,66.465,0,0,0-.772,10.969,14.371,14.371,0,0,0,4.386.429A66.551,66.551,0,0,0,246.015,187.922Z"/><path class="cls-13" d="M243.958,189.264c-.95,1.117.019,3.5,2.165,5.329s8.244,5.457,9.194,4.341-3.608-6.557-5.753-8.384S244.909,188.148,243.958,189.264Z"/><path class="cls-19" d="M256.808,93.7c.087.061.731,1.449.779,1.545.445.9,2.733,3,6.949,3.338.192.072.4.141.612.206"/><path class="cls-20" d="M230.381,96.14c.1.063.2.125.3.187,3.467,1.578,12.828,6.536,14.815,3.232.857-1.623.312-4.114-.889-6.573"/><path class="cls-3" d="M224.629,50.093a3.85,3.85,0,0,0,2.309,4.922c2.146.774,3.373-1.495,2.658-4.577-.706-3.108-1.377-5.153-2.288-4.706S225.383,48.22,224.629,50.093Z"/><ellipse class="cls-4" cx="226.829" cy="62.983" rx="5.384" ry="10.279"/><path class="cls-13" d="M219.442,179.876a5.277,5.277,0,0,1-1.592-1.064,33.981,33.981,0,0,0-9.121,6.13A19.9,19.9,0,0,0,212,188.163,28.929,28.929,0,0,1,219.442,179.876Z"/><path class="cls-13" d="M216.686,179.569c-1.327.1-2.246,2.2-2.052,4.677s1.753,8.551,3.081,8.447,1.921-6.345,1.727-8.824S218.014,179.465,216.686,179.569Z"/><path class="cls-2" d="M244.671,25.651s-5.771.659-9.226,3.252c-3.712,2.785-5.987,8.475-5.987,8.475s6.135-1.018,9.707-3.876C242.356,30.946,244.671,25.651,244.671,25.651Z"/><path class="cls-2" d="M264.022,37.786s-3.869-5.6-8.474-8.218c-4.948-2.812-12.129-3.2-12.129-3.2s4.444,5.849,9.391,8.493C257.232,37.224,264.022,37.786,264.022,37.786Z"/><path d="M237.775,170.5c-.148-.407-.293-.817-.444-1.219-4.49-12.032-10.047-22.443-16.315-30.37a30.723,30.723,0,0,1,9.479-10.318,185.071,185.071,0,0,1,12.583,40.556c.026.136.051.273.076.409A51.642,51.642,0,0,0,237.775,170.5Z"/><path class="cls-9" d="M261.8,48.933s-3.2-3.315-5.987-3.377c-2.99-.067-6.39,3.377-6.39,3.377s3.532,3.248,6.479,3.156C258.536,52.006,261.8,48.933,261.8,48.933Z"/><path class="cls-24" d="M261.8,48.933s-3.2-3.315-5.987-3.377c-2.99-.067-6.39,3.377-6.39,3.377a32.057,32.057,0,0,1,12.377,0Z"/><path class="cls-16" d="M249.432,48.8a31.758,31.758,0,0,1,4-.4c.6-.022,1.262-.029,2.353,0,1.448.038,3.494.136,6.039.4,0,0-1.462-.158-3.529-.28-.958-.056-1.8-.09-2.51-.112"/><path class="cls-15" d="M260.113,48.566a2.962,2.962,0,0,0-.416-3.938"/><path class="cls-15" d="M260.91,48.566a2.759,2.759,0,0,0,.541-1.847,2.8,2.8,0,0,0-.947-1.846"/><path class="cls-15" d="M254.938,48.409a3.269,3.269,0,0,0-.471-4.392"/><path class="cls-15" d="M255.948,48.409a3.269,3.269,0,0,0-.471-4.392"/><path class="cls-15" d="M256.732,48.409a3.268,3.268,0,0,0-.47-4.392"/><path class="cls-15" d="M257.673,48.409a3.267,3.267,0,0,0-.469-4.392"/><path class="cls-15" d="M258.458,48.409a3.269,3.269,0,0,0-.471-4.392"/><path class="cls-15" d="M259.4,48.566a3.07,3.07,0,0,0,.627-2.092,3.147,3.147,0,0,0-1.1-2.093"/><path class="cls-15" d="M251.693,48.535a2.654,2.654,0,0,0-.93-3.436"/><path class="cls-15" d="M252.584,48.563A2.541,2.541,0,0,0,253,46.605a2.789,2.789,0,0,0-1.38-1.732"/><path class="cls-15" d="M253.5,48.548a3.115,3.115,0,0,0,.259-2.184,3.181,3.181,0,0,0-1.442-1.89"/><path class="cls-15" d="M254.065,48.409a3.268,3.268,0,0,0-.47-4.392"/><path class="cls-15" d="M251.111,48.618a2.32,2.32,0,0,0-.044-1.649,2.381,2.381,0,0,0-1.283-1.24"/><ellipse class="cls-16" cx="257.433" cy="50.066" rx="1.176" ry="1.412"/><path class="cls-9" d="M246.872,48.933s-3.205-3.315-5.988-3.377c-2.99-.067-6.389,3.377-6.389,3.377s3.531,3.248,6.479,3.156C243.608,52.006,246.872,48.933,246.872,48.933Z"/><path class="cls-24" d="M246.872,48.933s-3.205-3.315-5.988-3.377c-2.99-.067-6.389,3.377-6.389,3.377a32.057,32.057,0,0,1,12.377,0Z"/><path class="cls-16" d="M234.5,48.8a31.761,31.761,0,0,1,4-.4c.6-.022,1.263-.029,2.353,0,1.449.038,3.5.136,6.04.4,0,0-1.462-.158-3.529-.28-.958-.056-1.8-.09-2.51-.112"/><path class="cls-15" d="M236.692,48.566a2.962,2.962,0,0,1,.416-3.938"/><path class="cls-15" d="M235.9,48.566a2.749,2.749,0,0,1-.541-1.847,2.794,2.794,0,0,1,.947-1.846"/><path class="cls-15" d="M241.867,48.409a3.269,3.269,0,0,1,.471-4.392"/><path class="cls-15" d="M240.857,48.409a3.267,3.267,0,0,1,.471-4.392"/><path class="cls-15" d="M240.073,48.409a3.267,3.267,0,0,1,.471-4.392"/><path class="cls-15" d="M239.132,48.409a3.268,3.268,0,0,1,.47-4.392"/><path class="cls-15" d="M238.348,48.409a3.269,3.269,0,0,1,.471-4.392"/><path class="cls-15" d="M237.406,48.566a3.07,3.07,0,0,1-.627-2.092,3.147,3.147,0,0,1,1.1-2.093"/><path class="cls-15" d="M245.112,48.535a2.654,2.654,0,0,1,.93-3.436"/><path class="cls-15" d="M244.222,48.563a2.541,2.541,0,0,1-.417-1.958,2.792,2.792,0,0,1,1.38-1.732"/><path class="cls-15" d="M243.305,48.548a3.115,3.115,0,0,1-.259-2.184,3.181,3.181,0,0,1,1.442-1.89"/><path class="cls-15" d="M242.74,48.409a3.268,3.268,0,0,1,.47-4.392"/><path class="cls-15" d="M245.694,48.618a2.32,2.32,0,0,1,.044-1.649,2.378,2.378,0,0,1,1.283-1.24"/><ellipse class="cls-16" cx="242.504" cy="50.066" rx="1.176" ry="1.412"/><line class="cls-18" x1="217.855" y1="112.163" x2="217.656" y2="110.558"/><polygon class="cls-25" points="217.523 109.488 217.134 110.23 216.744 110.973 217.676 110.923 218.609 110.873 218.066 110.18 217.523 109.488"/><ellipse class="cls-26" cx="219.448" cy="117.439" rx="4.763" ry="2.024" transform="translate(-29.442 119.204) rotate(-28.56)"/><ellipse class="cls-26" cx="217.473" cy="115.79" rx="4.557" ry="2.115" transform="translate(13.79 254.409) rotate(-62.27)"/><line class="cls-18" x1="218.557" y1="121.199" x2="218.235" y2="118.717"/><line class="cls-18" x1="217.534" y1="120.516" x2="218.342" y2="119.664"/><line class="cls-18" x1="217.808" y1="121.777" x2="218.526" y2="120.98"/><line class="cls-18" x1="219.489" y1="121.581" x2="218.571" y2="121.03"/><line class="cls-18" x1="219.413" y1="120.955" x2="218.479" y2="120.372"/><line class="cls-18" x1="219.26" y1="120.214" x2="218.327" y2="119.632"/><line class="cls-18" x1="217.626" y1="121.174" x2="218.434" y2="120.322"/><path class="cls-3" d="M228.249,107.993a6.627,6.627,0,0,0-1.317,1.317,3.229,3.229,0,0,0-.524,3.012c1.065,2.224,3.59,3.655,4.679,3.468,1.275-.249,1.623-2.31,1.679-5.325.1-3.2-2.078-4.216-3.614-3.108"/><path class="cls-27" d="M226.83,109.46a3.188,3.188,0,0,0-.431,2.82c1.04,2.236,3.547,3.7,4.639,3.523,1.278-.234,1.651-2.291,1.742-5.3,0-.1.007-.2.007-.3"/><path class="cls-2" d="M313.657,166.953c3.628-16.847,3.334,13.841,7.519.21s7.236,5.828,9.259.259,11.789-7.287,10.822.3,5.434,11.457,7.984.223,8.092,18.3,8.135.227,9.6,10.528,9.592.268,4.1-1.7,4.159-3.932l3.3-118.286A24.948,24.948,0,0,0,351.952,20.7a4.023,4.023,0,0,0-3.011.965l-2.611,2.252a4.051,4.051,0,0,1-4.178.68L331.8,20.356a3.994,3.994,0,0,0-1.6-.3,17.349,17.349,0,0,0-16.961,16.859l-3.517,125.882C309.662,165.029,310.029,183.8,313.657,166.953Z"/><path class="cls-3" d="M367.973,50.337a3.849,3.849,0,0,1-2.309,4.922c-2.146.774-3.373-1.494-2.658-4.576.706-3.108,1.377-5.154,2.288-4.707S367.219,48.464,367.973,50.337Z"/><ellipse class="cls-4" cx="365.496" cy="63.472" rx="5.384" ry="10.279"/><path d="M344.256,69.085l-1.458.192c-10.6,1.554-19.741,9.116-21.2,16.2-2.4,12.562-9.15,24.063-14.483,35.061-1.49,3.09,1.013,7.627,6,12.424a42.8,42.8,0,0,0,21.874,11.183q1.3.225,2.612.41c18.952,2.711,34.141-9.941,32.869-18-1.893-14.614-6.745-28.2-8.6-43.127C360.508,74.7,354.652,67.543,344.256,69.085Z"/><path class="cls-3" d="M346.105,190.6a7.127,7.127,0,0,0-2.631-1.134c-4.988-20.589-12.9-38.463-22.458-50.557a30.723,30.723,0,0,1,9.479-10.318C338.554,146.446,344.106,168.22,346.105,190.6Z"/><path class="cls-3" d="M316.839,181.944a4.784,4.784,0,0,0,.06-2.052c13.287-13.562,23.8-27.319,29.719-38.96,4.03-.878,7.418-.936,10.071-.16A258.111,258.111,0,0,1,316.839,181.944Z"/><path d="M330.493,169.783a10.329,10.329,0,0,1-3.081-1.333c.215-.25.431-.5.644-.75,8.024-9.431,14.42-18.618,18.562-26.768,4.03-.878,7.418-.936,10.071-.16A242.16,242.16,0,0,1,331.421,168.9C331.114,169.2,330.8,169.489,330.493,169.783Z"/><line class="cls-1" x1="337.352" y1="169.439" x2="342.736" y2="167.482"/><path class="cls-3" d="M342.04,69.5c8.131,0,22.662,2.915,22.662-15.442,0-19.76-14.531-27.6-22.662-27.6s-14.721,20.194-14.721,28.325A14.722,14.722,0,0,0,342.04,69.5Z"/><path class="cls-3" d="M344.256,69.085l-1.458.192c-10.6,1.554-19.741,9.116-21.2,16.2-2.4,12.562-9.15,24.063-14.483,35.061-1.489,3.09,64.629,14.076,63.357,6.016-1.894-14.616-6.746-28.2-8.6-43.129C360.508,74.7,354.652,67.543,344.256,69.085Z"/><rect x="334.875" y="80.115" width="13.189" height="7.394" rx="1.955" transform="translate(110.304 348.742) rotate(-62.684)"/><rect x="344.024" y="77.435" width="4.596" height="1.798" rx="0.475" transform="translate(117.797 350.09) rotate(-62.684)"/><rect class="cls-34" x="339.984" y="79.532" width="4.811" height="4.996" rx="0.756" transform="translate(112.384 348.596) rotate(-62.684)"/><rect class="cls-35" x="339.984" y="79.532" width="4.811" height="4.996" rx="0.756" transform="translate(112.384 348.596) rotate(-62.684)"/><rect class="cls-36" x="339.984" y="79.532" width="4.811" height="4.996" rx="0.756" transform="translate(112.384 348.596) rotate(-62.684)"/><g class="cls-8"><path class="cls-9" d="M343.179,84.87a9.311,9.311,0,0,1-1.954-.926c-.4-.207-1.658-.6-1.776-1.137s.671-1.542.9-1.991c.246-.475.58-1.615,1.248-1.627.608-.01,1.447.664,1.954.926.4.209,1.658.6,1.776,1.137s-.681,1.561-.9,1.992c-.292.565-.548,1.5-1.247,1.627-.012,0,.009.181,0,.183.68-.126.911-.976,1.2-1.529a9.364,9.364,0,0,0,.946-1.891c.216-.9-.818-1.21-1.471-1.548a12.458,12.458,0,0,0-1.93-1c-.842-.252-1.058.556-1.371,1.159-.349.676-1.163,1.674-1.131,2.475.028.712.971.973,1.508,1.25a10.785,10.785,0,0,0,2.252,1.08C343.166,85.05,343.194,84.874,343.179,84.87Z"/></g><rect class="cls-10" x="339.984" y="79.532" width="4.811" height="4.996" rx="0.756" transform="translate(112.384 348.596) rotate(-62.684)"/><g class="cls-11"><path d="M339.738,83.383l2.529,1.306c.34.176.74.469,1.142.341s.566-.612.742-.955a15.28,15.28,0,0,0,1.214-2.349.809.809,0,0,0-.325-1.05,15.309,15.309,0,0,0-2.53-1.306c-.826-.427-1.316-.423-1.8.452a13.34,13.34,0,0,0-1.3,2.511.805.805,0,0,0,.325,1.05s0-.025,0-.031c-.8-.644.017-1.651.378-2.349a5.732,5.732,0,0,1,1-1.8c.592-.468,1.54.275,2.065.547a11.856,11.856,0,0,1,1.861.961c.775.608.073,1.476-.271,2.143a6.522,6.522,0,0,1-1.105,2.011c-.576.456-1.44-.224-1.961-.493l-1.965-1.015S339.733,83.381,339.738,83.383Z"/></g><ellipse cx="347.998" cy="119.026" rx="0.367" ry="0.734"/><ellipse class="cls-12" cx="347.785" cy="121.473" rx="1.437" ry="1.713"/><path class="cls-13" d="M314.2,104.753a74.324,74.324,0,0,0,6.406-17.6c1.185-5.779,2.767-6.055,3.686-6.515,6.606-3.3,16.7,11.286,26.536,8.437,5.72-1.656,9.211-8.589,10.815-7.642.357.211.654,1.371.968,3.727q.177,1.319.387,2.624a19.343,19.343,0,0,1,4.8,3.061,9.987,9.987,0,0,1,3.082,5.988,4.447,4.447,0,0,1-1.689,1.5,5.954,5.954,0,0,1-4.02.19c.746,3.158,1.552,6.286,2.347,9.411C369.122,114.247,311.431,110.408,314.2,104.753Z"/><path class="cls-3" d="M300.8,94.555c-.029-.031-.056-.062-.085-.092.076-.057,16.181-14.772,27.478-18.848.454,1.3.857,2.578,1.207,3.827-10.038,3.8-17.676,11.086-22.784,15.543,1.446.876,2.947,1.748,4.294,2.542,3.042,1.769,5.35,3.17,7.055,4.246a43.611,43.611,0,0,0,11.356,5.5c-.189.224-.5.416-.524.719-2.672-.706-6.719-2-9.946-3.129q-3.89-1.307-7.634-3a70.9,70.9,0,0,1-7.526-4.482C303.6,97.462,300.647,94.834,300.8,94.555Z"/><path class="cls-14" d="M346,42.181s-.671-2.136-5.435-2.136-5.441,2.136-5.441,2.136c0-1.487,2.435-2.692,5.438-2.692S346,40.694,346,42.181Z"/><path class="cls-14" d="M360.929,42.671s-.672-2.136-5.436-2.136-5.44,2.136-5.44,2.136c0-1.488,2.434-2.692,5.438-2.692S360.929,41.184,360.929,42.671Z"/><path class="cls-15" d="M346.88,54.855c-.188-1.627.993-2.549,1.9-2.374A2.811,2.811,0,0,1,350.6,55.2"/><ellipse class="cls-16" cx="348.12" cy="54.912" rx="0.367" ry="0.362"/><ellipse class="cls-16" cx="349.589" cy="54.912" rx="0.367" ry="0.362"/><path class="cls-17" d="M353.971,62.18a9.222,9.222,0,0,0-2.9-3.005c-.564-.341-.962-.832-1.419-.617-.639.3-.779,1.459-1.215,1.406s-.467-1.182-1.05-1.483c-.4-.208-.776.213-1.094.355a8.857,8.857,0,0,0-3.56,3.344c.174.373,2.282,4.744,5.881,4.529C351.9,66.513,353.744,62.67,353.971,62.18Z"/><path class="cls-18" d="M342.744,62.215h11.25"/><path class="cls-13" d="M346.015,187.922a12.628,12.628,0,0,1-2.769.4,66.465,66.465,0,0,0-.772,10.969,14.371,14.371,0,0,0,4.386.429A66.551,66.551,0,0,0,346.015,187.922Z"/><path class="cls-13" d="M343.958,189.264c-.95,1.117.019,3.5,2.165,5.329s8.244,5.457,9.194,4.341-3.608-6.557-5.753-8.384S344.909,188.148,343.958,189.264Z"/><path class="cls-19" d="M356.808,93.7c.087.061.731,1.449.779,1.545.445.9,2.733,3,6.949,3.338.192.072.4.141.612.206"/><path class="cls-20" d="M330.381,96.14c.1.063.2.125.3.187,3.467,1.578,12.828,6.536,14.815,3.232.857-1.623.312-4.114-.889-6.573"/><path class="cls-3" d="M324.629,50.093a3.85,3.85,0,0,0,2.309,4.922c2.146.774,3.373-1.495,2.658-4.577-.706-3.108-1.377-5.153-2.288-4.706S325.383,48.22,324.629,50.093Z"/><ellipse class="cls-4" cx="326.829" cy="62.983" rx="5.384" ry="10.279"/><path class="cls-13" d="M319.442,179.876a5.277,5.277,0,0,1-1.592-1.064,33.981,33.981,0,0,0-9.121,6.13A19.9,19.9,0,0,0,312,188.163,28.929,28.929,0,0,1,319.442,179.876Z"/><path class="cls-13" d="M316.686,179.569c-1.327.1-2.246,2.2-2.052,4.677s1.753,8.551,3.081,8.447,1.921-6.345,1.727-8.824S318.014,179.465,316.686,179.569Z"/><path class="cls-2" d="M344.671,25.651s-5.771.659-9.226,3.252c-3.712,2.785-5.987,8.475-5.987,8.475s6.135-1.018,9.707-3.876C342.356,30.946,344.671,25.651,344.671,25.651Z"/><path class="cls-2" d="M364.022,37.786s-3.869-5.6-8.474-8.218c-4.948-2.812-12.129-3.2-12.129-3.2s4.444,5.849,9.391,8.493C357.232,37.224,364.022,37.786,364.022,37.786Z"/><path d="M337.775,170.5c-.148-.407-.293-.817-.444-1.219-4.49-12.032-10.047-22.443-16.315-30.37a30.723,30.723,0,0,1,9.479-10.318,185.071,185.071,0,0,1,12.583,40.556c.026.136.051.273.076.409A51.642,51.642,0,0,0,337.775,170.5Z"/><path class="cls-9" d="M361.8,48.933s-3.2-3.315-5.987-3.377c-2.99-.067-6.39,3.377-6.39,3.377s3.532,3.248,6.479,3.156C358.536,52.006,361.8,48.933,361.8,48.933Z"/><path class="cls-24" d="M361.8,48.933s-3.2-3.315-5.987-3.377c-2.99-.067-6.39,3.377-6.39,3.377a32.057,32.057,0,0,1,12.377,0Z"/><path class="cls-16" d="M349.432,48.8a31.758,31.758,0,0,1,4-.4c.6-.022,1.262-.029,2.353,0,1.448.038,3.494.136,6.039.4,0,0-1.462-.158-3.529-.28-.958-.056-1.8-.09-2.51-.112"/><path class="cls-15" d="M360.113,48.566a2.962,2.962,0,0,0-.416-3.938"/><path class="cls-15" d="M360.91,48.566a2.759,2.759,0,0,0,.541-1.847,2.8,2.8,0,0,0-.947-1.846"/><path class="cls-15" d="M354.938,48.409a3.269,3.269,0,0,0-.471-4.392"/><path class="cls-15" d="M355.948,48.409a3.269,3.269,0,0,0-.471-4.392"/><path class="cls-15" d="M356.732,48.409a3.268,3.268,0,0,0-.47-4.392"/><path class="cls-15" d="M357.673,48.409a3.267,3.267,0,0,0-.469-4.392"/><path class="cls-15" d="M358.458,48.409a3.269,3.269,0,0,0-.471-4.392"/><path class="cls-15" d="M359.4,48.566a3.07,3.07,0,0,0,.627-2.092,3.147,3.147,0,0,0-1.1-2.093"/><path class="cls-15" d="M351.693,48.535a2.654,2.654,0,0,0-.93-3.436"/><path class="cls-15" d="M352.584,48.563A2.541,2.541,0,0,0,353,46.605a2.789,2.789,0,0,0-1.38-1.732"/><path class="cls-15" d="M353.5,48.548a3.115,3.115,0,0,0,.259-2.184,3.181,3.181,0,0,0-1.442-1.89"/><path class="cls-15" d="M354.065,48.409a3.268,3.268,0,0,0-.47-4.392"/><path class="cls-15" d="M351.111,48.618a2.32,2.32,0,0,0-.044-1.649,2.381,2.381,0,0,0-1.283-1.24"/><ellipse class="cls-16" cx="357.433" cy="50.066" rx="1.176" ry="1.412"/><path class="cls-9" d="M346.872,48.933s-3.205-3.315-5.988-3.377c-2.99-.067-6.389,3.377-6.389,3.377s3.531,3.248,6.479,3.156C343.608,52.006,346.872,48.933,346.872,48.933Z"/><path class="cls-24" d="M346.872,48.933s-3.205-3.315-5.988-3.377c-2.99-.067-6.389,3.377-6.389,3.377a32.057,32.057,0,0,1,12.377,0Z"/><path class="cls-16" d="M334.5,48.8a31.761,31.761,0,0,1,4-.4c.6-.022,1.263-.029,2.353,0,1.449.038,3.495.136,6.04.4,0,0-1.462-.158-3.529-.28-.958-.056-1.8-.09-2.51-.112"/><path class="cls-15" d="M336.692,48.566a2.962,2.962,0,0,1,.416-3.938"/><path class="cls-15" d="M335.9,48.566a2.749,2.749,0,0,1-.541-1.847,2.794,2.794,0,0,1,.947-1.846"/><path class="cls-15" d="M341.867,48.409a3.269,3.269,0,0,1,.471-4.392"/><path class="cls-15" d="M340.857,48.409a3.267,3.267,0,0,1,.471-4.392"/><path class="cls-15" d="M340.073,48.409a3.267,3.267,0,0,1,.471-4.392"/><path class="cls-15" d="M339.132,48.409a3.268,3.268,0,0,1,.47-4.392"/><path class="cls-15" d="M338.348,48.409a3.269,3.269,0,0,1,.471-4.392"/><path class="cls-15" d="M337.406,48.566a3.07,3.07,0,0,1-.627-2.092,3.147,3.147,0,0,1,1.1-2.093"/><path class="cls-15" d="M345.112,48.535a2.654,2.654,0,0,1,.93-3.436"/><path class="cls-15" d="M344.222,48.563a2.541,2.541,0,0,1-.417-1.958,2.792,2.792,0,0,1,1.38-1.732"/><path class="cls-15" d="M343.305,48.548a3.115,3.115,0,0,1-.259-2.184,3.181,3.181,0,0,1,1.442-1.89"/><path class="cls-15" d="M342.74,48.409a3.268,3.268,0,0,1,.47-4.392"/><path class="cls-15" d="M345.694,48.618a2.32,2.32,0,0,1,.044-1.649,2.378,2.378,0,0,1,1.283-1.24"/><ellipse class="cls-16" cx="342.504" cy="50.066" rx="1.176" ry="1.412"/><line class="cls-18" x1="317.855" y1="112.163" x2="317.656" y2="110.558"/><polygon class="cls-25" points="317.523 109.488 317.134 110.23 316.744 110.973 317.676 110.923 318.609 110.873 318.066 110.18 317.523 109.488"/><ellipse class="cls-26" cx="319.448" cy="117.439" rx="4.763" ry="2.024" transform="translate(-17.274 167.012) rotate(-28.56)"/><ellipse class="cls-26" cx="317.473" cy="115.79" rx="4.557" ry="2.115" transform="translate(67.259 342.924) rotate(-62.27)"/><line class="cls-18" x1="318.557" y1="121.199" x2="318.235" y2="118.717"/><line class="cls-18" x1="317.534" y1="120.516" x2="318.342" y2="119.664"/><line class="cls-18" x1="317.808" y1="121.777" x2="318.526" y2="120.98"/><line class="cls-18" x1="319.489" y1="121.581" x2="318.571" y2="121.03"/><line class="cls-18" x1="319.413" y1="120.955" x2="318.479" y2="120.372"/><line class="cls-18" x1="319.26" y1="120.214" x2="318.327" y2="119.632"/><line class="cls-18" x1="317.626" y1="121.174" x2="318.434" y2="120.322"/><path class="cls-3" d="M328.249,107.993a6.627,6.627,0,0,0-1.317,1.317,3.229,3.229,0,0,0-.524,3.012c1.065,2.224,3.59,3.655,4.679,3.468,1.275-.249,1.623-2.31,1.679-5.325.1-3.2-2.078-4.216-3.614-3.108"/><path class="cls-27" d="M326.83,109.46a3.188,3.188,0,0,0-.431,2.82c1.04,2.236,3.547,3.7,4.639,3.523,1.278-.234,1.651-2.291,1.742-5.3.005-.1.007-.2.007-.3"/><path class="cls-2" d="M413.657,166.953c3.628-16.847,3.334,13.841,7.519.21s7.236,5.828,9.259.259,11.789-7.287,10.822.3,5.434,11.457,7.984.223,8.092,18.3,8.135.227,9.6,10.528,9.592.268,4.1-1.7,4.159-3.932l3.3-118.286A24.948,24.948,0,0,0,451.952,20.7a4.023,4.023,0,0,0-3.011.965l-2.611,2.252a4.051,4.051,0,0,1-4.178.68L431.8,20.356a3.994,3.994,0,0,0-1.6-.3,17.349,17.349,0,0,0-16.961,16.859l-3.517,125.882C409.662,165.029,410.029,183.8,413.657,166.953Z"/><path class="cls-3" d="M467.973,50.337a3.849,3.849,0,0,1-2.309,4.922c-2.146.774-3.373-1.494-2.658-4.576.706-3.108,1.377-5.154,2.288-4.707S467.219,48.464,467.973,50.337Z"/><ellipse class="cls-4" cx="465.496" cy="63.472" rx="5.384" ry="10.279"/><path d="M444.256,69.085l-1.458.192c-10.6,1.554-19.741,9.116-21.2,16.2-2.4,12.562-9.15,24.063-14.483,35.061-1.49,3.09,1.013,7.627,6,12.424a42.8,42.8,0,0,0,21.874,11.183q1.3.225,2.612.41c18.952,2.711,34.141-9.941,32.869-18-1.893-14.614-6.745-28.2-8.6-43.127C460.508,74.7,454.652,67.543,444.256,69.085Z"/><path class="cls-3" d="M446.105,190.6a7.127,7.127,0,0,0-2.631-1.134c-4.988-20.589-12.9-38.463-22.458-50.557a30.723,30.723,0,0,1,9.479-10.318C438.554,146.446,444.106,168.22,446.105,190.6Z"/><path class="cls-3" d="M416.839,181.944a4.784,4.784,0,0,0,.06-2.052c13.287-13.562,23.8-27.319,29.719-38.96,4.03-.878,7.418-.936,10.071-.16A258.111,258.111,0,0,1,416.839,181.944Z"/><path d="M430.493,169.783a10.329,10.329,0,0,1-3.081-1.333c.215-.25.431-.5.644-.75,8.024-9.431,14.42-18.618,18.562-26.768,4.03-.878,7.418-.936,10.071-.16A242.16,242.16,0,0,1,431.421,168.9C431.114,169.2,430.8,169.489,430.493,169.783Z"/><line class="cls-1" x1="437.352" y1="169.439" x2="442.736" y2="167.482"/><path class="cls-3" d="M442.04,69.5c8.131,0,22.662,2.915,22.662-15.442,0-19.76-14.531-27.6-22.662-27.6s-14.721,20.194-14.721,28.325A14.722,14.722,0,0,0,442.04,69.5Z"/><path class="cls-3" d="M444.256,69.085l-1.458.192c-10.6,1.554-19.741,9.116-21.2,16.2-2.4,12.562-9.15,24.063-14.483,35.061-1.489,3.09,64.629,14.076,63.357,6.016-1.894-14.616-6.746-28.2-8.6-43.129C460.508,74.7,454.652,67.543,444.256,69.085Z"/><rect x="434.875" y="80.115" width="13.189" height="7.394" rx="1.955" transform="translate(164.414 437.591) rotate(-62.684)"/><rect x="444.024" y="77.435" width="4.596" height="1.798" rx="0.475" transform="translate(171.907 438.939) rotate(-62.684)"/><rect class="cls-37" x="439.984" y="79.532" width="4.811" height="4.996" rx="0.756" transform="translate(166.495 437.445) rotate(-62.684)"/><rect class="cls-38" x="439.984" y="79.532" width="4.811" height="4.996" rx="0.756" transform="translate(166.495 437.445) rotate(-62.684)"/><rect class="cls-39" x="439.984" y="79.532" width="4.811" height="4.996" rx="0.756" transform="translate(166.495 437.445) rotate(-62.684)"/><g class="cls-8"><path class="cls-9" d="M443.179,84.87a9.311,9.311,0,0,1-1.954-.926c-.4-.207-1.658-.6-1.776-1.137s.671-1.542.9-1.991c.246-.475.58-1.615,1.248-1.627.608-.01,1.447.664,1.954.926.4.209,1.658.6,1.776,1.137s-.681,1.561-.9,1.992c-.292.565-.548,1.5-1.247,1.627-.012,0,.009.181,0,.183.68-.126.911-.976,1.2-1.529a9.364,9.364,0,0,0,.946-1.891c.216-.9-.818-1.21-1.471-1.548a12.458,12.458,0,0,0-1.93-1c-.842-.252-1.058.556-1.371,1.159-.349.676-1.163,1.674-1.131,2.475.028.712.971.973,1.508,1.25a10.785,10.785,0,0,0,2.252,1.08C443.166,85.05,443.194,84.874,443.179,84.87Z"/></g><rect class="cls-10" x="439.984" y="79.532" width="4.811" height="4.996" rx="0.756" transform="translate(166.495 437.445) rotate(-62.684)"/><g class="cls-11"><path d="M439.738,83.383l2.529,1.306c.34.176.74.469,1.142.341s.566-.612.742-.955a15.28,15.28,0,0,0,1.214-2.349.809.809,0,0,0-.325-1.05,15.309,15.309,0,0,0-2.53-1.306c-.826-.427-1.316-.423-1.8.452a13.34,13.34,0,0,0-1.3,2.511.805.805,0,0,0,.325,1.05s0-.025,0-.031c-.8-.644.017-1.651.378-2.349a5.732,5.732,0,0,1,1-1.8c.592-.468,1.54.275,2.065.547a11.856,11.856,0,0,1,1.861.961c.775.608.073,1.476-.271,2.143a6.522,6.522,0,0,1-1.105,2.011c-.576.456-1.44-.224-1.961-.493l-1.965-1.015S439.733,83.381,439.738,83.383Z"/></g><ellipse cx="447.998" cy="119.026" rx="0.367" ry="0.734"/><ellipse class="cls-12" cx="447.785" cy="121.473" rx="1.437" ry="1.713"/><path class="cls-13" d="M414.2,104.753a74.324,74.324,0,0,0,6.406-17.6c1.185-5.779,2.767-6.055,3.686-6.515,6.606-3.3,16.7,11.286,26.536,8.437,5.72-1.656,9.211-8.589,10.815-7.642.357.211.654,1.371.968,3.727q.177,1.319.387,2.624a19.343,19.343,0,0,1,4.8,3.061,9.987,9.987,0,0,1,3.082,5.988,4.447,4.447,0,0,1-1.689,1.5,5.954,5.954,0,0,1-4.02.19c.746,3.158,1.552,6.286,2.347,9.411C469.122,114.247,411.431,110.408,414.2,104.753Z"/><path class="cls-3" d="M400.8,94.555c-.029-.031-.056-.062-.085-.092.076-.057,16.181-14.772,27.478-18.848.454,1.3.857,2.578,1.207,3.827-10.038,3.8-17.676,11.086-22.784,15.543,1.446.876,2.947,1.748,4.294,2.542,3.042,1.769,5.35,3.17,7.055,4.246a43.611,43.611,0,0,0,11.356,5.5c-.189.224-.5.416-.524.719-2.672-.706-6.719-2-9.946-3.129q-3.89-1.307-7.634-3a70.9,70.9,0,0,1-7.526-4.482C403.6,97.462,400.647,94.834,400.8,94.555Z"/><path class="cls-14" d="M446,42.181s-.671-2.136-5.435-2.136-5.441,2.136-5.441,2.136c0-1.487,2.435-2.692,5.438-2.692S446,40.694,446,42.181Z"/><path class="cls-14" d="M460.929,42.671s-.672-2.136-5.436-2.136-5.44,2.136-5.44,2.136c0-1.488,2.434-2.692,5.438-2.692S460.929,41.184,460.929,42.671Z"/><path class="cls-15" d="M446.88,54.855c-.188-1.627.993-2.549,1.9-2.374A2.811,2.811,0,0,1,450.6,55.2"/><ellipse class="cls-16" cx="448.12" cy="54.912" rx="0.367" ry="0.362"/><ellipse class="cls-16" cx="449.589" cy="54.912" rx="0.367" ry="0.362"/><path class="cls-17" d="M453.971,62.18a9.222,9.222,0,0,0-2.9-3.005c-.564-.341-.962-.832-1.419-.617-.639.3-.779,1.459-1.215,1.406s-.467-1.182-1.05-1.483c-.4-.208-.776.213-1.094.355a8.857,8.857,0,0,0-3.56,3.344c.174.373,2.282,4.744,5.881,4.529C451.9,66.513,453.744,62.67,453.971,62.18Z"/><path class="cls-18" d="M442.744,62.215h11.25"/><path class="cls-13" d="M446.015,187.922a12.628,12.628,0,0,1-2.769.4,66.465,66.465,0,0,0-.772,10.969,14.371,14.371,0,0,0,4.386.429A66.551,66.551,0,0,0,446.015,187.922Z"/><path class="cls-13" d="M443.958,189.264c-.95,1.117.019,3.5,2.165,5.329s8.244,5.457,9.194,4.341-3.608-6.557-5.753-8.384S444.909,188.148,443.958,189.264Z"/><path class="cls-19" d="M456.808,93.7c.087.061.731,1.449.779,1.545.445.9,2.733,3,6.949,3.338.192.072.4.141.612.206"/><path class="cls-20" d="M430.381,96.14c.1.063.2.125.3.187,3.467,1.578,12.828,6.536,14.815,3.232.857-1.623.312-4.114-.889-6.573"/><path class="cls-3" d="M424.629,50.093a3.85,3.85,0,0,0,2.309,4.922c2.146.774,3.373-1.495,2.658-4.577-.706-3.108-1.377-5.153-2.288-4.706S425.383,48.22,424.629,50.093Z"/><ellipse class="cls-4" cx="426.829" cy="62.983" rx="5.384" ry="10.279"/><path class="cls-13" d="M419.442,179.876a5.277,5.277,0,0,1-1.592-1.064,33.981,33.981,0,0,0-9.121,6.13A19.9,19.9,0,0,0,412,188.163,28.929,28.929,0,0,1,419.442,179.876Z"/><path class="cls-13" d="M416.686,179.569c-1.327.1-2.246,2.2-2.052,4.677s1.753,8.551,3.081,8.447,1.921-6.345,1.727-8.824S418.014,179.465,416.686,179.569Z"/><path class="cls-2" d="M444.671,25.651s-5.771.659-9.226,3.252c-3.712,2.785-5.987,8.475-5.987,8.475s6.135-1.018,9.707-3.876C442.356,30.946,444.671,25.651,444.671,25.651Z"/><path class="cls-2" d="M464.022,37.786s-3.869-5.6-8.474-8.218c-4.948-2.812-12.129-3.2-12.129-3.2s4.444,5.849,9.391,8.493C457.232,37.224,464.022,37.786,464.022,37.786Z"/><path d="M437.775,170.5c-.148-.407-.293-.817-.444-1.219-4.49-12.032-10.047-22.443-16.315-30.37a30.723,30.723,0,0,1,9.479-10.318,185.071,185.071,0,0,1,12.583,40.556c.026.136.051.273.076.409A51.642,51.642,0,0,0,437.775,170.5Z"/><path class="cls-9" d="M461.8,48.933s-3.2-3.315-5.987-3.377c-2.99-.067-6.39,3.377-6.39,3.377s3.532,3.248,6.479,3.156C458.536,52.006,461.8,48.933,461.8,48.933Z"/><path class="cls-24" d="M461.8,48.933s-3.2-3.315-5.987-3.377c-2.99-.067-6.39,3.377-6.39,3.377a32.057,32.057,0,0,1,12.377,0Z"/><path class="cls-16" d="M449.432,48.8a31.758,31.758,0,0,1,4-.4c.6-.022,1.262-.029,2.353,0,1.448.038,3.494.136,6.039.4,0,0-1.462-.158-3.529-.28-.958-.056-1.8-.09-2.51-.112"/><path class="cls-15" d="M460.113,48.566a2.962,2.962,0,0,0-.416-3.938"/><path class="cls-15" d="M460.91,48.566a2.759,2.759,0,0,0,.541-1.847,2.8,2.8,0,0,0-.947-1.846"/><path class="cls-15" d="M454.938,48.409a3.269,3.269,0,0,0-.471-4.392"/><path class="cls-15" d="M455.948,48.409a3.269,3.269,0,0,0-.471-4.392"/><path class="cls-15" d="M456.732,48.409a3.268,3.268,0,0,0-.47-4.392"/><path class="cls-15" d="M457.673,48.409a3.267,3.267,0,0,0-.469-4.392"/><path class="cls-15" d="M458.458,48.409a3.269,3.269,0,0,0-.471-4.392"/><path class="cls-15" d="M459.4,48.566a3.07,3.07,0,0,0,.627-2.092,3.147,3.147,0,0,0-1.1-2.093"/><path class="cls-15" d="M451.693,48.535a2.654,2.654,0,0,0-.93-3.436"/><path class="cls-15" d="M452.584,48.563A2.541,2.541,0,0,0,453,46.605a2.789,2.789,0,0,0-1.38-1.732"/><path class="cls-15" d="M453.5,48.548a3.115,3.115,0,0,0,.259-2.184,3.181,3.181,0,0,0-1.442-1.89"/><path class="cls-15" d="M454.065,48.409a3.268,3.268,0,0,0-.47-4.392"/><path class="cls-15" d="M451.111,48.618a2.32,2.32,0,0,0-.044-1.649,2.381,2.381,0,0,0-1.283-1.24"/><ellipse class="cls-16" cx="457.433" cy="50.066" rx="1.176" ry="1.412"/><path class="cls-9" d="M446.872,48.933s-3.205-3.315-5.988-3.377c-2.99-.067-6.389,3.377-6.389,3.377s3.531,3.248,6.479,3.156C443.608,52.006,446.872,48.933,446.872,48.933Z"/><path class="cls-24" d="M446.872,48.933s-3.205-3.315-5.988-3.377c-2.99-.067-6.389,3.377-6.389,3.377a32.057,32.057,0,0,1,12.377,0Z"/><path class="cls-16" d="M434.5,48.8a31.761,31.761,0,0,1,4-.4c.6-.022,1.263-.029,2.353,0,1.449.038,3.495.136,6.04.4,0,0-1.462-.158-3.529-.28-.958-.056-1.8-.09-2.51-.112"/><path class="cls-15" d="M436.692,48.566a2.962,2.962,0,0,1,.416-3.938"/><path class="cls-15" d="M435.9,48.566a2.749,2.749,0,0,1-.541-1.847,2.794,2.794,0,0,1,.947-1.846"/><path class="cls-15" d="M441.867,48.409a3.269,3.269,0,0,1,.471-4.392"/><path class="cls-15" d="M440.857,48.409a3.267,3.267,0,0,1,.471-4.392"/><path class="cls-15" d="M440.073,48.409a3.267,3.267,0,0,1,.471-4.392"/><path class="cls-15" d="M439.132,48.409a3.268,3.268,0,0,1,.47-4.392"/><path class="cls-15" d="M438.348,48.409a3.269,3.269,0,0,1,.471-4.392"/><path class="cls-15" d="M437.406,48.566a3.07,3.07,0,0,1-.627-2.092,3.147,3.147,0,0,1,1.1-2.093"/><path class="cls-15" d="M445.112,48.535a2.654,2.654,0,0,1,.93-3.436"/><path class="cls-15" d="M444.222,48.563a2.541,2.541,0,0,1-.417-1.958,2.792,2.792,0,0,1,1.38-1.732"/><path class="cls-15" d="M443.305,48.548a3.115,3.115,0,0,1-.259-2.184,3.181,3.181,0,0,1,1.442-1.89"/><path class="cls-15" d="M442.74,48.409a3.268,3.268,0,0,1,.47-4.392"/><path class="cls-15" d="M445.694,48.618a2.32,2.32,0,0,1,.044-1.649,2.378,2.378,0,0,1,1.283-1.24"/><ellipse class="cls-16" cx="442.504" cy="50.066" rx="1.176" ry="1.412"/><line class="cls-18" x1="417.855" y1="112.163" x2="417.656" y2="110.558"/><polygon class="cls-25" points="417.523 109.488 417.134 110.23 416.744 110.973 417.676 110.923 418.609 110.873 418.066 110.18 417.523 109.488"/><ellipse class="cls-26" cx="419.448" cy="117.439" rx="4.763" ry="2.024" transform="translate(-5.105 214.819) rotate(-28.56)"/><ellipse class="cls-26" cx="417.473" cy="115.79" rx="4.557" ry="2.115" transform="translate(120.728 431.439) rotate(-62.27)"/><line class="cls-18" x1="418.557" y1="121.199" x2="418.235" y2="118.717"/><line class="cls-18" x1="417.534" y1="120.516" x2="418.342" y2="119.664"/><line class="cls-18" x1="417.808" y1="121.777" x2="418.526" y2="120.98"/><line class="cls-18" x1="419.489" y1="121.581" x2="418.571" y2="121.03"/><line class="cls-18" x1="419.413" y1="120.955" x2="418.479" y2="120.372"/><line class="cls-18" x1="419.26" y1="120.214" x2="418.327" y2="119.632"/><line class="cls-18" x1="417.626" y1="121.174" x2="418.434" y2="120.322"/><path class="cls-3" d="M428.249,107.993a6.627,6.627,0,0,0-1.317,1.317,3.229,3.229,0,0,0-.524,3.012c1.065,2.224,3.59,3.655,4.679,3.468,1.275-.249,1.623-2.31,1.679-5.325.1-3.2-2.078-4.216-3.614-3.108"/><path class="cls-27" d="M426.83,109.46a3.188,3.188,0,0,0-.431,2.82c1.04,2.236,3.547,3.7,4.639,3.523,1.278-.234,1.651-2.291,1.742-5.3.005-.1.007-.2.007-.3"/><path class="cls-21" d="M182.4,39.139c5.664,1.561,10.937,3.154,15.8,5.848q.35-1.066.712-2.171c-4.979-2.357-10.373-3.724-16.155-5.134Q182.574,38.419,182.4,39.139Z"/><path class="cls-22" d="M182.467,39.444a27.651,27.651,0,0,1,6.666,1.941q.21-1.035.433-2.151a33.232,33.232,0,0,0-6.677-1.257Q182.667,38.741,182.467,39.444Z"/><path class="cls-3" d="M190.66,43.212a6.005,6.005,0,0,0,1.182-1.222,2.949,2.949,0,0,0,.435-2.759c-1.007-2.015-3.334-3.285-4.325-3.1-1.162.246-1.448,2.134-1.455,4.888-.044,2.924,1.961,3.819,3.347,2.786"/><path class="cls-3" d="M185.308,68.74a56.42,56.42,0,0,1-31.985,6.873q.27,2.313.539,4.628a58.007,58.007,0,0,0,32.49-8.711Z"/><path class="cls-3" d="M183.757,71.505q1.619-.023,3.2-.01A151.8,151.8,0,0,0,189.9,43.852q-1.113-.432-2.252-.815A140.936,140.936,0,0,1,183.757,71.505Z"/><ellipse class="cls-23" cx="198.415" cy="43.797" rx="1.183" ry="0.302" transform="translate(72.268 203.089) rotate(-64.071)"/><path class="cls-21" d="M281.246,31.4c6.091,1.433,11.766,2.918,17.048,5.589q.33-1.149.671-2.339c-5.393-2.309-11.19-3.547-17.4-4.815Q281.4,30.625,281.246,31.4Z"/><path class="cls-22" d="M281.327,31.721a29.456,29.456,0,0,1,7.172,1.8q.181-1.111.374-2.308a35.358,35.358,0,0,0-7.158-1.069Q281.511,30.965,281.327,31.721Z"/><ellipse class="cls-23" cx="298.476" cy="35.713" rx="1.26" ry="0.322" transform="translate(145.516 294.492) rotate(-66.237)"/><path class="cls-3" d="M290.888,35.758A6.464,6.464,0,0,0,292.1,34.41a3.143,3.143,0,0,0,.351-2.954c-1.152-2.1-3.68-3.362-4.727-3.122-1.227.309-1.456,2.33-1.352,5.261.071,3.115,2.241,3.986,3.674,2.829"/><path class="cls-3" d="M285.93,62.707a60.087,60.087,0,0,1-31.278,15.354q.875,2.322,1.75,4.643A61.789,61.789,0,0,0,287.728,65.32Z"/><path class="cls-3" d="M284.231,65.83q1.722-.09,3.4-.139a161.765,161.765,0,0,0,2.027-29.539q-1.2-.414-2.43-.777A150.017,150.017,0,0,1,284.231,65.83Z"/><path class="cls-21" d="M381.224,23.567c6.11,2.245,11.786,4.494,16.905,7.918l.988-2.332c-5.281-3.063-11.112-5.072-17.367-7.163Q381.479,22.787,381.224,23.567Z"/><path class="cls-22" d="M381.266,23.909a30.623,30.623,0,0,1,7.182,2.76q.327-1.125.677-2.336a36.752,36.752,0,0,0-7.259-2.006Q381.553,23.151,381.266,23.909Z"/><ellipse class="cls-23" cx="398.477" cy="30.19" rx="1.312" ry="0.335" transform="translate(169.022 357.368) rotate(-59.29)"/><path class="cls-3" d="M389.9,29.073a6.692,6.692,0,0,0,1.419-1.241,3.268,3.268,0,0,0,.735-3.006c-.926-2.318-3.379-3.936-4.491-3.82-1.306.164-1.8,2.223-2.058,5.264-.319,3.226,1.812,4.4,3.439,3.384"/><path class="cls-3" d="M381.445,56.711a62.535,62.535,0,0,1-30.526,19.564l2.358,4.593A64.288,64.288,0,0,0,383.612,59.2Q382.529,57.954,381.445,56.711Z"/><path class="cls-3" d="M379.973,59.506q1.791.123,3.531.284a168.287,168.287,0,0,0,5.811-30.255q-1.19-.579-2.412-1.108A155.966,155.966,0,0,1,379.973,59.506Z"/><path class="cls-21" d="M480.236,24.536c6.537.386,12.654.9,18.579,2.709q.133-1.245.273-2.532c-5.975-1.414-12.173-1.652-18.8-1.846Q480.256,23.71,480.236,24.536Z"/><path class="cls-22" d="M480.377,24.854a30.824,30.824,0,0,1,7.717.568q-.012-1.177-.028-2.446a36.984,36.984,0,0,0-7.571.18Q480.431,24.041,480.377,24.854Z"/><ellipse class="cls-23" cx="498.622" cy="25.934" rx="1.319" ry="0.337" transform="translate(353.758 503.753) rotate(-76.111)"/><path class="cls-3" d="M489.68,27.582a6.766,6.766,0,0,0,1-1.607,3.29,3.29,0,0,0-.167-3.108c-1.565-1.963-4.4-2.807-5.435-2.372-1.209.538-1.083,2.664-.45,5.666.631,3.2,3.024,3.708,4.3,2.259"/><path class="cls-3" d="M456.016,78.046a153.292,153.292,0,0,0,29.792-51.483l1.905.622a156.676,156.676,0,0,1-27.586,54.181Z"/><rect class="cls-1" width="100" height="200"/><rect class="cls-1" x="100" width="100" height="200"/><rect class="cls-1" x="200" width="100" height="200"/><rect class="cls-1" x="300" width="100" height="200"/><rect class="cls-1" x="400" width="100" height="200"/></svg>
