<svg xmlns="http://www.w3.org/2000/svg" xmlns:xlink="http://www.w3.org/1999/xlink" width="250" height="180" viewBox="0 0 250 180"><defs><style>.cls-1,.cls-14{fill:none;}.cls-2{isolation:isolate;}.cls-3{clip-path:url(#clip-path);}.cls-4{fill:#836748;}.cls-5{fill:#7f6446;}.cls-6{fill:#7b6144;}.cls-7{fill:#ad885f;}.cls-8{clip-path:url(#clip-path-2);}.cls-9{fill:#675139;}.cls-10{fill:#6b543b;}.cls-11{fill:#6f573d;}.cls-12{fill:#735a3f;}.cls-13{fill:#775e41;}.cls-14{stroke:#000;stroke-miterlimit:10;stroke-width:0.25px;}.cls-15{fill:#395931;}.cls-16{fill:#2e3192;opacity:0.85;}.cls-17{fill:#f0ecec;}.cls-18{fill:#d4145a;}</style><clipPath id="clip-path"><path class="cls-1" d="M99,24.51,30.39,61.74c14.28-7.75,33.24-11,54.05-8.07L153,16.43C132.23,13.49,113.27,16.76,99,24.51Z"/></clipPath><clipPath id="clip-path-2"><path class="cls-1" d="M164.33,133.47c-2.49,14.31-11.92,26-25.74,33.5l68.61-37.24c16.22-8.8,26.4-23.39,26.39-41.22C233.56,55,197.5,22.72,153,16.43L84.44,53.67C128.89,60,165,92.23,165,125.74a44.55,44.55,0,0,1-.65,7.73"/></clipPath></defs><title>tra_flaske2</title><g id="Layer_2" data-name="Layer 2"><g class="cls-2"><g class="cls-2"><g class="cls-3"><g class="cls-2"><path class="cls-4" d="M84.44,53.67,153,16.43a96.74,96.74,0,0,0-37.61,1.7L46.82,55.36a96.81,96.81,0,0,1,37.62-1.69"/><path class="cls-5" d="M46.82,55.36l68.61-37.23a73.68,73.68,0,0,0-14,5.13L32.8,60.5a73.69,73.69,0,0,1,14-5.14"/><path class="cls-6" d="M32.8,60.5l68.61-37.24c-.82.4-1.63.82-2.42,1.25L30.39,61.74c.79-.43,1.59-.84,2.41-1.24"/></g></g></g><path class="cls-7" d="M14.37,134.21c.65,1,1.33,1.91,2,2.85"/><path class="cls-7" d="M16.4,137.06C30.67,156.11,55.86,171,84.55,175,129,181.33,165,159.26,165,125.74S128.89,60,84.44,53.67,4,69.45,4,103c0,10.83,3.78,21.52,10.37,31.25"/><g class="cls-2"><g class="cls-8"><g class="cls-2"><path class="cls-9" d="M138.59,167l68.61-37.24c16.22-8.8,26.4-23.39,26.39-41.22a50.69,50.69,0,0,0-3.17-17.32l-68.6,37.23A50.72,50.72,0,0,1,165,125.74c0,17.83-10.16,32.42-26.39,41.23"/><path class="cls-10" d="M161.82,108.42l68.6-37.23a61.12,61.12,0,0,0-3.56-7.91l-68.6,37.23a61.12,61.12,0,0,1,3.56,7.91"/><path class="cls-11" d="M158.26,100.51l68.6-37.23a66.53,66.53,0,0,0-4.28-6.94L154,93.58a70,70,0,0,1,4.28,6.93"/><path class="cls-12" d="M154,93.58l68.6-37.24a77.06,77.06,0,0,0-5.37-6.81l-68.6,37.24A77.46,77.46,0,0,1,154,93.58"/><path class="cls-13" d="M148.61,86.77l68.6-37.24a87.36,87.36,0,0,0-7-7l-68.6,37.24a85.76,85.76,0,0,1,7,7"/><path class="cls-6" d="M141.63,79.73l68.6-37.24a95.6,95.6,0,0,0-9.67-7.64L132,72.08a98.28,98.28,0,0,1,9.67,7.65"/><path class="cls-5" d="M132,72.08l68.6-37.23a105.84,105.84,0,0,0-15.22-8.77L116.73,63.32A107.41,107.41,0,0,1,132,72.08"/><path class="cls-4" d="M116.73,63.32l68.61-37.24A113.08,113.08,0,0,0,153,16.43L84.44,53.67a112.7,112.7,0,0,1,32.29,9.65"/></g></g></g></g><ellipse class="cls-14" cx="78.99" cy="113.55" rx="9.42" ry="13.28" transform="translate(-51.84 158.44) rotate(-74.11)"/><ellipse class="cls-14" cx="78.5" cy="113.9" rx="11.84" ry="16.7" transform="translate(-52.54 158.22) rotate(-74.11)"/><ellipse class="cls-14" cx="79.98" cy="112.84" rx="4.58" ry="6.45" transform="translate(-50.44 158.88) rotate(-74.11)"/><ellipse class="cls-14" cx="78.77" cy="114.34" rx="20.18" ry="28.46" transform="translate(-52.77 158.8) rotate(-74.11)"/><ellipse class="cls-14" cx="80.37" cy="112.88" rx="26.37" ry="37.19" transform="translate(-50.21 159.28) rotate(-74.11)"/><ellipse class="cls-14" cx="80.55" cy="112.25" rx="32.83" ry="46.29" transform="translate(-49.46 158.99) rotate(-74.11)"/><ellipse class="cls-14" cx="84.67" cy="113.01" rx="39.02" ry="55.02" transform="translate(-47.2 163.51) rotate(-74.11)"/><ellipse class="cls-14" cx="84.66" cy="113.05" rx="43.33" ry="61.09" transform="translate(-47.25 163.53) rotate(-74.11)"/><ellipse class="cls-14" cx="83.75" cy="114" rx="48.15" ry="68.35" transform="translate(-48.82 163.35) rotate(-74.11)"/><ellipse class="cls-14" cx="83.44" cy="114.08" rx="54.17" ry="74.22" transform="translate(-49.13 163.1) rotate(-74.11)"/><path class="cls-15" d="M19.62,142.35c2.17-.78,4.89-2.43,7.39-3.65"/><path class="cls-16" d="M191.39,34.86l-4.57-22.25a6.55,6.55,0,0,1,5.37-7.49h0a6.55,6.55,0,0,1,7.89,4.77l4.66,22.71a11.88,11.88,0,0,0,7.73,8.8,21.72,21.72,0,0,1,14.4,15.93l19.31,94.09c1.09,5.32-2.73,10.64-8.48,11.82l-25.86,5.3c-5.75,1.18-11.35-2.2-12.45-7.52l-19.3-94.09a21.8,21.8,0,0,1,7.41-20.71A11.92,11.92,0,0,0,191.39,34.86Z"/><rect class="cls-17" x="188.46" y="79.55" width="47.76" height="51.53" transform="translate(441.52 165.81) rotate(168.41)"/><path class="cls-18" d="M190.32,4.82h9.61a2,2,0,0,1,2,2V29.65A4.37,4.37,0,0,1,197.52,34H193a4.63,4.63,0,0,1-4.63-4.63V6.78a2,2,0,0,1,2-2Z" transform="translate(390.18 -0.76) rotate(168.41)"/><rect class="cls-18" x="195.71" y="109.14" width="35.67" height="1.83" transform="translate(444.86 174.96) rotate(168.41)"/><rect class="cls-18" x="194.26" y="100.24" width="35.67" height="5.44" transform="translate(440.55 161.19) rotate(168.41)"/><rect class="cls-18" x="196.45" y="112.74" width="35.67" height="1.83" transform="translate(447.04 181.92) rotate(168.41)"/><rect class="cls-18" x="197.16" y="116.22" width="35.67" height="1.83" transform="translate(449.15 188.67) rotate(168.41)"/></g></svg>
