<svg xmlns="http://www.w3.org/2000/svg" xmlns:xlink="http://www.w3.org/1999/xlink" width="250" height="220" viewBox="0 0 250 220"><defs><style>.cls-1,.cls-14{fill:none;}.cls-2{isolation:isolate;}.cls-3{clip-path:url(#clip-path);}.cls-4{fill:#836748;}.cls-5{fill:#7f6446;}.cls-6{fill:#7b6144;}.cls-7{fill:#ad885f;}.cls-8{clip-path:url(#clip-path-2);}.cls-9{fill:#675139;}.cls-10{fill:#6b543b;}.cls-11{fill:#6f573d;}.cls-12{fill:#735a3f;}.cls-13{fill:#775e41;}.cls-14{stroke:#000;stroke-miterlimit:10;stroke-width:0.25px;}.cls-15{fill:#395931;}.cls-16{fill:#2e3192;opacity:0.85;}.cls-17{fill:#f0ecec;}.cls-18{fill:#d4145a;}</style><clipPath id="clip-path"><path class="cls-1" d="M150.87,41.51l68.6,37.23c-14.27-7.75-33.23-11-54-8.07L96.82,33.43C117.63,30.49,136.59,33.76,150.87,41.51Z"/></clipPath><clipPath id="clip-path-2"><path class="cls-1" d="M111.27,184,42.66,146.73c-16.22-8.8-26.4-23.39-26.38-41.22,0-33.52,36.09-65.79,80.54-72.08l68.61,37.24C121,77,84.91,109.23,84.88,142.74,84.86,160.57,95,175.16,111.27,184Z"/></clipPath></defs><title>trae_flaske</title><g id="Layer_2" data-name="Layer 2"><g class="cls-2"><g class="cls-2"><g class="cls-3"><g class="cls-2"><path class="cls-4" d="M165.43,70.67,96.82,33.43a96.8,96.8,0,0,1,37.62,1.7L203,72.36a96.75,96.75,0,0,0-37.61-1.69"/><path class="cls-5" d="M203,72.36l-68.6-37.23a73.93,73.93,0,0,1,14,5.13l68.6,37.24a73.69,73.69,0,0,0-14-5.14"/><path class="cls-6" d="M217.06,77.5l-68.6-37.24c.82.4,1.62.82,2.41,1.25l68.6,37.23c-.79-.43-1.59-.84-2.41-1.24"/></g></g></g><ellipse class="cls-7" cx="165.37" cy="131.35" rx="82.25" ry="59.38" transform="translate(-31.59 55.15) rotate(-17.31)"/><g class="cls-2"><g class="cls-8"><g class="cls-2"><path class="cls-9" d="M111.27,184,42.66,146.73c-16.22-8.8-26.4-23.39-26.38-41.22a50.68,50.68,0,0,1,3.16-17.32l68.61,37.23a50.73,50.73,0,0,0-3.17,17.32c0,17.83,10.16,32.42,26.39,41.23"/><path class="cls-10" d="M88.05,125.42,19.44,88.19A61.12,61.12,0,0,1,23,80.28l68.6,37.23a59.73,59.73,0,0,0-3.55,7.91"/><path class="cls-11" d="M91.6,117.51,23,80.28a70.11,70.11,0,0,1,4.28-6.94l68.6,37.24a70,70,0,0,0-4.28,6.93"/><path class="cls-12" d="M95.88,110.58,27.28,73.34a79,79,0,0,1,5.37-6.81l68.61,37.24a77.59,77.59,0,0,0-5.38,6.81"/><path class="cls-13" d="M101.26,103.77,32.65,66.53a87.36,87.36,0,0,1,7-7l68.61,37.24a85.76,85.76,0,0,0-7,7"/><path class="cls-6" d="M108.24,96.73,39.63,59.49a96.73,96.73,0,0,1,9.67-7.64l68.61,37.23a97.11,97.11,0,0,0-9.67,7.65"/><path class="cls-5" d="M117.91,89.08,49.3,51.85a106,106,0,0,1,15.23-8.77l68.6,37.24a106.74,106.74,0,0,0-15.22,8.76"/><path class="cls-4" d="M133.13,80.32,64.53,43.08a112.92,112.92,0,0,1,32.29-9.65l68.61,37.24a112.67,112.67,0,0,0-32.3,9.65"/></g></g></g></g><ellipse class="cls-14" cx="170.87" cy="130.55" rx="13.28" ry="9.42" transform="translate(-29.21 51.76) rotate(-15.89)"/><ellipse class="cls-14" cx="171.37" cy="130.9" rx="16.7" ry="11.84" transform="translate(-29.29 51.91) rotate(-15.89)"/><ellipse class="cls-14" cx="169.88" cy="129.84" rx="6.45" ry="4.58" transform="translate(-29.05 51.46) rotate(-15.89)"/><ellipse class="cls-14" cx="171.1" cy="131.34" rx="28.46" ry="20.18" transform="translate(-29.42 51.85) rotate(-15.89)"/><ellipse class="cls-14" cx="169.5" cy="129.88" rx="37.19" ry="26.37" transform="translate(-29.08 51.36) rotate(-15.89)"/><ellipse class="cls-14" cx="169.32" cy="129.25" rx="46.29" ry="32.83" transform="translate(-28.91 51.29) rotate(-15.89)"/><ellipse class="cls-14" cx="165.19" cy="130.01" rx="55.02" ry="39.02" transform="matrix(0.96, -0.27, 0.27, 0.96, -29.28, 50.19)"/><ellipse class="cls-14" cx="165.21" cy="130.05" rx="61.09" ry="43.33" transform="translate(-29.29 50.19) rotate(-15.89)"/><ellipse class="cls-14" cx="166.11" cy="131" rx="68.35" ry="48.15" transform="translate(-29.52 50.48) rotate(-15.89)"/><ellipse class="cls-14" cx="166.43" cy="131.08" rx="74.22" ry="54.17" transform="translate(-29.53 50.57) rotate(-15.89)"/><path class="cls-15" d="M16.75,215.12l228.63-.21-.06-57.16c-3.67,0-10-8-11,0s-18.37-11-18.7,0-21.32-9-30.39,0-13.36-9-22.24,0-16.93-17-32,0-17.07-17-16.55,0-9.09-7-18.83,0-25.1,0-25.1,0L16.69,158Z"/><path class="cls-16" d="M58.47,51.86,63,29.61a6.55,6.55,0,0,0-5.37-7.49h0a6.55,6.55,0,0,0-7.89,4.77L45.12,49.6a11.86,11.86,0,0,1-7.73,8.8A21.72,21.72,0,0,0,23,74.33L3.69,168.42c-1.09,5.32,2.72,10.64,8.48,11.82L38,185.54c5.76,1.18,11.36-2.2,12.45-7.52l19.3-94.09a21.82,21.82,0,0,0-7.4-20.71A11.92,11.92,0,0,1,58.47,51.86Z"/><rect class="cls-17" x="13.64" y="96.55" width="47.76" height="51.53" transform="translate(25.35 -5.04) rotate(11.59)"/><path class="cls-18" d="M52.6,21.82h4.53a4.37,4.37,0,0,1,4.37,4.37V49.06a2,2,0,0,1-2,2H49.93a2,2,0,0,1-2-2V26.45a4.63,4.63,0,0,1,4.63-4.63Z" transform="matrix(0.98, 0.2, -0.2, 0.98, 8.44, -10.26)"/><rect class="cls-18" x="18.48" y="126.14" width="35.67" height="1.83" transform="translate(26.28 -4.71) rotate(11.59)"/><rect class="cls-18" x="19.93" y="117.24" width="35.67" height="5.44" transform="translate(24.88 -5.14) rotate(11.59)"/><rect class="cls-18" x="17.74" y="129.74" width="35.67" height="1.83" transform="translate(26.98 -4.48) rotate(11.59)"/><rect class="cls-18" x="17.03" y="133.22" width="35.67" height="1.83" transform="translate(27.67 -4.27) rotate(11.59)"/></g></svg>
