<svg xmlns="http://www.w3.org/2000/svg" xmlns:xlink="http://www.w3.org/1999/xlink" width="210" height="150" viewBox="0 0 210 150"><defs><style>.cls-1,.cls-14{fill:none;}.cls-2{isolation:isolate;}.cls-3{clip-path:url(#clip-path);}.cls-4{fill:#836748;}.cls-5{fill:#7f6446;}.cls-6{fill:#7b6144;}.cls-7{fill:#ad885f;}.cls-8{clip-path:url(#clip-path-2);}.cls-9{fill:#675139;}.cls-10{fill:#6b543b;}.cls-11{fill:#6f573d;}.cls-12{fill:#735a3f;}.cls-13{fill:#775e41;}.cls-14{stroke:#000;stroke-miterlimit:10;stroke-width:0.25px;}</style><clipPath id="clip-path"><path class="cls-1" d="M87.69,11.86,28,44.35C40.39,37.59,56.9,34.73,75,37.27L134.77,4.78C116.64,2.23,100.12,5.1,87.69,11.86Z"/></clipPath><clipPath id="clip-path-2"><path class="cls-1" d="M122.31,135.94,182,103.44c14.13-7.68,23-20.4,23-35.93-.05-29.2-31.5-57.29-70.23-62.73L75,37.27c38.74,5.45,70.18,33.53,70.23,62.73C145.29,115.53,136.44,128.25,122.31,135.94Z"/></clipPath></defs><title>Træstamme</title><g id="Layer_2" data-name="Layer 2"><g class="cls-2"><g class="cls-2"><g class="cls-3"><g class="cls-2"><path class="cls-4" d="M75,37.27,134.77,4.78A84.46,84.46,0,0,0,102,6.29L42.27,38.79A84.2,84.2,0,0,1,75,37.27"/><path class="cls-5" d="M42.27,38.79,102,6.29a64.71,64.71,0,0,0-12.21,4.48L30.06,43.27a63.53,63.53,0,0,1,12.21-4.48"/><path class="cls-6" d="M30.06,43.27l59.73-32.5c-.71.35-1.41.71-2.1,1.09L28,44.35q1-.56,2.1-1.08"/></g></g></g><ellipse class="cls-7" cx="75.13" cy="90.15" rx="51.73" ry="71.66" transform="translate(-33.24 135.16) rotate(-72.75)"/><g class="cls-2"><g class="cls-8"><g class="cls-2"><path class="cls-9" d="M122.31,135.94,182,103.44c14.13-7.68,23-20.4,23-35.93a44.29,44.29,0,0,0-2.77-15.09L142.49,84.91A44.09,44.09,0,0,1,145.26,100c0,15.53-8.82,28.25-22.95,35.94"/><path class="cls-10" d="M142.49,84.91l59.74-32.49a53.57,53.57,0,0,0-3.11-6.89L139.39,78a52.63,52.63,0,0,1,3.1,6.88"/><path class="cls-11" d="M139.39,78l59.73-32.5a60,60,0,0,0-3.73-6L135.65,72a60.8,60.8,0,0,1,3.74,6"/><path class="cls-12" d="M135.65,72l59.74-32.5a66.5,66.5,0,0,0-4.69-5.92L131,66.06A68,68,0,0,1,135.65,72"/><path class="cls-13" d="M131,66.06,190.7,33.57a73.32,73.32,0,0,0-6.09-6.13L124.88,59.93A76.5,76.5,0,0,1,131,66.06"/><path class="cls-6" d="M124.88,59.93l59.73-32.49a83.45,83.45,0,0,0-8.43-6.66l-59.73,32.5a84.81,84.81,0,0,1,8.43,6.65"/><path class="cls-5" d="M116.45,53.28l59.73-32.5a92.36,92.36,0,0,0-13.27-7.62l-59.73,32.5a93.46,93.46,0,0,1,13.27,7.62"/><path class="cls-4" d="M103.18,45.66l59.73-32.5a98.39,98.39,0,0,0-28.14-8.38L75,37.27a98.47,98.47,0,0,1,28.15,8.39"/></g></g></g></g><ellipse class="cls-14" cx="70.34" cy="89.45" rx="8.21" ry="11.57" transform="translate(-34.9 132.71) rotate(-74.17)"/><ellipse class="cls-14" cx="69.91" cy="89.76" rx="10.32" ry="14.54" transform="translate(-35.51 132.52) rotate(-74.17)"/><ellipse class="cls-14" cx="71.2" cy="88.83" rx="3.99" ry="5.62" transform="translate(-33.68 133.09) rotate(-74.17)"/><ellipse class="cls-14" cx="70.14" cy="90.14" rx="17.58" ry="24.79" transform="translate(-35.71 133.03) rotate(-74.17)"/><ellipse class="cls-14" cx="71.54" cy="88.87" rx="22.98" ry="32.39" transform="translate(-33.48 133.44) rotate(-74.17)"/><ellipse class="cls-14" cx="71.69" cy="88.31" rx="28.6" ry="40.33" transform="translate(-32.83 133.19) rotate(-74.17)"/><ellipse class="cls-14" cx="75.28" cy="88.97" rx="34" ry="47.93" transform="translate(-30.85 137.13) rotate(-74.17)"/><ellipse class="cls-14" cx="75.28" cy="89.01" rx="37.75" ry="53.22" transform="translate(-30.89 137.14) rotate(-74.17)"/><ellipse class="cls-14" cx="74.49" cy="89.84" rx="41.94" ry="59.55" transform="translate(-32.27 136.99) rotate(-74.17)"/><ellipse class="cls-14" cx="74.21" cy="89.91" rx="47.2" ry="64.66" transform="translate(-32.53 136.77) rotate(-74.17)"/></g></svg>
