<svg xmlns="http://www.w3.org/2000/svg" width="150" height="300" viewBox="0 0 150 300"><defs><style>.cls-1{fill:#2e3192;opacity:0.85;}.cls-2{fill:#f0ecec;}.cls-3{fill:#d4145a;}</style></defs><title>Vin</title><g id="Layer_2" data-name="Layer 2"><path class="cls-1" d="M86,60.92V22.56C86,16.75,80.47,12,73.69,12h0c-6.78,0-12.33,4.75-12.33,10.56V61.71A19.81,19.81,0,0,1,50.78,78.89c-11.94,6.66-19.87,18.19-19.87,31.24v162.2c0,9.17,8.76,16.67,19.46,16.67H98.46c10.71,0,19.46-7.5,19.46-16.67V110.13c0-13.38-8.34-25.16-20.79-31.74C90.11,74.69,86,68,86,60.92Z"/><rect class="cls-2" x="30.91" y="141.07" width="87.02" height="87.02"/><path class="cls-3" d="M66,12H81.65A4.37,4.37,0,0,1,86,16.37v43a2,2,0,0,1-2,2H63.32a2,2,0,0,1-2-2V16.63A4.63,4.63,0,0,1,66,12Z"/><rect class="cls-3" x="41.5" y="191.29" width="65" height="3.1"/><rect class="cls-3" x="41.5" y="176" width="65" height="9.19"/><rect class="cls-3" x="41.5" y="197.48" width="65" height="3.1"/><rect class="cls-3" x="41.5" y="203.48" width="65" height="3.1"/></g></svg>
