<svg xmlns="http://www.w3.org/2000/svg" width="150" height="300" viewBox="0 0 150 300"><defs><style>.cls-1{fill:#395931;opacity:0.91;}.cls-2{fill:#f0ecec;}.cls-3{fill:#c1272d;}</style></defs><title>Øl</title><g id="Layer_2" data-name="Layer 2"><path class="cls-1" d="M85.12,62V24.37C85.12,18.67,79.67,14,73,14h0c-6.66,0-12.1,4.67-12.1,10.37V62.82a19.45,19.45,0,0,1-10.4,16.86C38.79,86.22,31,97.55,31,110.36V269.63c0,9,8.6,16.37,19.11,16.37H97.33c10.51,0,19.12-7.37,19.12-16.37V110.36c0-13.14-8.2-24.71-20.42-31.16C89.13,75.56,85.12,69,85.12,62Z"/><rect class="cls-2" x="31" y="140.74" width="85.45" height="85.45"/><path class="cls-3" d="M58.19,164.88c1.91.31,3.47,1.23,3.47,3.17a3.45,3.45,0,0,1-1.94,3.07,6.55,6.55,0,0,1-3.45.77h-4.9v-.55c1.69-.16,1.79-.34,1.79-1.92v-8c0-1.65-.18-1.79-1.79-1.93v-.56h5.22a5.26,5.26,0,0,1,3.07.7,2.61,2.61,0,0,1,1.18,2.23A3.18,3.18,0,0,1,58.19,164.88Zm-2.29-.25c2.19,0,3.09-.87,3.09-2.51,0-1.39-.86-2.47-2.78-2.47a2.07,2.07,0,0,0-1.11.2c-.16.12-.22.34-.22,1v3.8Zm-1,4.75c0,1.44.34,1.8,1.75,1.8a2.8,2.8,0,0,0,3.07-2.93c0-2-1.43-2.92-3.87-2.92h-.95Z"/><path class="cls-3" d="M73.64,168.72c-.12.52-.66,2.58-.86,3.17H63.09v-.55c1.86-.14,2-.32,2-2V161.5c0-1.77-.21-1.87-1.71-2v-.56h6.1c1.88,0,2.65,0,2.89,0,0,.5.1,2,.18,3.05L72,162a6.56,6.56,0,0,0-.6-1.51c-.32-.66-.78-.8-2-.8H67.48c-.62,0-.66.06-.66.64v4.4H69c1.5,0,1.6-.29,1.84-1.65h.62v4.11h-.62c-.26-1.44-.42-1.64-1.86-1.64H66.82v4c0,1.4.44,1.52,1.44,1.54h1.85c1.22,0,1.42-.18,1.85-.7A8.58,8.58,0,0,0,73,168.56Z"/><path class="cls-3" d="M85.38,168.72c-.12.52-.65,2.58-.85,3.17h-9.7v-.55c1.86-.14,2-.32,2-2V161.5c0-1.77-.22-1.87-1.72-2v-.56h6.11c1.87,0,2.65,0,2.89,0,0,.5.1,2,.18,3.05l-.6.1a6.56,6.56,0,0,0-.6-1.51c-.32-.66-.78-.8-2-.8h-1.9c-.62,0-.66.06-.66.64v4.4h2.22c1.49,0,1.59-.29,1.83-1.65h.62v4.11h-.62c-.26-1.44-.42-1.64-1.85-1.64h-2.2v4c0,1.4.44,1.52,1.44,1.54h1.85c1.22,0,1.42-.18,1.86-.7a8.58,8.58,0,0,0,1.08-1.84Z"/><path class="cls-3" d="M98.6,172.05c-.26,0-.48,0-.73,0a3.54,3.54,0,0,1-3.12-1.71c-.73-1-1.45-2.27-2.09-3.29-.4-.64-.66-.76-1.68-.76h-.69v3.13c0,1.7.22,1.8,1.81,2v.55H86.78v-.55c1.65-.18,1.79-.26,1.79-2v-8c0-1.69-.22-1.75-1.79-1.93v-.56h5.08a5.61,5.61,0,0,1,3.19.68,3,3,0,0,1,1.36,2.63,3.7,3.7,0,0,1-2.57,3.43c.36.62,1.21,2,1.81,2.85a18.36,18.36,0,0,0,1.58,2.06,2.82,2.82,0,0,0,1.45.92Zm-7.36-6.48a3.22,3.22,0,0,0,2.2-.58,2.8,2.8,0,0,0,1.09-2.45,2.68,2.68,0,0,0-3-2.91,1.79,1.79,0,0,0-1,.2c-.18.14-.24.34-.24.86v4.88Z"/><rect class="cls-3" x="48.09" y="197.71" width="51.27" height="2.85"/><rect class="cls-3" x="48.09" y="187.74" width="51.27" height="7.12"/><rect class="cls-3" x="48.09" y="203.4" width="51.27" height="2.85"/><path class="cls-3" d="M65.54,14H80.75a4.37,4.37,0,0,1,4.37,4.37V60.46a2,2,0,0,1-2,2H62.87a2,2,0,0,1-2-2V18.63A4.63,4.63,0,0,1,65.54,14Z"/></g></svg>
